<svg xmlns="http://www.w3.org/2000/svg" width="940" height="540" viewBox="0 0 940 540">
<rect width="100%" height="100%" fill="white"/>
<text x="470.0" y="25" text-anchor="middle" font-family="Microsoft YaHei, Arial" font-size="18" font-weight="700">平均功率-负载电阻仿真图（固定 PTFE 电荷密度，测试校准）</text>
<text x="470.0" y="49" text-anchor="middle" font-family="Microsoft YaHei, Arial" font-size="12" fill="#59636e">双电极曲线与实测平均功率一致；四/六电极按转移电荷提升比例 Q² 缩放</text>
<line x1="94" y1="458" x2="904" y2="458" stroke="#333"/>
<line x1="94" y1="54" x2="94" y2="458" stroke="#333"/>
<text x="470.0" y="515" text-anchor="middle" font-family="Arial" font-size="13">Load resistance</text>
<text x="18" y="270.0" text-anchor="middle" transform="rotate(-90 18 270.0)" font-family="Arial" font-size="13">Mean power (mW)</text>
<line x1="94" y1="54.0" x2="904" y2="54.0" stroke="#e1e6ec"/>
<text x="85" y="58.0" text-anchor="end" font-family="Arial" font-size="11">3.91</text>
<line x1="94" y1="134.8" x2="904" y2="134.8" stroke="#e1e6ec"/>
<text x="85" y="138.8" text-anchor="end" font-family="Arial" font-size="11">3.13</text>
<line x1="94" y1="215.6" x2="904" y2="215.6" stroke="#e1e6ec"/>
<text x="85" y="219.6" text-anchor="end" font-family="Arial" font-size="11">2.35</text>
<line x1="94" y1="296.4" x2="904" y2="296.4" stroke="#e1e6ec"/>
<text x="85" y="300.4" text-anchor="end" font-family="Arial" font-size="11">1.56</text>
<line x1="94" y1="377.2" x2="904" y2="377.2" stroke="#e1e6ec"/>
<text x="85" y="381.2" text-anchor="end" font-family="Arial" font-size="11">0.78</text>
<line x1="94" y1="458.0" x2="904" y2="458.0" stroke="#e1e6ec"/>
<text x="85" y="462.0" text-anchor="end" font-family="Arial" font-size="11">0.00</text>
<line x1="94.0" y1="458" x2="94.0" y2="463" stroke="#333"/>
<text x="94.0" y="480" text-anchor="middle" font-family="Arial" font-size="11">10K</text>
<line x1="229.0" y1="458" x2="229.0" y2="463" stroke="#333"/>
<text x="229.0" y="480" text-anchor="middle" font-family="Arial" font-size="11">100K</text>
<line x1="364.0" y1="458" x2="364.0" y2="463" stroke="#333"/>
<text x="364.0" y="480" text-anchor="middle" font-family="Arial" font-size="11">1M</text>
<line x1="499.0" y1="458" x2="499.0" y2="463" stroke="#333"/>
<text x="499.0" y="480" text-anchor="middle" font-family="Arial" font-size="11">10M</text>
<line x1="634.0" y1="458" x2="634.0" y2="463" stroke="#333"/>
<text x="634.0" y="480" text-anchor="middle" font-family="Arial" font-size="11">100M</text>
<line x1="769.0" y1="458" x2="769.0" y2="463" stroke="#333"/>
<text x="769.0" y="480" text-anchor="middle" font-family="Arial" font-size="11">1G</text>
<line x1="904.0" y1="458" x2="904.0" y2="463" stroke="#333"/>
<text x="904.0" y="480" text-anchor="middle" font-family="Arial" font-size="11">10G</text>
<polyline points="94.00,457.99 134.64,457.98 188.36,457.94 229.00,457.89 269.64,457.77 323.36,457.42 364.00,456.86 404.64,455.72 458.36,452.28 499.00,447.29 539.64,435.82 593.36,416.21 634.00,390.79 674.64,366.71 728.36,363.71 769.00,358.00 809.64,386.74 863.36,424.18 904.00,440.37" fill="none" stroke="#2f6f9f" stroke-width="2.4"/>
<circle cx="94.00" cy="457.99" r="3.2" fill="white" stroke="#2f6f9f" stroke-width="1.7"/>
<circle cx="134.64" cy="457.98" r="3.2" fill="white" stroke="#2f6f9f" stroke-width="1.7"/>
<circle cx="188.36" cy="457.94" r="3.2" fill="white" stroke="#2f6f9f" stroke-width="1.7"/>
<circle cx="229.00" cy="457.89" r="3.2" fill="white" stroke="#2f6f9f" stroke-width="1.7"/>
<circle cx="269.64" cy="457.77" r="3.2" fill="white" stroke="#2f6f9f" stroke-width="1.7"/>
<circle cx="323.36" cy="457.42" r="3.2" fill="white" stroke="#2f6f9f" stroke-width="1.7"/>
<circle cx="364.00" cy="456.86" r="3.2" fill="white" stroke="#2f6f9f" stroke-width="1.7"/>
<circle cx="404.64" cy="455.72" r="3.2" fill="white" stroke="#2f6f9f" stroke-width="1.7"/>
<circle cx="458.36" cy="452.28" r="3.2" fill="white" stroke="#2f6f9f" stroke-width="1.7"/>
<circle cx="499.00" cy="447.29" r="3.2" fill="white" stroke="#2f6f9f" stroke-width="1.7"/>
<circle cx="539.64" cy="435.82" r="3.2" fill="white" stroke="#2f6f9f" stroke-width="1.7"/>
<circle cx="593.36" cy="416.21" r="3.2" fill="white" stroke="#2f6f9f" stroke-width="1.7"/>
<circle cx="634.00" cy="390.79" r="3.2" fill="white" stroke="#2f6f9f" stroke-width="1.7"/>
<circle cx="674.64" cy="366.71" r="3.2" fill="white" stroke="#2f6f9f" stroke-width="1.7"/>
<circle cx="728.36" cy="363.71" r="3.2" fill="white" stroke="#2f6f9f" stroke-width="1.7"/>
<circle cx="769.00" cy="358.00" r="3.2" fill="white" stroke="#2f6f9f" stroke-width="1.7"/>
<circle cx="809.64" cy="386.74" r="3.2" fill="white" stroke="#2f6f9f" stroke-width="1.7"/>
<circle cx="863.36" cy="424.18" r="3.2" fill="white" stroke="#2f6f9f" stroke-width="1.7"/>
<circle cx="904.00" cy="440.37" r="3.2" fill="white" stroke="#2f6f9f" stroke-width="1.7"/>
<text x="684" y="82" font-family="Microsoft YaHei, Arial" font-size="13" fill="#2f6f9f">2 electrodes, measured-calibrated</text>
<text x="777.0" y="349.0" font-family="Arial" font-size="11" fill="#2f6f9f">0.97 mW @ 1G</text>
<polyline points="94.00,457.97 134.64,457.93 188.36,457.83 229.00,457.67 269.64,457.33 323.36,456.30 364.00,454.66 404.64,451.32 458.36,441.26 499.00,426.66 539.64,393.11 593.36,335.74 634.00,261.35 674.64,190.88 728.36,182.11 769.00,165.40 809.64,249.49 863.36,359.04 904.00,406.41" fill="none" stroke="#34a853" stroke-width="2.4"/>
<circle cx="94.00" cy="457.97" r="3.2" fill="white" stroke="#34a853" stroke-width="1.7"/>
<circle cx="134.64" cy="457.93" r="3.2" fill="white" stroke="#34a853" stroke-width="1.7"/>
<circle cx="188.36" cy="457.83" r="3.2" fill="white" stroke="#34a853" stroke-width="1.7"/>
<circle cx="229.00" cy="457.67" r="3.2" fill="white" stroke="#34a853" stroke-width="1.7"/>
<circle cx="269.64" cy="457.33" r="3.2" fill="white" stroke="#34a853" stroke-width="1.7"/>
<circle cx="323.36" cy="456.30" r="3.2" fill="white" stroke="#34a853" stroke-width="1.7"/>
<circle cx="364.00" cy="454.66" r="3.2" fill="white" stroke="#34a853" stroke-width="1.7"/>
<circle cx="404.64" cy="451.32" r="3.2" fill="white" stroke="#34a853" stroke-width="1.7"/>
<circle cx="458.36" cy="441.26" r="3.2" fill="white" stroke="#34a853" stroke-width="1.7"/>
<circle cx="499.00" cy="426.66" r="3.2" fill="white" stroke="#34a853" stroke-width="1.7"/>
<circle cx="539.64" cy="393.11" r="3.2" fill="white" stroke="#34a853" stroke-width="1.7"/>
<circle cx="593.36" cy="335.74" r="3.2" fill="white" stroke="#34a853" stroke-width="1.7"/>
<circle cx="634.00" cy="261.35" r="3.2" fill="white" stroke="#34a853" stroke-width="1.7"/>
<circle cx="674.64" cy="190.88" r="3.2" fill="white" stroke="#34a853" stroke-width="1.7"/>
<circle cx="728.36" cy="182.11" r="3.2" fill="white" stroke="#34a853" stroke-width="1.7"/>
<circle cx="769.00" cy="165.40" r="3.2" fill="white" stroke="#34a853" stroke-width="1.7"/>
<circle cx="809.64" cy="249.49" r="3.2" fill="white" stroke="#34a853" stroke-width="1.7"/>
<circle cx="863.36" cy="359.04" r="3.2" fill="white" stroke="#34a853" stroke-width="1.7"/>
<circle cx="904.00" cy="406.41" r="3.2" fill="white" stroke="#34a853" stroke-width="1.7"/>
<text x="684" y="104" font-family="Microsoft YaHei, Arial" font-size="13" fill="#34a853">4 electrodes, Q=650 nC</text>
<text x="777.0" y="156.4" font-family="Arial" font-size="11" fill="#34a853">2.83 mW @ 1G</text>
<polyline points="94.00,457.96 134.64,457.92 188.36,457.80 229.00,457.60 269.64,457.20 323.36,455.96 364.00,453.99 404.64,449.98 458.36,437.90 499.00,420.38 539.64,380.09 593.36,311.21 634.00,221.89 674.64,137.29 728.36,126.76 769.00,106.70 809.64,207.66 863.36,339.19 904.00,396.06" fill="none" stroke="#b26a00" stroke-width="2.4"/>
<circle cx="94.00" cy="457.96" r="3.2" fill="white" stroke="#b26a00" stroke-width="1.7"/>
<circle cx="134.64" cy="457.92" r="3.2" fill="white" stroke="#b26a00" stroke-width="1.7"/>
<circle cx="188.36" cy="457.80" r="3.2" fill="white" stroke="#b26a00" stroke-width="1.7"/>
<circle cx="229.00" cy="457.60" r="3.2" fill="white" stroke="#b26a00" stroke-width="1.7"/>
<circle cx="269.64" cy="457.20" r="3.2" fill="white" stroke="#b26a00" stroke-width="1.7"/>
<circle cx="323.36" cy="455.96" r="3.2" fill="white" stroke="#b26a00" stroke-width="1.7"/>
<circle cx="364.00" cy="453.99" r="3.2" fill="white" stroke="#b26a00" stroke-width="1.7"/>
<circle cx="404.64" cy="449.98" r="3.2" fill="white" stroke="#b26a00" stroke-width="1.7"/>
<circle cx="458.36" cy="437.90" r="3.2" fill="white" stroke="#b26a00" stroke-width="1.7"/>
<circle cx="499.00" cy="420.38" r="3.2" fill="white" stroke="#b26a00" stroke-width="1.7"/>
<circle cx="539.64" cy="380.09" r="3.2" fill="white" stroke="#b26a00" stroke-width="1.7"/>
<circle cx="593.36" cy="311.21" r="3.2" fill="white" stroke="#b26a00" stroke-width="1.7"/>
<circle cx="634.00" cy="221.89" r="3.2" fill="white" stroke="#b26a00" stroke-width="1.7"/>
<circle cx="674.64" cy="137.29" r="3.2" fill="white" stroke="#b26a00" stroke-width="1.7"/>
<circle cx="728.36" cy="126.76" r="3.2" fill="white" stroke="#b26a00" stroke-width="1.7"/>
<circle cx="769.00" cy="106.70" r="3.2" fill="white" stroke="#b26a00" stroke-width="1.7"/>
<circle cx="809.64" cy="207.66" r="3.2" fill="white" stroke="#b26a00" stroke-width="1.7"/>
<circle cx="863.36" cy="339.19" r="3.2" fill="white" stroke="#b26a00" stroke-width="1.7"/>
<circle cx="904.00" cy="396.06" r="3.2" fill="white" stroke="#b26a00" stroke-width="1.7"/>
<text x="684" y="126" font-family="Microsoft YaHei, Arial" font-size="13" fill="#b26a00">6 electrodes, Q=712 nC predicted</text>
<text x="777.0" y="97.7" font-family="Arial" font-size="11" fill="#b26a00">3.40 mW @ 1G</text>
<text x="94" y="534" font-family="Microsoft YaHei, Arial" font-size="11" fill="#66717c">Q₂=380 nC, Q₄=650 nC, Q₆=712 nC；功率按固定电荷密度下 P∝Q² 估算，适合作为专利中的趋势仿真图。</text>
</svg>