<svg xmlns="http://www.w3.org/2000/svg" width="940" height="540" viewBox="0 0 940 540">
<rect width="100%" height="100%" fill="white"/>
<text x="470.0" y="25" text-anchor="middle" font-family="Microsoft YaHei, Arial" font-size="18" font-weight="700">平均功率-负载电阻仿真图（非等幅多脉冲模型，测试校准）</text>
<text x="470.0" y="49" text-anchor="middle" font-family="Microsoft YaHei, Arial" font-size="12" fill="#59636e">双电极曲线采用实测平均功率；四电极由 650 nC 校准，六电极按衰减脉冲预测</text>
<line x1="94" y1="458" x2="904" y2="458" stroke="#333"/>
<line x1="94" y1="54" x2="94" y2="458" stroke="#333"/>
<text x="470.0" y="515" text-anchor="middle" font-family="Arial" font-size="13">Load resistance</text>
<text x="18" y="270.0" text-anchor="middle" transform="rotate(-90 18 270.0)" font-family="Arial" font-size="13">Mean power (mW)</text>
<line x1="94" y1="54.0" x2="904" y2="54.0" stroke="#e1e6ec"/>
<text x="85" y="58.0" text-anchor="end" font-family="Arial" font-size="11">5.46</text>
<line x1="94" y1="134.8" x2="904" y2="134.8" stroke="#e1e6ec"/>
<text x="85" y="138.8" text-anchor="end" font-family="Arial" font-size="11">4.37</text>
<line x1="94" y1="215.6" x2="904" y2="215.6" stroke="#e1e6ec"/>
<text x="85" y="219.6" text-anchor="end" font-family="Arial" font-size="11">3.28</text>
<line x1="94" y1="296.4" x2="904" y2="296.4" stroke="#e1e6ec"/>
<text x="85" y="300.4" text-anchor="end" font-family="Arial" font-size="11">2.18</text>
<line x1="94" y1="377.2" x2="904" y2="377.2" stroke="#e1e6ec"/>
<text x="85" y="381.2" text-anchor="end" font-family="Arial" font-size="11">1.09</text>
<line x1="94" y1="458.0" x2="904" y2="458.0" stroke="#e1e6ec"/>
<text x="85" y="462.0" text-anchor="end" font-family="Arial" font-size="11">0.00</text>
<line x1="94.0" y1="458" x2="94.0" y2="463" stroke="#333"/>
<text x="94.0" y="480" text-anchor="middle" font-family="Arial" font-size="11">10K</text>
<line x1="229.0" y1="458" x2="229.0" y2="463" stroke="#333"/>
<text x="229.0" y="480" text-anchor="middle" font-family="Arial" font-size="11">100K</text>
<line x1="364.0" y1="458" x2="364.0" y2="463" stroke="#333"/>
<text x="364.0" y="480" text-anchor="middle" font-family="Arial" font-size="11">1M</text>
<line x1="499.0" y1="458" x2="499.0" y2="463" stroke="#333"/>
<text x="499.0" y="480" text-anchor="middle" font-family="Arial" font-size="11">10M</text>
<line x1="634.0" y1="458" x2="634.0" y2="463" stroke="#333"/>
<text x="634.0" y="480" text-anchor="middle" font-family="Arial" font-size="11">100M</text>
<line x1="769.0" y1="458" x2="769.0" y2="463" stroke="#333"/>
<text x="769.0" y="480" text-anchor="middle" font-family="Arial" font-size="11">1G</text>
<line x1="904.0" y1="458" x2="904.0" y2="463" stroke="#333"/>
<text x="904.0" y="480" text-anchor="middle" font-family="Arial" font-size="11">10G</text>
<polyline points="94.00,457.99 134.64,457.98 188.36,457.96 229.00,457.92 269.64,457.84 323.36,457.58 364.00,457.18 404.64,456.37 458.36,453.90 499.00,450.33 539.64,442.13 593.36,428.09 634.00,409.89 674.64,392.65 728.36,390.51 769.00,386.42 809.64,406.99 863.36,433.79 904.00,445.38" fill="none" stroke="#2f6f9f" stroke-width="2.4"/>
<circle cx="94.00" cy="457.99" r="3.2" fill="white" stroke="#2f6f9f" stroke-width="1.7"/>
<circle cx="134.64" cy="457.98" r="3.2" fill="white" stroke="#2f6f9f" stroke-width="1.7"/>
<circle cx="188.36" cy="457.96" r="3.2" fill="white" stroke="#2f6f9f" stroke-width="1.7"/>
<circle cx="229.00" cy="457.92" r="3.2" fill="white" stroke="#2f6f9f" stroke-width="1.7"/>
<circle cx="269.64" cy="457.84" r="3.2" fill="white" stroke="#2f6f9f" stroke-width="1.7"/>
<circle cx="323.36" cy="457.58" r="3.2" fill="white" stroke="#2f6f9f" stroke-width="1.7"/>
<circle cx="364.00" cy="457.18" r="3.2" fill="white" stroke="#2f6f9f" stroke-width="1.7"/>
<circle cx="404.64" cy="456.37" r="3.2" fill="white" stroke="#2f6f9f" stroke-width="1.7"/>
<circle cx="458.36" cy="453.90" r="3.2" fill="white" stroke="#2f6f9f" stroke-width="1.7"/>
<circle cx="499.00" cy="450.33" r="3.2" fill="white" stroke="#2f6f9f" stroke-width="1.7"/>
<circle cx="539.64" cy="442.13" r="3.2" fill="white" stroke="#2f6f9f" stroke-width="1.7"/>
<circle cx="593.36" cy="428.09" r="3.2" fill="white" stroke="#2f6f9f" stroke-width="1.7"/>
<circle cx="634.00" cy="409.89" r="3.2" fill="white" stroke="#2f6f9f" stroke-width="1.7"/>
<circle cx="674.64" cy="392.65" r="3.2" fill="white" stroke="#2f6f9f" stroke-width="1.7"/>
<circle cx="728.36" cy="390.51" r="3.2" fill="white" stroke="#2f6f9f" stroke-width="1.7"/>
<circle cx="769.00" cy="386.42" r="3.2" fill="white" stroke="#2f6f9f" stroke-width="1.7"/>
<circle cx="809.64" cy="406.99" r="3.2" fill="white" stroke="#2f6f9f" stroke-width="1.7"/>
<circle cx="863.36" cy="433.79" r="3.2" fill="white" stroke="#2f6f9f" stroke-width="1.7"/>
<circle cx="904.00" cy="445.38" r="3.2" fill="white" stroke="#2f6f9f" stroke-width="1.7"/>
<text x="669" y="82" font-family="Microsoft YaHei, Arial" font-size="13" fill="#2f6f9f">2 electrodes, measured</text>
<text x="777.0" y="377.4" font-family="Arial" font-size="11" fill="#2f6f9f">0.97 mW @ 1G</text>
<polyline points="94.00,457.98 134.64,457.95 188.36,457.88 229.00,457.76 269.64,457.52 323.36,456.78 364.00,455.61 404.64,453.22 458.36,446.02 499.00,435.57 539.64,411.56 593.36,370.49 634.00,317.24 674.64,266.80 728.36,260.53 769.00,248.57 809.64,308.76 863.36,387.17 904.00,421.07" fill="none" stroke="#34a853" stroke-width="2.4"/>
<circle cx="94.00" cy="457.98" r="3.2" fill="white" stroke="#34a853" stroke-width="1.7"/>
<circle cx="134.64" cy="457.95" r="3.2" fill="white" stroke="#34a853" stroke-width="1.7"/>
<circle cx="188.36" cy="457.88" r="3.2" fill="white" stroke="#34a853" stroke-width="1.7"/>
<circle cx="229.00" cy="457.76" r="3.2" fill="white" stroke="#34a853" stroke-width="1.7"/>
<circle cx="269.64" cy="457.52" r="3.2" fill="white" stroke="#34a853" stroke-width="1.7"/>
<circle cx="323.36" cy="456.78" r="3.2" fill="white" stroke="#34a853" stroke-width="1.7"/>
<circle cx="364.00" cy="455.61" r="3.2" fill="white" stroke="#34a853" stroke-width="1.7"/>
<circle cx="404.64" cy="453.22" r="3.2" fill="white" stroke="#34a853" stroke-width="1.7"/>
<circle cx="458.36" cy="446.02" r="3.2" fill="white" stroke="#34a853" stroke-width="1.7"/>
<circle cx="499.00" cy="435.57" r="3.2" fill="white" stroke="#34a853" stroke-width="1.7"/>
<circle cx="539.64" cy="411.56" r="3.2" fill="white" stroke="#34a853" stroke-width="1.7"/>
<circle cx="593.36" cy="370.49" r="3.2" fill="white" stroke="#34a853" stroke-width="1.7"/>
<circle cx="634.00" cy="317.24" r="3.2" fill="white" stroke="#34a853" stroke-width="1.7"/>
<circle cx="674.64" cy="266.80" r="3.2" fill="white" stroke="#34a853" stroke-width="1.7"/>
<circle cx="728.36" cy="260.53" r="3.2" fill="white" stroke="#34a853" stroke-width="1.7"/>
<circle cx="769.00" cy="248.57" r="3.2" fill="white" stroke="#34a853" stroke-width="1.7"/>
<circle cx="809.64" cy="308.76" r="3.2" fill="white" stroke="#34a853" stroke-width="1.7"/>
<circle cx="863.36" cy="387.17" r="3.2" fill="white" stroke="#34a853" stroke-width="1.7"/>
<circle cx="904.00" cy="421.07" r="3.2" fill="white" stroke="#34a853" stroke-width="1.7"/>
<text x="669" y="104" font-family="Microsoft YaHei, Arial" font-size="13" fill="#34a853">4 electrodes, Q=650 nC</text>
<text x="777.0" y="239.6" font-family="Arial" font-size="11" fill="#34a853">2.83 mW @ 1G</text>
<polyline points="94.00,457.96 134.64,457.92 188.36,457.80 229.00,457.60 269.64,457.20 323.36,455.96 364.00,453.99 404.64,449.98 458.36,437.90 499.00,420.38 539.64,380.09 593.36,311.21 634.00,221.89 674.64,137.29 728.36,126.76 769.00,106.70 809.64,207.66 863.36,339.19 904.00,396.06" fill="none" stroke="#b26a00" stroke-width="2.4"/>
<circle cx="94.00" cy="457.96" r="3.2" fill="white" stroke="#b26a00" stroke-width="1.7"/>
<circle cx="134.64" cy="457.92" r="3.2" fill="white" stroke="#b26a00" stroke-width="1.7"/>
<circle cx="188.36" cy="457.80" r="3.2" fill="white" stroke="#b26a00" stroke-width="1.7"/>
<circle cx="229.00" cy="457.60" r="3.2" fill="white" stroke="#b26a00" stroke-width="1.7"/>
<circle cx="269.64" cy="457.20" r="3.2" fill="white" stroke="#b26a00" stroke-width="1.7"/>
<circle cx="323.36" cy="455.96" r="3.2" fill="white" stroke="#b26a00" stroke-width="1.7"/>
<circle cx="364.00" cy="453.99" r="3.2" fill="white" stroke="#b26a00" stroke-width="1.7"/>
<circle cx="404.64" cy="449.98" r="3.2" fill="white" stroke="#b26a00" stroke-width="1.7"/>
<circle cx="458.36" cy="437.90" r="3.2" fill="white" stroke="#b26a00" stroke-width="1.7"/>
<circle cx="499.00" cy="420.38" r="3.2" fill="white" stroke="#b26a00" stroke-width="1.7"/>
<circle cx="539.64" cy="380.09" r="3.2" fill="white" stroke="#b26a00" stroke-width="1.7"/>
<circle cx="593.36" cy="311.21" r="3.2" fill="white" stroke="#b26a00" stroke-width="1.7"/>
<circle cx="634.00" cy="221.89" r="3.2" fill="white" stroke="#b26a00" stroke-width="1.7"/>
<circle cx="674.64" cy="137.29" r="3.2" fill="white" stroke="#b26a00" stroke-width="1.7"/>
<circle cx="728.36" cy="126.76" r="3.2" fill="white" stroke="#b26a00" stroke-width="1.7"/>
<circle cx="769.00" cy="106.70" r="3.2" fill="white" stroke="#b26a00" stroke-width="1.7"/>
<circle cx="809.64" cy="207.66" r="3.2" fill="white" stroke="#b26a00" stroke-width="1.7"/>
<circle cx="863.36" cy="339.19" r="3.2" fill="white" stroke="#b26a00" stroke-width="1.7"/>
<circle cx="904.00" cy="396.06" r="3.2" fill="white" stroke="#b26a00" stroke-width="1.7"/>
<text x="669" y="126" font-family="Microsoft YaHei, Arial" font-size="13" fill="#b26a00">6 electrodes, Q=842 nC predicted</text>
<text x="777.0" y="97.7" font-family="Arial" font-size="11" fill="#b26a00">4.75 mW @ 1G</text>
<text x="94" y="534" font-family="Microsoft YaHei, Arial" font-size="11" fill="#66717c">Q₂=380 nC, Q₄=650 nC, Q₆≈842 nC；最高短路峰值接近，后续脉冲不等幅。</text>
</svg>