<svg xmlns="http://www.w3.org/2000/svg" width="850" height="460" viewBox="0 0 850 460">
<rect width="100%" height="100%" fill="white"/>
<text x="425.0" y="23" text-anchor="middle" font-family="Arial" font-size="15">N=4 measured transferred charge selected cycle</text>
<line x1="96" y1="394" x2="822" y2="394" stroke="#333"/>
<line x1="96" y1="34" x2="96" y2="394" stroke="#333"/>
<text x="425.0" y="442" text-anchor="middle" font-family="Arial" font-size="12">Time (s)</text>
<text x="16" y="230.0" text-anchor="middle" transform="rotate(-90 16 230.0)" font-family="Arial" font-size="12">Transferred charge (nC)</text>
<line x1="96" y1="34.0" x2="822" y2="34.0" stroke="#e1e5ea"/>
<text x="88" y="38.0" text-anchor="end" font-family="Arial" font-size="10">63.94</text>
<line x1="96" y1="106.0" x2="822" y2="106.0" stroke="#e1e5ea"/>
<text x="88" y="110.0" text-anchor="end" font-family="Arial" font-size="10">-88.38</text>
<line x1="96" y1="178.0" x2="822" y2="178.0" stroke="#e1e5ea"/>
<text x="88" y="182.0" text-anchor="end" font-family="Arial" font-size="10">-240.69</text>
<line x1="96" y1="250.0" x2="822" y2="250.0" stroke="#e1e5ea"/>
<text x="88" y="254.0" text-anchor="end" font-family="Arial" font-size="10">-393.00</text>
<line x1="96" y1="322.0" x2="822" y2="322.0" stroke="#e1e5ea"/>
<text x="88" y="326.0" text-anchor="end" font-family="Arial" font-size="10">-545.32</text>
<line x1="96" y1="394.0" x2="822" y2="394.0" stroke="#e1e5ea"/>
<text x="88" y="398.0" text-anchor="end" font-family="Arial" font-size="10">-697.63</text>
<line x1="96" y1="64.2" x2="822" y2="64.2" stroke="#999" stroke-dasharray="4 4"/>
<polyline points="96.00,64.67 96.20,64.60 96.40,64.52 96.60,64.45 96.80,64.39 97.01,64.33 97.21,64.28 97.41,64.23 97.61,64.18 97.81,64.14 98.01,64.11 98.21,64.08 98.41,64.05 98.61,64.03 98.81,64.02 99.02,64.01 99.22,64.00 99.42,64.00 99.62,64.00 99.82,64.01 100.02,64.02 100.22,64.04 100.42,64.06 100.62,64.08 100.83,64.10 101.03,64.13 101.23,64.16 101.43,64.20 101.63,64.24 101.83,64.28 102.03,64.32 102.23,64.37 102.43,64.41 102.63,64.46 102.84,64.51 103.04,64.56 103.24,64.62 103.44,64.67 103.64,64.73 103.84,64.78 104.04,64.84 104.24,64.90 104.44,64.95 104.65,65.01 104.85,65.07 105.05,65.12 105.25,65.18 105.45,65.24 105.65,65.29 105.85,65.35 106.05,65.40 106.25,65.45 106.45,65.51 106.66,65.56 106.86,65.61 107.06,65.66 107.26,65.71 107.46,65.76 107.66,65.80 107.86,65.85 108.06,65.89 108.26,65.94 108.47,65.98 108.67,66.02 108.87,66.07 109.07,66.11 109.27,66.14 109.47,66.18 109.67,66.21 109.87,66.25 110.07,66.27 110.27,66.30 110.48,66.32 110.68,66.34 110.88,66.35 111.08,66.36 111.28,66.37 111.48,66.37 111.68,66.37 111.88,66.36 112.08,66.35 112.29,66.34 112.49,66.32 112.69,66.29 112.89,66.27 113.09,66.24 113.29,66.21 113.49,66.18 113.69,66.15 113.89,66.11 114.09,66.08 114.30,66.05 114.50,66.02 114.70,65.99 114.90,65.96 115.10,65.94 115.30,65.92 115.50,65.91 115.70,65.90 115.90,65.89 116.11,65.89 116.31,65.90 116.51,65.91 116.71,65.92 116.91,65.95 117.11,65.98 117.31,66.02 117.51,66.06 117.71,66.11 117.91,66.17 118.12,66.23 118.32,66.30 118.52,66.37 118.72,66.46 118.92,66.55 119.12,66.64 119.32,66.75 119.52,66.85 119.72,66.97 119.93,67.09 120.13,67.21 120.33,67.35 120.53,67.48 120.73,67.63 120.93,67.78 121.13,67.93 121.33,68.09 121.53,68.25 121.73,68.42 121.94,68.59 122.14,68.77 122.34,68.95 122.54,69.13 122.74,69.32 122.94,69.51 123.14,69.71 123.34,69.90 123.54,70.11 123.75,70.31 123.95,70.51 124.15,70.72 124.35,70.93 124.55,71.15 124.75,71.36 124.95,71.58 125.15,71.80 125.35,72.02 125.55,72.24 125.76,72.47 125.96,72.70 126.16,72.92 126.36,73.15 126.56,73.38 126.76,73.61 126.96,73.85 127.16,74.08 127.36,74.32 127.57,74.56 127.77,74.79 127.97,75.03 128.17,75.27 128.37,75.52 128.57,75.76 128.77,76.00 128.97,76.25 129.17,76.50 129.37,76.74 129.58,76.99 129.78,77.24 129.98,77.49 130.18,77.73 130.38,77.98 130.58,78.22 130.78,78.46 130.98,78.70 131.18,78.94 131.39,79.18 131.59,79.41 131.79,79.64 131.99,79.87 132.19,80.10 132.39,80.33 132.59,80.55 132.79,80.77 132.99,80.99 133.19,81.21 133.40,81.43 133.60,81.65 133.80,81.87 134.00,82.09 134.20,82.31 134.40,82.53 134.60,82.76 134.80,82.99 135.00,83.23 135.21,83.47 135.41,83.71 135.61,83.97 135.81,84.22 136.01,84.49 136.21,84.76 136.41,85.04 136.61,85.32 136.81,85.61 137.01,85.91 137.22,86.21 137.42,86.53 137.62,86.85 137.82,87.17 138.02,87.51 138.22,87.85 138.42,88.20 138.62,88.55 138.82,88.91 139.03,89.28 139.23,89.66 139.43,90.04 139.63,90.43 139.83,90.82 140.03,91.22 140.23,91.63 140.43,92.04 140.63,92.46 140.83,92.88 141.04,93.31 141.24,93.74 141.44,94.18 141.64,94.62 141.84,95.06 142.04,95.51 142.24,95.97 142.44,96.43 142.64,96.89 142.85,97.35 143.05,97.82 143.25,98.29 143.45,98.76 143.65,99.24 143.85,99.72 144.05,100.20 144.25,100.68 144.45,101.16 144.65,101.65 144.86,102.14 145.06,102.63 145.26,103.12 145.46,103.61 145.66,104.10 145.86,104.59 146.06,105.09 146.26,105.58 146.46,106.08 146.67,106.58 146.87,107.07 147.07,107.57 147.27,108.07 147.47,108.57 147.67,109.07 147.87,109.57 148.07,110.07 148.27,110.57 148.47,111.07 148.68,111.56 148.88,112.06 149.08,112.56 149.28,113.05 149.48,113.54 149.68,114.03 149.88,114.51 150.08,115.00 150.28,115.47 150.49,115.95 150.69,116.41 150.89,116.88 151.09,117.34 151.29,117.79 151.49,118.24 151.69,118.68 151.89,119.12 152.09,119.55 152.29,119.97 152.50,120.39 152.70,120.81 152.90,121.22 153.10,121.63 153.30,122.04 153.50,122.44 153.70,122.83 153.90,123.23 154.10,123.62 154.31,124.01 154.51,124.41 154.71,124.80 154.91,125.19 155.11,125.58 155.31,125.98 155.51,126.37 155.71,126.78 155.91,127.18 156.11,127.60 156.32,128.01 156.52,128.43 156.72,128.86 156.92,129.30 157.12,129.74 157.32,130.19 157.52,130.64 157.72,131.10 157.92,131.57 158.13,132.05 158.33,132.53 158.53,133.01 158.73,133.51 158.93,134.01 159.13,134.52 159.33,135.03 159.53,135.55 159.73,136.08 159.93,136.61 160.14,137.14 160.34,137.68 160.54,138.23 160.74,138.78 160.94,139.33 161.14,139.89 161.34,140.45 161.54,141.02 161.74,141.58 161.95,142.16 162.15,142.73 162.35,143.31 162.55,143.88 162.75,144.46 162.95,145.04 163.15,145.62 163.35,146.21 163.55,146.79 163.75,147.37 163.96,147.95 164.16,148.54 164.36,149.12 164.56,149.70 164.76,150.28 164.96,150.86 165.16,151.44 165.36,152.01 165.56,152.59 165.77,153.16 165.97,153.73 166.17,154.30 166.37,154.87 166.57,155.43 166.77,156.00 166.97,156.56 167.17,157.11 167.37,157.67 167.57,158.22 167.78,158.77 167.98,159.32 168.18,159.86 168.38,160.40 168.58,160.94 168.78,161.47 168.98,162.00 169.18,162.52 169.38,163.04 169.59,163.54 169.79,164.05 169.99,164.54 170.19,165.03 170.39,165.51 170.59,165.98 170.79,166.44 170.99,166.89 171.19,167.34 171.39,167.77 171.60,168.20 171.80,168.62 172.00,169.03 172.20,169.44 172.40,169.83 172.60,170.22 172.80,170.60 173.00,170.98 173.20,171.35 173.41,171.71 173.61,172.07 173.81,172.42 174.01,172.76 174.21,173.11 174.41,173.44 174.61,173.78 174.81,174.11 175.01,174.44 175.21,174.77 175.42,175.10 175.62,175.43 175.82,175.76 176.02,176.09 176.22,176.43 176.42,176.77 176.62,177.11 176.82,177.46 177.02,177.81 177.23,178.17 177.43,178.54 177.63,178.91 177.83,179.29 178.03,179.68 178.23,180.07 178.43,180.48 178.63,180.88 178.83,181.30 179.03,181.72 179.24,182.15 179.44,182.58 179.64,183.02 179.84,183.47 180.04,183.92 180.24,184.38 180.44,184.85 180.64,185.32 180.84,185.79 181.05,186.27 181.25,186.75 181.45,187.24 181.65,187.73 181.85,188.22 182.05,188.72 182.25,189.22 182.45,189.72 182.65,190.23 182.85,190.73 183.06,191.24 183.26,191.75 183.46,192.26 183.66,192.77 183.86,193.28 184.06,193.79 184.26,194.30 184.46,194.81 184.66,195.32 184.87,195.83 185.07,196.34 185.27,196.84 185.47,197.35 185.67,197.85 185.87,198.35 186.07,198.85 186.27,199.34 186.47,199.83 186.67,200.32 186.88,200.81 187.08,201.29 187.28,201.77 187.48,202.25 187.68,202.72 187.88,203.19 188.08,203.65 188.28,204.11 188.48,204.56 188.69,205.00 188.89,205.44 189.09,205.87 189.29,206.29 189.49,206.70 189.69,207.10 189.89,207.49 190.09,207.88 190.29,208.25 190.49,208.62 190.70,208.98 190.90,209.32 191.10,209.66 191.30,209.99 191.50,210.31 191.70,210.63 191.90,210.93 192.10,211.23 192.30,211.52 192.51,211.80 192.71,212.08 192.91,212.34 193.11,212.61 193.31,212.87 193.51,213.12 193.71,213.37 193.91,213.61 194.11,213.85 194.31,214.09 194.52,214.32 194.72,214.55 194.92,214.78 195.12,215.01 195.32,215.24 195.52,215.47 195.72,215.70 195.92,215.94 196.12,216.17 196.33,216.41 196.53,216.66 196.73,216.91 196.93,217.17 197.13,217.44 197.33,217.71 197.53,217.99 197.73,218.27 197.93,218.57 198.13,218.87 198.34,219.18 198.54,219.49 198.74,219.82 198.94,220.15 199.14,220.49 199.34,220.83 199.54,221.19 199.74,221.55 199.94,221.91 200.15,222.28 200.35,222.66 200.55,223.04 200.75,223.43 200.95,223.82 201.15,224.22 201.35,224.62 201.55,225.02 201.75,225.42 201.95,225.83 202.16,226.23 202.36,226.64 202.56,227.05 202.76,227.46 202.96,227.87 203.16,228.28 203.36,228.69 203.56,229.10 203.76,229.50 203.97,229.90 204.17,230.30 204.37,230.70 204.57,231.09 204.77,231.48 204.97,231.86 205.17,232.24 205.37,232.61 205.57,232.97 205.77,233.33 205.98,233.69 206.18,234.04 206.38,234.38 206.58,234.71 206.78,235.03 206.98,235.35 207.18,235.66 207.38,235.97 207.58,236.26 207.79,236.54 207.99,236.82 208.19,237.08 208.39,237.34 208.59,237.59 208.79,237.82 208.99,238.04 209.19,238.25 209.39,238.45 209.59,238.64 209.80,238.81 210.00,238.96 210.20,239.10 210.40,239.23 210.60,239.34 210.80,239.43 211.00,239.51 211.20,239.58 211.40,239.62 211.61,239.65 211.81,239.67 212.01,239.67 212.21,239.65 212.41,239.62 212.61,239.58 212.81,239.52 213.01,239.44 213.21,239.35 213.41,239.25 213.62,239.14 213.82,239.01 214.02,238.87 214.22,238.72 214.42,238.55 214.62,238.38 214.82,238.19 215.02,238.00 215.22,237.79 215.43,237.58 215.63,237.36 215.83,237.14 216.03,236.91 216.23,236.67 216.43,236.44 216.63,236.20 216.83,235.95 217.03,235.71 217.23,235.47 217.44,235.23 217.64,234.98 217.84,234.75 218.04,234.51 218.24,234.27 218.44,234.04 218.64,233.81 218.84,233.59 219.04,233.36 219.25,233.15 219.45,232.93 219.65,232.72 219.85,232.51 220.05,232.31 220.25,232.11 220.45,231.91 220.65,231.71 220.85,231.52 221.05,231.34 221.26,231.15 221.46,230.97 221.66,230.79 221.86,230.61 222.06,230.44 222.26,230.27 222.46,230.10 222.66,229.93 222.86,229.77 223.07,229.60 223.27,229.44 223.47,229.28 223.67,229.12 223.87,228.96 224.07,228.81 224.27,228.65 224.47,228.50 224.67,228.34 224.87,228.19 225.08,228.03 225.28,227.88 225.48,227.73 225.68,227.57 225.88,227.42 226.08,227.27 226.28,227.12 226.48,226.97 226.68,226.81 226.89,226.66 227.09,226.51 227.29,226.36 227.49,226.20 227.69,226.05 227.89,225.89 228.09,225.73 228.29,225.56 228.49,225.39 228.69,225.22 228.90,225.04 229.10,224.86 229.30,224.67 229.50,224.48 229.70,224.28 229.90,224.08 230.10,223.87 230.30,223.66 230.50,223.44 230.71,223.22 230.91,222.99 231.11,222.76 231.31,222.53 231.51,222.29 231.71,222.04 231.91,221.80 232.11,221.55 232.31,221.30 232.51,221.05 232.72,220.79 232.92,220.54 233.12,220.28 233.32,220.02 233.52,219.77 233.72,219.51 233.92,219.26 234.12,219.01 234.32,218.75 234.53,218.50 234.73,218.26 234.93,218.01 235.13,217.77 235.33,217.53 235.53,217.30 235.73,217.07 235.93,216.84 236.13,216.62 236.33,216.41 236.54,216.20 236.74,216.00 236.94,215.80 237.14,215.62 237.34,215.45 237.54,215.28 237.74,215.12 237.94,214.98 238.14,214.85 238.35,214.73 238.55,214.61 238.75,214.51 238.95,214.43 239.15,214.35 239.35,214.28 239.55,214.23 239.75,214.19 239.95,214.15 240.15,214.13 240.36,214.12 240.56,214.11 240.76,214.12 240.96,214.13 241.16,214.16 241.36,214.19 241.56,214.22 241.76,214.27 241.96,214.32 242.17,214.38 242.37,214.44 242.57,214.50 242.77,214.58 242.97,214.65 243.17,214.73 243.37,214.81 243.57,214.89 243.77,214.98 243.97,215.07 244.18,215.16 244.38,215.25 244.58,215.34 244.78,215.43 244.98,215.52 245.18,215.61 245.38,215.69 245.58,215.78 245.78,215.86 245.99,215.94 246.19,216.02 246.39,216.10 246.59,216.17 246.79,216.24 246.99,216.31 247.19,216.38 247.39,216.44 247.59,216.49 247.79,216.54 248.00,216.59 248.20,216.63 248.40,216.66 248.60,216.69 248.80,216.70 249.00,216.71 249.20,216.71 249.40,216.71 249.60,216.69 249.81,216.67 250.01,216.63 250.21,216.59 250.41,216.54 250.61,216.47 250.81,216.40 251.01,216.32 251.21,216.23 251.41,216.14 251.61,216.03 251.82,215.92 252.02,215.80 252.22,215.67 252.42,215.53 252.62,215.39 252.82,215.25 253.02,215.09 253.22,214.94 253.42,214.78 253.63,214.61 253.83,214.45 254.03,214.27 254.23,214.10 254.43,213.93 254.63,213.75 254.83,213.58 255.03,213.41 255.23,213.23 255.43,213.06 255.64,212.89 255.84,212.73 256.04,212.57 256.24,212.41 256.44,212.26 256.64,212.12 256.84,211.98 257.04,211.86 257.24,211.74 257.45,211.64 257.65,211.55 257.85,211.46 258.05,211.40 258.25,211.34 258.45,211.30 258.65,211.27 258.85,211.25 259.05,211.25 259.25,211.26 259.46,211.29 259.66,211.33 259.86,211.38 260.06,211.45 260.26,211.53 260.46,211.62 260.66,211.73 260.86,211.85 261.06,211.98 261.27,212.12 261.47,212.28 261.67,212.45 261.87,212.63 262.07,212.82 262.27,213.02 262.47,213.23 262.67,213.45 262.87,213.68 263.07,213.92 263.28,214.17 263.48,214.42 263.68,214.69 263.88,214.96 264.08,215.24 264.28,215.52 264.48,215.81 264.68,216.11 264.88,216.42 265.09,216.72 265.29,217.04 265.49,217.36 265.69,217.68 265.89,218.01 266.09,218.34 266.29,218.67 266.49,219.01 266.69,219.35 266.89,219.69 267.10,220.04 267.30,220.38 267.50,220.73 267.70,221.08 267.90,221.43 268.10,221.77 268.30,222.12 268.50,222.46 268.70,222.80 268.91,223.13 269.11,223.46 269.31,223.78 269.51,224.10 269.71,224.42 269.91,224.72 270.11,225.02 270.31,225.32 270.51,225.60 270.71,225.88 270.92,226.16 271.12,226.42 271.32,226.68 271.52,226.93 271.72,227.18 271.92,227.42 272.12,227.65 272.32,227.88 272.52,228.10 272.73,228.32 272.93,228.53 273.13,228.74 273.33,228.94 273.53,229.13 273.73,229.33 273.93,229.51 274.13,229.70 274.33,229.88 274.53,230.05 274.74,230.23 274.94,230.40 275.14,230.57 275.34,230.73 275.54,230.90 275.74,231.06 275.94,231.22 276.14,231.38 276.34,231.54 276.55,231.70 276.75,231.86 276.95,232.02 277.15,232.19 277.35,232.35 277.55,232.52 277.75,232.70 277.95,232.88 278.15,233.06 278.35,233.25 278.56,233.44 278.76,233.64 278.96,233.85 279.16,234.06 279.36,234.28 279.56,234.51 279.76,234.74 279.96,234.97 280.16,235.21 280.36,235.46 280.57,235.71 280.77,235.97 280.97,236.23 281.17,236.49 281.37,236.76 281.57,237.03 281.77,237.31 281.97,237.59 282.17,237.86 282.38,238.14 282.58,238.43 282.78,238.71 282.98,238.99 283.18,239.27 283.38,239.55 283.58,239.83 283.78,240.11 283.98,240.39 284.18,240.66 284.39,240.94 284.59,241.21 284.79,241.47 284.99,241.74 285.19,242.00 285.39,242.25 285.59,242.51 285.79,242.75 285.99,243.00 286.20,243.24 286.40,243.47 286.60,243.70 286.80,243.92 287.00,244.14 287.20,244.35 287.40,244.56 287.60,244.75 287.80,244.94 288.00,245.12 288.21,245.30 288.41,245.46 288.61,245.61 288.81,245.75 289.01,245.88 289.21,246.00 289.41,246.11 289.61,246.21 289.81,246.29 290.02,246.37 290.22,246.43 290.42,246.48 290.62,246.52 290.82,246.55 291.02,246.57 291.22,246.58 291.42,246.58 291.62,246.57 291.82,246.55 292.03,246.53 292.23,246.49 292.43,246.45 292.63,246.40 292.83,246.34 293.03,246.28 293.23,246.21 293.43,246.14 293.63,246.06 293.84,245.98 294.04,245.89 294.24,245.80 294.44,245.71 294.64,245.61 294.84,245.51 295.04,245.42 295.24,245.32 295.44,245.22 295.64,245.12 295.85,245.02 296.05,244.92 296.25,244.83 296.45,244.73 296.65,244.64 296.85,244.56 297.05,244.47 297.25,244.40 297.45,244.33 297.66,244.27 297.86,244.22 298.06,244.17 298.26,244.14 298.46,244.11 298.66,244.10 298.86,244.10 299.06,244.10 299.26,244.12 299.46,244.15 299.67,244.18 299.87,244.23 300.07,244.29 300.27,244.36 300.47,244.44 300.67,244.53 300.87,244.62 301.07,244.73 301.27,244.85 301.48,244.97 301.68,245.10 301.88,245.24 302.08,245.39 302.28,245.54 302.48,245.70 302.68,245.87 302.88,246.04 303.08,246.21 303.28,246.39 303.49,246.58 303.69,246.76 303.89,246.95 304.09,247.15 304.29,247.34 304.49,247.54 304.69,247.74 304.89,247.94 305.09,248.14 305.30,248.34 305.50,248.54 305.70,248.74 305.90,248.94 306.10,249.14 306.30,249.34 306.50,249.54 306.70,249.73 306.90,249.93 307.10,250.12 307.31,250.31 307.51,250.49 307.71,250.67 307.91,250.85 308.11,251.02 308.31,251.19 308.51,251.35 308.71,251.50 308.91,251.65 309.12,251.78 309.32,251.91 309.52,252.03 309.72,252.14 309.92,252.24 310.12,252.33 310.32,252.41 310.52,252.48 310.72,252.54 310.92,252.60 311.13,252.64 311.33,252.67 311.53,252.69 311.73,252.71 311.93,252.71 312.13,252.71 312.33,252.70 312.53,252.68 312.73,252.65 312.94,252.62 313.14,252.58 313.34,252.53 313.54,252.48 313.74,252.42 313.94,252.36 314.14,252.30 314.34,252.23 314.54,252.16 314.74,252.08 314.95,252.00 315.15,251.92 315.35,251.84 315.55,251.76 315.75,251.68 315.95,251.60 316.15,251.51 316.35,251.43 316.55,251.36 316.76,251.28 316.96,251.21 317.16,251.15 317.36,251.08 317.56,251.03 317.76,250.98 317.96,250.94 318.16,250.91 318.36,250.89 318.56,250.88 318.77,250.88 318.97,250.88 319.17,250.90 319.37,250.92 319.57,250.96 319.77,251.01 319.97,251.06 320.17,251.13 320.37,251.20 320.58,251.29 320.78,251.38 320.98,251.49 321.18,251.60 321.38,251.71 321.58,251.84 321.78,251.97 321.98,252.12 322.18,252.26 322.38,252.41 322.59,252.57 322.79,252.73 322.99,252.90 323.19,253.07 323.39,253.25 323.59,253.43 323.79,253.61 323.99,253.79 324.19,253.98 324.40,254.17 324.60,254.35 324.80,254.54 325.00,254.73 325.20,254.92 325.40,255.11 325.60,255.30 325.80,255.49 326.00,255.67 326.20,255.86 326.41,256.04 326.61,256.22 326.81,256.40 327.01,256.57 327.21,256.74 327.41,256.91 327.61,257.07 327.81,257.23 328.01,257.38 328.22,257.53 328.42,257.67 328.62,257.80 328.82,257.93 329.02,258.05 329.22,258.15 329.42,258.25 329.62,258.34 329.82,258.42 330.02,258.49 330.23,258.55 330.43,258.60 330.63,258.64 330.83,258.66 331.03,258.68 331.23,258.69 331.43,258.68 331.63,258.67 331.83,258.65 332.04,258.61 332.24,258.57 332.44,258.52 332.64,258.46 332.84,258.39 333.04,258.32 333.24,258.24 333.44,258.15 333.64,258.05 333.84,257.95 334.05,257.85 334.25,257.73 334.45,257.62 334.65,257.50 334.85,257.38 335.05,257.25 335.25,257.12 335.45,256.99 335.65,256.86 335.86,256.72 336.06,256.59 336.26,256.46 336.46,256.32 336.66,256.19 336.86,256.06 337.06,255.93 337.26,255.81 337.46,255.69 337.66,255.57 337.87,255.47 338.07,255.37 338.27,255.27 338.47,255.19 338.67,255.11 338.87,255.04 339.07,254.98 339.27,254.93 339.47,254.89 339.68,254.86 339.88,254.84 340.08,254.83 340.28,254.83 340.48,254.83 340.68,254.85 340.88,254.87 341.08,254.90 341.28,254.94 341.48,254.99 341.69,255.04 341.89,255.11 342.09,255.18 342.29,255.25 342.49,255.33 342.69,255.42 342.89,255.51 343.09,255.61 343.29,255.71 343.50,255.82 343.70,255.93 343.90,256.04 344.10,256.15 344.30,256.27 344.50,256.39 344.70,256.51 344.90,256.63 345.10,256.75 345.30,256.87 345.51,256.99 345.71,257.11 345.91,257.23 346.11,257.35 346.31,257.47 346.51,257.59 346.71,257.70 346.91,257.82 347.11,257.93 347.32,258.03 347.52,258.14 347.72,258.24 347.92,258.34 348.12,258.43 348.32,258.52 348.52,258.60 348.72,258.67 348.92,258.74 349.12,258.79 349.33,258.84 349.53,258.89 349.73,258.92 349.93,258.94 350.13,258.96 350.33,258.96 350.53,258.96 350.73,258.94 350.93,258.92 351.14,258.88 351.34,258.84 351.54,258.78 351.74,258.72 351.94,258.65 352.14,258.57 352.34,258.48 352.54,258.38 352.74,258.28 352.94,258.17 353.15,258.05 353.35,257.93 353.55,257.80 353.75,257.67 353.95,257.53 354.15,257.39 354.35,257.24 354.55,257.09 354.75,256.94 354.96,256.79 355.16,256.63 355.36,256.47 355.56,256.31 355.76,256.15 355.96,256.00 356.16,255.84 356.36,255.68 356.56,255.53 356.76,255.37 356.97,255.23 357.17,255.08 357.37,254.94 357.57,254.81 357.77,254.69 357.97,254.57 358.17,254.46 358.37,254.36 358.57,254.27 358.78,254.19 358.98,254.12 359.18,254.06 359.38,254.01 359.58,253.97 359.78,253.95 359.98,253.93 360.18,253.92 360.38,253.93 360.58,253.94 360.79,253.96 360.99,254.00 361.19,254.04 361.39,254.09 361.59,254.15 361.79,254.22 361.99,254.29 362.19,254.38 362.39,254.47 362.60,254.56 362.80,254.67 363.00,254.77 363.20,254.89 363.40,255.01 363.60,255.13 363.80,255.26 364.00,255.39 364.20,255.52 364.40,255.66 364.61,255.79 364.81,255.94 365.01,256.08 365.21,256.22 365.41,256.37 365.61,256.51 365.81,256.66 366.01,256.80 366.21,256.95 366.42,257.10 366.62,257.24 366.82,257.38 367.02,257.52 367.22,257.66 367.42,257.80 367.62,257.94 367.82,258.07 368.02,258.20 368.22,258.33 368.43,258.45 368.63,258.57 368.83,258.68 369.03,258.79 369.23,258.89 369.43,258.98 369.63,259.07 369.83,259.14 370.03,259.21 370.24,259.27 370.44,259.32 370.64,259.36 370.84,259.39 371.04,259.41 371.24,259.43 371.44,259.43 371.64,259.43 371.84,259.41 372.04,259.39 372.25,259.36 372.45,259.32 372.65,259.28 372.85,259.22 373.05,259.16 373.25,259.10 373.45,259.02 373.65,258.95 373.85,258.86 374.06,258.77 374.26,258.68 374.46,258.58 374.66,258.49 374.86,258.38 375.06,258.28 375.26,258.17 375.46,258.06 375.66,257.95 375.86,257.84 376.07,257.74 376.27,257.63 376.47,257.52 376.67,257.42 376.87,257.32 377.07,257.22 377.27,257.13 377.47,257.05 377.67,256.97 377.88,256.91 378.08,256.85 378.28,256.79 378.48,256.75 378.68,256.72 378.88,256.70 379.08,256.69 379.28,256.69 379.48,256.70 379.68,256.72 379.89,256.75 380.09,256.79 380.29,256.85 380.49,256.91 380.69,256.98 380.89,257.06 381.09,257.16 381.29,257.26 381.49,257.37 381.70,257.49 381.90,257.61 382.10,257.75 382.30,257.89 382.50,258.04 382.70,258.20 382.90,258.36 383.10,258.53 383.30,258.71 383.50,258.89 383.71,259.07 383.91,259.26 384.11,259.46 384.31,259.65 384.51,259.85 384.71,260.05 384.91,260.26 385.11,260.47 385.31,260.67 385.52,260.88 385.72,261.09 385.92,261.30 386.12,261.51 386.32,261.72 386.52,261.93 386.72,262.14 386.92,262.35 387.12,262.56 387.32,262.76 387.53,262.97 387.73,263.17 387.93,263.37 388.13,263.57 388.33,263.77 388.53,263.96 388.73,264.15 388.93,264.34 389.13,264.52 389.34,264.70 389.54,264.87 389.74,265.04 389.94,265.20 390.14,265.36 390.34,265.51 390.54,265.65 390.74,265.78 390.94,265.90 391.14,266.02 391.35,266.13 391.55,266.23 391.75,266.33 391.95,266.41 392.15,266.49 392.35,266.56 392.55,266.62 392.75,266.68 392.95,266.73 393.16,266.77 393.36,266.81 393.56,266.84 393.76,266.87 393.96,266.89 394.16,266.91 394.36,266.93 394.56,266.94 394.76,266.95 394.96,266.95 395.17,266.96 395.37,266.96 395.57,266.97 395.77,266.97 395.97,266.98 396.17,266.99 396.37,267.00 396.57,267.01 396.77,267.03 396.98,267.06 397.18,267.09 397.38,267.13 397.58,267.17 397.78,267.23 397.98,267.29 398.18,267.37 398.38,267.46 398.58,267.56 398.78,267.67 398.99,267.79 399.19,267.92 399.39,268.07 399.59,268.22 399.79,268.39 399.99,268.57 400.19,268.77 400.39,268.97 400.59,269.19 400.80,269.41 401.00,269.65 401.20,269.90 401.40,270.16 401.60,270.43 401.80,270.70 402.00,270.99 402.20,271.29 402.40,271.59 402.60,271.91 402.81,272.22 403.01,272.55 403.21,272.88 403.41,273.22 403.61,273.57 403.81,273.92 404.01,274.27 404.21,274.63 404.41,274.99 404.62,275.36 404.82,275.73 405.02,276.10 405.22,276.47 405.42,276.85 405.62,277.23 405.82,277.61 406.02,277.99 406.22,278.38 406.42,278.76 406.63,279.14 406.83,279.53 407.03,279.91 407.23,280.29 407.43,280.67 407.63,281.06 407.83,281.43 408.03,281.81 408.23,282.19 408.44,282.56 408.64,282.94 408.84,283.31 409.04,283.67 409.24,284.03 409.44,284.39 409.64,284.74 409.84,285.09 410.04,285.43 410.24,285.76 410.45,286.09 410.65,286.40 410.85,286.71 411.05,287.01 411.25,287.30 411.45,287.58 411.65,287.85 411.85,288.12 412.05,288.37 412.26,288.61 412.46,288.85 412.66,289.07 412.86,289.29 413.06,289.50 413.26,289.70 413.46,289.89 413.66,290.07 413.86,290.25 414.06,290.42 414.27,290.59 414.47,290.74 414.67,290.90 414.87,291.04 415.07,291.19 415.27,291.33 415.47,291.46 415.67,291.60 415.87,291.73 416.08,291.86 416.28,291.98 416.48,292.11 416.68,292.24 416.88,292.37 417.08,292.50 417.28,292.64 417.48,292.78 417.68,292.92 417.88,293.07 418.09,293.23 418.29,293.39 418.49,293.57 418.69,293.74 418.89,293.93 419.09,294.13 419.29,294.33 419.49,294.54 419.69,294.76 419.90,294.99 420.10,295.22 420.30,295.46 420.50,295.72 420.70,295.97 420.90,296.24 421.10,296.51 421.30,296.79 421.50,297.08 421.70,297.37 421.91,297.67 422.11,297.97 422.31,298.28 422.51,298.59 422.71,298.91 422.91,299.23 423.11,299.55 423.31,299.88 423.51,300.21 423.72,300.54 423.92,300.87 424.12,301.21 424.32,301.54 424.52,301.88 424.72,302.21 424.92,302.55 425.12,302.88 425.32,303.22 425.52,303.55 425.73,303.88 425.93,304.21 426.13,304.54 426.33,304.86 426.53,305.18 426.73,305.50 426.93,305.82 427.13,306.13 427.33,306.44 427.54,306.74 427.74,307.04 427.94,307.34 428.14,307.64 428.34,307.92 428.54,308.21 428.74,308.49 428.94,308.77 429.14,309.04 429.34,309.30 429.55,309.56 429.75,309.81 429.95,310.05 430.15,310.29 430.35,310.52 430.55,310.74 430.75,310.95 430.95,311.15 431.15,311.34 431.36,311.53 431.56,311.70 431.76,311.86 431.96,312.02 432.16,312.16 432.36,312.30 432.56,312.42 432.76,312.54 432.96,312.65 433.16,312.75 433.37,312.84 433.57,312.92 433.77,313.00 433.97,313.07 434.17,313.13 434.37,313.19 434.57,313.24 434.77,313.29 434.97,313.33 435.18,313.37 435.38,313.40 435.58,313.44 435.78,313.47 435.98,313.50 436.18,313.53 436.38,313.56 436.58,313.59 436.78,313.63 436.98,313.67 437.19,313.72 437.39,313.77 437.59,313.82 437.79,313.89 437.99,313.96 438.19,314.04 438.39,314.13 438.59,314.23 438.79,314.33 439.00,314.45 439.20,314.58 439.40,314.72 439.60,314.87 439.80,315.02 440.00,315.19 440.20,315.37 440.40,315.55 440.60,315.75 440.80,315.96 441.01,316.17 441.21,316.40 441.41,316.63 441.61,316.87 441.81,317.12 442.01,317.37 442.21,317.64 442.41,317.91 442.61,318.18 442.82,318.46 443.02,318.75 443.22,319.04 443.42,319.34 443.62,319.64 443.82,319.95 444.02,320.26 444.22,320.57 444.42,320.88 444.62,321.20 444.83,321.52 445.03,321.84 445.23,322.16 445.43,322.48 445.63,322.80 445.83,323.12 446.03,323.45 446.23,323.77 446.43,324.09 446.64,324.41 446.84,324.73 447.04,325.05 447.24,325.36 447.44,325.68 447.64,325.99 447.84,326.30 448.04,326.61 448.24,326.92 448.44,327.22 448.65,327.52 448.85,327.82 449.05,328.11 449.25,328.40 449.45,328.69 449.65,328.98 449.85,329.25 450.05,329.53 450.25,329.79 450.46,330.05 450.66,330.31 450.86,330.55 451.06,330.79 451.26,331.02 451.46,331.24 451.66,331.46 451.86,331.66 452.06,331.86 452.26,332.04 452.47,332.22 452.67,332.39 452.87,332.55 453.07,332.70 453.27,332.84 453.47,332.97 453.67,333.09 453.87,333.21 454.07,333.32 454.28,333.42 454.48,333.52 454.68,333.61 454.88,333.70 455.08,333.78 455.28,333.85 455.48,333.92 455.68,333.99 455.88,334.06 456.08,334.13 456.29,334.20 456.49,334.26 456.69,334.33 456.89,334.40 457.09,334.48 457.29,334.56 457.49,334.65 457.69,334.74 457.89,334.84 458.10,334.95 458.30,335.06 458.50,335.18 458.70,335.31 458.90,335.45 459.10,335.60 459.30,335.75 459.50,335.92 459.70,336.09 459.90,336.27 460.11,336.46 460.31,336.65 460.51,336.86 460.71,337.07 460.91,337.29 461.11,337.52 461.31,337.75 461.51,337.99 461.71,338.24 461.92,338.49 462.12,338.75 462.32,339.02 462.52,339.29 462.72,339.56 462.92,339.84 463.12,340.13 463.32,340.41 463.52,340.70 463.72,341.00 463.93,341.29 464.13,341.59 464.33,341.89 464.53,342.20 464.73,342.50 464.93,342.80 465.13,343.11 465.33,343.42 465.53,343.72 465.74,344.03 465.94,344.33 466.14,344.64 466.34,344.94 466.54,345.24 466.74,345.54 466.94,345.84 467.14,346.13 467.34,346.42 467.54,346.71 467.75,347.00 467.95,347.29 468.15,347.57 468.35,347.85 468.55,348.12 468.75,348.39 468.95,348.66 469.15,348.92 469.35,349.18 469.56,349.44 469.76,349.69 469.96,349.93 470.16,350.18 470.36,350.41 470.56,350.64 470.76,350.87 470.96,351.08 471.16,351.29 471.36,351.50 471.57,351.69 471.77,351.87 471.97,352.05 472.17,352.22 472.37,352.37 472.57,352.52 472.77,352.65 472.97,352.78 473.17,352.90 473.38,353.00 473.58,353.10 473.78,353.19 473.98,353.26 474.18,353.33 474.38,353.39 474.58,353.45 474.78,353.49 474.98,353.53 475.18,353.56 475.39,353.59 475.59,353.61 475.79,353.63 475.99,353.64 476.19,353.65 476.39,353.66 476.59,353.67 476.79,353.68 476.99,353.68 477.20,353.69 477.40,353.71 477.60,353.72 477.80,353.74 478.00,353.76 478.20,353.79 478.40,353.82 478.60,353.85 478.80,353.89 479.00,353.94 479.21,353.99 479.41,354.05 479.61,354.11 479.81,354.17 480.01,354.25 480.21,354.32 480.41,354.41 480.61,354.49 480.81,354.59 481.02,354.69 481.22,354.79 481.42,354.90 481.62,355.01 481.82,355.13 482.02,355.25 482.22,355.38 482.42,355.51 482.62,355.64 482.82,355.78 483.03,355.92 483.23,356.06 483.43,356.20 483.63,356.35 483.83,356.50 484.03,356.64 484.23,356.80 484.43,356.95 484.63,357.10 484.84,357.26 485.04,357.41 485.24,357.56 485.44,357.72 485.64,357.87 485.84,358.02 486.04,358.18 486.24,358.33 486.44,358.48 486.64,358.63 486.85,358.77 487.05,358.92 487.25,359.06 487.45,359.20 487.65,359.34 487.85,359.48 488.05,359.62 488.25,359.75 488.45,359.88 488.66,360.01 488.86,360.13 489.06,360.25 489.26,360.37 489.46,360.49 489.66,360.60 489.86,360.71 490.06,360.82 490.26,360.93 490.46,361.03 490.67,361.12 490.87,361.21 491.07,361.29 491.27,361.37 491.47,361.45 491.67,361.51 491.87,361.57 492.07,361.62 492.27,361.66 492.48,361.69 492.68,361.72 492.88,361.74 493.08,361.75 493.28,361.75 493.48,361.74 493.68,361.72 493.88,361.70 494.08,361.67 494.28,361.63 494.49,361.59 494.69,361.54 494.89,361.48 495.09,361.41 495.29,361.34 495.49,361.27 495.69,361.19 495.89,361.11 496.09,361.03 496.30,360.95 496.50,360.86 496.70,360.78 496.90,360.70 497.10,360.62 497.30,360.54 497.50,360.47 497.70,360.40 497.90,360.33 498.10,360.27 498.31,360.22 498.51,360.17 498.71,360.13 498.91,360.09 499.11,360.06 499.31,360.03 499.51,360.01 499.71,360.00 499.91,359.99 500.12,359.99 500.32,359.99 500.52,360.00 500.72,360.02 500.92,360.04 501.12,360.07 501.32,360.10 501.52,360.14 501.72,360.19 501.92,360.24 502.13,360.29 502.33,360.35 502.53,360.41 502.73,360.47 502.93,360.54 503.13,360.62 503.33,360.69 503.53,360.77 503.73,360.85 503.94,360.94 504.14,361.02 504.34,361.11 504.54,361.20 504.74,361.29 504.94,361.38 505.14,361.48 505.34,361.57 505.54,361.66 505.74,361.76 505.95,361.85 506.15,361.95 506.35,362.04 506.55,362.14 506.75,362.23 506.95,362.32 507.15,362.41 507.35,362.50 507.55,362.59 507.76,362.68 507.96,362.77 508.16,362.85 508.36,362.93 508.56,363.02 508.76,363.09 508.96,363.17 509.16,363.25 509.36,363.32 509.56,363.39 509.77,363.46 509.97,363.52 510.17,363.59 510.37,363.65 510.57,363.70 510.77,363.76 510.97,363.81 511.17,363.85 511.37,363.89 511.58,363.93 511.78,363.95 511.98,363.98 512.18,363.99 512.38,364.00 512.58,364.00 512.78,363.99 512.98,363.98 513.18,363.96 513.38,363.93 513.59,363.90 513.79,363.85 513.99,363.80 514.19,363.75 514.39,363.68 514.59,363.61 514.79,363.53 514.99,363.45 515.19,363.36 515.40,363.27 515.60,363.17 515.80,363.07 516.00,362.96 516.20,362.85 516.40,362.74 516.60,362.64 516.80,362.53 517.00,362.42 517.20,362.32 517.41,362.21 517.61,362.12 517.81,362.02 518.01,361.93 518.21,361.85 518.41,361.77 518.61,361.70 518.81,361.63 519.01,361.57 519.22,361.51 519.42,361.47 519.62,361.42 519.82,361.39 520.02,361.36 520.22,361.33 520.42,361.32 520.62,361.31 520.82,361.30 521.02,361.30 521.23,361.31 521.43,361.32 521.63,361.34 521.83,361.36 522.03,361.39 522.23,361.42 522.43,361.46 522.63,361.50 522.83,361.54 523.04,361.59 523.24,361.65 523.44,361.70 523.64,361.76 523.84,361.82 524.04,361.88 524.24,361.95 524.44,362.01 524.64,362.08 524.84,362.15 525.05,362.22 525.25,362.29 525.45,362.36 525.65,362.43 525.85,362.50 526.05,362.56 526.25,362.63 526.45,362.70 526.65,362.76 526.86,362.83 527.06,362.89 527.26,362.95 527.46,363.01 527.66,363.07 527.86,363.12 528.06,363.17 528.26,363.22 528.46,363.27 528.66,363.32 528.87,363.36 529.07,363.40 529.27,363.44 529.47,363.47 529.67,363.50 529.87,363.53 530.07,363.55 530.27,363.58 530.47,363.59 530.68,363.61 530.88,363.62 531.08,363.62 531.28,363.62 531.48,363.62 531.68,363.60 531.88,363.59 532.08,363.56 532.28,363.53 532.48,363.49 532.69,363.44 532.89,363.38 533.09,363.32 533.29,363.25 533.49,363.17 533.69,363.08 533.89,362.99 534.09,362.88 534.29,362.77 534.50,362.65 534.70,362.52 534.90,362.38 535.10,362.24 535.30,362.09 535.50,361.93 535.70,361.77 535.90,361.61 536.10,361.44 536.30,361.27 536.51,361.10 536.71,360.93 536.91,360.75 537.11,360.58 537.31,360.41 537.51,360.24 537.71,360.07 537.91,359.90 538.11,359.74 538.32,359.58 538.52,359.43 538.72,359.27 538.92,359.13 539.12,358.98 539.32,358.84 539.52,358.71 539.72,358.58 539.92,358.45 540.12,358.33 540.33,358.21 540.53,358.09 540.73,357.98 540.93,357.87 541.13,357.76 541.33,357.66 541.53,357.56 541.73,357.46 541.93,357.36 542.14,357.26 542.34,357.17 542.54,357.08 542.74,356.99 542.94,356.90 543.14,356.81 543.34,356.71 543.54,356.62 543.74,356.53 543.94,356.44 544.15,356.35 544.35,356.25 544.55,356.15 544.75,356.05 544.95,355.95 545.15,355.85 545.35,355.74 545.55,355.63 545.75,355.52 545.96,355.40 546.16,355.28 546.36,355.16 546.56,355.03 546.76,354.90 546.96,354.76 547.16,354.61 547.36,354.47 547.56,354.31 547.76,354.15 547.97,353.99 548.17,353.82 548.37,353.65 548.57,353.46 548.77,353.28 548.97,353.08 549.17,352.88 549.37,352.68 549.57,352.47 549.78,352.25 549.98,352.03 550.18,351.80 550.38,351.56 550.58,351.32 550.78,351.08 550.98,350.82 551.18,350.56 551.38,350.29 551.58,350.02 551.79,349.73 551.99,349.44 552.19,349.14 552.39,348.83 552.59,348.51 552.79,348.18 552.99,347.85 553.19,347.50 553.39,347.15 553.60,346.78 553.80,346.41 554.00,346.02 554.20,345.63 554.40,345.23 554.60,344.82 554.80,344.40 555.00,343.97 555.20,343.54 555.40,343.10 555.61,342.66 555.81,342.21 556.01,341.75 556.21,341.30 556.41,340.84 556.61,340.38 556.81,339.92 557.01,339.46 557.21,339.00 557.42,338.54 557.62,338.08 557.82,337.62 558.02,337.16 558.22,336.71 558.42,336.25 558.62,335.79 558.82,335.34 559.02,334.89 559.22,334.44 559.43,333.99 559.63,333.55 559.83,333.10 560.03,332.66 560.23,332.22 560.43,331.78 560.63,331.35 560.83,330.91 561.03,330.48 561.24,330.04 561.44,329.61 561.64,329.18 561.84,328.75 562.04,328.32 562.24,327.89 562.44,327.47 562.64,327.04 562.84,326.61 563.04,326.18 563.25,325.75 563.45,325.32 563.65,324.89 563.85,324.46 564.05,324.03 564.25,323.60 564.45,323.17 564.65,322.73 564.85,322.30 565.06,321.86 565.26,321.42 565.46,320.98 565.66,320.54 565.86,320.09 566.06,319.65 566.26,319.20 566.46,318.75 566.66,318.29 566.86,317.84 567.07,317.38 567.27,316.92 567.47,316.45 567.67,315.99 567.87,315.52 568.07,315.05 568.27,314.57 568.47,314.10 568.67,313.62 568.88,313.14 569.08,312.66 569.28,312.17 569.48,311.68 569.68,311.20 569.88,310.70 570.08,310.21 570.28,309.71 570.48,309.22 570.68,308.72 570.89,308.21 571.09,307.71 571.29,307.20 571.49,306.69 571.69,306.18 571.89,305.66 572.09,305.14 572.29,304.61 572.49,304.08 572.70,303.55 572.90,303.01 573.10,302.46 573.30,301.91 573.50,301.35 573.70,300.79 573.90,300.22 574.10,299.65 574.30,299.07 574.50,298.49 574.71,297.90 574.91,297.31 575.11,296.72 575.31,296.12 575.51,295.52 575.71,294.91 575.91,294.31 576.11,293.70 576.31,293.10 576.52,292.50 576.72,291.90 576.92,291.30 577.12,290.70 577.32,290.11 577.52,289.53 577.72,288.95 577.92,288.37 578.12,287.80 578.32,287.24 578.53,286.69 578.73,286.14 578.93,285.60 579.13,285.07 579.33,284.55 579.53,284.03 579.73,283.52 579.93,283.03 580.13,282.53 580.34,282.05 580.54,281.58 580.74,281.11 580.94,280.65 581.14,280.20 581.34,279.76 581.54,279.32 581.74,278.89 581.94,278.47 582.14,278.06 582.35,277.65 582.55,277.25 582.75,276.85 582.95,276.46 583.15,276.08 583.35,275.70 583.55,275.33 583.75,274.96 583.95,274.59 584.16,274.23 584.36,273.88 584.56,273.53 584.76,273.18 584.96,272.84 585.16,272.50 585.36,272.16 585.56,271.82 585.76,271.48 585.96,271.15 586.17,270.82 586.37,270.49 586.57,270.16 586.77,269.83 586.97,269.50 587.17,269.17 587.37,268.85 587.57,268.52 587.77,268.19 587.98,267.86 588.18,267.54 588.38,267.21 588.58,266.88 588.78,266.55 588.98,266.22 589.18,265.88 589.38,265.55 589.58,265.21 589.78,264.87 589.99,264.53 590.19,264.19 590.39,263.85 590.59,263.51 590.79,263.16 590.99,262.81 591.19,262.45 591.39,262.10 591.59,261.74 591.80,261.37 592.00,261.00 592.20,260.63 592.40,260.25 592.60,259.86 592.80,259.46 593.00,259.06 593.20,258.65 593.40,258.24 593.60,257.81 593.81,257.38 594.01,256.94 594.21,256.49 594.41,256.03 594.61,255.57 594.81,255.10 595.01,254.62 595.21,254.13 595.41,253.64 595.62,253.14 595.82,252.64 596.02,252.13 596.22,251.61 596.42,251.09 596.62,250.57 596.82,250.04 597.02,249.51 597.22,248.99 597.42,248.46 597.63,247.93 597.83,247.40 598.03,246.87 598.23,246.35 598.43,245.83 598.63,245.31 598.83,244.79 599.03,244.27 599.23,243.76 599.44,243.26 599.64,242.75 599.84,242.25 600.04,241.76 600.24,241.26 600.44,240.77 600.64,240.29 600.84,239.81 601.04,239.33 601.24,238.85 601.45,238.38 601.65,237.91 601.85,237.45 602.05,236.99 602.25,236.53 602.45,236.07 602.65,235.62 602.85,235.17 603.05,234.72 603.26,234.28 603.46,233.83 603.66,233.39 603.86,232.95 604.06,232.51 604.26,232.08 604.46,231.64 604.66,231.21 604.86,230.77 605.06,230.34 605.27,229.91 605.47,229.48 605.67,229.05 605.87,228.62 606.07,228.20 606.27,227.77 606.47,227.34 606.67,226.91 606.87,226.49 607.08,226.06 607.28,225.63 607.48,225.21 607.68,224.78 607.88,224.35 608.08,223.92 608.28,223.50 608.48,223.07 608.68,222.64 608.88,222.21 609.09,221.78 609.29,221.35 609.49,220.92 609.69,220.49 609.89,220.06 610.09,219.63 610.29,219.20 610.49,218.76 610.69,218.33 610.90,217.90 611.10,217.47 611.30,217.03 611.50,216.59 611.70,216.16 611.90,215.71 612.10,215.27 612.30,214.82 612.50,214.37 612.70,213.91 612.91,213.45 613.11,212.99 613.31,212.52 613.51,212.05 613.71,211.57 613.91,211.09 614.11,210.61 614.31,210.12 614.51,209.63 614.72,209.13 614.92,208.63 615.12,208.13 615.32,207.63 615.52,207.12 615.72,206.62 615.92,206.11 616.12,205.60 616.32,205.09 616.52,204.58 616.73,204.08 616.93,203.58 617.13,203.08 617.33,202.59 617.53,202.10 617.73,201.62 617.93,201.14 618.13,200.67 618.33,200.21 618.54,199.76 618.74,199.31 618.94,198.88 619.14,198.45 619.34,198.03 619.54,197.62 619.74,197.22 619.94,196.83 620.14,196.45 620.34,196.08 620.55,195.72 620.75,195.36 620.95,195.02 621.15,194.68 621.35,194.36 621.55,194.04 621.75,193.73 621.95,193.43 622.15,193.14 622.36,192.86 622.56,192.58 622.76,192.31 622.96,192.05 623.16,191.80 623.36,191.56 623.56,191.32 623.76,191.09 623.96,190.86 624.16,190.65 624.37,190.44 624.57,190.23 624.77,190.03 624.97,189.84 625.17,189.66 625.37,189.47 625.57,189.30 625.77,189.13 625.97,188.97 626.18,188.81 626.38,188.65 626.58,188.50 626.78,188.36 626.98,188.22 627.18,188.09 627.38,187.96 627.58,187.84 627.78,187.72 627.98,187.60 628.19,187.49 628.39,187.39 628.59,187.29 628.79,187.19 628.99,187.10 629.19,187.01 629.39,186.93 629.59,186.85 629.79,186.78 630.00,186.72 630.20,186.65 630.40,186.60 630.60,186.55 630.80,186.50 631.00,186.46 631.20,186.42 631.40,186.39 631.60,186.36 631.80,186.34 632.01,186.33 632.21,186.32 632.41,186.31 632.61,186.31 632.81,186.31 633.01,186.32 633.21,186.32 633.41,186.34 633.61,186.35 633.82,186.37 634.02,186.39 634.22,186.41 634.42,186.44 634.62,186.46 634.82,186.49 635.02,186.52 635.22,186.56 635.42,186.59 635.62,186.63 635.83,186.67 636.03,186.72 636.23,186.77 636.43,186.82 636.63,186.88 636.83,186.95 637.03,187.02 637.23,187.10 637.43,187.18 637.64,187.28 637.84,187.38 638.04,187.49 638.24,187.60 638.44,187.73 638.64,187.87 638.84,188.01 639.04,188.16 639.24,188.32 639.44,188.49 639.65,188.67 639.85,188.86 640.05,189.05 640.25,189.25 640.45,189.47 640.65,189.69 640.85,189.91 641.05,190.15 641.25,190.39 641.45,190.64 641.66,190.89 641.86,191.16 642.06,191.42 642.26,191.70 642.46,191.97 642.66,192.26 642.86,192.55 643.06,192.84 643.26,193.13 643.47,193.43 643.67,193.74 643.87,194.04 644.07,194.35 644.27,194.66 644.47,194.97 644.67,195.28 644.87,195.60 645.07,195.91 645.27,196.23 645.48,196.54 645.68,196.86 645.88,197.17 646.08,197.49 646.28,197.80 646.48,198.11 646.68,198.42 646.88,198.73 647.08,199.03 647.29,199.33 647.49,199.63 647.69,199.93 647.89,200.22 648.09,200.51 648.29,200.80 648.49,201.08 648.69,201.36 648.89,201.63 649.09,201.90 649.30,202.17 649.50,202.43 649.70,202.68 649.90,202.93 650.10,203.18 650.30,203.42 650.50,203.66 650.70,203.89 650.90,204.11 651.11,204.33 651.31,204.54 651.51,204.74 651.71,204.94 651.91,205.12 652.11,205.30 652.31,205.47 652.51,205.63 652.71,205.77 652.91,205.91 653.12,206.04 653.32,206.16 653.52,206.27 653.72,206.37 653.92,206.45 654.12,206.53 654.32,206.60 654.52,206.66 654.72,206.71 654.93,206.75 655.13,206.78 655.33,206.81 655.53,206.82 655.73,206.83 655.93,206.84 656.13,206.84 656.33,206.83 656.53,206.82 656.73,206.81 656.94,206.79 657.14,206.78 657.34,206.76 657.54,206.75 657.74,206.73 657.94,206.72 658.14,206.71 658.34,206.71 658.54,206.71 658.75,206.72 658.95,206.73 659.15,206.75 659.35,206.77 659.55,206.80 659.75,206.84 659.95,206.88 660.15,206.93 660.35,206.99 660.55,207.05 660.76,207.13 660.96,207.20 661.16,207.29 661.36,207.39 661.56,207.49 661.76,207.60 661.96,207.71 662.16,207.83 662.36,207.96 662.57,208.09 662.77,208.24 662.97,208.38 663.17,208.54 663.37,208.69 663.57,208.86 663.77,209.03 663.97,209.20 664.17,209.38 664.37,209.56 664.58,209.75 664.78,209.94 664.98,210.14 665.18,210.33 665.38,210.53 665.58,210.74 665.78,210.94 665.98,211.15 666.18,211.36 666.39,211.57 666.59,211.78 666.79,212.00 666.99,212.21 667.19,212.42 667.39,212.64 667.59,212.85 667.79,213.07 667.99,213.28 668.19,213.49 668.40,213.70 668.60,213.91 668.80,214.12 669.00,214.33 669.20,214.53 669.40,214.74 669.60,214.94 669.80,215.13 670.00,215.33 670.21,215.52 670.41,215.71 670.61,215.89 670.81,216.08 671.01,216.25 671.21,216.43 671.41,216.60 671.61,216.77 671.81,216.93 672.01,217.09 672.22,217.24 672.42,217.39 672.62,217.53 672.82,217.67 673.02,217.80 673.22,217.92 673.42,218.04 673.62,218.15 673.82,218.25 674.03,218.34 674.23,218.43 674.43,218.51 674.63,218.57 674.83,218.63 675.03,218.68 675.23,218.72 675.43,218.75 675.63,218.77 675.83,218.79 676.04,218.79 676.24,218.79 676.44,218.78 676.64,218.76 676.84,218.73 677.04,218.70 677.24,218.66 677.44,218.61 677.64,218.56 677.85,218.51 678.05,218.44 678.25,218.37 678.45,218.30 678.65,218.22 678.85,218.13 679.05,218.04 679.25,217.95 679.45,217.85 679.65,217.74 679.86,217.63 680.06,217.51 680.26,217.39 680.46,217.26 680.66,217.13 680.86,216.99 681.06,216.85 681.26,216.70 681.46,216.54 681.67,216.38 681.87,216.22 682.07,216.05 682.27,215.87 682.47,215.69 682.67,215.50 682.87,215.30 683.07,215.10 683.27,214.90 683.47,214.69 683.68,214.47 683.88,214.25 684.08,214.02 684.28,213.78 684.48,213.54 684.68,213.29 684.88,213.04 685.08,212.78 685.28,212.52 685.49,212.25 685.69,211.97 685.89,211.69 686.09,211.40 686.29,211.11 686.49,210.81 686.69,210.51 686.89,210.20 687.09,209.88 687.29,209.56 687.50,209.24 687.70,208.91 687.90,208.57 688.10,208.24 688.30,207.89 688.50,207.55 688.70,207.19 688.90,206.84 689.10,206.48 689.31,206.12 689.51,205.75 689.71,205.38 689.91,205.00 690.11,204.62 690.31,204.24 690.51,203.86 690.71,203.47 690.91,203.08 691.11,202.69 691.32,202.30 691.52,201.90 691.72,201.50 691.92,201.09 692.12,200.69 692.32,200.28 692.52,199.86 692.72,199.45 692.92,199.02 693.13,198.60 693.33,198.17 693.53,197.73 693.73,197.29 693.93,196.85 694.13,196.40 694.33,195.94 694.53,195.49 694.73,195.02 694.93,194.56 695.14,194.09 695.34,193.62 695.54,193.14 695.74,192.66 695.94,192.18 696.14,191.70 696.34,191.22 696.54,190.74 696.74,190.26 696.95,189.78 697.15,189.30 697.35,188.83 697.55,188.36 697.75,187.90 697.95,187.44 698.15,186.99 698.35,186.54 698.55,186.10 698.75,185.67 698.96,185.25 699.16,184.83 699.36,184.42 699.56,184.02 699.76,183.63 699.96,183.25 700.16,182.88 700.36,182.51 700.56,182.15 700.77,181.80 700.97,181.47 701.17,181.13 701.37,180.81 701.57,180.50 701.77,180.19 701.97,179.90 702.17,179.61 702.37,179.33 702.57,179.06 702.78,178.79 702.98,178.53 703.18,178.29 703.38,178.04 703.58,177.81 703.78,177.58 703.98,177.36 704.18,177.15 704.38,176.95 704.59,176.75 704.79,176.55 704.99,176.37 705.19,176.19 705.39,176.01 705.59,175.84 705.79,175.68 705.99,175.52 706.19,175.37 706.39,175.22 706.60,175.08 706.80,174.94 707.00,174.81 707.20,174.68 707.40,174.55 707.60,174.43 707.80,174.31 708.00,174.20 708.20,174.09 708.41,173.98 708.61,173.88 708.81,173.78 709.01,173.68 709.21,173.59 709.41,173.50 709.61,173.41 709.81,173.32 710.01,173.24 710.21,173.16 710.42,173.08 710.62,173.00 710.82,172.93 711.02,172.86 711.22,172.79 711.42,172.72 711.62,172.65 711.82,172.58 712.02,172.51 712.23,172.44 712.43,172.37 712.63,172.30 712.83,172.22 713.03,172.14 713.23,172.06 713.43,171.98 713.63,171.89 713.83,171.80 714.03,171.71 714.24,171.61 714.44,171.51 714.64,171.41 714.84,171.30 715.04,171.19 715.24,171.08 715.44,170.97 715.64,170.85 715.84,170.72 716.05,170.60 716.25,170.48 716.45,170.35 716.65,170.22 716.85,170.09 717.05,169.96 717.25,169.83 717.45,169.71 717.65,169.58 717.85,169.46 718.06,169.34 718.26,169.23 718.46,169.12 718.66,169.01 718.86,168.92 719.06,168.82 719.26,168.74 719.46,168.66 719.66,168.58 719.87,168.52 720.07,168.46 720.27,168.41 720.47,168.36 720.67,168.33 720.87,168.29 721.07,168.27 721.27,168.25 721.47,168.24 721.67,168.23 721.88,168.23 722.08,168.24 722.28,168.25 722.48,168.27 722.68,168.29 722.88,168.32 723.08,168.35 723.28,168.38 723.48,168.42 723.69,168.46 723.89,168.50 724.09,168.55 724.29,168.60 724.49,168.65 724.69,168.70 724.89,168.75 725.09,168.81 725.29,168.86 725.49,168.91 725.70,168.97 725.90,169.02 726.10,169.07 726.30,169.12 726.50,169.17 726.70,169.22 726.90,169.27 727.10,169.31 727.30,169.35 727.51,169.39 727.71,169.43 727.91,169.46 728.11,169.49 728.31,169.52 728.51,169.54 728.71,169.56 728.91,169.58 729.11,169.59 729.31,169.60 729.52,169.60 729.72,169.61 729.92,169.60 730.12,169.60 730.32,169.59 730.52,169.57 730.72,169.55 730.92,169.53 731.12,169.50 731.33,169.46 731.53,169.42 731.73,169.38 731.93,169.33 732.13,169.27 732.33,169.20 732.53,169.13 732.73,169.05 732.93,168.96 733.13,168.87 733.34,168.76 733.54,168.65 733.74,168.52 733.94,168.39 734.14,168.25 734.34,168.11 734.54,167.95 734.74,167.78 734.94,167.61 735.15,167.43 735.35,167.24 735.55,167.05 735.75,166.85 735.95,166.64 736.15,166.42 736.35,166.20 736.55,165.98 736.75,165.75 736.95,165.52 737.16,165.29 737.36,165.05 737.56,164.81 737.76,164.58 737.96,164.34 738.16,164.11 738.36,163.88 738.56,163.65 738.76,163.43 738.97,163.21 739.17,163.00 739.37,162.79 739.57,162.59 739.77,162.39 739.97,162.20 740.17,162.02 740.37,161.85 740.57,161.68 740.77,161.52 740.98,161.36 741.18,161.22 741.38,161.08 741.58,160.94 741.78,160.82 741.98,160.70 742.18,160.58 742.38,160.48 742.58,160.38 742.79,160.28 742.99,160.19 743.19,160.11 743.39,160.03 743.59,159.96 743.79,159.90 743.99,159.84 744.19,159.78 744.39,159.73 744.59,159.68 744.80,159.64 745.00,159.59 745.20,159.56 745.40,159.52 745.60,159.49 745.80,159.47 746.00,159.44 746.20,159.42 746.40,159.40 746.61,159.38 746.81,159.36 747.01,159.34 747.21,159.33 747.41,159.31 747.61,159.30 747.81,159.29 748.01,159.28 748.21,159.27 748.41,159.26 748.62,159.24 748.82,159.23 749.02,159.22 749.22,159.21 749.42,159.20 749.62,159.19 749.82,159.18 750.02,159.16 750.22,159.15 750.43,159.13 750.63,159.12 750.83,159.10 751.03,159.08 751.23,159.06 751.43,159.04 751.63,159.02 751.83,159.00 752.03,158.97 752.23,158.94 752.44,158.91 752.64,158.87 752.84,158.83 753.04,158.79 753.24,158.74 753.44,158.69 753.64,158.63 753.84,158.56 754.04,158.49 754.25,158.41 754.45,158.33 754.65,158.24 754.85,158.14 755.05,158.04 755.25,157.94 755.45,157.82 755.65,157.71 755.85,157.58 756.05,157.46 756.26,157.32 756.46,157.19 756.66,157.05 756.86,156.91 757.06,156.77 757.26,156.63 757.46,156.49 757.66,156.35 757.86,156.21 758.07,156.07 758.27,155.93 758.47,155.80 758.67,155.67 758.87,155.55 759.07,155.43 759.27,155.32 759.47,155.21 759.67,155.11 759.87,155.01 760.08,154.91 760.28,154.83 760.48,154.75 760.68,154.67 760.88,154.60 761.08,154.54 761.28,154.48 761.48,154.43 761.68,154.39 761.89,154.35 762.09,154.31 762.29,154.29 762.49,154.26 762.69,154.24 762.89,154.23 763.09,154.22 763.29,154.21 763.49,154.21 763.69,154.22 763.90,154.22 764.10,154.24 764.30,154.25 764.50,154.27 764.70,154.29 764.90,154.31 765.10,154.34 765.30,154.37 765.50,154.39 765.71,154.43 765.91,154.46 766.11,154.50 766.31,154.53 766.51,154.57 766.71,154.61 766.91,154.64 767.11,154.68 767.31,154.72 767.51,154.76 767.72,154.80 767.92,154.84 768.12,154.87 768.32,154.91 768.52,154.95 768.72,154.98 768.92,155.02 769.12,155.05 769.32,155.09 769.53,155.12 769.73,155.15 769.93,155.18 770.13,155.21 770.33,155.24 770.53,155.27 770.73,155.29 770.93,155.31 771.13,155.34 771.33,155.36 771.54,155.38 771.74,155.39 771.94,155.41 772.14,155.42 772.34,155.44 772.54,155.44 772.74,155.45 772.94,155.45 773.14,155.45 773.35,155.44 773.55,155.42 773.75,155.41 773.95,155.38 774.15,155.35 774.35,155.32 774.55,155.28 774.75,155.23 774.95,155.18 775.15,155.12 775.36,155.06 775.56,154.99 775.76,154.91 775.96,154.84 776.16,154.75 776.36,154.67 776.56,154.58 776.76,154.49 776.96,154.39 777.17,154.30 777.37,154.20 777.57,154.11 777.77,154.01 777.97,153.92 778.17,153.83 778.37,153.74 778.57,153.65 778.77,153.57 778.97,153.50 779.18,153.42 779.38,153.36 779.58,153.29 779.78,153.24 779.98,153.18 780.18,153.13 780.38,153.09 780.58,153.06 780.78,153.02 780.99,153.00 781.19,152.98 781.39,152.96 781.59,152.95 781.79,152.95 781.99,152.94 782.19,152.95 782.39,152.96 782.59,152.97 782.79,152.99 783.00,153.01 783.20,153.04 783.40,153.07 783.60,153.10 783.80,153.14 784.00,153.18 784.20,153.22 784.40,153.27 784.60,153.32 784.81,153.37 785.01,153.42 785.21,153.48 785.41,153.53 785.61,153.59 785.81,153.65 786.01,153.71 786.21,153.78 786.41,153.84 786.61,153.90 786.82,153.97 787.02,154.03 787.22,154.10 787.42,154.16 787.62,154.23 787.82,154.29 788.02,154.36 788.22,154.42 788.42,154.48 788.63,154.55 788.83,154.61 789.03,154.67 789.23,154.73 789.43,154.79 789.63,154.84 789.83,154.90 790.03,154.95 790.23,155.01 790.43,155.06 790.64,155.11 790.84,155.16 791.04,155.20 791.24,155.25 791.44,155.29 791.64,155.34 791.84,155.38 792.04,155.41 792.24,155.45 792.45,155.48 792.65,155.51 792.85,155.54 793.05,155.57 793.25,155.59 793.45,155.61 793.65,155.62 793.85,155.63 794.05,155.63 794.25,155.63 794.46,155.63 794.66,155.61 794.86,155.60 795.06,155.58 795.26,155.55 795.46,155.52 795.66,155.48 795.86,155.43 796.06,155.39 796.27,155.33 796.47,155.28 796.67,155.22 796.87,155.15 797.07,155.09 797.27,155.02 797.47,154.96 797.67,154.89 797.87,154.82 798.07,154.75 798.28,154.69 798.48,154.62 798.68,154.56 798.88,154.49 799.08,154.43 799.28,154.37 799.48,154.32 799.68,154.26 799.88,154.21 800.09,154.17 800.29,154.12 800.49,154.08 800.69,154.04 800.89,154.00 801.09,153.97 801.29,153.93 801.49,153.91 801.69,153.88 801.89,153.86 802.10,153.84 802.30,153.82 802.50,153.80 802.70,153.79 802.90,153.77 803.10,153.76 803.30,153.76 803.50,153.75 803.70,153.74 803.91,153.74 804.11,153.74 804.31,153.74 804.51,153.74 804.71,153.74 804.91,153.74 805.11,153.74 805.31,153.74 805.51,153.75 805.71,153.75 805.92,153.75 806.12,153.76 806.32,153.76 806.52,153.77 806.72,153.77 806.92,153.77 807.12,153.77 807.32,153.77 807.52,153.77 807.73,153.77 807.93,153.77 808.13,153.76 808.33,153.76 808.53,153.75 808.73,153.74 808.93,153.73 809.13,153.72 809.33,153.70 809.53,153.69 809.74,153.67 809.94,153.65 810.14,153.63 810.34,153.61 810.54,153.59 810.74,153.56 810.94,153.53 811.14,153.50 811.34,153.47 811.55,153.43 811.75,153.40 811.95,153.36 812.15,153.32 812.35,153.28 812.55,153.23 812.75,153.18 812.95,153.13 813.15,153.08 813.35,153.02 813.56,152.95 813.76,152.88 813.96,152.81 814.16,152.73 814.36,152.65 814.56,152.56 814.76,152.46 814.96,152.36 815.16,152.25 815.37,152.13 815.57,152.01 815.77,151.89 815.97,151.76 816.17,151.62 816.37,151.48 816.57,151.34 816.77,151.19 816.97,151.04 817.17,150.89 817.38,150.73 817.58,150.57 817.78,150.42 817.98,150.26 818.18,150.10 818.38,149.95 818.58,149.80 818.78,149.65 818.98,149.50 819.19,149.36 819.39,149.21 819.59,149.08 819.79,148.94 819.99,148.81 820.19,148.68 820.39,148.56 820.59,148.44 820.79,148.33 820.99,148.22 821.20,148.12 821.40,148.02 821.60,147.92 821.80,147.83 822.00,147.74" fill="none" stroke="#c5221f" stroke-width="2"/>
<text x="662" y="56" font-family="Arial" font-size="12" fill="#c5221f">Experiment</text>
</svg>