<svg xmlns="http://www.w3.org/2000/svg" width="850" height="460" viewBox="0 0 850 460">
<rect width="100%" height="100%" fill="white"/>
<text x="425.0" y="23" text-anchor="middle" font-family="Arial" font-size="15">N=4 transferred charge at 4 m/s^2: experiment vs simulation</text>
<line x1="96" y1="394" x2="822" y2="394" stroke="#333"/>
<line x1="96" y1="34" x2="96" y2="394" stroke="#333"/>
<text x="425.0" y="442" text-anchor="middle" font-family="Arial" font-size="12">Normalized time</text>
<text x="16" y="230.0" text-anchor="middle" transform="rotate(-90 16 230.0)" font-family="Arial" font-size="12">Transferred charge (nC)</text>
<line x1="96" y1="34.0" x2="822" y2="34.0" stroke="#e1e5ea"/>
<text x="88" y="38.0" text-anchor="end" font-family="Arial" font-size="10">65.52</text>
<line x1="96" y1="106.0" x2="822" y2="106.0" stroke="#e1e5ea"/>
<text x="88" y="110.0" text-anchor="end" font-family="Arial" font-size="10">-90.59</text>
<line x1="96" y1="178.0" x2="822" y2="178.0" stroke="#e1e5ea"/>
<text x="88" y="182.0" text-anchor="end" font-family="Arial" font-size="10">-246.71</text>
<line x1="96" y1="250.0" x2="822" y2="250.0" stroke="#e1e5ea"/>
<text x="88" y="254.0" text-anchor="end" font-family="Arial" font-size="10">-402.82</text>
<line x1="96" y1="322.0" x2="822" y2="322.0" stroke="#e1e5ea"/>
<text x="88" y="326.0" text-anchor="end" font-family="Arial" font-size="10">-558.93</text>
<line x1="96" y1="394.0" x2="822" y2="394.0" stroke="#e1e5ea"/>
<text x="88" y="398.0" text-anchor="end" font-family="Arial" font-size="10">-715.05</text>
<line x1="96" y1="64.2" x2="822" y2="64.2" stroke="#999" stroke-dasharray="4 4"/>
<polyline points="96.00,64.66 96.33,64.54 96.66,64.42 96.99,64.33 97.32,64.24 97.65,64.17 97.98,64.11 98.31,64.06 98.64,64.03 98.97,64.01 99.30,64.00 99.63,64.00 99.96,64.02 100.29,64.04 100.62,64.07 100.95,64.12 101.28,64.17 101.61,64.23 101.94,64.29 102.27,64.37 102.60,64.44 102.93,64.52 103.26,64.61 103.59,64.70 103.92,64.79 104.25,64.88 104.58,64.97 104.91,65.06 105.24,65.15 105.57,65.24 105.90,65.33 106.23,65.41 106.56,65.50 106.89,65.58 107.23,65.66 107.56,65.73 107.89,65.81 108.22,65.88 108.55,65.95 108.88,66.02 109.21,66.08 109.54,66.14 109.87,66.19 110.20,66.23 110.53,66.27 110.86,66.29 111.19,66.31 111.52,66.31 111.85,66.30 112.18,66.29 112.51,66.26 112.84,66.22 113.17,66.18 113.50,66.13 113.83,66.07 114.16,66.02 114.49,65.97 114.82,65.92 115.15,65.89 115.48,65.86 115.81,65.85 116.14,65.84 116.47,65.86 116.80,65.89 117.13,65.93 117.46,66.00 117.79,66.08 118.12,66.18 118.45,66.29 118.78,66.42 119.11,66.57 119.44,66.74 119.77,66.92 120.10,67.12 120.43,67.33 120.76,67.56 121.09,67.80 121.42,68.06 121.75,68.33 122.08,68.61 122.41,68.89 122.74,69.19 123.07,69.50 123.40,69.82 123.73,70.14 124.06,70.47 124.39,70.81 124.72,71.15 125.05,71.50 125.38,71.86 125.71,72.22 126.04,72.58 126.37,72.94 126.70,73.32 127.03,73.69 127.36,74.07 127.69,74.45 128.02,74.83 128.35,75.22 128.68,75.61 129.02,76.00 129.35,76.40 129.68,76.79 130.01,77.19 130.34,77.58 130.67,77.97 131.00,78.36 131.33,78.74 131.66,79.11 131.99,79.48 132.32,79.85 132.65,80.21 132.98,80.56 133.31,80.91 133.64,81.26 133.97,81.61 134.30,81.97 134.63,82.33 134.96,82.70 135.29,83.09 135.62,83.49 135.95,83.91 136.28,84.34 136.61,84.79 136.94,85.27 137.27,85.75 137.60,86.26 137.93,86.79 138.26,87.33 138.59,87.89 138.92,88.48 139.25,89.07 139.58,89.69 139.91,90.32 140.24,90.97 140.57,91.64 140.90,92.31 141.23,93.00 141.56,93.70 141.89,94.42 142.22,95.14 142.55,95.88 142.88,96.62 143.21,97.37 143.54,98.13 143.87,98.90 144.20,99.67 144.53,100.44 144.86,101.22 145.19,102.01 145.52,102.79 145.85,103.58 146.18,104.38 146.51,105.17 146.84,105.97 147.17,106.77 147.50,107.57 147.83,108.37 148.16,109.17 148.49,109.97 148.82,110.76 149.15,111.56 149.48,112.34 149.81,113.12 150.14,113.90 150.47,114.66 150.80,115.40 151.14,116.14 151.47,116.86 151.80,117.57 152.13,118.26 152.46,118.94 152.79,119.61 153.12,120.26 153.45,120.91 153.78,121.54 154.11,122.17 154.44,122.80 154.77,123.43 155.10,124.06 155.43,124.69 155.76,125.34 156.09,125.99 156.42,126.66 156.75,127.35 157.08,128.05 157.41,128.77 157.74,129.50 158.07,130.26 158.40,131.03 158.73,131.82 159.06,132.62 159.39,133.45 159.72,134.28 160.05,135.14 160.38,136.00 160.71,136.88 161.04,137.77 161.37,138.67 161.70,139.57 162.03,140.49 162.36,141.41 162.69,142.34 163.02,143.27 163.35,144.20 163.68,145.13 164.01,146.07 164.34,147.00 164.67,147.93 165.00,148.86 165.33,149.78 165.66,150.70 165.99,151.62 166.32,152.53 166.65,153.43 166.98,154.33 167.31,155.22 167.64,156.11 167.97,156.99 168.30,157.86 168.63,158.72 168.96,159.56 169.29,160.40 169.62,161.21 169.95,162.01 170.28,162.79 170.61,163.55 170.94,164.28 171.27,164.99 171.60,165.68 171.93,166.35 172.26,167.00 172.59,167.63 172.92,168.23 173.26,168.82 173.59,169.40 173.92,169.96 174.25,170.51 174.58,171.05 174.91,171.58 175.24,172.11 175.57,172.63 175.90,173.16 176.23,173.70 176.56,174.25 176.89,174.81 177.22,175.38 177.55,175.97 177.88,176.58 178.21,177.20 178.54,177.85 178.87,178.51 179.20,179.19 179.53,179.89 179.86,180.60 180.19,181.33 180.52,182.08 180.85,182.84 181.18,183.61 181.51,184.39 181.84,185.18 182.17,185.97 182.50,186.78 182.83,187.59 183.16,188.40 183.49,189.22 183.82,190.03 184.15,190.85 184.48,191.67 184.81,192.49 185.14,193.30 185.47,194.11 185.80,194.91 186.13,195.71 186.46,196.50 186.79,197.28 187.12,198.05 187.45,198.82 187.78,199.58 188.11,200.32 188.44,201.05 188.77,201.75 189.10,202.44 189.43,203.11 189.76,203.75 190.09,204.38 190.42,204.97 190.75,205.54 191.08,206.09 191.41,206.62 191.74,207.12 192.07,207.60 192.40,208.06 192.73,208.51 193.06,208.93 193.39,209.35 193.72,209.75 194.05,210.13 194.38,210.51 194.71,210.88 195.05,211.25 195.38,211.62 195.71,211.99 196.04,212.37 196.37,212.75 196.70,213.15 197.03,213.57 197.36,214.00 197.69,214.45 198.02,214.92 198.35,215.42 198.68,215.93 199.01,216.46 199.34,217.01 199.67,217.58 200.00,218.16 200.33,218.77 200.66,219.38 200.99,220.00 201.32,220.64 201.65,221.28 201.98,221.93 202.31,222.59 202.64,223.24 202.97,223.90 203.30,224.56 203.63,225.21 203.96,225.85 204.29,226.49 204.62,227.12 204.95,227.73 205.28,228.34 205.61,228.92 205.94,229.50 206.27,230.05 206.60,230.59 206.93,231.10 207.26,231.60 207.59,232.07 207.92,232.52 208.25,232.95 208.58,233.35 208.91,233.72 209.24,234.06 209.57,234.37 209.90,234.63 210.23,234.86 210.56,235.05 210.89,235.20 211.22,235.31 211.55,235.37 211.88,235.39 212.21,235.38 212.54,235.32 212.87,235.22 213.20,235.09 213.53,234.92 213.86,234.72 214.19,234.48 214.52,234.21 214.85,233.92 215.18,233.60 215.51,233.26 215.84,232.91 216.17,232.53 216.50,232.15 216.83,231.76 217.17,231.38 217.50,230.99 217.83,230.60 218.16,230.22 218.49,229.85 218.82,229.49 219.15,229.13 219.48,228.79 219.81,228.45 220.14,228.12 220.47,227.81 220.80,227.50 221.13,227.20 221.46,226.90 221.79,226.62 222.12,226.34 222.45,226.07 222.78,225.80 223.11,225.54 223.44,225.28 223.77,225.03 224.10,224.77 224.43,224.52 224.76,224.28 225.09,224.03 225.42,223.78 225.75,223.54 226.08,223.30 226.41,223.05 226.74,222.81 227.07,222.57 227.40,222.32 227.73,222.07 228.06,221.81 228.39,221.55 228.72,221.27 229.05,220.98 229.38,220.68 229.71,220.37 230.04,220.04 230.37,219.70 230.70,219.35 231.03,218.98 231.36,218.61 231.69,218.22 232.02,217.82 232.35,217.42 232.68,217.02 233.01,216.61 233.34,216.20 233.67,215.79 234.00,215.38 234.33,214.98 234.66,214.58 234.99,214.19 235.32,213.80 235.65,213.43 235.98,213.07 236.31,212.72 236.64,212.39 236.97,212.08 237.30,211.79 237.63,211.53 237.96,211.29 238.29,211.09 238.62,210.91 238.95,210.76 239.29,210.65 239.62,210.56 239.95,210.50 240.28,210.47 240.61,210.46 240.94,210.48 241.27,210.52 241.60,210.57 241.93,210.65 242.26,210.74 242.59,210.85 242.92,210.96 243.25,211.09 243.58,211.22 243.91,211.36 244.24,211.51 244.57,211.65 244.90,211.79 245.23,211.93 245.56,212.07 245.89,212.21 246.22,212.33 246.55,212.46 246.88,212.57 247.21,212.67 247.54,212.76 247.87,212.85 248.20,212.91 248.53,212.96 248.86,212.99 249.19,213.00 249.52,212.98 249.85,212.94 250.18,212.88 250.51,212.79 250.84,212.68 251.17,212.55 251.50,212.39 251.83,212.21 252.16,212.01 252.49,211.80 252.82,211.56 253.15,211.32 253.48,211.06 253.81,210.79 254.14,210.52 254.47,210.24 254.80,209.96 255.13,209.68 255.46,209.41 255.79,209.14 256.12,208.89 256.45,208.64 256.78,208.42 257.11,208.22 257.44,208.05 257.77,207.90 258.10,207.79 258.43,207.71 258.76,207.67 259.09,207.67 259.42,207.70 259.75,207.77 260.08,207.87 260.41,208.01 260.74,208.18 261.08,208.39 261.41,208.62 261.74,208.89 262.07,209.19 262.40,209.52 262.73,209.87 263.06,210.25 263.39,210.65 263.72,211.07 264.05,211.51 264.38,211.97 264.71,212.44 265.04,212.93 265.37,213.44 265.70,213.95 266.03,214.48 266.36,215.01 266.69,215.56 267.02,216.11 267.35,216.66 267.68,217.22 268.01,217.78 268.34,218.33 268.67,218.87 269.00,219.41 269.33,219.93 269.66,220.43 269.99,220.92 270.32,221.40 270.65,221.85 270.98,222.29 271.31,222.71 271.64,223.11 271.97,223.50 272.30,223.87 272.63,224.22 272.96,224.56 273.29,224.89 273.62,225.20 273.95,225.50 274.28,225.79 274.61,226.08 274.94,226.35 275.27,226.62 275.60,226.88 275.93,227.14 276.26,227.40 276.59,227.66 276.92,227.91 277.25,228.18 277.58,228.45 277.91,228.73 278.24,229.03 278.57,229.34 278.90,229.66 279.23,230.00 279.56,230.36 279.89,230.73 280.22,231.12 280.55,231.52 280.88,231.93 281.21,232.35 281.54,232.79 281.87,233.23 282.20,233.67 282.53,234.12 282.86,234.57 283.20,235.02 283.53,235.47 283.86,235.92 284.19,236.36 284.52,236.80 284.85,237.23 285.18,237.65 285.51,238.06 285.84,238.45 286.17,238.84 286.50,239.21 286.83,239.57 287.16,239.92 287.49,240.24 287.82,240.55 288.15,240.83 288.48,241.09 288.81,241.33 289.14,241.53 289.47,241.70 289.80,241.85 290.13,241.96 290.46,242.05 290.79,242.10 291.12,242.13 291.45,242.14 291.78,242.11 292.11,242.07 292.44,242.00 292.77,241.92 293.10,241.82 293.43,241.70 293.76,241.58 294.09,241.44 294.42,241.29 294.75,241.14 295.08,240.98 295.41,240.82 295.74,240.66 296.07,240.51 296.40,240.35 296.73,240.21 297.06,240.08 297.39,239.96 297.72,239.87 298.05,239.79 298.38,239.74 298.71,239.71 299.04,239.72 299.37,239.75 299.70,239.81 300.03,239.89 300.36,240.00 300.69,240.14 301.02,240.30 301.35,240.49 301.68,240.70 302.01,240.93 302.34,241.17 302.67,241.43 303.00,241.71 303.33,242.00 303.66,242.29 303.99,242.60 304.32,242.91 304.65,243.23 304.98,243.55 305.32,243.87 305.65,244.20 305.98,244.52 306.31,244.83 306.64,245.15 306.97,245.46 307.30,245.76 307.63,246.06 307.96,246.34 308.29,246.61 308.62,246.86 308.95,247.10 309.28,247.31 309.61,247.50 309.94,247.67 310.27,247.80 310.60,247.92 310.93,248.01 311.26,248.07 311.59,248.10 311.92,248.12 312.25,248.11 312.58,248.08 312.91,248.03 313.24,247.96 313.57,247.88 313.90,247.79 314.23,247.69 314.56,247.57 314.89,247.45 315.22,247.32 315.55,247.19 315.88,247.06 316.21,246.93 316.54,246.80 316.87,246.68 317.20,246.58 317.53,246.49 317.86,246.41 318.19,246.36 318.52,246.33 318.85,246.33 319.18,246.35 319.51,246.40 319.84,246.47 320.17,246.57 320.50,246.70 320.83,246.85 321.16,247.02 321.49,247.21 321.82,247.43 322.15,247.66 322.48,247.90 322.81,248.16 323.14,248.43 323.47,248.71 323.80,249.00 324.13,249.30 324.46,249.60 324.79,249.90 325.12,250.21 325.45,250.51 325.78,250.81 326.11,251.11 326.44,251.40 326.77,251.68 327.11,251.96 327.44,252.23 327.77,252.49 328.10,252.73 328.43,252.96 328.76,253.17 329.09,253.36 329.42,253.52 329.75,253.66 330.08,253.77 330.41,253.86 330.74,253.91 331.07,253.94 331.40,253.94 331.73,253.92 332.06,253.87 332.39,253.80 332.72,253.70 333.05,253.59 333.38,253.45 333.71,253.30 334.04,253.13 334.37,252.95 334.70,252.76 335.03,252.56 335.36,252.35 335.69,252.14 336.02,251.93 336.35,251.71 336.68,251.50 337.01,251.29 337.34,251.09 337.67,250.91 338.00,250.74 338.33,250.59 338.66,250.46 338.99,250.36 339.32,250.28 339.65,250.22 339.98,250.19 340.31,250.18 340.64,250.20 340.97,250.24 341.30,250.30 341.63,250.38 341.96,250.48 342.29,250.60 342.62,250.73 342.95,250.88 343.28,251.04 343.61,251.21 343.94,251.39 344.27,251.57 344.60,251.76 344.93,251.96 345.26,252.15 345.59,252.34 345.92,252.54 346.25,252.73 346.58,252.92 346.91,253.10 347.24,253.27 347.57,253.44 347.90,253.60 348.23,253.74 348.56,253.87 348.89,253.99 349.23,254.08 349.56,254.15 349.89,254.19 350.22,254.21 350.55,254.21 350.88,254.18 351.21,254.12 351.54,254.04 351.87,253.94 352.20,253.81 352.53,253.66 352.86,253.49 353.19,253.31 353.52,253.10 353.85,252.89 354.18,252.66 354.51,252.43 354.84,252.18 355.17,251.93 355.50,251.68 355.83,251.42 356.16,251.17 356.49,250.92 356.82,250.68 357.15,250.44 357.48,250.23 357.81,250.02 358.14,249.84 358.47,249.69 358.80,249.55 359.13,249.45 359.46,249.37 359.79,249.32 360.12,249.30 360.45,249.31 360.78,249.34 361.11,249.40 361.44,249.48 361.77,249.58 362.10,249.71 362.43,249.85 362.76,250.01 363.09,250.18 363.42,250.37 363.75,250.57 364.08,250.78 364.41,251.00 364.74,251.22 365.07,251.45 365.40,251.68 365.73,251.91 366.06,252.15 366.39,252.38 366.72,252.61 367.05,252.84 367.38,253.06 367.71,253.28 368.04,253.49 368.37,253.69 368.70,253.88 369.03,254.05 369.36,254.21 369.69,254.34 370.02,254.46 370.35,254.55 370.68,254.61 371.02,254.65 371.35,254.67 371.68,254.67 372.01,254.64 372.34,254.59 372.67,254.52 373.00,254.43 373.33,254.32 373.66,254.20 373.99,254.06 374.32,253.91 374.65,253.76 374.98,253.59 375.31,253.42 375.64,253.25 375.97,253.07 376.30,252.90 376.63,252.73 376.96,252.57 377.29,252.43 377.62,252.30 377.95,252.19 378.28,252.10 378.61,252.04 378.94,252.01 379.27,252.00 379.60,252.02 379.93,252.07 380.26,252.14 380.59,252.25 380.92,252.38 381.25,252.53 381.58,252.71 381.91,252.91 382.24,253.13 382.57,253.37 382.90,253.63 383.23,253.91 383.56,254.20 383.89,254.50 384.22,254.81 384.55,255.13 384.88,255.45 385.21,255.78 385.54,256.12 385.87,256.45 386.20,256.79 386.53,257.13 386.86,257.46 387.19,257.79 387.52,258.12 387.85,258.44 388.18,258.76 388.51,259.08 388.84,259.38 389.17,259.67 389.50,259.96 389.83,260.22 390.16,260.47 390.49,260.71 390.82,260.92 391.15,261.11 391.48,261.28 391.81,261.43 392.14,261.56 392.47,261.67 392.80,261.76 393.14,261.83 393.47,261.89 393.80,261.94 394.13,261.97 394.46,261.99 394.79,262.01 395.12,262.02 395.45,262.03 395.78,262.03 396.11,262.04 396.44,262.06 396.77,262.09 397.10,262.13 397.43,262.19 397.76,262.28 398.09,262.39 398.42,262.52 398.75,262.69 399.08,262.89 399.41,263.11 399.74,263.37 400.07,263.66 400.40,263.99 400.73,264.34 401.06,264.72 401.39,265.13 401.72,265.56 402.05,266.02 402.38,266.50 402.71,267.01 403.04,267.53 403.37,268.06 403.70,268.62 404.03,269.18 404.36,269.76 404.69,270.35 405.02,270.94 405.35,271.54 405.68,272.15 406.01,272.76 406.34,273.38 406.67,273.99 407.00,274.60 407.33,275.22 407.66,275.83 407.99,276.44 408.32,277.04 408.65,277.64 408.98,278.23 409.31,278.80 409.64,279.37 409.97,279.92 410.30,280.45 410.63,280.97 410.96,281.46 411.29,281.92 411.62,282.37 411.95,282.78 412.28,283.18 412.61,283.55 412.94,283.89 413.27,284.22 413.60,284.52 413.93,284.80 414.26,285.07 414.59,285.32 414.92,285.56 415.26,285.78 415.59,286.00 415.92,286.21 416.25,286.42 416.58,286.62 416.91,286.83 417.24,287.04 417.57,287.27 417.90,287.51 418.23,287.76 418.56,288.04 418.89,288.33 419.22,288.65 419.55,288.98 419.88,289.34 420.21,289.72 420.54,290.12 420.87,290.54 421.20,290.98 421.53,291.44 421.86,291.91 422.19,292.40 422.52,292.89 422.85,293.40 423.18,293.92 423.51,294.45 423.84,294.98 424.17,295.52 424.50,296.05 424.83,296.59 425.16,297.13 425.49,297.66 425.82,298.19 426.15,298.72 426.48,299.24 426.81,299.75 427.14,300.25 427.47,300.74 427.80,301.22 428.13,301.69 428.46,302.16 428.79,302.61 429.12,303.04 429.45,303.46 429.78,303.87 430.11,304.25 430.44,304.62 430.77,304.96 431.10,305.27 431.43,305.56 431.76,305.83 432.09,306.07 432.42,306.29 432.75,306.48 433.08,306.65 433.41,306.80 433.74,306.93 434.07,307.04 434.40,307.13 434.73,307.21 435.06,307.28 435.39,307.33 435.72,307.39 436.05,307.44 436.38,307.49 436.71,307.54 437.05,307.61 437.38,307.68 437.71,307.78 438.04,307.89 438.37,308.03 438.70,308.19 439.03,308.37 439.36,308.59 439.69,308.83 440.02,309.09 440.35,309.38 440.68,309.70 441.01,310.03 441.34,310.40 441.67,310.78 442.00,311.19 442.33,311.61 442.66,312.05 442.99,312.51 443.32,312.98 443.65,313.46 443.98,313.96 444.31,314.45 444.64,314.96 444.97,315.47 445.30,315.98 445.63,316.50 445.96,317.02 446.29,317.53 446.62,318.05 446.95,318.56 447.28,319.07 447.61,319.57 447.94,320.07 448.27,320.56 448.60,321.04 448.93,321.52 449.26,321.99 449.59,322.44 449.92,322.89 450.25,323.32 450.58,323.73 450.91,324.13 451.24,324.50 451.57,324.85 451.90,325.18 452.23,325.49 452.56,325.77 452.89,326.03 453.22,326.26 453.55,326.47 453.88,326.66 454.21,326.83 454.54,326.99 454.87,327.13 455.20,327.25 455.53,327.37 455.86,327.48 456.19,327.59 456.52,327.70 456.85,327.81 457.18,327.93 457.51,328.07 457.84,328.23 458.17,328.40 458.50,328.59 458.83,328.80 459.17,329.04 459.50,329.29 459.83,329.57 460.16,329.87 460.49,330.19 460.82,330.54 461.15,330.90 461.48,331.28 461.81,331.68 462.14,332.09 462.47,332.52 462.80,332.96 463.13,333.41 463.46,333.88 463.79,334.35 464.12,334.82 464.45,335.30 464.78,335.79 465.11,336.28 465.44,336.77 465.77,337.26 466.10,337.75 466.43,338.23 466.76,338.71 467.09,339.19 467.42,339.66 467.75,340.12 468.08,340.57 468.41,341.02 468.74,341.45 469.07,341.88 469.40,342.30 469.73,342.70 470.06,343.10 470.39,343.48 470.72,343.84 471.05,344.19 471.38,344.51 471.71,344.82 472.04,345.10 472.37,345.35 472.70,345.58 473.03,345.78 473.36,345.96 473.69,346.11 474.02,346.24 474.35,346.34 474.68,346.42 475.01,346.49 475.34,346.54 475.67,346.57 476.00,346.59 476.33,346.61 476.66,346.62 476.99,346.63 477.32,346.65 477.65,346.67 477.98,346.71 478.31,346.75 478.64,346.81 478.97,346.88 479.30,346.96 479.63,347.05 479.96,347.17 480.29,347.29 480.62,347.43 480.95,347.58 481.29,347.75 481.62,347.93 481.95,348.12 482.28,348.32 482.61,348.53 482.94,348.75 483.27,348.98 483.60,349.21 483.93,349.45 484.26,349.69 484.59,349.93 484.92,350.18 485.25,350.42 485.58,350.67 485.91,350.92 486.24,351.16 486.57,351.40 486.90,351.64 487.23,351.87 487.56,352.09 487.89,352.31 488.22,352.53 488.55,352.73 488.88,352.94 489.21,353.13 489.54,353.32 489.87,353.50 490.20,353.67 490.53,353.82 490.86,353.97 491.19,354.10 491.52,354.22 491.85,354.32 492.18,354.40 492.51,354.45 492.84,354.49 493.17,354.50 493.50,354.49 493.83,354.46 494.16,354.41 494.49,354.34 494.82,354.26 495.15,354.15 495.48,354.04 495.81,353.91 496.14,353.78 496.47,353.65 496.80,353.51 497.13,353.39 497.46,353.27 497.79,353.16 498.12,353.06 498.45,352.97 498.78,352.90 499.11,352.85 499.44,352.81 499.77,352.79 500.10,352.78 500.43,352.79 500.76,352.82 501.09,352.86 501.42,352.92 501.75,352.98 502.08,353.07 502.41,353.16 502.74,353.26 503.08,353.38 503.41,353.50 503.74,353.63 504.07,353.76 504.40,353.90 504.73,354.05 505.06,354.20 505.39,354.35 505.72,354.50 506.05,354.65 506.38,354.80 506.71,354.95 507.04,355.10 507.37,355.24 507.70,355.39 508.03,355.52 508.36,355.66 508.69,355.79 509.02,355.91 509.35,356.03 509.68,356.14 510.01,356.25 510.34,356.34 510.67,356.44 511.00,356.52 511.33,356.58 511.66,356.64 511.99,356.67 512.32,356.69 512.65,356.70 512.98,356.68 513.31,356.64 513.64,356.58 513.97,356.51 514.30,356.42 514.63,356.30 514.96,356.17 515.29,356.03 515.62,355.87 515.95,355.71 516.28,355.54 516.61,355.36 516.94,355.19 517.27,355.02 517.60,354.86 517.93,354.72 518.26,354.58 518.59,354.46 518.92,354.35 519.25,354.26 519.58,354.19 519.91,354.13 520.24,354.09 520.57,354.07 520.90,354.07 521.23,354.07 521.56,354.10 521.89,354.13 522.22,354.18 522.55,354.24 522.88,354.31 523.21,354.39 523.54,354.48 523.87,354.58 524.20,354.68 524.53,354.79 524.86,354.90 525.20,355.01 525.53,355.12 525.86,355.23 526.19,355.34 526.52,355.45 526.85,355.55 527.18,355.65 527.51,355.75 527.84,355.83 528.17,355.92 528.50,355.99 528.83,356.06 529.16,356.13 529.49,356.18 529.82,356.23 530.15,356.27 530.48,356.30 530.81,356.32 531.14,356.33 531.47,356.32 531.80,356.30 532.13,356.26 532.46,356.20 532.79,356.12 533.12,356.02 533.45,355.90 533.78,355.76 534.11,355.60 534.44,355.41 534.77,355.20 535.10,354.98 535.43,354.74 535.76,354.48 536.09,354.21 536.42,353.94 536.75,353.66 537.08,353.38 537.41,353.11 537.74,352.84 538.07,352.58 538.40,352.32 538.73,352.08 539.06,351.84 539.39,351.62 539.72,351.41 540.05,351.20 540.38,351.01 540.71,350.83 541.04,350.66 541.37,350.49 541.70,350.33 542.03,350.17 542.36,350.02 542.69,349.88 543.02,349.73 543.35,349.58 543.68,349.44 544.01,349.29 544.34,349.14 544.67,348.98 545.00,348.82 545.33,348.65 545.66,348.47 545.99,348.29 546.32,348.09 546.65,347.88 546.98,347.66 547.32,347.43 547.65,347.18 547.98,346.92 548.31,346.65 548.64,346.36 548.97,346.05 549.30,345.73 549.63,345.39 549.96,345.04 550.29,344.67 550.62,344.28 550.95,343.88 551.28,343.46 551.61,343.02 551.94,342.56 552.27,342.08 552.60,341.57 552.93,341.04 553.26,340.49 553.59,339.91 553.92,339.31 554.25,338.68 554.58,338.03 554.91,337.35 555.24,336.66 555.57,335.95 555.90,335.23 556.23,334.50 556.56,333.77 556.89,333.03 557.22,332.29 557.55,331.56 557.88,330.82 558.21,330.09 558.54,329.36 558.87,328.63 559.20,327.91 559.53,327.19 559.86,326.48 560.19,325.78 560.52,325.07 560.85,324.37 561.18,323.68 561.51,322.99 561.84,322.30 562.17,321.61 562.50,320.93 562.83,320.24 563.16,319.55 563.49,318.87 563.82,318.18 564.15,317.49 564.48,316.79 564.81,316.10 565.14,315.40 565.47,314.69 565.80,313.98 566.13,313.26 566.46,312.54 566.79,311.81 567.12,311.08 567.45,310.34 567.78,309.59 568.11,308.84 568.44,308.07 568.77,307.31 569.11,306.54 569.44,305.76 569.77,304.97 570.10,304.18 570.43,303.39 570.76,302.58 571.09,301.78 571.42,300.96 571.75,300.14 572.08,299.31 572.41,298.46 572.74,297.61 573.07,296.74 573.40,295.85 573.73,294.95 574.06,294.04 574.39,293.11 574.72,292.17 575.05,291.22 575.38,290.27 575.71,289.30 576.04,288.33 576.37,287.36 576.70,286.40 577.03,285.44 577.36,284.50 577.69,283.56 578.02,282.64 578.35,281.74 578.68,280.86 579.01,280.00 579.34,279.15 579.67,278.33 580.00,277.53 580.33,276.76 580.66,276.00 580.99,275.26 581.32,274.55 581.65,273.85 581.98,273.18 582.31,272.52 582.64,271.87 582.97,271.25 583.30,270.64 583.63,270.04 583.96,269.45 584.29,268.88 584.62,268.32 584.95,267.76 585.28,267.22 585.61,266.68 585.94,266.14 586.27,265.61 586.60,265.08 586.93,264.56 587.26,264.03 587.59,263.51 587.92,262.98 588.25,262.46 588.58,261.93 588.91,261.40 589.24,260.87 589.57,260.33 589.90,259.79 590.23,259.24 590.56,258.69 590.89,258.13 591.23,257.57 591.56,256.99 591.89,256.41 592.22,255.81 592.55,255.19 592.88,254.56 593.21,253.91 593.54,253.23 593.87,252.54 594.20,251.83 594.53,251.09 594.86,250.34 595.19,249.57 595.52,248.77 595.85,247.97 596.18,247.14 596.51,246.31 596.84,245.47 597.17,244.62 597.50,243.78 597.83,242.93 598.16,242.09 598.49,241.25 598.82,240.42 599.15,239.60 599.48,238.79 599.81,237.98 600.14,237.19 600.47,236.40 600.80,235.63 601.13,234.86 601.46,234.10 601.79,233.36 602.12,232.62 602.45,231.88 602.78,231.16 603.11,230.44 603.44,229.73 603.77,229.02 604.10,228.32 604.43,227.62 604.76,226.93 605.09,226.24 605.42,225.55 605.75,224.86 606.08,224.17 606.41,223.49 606.74,222.80 607.07,222.12 607.40,221.44 607.73,220.75 608.06,220.07 608.39,219.38 608.72,218.69 609.05,218.01 609.38,217.32 609.71,216.63 610.04,215.94 610.37,215.25 610.70,214.55 611.03,213.86 611.36,213.16 611.69,212.46 612.02,211.75 612.35,211.03 612.68,210.31 613.02,209.57 613.35,208.82 613.68,208.06 614.01,207.29 614.34,206.51 614.67,205.72 615.00,204.92 615.33,204.11 615.66,203.30 615.99,202.49 616.32,201.67 616.65,200.86 616.98,200.06 617.31,199.26 617.64,198.49 617.97,197.72 618.30,196.98 618.63,196.25 618.96,195.55 619.29,194.87 619.62,194.22 619.95,193.59 620.28,192.98 620.61,192.40 620.94,191.84 621.27,191.31 621.60,190.80 621.93,190.31 622.26,189.85 622.59,189.41 622.92,188.98 623.25,188.58 623.58,188.20 623.91,187.83 624.24,187.49 624.57,187.16 624.90,186.84 625.23,186.54 625.56,186.26 625.89,185.99 626.22,185.73 626.55,185.49 626.88,185.26 627.21,185.05 627.54,184.85 627.87,184.66 628.20,184.48 628.53,184.31 628.86,184.16 629.19,184.02 629.52,183.89 629.85,183.77 630.18,183.67 630.51,183.58 630.84,183.51 631.17,183.45 631.50,183.40 631.83,183.36 632.16,183.34 632.49,183.33 632.82,183.33 633.15,183.34 633.48,183.36 633.81,183.39 634.14,183.42 634.47,183.46 634.80,183.51 635.14,183.56 635.47,183.61 635.80,183.68 636.13,183.75 636.46,183.84 636.79,183.94 637.12,184.06 637.45,184.19 637.78,184.34 638.11,184.52 638.44,184.72 638.77,184.94 639.10,185.18 639.43,185.45 639.76,185.74 640.09,186.05 640.42,186.38 640.75,186.73 641.08,187.11 641.41,187.50 641.74,187.91 642.07,188.33 642.40,188.78 642.73,189.23 643.06,189.69 643.39,190.17 643.72,190.65 644.05,191.15 644.38,191.64 644.71,192.15 645.04,192.65 645.37,193.15 645.70,193.66 646.03,194.16 646.36,194.66 646.69,195.16 647.02,195.65 647.35,196.13 647.68,196.61 648.01,197.08 648.34,197.53 648.67,197.98 649.00,198.42 649.33,198.85 649.66,199.26 649.99,199.66 650.32,200.05 650.65,200.42 650.98,200.78 651.31,201.12 651.64,201.44 651.97,201.74 652.30,202.02 652.63,202.26 652.96,202.49 653.29,202.68 653.62,202.85 653.95,203.00 654.28,203.11 654.61,203.21 654.94,203.28 655.27,203.32 655.60,203.35 655.93,203.36 656.26,203.36 656.59,203.34 656.92,203.32 657.26,203.29 657.59,203.27 657.92,203.25 658.25,203.24 658.58,203.24 658.91,203.25 659.24,203.28 659.57,203.33 659.90,203.39 660.23,203.47 660.56,203.57 660.89,203.69 661.22,203.83 661.55,203.99 661.88,204.16 662.21,204.36 662.54,204.57 662.87,204.80 663.20,205.04 663.53,205.30 663.86,205.57 664.19,205.85 664.52,206.15 664.85,206.46 665.18,206.77 665.51,207.09 665.84,207.42 666.17,207.76 666.50,208.09 666.83,208.44 667.16,208.78 667.49,209.12 667.82,209.47 668.15,209.81 668.48,210.14 668.81,210.48 669.14,210.81 669.47,211.13 669.80,211.45 670.13,211.76 670.46,212.06 670.79,212.36 671.12,212.64 671.45,212.92 671.78,213.18 672.11,213.43 672.44,213.67 672.77,213.89 673.10,214.10 673.43,214.29 673.76,214.46 674.09,214.61 674.42,214.74 674.75,214.84 675.08,214.92 675.41,214.98 675.74,215.01 676.07,215.02 676.40,215.01 676.73,214.98 677.06,214.93 677.39,214.86 677.72,214.78 678.05,214.68 678.38,214.57 678.71,214.44 679.05,214.30 679.38,214.14 679.71,213.97 680.04,213.79 680.37,213.59 680.70,213.38 681.03,213.15 681.36,212.91 681.69,212.66 682.02,212.39 682.35,212.10 682.68,211.80 683.01,211.49 683.34,211.16 683.67,210.82 684.00,210.45 684.33,210.08 684.66,209.69 684.99,209.28 685.32,208.86 685.65,208.42 685.98,207.97 686.31,207.50 686.64,207.02 686.97,206.52 687.30,206.01 687.63,205.49 687.96,204.96 688.29,204.41 688.62,203.85 688.95,203.28 689.28,202.70 689.61,202.11 689.94,201.51 690.27,200.90 690.60,200.29 690.93,199.67 691.26,199.03 691.59,198.40 691.92,197.75 692.25,197.10 692.58,196.44 692.91,195.76 693.24,195.08 693.57,194.38 693.90,193.67 694.23,192.95 694.56,192.22 694.89,191.48 695.22,190.72 695.55,189.96 695.88,189.20 696.21,188.43 696.54,187.65 696.87,186.89 697.20,186.12 697.53,185.37 697.86,184.63 698.19,183.90 698.52,183.20 698.85,182.51 699.18,181.84 699.51,181.19 699.84,180.56 700.17,179.96 700.50,179.38 700.83,178.82 701.17,178.29 701.50,177.78 701.83,177.29 702.16,176.82 702.49,176.37 702.82,175.95 703.15,175.54 703.48,175.16 703.81,174.79 704.14,174.45 704.47,174.12 704.80,173.80 705.13,173.51 705.46,173.23 705.79,172.96 706.12,172.71 706.45,172.48 706.78,172.25 707.11,172.04 707.44,171.84 707.77,171.65 708.10,171.47 708.43,171.29 708.76,171.13 709.09,170.98 709.42,170.83 709.75,170.69 710.08,170.55 710.41,170.43 710.74,170.31 711.07,170.19 711.40,170.08 711.73,169.97 712.06,169.86 712.39,169.74 712.72,169.63 713.05,169.50 713.38,169.37 713.71,169.23 714.04,169.09 714.37,168.93 714.70,168.76 715.03,168.59 715.36,168.41 715.69,168.22 716.02,168.02 716.35,167.82 716.68,167.61 717.01,167.41 717.34,167.20 717.67,167.00 718.00,166.81 718.33,166.63 718.66,166.46 718.99,166.30 719.32,166.16 719.65,166.04 719.98,165.94 720.31,165.86 720.64,165.79 720.97,165.74 721.30,165.71 721.63,165.70 721.96,165.70 722.29,165.72 722.62,165.75 722.95,165.79 723.29,165.84 723.62,165.90 723.95,165.97 724.28,166.05 724.61,166.13 724.94,166.21 725.27,166.30 725.60,166.39 725.93,166.47 726.26,166.55 726.59,166.63 726.92,166.71 727.25,166.78 727.58,166.84 727.91,166.89 728.24,166.94 728.57,166.98 728.90,167.01 729.23,167.02 729.56,167.03 729.89,167.03 730.22,167.02 730.55,167.00 730.88,166.96 731.21,166.92 731.54,166.85 731.87,166.78 732.20,166.68 732.53,166.57 732.86,166.44 733.19,166.29 733.52,166.11 733.85,165.91 734.18,165.69 734.51,165.44 734.84,165.18 735.17,164.89 735.50,164.58 735.83,164.26 736.16,163.92 736.49,163.56 736.82,163.20 737.15,162.83 737.48,162.45 737.81,162.07 738.14,161.69 738.47,161.33 738.80,160.97 739.13,160.62 739.46,160.29 739.79,159.98 740.12,159.68 740.45,159.40 740.78,159.14 741.11,158.89 741.44,158.67 741.77,158.46 742.10,158.27 742.43,158.10 742.76,157.95 743.09,157.81 743.42,157.68 743.75,157.57 744.08,157.48 744.41,157.39 744.74,157.32 745.08,157.25 745.41,157.20 745.74,157.15 746.07,157.11 746.40,157.07 746.73,157.04 747.06,157.02 747.39,156.99 747.72,156.97 748.05,156.96 748.38,156.94 748.71,156.92 749.04,156.90 749.37,156.89 749.70,156.87 750.03,156.85 750.36,156.82 750.69,156.80 751.02,156.77 751.35,156.74 751.68,156.70 752.01,156.66 752.34,156.62 752.67,156.56 753.00,156.49 753.33,156.41 753.66,156.32 753.99,156.21 754.32,156.08 754.65,155.94 754.98,155.79 755.31,155.62 755.64,155.43 755.97,155.23 756.30,155.02 756.63,154.81 756.96,154.58 757.29,154.35 757.62,154.13 757.95,153.90 758.28,153.69 758.61,153.48 758.94,153.28 759.27,153.09 759.60,152.92 759.93,152.77 760.26,152.62 760.59,152.50 760.92,152.38 761.25,152.29 761.58,152.21 761.91,152.14 762.24,152.09 762.57,152.06 762.90,152.03 763.23,152.02 763.56,152.02 763.89,152.03 764.22,152.05 764.55,152.08 764.88,152.11 765.21,152.15 765.54,152.20 765.87,152.25 766.20,152.31 766.53,152.37 766.86,152.43 767.20,152.49 767.53,152.55 767.86,152.61 768.19,152.67 768.52,152.73 768.85,152.79 769.18,152.85 769.51,152.90 769.84,152.95 770.17,153.00 770.50,153.04 770.83,153.08 771.16,153.12 771.49,153.15 771.82,153.18 772.15,153.20 772.48,153.22 772.81,153.22 773.14,153.22 773.47,153.20 773.80,153.17 774.13,153.13 774.46,153.07 774.79,153.00 775.12,152.91 775.45,152.81 775.78,152.69 776.11,152.57 776.44,152.43 776.77,152.28 777.10,152.13 777.43,151.98 777.76,151.82 778.09,151.68 778.42,151.53 778.75,151.40 779.08,151.28 779.41,151.17 779.74,151.07 780.07,150.99 780.40,150.92 780.73,150.86 781.06,150.82 781.39,150.80 781.72,150.78 782.05,150.78 782.38,150.79 782.71,150.81 783.04,150.85 783.37,150.89 783.70,150.95 784.03,151.01 784.36,151.08 784.69,151.16 785.02,151.25 785.35,151.34 785.68,151.43 786.01,151.53 786.34,151.63 786.67,151.73 787.00,151.84 787.33,151.94 787.66,152.05 787.99,152.15 788.32,152.25 788.65,152.35 788.98,152.45 789.32,152.54 789.65,152.63 789.98,152.72 790.31,152.81 790.64,152.89 790.97,152.97 791.30,153.04 791.63,153.11 791.96,153.17 792.29,153.23 792.62,153.28 792.95,153.33 793.28,153.36 793.61,153.39 793.94,153.40 794.27,153.40 794.60,153.39 794.93,153.36 795.26,153.32 795.59,153.26 795.92,153.19 796.25,153.11 796.58,153.02 796.91,152.92 797.24,152.82 797.57,152.71 797.90,152.60 798.23,152.49 798.56,152.39 798.89,152.29 799.22,152.19 799.55,152.10 799.88,152.02 800.21,151.94 800.54,151.87 800.87,151.81 801.20,151.76 801.53,151.71 801.86,151.67 802.19,151.64 802.52,151.61 802.85,151.59 803.18,151.58 803.51,151.56 803.84,151.56 804.17,151.55 804.50,151.55 804.83,151.55 805.16,151.56 805.49,151.56 805.82,151.57 806.15,151.57 806.48,151.58 806.81,151.58 807.14,151.59 807.47,151.59 807.80,151.58 808.13,151.58 808.46,151.57 808.79,151.55 809.12,151.53 809.45,151.51 809.78,151.48 810.11,151.45 810.44,151.42 810.77,151.37 811.11,151.33 811.44,151.28 811.77,151.22 812.10,151.16 812.43,151.09 812.76,151.01 813.09,150.93 813.42,150.83 813.75,150.72 814.08,150.60 814.41,150.47 814.74,150.32 815.07,150.15 815.40,149.97 815.73,149.77 816.06,149.56 816.39,149.34 816.72,149.11 817.05,148.86 817.38,148.62 817.71,148.37 818.04,148.12 818.37,147.87 818.70,147.62 819.03,147.39 819.36,147.16 819.69,146.94 820.02,146.73 820.35,146.53 820.68,146.34 821.01,146.16 821.34,146.00 821.67,145.84 822.00,145.70" fill="none" stroke="#c5221f" stroke-width="2"/>
<text x="662" y="56" font-family="Arial" font-size="12" fill="#c5221f">Experiment</text>
<polyline points="96.00,64.22 96.33,64.22 96.66,64.22 96.99,64.22 97.32,64.22 97.65,64.22 97.98,64.22 98.31,64.22 98.64,64.22 98.97,64.22 99.30,64.22 99.63,64.22 99.96,64.22 100.29,64.22 100.62,64.22 100.95,64.22 101.28,64.22 101.61,64.22 101.94,64.22 102.27,64.22 102.60,64.22 102.93,64.22 103.26,64.22 103.59,64.22 103.92,64.22 104.25,64.22 104.58,64.22 104.91,64.22 105.24,64.22 105.57,64.22 105.90,64.22 106.23,64.22 106.56,64.22 106.89,64.22 107.23,64.22 107.56,64.22 107.89,64.22 108.22,64.22 108.55,64.22 108.88,64.22 109.21,64.22 109.54,64.22 109.87,64.22 110.20,64.22 110.53,64.22 110.86,64.22 111.19,64.22 111.52,64.22 111.85,64.22 112.18,64.22 112.51,64.22 112.84,64.22 113.17,64.22 113.50,64.22 113.83,64.22 114.16,64.22 114.49,64.22 114.82,64.22 115.15,64.22 115.48,64.22 115.81,64.22 116.14,64.22 116.47,64.22 116.80,64.22 117.13,64.22 117.46,64.22 117.79,64.22 118.12,64.22 118.45,64.22 118.78,64.22 119.11,64.22 119.44,64.22 119.77,64.22 120.10,64.22 120.43,64.22 120.76,64.22 121.09,64.22 121.42,64.22 121.75,64.22 122.08,64.22 122.41,64.22 122.74,64.22 123.07,64.22 123.40,64.22 123.73,64.22 124.06,64.22 124.39,64.22 124.72,64.22 125.05,64.22 125.38,64.22 125.71,64.22 126.04,64.22 126.37,64.22 126.70,64.22 127.03,64.22 127.36,64.22 127.69,64.22 128.02,64.22 128.35,64.22 128.68,64.22 129.02,64.22 129.35,64.22 129.68,64.22 130.01,64.23 130.34,64.23 130.67,64.23 131.00,64.23 131.33,64.23 131.66,64.23 131.99,64.23 132.32,64.24 132.65,64.24 132.98,64.24 133.31,64.24 133.64,64.24 133.97,64.25 134.30,64.25 134.63,64.25 134.96,64.26 135.29,64.26 135.62,64.26 135.95,64.26 136.28,64.27 136.61,64.27 136.94,64.28 137.27,64.28 137.60,64.28 137.93,64.29 138.26,64.29 138.59,64.30 138.92,64.30 139.25,64.31 139.58,64.31 139.91,64.32 140.24,64.32 140.57,64.33 140.90,64.33 141.23,64.34 141.56,64.35 141.89,64.35 142.22,64.36 142.55,64.37 142.88,64.37 143.21,64.38 143.54,64.39 143.87,64.40 144.20,64.40 144.53,64.41 144.86,64.42 145.19,64.43 145.52,64.44 145.85,64.45 146.18,64.46 146.51,64.47 146.84,64.48 147.17,64.49 147.50,64.50 147.83,64.51 148.16,64.53 148.49,64.54 148.82,64.55 149.15,64.56 149.48,64.58 149.81,64.59 150.14,64.61 150.47,64.62 150.80,64.64 151.14,64.65 151.47,64.67 151.80,64.68 152.13,64.70 152.46,64.72 152.79,64.74 153.12,64.76 153.45,64.77 153.78,64.79 154.11,64.81 154.44,64.83 154.77,64.86 155.10,64.88 155.43,64.90 155.76,64.92 156.09,64.95 156.42,64.97 156.75,65.00 157.08,65.02 157.41,65.05 157.74,65.08 158.07,65.11 158.40,65.14 158.73,65.17 159.06,65.20 159.39,65.23 159.72,65.26 160.05,65.30 160.38,65.33 160.71,65.36 161.04,65.40 161.37,65.44 161.70,65.48 162.03,65.52 162.36,65.56 162.69,65.60 163.02,65.64 163.35,65.69 163.68,65.73 164.01,65.78 164.34,65.83 164.67,65.87 165.00,65.92 165.33,65.98 165.66,66.03 165.99,66.08 166.32,66.14 166.65,66.20 166.98,66.26 167.31,66.32 167.64,66.38 167.97,66.45 168.30,66.51 168.63,66.58 168.96,66.65 169.29,66.72 169.62,66.79 169.95,66.87 170.28,66.94 170.61,67.02 170.94,67.11 171.27,67.19 171.60,67.27 171.93,67.36 172.26,67.45 172.59,67.55 172.92,67.64 173.26,67.74 173.59,67.84 173.92,67.94 174.25,68.05 174.58,68.15 174.91,68.26 175.24,68.38 175.57,68.49 175.90,68.61 176.23,68.74 176.56,68.86 176.89,68.99 177.22,69.12 177.55,69.26 177.88,69.40 178.21,69.54 178.54,69.69 178.87,69.84 179.20,69.99 179.53,70.15 179.86,70.31 180.19,70.47 180.52,70.64 180.85,70.81 181.18,70.99 181.51,71.17 181.84,71.36 182.17,71.55 182.50,71.74 182.83,71.94 183.16,72.15 183.49,72.36 183.82,72.57 184.15,72.79 184.48,73.01 184.81,73.24 185.14,73.48 185.47,73.72 185.80,73.96 186.13,74.21 186.46,74.47 186.79,74.73 187.12,75.00 187.45,75.27 187.78,75.55 188.11,75.84 188.44,76.13 188.77,76.43 189.10,76.73 189.43,77.04 189.76,77.36 190.09,77.69 190.42,78.02 190.75,78.35 191.08,78.70 191.41,79.05 191.74,79.41 192.07,79.77 192.40,80.15 192.73,80.53 193.06,80.92 193.39,81.31 193.72,81.71 194.05,82.12 194.38,82.54 194.71,82.97 195.05,83.40 195.38,83.84 195.71,84.29 196.04,84.74 196.37,85.21 196.70,85.68 197.03,86.16 197.36,86.65 197.69,87.14 198.02,87.65 198.35,88.16 198.68,88.68 199.01,89.21 199.34,89.75 199.67,90.29 200.00,90.84 200.33,91.41 200.66,91.97 200.99,92.55 201.32,93.14 201.65,93.73 201.98,94.33 202.31,94.94 202.64,95.56 202.97,96.18 203.30,96.82 203.63,97.46 203.96,98.10 204.29,98.76 204.62,99.42 204.95,100.09 205.28,100.77 205.61,101.46 205.94,102.15 206.27,102.85 206.60,103.56 206.93,104.27 207.26,104.99 207.59,105.72 207.92,106.45 208.25,107.19 208.58,107.94 208.91,108.69 209.24,109.45 209.57,110.21 209.90,110.98 210.23,111.75 210.56,112.53 210.89,113.32 211.22,114.11 211.55,114.91 211.88,115.71 212.21,116.51 212.54,117.32 212.87,118.13 213.20,118.95 213.53,119.77 213.86,120.60 214.19,121.43 214.52,122.26 214.85,123.09 215.18,123.93 215.51,124.77 215.84,125.61 216.17,126.46 216.50,127.30 216.83,128.15 217.17,129.00 217.50,129.86 217.83,130.71 218.16,131.57 218.49,132.42 218.82,133.28 219.15,134.14 219.48,135.00 219.81,135.86 220.14,136.71 220.47,137.57 220.80,138.43 221.13,139.29 221.46,140.15 221.79,141.01 222.12,141.86 222.45,142.72 222.78,143.57 223.11,144.42 223.44,145.27 223.77,146.12 224.10,146.97 224.43,147.82 224.76,148.66 225.09,149.50 225.42,150.34 225.75,151.18 226.08,152.01 226.41,152.84 226.74,153.67 227.07,154.50 227.40,155.32 227.73,156.14 228.06,156.95 228.39,157.76 228.72,158.57 229.05,159.38 229.38,160.18 229.71,160.97 230.04,161.77 230.37,162.56 230.70,163.34 231.03,164.12 231.36,164.90 231.69,165.67 232.02,166.44 232.35,167.20 232.68,167.96 233.01,168.71 233.34,169.46 233.67,170.21 234.00,170.94 234.33,171.68 234.66,172.41 234.99,173.13 235.32,173.85 235.65,174.57 235.98,175.28 236.31,175.98 236.64,176.68 236.97,177.37 237.30,178.06 237.63,178.75 237.96,179.42 238.29,180.10 238.62,180.76 238.95,181.43 239.29,182.08 239.62,182.73 239.95,183.38 240.28,184.02 240.61,184.66 240.94,185.29 241.27,185.91 241.60,186.53 241.93,187.14 242.26,187.75 242.59,188.35 242.92,188.95 243.25,189.54 243.58,190.13 243.91,190.71 244.24,191.28 244.57,191.85 244.90,192.42 245.23,192.98 245.56,193.53 245.89,194.08 246.22,194.63 246.55,195.16 246.88,195.70 247.21,196.22 247.54,196.75 247.87,197.26 248.20,197.78 248.53,198.28 248.86,198.79 249.19,199.28 249.52,199.77 249.85,200.26 250.18,200.74 250.51,201.22 250.84,201.69 251.17,202.16 251.50,202.62 251.83,203.08 252.16,203.53 252.49,203.98 252.82,204.42 253.15,204.86 253.48,205.29 253.81,205.72 254.14,206.14 254.47,206.56 254.80,206.97 255.13,207.38 255.46,207.79 255.79,208.19 256.12,208.59 256.45,208.98 256.78,209.37 257.11,209.75 257.44,210.13 257.77,210.50 258.10,210.87 258.43,211.24 258.76,211.60 259.09,211.96 259.42,212.31 259.75,212.66 260.08,213.01 260.41,213.35 260.74,213.69 261.08,214.02 261.41,214.35 261.74,214.68 262.07,215.00 262.40,215.32 262.73,215.64 263.06,215.95 263.39,216.26 263.72,216.56 264.05,216.86 264.38,217.16 264.71,217.45 265.04,217.74 265.37,218.03 265.70,218.31 266.03,218.59 266.36,218.87 266.69,219.14 267.02,219.41 267.35,219.67 267.68,219.94 268.01,220.20 268.34,220.45 268.67,220.71 269.00,220.96 269.33,221.21 269.66,221.45 269.99,221.69 270.32,221.93 270.65,222.17 270.98,222.40 271.31,222.63 271.64,222.86 271.97,223.08 272.30,223.30 272.63,223.52 272.96,223.74 273.29,223.95 273.62,224.16 273.95,224.37 274.28,224.58 274.61,224.78 274.94,224.98 275.27,225.18 275.60,225.38 275.93,225.57 276.26,225.76 276.59,225.95 276.92,226.14 277.25,226.32 277.58,226.50 277.91,226.68 278.24,226.86 278.57,227.03 278.90,227.21 279.23,227.38 279.56,227.54 279.89,227.71 280.22,227.88 280.55,228.04 280.88,228.20 281.21,228.36 281.54,228.51 281.87,228.67 282.20,228.82 282.53,228.97 282.86,229.12 283.20,229.27 283.53,229.41 283.86,229.55 284.19,229.70 284.52,229.84 284.85,229.97 285.18,230.11 285.51,230.24 285.84,230.38 286.17,230.51 286.50,230.64 286.83,230.77 287.16,230.89 287.49,231.02 287.82,231.14 288.15,231.26 288.48,231.38 288.81,231.50 289.14,231.62 289.47,231.73 289.80,231.85 290.13,231.96 290.46,232.07 290.79,232.18 291.12,232.29 291.45,232.40 291.78,232.51 292.11,232.61 292.44,232.72 292.77,232.82 293.10,232.92 293.43,233.02 293.76,233.12 294.09,233.22 294.42,233.31 294.75,233.41 295.08,233.50 295.41,233.60 295.74,233.69 296.07,233.78 296.40,233.87 296.73,233.96 297.06,234.05 297.39,234.13 297.72,234.22 298.05,234.31 298.38,234.39 298.71,234.47 299.04,234.56 299.37,234.64 299.70,234.72 300.03,234.80 300.36,234.88 300.69,234.95 301.02,235.03 301.35,235.11 301.68,235.18 302.01,235.26 302.34,235.33 302.67,235.41 303.00,235.48 303.33,235.55 303.66,235.62 303.99,235.69 304.32,235.76 304.65,235.83 304.98,235.90 305.32,235.97 305.65,236.04 305.98,236.11 306.31,236.17 306.64,236.24 306.97,236.30 307.30,236.37 307.63,236.43 307.96,236.50 308.29,236.56 308.62,236.62 308.95,236.69 309.28,236.75 309.61,236.81 309.94,236.87 310.27,236.93 310.60,236.99 310.93,237.06 311.26,237.12 311.59,237.18 311.92,237.24 312.25,237.30 312.58,237.35 312.91,237.41 313.24,237.47 313.57,237.53 313.90,237.59 314.23,237.65 314.56,237.71 314.89,237.77 315.22,237.82 315.55,237.88 315.88,237.94 316.21,238.00 316.54,238.06 316.87,238.12 317.20,238.17 317.53,238.23 317.86,238.29 318.19,238.35 318.52,238.41 318.85,238.47 319.18,238.53 319.51,238.59 319.84,238.64 320.17,238.70 320.50,238.76 320.83,238.83 321.16,238.89 321.49,238.95 321.82,239.01 322.15,239.07 322.48,239.13 322.81,239.20 323.14,239.26 323.47,239.32 323.80,239.39 324.13,239.45 324.46,239.52 324.79,239.58 325.12,239.65 325.45,239.72 325.78,239.79 326.11,239.86 326.44,239.93 326.77,240.00 327.11,240.07 327.44,240.14 327.77,240.21 328.10,240.29 328.43,240.36 328.76,240.44 329.09,240.52 329.42,240.60 329.75,240.68 330.08,240.76 330.41,240.84 330.74,240.93 331.07,241.01 331.40,241.10 331.73,241.18 332.06,241.27 332.39,241.37 332.72,241.46 333.05,241.55 333.38,241.65 333.71,241.74 334.04,241.84 334.37,241.95 334.70,242.05 335.03,242.15 335.36,242.26 335.69,242.37 336.02,242.48 336.35,242.59 336.68,242.71 337.01,242.82 337.34,242.94 337.67,243.07 338.00,243.19 338.33,243.32 338.66,243.45 338.99,243.58 339.32,243.71 339.65,243.85 339.98,243.99 340.31,244.13 340.64,244.28 340.97,244.43 341.30,244.58 341.63,244.73 341.96,244.89 342.29,245.05 342.62,245.22 342.95,245.38 343.28,245.56 343.61,245.73 343.94,245.91 344.27,246.09 344.60,246.28 344.93,246.47 345.26,246.66 345.59,246.86 345.92,247.06 346.25,247.26 346.58,247.47 346.91,247.68 347.24,247.90 347.57,248.12 347.90,248.35 348.23,248.58 348.56,248.81 348.89,249.05 349.23,249.30 349.56,249.55 349.89,249.80 350.22,250.06 350.55,250.32 350.88,250.59 351.21,250.86 351.54,251.14 351.87,251.42 352.20,251.71 352.53,252.01 352.86,252.30 353.19,252.61 353.52,252.92 353.85,253.23 354.18,253.55 354.51,253.88 354.84,254.21 355.17,254.54 355.50,254.89 355.83,255.23 356.16,255.59 356.49,255.95 356.82,256.31 357.15,256.68 357.48,257.05 357.81,257.44 358.14,257.82 358.47,258.22 358.80,258.61 359.13,259.02 359.46,259.43 359.79,259.84 360.12,260.26 360.45,260.69 360.78,261.12 361.11,261.56 361.44,262.00 361.77,262.45 362.10,262.91 362.43,263.36 362.76,263.83 363.09,264.30 363.42,264.78 363.75,265.26 364.08,265.74 364.41,266.23 364.74,266.73 365.07,267.23 365.40,267.74 365.73,268.25 366.06,268.76 366.39,269.28 366.72,269.81 367.05,270.34 367.38,270.87 367.71,271.41 368.04,271.95 368.37,272.50 368.70,273.05 369.03,273.60 369.36,274.16 369.69,274.72 370.02,275.29 370.35,275.86 370.68,276.43 371.02,277.00 371.35,277.58 371.68,278.16 372.01,278.75 372.34,279.33 372.67,279.92 373.00,280.51 373.33,281.11 373.66,281.70 373.99,282.30 374.32,282.90 374.65,283.50 374.98,284.11 375.31,284.71 375.64,285.32 375.97,285.93 376.30,286.54 376.63,287.15 376.96,287.76 377.29,288.37 377.62,288.98 377.95,289.59 378.28,290.21 378.61,290.82 378.94,291.43 379.27,292.05 379.60,292.66 379.93,293.27 380.26,293.88 380.59,294.50 380.92,295.11 381.25,295.72 381.58,296.33 381.91,296.94 382.24,297.54 382.57,298.15 382.90,298.76 383.23,299.36 383.56,299.96 383.89,300.56 384.22,301.16 384.55,301.76 384.88,302.35 385.21,302.95 385.54,303.54 385.87,304.13 386.20,304.71 386.53,305.30 386.86,305.88 387.19,306.46 387.52,307.04 387.85,307.61 388.18,308.18 388.51,308.75 388.84,309.32 389.17,309.88 389.50,310.44 389.83,311.00 390.16,311.55 390.49,312.11 390.82,312.65 391.15,313.20 391.48,313.74 391.81,314.28 392.14,314.81 392.47,315.34 392.80,315.87 393.14,316.40 393.47,316.92 393.80,317.44 394.13,317.95 394.46,318.46 394.79,318.97 395.12,319.47 395.45,319.97 395.78,320.46 396.11,320.95 396.44,321.44 396.77,321.93 397.10,322.41 397.43,322.88 397.76,323.36 398.09,323.83 398.42,324.29 398.75,324.75 399.08,325.21 399.41,325.66 399.74,326.11 400.07,326.56 400.40,327.00 400.73,327.44 401.06,327.87 401.39,328.30 401.72,328.73 402.05,329.15 402.38,329.57 402.71,329.99 403.04,330.40 403.37,330.80 403.70,331.21 404.03,331.61 404.36,332.00 404.69,332.40 405.02,332.78 405.35,333.17 405.68,333.55 406.01,333.93 406.34,334.30 406.67,334.67 407.00,335.03 407.33,335.40 407.66,335.75 407.99,336.11 408.32,336.46 408.65,336.81 408.98,337.15 409.31,337.49 409.64,337.83 409.97,338.16 410.30,338.49 410.63,338.82 410.96,339.14 411.29,339.46 411.62,339.78 411.95,340.09 412.28,340.40 412.61,340.70 412.94,341.01 413.27,341.31 413.60,341.60 413.93,341.90 414.26,342.18 414.59,342.47 414.92,342.75 415.26,343.03 415.59,343.31 415.92,343.58 416.25,343.86 416.58,344.12 416.91,344.39 417.24,344.65 417.57,344.91 417.90,345.16 418.23,345.42 418.56,345.67 418.89,345.91 419.22,346.16 419.55,346.40 419.88,346.64 420.21,346.87 420.54,347.10 420.87,347.34 421.20,347.56 421.53,347.79 421.86,348.01 422.19,348.23 422.52,348.45 422.85,348.66 423.18,348.87 423.51,349.08 423.84,349.29 424.17,349.49 424.50,349.69 424.83,349.89 425.16,350.09 425.49,350.29 425.82,350.48 426.15,350.67 426.48,350.86 426.81,351.04 427.14,351.23 427.47,351.41 427.80,351.59 428.13,351.76 428.46,351.94 428.79,352.11 429.12,352.28 429.45,352.45 429.78,352.61 430.11,352.78 430.44,352.94 430.77,353.10 431.10,353.26 431.43,353.41 431.76,353.57 432.09,353.72 432.42,353.87 432.75,354.02 433.08,354.16 433.41,354.31 433.74,354.45 434.07,354.59 434.40,354.73 434.73,354.87 435.06,355.01 435.39,355.14 435.72,355.27 436.05,355.40 436.38,355.53 436.71,355.66 437.05,355.79 437.38,355.91 437.71,356.03 438.04,356.15 438.37,356.27 438.70,356.39 439.03,356.51 439.36,356.62 439.69,356.74 440.02,356.85 440.35,356.96 440.68,357.07 441.01,357.18 441.34,357.29 441.67,357.39 442.00,357.49 442.33,357.60 442.66,357.70 442.99,357.80 443.32,357.90 443.65,357.99 443.98,358.09 444.31,358.18 444.64,358.28 444.97,358.37 445.30,358.46 445.63,358.55 445.96,358.64 446.29,358.73 446.62,358.81 446.95,358.90 447.28,358.98 447.61,359.07 447.94,359.15 448.27,359.23 448.60,359.31 448.93,359.39 449.26,359.46 449.59,359.54 449.92,359.61 450.25,359.69 450.58,359.76 450.91,359.83 451.24,359.91 451.57,359.98 451.90,360.05 452.23,360.11 452.56,360.18 452.89,360.25 453.22,360.31 453.55,360.38 453.88,360.44 454.21,360.51 454.54,360.57 454.87,360.63 455.20,360.69 455.53,360.75 455.86,360.81 456.19,360.87 456.52,360.93 456.85,360.98 457.18,361.04 457.51,361.09 457.84,361.15 458.17,361.20 458.50,361.25 458.83,361.31 459.17,361.36 459.50,361.41 459.83,361.46 460.16,361.51 460.49,361.56 460.82,361.60 461.15,361.65 461.48,361.70 461.81,361.75 462.14,361.79 462.47,361.84 462.80,361.88 463.13,361.92 463.46,361.97 463.79,362.01 464.12,362.05 464.45,362.09 464.78,362.13 465.11,362.17 465.44,362.21 465.77,362.25 466.10,362.29 466.43,362.33 466.76,362.37 467.09,362.41 467.42,362.44 467.75,362.48 468.08,362.51 468.41,362.55 468.74,362.58 469.07,362.62 469.40,362.65 469.73,362.69 470.06,362.72 470.39,362.75 470.72,362.78 471.05,362.81 471.38,362.85 471.71,362.88 472.04,362.91 472.37,362.94 472.70,362.97 473.03,363.00 473.36,363.02 473.69,363.05 474.02,363.08 474.35,363.11 474.68,363.13 475.01,363.16 475.34,363.19 475.67,363.21 476.00,363.24 476.33,363.26 476.66,363.29 476.99,363.31 477.32,363.34 477.65,363.36 477.98,363.38 478.31,363.40 478.64,363.43 478.97,363.45 479.30,363.47 479.63,363.49 479.96,363.51 480.29,363.53 480.62,363.55 480.95,363.57 481.29,363.59 481.62,363.60 481.95,363.62 482.28,363.64 482.61,363.66 482.94,363.67 483.27,363.69 483.60,363.71 483.93,363.72 484.26,363.74 484.59,363.75 484.92,363.76 485.25,363.78 485.58,363.79 485.91,363.80 486.24,363.82 486.57,363.83 486.90,363.84 487.23,363.85 487.56,363.86 487.89,363.87 488.22,363.88 488.55,363.89 488.88,363.90 489.21,363.91 489.54,363.92 489.87,363.93 490.20,363.94 490.53,363.94 490.86,363.95 491.19,363.96 491.52,363.96 491.85,363.97 492.18,363.97 492.51,363.98 492.84,363.98 493.17,363.99 493.50,363.99 493.83,363.99 494.16,364.00 494.49,364.00 494.82,364.00 495.15,364.00 495.48,364.00 495.81,364.00 496.14,364.00 496.47,364.00 496.80,364.00 497.13,363.99 497.46,363.99 497.79,363.99 498.12,363.98 498.45,363.98 498.78,363.97 499.11,363.97 499.44,363.96 499.77,363.96 500.10,363.95 500.43,363.94 500.76,363.93 501.09,363.92 501.42,363.91 501.75,363.90 502.08,363.89 502.41,363.88 502.74,363.87 503.08,363.85 503.41,363.84 503.74,363.82 504.07,363.81 504.40,363.79 504.73,363.77 505.06,363.75 505.39,363.73 505.72,363.71 506.05,363.69 506.38,363.67 506.71,363.65 507.04,363.63 507.37,363.60 507.70,363.58 508.03,363.55 508.36,363.52 508.69,363.49 509.02,363.46 509.35,363.43 509.68,363.40 510.01,363.37 510.34,363.33 510.67,363.30 511.00,363.26 511.33,363.22 511.66,363.18 511.99,363.14 512.32,363.10 512.65,363.06 512.98,363.01 513.31,362.96 513.64,362.92 513.97,362.87 514.30,362.82 514.63,362.76 514.96,362.71 515.29,362.65 515.62,362.60 515.95,362.54 516.28,362.47 516.61,362.41 516.94,362.35 517.27,362.28 517.60,362.21 517.93,362.14 518.26,362.07 518.59,361.99 518.92,361.92 519.25,361.84 519.58,361.75 519.91,361.67 520.24,361.58 520.57,361.50 520.90,361.40 521.23,361.31 521.56,361.21 521.89,361.11 522.22,361.01 522.55,360.91 522.88,360.80 523.21,360.69 523.54,360.58 523.87,360.46 524.20,360.34 524.53,360.22 524.86,360.09 525.20,359.96 525.53,359.83 525.86,359.70 526.19,359.56 526.52,359.41 526.85,359.27 527.18,359.11 527.51,358.96 527.84,358.80 528.17,358.64 528.50,358.47 528.83,358.30 529.16,358.13 529.49,357.95 529.82,357.76 530.15,357.58 530.48,357.38 530.81,357.19 531.14,356.98 531.47,356.78 531.80,356.56 532.13,356.35 532.46,356.13 532.79,355.90 533.12,355.67 533.45,355.43 533.78,355.18 534.11,354.93 534.44,354.68 534.77,354.42 535.10,354.15 535.43,353.88 535.76,353.60 536.09,353.32 536.42,353.03 536.75,352.73 537.08,352.43 537.41,352.12 537.74,351.80 538.07,351.48 538.40,351.15 538.73,350.81 539.06,350.46 539.39,350.11 539.72,349.76 540.05,349.39 540.38,349.02 540.71,348.64 541.04,348.25 541.37,347.86 541.70,347.46 542.03,347.05 542.36,346.63 542.69,346.21 543.02,345.77 543.35,345.33 543.68,344.88 544.01,344.43 544.34,343.96 544.67,343.49 545.00,343.01 545.33,342.53 545.66,342.03 545.99,341.52 546.32,341.01 546.65,340.49 546.98,339.96 547.32,339.43 547.65,338.88 547.98,338.33 548.31,337.77 548.64,337.20 548.97,336.62 549.30,336.04 549.63,335.44 549.96,334.84 550.29,334.23 550.62,333.62 550.95,332.99 551.28,332.36 551.61,331.72 551.94,331.07 552.27,330.41 552.60,329.75 552.93,329.08 553.26,328.40 553.59,327.72 553.92,327.02 554.25,326.32 554.58,325.62 554.91,324.90 555.24,324.18 555.57,323.46 555.90,322.72 556.23,321.98 556.56,321.24 556.89,320.49 557.22,319.73 557.55,318.96 557.88,318.19 558.21,317.42 558.54,316.64 558.87,315.85 559.20,315.06 559.53,314.27 559.86,313.47 560.19,312.66 560.52,311.85 560.85,311.04 561.18,310.22 561.51,309.40 561.84,308.58 562.17,307.75 562.50,306.92 562.83,306.08 563.16,305.25 563.49,304.41 563.82,303.57 564.15,302.72 564.48,301.87 564.81,301.02 565.14,300.17 565.47,299.32 565.80,298.47 566.13,297.61 566.46,296.76 566.79,295.90 567.12,295.04 567.45,294.19 567.78,293.33 568.11,292.47 568.44,291.61 568.77,290.75 569.11,289.89 569.44,289.04 569.77,288.18 570.10,287.33 570.43,286.47 570.76,285.62 571.09,284.77 571.42,283.92 571.75,283.07 572.08,282.22 572.41,281.38 572.74,280.53 573.07,279.69 573.40,278.85 573.73,278.02 574.06,277.19 574.39,276.36 574.72,275.53 575.05,274.70 575.38,273.88 575.71,273.07 576.04,272.25 576.37,271.44 576.70,270.63 577.03,269.83 577.36,269.03 577.69,268.23 578.02,267.44 578.35,266.65 578.68,265.87 579.01,265.09 579.34,264.31 579.67,263.54 580.00,262.78 580.33,262.02 580.66,261.26 580.99,260.51 581.32,259.76 581.65,259.01 581.98,258.28 582.31,257.54 582.64,256.81 582.97,256.09 583.30,255.37 583.63,254.66 583.96,253.95 584.29,253.25 584.62,252.55 584.95,251.86 585.28,251.17 585.61,250.49 585.94,249.81 586.27,249.14 586.60,248.47 586.93,247.81 587.26,247.16 587.59,246.51 587.92,245.86 588.25,245.22 588.58,244.59 588.91,243.96 589.24,243.34 589.57,242.72 589.90,242.11 590.23,241.50 590.56,240.90 590.89,240.30 591.23,239.71 591.56,239.13 591.89,238.55 592.22,237.97 592.55,237.40 592.88,236.84 593.21,236.28 593.54,235.73 593.87,235.18 594.20,234.64 594.53,234.10 594.86,233.57 595.19,233.04 595.52,232.52 595.85,232.00 596.18,231.49 596.51,230.99 596.84,230.48 597.17,229.99 597.50,229.50 597.83,229.01 598.16,228.53 598.49,228.06 598.82,227.58 599.15,227.12 599.48,226.66 599.81,226.20 600.14,225.75 600.47,225.30 600.80,224.86 601.13,224.43 601.46,223.99 601.79,223.57 602.12,223.14 602.45,222.73 602.78,222.31 603.11,221.90 603.44,221.50 603.77,221.10 604.10,220.70 604.43,220.31 604.76,219.92 605.09,219.54 605.42,219.16 605.75,218.79 606.08,218.42 606.41,218.05 606.74,217.69 607.07,217.34 607.40,216.98 607.73,216.63 608.06,216.29 608.39,215.95 608.72,215.61 609.05,215.28 609.38,214.95 609.71,214.62 610.04,214.30 610.37,213.98 610.70,213.67 611.03,213.36 611.36,213.05 611.69,212.75 612.02,212.45 612.35,212.15 612.68,211.86 613.02,211.57 613.35,211.28 613.68,211.00 614.01,210.72 614.34,210.45 614.67,210.17 615.00,209.91 615.33,209.64 615.66,209.38 615.99,209.12 616.32,208.86 616.65,208.61 616.98,208.36 617.31,208.11 617.64,207.87 617.97,207.63 618.30,207.39 618.63,207.15 618.96,206.92 619.29,206.69 619.62,206.46 619.95,206.24 620.28,206.02 620.61,205.80 620.94,205.58 621.27,205.37 621.60,205.16 621.93,204.95 622.26,204.75 622.59,204.54 622.92,204.34 623.25,204.15 623.58,203.95 623.91,203.76 624.24,203.57 624.57,203.38 624.90,203.19 625.23,203.01 625.56,202.83 625.89,202.65 626.22,202.47 626.55,202.30 626.88,202.12 627.21,201.95 627.54,201.79 627.87,201.62 628.20,201.46 628.53,201.29 628.86,201.13 629.19,200.98 629.52,200.82 629.85,200.67 630.18,200.51 630.51,200.36 630.84,200.22 631.17,200.07 631.50,199.92 631.83,199.78 632.16,199.64 632.49,199.50 632.82,199.36 633.15,199.23 633.48,199.09 633.81,198.96 634.14,198.83 634.47,198.70 634.80,198.57 635.14,198.45 635.47,198.32 635.80,198.20 636.13,198.08 636.46,197.96 636.79,197.84 637.12,197.72 637.45,197.61 637.78,197.49 638.11,197.38 638.44,197.27 638.77,197.16 639.10,197.05 639.43,196.94 639.76,196.84 640.09,196.73 640.42,196.63 640.75,196.53 641.08,196.42 641.41,196.32 641.74,196.23 642.07,196.13 642.40,196.03 642.73,195.94 643.06,195.84 643.39,195.75 643.72,195.66 644.05,195.57 644.38,195.48 644.71,195.39 645.04,195.30 645.37,195.21 645.70,195.13 646.03,195.04 646.36,194.96 646.69,194.87 647.02,194.79 647.35,194.71 647.68,194.63 648.01,194.55 648.34,194.47 648.67,194.39 649.00,194.32 649.33,194.24 649.66,194.16 649.99,194.09 650.32,194.02 650.65,193.94 650.98,193.87 651.31,193.80 651.64,193.73 651.97,193.66 652.30,193.59 652.63,193.52 652.96,193.45 653.29,193.38 653.62,193.31 653.95,193.24 654.28,193.18 654.61,193.11 654.94,193.05 655.27,192.98 655.60,192.92 655.93,192.85 656.26,192.79 656.59,192.73 656.92,192.66 657.26,192.60 657.59,192.54 657.92,192.48 658.25,192.42 658.58,192.36 658.91,192.30 659.24,192.23 659.57,192.17 659.90,192.12 660.23,192.06 660.56,192.00 660.89,191.94 661.22,191.88 661.55,191.82 661.88,191.76 662.21,191.70 662.54,191.64 662.87,191.59 663.20,191.53 663.53,191.47 663.86,191.41 664.19,191.35 664.52,191.29 664.85,191.24 665.18,191.18 665.51,191.12 665.84,191.06 666.17,191.00 666.50,190.94 666.83,190.88 667.16,190.83 667.49,190.77 667.82,190.71 668.15,190.65 668.48,190.59 668.81,190.53 669.14,190.47 669.47,190.40 669.80,190.34 670.13,190.28 670.46,190.22 670.79,190.16 671.12,190.09 671.45,190.03 671.78,189.96 672.11,189.90 672.44,189.83 672.77,189.77 673.10,189.70 673.43,189.63 673.76,189.56 674.09,189.49 674.42,189.42 674.75,189.35 675.08,189.28 675.41,189.21 675.74,189.13 676.07,189.06 676.40,188.98 676.73,188.91 677.06,188.83 677.39,188.75 677.72,188.67 678.05,188.59 678.38,188.51 678.71,188.42 679.05,188.34 679.38,188.25 679.71,188.16 680.04,188.07 680.37,187.98 680.70,187.89 681.03,187.79 681.36,187.70 681.69,187.60 682.02,187.50 682.35,187.40 682.68,187.30 683.01,187.19 683.34,187.08 683.67,186.98 684.00,186.86 684.33,186.75 684.66,186.64 684.99,186.52 685.32,186.40 685.65,186.28 685.98,186.15 686.31,186.02 686.64,185.89 686.97,185.76 687.30,185.63 687.63,185.49 687.96,185.35 688.29,185.21 688.62,185.06 688.95,184.91 689.28,184.76 689.61,184.60 689.94,184.44 690.27,184.28 690.60,184.12 690.93,183.95 691.26,183.78 691.59,183.60 691.92,183.42 692.25,183.24 692.58,183.06 692.91,182.87 693.24,182.67 693.57,182.47 693.90,182.27 694.23,182.07 694.56,181.86 694.89,181.64 695.22,181.43 695.55,181.20 695.88,180.98 696.21,180.75 696.54,180.51 696.87,180.27 697.20,180.02 697.53,179.78 697.86,179.52 698.19,179.26 698.52,179.00 698.85,178.73 699.18,178.46 699.51,178.18 699.84,177.89 700.17,177.60 700.50,177.31 700.83,177.01 701.17,176.71 701.50,176.40 701.83,176.08 702.16,175.76 702.49,175.43 702.82,175.10 703.15,174.76 703.48,174.42 703.81,174.07 704.14,173.72 704.47,173.36 704.80,172.99 705.13,172.62 705.46,172.25 705.79,171.86 706.12,171.48 706.45,171.08 706.78,170.68 707.11,170.28 707.44,169.87 707.77,169.45 708.10,169.03 708.43,168.60 708.76,168.17 709.09,167.73 709.42,167.29 709.75,166.84 710.08,166.38 710.41,165.92 710.74,165.46 711.07,164.99 711.40,164.51 711.73,164.03 712.06,163.54 712.39,163.05 712.72,162.55 713.05,162.05 713.38,161.54 713.71,161.03 714.04,160.52 714.37,160.00 714.70,159.47 715.03,158.94 715.36,158.41 715.69,157.87 716.02,157.32 716.35,156.78 716.68,156.23 717.01,155.67 717.34,155.11 717.67,154.55 718.00,153.99 718.33,153.42 718.66,152.84 718.99,152.27 719.32,151.69 719.65,151.11 719.98,150.52 720.31,149.94 720.64,149.35 720.97,148.75 721.30,148.16 721.63,147.56 721.96,146.97 722.29,146.36 722.62,145.76 722.95,145.16 723.29,144.55 723.62,143.95 723.95,143.34 724.28,142.73 724.61,142.12 724.94,141.51 725.27,140.90 725.60,140.28 725.93,139.67 726.26,139.06 726.59,138.45 726.92,137.83 727.25,137.22 727.58,136.61 727.91,135.99 728.24,135.38 728.57,134.77 728.90,134.16 729.23,133.55 729.56,132.94 729.89,132.33 730.22,131.72 730.55,131.12 730.88,130.51 731.21,129.91 731.54,129.31 731.87,128.70 732.20,128.11 732.53,127.51 732.86,126.91 733.19,126.32 733.52,125.73 733.85,125.14 734.18,124.55 734.51,123.97 734.84,123.39 735.17,122.81 735.50,122.23 735.83,121.66 736.16,121.09 736.49,120.52 736.82,119.95 737.15,119.39 737.48,118.83 737.81,118.27 738.14,117.72 738.47,117.17 738.80,116.62 739.13,116.08 739.46,115.54 739.79,115.00 740.12,114.46 740.45,113.93 740.78,113.41 741.11,112.88 741.44,112.36 741.77,111.85 742.10,111.33 742.43,110.82 742.76,110.32 743.09,109.81 743.42,109.32 743.75,108.82 744.08,108.33 744.41,107.84 744.74,107.36 745.08,106.88 745.41,106.40 745.74,105.93 746.07,105.46 746.40,105.00 746.73,104.54 747.06,104.08 747.39,103.63 747.72,103.18 748.05,102.73 748.38,102.29 748.71,101.85 749.04,101.42 749.37,100.99 749.70,100.56 750.03,100.14 750.36,99.72 750.69,99.31 751.02,98.90 751.35,98.49 751.68,98.09 752.01,97.69 752.34,97.30 752.67,96.90 753.00,96.52 753.33,96.13 753.66,95.75 753.99,95.38 754.32,95.00 754.65,94.64 754.98,94.27 755.31,93.91 755.64,93.55 755.97,93.20 756.30,92.85 756.63,92.50 756.96,92.16 757.29,91.82 757.62,91.48 757.95,91.15 758.28,90.82 758.61,90.49 758.94,90.17 759.27,89.85 759.60,89.53 759.93,89.22 760.26,88.91 760.59,88.61 760.92,88.31 761.25,88.01 761.58,87.71 761.91,87.42 762.24,87.13 762.57,86.85 762.90,86.56 763.23,86.28 763.56,86.01 763.89,85.73 764.22,85.46 764.55,85.20 764.88,84.93 765.21,84.67 765.54,84.41 765.87,84.16 766.20,83.91 766.53,83.66 766.86,83.41 767.20,83.17 767.53,82.93 767.86,82.69 768.19,82.45 768.52,82.22 768.85,81.99 769.18,81.76 769.51,81.54 769.84,81.32 770.17,81.10 770.50,80.88 770.83,80.67 771.16,80.45 771.49,80.25 771.82,80.04 772.15,79.84 772.48,79.63 772.81,79.43 773.14,79.24 773.47,79.04 773.80,78.85 774.13,78.66 774.46,78.47 774.79,78.29 775.12,78.11 775.45,77.93 775.78,77.75 776.11,77.57 776.44,77.40 776.77,77.22 777.10,77.05 777.43,76.89 777.76,76.72 778.09,76.56 778.42,76.40 778.75,76.24 779.08,76.08 779.41,75.92 779.74,75.77 780.07,75.62 780.40,75.47 780.73,75.32 781.06,75.17 781.39,75.03 781.72,74.88 782.05,74.74 782.38,74.60 782.71,74.47 783.04,74.33 783.37,74.20 783.70,74.06 784.03,73.93 784.36,73.80 784.69,73.68 785.02,73.55 785.35,73.43 785.68,73.30 786.01,73.18 786.34,73.06 786.67,72.95 787.00,72.83 787.33,72.71 787.66,72.60 787.99,72.49 788.32,72.38 788.65,72.27 788.98,72.16 789.32,72.05 789.65,71.95 789.98,71.85 790.31,71.74 790.64,71.64 790.97,71.54 791.30,71.44 791.63,71.35 791.96,71.25 792.29,71.16 792.62,71.06 792.95,70.97 793.28,70.88 793.61,70.79 793.94,70.70 794.27,70.61 794.60,70.53 794.93,70.44 795.26,70.36 795.59,70.28 795.92,70.19 796.25,70.11 796.58,70.03 796.91,69.95 797.24,69.88 797.57,69.80 797.90,69.73 798.23,69.65 798.56,69.58 798.89,69.51 799.22,69.43 799.55,69.36 799.88,69.30 800.21,69.23 800.54,69.16 800.87,69.09 801.20,69.03 801.53,68.96 801.86,68.90 802.19,68.83 802.52,68.77 802.85,68.71 803.18,68.65 803.51,68.59 803.84,68.53 804.17,68.47 804.50,68.42 804.83,68.36 805.16,68.30 805.49,68.25 805.82,68.19 806.15,68.14 806.48,68.09 806.81,68.04 807.14,67.98 807.47,67.93 807.80,67.88 808.13,67.83 808.46,67.78 808.79,67.74 809.12,67.69 809.45,67.64 809.78,67.60 810.11,67.55 810.44,67.51 810.77,67.46 811.11,67.42 811.44,67.37 811.77,67.33 812.10,67.29 812.43,67.25 812.76,67.21 813.09,67.17 813.42,67.13 813.75,67.09 814.08,67.05 814.41,67.01 814.74,66.97 815.07,66.94 815.40,66.90 815.73,66.86 816.06,66.83 816.39,66.79 816.72,66.76 817.05,66.72 817.38,66.69 817.71,66.66 818.04,66.62 818.37,66.59 818.70,66.56 819.03,66.53 819.36,66.50 819.69,66.47 820.02,66.43 820.35,66.40 820.68,66.38 821.01,66.35 821.34,66.32 821.67,66.29 822.00,66.26" fill="none" stroke="#2f6f9f" stroke-width="2"/>
<text x="662" y="74" font-family="Arial" font-size="12" fill="#2f6f9f">Simulation</text>
</svg>