<svg xmlns="http://www.w3.org/2000/svg" width="850" height="460" viewBox="0 0 850 460">
<rect width="100%" height="100%" fill="white"/>
<text x="425.0" y="23" text-anchor="middle" font-family="Arial" font-size="15">N=4 short-circuit current at 4 m/s^2: experiment vs simulation</text>
<line x1="96" y1="394" x2="822" y2="394" stroke="#333"/>
<line x1="96" y1="34" x2="96" y2="394" stroke="#333"/>
<text x="425.0" y="442" text-anchor="middle" font-family="Arial" font-size="12">Normalized time</text>
<text x="16" y="230.0" text-anchor="middle" transform="rotate(-90 16 230.0)" font-family="Arial" font-size="12">Short-circuit current (uA)</text>
<line x1="96" y1="34.0" x2="822" y2="34.0" stroke="#e1e5ea"/>
<text x="88" y="38.0" text-anchor="end" font-family="Arial" font-size="10">6.91</text>
<line x1="96" y1="106.0" x2="822" y2="106.0" stroke="#e1e5ea"/>
<text x="88" y="110.0" text-anchor="end" font-family="Arial" font-size="10">3.92</text>
<line x1="96" y1="178.0" x2="822" y2="178.0" stroke="#e1e5ea"/>
<text x="88" y="182.0" text-anchor="end" font-family="Arial" font-size="10">0.93</text>
<line x1="96" y1="250.0" x2="822" y2="250.0" stroke="#e1e5ea"/>
<text x="88" y="254.0" text-anchor="end" font-family="Arial" font-size="10">-2.06</text>
<line x1="96" y1="322.0" x2="822" y2="322.0" stroke="#e1e5ea"/>
<text x="88" y="326.0" text-anchor="end" font-family="Arial" font-size="10">-5.05</text>
<line x1="96" y1="394.0" x2="822" y2="394.0" stroke="#e1e5ea"/>
<text x="88" y="398.0" text-anchor="end" font-family="Arial" font-size="10">-8.04</text>
<line x1="96" y1="200.4" x2="822" y2="200.4" stroke="#999" stroke-dasharray="4 4"/>
<polyline points="96.00,194.50 96.33,195.10 96.66,195.70 96.99,196.30 97.32,196.90 97.65,197.49 97.98,198.07 98.31,198.64 98.64,199.20 98.97,199.76 99.30,200.29 99.63,200.82 99.96,201.33 100.29,201.83 100.62,202.32 100.95,202.79 101.28,203.26 101.61,203.71 101.94,204.15 102.27,204.59 102.60,205.03 102.93,205.45 103.26,205.87 103.59,206.29 103.92,206.71 104.25,207.14 104.58,207.57 104.91,208.00 105.24,208.43 105.57,208.88 105.90,209.33 106.23,209.79 106.56,210.27 106.89,210.75 107.23,211.25 107.56,211.76 107.89,212.29 108.22,212.82 108.55,213.36 108.88,213.91 109.21,214.47 109.54,215.02 109.87,215.58 110.20,216.14 110.53,216.69 110.86,217.24 111.19,217.77 111.52,218.29 111.85,218.80 112.18,219.28 112.51,219.75 112.84,220.19 113.17,220.60 113.50,220.99 113.83,221.34 114.16,221.67 114.49,221.96 114.82,222.22 115.15,222.44 115.48,222.64 115.81,222.81 116.14,222.95 116.47,223.06 116.80,223.15 117.13,223.21 117.46,223.26 117.79,223.29 118.12,223.30 118.45,223.31 118.78,223.30 119.11,223.29 119.44,223.27 119.77,223.26 120.10,223.24 120.43,223.23 120.76,223.23 121.09,223.23 121.42,223.25 121.75,223.27 122.08,223.31 122.41,223.36 122.74,223.42 123.07,223.51 123.40,223.60 123.73,223.72 124.06,223.85 124.39,224.00 124.72,224.17 125.05,224.35 125.38,224.56 125.71,224.78 126.04,225.02 126.37,225.28 126.70,225.56 127.03,225.85 127.36,226.16 127.69,226.48 128.02,226.81 128.35,227.15 128.68,227.50 129.02,227.86 129.35,228.22 129.68,228.59 130.01,228.97 130.34,229.35 130.67,229.73 131.00,230.12 131.33,230.52 131.66,230.92 131.99,231.32 132.32,231.73 132.65,232.15 132.98,232.57 133.31,233.00 133.64,233.44 133.97,233.88 134.30,234.33 134.63,234.79 134.96,235.25 135.29,235.73 135.62,236.22 135.95,236.72 136.28,237.24 136.61,237.77 136.94,238.32 137.27,238.89 137.60,239.48 137.93,240.09 138.26,240.72 138.59,241.38 138.92,242.05 139.25,242.75 139.58,243.47 139.91,244.22 140.24,244.99 140.57,245.78 140.90,246.59 141.23,247.42 141.56,248.27 141.89,249.14 142.22,250.02 142.55,250.91 142.88,251.82 143.21,252.74 143.54,253.66 143.87,254.59 144.20,255.53 144.53,256.47 144.86,257.42 145.19,258.38 145.52,259.34 145.85,260.31 146.18,261.28 146.51,262.26 146.84,263.24 147.17,264.22 147.50,265.20 147.83,266.19 148.16,267.18 148.49,268.17 148.82,269.17 149.15,270.17 149.48,271.17 149.81,272.18 150.14,273.20 150.47,274.22 150.80,275.25 151.14,276.29 151.47,277.33 151.80,278.39 152.13,279.45 152.46,280.53 152.79,281.61 153.12,282.71 153.45,283.82 153.78,284.94 154.11,286.08 154.44,287.23 154.77,288.39 155.10,289.57 155.43,290.76 155.76,291.97 156.09,293.20 156.42,294.44 156.75,295.71 157.08,296.99 157.41,298.28 157.74,299.60 158.07,300.94 158.40,302.29 158.73,303.66 159.06,305.05 159.39,306.45 159.72,307.86 160.05,309.29 160.38,310.73 160.71,312.17 161.04,313.62 161.37,315.06 161.70,316.51 162.03,317.94 162.36,319.37 162.69,320.78 163.02,322.17 163.35,323.55 163.68,324.90 164.01,326.23 164.34,327.53 164.67,328.81 165.00,330.07 165.33,331.30 165.66,332.50 165.99,333.68 166.32,334.83 166.65,335.95 166.98,337.05 167.31,338.12 167.64,339.16 167.97,340.18 168.30,341.16 168.63,342.12 168.96,343.05 169.29,343.94 169.62,344.81 169.95,345.65 170.28,346.45 170.61,347.23 170.94,347.98 171.27,348.71 171.60,349.40 171.93,350.08 172.26,350.72 172.59,351.35 172.92,351.96 173.26,352.54 173.59,353.11 173.92,353.66 174.25,354.19 174.58,354.71 174.91,355.22 175.24,355.71 175.57,356.20 175.90,356.67 176.23,357.13 176.56,357.59 176.89,358.03 177.22,358.47 177.55,358.90 177.88,359.32 178.21,359.74 178.54,360.14 178.87,360.53 179.20,360.91 179.53,361.27 179.86,361.62 180.19,361.96 180.52,362.27 180.85,362.57 181.18,362.84 181.51,363.08 181.84,363.30 182.17,363.49 182.50,363.66 182.83,363.79 183.16,363.89 183.49,363.96 183.82,364.00 184.15,364.00 184.48,363.98 184.81,363.92 185.14,363.83 185.47,363.72 185.80,363.58 186.13,363.41 186.46,363.21 186.79,363.00 187.12,362.76 187.45,362.50 187.78,362.23 188.11,361.94 188.44,361.64 188.77,361.32 189.10,360.99 189.43,360.65 189.76,360.30 190.09,359.95 190.42,359.59 190.75,359.23 191.08,358.86 191.41,358.49 191.74,358.12 192.07,357.74 192.40,357.37 192.73,356.99 193.06,356.61 193.39,356.23 193.72,355.84 194.05,355.46 194.38,355.07 194.71,354.68 195.05,354.29 195.38,353.89 195.71,353.49 196.04,353.09 196.37,352.69 196.70,352.28 197.03,351.87 197.36,351.46 197.69,351.05 198.02,350.64 198.35,350.22 198.68,349.81 199.01,349.39 199.34,348.97 199.67,348.54 200.00,348.10 200.33,347.66 200.66,347.20 200.99,346.74 201.32,346.26 201.65,345.77 201.98,345.28 202.31,344.76 202.64,344.24 202.97,343.71 203.30,343.17 203.63,342.63 203.96,342.07 204.29,341.52 204.62,340.96 204.95,340.39 205.28,339.84 205.61,339.28 205.94,338.72 206.27,338.18 206.60,337.64 206.93,337.11 207.26,336.59 207.59,336.08 207.92,335.59 208.25,335.12 208.58,334.66 208.91,334.22 209.24,333.81 209.57,333.41 209.90,333.03 210.23,332.67 210.56,332.33 210.89,332.00 211.22,331.70 211.55,331.41 211.88,331.14 212.21,330.88 212.54,330.64 212.87,330.41 213.20,330.19 213.53,329.98 213.86,329.78 214.19,329.59 214.52,329.40 214.85,329.22 215.18,329.03 215.51,328.85 215.84,328.66 216.17,328.47 216.50,328.28 216.83,328.08 217.17,327.87 217.50,327.66 217.83,327.43 218.16,327.20 218.49,326.96 218.82,326.70 219.15,326.44 219.48,326.15 219.81,325.85 220.14,325.53 220.47,325.19 220.80,324.82 221.13,324.42 221.46,324.00 221.79,323.53 222.12,323.04 222.45,322.51 222.78,321.94 223.11,321.33 223.44,320.67 223.77,319.98 224.10,319.24 224.43,318.46 224.76,317.63 225.09,316.76 225.42,315.85 225.75,314.88 226.08,313.88 226.41,312.82 226.74,311.71 227.07,310.56 227.40,309.35 227.73,308.10 228.06,306.80 228.39,305.44 228.72,304.03 229.05,302.56 229.38,301.03 229.71,299.45 230.04,297.80 230.37,296.08 230.70,294.31 231.03,292.46 231.36,290.54 231.69,288.55 232.02,286.49 232.35,284.36 232.68,282.15 233.01,279.87 233.34,277.51 233.67,275.08 234.00,272.58 234.33,270.01 234.66,267.36 234.99,264.65 235.32,261.87 235.65,259.03 235.98,256.13 236.31,253.18 236.64,250.17 236.97,247.12 237.30,244.02 237.63,240.89 237.96,237.72 238.29,234.54 238.62,231.33 238.95,228.11 239.29,224.89 239.62,221.67 239.95,218.46 240.28,215.26 240.61,212.09 240.94,208.94 241.27,205.84 241.60,202.77 241.93,199.76 242.26,196.80 242.59,193.91 242.92,191.09 243.25,188.35 243.58,185.70 243.91,183.14 244.24,180.69 244.57,178.33 244.90,176.10 245.23,173.98 245.56,171.98 245.89,170.11 246.22,168.37 246.55,166.76 246.88,165.30 247.21,163.96 247.54,162.78 247.87,161.74 248.20,160.84 248.53,160.10 248.86,159.50 249.19,159.05 249.52,158.76 249.85,158.61 250.18,158.61 250.51,158.75 250.84,159.02 251.17,159.43 251.50,159.97 251.83,160.63 252.16,161.42 252.49,162.32 252.82,163.32 253.15,164.42 253.48,165.62 253.81,166.90 254.14,168.26 254.47,169.69 254.80,171.19 255.13,172.74 255.46,174.34 255.79,175.98 256.12,177.66 256.45,179.36 256.78,181.08 257.11,182.81 257.44,184.55 257.77,186.28 258.10,188.00 258.43,189.71 258.76,191.39 259.09,193.03 259.42,194.64 259.75,196.20 260.08,197.71 260.41,199.17 260.74,200.56 261.08,201.89 261.41,203.14 261.74,204.33 262.07,205.44 262.40,206.48 262.73,207.44 263.06,208.33 263.39,209.14 263.72,209.88 264.05,210.54 264.38,211.13 264.71,211.65 265.04,212.10 265.37,212.48 265.70,212.80 266.03,213.05 266.36,213.25 266.69,213.39 267.02,213.48 267.35,213.53 267.68,213.53 268.01,213.50 268.34,213.44 268.67,213.36 269.00,213.26 269.33,213.14 269.66,213.01 269.99,212.88 270.32,212.74 270.65,212.61 270.98,212.49 271.31,212.38 271.64,212.28 271.97,212.20 272.30,212.15 272.63,212.12 272.96,212.12 273.29,212.14 273.62,212.20 273.95,212.30 274.28,212.43 274.61,212.61 274.94,212.82 275.27,213.08 275.60,213.39 275.93,213.74 276.26,214.14 276.59,214.58 276.92,215.08 277.25,215.63 277.58,216.23 277.91,216.88 278.24,217.59 278.57,218.35 278.90,219.17 279.23,220.04 279.56,220.96 279.89,221.94 280.22,222.97 280.55,224.05 280.88,225.18 281.21,226.36 281.54,227.60 281.87,228.89 282.20,230.22 282.53,231.61 282.86,233.04 283.20,234.52 283.53,236.06 283.86,237.63 284.19,239.25 284.52,240.92 284.85,242.63 285.18,244.37 285.51,246.16 285.84,247.98 286.17,249.84 286.50,251.73 286.83,253.64 287.16,255.58 287.49,257.55 287.82,259.53 288.15,261.54 288.48,263.57 288.81,265.61 289.14,267.66 289.47,269.73 289.80,271.81 290.13,273.88 290.46,275.96 290.79,278.03 291.12,280.10 291.45,282.14 291.78,284.17 292.11,286.17 292.44,288.14 292.77,290.07 293.10,291.96 293.43,293.79 293.76,295.57 294.09,297.28 294.42,298.92 294.75,300.48 295.08,301.96 295.41,303.35 295.74,304.64 296.07,305.84 296.40,306.93 296.73,307.91 297.06,308.77 297.39,309.52 297.72,310.14 298.05,310.65 298.38,311.02 298.71,311.28 299.04,311.40 299.37,311.40 299.70,311.27 300.03,311.01 300.36,310.62 300.69,310.11 301.02,309.47 301.35,308.71 301.68,307.84 302.01,306.85 302.34,305.75 302.67,304.56 303.00,303.25 303.33,301.86 303.66,300.39 303.99,298.83 304.32,297.20 304.65,295.50 304.98,293.73 305.32,291.92 305.65,290.06 305.98,288.15 306.31,286.21 306.64,284.24 306.97,282.25 307.30,280.25 307.63,278.23 307.96,276.22 308.29,274.21 308.62,272.22 308.95,270.25 309.28,268.30 309.61,266.38 309.94,264.50 310.27,262.66 310.60,260.86 310.93,259.10 311.26,257.40 311.59,255.75 311.92,254.15 312.25,252.60 312.58,251.11 312.91,249.68 313.24,248.31 313.57,246.99 313.90,245.73 314.23,244.54 314.56,243.40 314.89,242.32 315.22,241.30 315.55,240.33 315.88,239.43 316.21,238.58 316.54,237.79 316.87,237.06 317.20,236.38 317.53,235.76 317.86,235.20 318.19,234.68 318.52,234.22 318.85,233.81 319.18,233.44 319.51,233.12 319.84,232.85 320.17,232.61 320.50,232.41 320.83,232.25 321.16,232.12 321.49,232.03 321.82,231.97 322.15,231.94 322.48,231.94 322.81,231.96 323.14,232.02 323.47,232.10 323.80,232.21 324.13,232.34 324.46,232.50 324.79,232.69 325.12,232.90 325.45,233.13 325.78,233.38 326.11,233.65 326.44,233.95 326.77,234.26 327.11,234.60 327.44,234.95 327.77,235.32 328.10,235.71 328.43,236.12 328.76,236.55 329.09,236.99 329.42,237.46 329.75,237.94 330.08,238.45 330.41,238.97 330.74,239.50 331.07,240.05 331.40,240.61 331.73,241.17 332.06,241.75 332.39,242.33 332.72,242.91 333.05,243.50 333.38,244.08 333.71,244.65 334.04,245.22 334.37,245.79 334.70,246.34 335.03,246.88 335.36,247.40 335.69,247.91 336.02,248.40 336.35,248.87 336.68,249.33 337.01,249.76 337.34,250.18 337.67,250.57 338.00,250.95 338.33,251.30 338.66,251.63 338.99,251.94 339.32,252.23 339.65,252.49 339.98,252.73 340.31,252.94 340.64,253.12 340.97,253.28 341.30,253.41 341.63,253.51 341.96,253.58 342.29,253.63 342.62,253.64 342.95,253.64 343.28,253.60 343.61,253.55 343.94,253.47 344.27,253.36 344.60,253.24 344.93,253.10 345.26,252.94 345.59,252.76 345.92,252.56 346.25,252.35 346.58,252.12 346.91,251.88 347.24,251.62 347.57,251.34 347.90,251.05 348.23,250.75 348.56,250.44 348.89,250.12 349.23,249.79 349.56,249.46 349.89,249.11 350.22,248.76 350.55,248.40 350.88,248.04 351.21,247.68 351.54,247.31 351.87,246.93 352.20,246.55 352.53,246.17 352.86,245.79 353.19,245.40 353.52,245.01 353.85,244.61 354.18,244.21 354.51,243.82 354.84,243.42 355.17,243.01 355.50,242.61 355.83,242.21 356.16,241.80 356.49,241.40 356.82,241.00 357.15,240.60 357.48,240.20 357.81,239.81 358.14,239.42 358.47,239.04 358.80,238.66 359.13,238.28 359.46,237.91 359.79,237.54 360.12,237.17 360.45,236.80 360.78,236.43 361.11,236.06 361.44,235.70 361.77,235.33 362.10,234.97 362.43,234.61 362.76,234.26 363.09,233.91 363.42,233.57 363.75,233.24 364.08,232.92 364.41,232.60 364.74,232.30 365.07,232.01 365.40,231.73 365.73,231.47 366.06,231.22 366.39,230.98 366.72,230.76 367.05,230.56 367.38,230.37 367.71,230.19 368.04,230.03 368.37,229.90 368.70,229.78 369.03,229.68 369.36,229.60 369.69,229.55 370.02,229.51 370.35,229.50 370.68,229.51 371.02,229.54 371.35,229.59 371.68,229.65 372.01,229.74 372.34,229.84 372.67,229.95 373.00,230.08 373.33,230.22 373.66,230.37 373.99,230.53 374.32,230.70 374.65,230.88 374.98,231.07 375.31,231.26 375.64,231.46 375.97,231.66 376.30,231.87 376.63,232.08 376.96,232.30 377.29,232.52 377.62,232.74 377.95,232.97 378.28,233.20 378.61,233.43 378.94,233.66 379.27,233.88 379.60,234.11 379.93,234.33 380.26,234.55 380.59,234.76 380.92,234.97 381.25,235.17 381.58,235.36 381.91,235.54 382.24,235.72 382.57,235.89 382.90,236.06 383.23,236.22 383.56,236.37 383.89,236.52 384.22,236.67 384.55,236.81 384.88,236.95 385.21,237.10 385.54,237.24 385.87,237.38 386.20,237.53 386.53,237.67 386.86,237.82 387.19,237.97 387.52,238.13 387.85,238.29 388.18,238.46 388.51,238.63 388.84,238.82 389.17,239.03 389.50,239.24 389.83,239.47 390.16,239.71 390.49,239.97 390.82,240.25 391.15,240.54 391.48,240.84 391.81,241.16 392.14,241.49 392.47,241.84 392.80,242.20 393.14,242.57 393.47,242.96 393.80,243.35 394.13,243.76 394.46,244.17 394.79,244.59 395.12,245.02 395.45,245.46 395.78,245.89 396.11,246.33 396.44,246.77 396.77,247.22 397.10,247.66 397.43,248.09 397.76,248.53 398.09,248.96 398.42,249.39 398.75,249.81 399.08,250.23 399.41,250.65 399.74,251.05 400.07,251.45 400.40,251.84 400.73,252.21 401.06,252.57 401.39,252.92 401.72,253.26 402.05,253.57 402.38,253.88 402.71,254.16 403.04,254.43 403.37,254.69 403.70,254.93 404.03,255.15 404.36,255.37 404.69,255.56 405.02,255.75 405.35,255.92 405.68,256.08 406.01,256.23 406.34,256.38 406.67,256.51 407.00,256.64 407.33,256.76 407.66,256.88 407.99,257.00 408.32,257.12 408.65,257.25 408.98,257.38 409.31,257.52 409.64,257.68 409.97,257.84 410.30,258.01 410.63,258.19 410.96,258.39 411.29,258.60 411.62,258.82 411.95,259.05 412.28,259.29 412.61,259.54 412.94,259.80 413.27,260.07 413.60,260.35 413.93,260.64 414.26,260.94 414.59,261.24 414.92,261.55 415.26,261.86 415.59,262.18 415.92,262.50 416.25,262.82 416.58,263.15 416.91,263.48 417.24,263.81 417.57,264.14 417.90,264.48 418.23,264.82 418.56,265.16 418.89,265.51 419.22,265.87 419.55,266.22 419.88,266.58 420.21,266.95 420.54,267.31 420.87,267.68 421.20,268.05 421.53,268.43 421.86,268.80 422.19,269.17 422.52,269.54 422.85,269.91 423.18,270.28 423.51,270.66 423.84,271.03 424.17,271.40 424.50,271.77 424.83,272.14 425.16,272.52 425.49,272.89 425.82,273.27 426.15,273.65 426.48,274.03 426.81,274.41 427.14,274.80 427.47,275.19 427.80,275.58 428.13,275.99 428.46,276.40 428.79,276.82 429.12,277.26 429.45,277.71 429.78,278.17 430.11,278.64 430.44,279.12 430.77,279.62 431.10,280.13 431.43,280.65 431.76,281.18 432.09,281.72 432.42,282.27 432.75,282.83 433.08,283.40 433.41,283.97 433.74,284.54 434.07,285.11 434.40,285.68 434.73,286.25 435.06,286.80 435.39,287.35 435.72,287.89 436.05,288.42 436.38,288.93 436.71,289.42 437.05,289.90 437.38,290.36 437.71,290.80 438.04,291.21 438.37,291.60 438.70,291.96 439.03,292.30 439.36,292.60 439.69,292.88 440.02,293.12 440.35,293.32 440.68,293.49 441.01,293.62 441.34,293.71 441.67,293.76 442.00,293.76 442.33,293.72 442.66,293.64 442.99,293.52 443.32,293.35 443.65,293.14 443.98,292.89 444.31,292.61 444.64,292.29 444.97,291.94 445.30,291.56 445.63,291.16 445.96,290.73 446.29,290.29 446.62,289.82 446.95,289.34 447.28,288.85 447.61,288.33 447.94,287.81 448.27,287.27 448.60,286.73 448.93,286.18 449.26,285.63 449.59,285.07 449.92,284.51 450.25,283.95 450.58,283.38 450.91,282.81 451.24,282.24 451.57,281.67 451.90,281.10 452.23,280.53 452.56,279.97 452.89,279.42 453.22,278.87 453.55,278.34 453.88,277.83 454.21,277.33 454.54,276.85 454.87,276.38 455.20,275.94 455.53,275.53 455.86,275.13 456.19,274.77 456.52,274.44 456.85,274.13 457.18,273.87 457.51,273.64 457.84,273.45 458.17,273.30 458.50,273.19 458.83,273.13 459.17,273.11 459.50,273.13 459.83,273.21 460.16,273.33 460.49,273.50 460.82,273.72 461.15,273.98 461.48,274.28 461.81,274.62 462.14,275.00 462.47,275.41 462.80,275.85 463.13,276.31 463.46,276.80 463.79,277.30 464.12,277.82 464.45,278.35 464.78,278.89 465.11,279.44 465.44,280.00 465.77,280.55 466.10,281.11 466.43,281.65 466.76,282.20 467.09,282.72 467.42,283.24 467.75,283.74 468.08,284.22 468.41,284.67 468.74,285.11 469.07,285.51 469.40,285.90 469.73,286.26 470.06,286.59 470.39,286.90 470.72,287.18 471.05,287.43 471.38,287.66 471.71,287.85 472.04,288.02 472.37,288.16 472.70,288.26 473.03,288.34 473.36,288.39 473.69,288.41 474.02,288.40 474.35,288.36 474.68,288.28 475.01,288.18 475.34,288.05 475.67,287.89 476.00,287.70 476.33,287.49 476.66,287.25 476.99,287.00 477.32,286.74 477.65,286.46 477.98,286.17 478.31,285.87 478.64,285.57 478.97,285.27 479.30,284.96 479.63,284.65 479.96,284.35 480.29,284.05 480.62,283.76 480.95,283.47 481.29,283.19 481.62,282.92 481.95,282.66 482.28,282.41 482.61,282.17 482.94,281.95 483.27,281.73 483.60,281.53 483.93,281.33 484.26,281.16 484.59,280.99 484.92,280.85 485.25,280.72 485.58,280.60 485.91,280.51 486.24,280.43 486.57,280.37 486.90,280.32 487.23,280.29 487.56,280.27 487.89,280.27 488.22,280.28 488.55,280.30 488.88,280.32 489.21,280.36 489.54,280.40 489.87,280.44 490.20,280.49 490.53,280.53 490.86,280.57 491.19,280.59 491.52,280.60 491.85,280.60 492.18,280.57 492.51,280.52 492.84,280.44 493.17,280.32 493.50,280.17 493.83,279.98 494.16,279.75 494.49,279.47 494.82,279.15 495.15,278.78 495.48,278.37 495.81,277.91 496.14,277.42 496.47,276.88 496.80,276.31 497.13,275.71 497.46,275.07 497.79,274.40 498.12,273.70 498.45,272.98 498.78,272.24 499.11,271.48 499.44,270.70 499.77,269.91 500.10,269.11 500.43,268.29 500.76,267.47 501.09,266.65 501.42,265.83 501.75,265.01 502.08,264.20 502.41,263.40 502.74,262.60 503.08,261.82 503.41,261.06 503.74,260.30 504.07,259.57 504.40,258.86 504.73,258.16 505.06,257.49 505.39,256.84 505.72,256.21 506.05,255.61 506.38,255.04 506.71,254.50 507.04,253.98 507.37,253.49 507.70,253.03 508.03,252.60 508.36,252.19 508.69,251.81 509.02,251.46 509.35,251.12 509.68,250.82 510.01,250.53 510.34,250.25 510.67,250.00 511.00,249.76 511.33,249.52 511.66,249.30 511.99,249.09 512.32,248.88 512.65,248.68 512.98,248.49 513.31,248.29 513.64,248.10 513.97,247.92 514.30,247.73 514.63,247.53 514.96,247.34 515.29,247.15 515.62,246.95 515.95,246.74 516.28,246.54 516.61,246.33 516.94,246.12 517.27,245.91 517.60,245.69 517.93,245.48 518.26,245.27 518.59,245.06 518.92,244.86 519.25,244.66 519.58,244.46 519.91,244.27 520.24,244.08 520.57,243.90 520.90,243.74 521.23,243.58 521.56,243.43 521.89,243.30 522.22,243.17 522.55,243.06 522.88,242.96 523.21,242.86 523.54,242.77 523.87,242.69 524.20,242.62 524.53,242.55 524.86,242.48 525.20,242.42 525.53,242.36 525.86,242.30 526.19,242.24 526.52,242.18 526.85,242.12 527.18,242.06 527.51,242.00 527.84,241.93 528.17,241.87 528.50,241.81 528.83,241.74 529.16,241.67 529.49,241.60 529.82,241.53 530.15,241.46 530.48,241.38 530.81,241.30 531.14,241.21 531.47,241.12 531.80,241.02 532.13,240.91 532.46,240.80 532.79,240.68 533.12,240.56 533.45,240.42 533.78,240.28 534.11,240.12 534.44,239.96 534.77,239.79 535.10,239.61 535.43,239.43 535.76,239.23 536.09,239.03 536.42,238.83 536.75,238.61 537.08,238.39 537.41,238.17 537.74,237.95 538.07,237.72 538.40,237.49 538.73,237.26 539.06,237.03 539.39,236.80 539.72,236.56 540.05,236.33 540.38,236.10 540.71,235.87 541.04,235.64 541.37,235.41 541.70,235.19 542.03,234.96 542.36,234.74 542.69,234.52 543.02,234.29 543.35,234.06 543.68,233.82 544.01,233.58 544.34,233.33 544.67,233.07 545.00,232.81 545.33,232.53 545.66,232.24 545.99,231.95 546.32,231.65 546.65,231.34 546.98,231.02 547.32,230.69 547.65,230.36 547.98,230.02 548.31,229.68 548.64,229.33 548.97,228.97 549.30,228.61 549.63,228.24 549.96,227.87 550.29,227.49 550.62,227.11 550.95,226.72 551.28,226.33 551.61,225.93 551.94,225.54 552.27,225.13 552.60,224.73 552.93,224.32 553.26,223.91 553.59,223.50 553.92,223.09 554.25,222.67 554.58,222.25 554.91,221.83 555.24,221.40 555.57,220.97 555.90,220.53 556.23,220.09 556.56,219.64 556.89,219.19 557.22,218.72 557.55,218.25 557.88,217.76 558.21,217.27 558.54,216.76 558.87,216.23 559.20,215.70 559.53,215.14 559.86,214.57 560.19,213.98 560.52,213.36 560.85,212.73 561.18,212.07 561.51,211.38 561.84,210.67 562.17,209.92 562.50,209.14 562.83,208.32 563.16,207.46 563.49,206.57 563.82,205.62 564.15,204.63 564.48,203.60 564.81,202.51 565.14,201.37 565.47,200.18 565.80,198.94 566.13,197.65 566.46,196.31 566.79,194.92 567.12,193.49 567.45,192.02 567.78,190.50 568.11,188.95 568.44,187.36 568.77,185.74 569.11,184.09 569.44,182.41 569.77,180.70 570.10,178.97 570.43,177.22 570.76,175.45 571.09,173.66 571.42,171.87 571.75,170.06 572.08,168.24 572.41,166.42 572.74,164.60 573.07,162.79 573.40,160.97 573.73,159.17 574.06,157.38 574.39,155.61 574.72,153.85 575.05,152.12 575.38,150.42 575.71,148.75 576.04,147.12 576.37,145.52 576.70,143.96 577.03,142.44 577.36,140.97 577.69,139.54 578.02,138.16 578.35,136.82 578.68,135.54 579.01,134.29 579.34,133.09 579.67,131.93 580.00,130.80 580.33,129.71 580.66,128.66 580.99,127.63 581.32,126.64 581.65,125.66 581.98,124.71 582.31,123.78 582.64,122.87 582.97,121.97 583.30,121.09 583.63,120.22 583.96,119.35 584.29,118.50 584.62,117.66 584.95,116.82 585.28,115.98 585.61,115.15 585.94,114.32 586.27,113.50 586.60,112.67 586.93,111.84 587.26,111.02 587.59,110.19 587.92,109.35 588.25,108.52 588.58,107.68 588.91,106.84 589.24,106.00 589.57,105.16 589.90,104.32 590.23,103.48 590.56,102.65 590.89,101.83 591.23,101.01 591.56,100.22 591.89,99.44 592.22,98.68 592.55,97.94 592.88,97.24 593.21,96.57 593.54,95.94 593.87,95.35 594.20,94.81 594.53,94.32 594.86,93.89 595.19,93.51 595.52,93.19 595.85,92.92 596.18,92.73 596.51,92.59 596.84,92.52 597.17,92.52 597.50,92.59 597.83,92.73 598.16,92.95 598.49,93.24 598.82,93.59 599.15,94.03 599.48,94.52 599.81,95.09 600.14,95.72 600.47,96.41 600.80,97.16 601.13,97.98 601.46,98.84 601.79,99.76 602.12,100.72 602.45,101.72 602.78,102.77 603.11,103.85 603.44,104.96 603.77,106.09 604.10,107.25 604.43,108.42 604.76,109.60 605.09,110.79 605.42,111.98 605.75,113.16 606.08,114.33 606.41,115.48 606.74,116.62 607.07,117.74 607.40,118.84 607.73,119.91 608.06,120.94 608.39,121.94 608.72,122.91 609.05,123.83 609.38,124.72 609.71,125.55 610.04,126.35 610.37,127.09 610.70,127.78 611.03,128.42 611.36,129.00 611.69,129.53 612.02,130.01 612.35,130.42 612.68,130.78 613.02,131.08 613.35,131.32 613.68,131.50 614.01,131.62 614.34,131.68 614.67,131.69 615.00,131.63 615.33,131.51 615.66,131.34 615.99,131.11 616.32,130.83 616.65,130.49 616.98,130.11 617.31,129.67 617.64,129.19 617.97,128.67 618.30,128.11 618.63,127.51 618.96,126.88 619.29,126.22 619.62,125.53 619.95,124.81 620.28,124.07 620.61,123.31 620.94,122.54 621.27,121.75 621.60,120.95 621.93,120.14 622.26,119.33 622.59,118.51 622.92,117.70 623.25,116.89 623.58,116.09 623.91,115.30 624.24,114.53 624.57,113.76 624.90,113.01 625.23,112.29 625.56,111.59 625.89,110.92 626.22,110.29 626.55,109.69 626.88,109.13 627.21,108.62 627.54,108.15 627.87,107.72 628.20,107.35 628.53,107.03 628.86,106.77 629.19,106.56 629.52,106.41 629.85,106.33 630.18,106.30 630.51,106.34 630.84,106.43 631.17,106.59 631.50,106.81 631.83,107.09 632.16,107.44 632.49,107.84 632.82,108.29 633.15,108.81 633.48,109.38 633.81,109.99 634.14,110.66 634.47,111.37 634.80,112.13 635.14,112.93 635.47,113.77 635.80,114.65 636.13,115.56 636.46,116.51 636.79,117.48 637.12,118.48 637.45,119.51 637.78,120.56 638.11,121.64 638.44,122.73 638.77,123.84 639.10,124.97 639.43,126.12 639.76,127.28 640.09,128.45 640.42,129.64 640.75,130.84 641.08,132.06 641.41,133.28 641.74,134.52 642.07,135.77 642.40,137.04 642.73,138.32 643.06,139.61 643.39,140.92 643.72,142.24 644.05,143.58 644.38,144.93 644.71,146.30 645.04,147.69 645.37,149.10 645.70,150.53 646.03,151.98 646.36,153.46 646.69,154.97 647.02,156.52 647.35,158.11 647.68,159.73 648.01,161.41 648.34,163.13 648.67,164.91 649.00,166.74 649.33,168.64 649.66,170.59 649.99,172.61 650.32,174.70 650.65,176.86 650.98,179.08 651.31,181.38 651.64,183.75 651.97,186.20 652.30,188.71 652.63,191.31 652.96,193.97 653.29,196.70 653.62,199.50 653.95,202.36 654.28,205.29 654.61,208.27 654.94,211.30 655.27,214.39 655.60,217.51 655.93,220.68 656.26,223.87 656.59,227.09 656.92,230.33 657.26,233.59 657.59,236.85 657.92,240.11 658.25,243.37 658.58,246.62 658.91,249.85 659.24,253.06 659.57,256.24 659.90,259.38 660.23,262.48 660.56,265.54 660.89,268.53 661.22,271.47 661.55,274.33 661.88,277.12 662.21,279.83 662.54,282.46 662.87,284.98 663.20,287.41 663.53,289.72 663.86,291.93 664.19,294.01 664.52,295.97 664.85,297.79 665.18,299.49 665.51,301.04 665.84,302.45 666.17,303.72 666.50,304.84 666.83,305.82 667.16,306.66 667.49,307.34 667.82,307.89 668.15,308.29 668.48,308.55 668.81,308.68 669.14,308.67 669.47,308.53 669.80,308.28 670.13,307.89 670.46,307.39 670.79,306.78 671.12,306.06 671.45,305.25 671.78,304.33 672.11,303.33 672.44,302.24 672.77,301.07 673.10,299.83 673.43,298.53 673.76,297.17 674.09,295.75 674.42,294.29 674.75,292.79 675.08,291.26 675.41,289.71 675.74,288.14 676.07,286.56 676.40,284.97 676.73,283.38 677.06,281.81 677.39,280.24 677.72,278.70 678.05,277.18 678.38,275.69 678.71,274.25 679.05,272.84 679.38,271.48 679.71,270.18 680.04,268.93 680.37,267.75 680.70,266.63 681.03,265.57 681.36,264.59 681.69,263.67 682.02,262.84 682.35,262.07 682.68,261.38 683.01,260.76 683.34,260.21 683.67,259.73 684.00,259.33 684.33,258.99 684.66,258.71 684.99,258.49 685.32,258.34 685.65,258.24 685.98,258.20 686.31,258.21 686.64,258.28 686.97,258.39 687.30,258.55 687.63,258.76 687.96,259.01 688.29,259.29 688.62,259.61 688.95,259.96 689.28,260.33 689.61,260.72 689.94,261.12 690.27,261.53 690.60,261.94 690.93,262.34 691.26,262.72 691.59,263.08 691.92,263.40 692.25,263.69 692.58,263.93 692.91,264.12 693.24,264.24 693.57,264.30 693.90,264.28 694.23,264.19 694.56,264.01 694.89,263.74 695.22,263.37 695.55,262.90 695.88,262.33 696.21,261.64 696.54,260.86 696.87,259.94 697.20,258.92 697.53,257.79 697.86,256.52 698.19,255.15 698.52,253.66 698.85,252.05 699.18,250.34 699.51,248.50 699.84,246.56 700.17,244.51 700.50,242.35 700.83,240.09 701.17,237.74 701.50,235.28 701.83,232.74 702.16,230.11 702.49,227.39 702.82,224.59 703.15,221.72 703.48,218.79 703.81,215.79 704.14,212.73 704.47,209.62 704.80,206.47 705.13,203.27 705.46,200.04 705.79,196.78 706.12,193.49 706.45,190.19 706.78,186.88 707.11,183.58 707.44,180.28 707.77,177.00 708.10,173.74 708.43,170.51 708.76,167.33 709.09,164.19 709.42,161.10 709.75,158.09 710.08,155.14 710.41,152.27 710.74,149.49 711.07,146.79 711.40,144.19 711.73,141.70 712.06,139.31 712.39,137.03 712.72,134.87 713.05,132.83 713.38,130.92 713.71,129.13 714.04,127.47 714.37,125.94 714.70,124.55 715.03,123.29 715.36,122.17 715.69,121.18 716.02,120.33 716.35,119.62 716.68,119.03 717.01,118.59 717.34,118.28 717.67,118.10 718.00,118.05 718.33,118.13 718.66,118.34 718.99,118.67 719.32,119.12 719.65,119.68 719.98,120.37 720.31,121.16 720.64,122.05 720.97,123.05 721.30,124.14 721.63,125.33 721.96,126.61 722.29,127.97 722.62,129.41 722.95,130.92 723.29,132.51 723.62,134.16 723.95,135.87 724.28,137.64 724.61,139.45 724.94,141.31 725.27,143.21 725.60,145.14 725.93,147.10 726.26,149.08 726.59,151.09 726.92,153.12 727.25,155.16 727.58,157.21 727.91,159.28 728.24,161.35 728.57,163.43 728.90,165.52 729.23,167.60 729.56,169.69 729.89,171.77 730.22,173.85 730.55,175.93 730.88,178.00 731.21,180.05 731.54,182.10 731.87,184.13 732.20,186.14 732.53,188.13 732.86,190.09 733.19,192.04 733.52,193.95 733.85,195.83 734.18,197.67 734.51,199.48 734.84,201.25 735.17,202.97 735.50,204.65 735.83,206.29 736.16,207.88 736.49,209.41 736.82,210.89 737.15,212.32 737.48,213.69 737.81,215.00 738.14,216.26 738.47,217.45 738.80,218.59 739.13,219.66 739.46,220.68 739.79,221.63 740.12,222.53 740.45,223.36 740.78,224.13 741.11,224.84 741.44,225.49 741.77,226.09 742.10,226.62 742.43,227.10 742.76,227.52 743.09,227.87 743.42,228.18 743.75,228.42 744.08,228.61 744.41,228.74 744.74,228.82 745.08,228.84 745.41,228.81 745.74,228.72 746.07,228.59 746.40,228.41 746.73,228.18 747.06,227.91 747.39,227.61 747.72,227.26 748.05,226.88 748.38,226.47 748.71,226.03 749.04,225.57 749.37,225.09 749.70,224.58 750.03,224.06 750.36,223.53 750.69,222.98 751.02,222.43 751.35,221.86 751.68,221.29 752.01,220.71 752.34,220.13 752.67,219.54 753.00,218.95 753.33,218.36 753.66,217.77 753.99,217.18 754.32,216.59 754.65,216.00 754.98,215.41 755.31,214.82 755.64,214.24 755.97,213.66 756.30,213.08 756.63,212.52 756.96,211.95 757.29,211.39 757.62,210.84 757.95,210.29 758.28,209.75 758.61,209.22 758.94,208.69 759.27,208.17 759.60,207.66 759.93,207.16 760.26,206.66 760.59,206.18 760.92,205.71 761.25,205.25 761.58,204.80 761.91,204.36 762.24,203.94 762.57,203.53 762.90,203.13 763.23,202.75 763.56,202.38 763.89,202.03 764.22,201.69 764.55,201.37 764.88,201.06 765.21,200.76 765.54,200.48 765.87,200.21 766.20,199.95 766.53,199.71 766.86,199.48 767.20,199.27 767.53,199.08 767.86,198.90 768.19,198.74 768.52,198.60 768.85,198.48 769.18,198.38 769.51,198.30 769.84,198.24 770.17,198.21 770.50,198.20 770.83,198.21 771.16,198.24 771.49,198.29 771.82,198.37 772.15,198.46 772.48,198.58 772.81,198.72 773.14,198.88 773.47,199.06 773.80,199.25 774.13,199.47 774.46,199.70 774.79,199.95 775.12,200.22 775.45,200.51 775.78,200.81 776.11,201.13 776.44,201.47 776.77,201.82 777.10,202.18 777.43,202.56 777.76,202.96 778.09,203.37 778.42,203.79 778.75,204.23 779.08,204.69 779.41,205.15 779.74,205.63 780.07,206.13 780.40,206.64 780.73,207.16 781.06,207.69 781.39,208.23 781.72,208.79 782.05,209.35 782.38,209.92 782.71,210.50 783.04,211.09 783.37,211.69 783.70,212.29 784.03,212.89 784.36,213.49 784.69,214.08 785.02,214.68 785.35,215.27 785.68,215.85 786.01,216.43 786.34,217.00 786.67,217.55 787.00,218.10 787.33,218.64 787.66,219.17 787.99,219.69 788.32,220.20 788.65,220.71 788.98,221.20 789.32,221.69 789.65,222.18 789.98,222.65 790.31,223.13 790.64,223.59 790.97,224.05 791.30,224.51 791.63,224.96 791.96,225.40 792.29,225.84 792.62,226.27 792.95,226.69 793.28,227.10 793.61,227.51 793.94,227.91 794.27,228.30 794.60,228.68 794.93,229.05 795.26,229.41 795.59,229.76 795.92,230.11 796.25,230.44 796.58,230.76 796.91,231.08 797.24,231.38 797.57,231.68 797.90,231.96 798.23,232.24 798.56,232.51 798.89,232.77 799.22,233.02 799.55,233.26 799.88,233.49 800.21,233.72 800.54,233.94 800.87,234.14 801.20,234.34 801.53,234.54 801.86,234.72 802.19,234.90 802.52,235.07 802.85,235.23 803.18,235.38 803.51,235.52 803.84,235.65 804.17,235.77 804.50,235.88 804.83,235.97 805.16,236.06 805.49,236.13 805.82,236.19 806.15,236.24 806.48,236.28 806.81,236.30 807.14,236.31 807.47,236.32 807.80,236.32 808.13,236.30 808.46,236.29 808.79,236.26 809.12,236.23 809.45,236.20 809.78,236.17 810.11,236.14 810.44,236.12 810.77,236.09 811.11,236.06 811.44,236.04 811.77,236.02 812.10,236.00 812.43,235.98 812.76,235.97 813.09,235.95 813.42,235.94 813.75,235.92 814.08,235.91 814.41,235.89 814.74,235.87 815.07,235.85 815.40,235.82 815.73,235.79 816.06,235.75 816.39,235.71 816.72,235.67 817.05,235.62 817.38,235.56 817.71,235.49 818.04,235.42 818.37,235.34 818.70,235.25 819.03,235.16 819.36,235.05 819.69,234.94 820.02,234.83 820.35,234.70 820.68,234.57 821.01,234.43 821.34,234.28 821.67,234.13 822.00,233.97" fill="none" stroke="#c5221f" stroke-width="2"/>
<text x="662" y="56" font-family="Arial" font-size="12" fill="#c5221f">Experiment</text>
<polyline points="96.00,200.41 96.33,200.41 96.66,200.41 96.99,200.41 97.32,200.41 97.65,200.41 97.98,200.41 98.31,200.41 98.64,200.41 98.97,200.41 99.30,200.41 99.63,200.41 99.96,200.41 100.29,200.41 100.62,200.41 100.95,200.41 101.28,200.41 101.61,200.41 101.94,200.41 102.27,200.41 102.60,200.41 102.93,200.41 103.26,200.41 103.59,200.41 103.92,200.41 104.25,200.41 104.58,200.41 104.91,200.41 105.24,200.41 105.57,200.41 105.90,200.41 106.23,200.41 106.56,200.41 106.89,200.41 107.23,200.41 107.56,200.41 107.89,200.41 108.22,200.41 108.55,200.41 108.88,200.41 109.21,200.41 109.54,200.41 109.87,200.41 110.20,200.41 110.53,200.41 110.86,200.41 111.19,200.41 111.52,200.41 111.85,200.41 112.18,200.41 112.51,200.41 112.84,200.41 113.17,200.41 113.50,200.41 113.83,200.41 114.16,200.41 114.49,200.41 114.82,200.41 115.15,200.41 115.48,200.41 115.81,200.41 116.14,200.41 116.47,200.41 116.80,200.41 117.13,200.41 117.46,200.41 117.79,200.41 118.12,200.41 118.45,200.41 118.78,200.41 119.11,200.42 119.44,200.42 119.77,200.42 120.10,200.42 120.43,200.42 120.76,200.42 121.09,200.42 121.42,200.42 121.75,200.42 122.08,200.42 122.41,200.42 122.74,200.42 123.07,200.42 123.40,200.42 123.73,200.42 124.06,200.42 124.39,200.42 124.72,200.42 125.05,200.42 125.38,200.42 125.71,200.42 126.04,200.42 126.37,200.43 126.70,200.44 127.03,200.46 127.36,200.47 127.69,200.48 128.02,200.50 128.35,200.51 128.68,200.53 129.02,200.54 129.35,200.56 129.68,200.57 130.01,200.59 130.34,200.61 130.67,200.62 131.00,200.64 131.33,200.66 131.66,200.68 131.99,200.69 132.32,200.71 132.65,200.73 132.98,200.75 133.31,200.77 133.64,200.79 133.97,200.81 134.30,200.83 134.63,200.85 134.96,200.87 135.29,200.89 135.62,200.92 135.95,200.94 136.28,200.96 136.61,200.99 136.94,201.01 137.27,201.04 137.60,201.06 137.93,201.09 138.26,201.12 138.59,201.15 138.92,201.17 139.25,201.20 139.58,201.23 139.91,201.26 140.24,201.30 140.57,201.33 140.90,201.36 141.23,201.39 141.56,201.43 141.89,201.46 142.22,201.50 142.55,201.54 142.88,201.58 143.21,201.62 143.54,201.66 143.87,201.70 144.20,201.74 144.53,201.78 144.86,201.83 145.19,201.87 145.52,201.92 145.85,201.97 146.18,202.02 146.51,202.07 146.84,202.12 147.17,202.17 147.50,202.23 147.83,202.28 148.16,202.34 148.49,202.40 148.82,202.46 149.15,202.52 149.48,202.58 149.81,202.65 150.14,202.72 150.47,202.78 150.80,202.86 151.14,202.93 151.47,203.00 151.80,203.08 152.13,203.16 152.46,203.24 152.79,203.32 153.12,203.40 153.45,203.49 153.78,203.58 154.11,203.67 154.44,203.77 154.77,203.86 155.10,203.96 155.43,204.07 155.76,204.17 156.09,204.28 156.42,204.39 156.75,204.50 157.08,204.62 157.41,204.74 157.74,204.86 158.07,204.98 158.40,205.11 158.73,205.24 159.06,205.38 159.39,205.52 159.72,205.66 160.05,205.81 160.38,205.96 160.71,206.12 161.04,206.27 161.37,206.44 161.70,206.60 162.03,206.78 162.36,206.95 162.69,207.13 163.02,207.32 163.35,207.51 163.68,207.70 164.01,207.90 164.34,208.11 164.67,208.32 165.00,208.53 165.33,208.75 165.66,208.98 165.99,209.21 166.32,209.45 166.65,209.70 166.98,209.95 167.31,210.21 167.64,210.47 167.97,210.74 168.30,211.02 168.63,211.30 168.96,211.59 169.29,211.89 169.62,212.20 169.95,212.51 170.28,212.83 170.61,213.16 170.94,213.50 171.27,213.85 171.60,214.20 171.93,214.56 172.26,214.93 172.59,215.31 172.92,215.70 173.26,216.10 173.59,216.51 173.92,216.93 174.25,217.36 174.58,217.79 174.91,218.24 175.24,218.70 175.57,219.17 175.90,219.65 176.23,220.14 176.56,220.64 176.89,221.15 177.22,221.67 177.55,222.21 177.88,222.75 178.21,223.31 178.54,223.88 178.87,224.47 179.20,225.06 179.53,225.67 179.86,226.29 180.19,226.93 180.52,227.58 180.85,228.24 181.18,228.91 181.51,229.60 181.84,230.30 182.17,231.01 182.50,231.74 182.83,232.48 183.16,233.24 183.49,234.01 183.82,234.80 184.15,235.60 184.48,236.41 184.81,237.24 185.14,238.08 185.47,238.94 185.80,239.81 186.13,240.70 186.46,241.60 186.79,242.52 187.12,243.45 187.45,244.39 187.78,245.35 188.11,246.33 188.44,247.32 188.77,248.32 189.10,249.34 189.43,250.37 189.76,251.42 190.09,252.47 190.42,253.55 190.75,254.63 191.08,255.73 191.41,256.84 191.74,257.97 192.07,259.10 192.40,260.25 192.73,261.41 193.06,262.58 193.39,263.76 193.72,264.96 194.05,266.16 194.38,267.37 194.71,268.59 195.05,269.82 195.38,271.06 195.71,272.31 196.04,273.56 196.37,274.82 196.70,276.09 197.03,277.36 197.36,278.63 197.69,279.91 198.02,281.19 198.35,282.48 198.68,283.77 199.01,285.06 199.34,286.35 199.67,287.64 200.00,288.93 200.33,290.21 200.66,291.50 200.99,292.78 201.32,294.05 201.65,295.33 201.98,296.59 202.31,297.85 202.64,299.11 202.97,300.35 203.30,301.58 203.63,302.81 203.96,304.02 204.29,305.23 204.62,306.42 204.95,307.60 205.28,308.76 205.61,309.91 205.94,311.04 206.27,312.16 206.60,313.26 206.93,314.34 207.26,315.40 207.59,316.44 207.92,317.47 208.25,318.47 208.58,319.45 208.91,320.41 209.24,321.35 209.57,322.26 209.90,323.15 210.23,324.01 210.56,324.85 210.89,325.66 211.22,326.45 211.55,327.21 211.88,327.95 212.21,328.65 212.54,329.33 212.87,329.98 213.20,330.61 213.53,331.20 213.86,331.76 214.19,332.30 214.52,332.81 214.85,333.29 215.18,333.73 215.51,334.15 215.84,334.54 216.17,334.90 216.50,335.23 216.83,335.53 217.17,335.80 217.50,336.04 217.83,336.25 218.16,336.43 218.49,336.58 218.82,336.71 219.15,336.80 219.48,336.87 219.81,336.91 220.14,336.92 220.47,336.90 220.80,336.85 221.13,336.78 221.46,336.68 221.79,336.56 222.12,336.40 222.45,336.23 222.78,336.02 223.11,335.80 223.44,335.54 223.77,335.27 224.10,334.97 224.43,334.65 224.76,334.30 225.09,333.93 225.42,333.54 225.75,333.13 226.08,332.70 226.41,332.25 226.74,331.78 227.07,331.29 227.40,330.79 227.73,330.26 228.06,329.72 228.39,329.16 228.72,328.58 229.05,327.99 229.38,327.38 229.71,326.76 230.04,326.12 230.37,325.47 230.70,324.80 231.03,324.12 231.36,323.43 231.69,322.73 232.02,322.02 232.35,321.29 232.68,320.56 233.01,319.81 233.34,319.06 233.67,318.30 234.00,317.52 234.33,316.74 234.66,315.96 234.99,315.16 235.32,314.36 235.65,313.55 235.98,312.74 236.31,311.92 236.64,311.09 236.97,310.26 237.30,309.43 237.63,308.59 237.96,307.75 238.29,306.90 238.62,306.05 238.95,305.20 239.29,304.35 239.62,303.49 239.95,302.63 240.28,301.77 240.61,300.91 240.94,300.05 241.27,299.19 241.60,298.33 241.93,297.47 242.26,296.61 242.59,295.75 242.92,294.89 243.25,294.03 243.58,293.17 243.91,292.31 244.24,291.46 244.57,290.61 244.90,289.75 245.23,288.91 245.56,288.06 245.89,287.22 246.22,286.37 246.55,285.54 246.88,284.70 247.21,283.87 247.54,283.04 247.87,282.22 248.20,281.40 248.53,280.58 248.86,279.77 249.19,278.96 249.52,278.15 249.85,277.35 250.18,276.56 250.51,275.76 250.84,274.98 251.17,274.19 251.50,273.42 251.83,272.64 252.16,271.88 252.49,271.11 252.82,270.35 253.15,269.60 253.48,268.85 253.81,268.11 254.14,267.38 254.47,266.64 254.80,265.92 255.13,265.20 255.46,264.48 255.79,263.77 256.12,263.07 256.45,262.37 256.78,261.68 257.11,260.99 257.44,260.31 257.77,259.63 258.10,258.96 258.43,258.29 258.76,257.64 259.09,256.98 259.42,256.33 259.75,255.69 260.08,255.06 260.41,254.43 260.74,253.80 261.08,253.18 261.41,252.57 261.74,251.96 262.07,251.36 262.40,250.76 262.73,250.17 263.06,249.59 263.39,249.01 263.72,248.43 264.05,247.87 264.38,247.30 264.71,246.75 265.04,246.20 265.37,245.65 265.70,245.11 266.03,244.58 266.36,244.05 266.69,243.52 267.02,243.01 267.35,242.49 267.68,241.99 268.01,241.48 268.34,240.99 268.67,240.50 269.00,240.01 269.33,239.53 269.66,239.05 269.99,238.58 270.32,238.12 270.65,237.66 270.98,237.20 271.31,236.75 271.64,236.31 271.97,235.87 272.30,235.43 272.63,235.00 272.96,234.57 273.29,234.15 273.62,233.74 273.95,233.33 274.28,232.92 274.61,232.52 274.94,232.12 275.27,231.73 275.60,231.34 275.93,230.96 276.26,230.58 276.59,230.20 276.92,229.83 277.25,229.47 277.58,229.11 277.91,228.75 278.24,228.40 278.57,228.05 278.90,227.70 279.23,227.36 279.56,227.03 279.89,226.70 280.22,226.37 280.55,226.05 280.88,225.73 281.21,225.41 281.54,225.10 281.87,224.79 282.20,224.49 282.53,224.19 282.86,223.89 283.20,223.60 283.53,223.31 283.86,223.02 284.19,222.74 284.52,222.47 284.85,222.19 285.18,221.92 285.51,221.65 285.84,221.39 286.17,221.13 286.50,220.87 286.83,220.62 287.16,220.37 287.49,220.12 287.82,219.88 288.15,219.64 288.48,219.41 288.81,219.17 289.14,218.94 289.47,218.72 289.80,218.49 290.13,218.27 290.46,218.05 290.79,217.84 291.12,217.63 291.45,217.42 291.78,217.22 292.11,217.01 292.44,216.81 292.77,216.62 293.10,216.43 293.43,216.24 293.76,216.05 294.09,215.86 294.42,215.68 294.75,215.50 295.08,215.33 295.41,215.16 295.74,214.99 296.07,214.82 296.40,214.65 296.73,214.49 297.06,214.33 297.39,214.18 297.72,214.02 298.05,213.87 298.38,213.72 298.71,213.58 299.04,213.43 299.37,213.29 299.70,213.16 300.03,213.02 300.36,212.89 300.69,212.76 301.02,212.63 301.35,212.51 301.68,212.38 302.01,212.27 302.34,212.15 302.67,212.03 303.00,211.92 303.33,211.81 303.66,211.71 303.99,211.60 304.32,211.50 304.65,211.40 304.98,211.31 305.32,211.21 305.65,211.12 305.98,211.03 306.31,210.95 306.64,210.87 306.97,210.79 307.30,210.71 307.63,210.63 307.96,210.56 308.29,210.49 308.62,210.42 308.95,210.36 309.28,210.30 309.61,210.24 309.94,210.18 310.27,210.13 310.60,210.08 310.93,210.03 311.26,209.98 311.59,209.94 311.92,209.90 312.25,209.87 312.58,209.83 312.91,209.80 313.24,209.77 313.57,209.75 313.90,209.73 314.23,209.71 314.56,209.69 314.89,209.68 315.22,209.67 315.55,209.66 315.88,209.66 316.21,209.66 316.54,209.67 316.87,209.67 317.20,209.68 317.53,209.70 317.86,209.71 318.19,209.74 318.52,209.76 318.85,209.79 319.18,209.82 319.51,209.86 319.84,209.90 320.17,209.94 320.50,209.99 320.83,210.04 321.16,210.09 321.49,210.15 321.82,210.22 322.15,210.29 322.48,210.36 322.81,210.44 323.14,210.52 323.47,210.60 323.80,210.69 324.13,210.79 324.46,210.89 324.79,210.99 325.12,211.10 325.45,211.22 325.78,211.34 326.11,211.47 326.44,211.60 326.77,211.73 327.11,211.87 327.44,212.02 327.77,212.18 328.10,212.33 328.43,212.50 328.76,212.67 329.09,212.85 329.42,213.03 329.75,213.22 330.08,213.42 330.41,213.62 330.74,213.83 331.07,214.04 331.40,214.27 331.73,214.50 332.06,214.74 332.39,214.98 332.72,215.23 333.05,215.49 333.38,215.76 333.71,216.03 334.04,216.32 334.37,216.61 334.70,216.91 335.03,217.21 335.36,217.53 335.69,217.85 336.02,218.18 336.35,218.52 336.68,218.87 337.01,219.23 337.34,219.60 337.67,219.98 338.00,220.36 338.33,220.76 338.66,221.17 338.99,221.58 339.32,222.01 339.65,222.44 339.98,222.88 340.31,223.34 340.64,223.80 340.97,224.28 341.30,224.76 341.63,225.26 341.96,225.76 342.29,226.28 342.62,226.81 342.95,227.34 343.28,227.89 343.61,228.45 343.94,229.02 344.27,229.60 344.60,230.19 344.93,230.79 345.26,231.40 345.59,232.02 345.92,232.66 346.25,233.30 346.58,233.96 346.91,234.62 347.24,235.30 347.57,235.99 347.90,236.68 348.23,237.39 348.56,238.11 348.89,238.84 349.23,239.57 349.56,240.32 349.89,241.08 350.22,241.84 350.55,242.62 350.88,243.40 351.21,244.20 351.54,245.00 351.87,245.81 352.20,246.63 352.53,247.45 352.86,248.29 353.19,249.13 353.52,249.98 353.85,250.83 354.18,251.69 354.51,252.56 354.84,253.43 355.17,254.31 355.50,255.19 355.83,256.07 356.16,256.96 356.49,257.85 356.82,258.75 357.15,259.65 357.48,260.54 357.81,261.44 358.14,262.35 358.47,263.25 358.80,264.15 359.13,265.05 359.46,265.95 359.79,266.84 360.12,267.74 360.45,268.63 360.78,269.52 361.11,270.40 361.44,271.28 361.77,272.15 362.10,273.02 362.43,273.88 362.76,274.73 363.09,275.57 363.42,276.41 363.75,277.24 364.08,278.05 364.41,278.86 364.74,279.66 365.07,280.44 365.40,281.21 365.73,281.98 366.06,282.72 366.39,283.46 366.72,284.18 367.05,284.88 367.38,285.57 367.71,286.25 368.04,286.91 368.37,287.55 368.70,288.18 369.03,288.79 369.36,289.38 369.69,289.95 370.02,290.51 370.35,291.04 370.68,291.56 371.02,292.06 371.35,292.54 371.68,293.00 372.01,293.43 372.34,293.85 372.67,294.25 373.00,294.63 373.33,294.99 373.66,295.32 373.99,295.64 374.32,295.94 374.65,296.21 374.98,296.46 375.31,296.69 375.64,296.91 375.97,297.10 376.30,297.27 376.63,297.41 376.96,297.54 377.29,297.65 377.62,297.73 377.95,297.80 378.28,297.85 378.61,297.87 378.94,297.88 379.27,297.86 379.60,297.83 379.93,297.78 380.26,297.70 380.59,297.61 380.92,297.51 381.25,297.38 381.58,297.23 381.91,297.07 382.24,296.89 382.57,296.69 382.90,296.48 383.23,296.25 383.56,296.00 383.89,295.74 384.22,295.46 384.55,295.17 384.88,294.86 385.21,294.54 385.54,294.21 385.87,293.86 386.20,293.49 386.53,293.12 386.86,292.73 387.19,292.33 387.52,291.92 387.85,291.50 388.18,291.06 388.51,290.62 388.84,290.17 389.17,289.70 389.50,289.23 389.83,288.74 390.16,288.25 390.49,287.75 390.82,287.24 391.15,286.72 391.48,286.20 391.81,285.67 392.14,285.13 392.47,284.59 392.80,284.04 393.14,283.48 393.47,282.92 393.80,282.35 394.13,281.78 394.46,281.20 394.79,280.62 395.12,280.04 395.45,279.45 395.78,278.85 396.11,278.26 396.44,277.66 396.77,277.06 397.10,276.46 397.43,275.85 397.76,275.24 398.09,274.63 398.42,274.02 398.75,273.41 399.08,272.80 399.41,272.18 399.74,271.57 400.07,270.95 400.40,270.34 400.73,269.72 401.06,269.11 401.39,268.50 401.72,267.88 402.05,267.27 402.38,266.66 402.71,266.04 403.04,265.43 403.37,264.82 403.70,264.22 404.03,263.61 404.36,263.01 404.69,262.40 405.02,261.80 405.35,261.21 405.68,260.61 406.01,260.02 406.34,259.42 406.67,258.84 407.00,258.25 407.33,257.67 407.66,257.08 407.99,256.51 408.32,255.93 408.65,255.36 408.98,254.79 409.31,254.23 409.64,253.66 409.97,253.10 410.30,252.55 410.63,252.00 410.96,251.45 411.29,250.90 411.62,250.36 411.95,249.82 412.28,249.29 412.61,248.76 412.94,248.23 413.27,247.71 413.60,247.19 413.93,246.68 414.26,246.16 414.59,245.66 414.92,245.15 415.26,244.65 415.59,244.16 415.92,243.67 416.25,243.18 416.58,242.70 416.91,242.22 417.24,241.74 417.57,241.27 417.90,240.80 418.23,240.34 418.56,239.88 418.89,239.43 419.22,238.97 419.55,238.53 419.88,238.09 420.21,237.65 420.54,237.21 420.87,236.78 421.20,236.35 421.53,235.93 421.86,235.51 422.19,235.10 422.52,234.69 422.85,234.28 423.18,233.88 423.51,233.48 423.84,233.09 424.17,232.70 424.50,232.31 424.83,231.93 425.16,231.55 425.49,231.17 425.82,230.80 426.15,230.43 426.48,230.07 426.81,229.71 427.14,229.35 427.47,229.00 427.80,228.65 428.13,228.31 428.46,227.97 428.79,227.63 429.12,227.29 429.45,226.96 429.78,226.64 430.11,226.31 430.44,225.99 430.77,225.68 431.10,225.37 431.43,225.06 431.76,224.75 432.09,224.45 432.42,224.15 432.75,223.85 433.08,223.56 433.41,223.27 433.74,222.98 434.07,222.70 434.40,222.42 434.73,222.15 435.06,221.87 435.39,221.60 435.72,221.34 436.05,221.07 436.38,220.81 436.71,220.55 437.05,220.30 437.38,220.05 437.71,219.80 438.04,219.55 438.37,219.31 438.70,219.07 439.03,218.83 439.36,218.59 439.69,218.36 440.02,218.13 440.35,217.91 440.68,217.68 441.01,217.46 441.34,217.24 441.67,217.03 442.00,216.81 442.33,216.60 442.66,216.39 442.99,216.19 443.32,215.98 443.65,215.78 443.98,215.58 444.31,215.38 444.64,215.18 444.97,214.98 445.30,214.78 445.63,214.59 445.96,214.40 446.29,214.21 446.62,214.02 446.95,213.84 447.28,213.66 447.61,213.48 447.94,213.31 448.27,213.13 448.60,212.96 448.93,212.79 449.26,212.62 449.59,212.46 449.92,212.30 450.25,212.14 450.58,211.98 450.91,211.82 451.24,211.67 451.57,211.52 451.90,211.37 452.23,211.22 452.56,211.08 452.89,210.93 453.22,210.79 453.55,210.65 453.88,210.51 454.21,210.38 454.54,210.24 454.87,210.11 455.20,209.98 455.53,209.85 455.86,209.72 456.19,209.60 456.52,209.47 456.85,209.35 457.18,209.23 457.51,209.11 457.84,209.00 458.17,208.88 458.50,208.77 458.83,208.65 459.17,208.54 459.50,208.43 459.83,208.32 460.16,208.22 460.49,208.11 460.82,208.01 461.15,207.91 461.48,207.81 461.81,207.71 462.14,207.61 462.47,207.51 462.80,207.41 463.13,207.32 463.46,207.23 463.79,207.14 464.12,207.04 464.45,206.95 464.78,206.87 465.11,206.78 465.44,206.69 465.77,206.61 466.10,206.53 466.43,206.44 466.76,206.36 467.09,206.28 467.42,206.20 467.75,206.12 468.08,206.05 468.41,205.97 468.74,205.90 469.07,205.82 469.40,205.75 469.73,205.68 470.06,205.61 470.39,205.54 470.72,205.47 471.05,205.40 471.38,205.33 471.71,205.26 472.04,205.20 472.37,205.13 472.70,205.07 473.03,205.01 473.36,204.94 473.69,204.88 474.02,204.82 474.35,204.75 474.68,204.68 475.01,204.61 475.34,204.54 475.67,204.47 476.00,204.40 476.33,204.33 476.66,204.26 476.99,204.19 477.32,204.12 477.65,204.06 477.98,203.99 478.31,203.92 478.64,203.86 478.97,203.79 479.30,203.73 479.63,203.66 479.96,203.60 480.29,203.53 480.62,203.47 480.95,203.40 481.29,203.34 481.62,203.27 481.95,203.21 482.28,203.15 482.61,203.08 482.94,203.02 483.27,202.96 483.60,202.89 483.93,202.83 484.26,202.77 484.59,202.70 484.92,202.64 485.25,202.58 485.58,202.51 485.91,202.45 486.24,202.39 486.57,202.32 486.90,202.26 487.23,202.19 487.56,202.13 487.89,202.07 488.22,202.00 488.55,201.94 488.88,201.87 489.21,201.80 489.54,201.74 489.87,201.67 490.20,201.60 490.53,201.53 490.86,201.47 491.19,201.40 491.52,201.33 491.85,201.26 492.18,201.19 492.51,201.11 492.84,201.04 493.17,200.97 493.50,200.89 493.83,200.82 494.16,200.74 494.49,200.67 494.82,200.59 495.15,200.51 495.48,200.43 495.81,200.35 496.14,200.27 496.47,200.18 496.80,200.10 497.13,200.01 497.46,199.93 497.79,199.84 498.12,199.75 498.45,199.66 498.78,199.57 499.11,199.47 499.44,199.37 499.77,199.28 500.10,199.18 500.43,199.08 500.76,198.97 501.09,198.87 501.42,198.76 501.75,198.65 502.08,198.54 502.41,198.43 502.74,198.31 503.08,198.19 503.41,198.07 503.74,197.95 504.07,197.82 504.40,197.70 504.73,197.57 505.06,197.43 505.39,197.30 505.72,197.16 506.05,197.01 506.38,196.87 506.71,196.72 507.04,196.57 507.37,196.41 507.70,196.25 508.03,196.09 508.36,195.93 508.69,195.76 509.02,195.58 509.35,195.40 509.68,195.22 510.01,195.04 510.34,194.85 510.67,194.65 511.00,194.45 511.33,194.25 511.66,194.04 511.99,193.83 512.32,193.61 512.65,193.38 512.98,193.15 513.31,192.92 513.64,192.68 513.97,192.44 514.30,192.18 514.63,191.93 514.96,191.66 515.29,191.39 515.62,191.12 515.95,190.84 516.28,190.55 516.61,190.25 516.94,189.95 517.27,189.64 517.60,189.32 517.93,188.99 518.26,188.66 518.59,188.32 518.92,187.97 519.25,187.62 519.58,187.25 519.91,186.88 520.24,186.50 520.57,186.11 520.90,185.71 521.23,185.30 521.56,184.88 521.89,184.45 522.22,184.02 522.55,183.57 522.88,183.11 523.21,182.64 523.54,182.16 523.87,181.68 524.20,181.18 524.53,180.67 524.86,180.14 525.20,179.61 525.53,179.07 525.86,178.51 526.19,177.94 526.52,177.36 526.85,176.77 527.18,176.17 527.51,175.55 527.84,174.92 528.17,174.28 528.50,173.62 528.83,172.95 529.16,172.27 529.49,171.57 529.82,170.86 530.15,170.14 530.48,169.40 530.81,168.65 531.14,167.89 531.47,167.11 531.80,166.32 532.13,165.51 532.46,164.69 532.79,163.85 533.12,163.00 533.45,162.13 533.78,161.25 534.11,160.36 534.44,159.45 534.77,158.53 535.10,157.59 535.43,156.64 535.76,155.67 536.09,154.69 536.42,153.69 536.75,152.68 537.08,151.66 537.41,150.62 537.74,149.57 538.07,148.50 538.40,147.42 538.73,146.33 539.06,145.23 539.39,144.11 539.72,142.98 540.05,141.84 540.38,140.68 540.71,139.52 541.04,138.34 541.37,137.15 541.70,135.95 542.03,134.75 542.36,133.53 542.69,132.30 543.02,131.07 543.35,129.82 543.68,128.57 544.01,127.32 544.34,126.05 544.67,124.78 545.00,123.51 545.33,122.23 545.66,120.94 545.99,119.66 546.32,118.37 546.65,117.08 546.98,115.79 547.32,114.49 547.65,113.20 547.98,111.91 548.31,110.62 548.64,109.33 548.97,108.05 549.30,106.77 549.63,105.50 549.96,104.23 550.29,102.97 550.62,101.71 550.95,100.47 551.28,99.23 551.61,98.00 551.94,96.79 552.27,95.59 552.60,94.39 552.93,93.22 553.26,92.05 553.59,90.91 553.92,89.77 554.25,88.66 554.58,87.56 554.91,86.48 555.24,85.41 555.57,84.37 555.90,83.35 556.23,82.35 556.56,81.37 556.89,80.41 557.22,79.48 557.55,78.57 557.88,77.68 558.21,76.82 558.54,75.98 558.87,75.17 559.20,74.38 559.53,73.63 559.86,72.89 560.19,72.19 560.52,71.51 560.85,70.87 561.18,70.25 561.51,69.65 561.84,69.09 562.17,68.56 562.50,68.06 562.83,67.58 563.16,67.14 563.49,66.72 563.82,66.33 564.15,65.98 564.48,65.65 564.81,65.36 565.14,65.09 565.47,64.85 565.80,64.64 566.13,64.47 566.46,64.32 566.79,64.20 567.12,64.10 567.45,64.04 567.78,64.01 568.11,64.00 568.44,64.02 568.77,64.07 569.11,64.15 569.44,64.25 569.77,64.38 570.10,64.53 570.43,64.71 570.76,64.92 571.09,65.15 571.42,65.40 571.75,65.68 572.08,65.98 572.41,66.31 572.74,66.66 573.07,67.03 573.40,67.42 573.73,67.83 574.06,68.26 574.39,68.71 574.72,69.19 575.05,69.68 575.38,70.19 575.71,70.71 576.04,71.26 576.37,71.82 576.70,72.40 577.03,72.99 577.36,73.60 577.69,74.23 578.02,74.87 578.35,75.52 578.68,76.19 579.01,76.86 579.34,77.56 579.67,78.26 580.00,78.97 580.33,79.70 580.66,80.43 580.99,81.18 581.32,81.94 581.65,82.70 581.98,83.47 582.31,84.25 582.64,85.04 582.97,85.84 583.30,86.64 583.63,87.45 583.96,88.26 584.29,89.08 584.62,89.91 584.95,90.74 585.28,91.57 585.61,92.41 585.94,93.25 586.27,94.10 586.60,94.95 586.93,95.80 587.26,96.65 587.59,97.51 587.92,98.36 588.25,99.22 588.58,100.08 588.91,100.94 589.24,101.80 589.57,102.67 589.90,103.53 590.23,104.39 590.56,105.25 590.89,106.11 591.23,106.97 591.56,107.82 591.89,108.68 592.22,109.53 592.55,110.38 592.88,111.24 593.21,112.08 593.54,112.93 593.87,113.77 594.20,114.61 594.53,115.45 594.86,116.28 595.19,117.11 595.52,117.94 595.85,118.76 596.18,119.58 596.51,120.40 596.84,121.21 597.17,122.02 597.50,122.82 597.83,123.62 598.16,124.42 598.49,125.21 598.82,126.00 599.15,126.78 599.48,127.55 599.81,128.32 600.14,129.09 600.47,129.85 600.80,130.61 601.13,131.36 601.46,132.11 601.79,132.85 602.12,133.59 602.45,134.32 602.78,135.04 603.11,135.76 603.44,136.47 603.77,137.18 604.10,137.89 604.43,138.58 604.76,139.28 605.09,139.96 605.42,140.64 605.75,141.32 606.08,141.99 606.41,142.65 606.74,143.31 607.07,143.96 607.40,144.61 607.73,145.25 608.06,145.88 608.39,146.51 608.72,147.14 609.05,147.75 609.38,148.37 609.71,148.97 610.04,149.57 610.37,150.17 610.70,150.76 611.03,151.34 611.36,151.92 611.69,152.49 612.02,153.06 612.35,153.62 612.68,154.18 613.02,154.73 613.35,155.27 613.68,155.81 614.01,156.34 614.34,156.87 614.67,157.39 615.00,157.91 615.33,158.42 615.66,158.93 615.99,159.43 616.32,159.92 616.65,160.42 616.98,160.90 617.31,161.38 617.64,161.85 617.97,162.32 618.30,162.79 618.63,163.25 618.96,163.70 619.29,164.15 619.62,164.60 619.95,165.04 620.28,165.47 620.61,165.90 620.94,166.32 621.27,166.74 621.60,167.16 621.93,167.57 622.26,167.98 622.59,168.38 622.92,168.77 623.25,169.16 623.58,169.55 623.91,169.93 624.24,170.31 624.57,170.69 624.90,171.05 625.23,171.42 625.56,171.78 625.89,172.14 626.22,172.49 626.55,172.84 626.88,173.18 627.21,173.52 627.54,173.85 627.87,174.18 628.20,174.51 628.53,174.83 628.86,175.15 629.19,175.47 629.52,175.78 629.85,176.09 630.18,176.39 630.51,176.69 630.84,176.98 631.17,177.28 631.50,177.56 631.83,177.85 632.16,178.13 632.49,178.41 632.82,178.68 633.15,178.95 633.48,179.22 633.81,179.48 634.14,179.74 634.47,179.99 634.80,180.25 635.14,180.50 635.47,180.74 635.80,180.98 636.13,181.22 636.46,181.46 636.79,181.69 637.12,181.92 637.45,182.15 637.78,182.37 638.11,182.59 638.44,182.81 638.77,183.02 639.10,183.23 639.43,183.44 639.76,183.64 640.09,183.84 640.42,184.04 640.75,184.24 641.08,184.43 641.41,184.62 641.74,184.81 642.07,184.99 642.40,185.17 642.73,185.35 643.06,185.53 643.39,185.70 643.72,185.87 644.05,186.03 644.38,186.20 644.71,186.36 645.04,186.52 645.37,186.67 645.70,186.83 646.03,186.98 646.36,187.13 646.69,187.27 647.02,187.41 647.35,187.55 647.68,187.69 648.01,187.83 648.34,187.96 648.67,188.09 649.00,188.21 649.33,188.34 649.66,188.46 649.99,188.58 650.32,188.69 650.65,188.81 650.98,188.92 651.31,189.03 651.64,189.13 651.97,189.24 652.30,189.34 652.63,189.44 652.96,189.53 653.29,189.63 653.62,189.72 653.95,189.80 654.28,189.89 654.61,189.97 654.94,190.05 655.27,190.13 655.60,190.20 655.93,190.28 656.26,190.35 656.59,190.41 656.92,190.48 657.26,190.54 657.59,190.60 657.92,190.65 658.25,190.70 658.58,190.76 658.91,190.80 659.24,190.85 659.57,190.89 659.90,190.93 660.23,190.96 660.56,191.00 660.89,191.03 661.22,191.06 661.55,191.08 661.88,191.10 662.21,191.12 662.54,191.13 662.87,191.15 663.20,191.15 663.53,191.16 663.86,191.16 664.19,191.16 664.52,191.16 664.85,191.15 665.18,191.14 665.51,191.12 665.84,191.11 666.17,191.08 666.50,191.06 666.83,191.03 667.16,191.00 667.49,190.96 667.82,190.92 668.15,190.88 668.48,190.83 668.81,190.78 669.14,190.72 669.47,190.66 669.80,190.60 670.13,190.53 670.46,190.45 670.79,190.38 671.12,190.29 671.45,190.21 671.78,190.11 672.11,190.02 672.44,189.92 672.77,189.81 673.10,189.70 673.43,189.58 673.76,189.46 674.09,189.34 674.42,189.21 674.75,189.07 675.08,188.93 675.41,188.78 675.74,188.62 676.07,188.46 676.40,188.30 676.73,188.13 677.06,187.95 677.39,187.76 677.72,187.57 678.05,187.38 678.38,187.17 678.71,186.96 679.05,186.74 679.38,186.52 679.71,186.29 680.04,186.05 680.37,185.80 680.70,185.55 681.03,185.29 681.36,185.02 681.69,184.75 682.02,184.46 682.35,184.17 682.68,183.87 683.01,183.56 683.34,183.24 683.67,182.92 684.00,182.59 684.33,182.24 684.66,181.89 684.99,181.53 685.32,181.16 685.65,180.78 685.98,180.40 686.31,180.00 686.64,179.59 686.97,179.18 687.30,178.75 687.63,178.31 687.96,177.87 688.29,177.41 688.62,176.95 688.95,176.47 689.28,175.98 689.61,175.49 689.94,174.98 690.27,174.46 690.60,173.93 690.93,173.39 691.26,172.85 691.59,172.29 691.92,171.71 692.25,171.13 692.58,170.54 692.91,169.94 693.24,169.32 693.57,168.70 693.90,168.06 694.23,167.42 694.56,166.76 694.89,166.09 695.22,165.42 695.55,164.73 695.88,164.03 696.21,163.32 696.54,162.60 696.87,161.87 697.20,161.13 697.53,160.38 697.86,159.63 698.19,158.86 698.52,158.08 698.85,157.29 699.18,156.50 699.51,155.70 699.84,154.89 700.17,154.07 700.50,153.24 700.83,152.40 701.17,151.56 701.50,150.71 701.83,149.86 702.16,149.00 702.49,148.13 702.82,147.26 703.15,146.38 703.48,145.50 703.81,144.61 704.14,143.72 704.47,142.83 704.80,141.93 705.13,141.04 705.46,140.14 705.79,139.24 706.12,138.34 706.45,137.43 706.78,136.53 707.11,135.63 707.44,134.73 707.77,133.84 708.10,132.94 708.43,132.05 708.76,131.17 709.09,130.29 709.42,129.41 709.75,128.54 710.08,127.67 710.41,126.81 710.74,125.96 711.07,125.12 711.40,124.28 711.73,123.46 712.06,122.64 712.39,121.84 712.72,121.04 713.05,120.26 713.38,119.49 713.71,118.73 714.04,117.98 714.37,117.25 714.70,116.53 715.03,115.83 715.36,115.14 715.69,114.47 716.02,113.81 716.35,113.17 716.68,112.55 717.01,111.94 717.34,111.35 717.67,110.78 718.00,110.23 718.33,109.70 718.66,109.18 718.99,108.69 719.32,108.21 719.65,107.76 719.98,107.32 720.31,106.90 720.64,106.51 720.97,106.13 721.30,105.78 721.63,105.45 721.96,105.13 722.29,104.84 722.62,104.57 722.95,104.32 723.29,104.09 723.62,103.88 723.95,103.70 724.28,103.53 724.61,103.39 724.94,103.26 725.27,103.16 725.60,103.08 725.93,103.01 726.26,102.97 726.59,102.95 726.92,102.95 727.25,102.96 727.58,103.00 727.91,103.06 728.24,103.13 728.57,103.22 728.90,103.34 729.23,103.47 729.56,103.61 729.89,103.78 730.22,103.96 730.55,104.16 730.88,104.38 731.21,104.61 731.54,104.86 731.87,105.12 732.20,105.40 732.53,105.70 732.86,106.01 733.19,106.33 733.52,106.67 733.85,107.02 734.18,107.39 734.51,107.76 734.84,108.15 735.17,108.55 735.50,108.97 735.83,109.39 736.16,109.83 736.49,110.27 736.82,110.73 737.15,111.19 737.48,111.67 737.81,112.16 738.14,112.65 738.47,113.15 738.80,113.66 739.13,114.18 739.46,114.70 739.79,115.24 740.12,115.78 740.45,116.32 740.78,116.87 741.11,117.43 741.44,117.99 741.77,118.56 742.10,119.13 742.43,119.71 742.76,120.29 743.09,120.88 743.42,121.47 743.75,122.06 744.08,122.66 744.41,123.25 744.74,123.86 745.08,124.46 745.41,125.07 745.74,125.67 746.07,126.28 746.40,126.89 746.73,127.51 747.06,128.12 747.39,128.73 747.72,129.35 748.05,129.96 748.38,130.58 748.71,131.19 749.04,131.81 749.37,132.42 749.70,133.04 750.03,133.65 750.36,134.26 750.69,134.87 751.02,135.48 751.35,136.09 751.68,136.70 752.01,137.30 752.34,137.91 752.67,138.51 753.00,139.11 753.33,139.71 753.66,140.30 753.99,140.90 754.32,141.49 754.65,142.08 754.98,142.66 755.31,143.25 755.64,143.83 755.97,144.40 756.30,144.98 756.63,145.55 756.96,146.12 757.29,146.68 757.62,147.24 757.95,147.80 758.28,148.36 758.61,148.91 758.94,149.46 759.27,150.00 759.60,150.54 759.93,151.08 760.26,151.61 760.59,152.14 760.92,152.67 761.25,153.19 761.58,153.71 761.91,154.22 762.24,154.74 762.57,155.24 762.90,155.74 763.23,156.24 763.56,156.74 763.89,157.23 764.22,157.72 764.55,158.20 764.88,158.68 765.21,159.15 765.54,159.62 765.87,160.09 766.20,160.55 766.53,161.01 766.86,161.46 767.20,161.91 767.53,162.36 767.86,162.80 768.19,163.24 768.52,163.67 768.85,164.10 769.18,164.53 769.51,164.95 769.84,165.37 770.17,165.78 770.50,166.19 770.83,166.60 771.16,167.00 771.49,167.40 771.82,167.79 772.15,168.18 772.48,168.57 772.81,168.95 773.14,169.33 773.47,169.70 773.80,170.07 774.13,170.44 774.46,170.80 774.79,171.16 775.12,171.52 775.45,171.87 775.78,172.22 776.11,172.56 776.44,172.90 776.77,173.24 777.10,173.57 777.43,173.90 777.76,174.23 778.09,174.55 778.42,174.87 778.75,175.18 779.08,175.50 779.41,175.80 779.74,176.11 780.07,176.41 780.40,176.71 780.73,177.01 781.06,177.30 781.39,177.59 781.72,177.87 782.05,178.15 782.38,178.43 782.71,178.71 783.04,178.98 783.37,179.25 783.70,179.51 784.03,179.78 784.36,180.04 784.69,180.29 785.02,180.55 785.35,180.80 785.68,181.05 786.01,181.29 786.34,181.54 786.67,181.77 787.00,182.01 787.33,182.25 787.66,182.48 787.99,182.71 788.32,182.93 788.65,183.15 788.98,183.37 789.32,183.59 789.65,183.81 789.98,184.02 790.31,184.23 790.64,184.44 790.97,184.64 791.30,184.84 791.63,185.04 791.96,185.25 792.29,185.45 792.62,185.65 792.95,185.85 793.28,186.05 793.61,186.24 793.94,186.43 794.27,186.62 794.60,186.80 794.93,186.99 795.26,187.17 795.59,187.35 795.92,187.52 796.25,187.70 796.58,187.87 796.91,188.04 797.24,188.20 797.57,188.37 797.90,188.53 798.23,188.69 798.56,188.85 798.89,189.00 799.22,189.16 799.55,189.31 799.88,189.46 800.21,189.60 800.54,189.75 800.87,189.89 801.20,190.04 801.53,190.17 801.86,190.31 802.19,190.45 802.52,190.58 802.85,190.72 803.18,190.85 803.51,190.97 803.84,191.10 804.17,191.23 804.50,191.35 804.83,191.47 805.16,191.59 805.49,191.71 805.82,191.83 806.15,191.94 806.48,192.06 806.81,192.17 807.14,192.28 807.47,192.39 807.80,192.50 808.13,192.61 808.46,192.71 808.79,192.81 809.12,192.92 809.45,193.02 809.78,193.12 810.11,193.22 810.44,193.31 810.77,193.41 811.11,193.50 811.44,193.60 811.77,193.69 812.10,193.78 812.43,193.87 812.76,193.96 813.09,194.04 813.42,194.13 813.75,194.21 814.08,194.30 814.41,194.38 814.74,194.46 815.07,194.54 815.40,194.62 815.73,194.70 816.06,194.77 816.39,194.85 816.72,194.92 817.05,195.00 817.38,195.07 817.71,195.14 818.04,195.21 818.37,195.28 818.70,195.35 819.03,195.42 819.36,195.49 819.69,195.56 820.02,195.62 820.35,195.69 820.68,195.75 821.01,195.81 821.34,195.87 821.67,195.93 822.00,195.99" fill="none" stroke="#2f6f9f" stroke-width="2"/>
<text x="662" y="74" font-family="Arial" font-size="12" fill="#2f6f9f">Simulation</text>
</svg>