<svg xmlns="http://www.w3.org/2000/svg" width="850" height="460" viewBox="0 0 850 460">
<rect width="100%" height="100%" fill="white"/>
<text x="425.0" y="23" text-anchor="middle" font-family="Arial" font-size="15">N=4 measured short-circuit current selected cycle</text>
<line x1="96" y1="394" x2="822" y2="394" stroke="#333"/>
<line x1="96" y1="34" x2="96" y2="394" stroke="#333"/>
<text x="425.0" y="442" text-anchor="middle" font-family="Arial" font-size="12">Time (s)</text>
<text x="16" y="230.0" text-anchor="middle" transform="rotate(-90 16 230.0)" font-family="Arial" font-size="12">Short-circuit current (uA)</text>
<line x1="96" y1="34.0" x2="822" y2="34.0" stroke="#e1e5ea"/>
<text x="88" y="38.0" text-anchor="end" font-family="Arial" font-size="10">5.61</text>
<line x1="96" y1="106.0" x2="822" y2="106.0" stroke="#e1e5ea"/>
<text x="88" y="110.0" text-anchor="end" font-family="Arial" font-size="10">2.90</text>
<line x1="96" y1="178.0" x2="822" y2="178.0" stroke="#e1e5ea"/>
<text x="88" y="182.0" text-anchor="end" font-family="Arial" font-size="10">0.20</text>
<line x1="96" y1="250.0" x2="822" y2="250.0" stroke="#e1e5ea"/>
<text x="88" y="254.0" text-anchor="end" font-family="Arial" font-size="10">-2.51</text>
<line x1="96" y1="322.0" x2="822" y2="322.0" stroke="#e1e5ea"/>
<text x="88" y="326.0" text-anchor="end" font-family="Arial" font-size="10">-5.22</text>
<line x1="96" y1="394.0" x2="822" y2="394.0" stroke="#e1e5ea"/>
<text x="88" y="398.0" text-anchor="end" font-family="Arial" font-size="10">-7.92</text>
<line x1="96" y1="183.2" x2="822" y2="183.2" stroke="#999" stroke-dasharray="4 4"/>
<polyline points="96.00,176.69 96.20,177.10 96.40,177.51 96.60,177.91 96.80,178.32 97.01,178.72 97.21,179.12 97.41,179.52 97.61,179.92 97.81,180.31 98.01,180.70 98.21,181.08 98.41,181.47 98.61,181.84 98.81,182.22 99.02,182.59 99.22,182.95 99.42,183.31 99.62,183.66 99.82,184.01 100.02,184.35 100.22,184.68 100.42,185.01 100.62,185.34 100.83,185.66 101.03,185.98 101.23,186.29 101.43,186.59 101.63,186.90 101.83,187.20 102.03,187.50 102.23,187.79 102.43,188.08 102.63,188.37 102.84,188.66 103.04,188.95 103.24,189.23 103.44,189.51 103.64,189.79 103.84,190.08 104.04,190.36 104.24,190.65 104.44,190.93 104.65,191.22 104.85,191.51 105.05,191.80 105.25,192.10 105.45,192.40 105.65,192.70 105.85,193.00 106.05,193.31 106.25,193.63 106.45,193.94 106.66,194.27 106.86,194.59 107.06,194.93 107.26,195.26 107.46,195.61 107.66,195.96 107.86,196.31 108.06,196.67 108.26,197.03 108.47,197.39 108.67,197.76 108.87,198.13 109.07,198.50 109.27,198.88 109.47,199.25 109.67,199.63 109.87,200.00 110.07,200.38 110.27,200.75 110.48,201.12 110.68,201.49 110.88,201.86 111.08,202.22 111.28,202.57 111.48,202.92 111.68,203.27 111.88,203.61 112.08,203.93 112.29,204.25 112.49,204.57 112.69,204.87 112.89,205.16 113.09,205.44 113.29,205.70 113.49,205.96 113.69,206.20 113.89,206.43 114.09,206.65 114.30,206.86 114.50,207.05 114.70,207.22 114.90,207.39 115.10,207.54 115.30,207.68 115.50,207.81 115.70,207.92 115.90,208.03 116.11,208.12 116.31,208.20 116.51,208.27 116.71,208.33 116.91,208.38 117.11,208.42 117.31,208.46 117.51,208.48 117.71,208.50 117.91,208.52 118.12,208.52 118.32,208.53 118.52,208.53 118.72,208.52 118.92,208.52 119.12,208.51 119.32,208.50 119.52,208.49 119.72,208.47 119.93,208.46 120.13,208.45 120.33,208.45 120.53,208.44 120.73,208.44 120.93,208.44 121.13,208.45 121.33,208.46 121.53,208.47 121.73,208.49 121.94,208.51 122.14,208.54 122.34,208.57 122.54,208.61 122.74,208.66 122.94,208.71 123.14,208.77 123.34,208.84 123.54,208.91 123.75,208.99 123.95,209.07 124.15,209.17 124.35,209.27 124.55,209.38 124.75,209.49 124.95,209.62 125.15,209.75 125.35,209.89 125.55,210.03 125.76,210.19 125.96,210.35 126.16,210.52 126.36,210.70 126.56,210.88 126.76,211.07 126.96,211.27 127.16,211.47 127.36,211.68 127.57,211.89 127.77,212.11 127.97,212.33 128.17,212.56 128.37,212.79 128.57,213.03 128.77,213.26 128.97,213.50 129.17,213.75 129.37,213.99 129.58,214.24 129.78,214.49 129.98,214.75 130.18,215.00 130.38,215.26 130.58,215.52 130.78,215.78 130.98,216.04 131.18,216.31 131.39,216.57 131.59,216.84 131.79,217.11 131.99,217.39 132.19,217.66 132.39,217.94 132.59,218.22 132.79,218.51 132.99,218.79 133.19,219.08 133.40,219.37 133.60,219.66 133.80,219.96 134.00,220.26 134.20,220.56 134.40,220.87 134.60,221.17 134.80,221.49 135.00,221.80 135.21,222.12 135.41,222.45 135.61,222.78 135.81,223.11 136.01,223.46 136.21,223.80 136.41,224.16 136.61,224.52 136.81,224.89 137.01,225.27 137.22,225.65 137.42,226.04 137.62,226.44 137.82,226.85 138.02,227.26 138.22,227.69 138.42,228.12 138.62,228.57 138.82,229.02 139.03,229.49 139.23,229.96 139.43,230.44 139.63,230.93 139.83,231.43 140.03,231.94 140.23,232.46 140.43,232.99 140.63,233.53 140.83,234.08 141.04,234.63 141.24,235.19 141.44,235.76 141.64,236.34 141.84,236.92 142.04,237.51 142.24,238.11 142.44,238.71 142.64,239.32 142.85,239.93 143.05,240.54 143.25,241.16 143.45,241.78 143.65,242.40 143.85,243.03 144.05,243.66 144.25,244.29 144.45,244.93 144.65,245.57 144.86,246.21 145.06,246.85 145.26,247.50 145.46,248.14 145.66,248.79 145.86,249.45 146.06,250.10 146.26,250.75 146.46,251.41 146.67,252.07 146.87,252.73 147.07,253.39 147.27,254.05 147.47,254.71 147.67,255.37 147.87,256.04 148.07,256.70 148.27,257.37 148.47,258.04 148.68,258.71 148.88,259.38 149.08,260.05 149.28,260.73 149.48,261.41 149.68,262.09 149.88,262.77 150.08,263.45 150.28,264.14 150.49,264.83 150.69,265.52 150.89,266.21 151.09,266.91 151.29,267.61 151.49,268.32 151.69,269.03 151.89,269.74 152.09,270.46 152.29,271.18 152.50,271.90 152.70,272.63 152.90,273.36 153.10,274.10 153.30,274.85 153.50,275.60 153.70,276.35 153.90,277.12 154.10,277.88 154.31,278.66 154.51,279.43 154.71,280.22 154.91,281.01 155.11,281.80 155.31,282.60 155.51,283.41 155.71,284.22 155.91,285.05 156.11,285.87 156.32,286.71 156.52,287.55 156.72,288.40 156.92,289.26 157.12,290.13 157.32,291.00 157.52,291.88 157.72,292.77 157.92,293.66 158.13,294.57 158.33,295.48 158.53,296.39 158.73,297.32 158.93,298.25 159.13,299.19 159.33,300.13 159.53,301.08 159.73,302.03 159.93,302.99 160.14,303.96 160.34,304.92 160.54,305.89 160.74,306.87 160.94,307.84 161.14,308.81 161.34,309.79 161.54,310.76 161.74,311.73 161.95,312.70 162.15,313.66 162.35,314.62 162.55,315.57 162.75,316.51 162.95,317.45 163.15,318.38 163.35,319.30 163.55,320.21 163.75,321.12 163.96,322.01 164.16,322.90 164.36,323.77 164.56,324.64 164.76,325.49 164.96,326.33 165.16,327.17 165.36,327.99 165.56,328.80 165.77,329.60 165.97,330.39 166.17,331.17 166.37,331.94 166.57,332.69 166.77,333.44 166.97,334.18 167.17,334.90 167.37,335.61 167.57,336.32 167.78,337.01 167.98,337.69 168.18,338.35 168.38,339.01 168.58,339.65 168.78,340.28 168.98,340.90 169.18,341.51 169.38,342.10 169.59,342.68 169.79,343.25 169.99,343.81 170.19,344.35 170.39,344.89 170.59,345.41 170.79,345.92 170.99,346.42 171.19,346.91 171.39,347.38 171.60,347.85 171.80,348.30 172.00,348.75 172.20,349.19 172.40,349.61 172.60,350.03 172.80,350.44 173.00,350.84 173.20,351.24 173.41,351.62 173.61,352.00 173.81,352.37 174.01,352.74 174.21,353.10 174.41,353.45 174.61,353.80 174.81,354.14 175.01,354.47 175.21,354.80 175.42,355.13 175.62,355.45 175.82,355.77 176.02,356.09 176.22,356.40 176.42,356.71 176.62,357.01 176.82,357.31 177.02,357.61 177.23,357.90 177.43,358.19 177.63,358.48 177.83,358.76 178.03,359.04 178.23,359.32 178.43,359.59 178.63,359.85 178.83,360.12 179.03,360.37 179.24,360.63 179.44,360.87 179.64,361.11 179.84,361.35 180.04,361.58 180.24,361.80 180.44,362.01 180.64,362.21 180.84,362.41 181.05,362.59 181.25,362.77 181.45,362.93 181.65,363.09 181.85,363.23 182.05,363.36 182.25,363.48 182.45,363.59 182.65,363.69 182.85,363.77 183.06,363.84 183.26,363.90 183.46,363.95 183.66,363.98 183.86,364.00 184.06,364.00 184.26,363.99 184.46,363.97 184.66,363.94 184.87,363.90 185.07,363.84 185.27,363.77 185.47,363.69 185.67,363.60 185.87,363.49 186.07,363.38 186.27,363.25 186.47,363.12 186.67,362.98 186.88,362.83 187.08,362.66 187.28,362.50 187.48,362.32 187.68,362.14 187.88,361.95 188.08,361.75 188.28,361.55 188.48,361.34 188.69,361.13 188.89,360.91 189.09,360.69 189.29,360.46 189.49,360.23 189.69,360.00 189.89,359.76 190.09,359.52 190.29,359.28 190.49,359.04 190.70,358.79 190.90,358.55 191.10,358.30 191.30,358.05 191.50,357.80 191.70,357.55 191.90,357.30 192.10,357.05 192.30,356.79 192.51,356.54 192.71,356.29 192.91,356.03 193.11,355.77 193.31,355.52 193.51,355.26 193.71,355.00 193.91,354.74 194.11,354.48 194.31,354.22 194.52,353.96 194.72,353.69 194.92,353.43 195.12,353.16 195.32,352.90 195.52,352.63 195.72,352.36 195.92,352.09 196.12,351.82 196.33,351.55 196.53,351.28 196.73,351.00 196.93,350.73 197.13,350.45 197.33,350.18 197.53,349.90 197.73,349.62 197.93,349.35 198.13,349.07 198.34,348.79 198.54,348.51 198.74,348.23 198.94,347.95 199.14,347.66 199.34,347.38 199.54,347.09 199.74,346.80 199.94,346.51 200.15,346.21 200.35,345.91 200.55,345.61 200.75,345.30 200.95,344.98 201.15,344.66 201.35,344.34 201.55,344.01 201.75,343.68 201.95,343.35 202.16,343.00 202.36,342.66 202.56,342.31 202.76,341.95 202.96,341.60 203.16,341.23 203.36,340.87 203.56,340.50 203.76,340.13 203.97,339.76 204.17,339.38 204.37,339.00 204.57,338.63 204.77,338.25 204.97,337.87 205.17,337.50 205.37,337.12 205.57,336.75 205.77,336.37 205.98,336.00 206.18,335.63 206.38,335.27 206.58,334.90 206.78,334.54 206.98,334.19 207.18,333.84 207.38,333.50 207.58,333.16 207.79,332.83 207.99,332.50 208.19,332.18 208.39,331.87 208.59,331.56 208.79,331.27 208.99,330.98 209.19,330.70 209.39,330.42 209.59,330.16 209.80,329.90 210.00,329.65 210.20,329.41 210.40,329.18 210.60,328.95 210.80,328.74 211.00,328.52 211.20,328.32 211.40,328.12 211.61,327.93 211.81,327.75 212.01,327.57 212.21,327.40 212.41,327.24 212.61,327.08 212.81,326.92 213.01,326.77 213.21,326.63 213.41,326.49 213.62,326.35 213.82,326.22 214.02,326.09 214.22,325.96 214.42,325.83 214.62,325.71 214.82,325.58 215.02,325.46 215.22,325.33 215.43,325.21 215.63,325.08 215.83,324.96 216.03,324.83 216.23,324.70 216.43,324.57 216.63,324.44 216.83,324.30 217.03,324.16 217.23,324.02 217.44,323.88 217.64,323.73 217.84,323.58 218.04,323.42 218.24,323.27 218.44,323.10 218.64,322.93 218.84,322.76 219.04,322.58 219.25,322.40 219.45,322.21 219.65,322.01 219.85,321.80 220.05,321.59 220.25,321.36 220.45,321.13 220.65,320.89 220.85,320.63 221.05,320.36 221.26,320.09 221.46,319.79 221.66,319.49 221.86,319.17 222.06,318.83 222.26,318.48 222.46,318.12 222.66,317.74 222.86,317.34 223.07,316.93 223.27,316.50 223.47,316.06 223.67,315.59 223.87,315.11 224.07,314.61 224.27,314.09 224.47,313.56 224.67,313.00 224.87,312.43 225.08,311.84 225.28,311.23 225.48,310.60 225.68,309.96 225.88,309.29 226.08,308.60 226.28,307.90 226.48,307.17 226.68,306.43 226.89,305.66 227.09,304.88 227.29,304.07 227.49,303.25 227.69,302.40 227.89,301.53 228.09,300.65 228.29,299.74 228.49,298.81 228.69,297.85 228.90,296.87 229.10,295.87 229.30,294.85 229.50,293.80 229.70,292.73 229.90,291.63 230.10,290.50 230.30,289.35 230.50,288.17 230.71,286.96 230.91,285.73 231.11,284.46 231.31,283.17 231.51,281.85 231.71,280.50 231.91,279.12 232.11,277.71 232.31,276.27 232.51,274.80 232.72,273.30 232.92,271.77 233.12,270.21 233.32,268.62 233.52,267.00 233.72,265.35 233.92,263.66 234.12,261.95 234.32,260.21 234.53,258.44 234.73,256.65 234.93,254.82 235.13,252.97 235.33,251.09 235.53,249.19 235.73,247.26 235.93,245.30 236.13,243.33 236.33,241.33 236.54,239.31 236.74,237.27 236.94,235.21 237.14,233.14 237.34,231.05 237.54,228.94 237.74,226.82 237.94,224.69 238.14,222.55 238.35,220.40 238.55,218.24 238.75,216.08 238.95,213.91 239.15,211.74 239.35,209.58 239.55,207.41 239.75,205.24 239.95,203.08 240.15,200.93 240.36,198.79 240.56,196.65 240.76,194.53 240.96,192.42 241.16,190.32 241.36,188.24 241.56,186.18 241.76,184.14 241.96,182.13 242.17,180.13 242.37,178.17 242.57,176.23 242.77,174.32 242.97,172.44 243.17,170.60 243.37,168.79 243.57,167.01 243.77,165.28 243.97,163.58 244.18,161.93 244.38,160.32 244.58,158.75 244.78,157.23 244.98,155.76 245.18,154.34 245.38,152.97 245.58,151.65 245.78,150.38 245.99,149.16 246.19,148.00 246.39,146.89 246.59,145.84 246.79,144.84 246.99,143.90 247.19,143.02 247.39,142.20 247.59,141.44 247.79,140.73 248.00,140.09 248.20,139.51 248.40,138.98 248.60,138.52 248.80,138.13 249.00,137.79 249.20,137.51 249.40,137.30 249.60,137.14 249.81,137.05 250.01,137.01 250.21,137.04 250.41,137.12 250.61,137.26 250.81,137.45 251.01,137.70 251.21,138.01 251.41,138.37 251.61,138.78 251.82,139.24 252.02,139.74 252.22,140.30 252.42,140.90 252.62,141.55 252.82,142.23 253.02,142.96 253.22,143.73 253.42,144.54 253.63,145.38 253.83,146.26 254.03,147.16 254.23,148.10 254.43,149.07 254.63,150.06 254.83,151.08 255.03,152.12 255.23,153.19 255.43,154.27 255.64,155.37 255.84,156.48 256.04,157.61 256.24,158.74 256.44,159.89 256.64,161.05 256.84,162.21 257.04,163.38 257.24,164.54 257.45,165.71 257.65,166.88 257.85,168.04 258.05,169.20 258.25,170.35 258.45,171.50 258.65,172.63 258.85,173.75 259.05,174.86 259.25,175.95 259.46,177.02 259.66,178.07 259.86,179.11 260.06,180.12 260.26,181.11 260.46,182.07 260.66,183.01 260.86,183.93 261.06,184.81 261.27,185.67 261.47,186.50 261.67,187.29 261.87,188.06 262.07,188.80 262.27,189.51 262.47,190.19 262.67,190.83 262.87,191.45 263.07,192.03 263.28,192.59 263.48,193.11 263.68,193.60 263.88,194.06 264.08,194.49 264.28,194.89 264.48,195.27 264.68,195.61 264.88,195.92 265.09,196.21 265.29,196.47 265.49,196.70 265.69,196.91 265.89,197.09 266.09,197.24 266.29,197.38 266.49,197.49 266.69,197.57 266.89,197.64 267.10,197.69 267.30,197.72 267.50,197.73 267.70,197.73 267.90,197.71 268.10,197.68 268.30,197.64 268.50,197.59 268.70,197.53 268.91,197.46 269.11,197.38 269.31,197.30 269.51,197.22 269.71,197.13 269.91,197.04 270.11,196.95 270.31,196.86 270.51,196.77 270.71,196.68 270.92,196.60 271.12,196.52 271.32,196.45 271.52,196.38 271.72,196.32 271.92,196.27 272.12,196.23 272.32,196.20 272.52,196.17 272.73,196.16 272.93,196.16 273.13,196.17 273.33,196.20 273.53,196.24 273.73,196.29 273.93,196.36 274.13,196.44 274.33,196.54 274.53,196.66 274.74,196.79 274.94,196.94 275.14,197.11 275.34,197.29 275.54,197.50 275.74,197.72 275.94,197.96 276.14,198.23 276.34,198.51 276.55,198.81 276.75,199.13 276.95,199.48 277.15,199.84 277.35,200.23 277.55,200.64 277.75,201.07 277.95,201.52 278.15,201.99 278.35,202.48 278.56,203.00 278.76,203.54 278.96,204.10 279.16,204.69 279.36,205.30 279.56,205.92 279.76,206.57 279.96,207.25 280.16,207.94 280.36,208.65 280.57,209.39 280.77,210.15 280.97,210.93 281.17,211.72 281.37,212.54 281.57,213.38 281.77,214.25 281.97,215.13 282.17,216.03 282.38,216.95 282.58,217.90 282.78,218.86 282.98,219.84 283.18,220.85 283.38,221.87 283.58,222.91 283.78,223.97 283.98,225.05 284.18,226.15 284.39,227.26 284.59,228.39 284.79,229.54 284.99,230.71 285.19,231.89 285.39,233.09 285.59,234.30 285.79,235.53 285.99,236.77 286.20,238.03 286.40,239.30 286.60,240.58 286.80,241.87 287.00,243.17 287.20,244.48 287.40,245.80 287.60,247.13 287.80,248.47 288.00,249.82 288.21,251.17 288.41,252.54 288.61,253.91 288.81,255.28 289.01,256.66 289.21,258.05 289.41,259.44 289.61,260.84 289.81,262.23 290.02,263.63 290.22,265.03 290.42,266.43 290.62,267.82 290.82,269.22 291.02,270.61 291.22,271.99 291.42,273.37 291.62,274.74 291.82,276.09 292.03,277.44 292.23,278.78 292.43,280.10 292.63,281.40 292.83,282.69 293.03,283.96 293.23,285.21 293.43,286.44 293.63,287.64 293.84,288.82 294.04,289.97 294.24,291.09 294.44,292.18 294.64,293.24 294.84,294.27 295.04,295.26 295.24,296.22 295.44,297.13 295.64,298.01 295.85,298.85 296.05,299.64 296.25,300.39 296.45,301.10 296.65,301.76 296.85,302.38 297.05,302.95 297.25,303.47 297.45,303.94 297.66,304.36 297.86,304.73 298.06,305.05 298.26,305.32 298.46,305.54 298.66,305.71 298.86,305.82 299.06,305.88 299.26,305.89 299.46,305.85 299.67,305.75 299.87,305.61 300.07,305.40 300.27,305.15 300.47,304.85 300.67,304.49 300.87,304.08 301.07,303.63 301.27,303.12 301.48,302.56 301.68,301.96 301.88,301.31 302.08,300.62 302.28,299.88 302.48,299.10 302.68,298.28 302.88,297.41 303.08,296.51 303.28,295.57 303.49,294.60 303.69,293.59 303.89,292.55 304.09,291.48 304.29,290.37 304.49,289.24 304.69,288.08 304.89,286.90 305.09,285.70 305.30,284.47 305.50,283.22 305.70,281.96 305.90,280.68 306.10,279.38 306.30,278.07 306.50,276.75 306.70,275.42 306.90,274.08 307.10,272.73 307.31,271.38 307.51,270.03 307.71,268.67 307.91,267.31 308.11,265.96 308.31,264.61 308.51,263.27 308.71,261.94 308.91,260.61 309.12,259.29 309.32,257.99 309.52,256.70 309.72,255.42 309.92,254.15 310.12,252.91 310.32,251.68 310.52,250.47 310.72,249.27 310.92,248.10 311.13,246.94 311.33,245.81 311.53,244.70 311.73,243.61 311.93,242.54 312.13,241.50 312.33,240.47 312.53,239.47 312.73,238.50 312.94,237.54 313.14,236.61 313.34,235.71 313.54,234.83 313.74,233.97 313.94,233.14 314.14,232.33 314.34,231.54 314.54,230.78 314.74,230.05 314.95,229.34 315.15,228.65 315.35,227.98 315.55,227.34 315.75,226.73 315.95,226.13 316.15,225.56 316.35,225.02 316.55,224.50 316.76,224.00 316.96,223.52 317.16,223.07 317.36,222.64 317.56,222.23 317.76,221.85 317.96,221.48 318.16,221.14 318.36,220.82 318.56,220.52 318.77,220.24 318.97,219.98 319.17,219.74 319.37,219.52 319.57,219.31 319.77,219.13 319.97,218.96 320.17,218.80 320.37,218.67 320.58,218.54 320.78,218.44 320.98,218.34 321.18,218.26 321.38,218.20 321.58,218.14 321.78,218.10 321.98,218.08 322.18,218.06 322.38,218.06 322.59,218.07 322.79,218.09 322.99,218.12 323.19,218.16 323.39,218.22 323.59,218.28 323.79,218.36 323.99,218.45 324.19,218.54 324.40,218.65 324.60,218.77 324.80,218.89 325.00,219.03 325.20,219.18 325.40,219.33 325.60,219.50 325.80,219.67 326.00,219.86 326.20,220.05 326.41,220.25 326.61,220.46 326.81,220.67 327.01,220.89 327.21,221.13 327.41,221.36 327.61,221.61 327.81,221.86 328.01,222.13 328.22,222.39 328.42,222.67 328.62,222.96 328.82,223.25 329.02,223.55 329.22,223.86 329.42,224.18 329.62,224.50 329.82,224.83 330.02,225.17 330.23,225.52 330.43,225.87 330.63,226.23 330.83,226.59 331.03,226.96 331.23,227.33 331.43,227.71 331.63,228.09 331.83,228.48 332.04,228.87 332.24,229.26 332.44,229.65 332.64,230.04 332.84,230.43 333.04,230.82 333.24,231.22 333.44,231.61 333.64,231.99 333.84,232.38 334.05,232.76 334.25,233.14 334.45,233.52 334.65,233.89 334.85,234.25 335.05,234.61 335.25,234.97 335.45,235.31 335.65,235.66 335.86,235.99 336.06,236.32 336.26,236.64 336.46,236.95 336.66,237.25 336.86,237.55 337.06,237.84 337.26,238.12 337.46,238.39 337.66,238.65 337.87,238.91 338.07,239.15 338.27,239.39 338.47,239.62 338.67,239.84 338.87,240.05 339.07,240.25 339.27,240.44 339.47,240.62 339.68,240.80 339.88,240.96 340.08,241.11 340.28,241.25 340.48,241.38 340.68,241.50 340.88,241.61 341.08,241.70 341.28,241.78 341.48,241.86 341.69,241.92 341.89,241.97 342.09,242.00 342.29,242.03 342.49,242.05 342.69,242.05 342.89,242.05 343.09,242.03 343.29,242.01 343.50,241.97 343.70,241.92 343.90,241.87 344.10,241.81 344.30,241.73 344.50,241.65 344.70,241.56 344.90,241.46 345.10,241.36 345.30,241.25 345.51,241.13 345.71,241.00 345.91,240.87 346.11,240.73 346.31,240.58 346.51,240.43 346.71,240.27 346.91,240.10 347.11,239.93 347.32,239.75 347.52,239.56 347.72,239.37 347.92,239.17 348.12,238.97 348.32,238.77 348.52,238.56 348.72,238.34 348.92,238.13 349.12,237.91 349.33,237.68 349.53,237.46 349.73,237.22 349.93,236.99 350.13,236.76 350.33,236.52 350.53,236.28 350.73,236.04 350.93,235.79 351.14,235.55 351.34,235.30 351.54,235.05 351.74,234.80 351.94,234.54 352.14,234.29 352.34,234.03 352.54,233.77 352.74,233.51 352.94,233.25 353.15,232.99 353.35,232.73 353.55,232.47 353.75,232.20 353.95,231.93 354.15,231.67 354.35,231.40 354.55,231.13 354.75,230.86 354.96,230.59 355.16,230.32 355.36,230.05 355.56,229.78 355.76,229.50 355.96,229.23 356.16,228.96 356.36,228.69 356.56,228.42 356.76,228.15 356.97,227.88 357.17,227.61 357.37,227.34 357.57,227.08 357.77,226.82 357.97,226.55 358.17,226.29 358.37,226.03 358.57,225.78 358.78,225.52 358.98,225.27 359.18,225.02 359.38,224.76 359.58,224.51 359.78,224.26 359.98,224.02 360.18,223.77 360.38,223.52 360.58,223.27 360.79,223.02 360.99,222.78 361.19,222.53 361.39,222.28 361.59,222.04 361.79,221.79 361.99,221.55 362.19,221.31 362.39,221.07 362.60,220.83 362.80,220.59 363.00,220.36 363.20,220.12 363.40,219.90 363.60,219.67 363.80,219.45 364.00,219.23 364.20,219.02 364.40,218.81 364.61,218.60 364.81,218.40 365.01,218.21 365.21,218.02 365.41,217.83 365.61,217.65 365.81,217.48 366.01,217.31 366.21,217.15 366.42,216.99 366.62,216.84 366.82,216.70 367.02,216.56 367.22,216.43 367.42,216.30 367.62,216.19 367.82,216.08 368.02,215.97 368.22,215.88 368.43,215.79 368.63,215.71 368.83,215.64 369.03,215.57 369.23,215.52 369.43,215.47 369.63,215.43 369.83,215.40 370.03,215.39 370.24,215.37 370.44,215.37 370.64,215.38 370.84,215.39 371.04,215.42 371.24,215.45 371.44,215.49 371.64,215.53 371.84,215.58 372.04,215.64 372.25,215.71 372.45,215.78 372.65,215.86 372.85,215.95 373.05,216.04 373.25,216.13 373.45,216.23 373.65,216.33 373.85,216.44 374.06,216.55 374.26,216.67 374.46,216.78 374.66,216.91 374.86,217.03 375.06,217.16 375.26,217.29 375.46,217.42 375.66,217.55 375.86,217.69 376.07,217.83 376.27,217.97 376.47,218.11 376.67,218.26 376.87,218.40 377.07,218.55 377.27,218.70 377.47,218.85 377.67,219.00 377.88,219.15 378.08,219.30 378.28,219.46 378.48,219.61 378.68,219.76 378.88,219.92 379.08,220.07 379.28,220.23 379.48,220.38 379.68,220.53 379.89,220.68 380.09,220.83 380.29,220.98 380.49,221.12 380.69,221.26 380.89,221.40 381.09,221.53 381.29,221.66 381.49,221.79 381.70,221.92 381.90,222.04 382.10,222.16 382.30,222.28 382.50,222.40 382.70,222.51 382.90,222.62 383.10,222.73 383.30,222.83 383.50,222.93 383.71,223.04 383.91,223.14 384.11,223.24 384.31,223.34 384.51,223.43 384.71,223.53 384.91,223.62 385.11,223.72 385.31,223.81 385.52,223.91 385.72,224.01 385.92,224.10 386.12,224.20 386.32,224.30 386.52,224.40 386.72,224.49 386.92,224.60 387.12,224.70 387.32,224.80 387.53,224.91 387.73,225.01 387.93,225.12 388.13,225.24 388.33,225.36 388.53,225.48 388.73,225.60 388.93,225.73 389.13,225.87 389.34,226.01 389.54,226.16 389.74,226.31 389.94,226.47 390.14,226.64 390.34,226.81 390.54,226.99 390.74,227.17 390.94,227.36 391.14,227.56 391.35,227.76 391.55,227.97 391.75,228.18 391.95,228.41 392.15,228.63 392.35,228.86 392.55,229.10 392.75,229.34 392.95,229.59 393.16,229.84 393.36,230.10 393.56,230.36 393.76,230.63 393.96,230.90 394.16,231.17 394.36,231.45 394.56,231.73 394.76,232.02 394.96,232.31 395.17,232.60 395.37,232.89 395.57,233.18 395.77,233.48 395.97,233.77 396.17,234.07 396.37,234.37 396.57,234.66 396.77,234.96 396.98,235.26 397.18,235.55 397.38,235.85 397.58,236.14 397.78,236.43 397.98,236.72 398.18,237.01 398.38,237.30 398.58,237.59 398.78,237.87 398.99,238.15 399.19,238.43 399.39,238.71 399.59,238.99 399.79,239.26 399.99,239.52 400.19,239.79 400.39,240.05 400.59,240.30 400.80,240.55 401.00,240.79 401.20,241.03 401.40,241.27 401.60,241.49 401.80,241.71 402.00,241.92 402.20,242.13 402.40,242.33 402.60,242.53 402.81,242.71 403.01,242.90 403.21,243.07 403.41,243.24 403.61,243.40 403.81,243.56 404.01,243.71 404.21,243.85 404.41,243.99 404.62,244.12 404.82,244.25 405.02,244.37 405.22,244.49 405.42,244.60 405.62,244.71 405.82,244.82 406.02,244.92 406.22,245.02 406.42,245.11 406.63,245.20 406.83,245.29 407.03,245.37 407.23,245.45 407.43,245.53 407.63,245.61 407.83,245.70 408.03,245.78 408.23,245.86 408.44,245.94 408.64,246.03 408.84,246.12 409.04,246.21 409.24,246.30 409.44,246.40 409.64,246.51 409.84,246.61 410.04,246.72 410.24,246.84 410.45,246.96 410.65,247.09 410.85,247.22 411.05,247.35 411.25,247.49 411.45,247.64 411.65,247.79 411.85,247.94 412.05,248.10 412.26,248.26 412.46,248.43 412.66,248.60 412.86,248.78 413.06,248.96 413.26,249.14 413.46,249.33 413.66,249.52 413.86,249.72 414.06,249.91 414.27,250.11 414.47,250.32 414.67,250.52 414.87,250.73 415.07,250.94 415.27,251.15 415.47,251.36 415.67,251.58 415.87,251.79 416.08,252.01 416.28,252.23 416.48,252.44 416.68,252.66 416.88,252.89 417.08,253.11 417.28,253.33 417.48,253.56 417.68,253.78 417.88,254.01 418.09,254.24 418.29,254.47 418.49,254.70 418.69,254.94 418.89,255.17 419.09,255.41 419.29,255.64 419.49,255.89 419.69,256.13 419.90,256.37 420.10,256.62 420.30,256.86 420.50,257.11 420.70,257.36 420.90,257.61 421.10,257.86 421.30,258.11 421.50,258.36 421.70,258.61 421.91,258.86 422.11,259.11 422.31,259.36 422.51,259.61 422.71,259.86 422.91,260.11 423.11,260.36 423.31,260.61 423.51,260.86 423.72,261.11 423.92,261.36 424.12,261.61 424.32,261.86 424.52,262.11 424.72,262.36 424.92,262.61 425.12,262.86 425.32,263.11 425.52,263.36 425.73,263.62 425.93,263.87 426.13,264.13 426.33,264.38 426.53,264.64 426.73,264.90 426.93,265.16 427.13,265.42 427.33,265.68 427.54,265.94 427.74,266.21 427.94,266.48 428.14,266.75 428.34,267.03 428.54,267.31 428.74,267.59 428.94,267.88 429.14,268.18 429.34,268.48 429.55,268.78 429.75,269.10 429.95,269.41 430.15,269.73 430.35,270.06 430.55,270.39 430.75,270.72 430.95,271.06 431.15,271.41 431.36,271.76 431.56,272.11 431.76,272.47 431.96,272.83 432.16,273.20 432.36,273.57 432.56,273.95 432.76,274.32 432.96,274.70 433.16,275.08 433.37,275.47 433.57,275.85 433.77,276.24 433.97,276.62 434.17,277.01 434.37,277.39 434.57,277.77 434.77,278.15 434.97,278.53 435.18,278.90 435.38,279.27 435.58,279.63 435.78,279.99 435.98,280.35 436.18,280.69 436.38,281.04 436.58,281.37 436.78,281.70 436.98,282.02 437.19,282.34 437.39,282.64 437.59,282.94 437.79,283.22 437.99,283.50 438.19,283.77 438.39,284.03 438.59,284.27 438.79,284.51 439.00,284.73 439.20,284.94 439.40,285.14 439.60,285.33 439.80,285.50 440.00,285.66 440.20,285.80 440.40,285.93 440.60,286.05 440.80,286.15 441.01,286.23 441.21,286.29 441.41,286.34 441.61,286.37 441.81,286.39 442.01,286.38 442.21,286.36 442.41,286.32 442.61,286.27 442.82,286.19 443.02,286.10 443.22,285.99 443.42,285.86 443.62,285.72 443.82,285.56 444.02,285.38 444.22,285.19 444.42,284.99 444.62,284.77 444.83,284.54 445.03,284.29 445.23,284.04 445.43,283.77 445.63,283.50 445.83,283.22 446.03,282.93 446.23,282.63 446.43,282.32 446.64,282.01 446.84,281.68 447.04,281.35 447.24,281.02 447.44,280.68 447.64,280.33 447.84,279.98 448.04,279.62 448.24,279.26 448.44,278.89 448.65,278.53 448.85,278.16 449.05,277.79 449.25,277.41 449.45,277.04 449.65,276.67 449.85,276.29 450.05,275.91 450.25,275.53 450.46,275.15 450.66,274.77 450.86,274.38 451.06,274.00 451.26,273.62 451.46,273.23 451.66,272.85 451.86,272.46 452.06,272.08 452.26,271.70 452.47,271.32 452.67,270.95 452.87,270.57 453.07,270.21 453.27,269.84 453.47,269.49 453.67,269.13 453.87,268.79 454.07,268.45 454.28,268.12 454.48,267.79 454.68,267.48 454.88,267.17 455.08,266.87 455.28,266.58 455.48,266.30 455.68,266.03 455.88,265.77 456.08,265.52 456.29,265.29 456.49,265.06 456.69,264.85 456.89,264.66 457.09,264.48 457.29,264.31 457.49,264.16 457.69,264.02 457.89,263.90 458.10,263.80 458.30,263.72 458.50,263.65 458.70,263.60 458.90,263.57 459.10,263.56 459.30,263.56 459.50,263.59 459.70,263.63 459.90,263.70 460.11,263.78 460.31,263.89 460.51,264.01 460.71,264.15 460.91,264.31 461.11,264.49 461.31,264.68 461.51,264.90 461.71,265.12 461.92,265.37 462.12,265.62 462.32,265.89 462.52,266.18 462.72,266.47 462.92,266.77 463.12,267.09 463.32,267.41 463.52,267.75 463.72,268.09 463.93,268.43 464.13,268.78 464.33,269.14 464.53,269.50 464.73,269.87 464.93,270.23 465.13,270.60 465.33,270.98 465.53,271.35 465.74,271.72 465.94,272.10 466.14,272.47 466.34,272.84 466.54,273.21 466.74,273.57 466.94,273.93 467.14,274.28 467.34,274.63 467.54,274.97 467.75,275.30 467.95,275.63 468.15,275.94 468.35,276.25 468.55,276.55 468.75,276.83 468.95,277.11 469.15,277.38 469.35,277.64 469.56,277.89 469.76,278.12 469.96,278.35 470.16,278.57 470.36,278.77 470.56,278.96 470.76,279.15 470.96,279.32 471.16,279.48 471.36,279.62 471.57,279.76 471.77,279.89 471.97,280.00 472.17,280.10 472.37,280.19 472.57,280.26 472.77,280.33 472.97,280.38 473.17,280.42 473.38,280.45 473.58,280.46 473.78,280.47 473.98,280.46 474.18,280.44 474.38,280.40 474.58,280.36 474.78,280.30 474.98,280.23 475.18,280.14 475.39,280.05 475.59,279.94 475.79,279.82 475.99,279.69 476.19,279.55 476.39,279.40 476.59,279.25 476.79,279.08 476.99,278.91 477.20,278.73 477.40,278.55 477.60,278.36 477.80,278.17 478.00,277.98 478.20,277.78 478.40,277.58 478.60,277.37 478.80,277.17 479.00,276.96 479.21,276.76 479.41,276.55 479.61,276.34 479.81,276.14 480.01,275.93 480.21,275.73 480.41,275.53 480.61,275.34 480.81,275.14 481.02,274.95 481.22,274.77 481.42,274.58 481.62,274.40 481.82,274.23 482.02,274.06 482.22,273.89 482.42,273.72 482.62,273.56 482.82,273.41 483.03,273.26 483.23,273.11 483.43,272.97 483.63,272.84 483.83,272.71 484.03,272.59 484.23,272.47 484.43,272.36 484.63,272.25 484.84,272.15 485.04,272.06 485.24,271.97 485.44,271.89 485.64,271.82 485.84,271.76 486.04,271.70 486.24,271.65 486.44,271.61 486.64,271.57 486.85,271.54 487.05,271.51 487.25,271.49 487.45,271.48 487.65,271.47 487.85,271.47 488.05,271.47 488.25,271.48 488.45,271.49 488.66,271.51 488.86,271.53 489.06,271.55 489.26,271.58 489.46,271.61 489.66,271.64 489.86,271.67 490.06,271.69 490.26,271.72 490.46,271.75 490.67,271.78 490.87,271.80 491.07,271.82 491.27,271.83 491.47,271.84 491.67,271.84 491.87,271.84 492.07,271.82 492.27,271.80 492.48,271.76 492.68,271.71 492.88,271.65 493.08,271.58 493.28,271.49 493.48,271.38 493.68,271.26 493.88,271.12 494.08,270.96 494.28,270.79 494.49,270.59 494.69,270.38 494.89,270.15 495.09,269.91 495.29,269.64 495.49,269.36 495.69,269.06 495.89,268.74 496.09,268.41 496.30,268.06 496.50,267.69 496.70,267.31 496.90,266.91 497.10,266.50 497.30,266.08 497.50,265.64 497.70,265.19 497.90,264.73 498.10,264.26 498.31,263.78 498.51,263.29 498.71,262.79 498.91,262.28 499.11,261.77 499.31,261.25 499.51,260.72 499.71,260.19 499.91,259.65 500.12,259.11 500.32,258.56 500.52,258.01 500.72,257.46 500.92,256.91 501.12,256.35 501.32,255.80 501.52,255.25 501.72,254.70 501.92,254.15 502.13,253.60 502.33,253.06 502.53,252.53 502.73,251.99 502.93,251.46 503.13,250.94 503.33,250.43 503.53,249.92 503.73,249.41 503.94,248.92 504.14,248.43 504.34,247.95 504.54,247.48 504.74,247.01 504.94,246.55 505.14,246.11 505.34,245.67 505.54,245.24 505.74,244.83 505.95,244.42 506.15,244.03 506.35,243.65 506.55,243.28 506.75,242.92 506.95,242.57 507.15,242.23 507.35,241.90 507.55,241.59 507.76,241.29 507.96,240.99 508.16,240.71 508.36,240.44 508.56,240.19 508.76,239.94 508.96,239.70 509.16,239.47 509.36,239.25 509.56,239.04 509.77,238.84 509.97,238.64 510.17,238.46 510.37,238.28 510.57,238.11 510.77,237.94 510.97,237.78 511.17,237.62 511.37,237.46 511.58,237.32 511.78,237.17 511.98,237.03 512.18,236.89 512.38,236.75 512.58,236.61 512.78,236.48 512.98,236.35 513.18,236.22 513.38,236.09 513.59,235.96 513.79,235.84 513.99,235.71 514.19,235.58 514.39,235.45 514.59,235.33 514.79,235.20 514.99,235.07 515.19,234.93 515.40,234.80 515.60,234.67 515.80,234.53 516.00,234.40 516.20,234.26 516.40,234.12 516.60,233.98 516.80,233.83 517.00,233.69 517.20,233.55 517.41,233.41 517.61,233.26 517.81,233.12 518.01,232.98 518.21,232.84 518.41,232.70 518.61,232.56 518.81,232.42 519.01,232.28 519.22,232.14 519.42,232.01 519.62,231.88 519.82,231.75 520.02,231.62 520.22,231.50 520.42,231.38 520.62,231.26 520.82,231.15 521.02,231.04 521.23,230.93 521.43,230.83 521.63,230.74 521.83,230.65 522.03,230.56 522.23,230.48 522.43,230.40 522.63,230.33 522.83,230.26 523.04,230.19 523.24,230.13 523.44,230.07 523.64,230.01 523.84,229.96 524.04,229.90 524.24,229.86 524.44,229.81 524.64,229.76 524.84,229.72 525.05,229.68 525.25,229.64 525.45,229.59 525.65,229.55 525.85,229.51 526.05,229.47 526.25,229.44 526.45,229.40 526.65,229.36 526.86,229.32 527.06,229.27 527.26,229.23 527.46,229.19 527.66,229.15 527.86,229.11 528.06,229.06 528.26,229.02 528.46,228.98 528.66,228.93 528.87,228.89 529.07,228.84 529.27,228.80 529.47,228.75 529.67,228.70 529.87,228.65 530.07,228.60 530.27,228.55 530.47,228.50 530.68,228.44 530.88,228.39 531.08,228.33 531.28,228.27 531.48,228.21 531.68,228.14 531.88,228.07 532.08,228.00 532.28,227.93 532.48,227.85 532.69,227.77 532.89,227.69 533.09,227.60 533.29,227.51 533.49,227.42 533.69,227.32 533.89,227.22 534.09,227.12 534.29,227.01 534.50,226.90 534.70,226.79 534.90,226.67 535.10,226.55 535.30,226.42 535.50,226.30 535.70,226.17 535.90,226.03 536.10,225.90 536.30,225.76 536.51,225.62 536.71,225.47 536.91,225.33 537.11,225.18 537.31,225.03 537.51,224.88 537.71,224.73 537.91,224.58 538.11,224.42 538.32,224.27 538.52,224.12 538.72,223.96 538.92,223.80 539.12,223.65 539.32,223.49 539.52,223.33 539.72,223.18 539.92,223.02 540.12,222.86 540.33,222.71 540.53,222.55 540.73,222.40 540.93,222.24 541.13,222.09 541.33,221.94 541.53,221.78 541.73,221.63 541.93,221.48 542.14,221.33 542.34,221.18 542.54,221.03 542.74,220.88 542.94,220.73 543.14,220.57 543.34,220.42 543.54,220.26 543.74,220.10 543.94,219.94 544.15,219.77 544.35,219.60 544.55,219.43 544.75,219.25 544.95,219.07 545.15,218.89 545.35,218.70 545.55,218.51 545.75,218.32 545.96,218.12 546.16,217.92 546.36,217.71 546.56,217.50 546.76,217.29 546.96,217.08 547.16,216.86 547.36,216.64 547.56,216.41 547.76,216.19 547.97,215.96 548.17,215.73 548.37,215.49 548.57,215.26 548.77,215.02 548.97,214.78 549.17,214.54 549.37,214.29 549.57,214.04 549.78,213.79 549.98,213.54 550.18,213.29 550.38,213.03 550.58,212.78 550.78,212.52 550.98,212.25 551.18,211.99 551.38,211.73 551.58,211.46 551.79,211.19 551.99,210.92 552.19,210.65 552.39,210.38 552.59,210.11 552.79,209.84 552.99,209.56 553.19,209.29 553.39,209.01 553.60,208.73 553.80,208.46 554.00,208.18 554.20,207.90 554.40,207.61 554.60,207.33 554.80,207.05 555.00,206.76 555.20,206.47 555.40,206.18 555.61,205.89 555.81,205.60 556.01,205.31 556.21,205.01 556.41,204.71 556.61,204.40 556.81,204.09 557.01,203.78 557.21,203.47 557.42,203.15 557.62,202.83 557.82,202.50 558.02,202.17 558.22,201.84 558.42,201.50 558.62,201.15 558.82,200.80 559.02,200.44 559.22,200.08 559.43,199.70 559.63,199.33 559.83,198.94 560.03,198.54 560.23,198.14 560.43,197.73 560.63,197.31 560.83,196.88 561.03,196.44 561.24,195.99 561.44,195.53 561.64,195.05 561.84,194.57 562.04,194.07 562.24,193.56 562.44,193.03 562.64,192.49 562.84,191.94 563.04,191.37 563.25,190.78 563.45,190.17 563.65,189.55 563.85,188.90 564.05,188.24 564.25,187.56 564.45,186.86 564.65,186.14 564.85,185.39 565.06,184.63 565.26,183.85 565.46,183.04 565.66,182.21 565.86,181.36 566.06,180.50 566.26,179.61 566.46,178.70 566.66,177.77 566.86,176.83 567.07,175.86 567.27,174.88 567.47,173.88 567.67,172.87 567.87,171.84 568.07,170.79 568.27,169.73 568.47,168.66 568.67,167.57 568.88,166.47 569.08,165.36 569.28,164.23 569.48,163.09 569.68,161.95 569.88,160.79 570.08,159.62 570.28,158.44 570.48,157.26 570.68,156.07 570.89,154.87 571.09,153.67 571.29,152.46 571.49,151.25 571.69,150.03 571.89,148.81 572.09,147.59 572.29,146.36 572.49,145.14 572.70,143.91 572.90,142.69 573.10,141.47 573.30,140.25 573.50,139.03 573.70,137.82 573.90,136.61 574.10,135.41 574.30,134.21 574.50,133.03 574.71,131.85 574.91,130.68 575.11,129.52 575.31,128.38 575.51,127.25 575.71,126.13 575.91,125.02 576.11,123.93 576.31,122.86 576.52,121.80 576.72,120.75 576.92,119.73 577.12,118.72 577.32,117.73 577.52,116.76 577.72,115.81 577.92,114.88 578.12,113.96 578.32,113.07 578.53,112.19 578.73,111.34 578.93,110.50 579.13,109.68 579.33,108.87 579.53,108.09 579.73,107.31 579.93,106.56 580.13,105.82 580.34,105.09 580.54,104.37 580.74,103.67 580.94,102.98 581.14,102.31 581.34,101.64 581.54,100.98 581.74,100.34 581.94,99.70 582.14,99.07 582.35,98.45 582.55,97.83 582.75,97.22 582.95,96.62 583.15,96.02 583.35,95.43 583.55,94.84 583.75,94.26 583.95,93.68 584.16,93.11 584.36,92.53 584.56,91.97 584.76,91.40 584.96,90.84 585.16,90.27 585.36,89.71 585.56,89.16 585.76,88.60 585.96,88.04 586.17,87.48 586.37,86.93 586.57,86.37 586.77,85.81 586.97,85.26 587.17,84.70 587.37,84.14 587.57,83.58 587.77,83.03 587.98,82.46 588.18,81.90 588.38,81.34 588.58,80.78 588.78,80.21 588.98,79.64 589.18,79.08 589.38,78.51 589.58,77.95 589.78,77.38 589.99,76.82 590.19,76.25 590.39,75.69 590.59,75.13 590.79,74.58 590.99,74.03 591.19,73.48 591.39,72.94 591.59,72.41 591.80,71.88 592.00,71.36 592.20,70.86 592.40,70.36 592.60,69.87 592.80,69.40 593.00,68.94 593.20,68.49 593.40,68.06 593.60,67.65 593.81,67.25 594.01,66.88 594.21,66.52 594.41,66.18 594.61,65.87 594.81,65.58 595.01,65.31 595.21,65.06 595.41,64.84 595.62,64.65 595.82,64.48 596.02,64.33 596.22,64.21 596.42,64.12 596.62,64.05 596.82,64.01 597.02,64.00 597.22,64.02 597.42,64.06 597.63,64.14 597.83,64.24 598.03,64.38 598.23,64.54 598.43,64.73 598.63,64.96 598.83,65.21 599.03,65.49 599.23,65.80 599.44,66.14 599.64,66.51 599.84,66.90 600.04,67.32 600.24,67.76 600.44,68.23 600.64,68.73 600.84,69.25 601.04,69.79 601.24,70.36 601.45,70.95 601.65,71.55 601.85,72.18 602.05,72.83 602.25,73.50 602.45,74.18 602.65,74.88 602.85,75.59 603.05,76.32 603.26,77.06 603.46,77.81 603.66,78.57 603.86,79.34 604.06,80.12 604.26,80.91 604.46,81.70 604.66,82.49 604.86,83.29 605.06,84.09 605.27,84.89 605.47,85.68 605.67,86.48 605.87,87.27 606.07,88.06 606.27,88.84 606.47,89.61 606.67,90.38 606.87,91.14 607.08,91.89 607.28,92.63 607.48,93.36 607.68,94.08 607.88,94.78 608.08,95.48 608.28,96.15 608.48,96.82 608.68,97.46 608.88,98.09 609.09,98.71 609.29,99.31 609.49,99.88 609.69,100.44 609.89,100.99 610.09,101.51 610.29,102.01 610.49,102.49 610.69,102.95 610.90,103.39 611.10,103.80 611.30,104.20 611.50,104.57 611.70,104.92 611.90,105.24 612.10,105.54 612.30,105.82 612.50,106.08 612.70,106.31 612.91,106.52 613.11,106.70 613.31,106.86 613.51,106.99 613.71,107.10 613.91,107.19 614.11,107.25 614.31,107.28 614.51,107.29 614.72,107.28 614.92,107.24 615.12,107.18 615.32,107.10 615.52,106.99 615.72,106.86 615.92,106.71 616.12,106.53 616.32,106.33 616.52,106.11 616.73,105.87 616.93,105.61 617.13,105.33 617.33,105.03 617.53,104.71 617.73,104.38 617.93,104.02 618.13,103.65 618.33,103.27 618.54,102.87 618.74,102.45 618.94,102.02 619.14,101.58 619.34,101.13 619.54,100.66 619.74,100.19 619.94,99.71 620.14,99.21 620.34,98.71 620.55,98.20 620.75,97.68 620.95,97.15 621.15,96.62 621.35,96.09 621.55,95.55 621.75,95.01 621.95,94.46 622.15,93.91 622.36,93.37 622.56,92.82 622.76,92.27 622.96,91.73 623.16,91.18 623.36,90.64 623.56,90.11 623.76,89.57 623.96,89.04 624.16,88.52 624.37,88.00 624.57,87.49 624.77,86.98 624.97,86.49 625.17,86.00 625.37,85.52 625.57,85.06 625.77,84.60 625.97,84.16 626.18,83.73 626.38,83.32 626.58,82.93 626.78,82.55 626.98,82.19 627.18,81.84 627.38,81.52 627.58,81.21 627.78,80.92 627.98,80.66 628.19,80.41 628.39,80.19 628.59,79.99 628.79,79.81 628.99,79.65 629.19,79.52 629.39,79.41 629.59,79.33 629.79,79.27 630.00,79.24 630.20,79.23 630.40,79.25 630.60,79.29 630.80,79.36 631.00,79.45 631.20,79.57 631.40,79.72 631.60,79.89 631.80,80.08 632.01,80.30 632.21,80.54 632.41,80.81 632.61,81.10 632.81,81.41 633.01,81.75 633.21,82.11 633.41,82.49 633.61,82.89 633.82,83.31 634.02,83.76 634.22,84.22 634.42,84.70 634.62,85.20 634.82,85.72 635.02,86.25 635.22,86.80 635.42,87.37 635.62,87.95 635.83,88.55 636.03,89.16 636.23,89.79 636.43,90.42 636.63,91.07 636.83,91.74 637.03,92.41 637.23,93.09 637.43,93.79 637.64,94.49 637.84,95.21 638.04,95.93 638.24,96.66 638.44,97.40 638.64,98.14 638.84,98.90 639.04,99.66 639.24,100.43 639.44,101.20 639.65,101.98 639.85,102.77 640.05,103.56 640.25,104.35 640.45,105.16 640.65,105.96 640.85,106.77 641.05,107.59 641.25,108.42 641.45,109.24 641.66,110.08 641.86,110.91 642.06,111.76 642.26,112.61 642.46,113.46 642.66,114.32 642.86,115.19 643.06,116.06 643.26,116.94 643.47,117.82 643.67,118.71 643.87,119.61 644.07,120.51 644.27,121.42 644.47,122.34 644.67,123.26 644.87,124.19 645.07,125.13 645.27,126.08 645.48,127.03 645.68,128.00 645.88,128.97 646.08,129.95 646.28,130.95 646.48,131.96 646.68,132.98 646.88,134.01 647.08,135.06 647.29,136.13 647.49,137.22 647.69,138.32 647.89,139.44 648.09,140.58 648.29,141.74 648.49,142.92 648.69,144.13 648.89,145.36 649.09,146.61 649.30,147.89 649.50,149.19 649.70,150.52 649.90,151.87 650.10,153.26 650.30,154.67 650.50,156.11 650.70,157.57 650.90,159.07 651.11,160.60 651.31,162.15 651.51,163.74 651.71,165.35 651.91,167.00 652.11,168.67 652.31,170.38 652.51,172.11 652.71,173.88 652.91,175.67 653.12,177.50 653.32,179.35 653.52,181.22 653.72,183.13 653.92,185.06 654.12,187.02 654.32,189.00 654.52,191.00 654.72,193.03 654.93,195.07 655.13,197.14 655.33,199.23 655.53,201.33 655.73,203.45 655.93,205.58 656.13,207.73 656.33,209.88 656.53,212.05 656.73,214.23 656.94,216.41 657.14,218.60 657.34,220.79 657.54,222.99 657.74,225.19 657.94,227.38 658.14,229.58 658.34,231.77 658.54,233.95 658.75,236.13 658.95,238.30 659.15,240.46 659.35,242.61 659.55,244.75 659.75,246.87 659.95,248.97 660.15,251.06 660.35,253.13 660.55,255.18 660.76,257.20 660.96,259.20 661.16,261.18 661.36,263.12 661.56,265.04 661.76,266.93 661.96,268.78 662.16,270.60 662.36,272.39 662.57,274.13 662.77,275.84 662.97,277.51 663.17,279.13 663.37,280.71 663.57,282.25 663.77,283.73 663.97,285.17 664.17,286.56 664.37,287.90 664.58,289.19 664.78,290.42 664.98,291.59 665.18,292.71 665.38,293.78 665.58,294.78 665.78,295.73 665.98,296.62 666.18,297.45 666.39,298.22 666.59,298.94 666.79,299.59 666.99,300.18 667.19,300.71 667.39,301.19 667.59,301.60 667.79,301.96 667.99,302.25 668.19,302.49 668.40,302.67 668.60,302.80 668.80,302.87 669.00,302.88 669.20,302.85 669.40,302.76 669.60,302.61 669.80,302.42 670.00,302.18 670.21,301.89 670.41,301.55 670.61,301.16 670.81,300.74 671.01,300.26 671.21,299.75 671.41,299.19 671.61,298.60 671.81,297.96 672.01,297.29 672.22,296.59 672.42,295.85 672.62,295.07 672.82,294.27 673.02,293.44 673.22,292.58 673.42,291.70 673.62,290.79 673.82,289.86 674.03,288.91 674.23,287.94 674.43,286.95 674.63,285.94 674.83,284.92 675.03,283.89 675.23,282.85 675.43,281.80 675.63,280.75 675.83,279.69 676.04,278.62 676.24,277.55 676.44,276.49 676.64,275.42 676.84,274.35 677.04,273.29 677.24,272.23 677.44,271.19 677.64,270.15 677.85,269.12 678.05,268.10 678.25,267.09 678.45,266.10 678.65,265.13 678.85,264.17 679.05,263.23 679.25,262.31 679.45,261.41 679.65,260.54 679.86,259.69 680.06,258.86 680.26,258.05 680.46,257.28 680.66,256.52 680.86,255.80 681.06,255.11 681.26,254.44 681.46,253.80 681.67,253.20 681.87,252.62 682.07,252.07 682.27,251.55 682.47,251.07 682.67,250.61 682.87,250.18 683.07,249.79 683.27,249.42 683.47,249.08 683.68,248.77 683.88,248.49 684.08,248.23 684.28,248.00 684.48,247.80 684.68,247.63 684.88,247.48 685.08,247.35 685.28,247.25 685.49,247.17 685.69,247.12 685.89,247.09 686.09,247.08 686.29,247.10 686.49,247.13 686.69,247.19 686.89,247.26 687.09,247.36 687.29,247.47 687.50,247.60 687.70,247.75 687.90,247.92 688.10,248.10 688.30,248.30 688.50,248.51 688.70,248.74 688.90,248.97 689.10,249.22 689.31,249.47 689.51,249.73 689.71,250.00 689.91,250.27 690.11,250.55 690.31,250.82 690.51,251.10 690.71,251.37 690.91,251.64 691.11,251.90 691.32,252.15 691.52,252.39 691.72,252.62 691.92,252.83 692.12,253.03 692.32,253.21 692.52,253.37 692.72,253.51 692.92,253.63 693.13,253.72 693.33,253.79 693.53,253.82 693.73,253.83 693.93,253.81 694.13,253.75 694.33,253.66 694.53,253.53 694.73,253.36 694.93,253.16 695.14,252.92 695.34,252.63 695.54,252.31 695.74,251.94 695.94,251.53 696.14,251.07 696.34,250.57 696.54,250.02 696.74,249.42 696.95,248.78 697.15,248.09 697.35,247.35 697.55,246.57 697.75,245.73 697.95,244.85 698.15,243.92 698.35,242.94 698.55,241.92 698.75,240.85 698.96,239.73 699.16,238.56 699.36,237.35 699.56,236.09 699.76,234.79 699.96,233.44 700.16,232.05 700.36,230.61 700.56,229.14 700.77,227.62 700.97,226.06 701.17,224.46 701.37,222.82 701.57,221.14 701.77,219.42 701.97,217.67 702.17,215.89 702.37,214.07 702.57,212.21 702.78,210.33 702.98,208.41 703.18,206.47 703.38,204.50 703.58,202.50 703.78,200.48 703.98,198.43 704.18,196.36 704.38,194.27 704.59,192.16 704.79,190.03 704.99,187.88 705.19,185.72 705.39,183.55 705.59,181.36 705.79,179.16 705.99,176.95 706.19,174.74 706.39,172.52 706.60,170.29 706.80,168.07 707.00,165.84 707.20,163.62 707.40,161.40 707.60,159.19 707.80,156.98 708.00,154.79 708.20,152.60 708.41,150.43 708.61,148.28 708.81,146.15 709.01,144.03 709.21,141.94 709.41,139.88 709.61,137.84 709.81,135.82 710.01,133.84 710.21,131.89 710.42,129.97 710.62,128.08 710.82,126.23 711.02,124.42 711.22,122.65 711.42,120.92 711.62,119.23 711.82,117.59 712.02,115.99 712.23,114.43 712.43,112.92 712.63,111.46 712.83,110.05 713.03,108.69 713.23,107.38 713.43,106.12 713.63,104.91 713.83,103.76 714.03,102.65 714.24,101.61 714.44,100.61 714.64,99.68 714.84,98.79 715.04,97.97 715.24,97.20 715.44,96.48 715.64,95.82 715.84,95.22 716.05,94.67 716.25,94.18 716.45,93.74 716.65,93.36 716.85,93.03 717.05,92.76 717.25,92.55 717.45,92.38 717.65,92.28 717.85,92.22 718.06,92.22 718.26,92.27 718.46,92.38 718.66,92.53 718.86,92.73 719.06,92.99 719.26,93.29 719.46,93.64 719.66,94.04 719.87,94.49 720.07,94.98 720.27,95.52 720.47,96.09 720.67,96.72 720.87,97.38 721.07,98.08 721.27,98.83 721.47,99.61 721.67,100.43 721.88,101.28 722.08,102.17 722.28,103.10 722.48,104.05 722.68,105.04 722.88,106.06 723.08,107.11 723.28,108.18 723.48,109.29 723.69,110.42 723.89,111.57 724.09,112.74 724.29,113.94 724.49,115.16 724.69,116.39 724.89,117.64 725.09,118.91 725.29,120.19 725.49,121.49 725.70,122.80 725.90,124.12 726.10,125.45 726.30,126.79 726.50,128.14 726.70,129.50 726.90,130.87 727.10,132.24 727.30,133.62 727.51,135.00 727.71,136.39 727.91,137.78 728.11,139.17 728.31,140.57 728.51,141.97 728.71,143.37 728.91,144.77 729.11,146.18 729.31,147.58 729.52,148.98 729.72,150.39 729.92,151.79 730.12,153.19 730.32,154.59 730.52,155.98 730.72,157.38 730.92,158.77 731.12,160.15 731.33,161.53 731.53,162.91 731.73,164.27 731.93,165.64 732.13,166.99 732.33,168.34 732.53,169.67 732.73,171.00 732.93,172.31 733.13,173.62 733.34,174.91 733.54,176.19 733.74,177.46 733.94,178.72 734.14,179.96 734.34,181.18 734.54,182.39 734.74,183.58 734.94,184.76 735.15,185.92 735.35,187.06 735.55,188.18 735.75,189.28 735.95,190.36 736.15,191.42 736.35,192.46 736.55,193.48 736.75,194.48 736.95,195.46 737.16,196.41 737.36,197.34 737.56,198.24 737.76,199.12 737.96,199.98 738.16,200.82 738.36,201.63 738.56,202.41 738.76,203.18 738.97,203.91 739.17,204.62 739.37,205.31 739.57,205.97 739.77,206.61 739.97,207.22 740.17,207.81 740.37,208.37 740.57,208.91 740.77,209.42 740.98,209.91 741.18,210.37 741.38,210.81 741.58,211.23 741.78,211.62 741.98,211.98 742.18,212.32 742.38,212.64 742.58,212.94 742.79,213.21 742.99,213.46 743.19,213.68 743.39,213.88 743.59,214.05 743.79,214.21 743.99,214.34 744.19,214.44 744.39,214.53 744.59,214.59 744.80,214.63 745.00,214.64 745.20,214.64 745.40,214.61 745.60,214.56 745.80,214.49 746.00,214.40 746.20,214.29 746.40,214.16 746.61,214.02 746.81,213.85 747.01,213.67 747.21,213.47 747.41,213.26 747.61,213.03 747.81,212.78 748.01,212.52 748.21,212.25 748.41,211.97 748.62,211.68 748.82,211.37 749.02,211.06 749.22,210.74 749.42,210.41 749.62,210.07 749.82,209.72 750.02,209.37 750.22,209.01 750.43,208.65 750.63,208.28 750.83,207.91 751.03,207.53 751.23,207.16 751.43,206.77 751.63,206.39 751.83,206.00 752.03,205.61 752.23,205.22 752.44,204.83 752.64,204.43 752.84,204.04 753.04,203.64 753.24,203.24 753.44,202.84 753.64,202.44 753.84,202.05 754.04,201.65 754.25,201.25 754.45,200.85 754.65,200.45 754.85,200.06 755.05,199.66 755.25,199.27 755.45,198.87 755.65,198.48 755.85,198.09 756.05,197.70 756.26,197.32 756.46,196.93 756.66,196.55 756.86,196.17 757.06,195.79 757.26,195.42 757.46,195.04 757.66,194.67 757.86,194.30 758.07,193.94 758.27,193.57 758.47,193.21 758.67,192.85 758.87,192.50 759.07,192.15 759.27,191.80 759.47,191.46 759.67,191.11 759.87,190.78 760.08,190.44 760.28,190.11 760.48,189.79 760.68,189.46 760.88,189.15 761.08,188.83 761.28,188.53 761.48,188.22 761.68,187.92 761.89,187.63 762.09,187.34 762.29,187.06 762.49,186.78 762.69,186.51 762.89,186.25 763.09,185.99 763.29,185.74 763.49,185.49 763.69,185.25 763.90,185.02 764.10,184.79 764.30,184.56 764.50,184.35 764.70,184.13 764.90,183.93 765.10,183.72 765.30,183.53 765.50,183.34 765.71,183.15 765.91,182.97 766.11,182.80 766.31,182.63 766.51,182.47 766.71,182.32 766.91,182.17 767.11,182.02 767.31,181.89 767.51,181.76 767.72,181.64 767.92,181.52 768.12,181.41 768.32,181.31 768.52,181.22 768.72,181.14 768.92,181.06 769.12,181.00 769.32,180.94 769.53,180.89 769.73,180.85 769.93,180.82 770.13,180.80 770.33,180.78 770.53,180.78 770.73,180.79 770.93,180.80 771.13,180.82 771.33,180.85 771.54,180.90 771.74,180.95 771.94,181.00 772.14,181.07 772.34,181.15 772.54,181.23 772.74,181.33 772.94,181.43 773.14,181.54 773.35,181.65 773.55,181.78 773.75,181.91 773.95,182.05 774.15,182.20 774.35,182.36 774.55,182.52 774.75,182.69 774.95,182.87 775.15,183.05 775.36,183.24 775.56,183.44 775.76,183.65 775.96,183.86 776.16,184.08 776.36,184.30 776.56,184.53 776.76,184.77 776.96,185.02 777.17,185.27 777.37,185.52 777.57,185.78 777.77,186.05 777.97,186.33 778.17,186.61 778.37,186.89 778.57,187.19 778.77,187.48 778.97,187.79 779.18,188.10 779.38,188.41 779.58,188.74 779.78,189.06 779.98,189.39 780.18,189.73 780.38,190.07 780.58,190.42 780.78,190.78 780.99,191.13 781.19,191.49 781.39,191.86 781.59,192.23 781.79,192.61 781.99,192.99 782.19,193.37 782.39,193.76 782.59,194.15 782.79,194.54 783.00,194.94 783.20,195.34 783.40,195.74 783.60,196.14 783.80,196.54 784.00,196.95 784.20,197.35 784.40,197.76 784.60,198.16 784.81,198.56 785.01,198.96 785.21,199.36 785.41,199.75 785.61,200.15 785.81,200.54 786.01,200.92 786.21,201.31 786.41,201.69 786.61,202.06 786.82,202.43 787.02,202.80 787.22,203.17 787.42,203.53 787.62,203.88 787.82,204.24 788.02,204.58 788.22,204.93 788.42,205.27 788.63,205.61 788.83,205.94 789.03,206.27 789.23,206.60 789.43,206.93 789.63,207.26 789.83,207.58 790.03,207.90 790.23,208.22 790.43,208.53 790.64,208.85 790.84,209.16 791.04,209.47 791.24,209.77 791.44,210.08 791.64,210.38 791.84,210.68 792.04,210.97 792.24,211.26 792.45,211.55 792.65,211.84 792.85,212.13 793.05,212.41 793.25,212.69 793.45,212.96 793.65,213.23 793.85,213.50 794.05,213.77 794.25,214.03 794.46,214.28 794.66,214.54 794.86,214.79 795.06,215.03 795.26,215.28 795.46,215.51 795.66,215.75 795.86,215.98 796.06,216.21 796.27,216.43 796.47,216.65 796.67,216.86 796.87,217.08 797.07,217.28 797.27,217.49 797.47,217.68 797.67,217.88 797.87,218.07 798.07,218.26 798.28,218.44 798.48,218.62 798.68,218.80 798.88,218.97 799.08,219.14 799.28,219.31 799.48,219.47 799.68,219.63 799.88,219.79 800.09,219.94 800.29,220.09 800.49,220.24 800.69,220.38 800.89,220.52 801.09,220.65 801.29,220.78 801.49,220.91 801.69,221.04 801.89,221.16 802.10,221.28 802.30,221.40 802.50,221.51 802.70,221.62 802.90,221.72 803.10,221.83 803.30,221.92 803.50,222.02 803.70,222.11 803.91,222.19 804.11,222.27 804.31,222.35 804.51,222.42 804.71,222.49 804.91,222.55 805.11,222.61 805.31,222.66 805.51,222.70 805.71,222.74 805.92,222.78 806.12,222.81 806.32,222.84 806.52,222.86 806.72,222.88 806.92,222.89 807.12,222.90 807.32,222.91 807.52,222.91 807.73,222.91 807.93,222.90 808.13,222.89 808.33,222.88 808.53,222.86 808.73,222.85 808.93,222.83 809.13,222.81 809.33,222.79 809.53,222.77 809.74,222.75 809.94,222.73 810.14,222.71 810.34,222.69 810.54,222.67 810.74,222.66 810.94,222.64 811.14,222.62 811.34,222.61 811.55,222.59 811.75,222.58 811.95,222.56 812.15,222.55 812.35,222.54 812.55,222.53 812.75,222.52 812.95,222.51 813.15,222.50 813.35,222.49 813.56,222.48 813.76,222.47 813.96,222.46 814.16,222.45 814.36,222.43 814.56,222.42 814.76,222.41 814.96,222.39 815.16,222.38 815.37,222.36 815.57,222.34 815.77,222.32 815.97,222.29 816.17,222.27 816.37,222.24 816.57,222.21 816.77,222.18 816.97,222.15 817.17,222.11 817.38,222.07 817.58,222.02 817.78,221.98 817.98,221.93 818.18,221.88 818.38,221.82 818.58,221.76 818.78,221.70 818.98,221.64 819.19,221.57 819.39,221.50 819.59,221.43 819.79,221.35 819.99,221.27 820.19,221.19 820.39,221.10 820.59,221.01 820.79,220.92 820.99,220.83 821.20,220.73 821.40,220.63 821.60,220.52 821.80,220.42 822.00,220.31" fill="none" stroke="#c5221f" stroke-width="2"/>
<text x="662" y="56" font-family="Arial" font-size="12" fill="#c5221f">Experiment</text>
</svg>