<svg xmlns="http://www.w3.org/2000/svg" width="840" height="460" viewBox="0 0 840 460">
<rect width="100%" height="100%" fill="white"/>
<text x="420.0" y="23" text-anchor="middle" font-family="Arial" font-size="15">N=4 transferred charge: experiment vs amplitude-scaled simulation</text>
<line x1="92" y1="394" x2="812" y2="394" stroke="#333"/>
<line x1="92" y1="34" x2="92" y2="394" stroke="#333"/>
<text x="420.0" y="442" text-anchor="middle" font-family="Arial" font-size="12">Normalized time</text>
<text x="16" y="230.0" text-anchor="middle" transform="rotate(-90 16 230.0)" font-family="Arial" font-size="12">Transferred charge (nC)</text>
<line x1="92" y1="34.0" x2="812" y2="34.0" stroke="#e1e5ea"/>
<text x="84" y="38.0" text-anchor="end" font-family="Arial" font-size="10">72.5</text>
<line x1="92" y1="106.0" x2="812" y2="106.0" stroke="#e1e5ea"/>
<text x="84" y="110.0" text-anchor="end" font-family="Arial" font-size="10">-74.5</text>
<line x1="92" y1="178.0" x2="812" y2="178.0" stroke="#e1e5ea"/>
<text x="84" y="182.0" text-anchor="end" font-family="Arial" font-size="10">-221.5</text>
<line x1="92" y1="250.0" x2="812" y2="250.0" stroke="#e1e5ea"/>
<text x="84" y="254.0" text-anchor="end" font-family="Arial" font-size="10">-368.5</text>
<line x1="92" y1="322.0" x2="812" y2="322.0" stroke="#e1e5ea"/>
<text x="84" y="326.0" text-anchor="end" font-family="Arial" font-size="10">-515.6</text>
<line x1="92" y1="394.0" x2="812" y2="394.0" stroke="#e1e5ea"/>
<text x="84" y="398.0" text-anchor="end" font-family="Arial" font-size="10">-662.6</text>
<line x1="92.0" y1="394" x2="92.0" y2="399" stroke="#333"/>
<text x="92.0" y="414" text-anchor="middle" font-family="Arial" font-size="10">0.00</text>
<line x1="236.0" y1="394" x2="236.0" y2="399" stroke="#333"/>
<text x="236.0" y="414" text-anchor="middle" font-family="Arial" font-size="10">0.20</text>
<line x1="380.0" y1="394" x2="380.0" y2="399" stroke="#333"/>
<text x="380.0" y="414" text-anchor="middle" font-family="Arial" font-size="10">0.40</text>
<line x1="524.0" y1="394" x2="524.0" y2="399" stroke="#333"/>
<text x="524.0" y="414" text-anchor="middle" font-family="Arial" font-size="10">0.60</text>
<line x1="668.0" y1="394" x2="668.0" y2="399" stroke="#333"/>
<text x="668.0" y="414" text-anchor="middle" font-family="Arial" font-size="10">0.80</text>
<line x1="812.0" y1="394" x2="812.0" y2="399" stroke="#333"/>
<text x="812.0" y="414" text-anchor="middle" font-family="Arial" font-size="10">1.00</text>
<line x1="92" y1="69.5" x2="812" y2="69.5" stroke="#999" stroke-dasharray="4 4"/>
<polyline points="92.00,64.00 92.36,64.47 92.72,64.96 93.08,65.47 93.44,66.00 93.80,66.55 94.16,67.13 94.52,67.72 94.88,68.33 95.24,68.95 95.60,69.60 95.96,70.26 96.32,70.94 96.68,71.63 97.04,72.34 97.40,73.06 97.76,73.80 98.12,74.55 98.48,75.31 98.84,76.08 99.20,76.85 99.56,77.64 99.92,78.44 100.28,79.24 100.64,80.05 101.00,80.87 101.36,81.69 101.72,82.51 102.09,83.34 102.45,84.17 102.81,85.01 103.17,85.84 103.53,86.68 103.89,87.52 104.25,88.36 104.61,89.20 104.97,90.05 105.33,90.89 105.69,91.72 106.05,92.55 106.41,93.37 106.77,94.18 107.13,94.98 107.49,95.76 107.85,96.53 108.21,97.29 108.57,98.03 108.93,98.75 109.29,99.47 109.65,100.17 110.01,100.86 110.37,101.54 110.73,102.22 111.09,102.88 111.45,103.55 111.81,104.22 112.17,104.89 112.53,105.57 112.89,106.26 113.25,106.96 113.61,107.68 113.97,108.42 114.33,109.17 114.69,109.95 115.05,110.74 115.41,111.56 115.77,112.39 116.13,113.25 116.49,114.12 116.85,115.01 117.21,115.92 117.57,116.84 117.93,117.78 118.29,118.73 118.65,119.70 119.01,120.68 119.37,121.67 119.73,122.66 120.09,123.67 120.45,124.68 120.81,125.69 121.17,126.71 121.53,127.74 121.89,128.76 122.26,129.78 122.62,130.80 122.98,131.82 123.34,132.83 123.70,133.84 124.06,134.85 124.42,135.85 124.78,136.84 125.14,137.82 125.50,138.80 125.86,139.77 126.22,140.72 126.58,141.67 126.94,142.61 127.30,143.52 127.66,144.42 128.02,145.30 128.38,146.16 128.74,147.00 129.10,147.82 129.46,148.61 129.82,149.37 130.18,150.12 130.54,150.84 130.90,151.54 131.26,152.21 131.62,152.87 131.98,153.51 132.34,154.14 132.70,154.75 133.06,155.35 133.42,155.94 133.78,156.53 134.14,157.11 134.50,157.69 134.86,158.28 135.22,158.87 135.58,159.48 135.94,160.10 136.30,160.73 136.66,161.38 137.02,162.05 137.38,162.74 137.74,163.44 138.10,164.17 138.46,164.91 138.82,165.67 139.18,166.44 139.54,167.23 139.90,168.03 140.26,168.84 140.62,169.67 140.98,170.50 141.34,171.35 141.70,172.20 142.07,173.05 142.43,173.91 142.79,174.77 143.15,175.64 143.51,176.50 143.87,177.36 144.23,178.22 144.59,179.08 144.95,179.94 145.31,180.78 145.67,181.63 146.03,182.47 146.39,183.30 146.75,184.12 147.11,184.94 147.47,185.74 147.83,186.53 148.19,187.31 148.55,188.07 148.91,188.81 149.27,189.52 149.63,190.22 149.99,190.89 150.35,191.54 150.71,192.16 151.07,192.76 151.43,193.33 151.79,193.88 152.15,194.41 152.51,194.92 152.87,195.41 153.23,195.88 153.59,196.34 153.95,196.79 154.31,197.22 154.67,197.64 155.03,198.06 155.39,198.47 155.75,198.88 156.11,199.29 156.47,199.70 156.83,200.12 157.19,200.56 157.55,201.01 157.91,201.47 158.27,201.96 158.63,202.47 158.99,203.00 159.35,203.55 159.71,204.13 160.07,204.73 160.43,205.34 160.79,205.98 161.15,206.64 161.51,207.32 161.87,208.01 162.24,208.71 162.60,209.43 162.96,210.15 163.32,210.89 163.68,211.62 164.04,212.37 164.40,213.11 164.76,213.86 165.12,214.60 165.48,215.34 165.84,216.07 166.20,216.80 166.56,217.51 166.92,218.21 167.28,218.90 167.64,219.58 168.00,220.23 168.36,220.88 168.72,221.50 169.08,222.10 169.44,222.69 169.80,223.25 170.16,223.80 170.52,224.31 170.88,224.80 171.24,225.26 171.60,225.68 171.96,226.06 172.32,226.40 172.68,226.71 173.04,226.97 173.40,227.19 173.76,227.37 174.12,227.51 174.48,227.60 174.84,227.65 175.20,227.66 175.56,227.63 175.92,227.56 176.28,227.46 176.64,227.32 177.00,227.14 177.36,226.94 177.72,226.71 178.08,226.46 178.44,226.19 178.80,225.91 179.16,225.61 179.52,225.31 179.88,225.01 180.24,224.71 180.60,224.40 180.96,224.11 181.32,223.81 181.68,223.52 182.05,223.24 182.41,222.96 182.77,222.68 183.13,222.41 183.49,222.15 183.85,221.88 184.21,221.62 184.57,221.37 184.93,221.11 185.29,220.85 185.65,220.58 186.01,220.32 186.37,220.05 186.73,219.78 187.09,219.51 187.45,219.22 187.81,218.94 188.17,218.64 188.53,218.34 188.89,218.04 189.25,217.72 189.61,217.40 189.97,217.07 190.33,216.74 190.69,216.39 191.05,216.04 191.41,215.68 191.77,215.31 192.13,214.92 192.49,214.52 192.85,214.10 193.21,213.66 193.57,213.20 193.93,212.73 194.29,212.23 194.65,211.72 195.01,211.19 195.37,210.65 195.73,210.10 196.09,209.54 196.45,208.96 196.81,208.39 197.17,207.80 197.53,207.22 197.89,206.64 198.25,206.06 198.61,205.49 198.97,204.92 199.33,204.36 199.69,203.81 200.05,203.28 200.41,202.76 200.77,202.26 201.13,201.78 201.49,201.33 201.85,200.90 202.22,200.51 202.58,200.15 202.94,199.83 203.30,199.54 203.66,199.29 204.02,199.08 204.38,198.90 204.74,198.76 205.10,198.65 205.46,198.57 205.82,198.52 206.18,198.50 206.54,198.51 206.90,198.54 207.26,198.59 207.62,198.66 207.98,198.75 208.34,198.85 208.70,198.97 209.06,199.10 209.42,199.23 209.78,199.37 210.14,199.51 210.50,199.65 210.86,199.79 211.22,199.94 211.58,200.07 211.94,200.21 212.30,200.33 212.66,200.45 213.02,200.56 213.38,200.66 213.74,200.75 214.10,200.83 214.46,200.89 214.82,200.92 215.18,200.94 215.54,200.93 215.90,200.90 216.26,200.84 216.62,200.75 216.98,200.64 217.34,200.50 217.70,200.34 218.06,200.16 218.42,199.95 218.78,199.72 219.14,199.48 219.50,199.22 219.86,198.95 220.22,198.67 220.58,198.38 220.94,198.08 221.30,197.78 221.66,197.48 222.03,197.18 222.39,196.89 222.75,196.61 223.11,196.35 223.47,196.11 223.83,195.89 224.19,195.69 224.55,195.53 224.91,195.39 225.27,195.29 225.63,195.22 225.99,195.18 226.35,195.18 226.71,195.20 227.07,195.27 227.43,195.36 227.79,195.48 228.15,195.64 228.51,195.83 228.87,196.04 229.23,196.28 229.59,196.54 229.95,196.83 230.31,197.14 230.67,197.47 231.03,197.83 231.39,198.20 231.75,198.58 232.11,198.98 232.47,199.40 232.83,199.83 233.19,200.27 233.55,200.72 233.91,201.18 234.27,201.65 234.63,202.13 234.99,202.61 235.35,203.08 235.71,203.55 236.07,204.02 236.43,204.48 236.79,204.92 237.15,205.36 237.51,205.78 237.87,206.19 238.23,206.59 238.59,206.98 238.95,207.35 239.31,207.72 239.67,208.08 240.03,208.42 240.39,208.77 240.75,209.10 241.11,209.44 241.47,209.77 241.83,210.10 242.20,210.43 242.56,210.76 242.92,211.09 243.28,211.43 243.64,211.77 244.00,212.11 244.36,212.47 244.72,212.83 245.08,213.20 245.44,213.58 245.80,213.98 246.16,214.40 246.52,214.84 246.88,215.31 247.24,215.80 247.60,216.31 247.96,216.84 248.32,217.40 248.68,217.98 249.04,218.58 249.40,219.20 249.76,219.84 250.12,220.49 250.48,221.15 250.84,221.82 251.20,222.50 251.56,223.19 251.92,223.88 252.28,224.56 252.64,225.25 253.00,225.93 253.36,226.61 253.72,227.27 254.08,227.93 254.44,228.57 254.80,229.20 255.16,229.81 255.52,230.41 255.88,230.99 256.24,231.55 256.60,232.09 256.96,232.60 257.32,233.08 257.68,233.53 258.04,233.95 258.40,234.33 258.76,234.67 259.12,234.97 259.48,235.24 259.84,235.46 260.20,235.65 260.56,235.80 260.92,235.91 261.28,235.98 261.64,236.03 262.01,236.04 262.37,236.02 262.73,235.98 263.09,235.91 263.45,235.82 263.81,235.71 264.17,235.59 264.53,235.45 264.89,235.30 265.25,235.14 265.61,234.97 265.97,234.80 266.33,234.62 266.69,234.45 267.05,234.29 267.41,234.13 267.77,233.99 268.13,233.86 268.49,233.76 268.85,233.68 269.21,233.62 269.57,233.59 269.93,233.59 270.29,233.61 270.65,233.65 271.01,233.73 271.37,233.82 271.73,233.94 272.09,234.08 272.45,234.24 272.81,234.41 273.17,234.61 273.53,234.82 273.89,235.04 274.25,235.27 274.61,235.51 274.97,235.76 275.33,236.02 275.69,236.27 276.05,236.53 276.41,236.79 276.77,237.05 277.13,237.31 277.49,237.57 277.85,237.82 278.21,238.06 278.57,238.30 278.93,238.53 279.29,238.74 279.65,238.95 280.01,239.13 280.37,239.30 280.73,239.44 281.09,239.56 281.45,239.66 281.81,239.73 282.18,239.78 282.54,239.80 282.90,239.80 283.26,239.77 283.62,239.72 283.98,239.65 284.34,239.56 284.70,239.45 285.06,239.32 285.42,239.18 285.78,239.03 286.14,238.87 286.50,238.70 286.86,238.52 287.22,238.34 287.58,238.16 287.94,237.99 288.30,237.82 288.66,237.65 289.02,237.50 289.38,237.37 289.74,237.26 290.10,237.17 290.46,237.11 290.82,237.08 291.18,237.08 291.54,237.10 291.90,237.15 292.26,237.23 292.62,237.34 292.98,237.47 293.34,237.63 293.70,237.81 294.06,238.01 294.42,238.23 294.78,238.47 295.14,238.73 295.50,239.00 295.86,239.29 296.22,239.58 296.58,239.88 296.94,240.19 297.30,240.51 297.66,240.83 298.02,241.15 298.38,241.47 298.74,241.79 299.10,242.11 299.46,242.43 299.82,242.74 300.18,243.04 300.54,243.34 300.90,243.63 301.26,243.91 301.62,244.17 301.98,244.42 302.35,244.64 302.71,244.84 303.07,245.02 303.43,245.17 303.79,245.29 304.15,245.39 304.51,245.46 304.87,245.50 305.23,245.52 305.59,245.51 305.95,245.47 306.31,245.42 306.67,245.34 307.03,245.25 307.39,245.14 307.75,245.01 308.11,244.87 308.47,244.73 308.83,244.57 309.19,244.41 309.55,244.24 309.91,244.07 310.27,243.90 310.63,243.74 310.99,243.59 311.35,243.45 311.71,243.32 312.07,243.21 312.43,243.13 312.79,243.07 313.15,243.03 313.51,243.02 313.87,243.03 314.23,243.07 314.59,243.13 314.95,243.21 315.31,243.32 315.67,243.44 316.03,243.58 316.39,243.74 316.75,243.92 317.11,244.10 317.47,244.30 317.83,244.51 318.19,244.72 318.55,244.94 318.91,245.16 319.27,245.39 319.63,245.61 319.99,245.84 320.35,246.06 320.71,246.27 321.07,246.48 321.43,246.68 321.79,246.88 322.16,247.06 322.52,247.24 322.88,247.39 323.24,247.53 323.60,247.65 323.96,247.75 324.32,247.82 324.68,247.87 325.04,247.88 325.40,247.87 325.76,247.83 326.12,247.75 326.48,247.66 326.84,247.53 327.20,247.38 327.56,247.21 327.92,247.01 328.28,246.80 328.64,246.56 329.00,246.31 329.36,246.05 329.72,245.78 330.08,245.49 330.44,245.20 330.80,244.91 331.16,244.61 331.52,244.31 331.88,244.01 332.24,243.71 332.60,243.42 332.96,243.14 333.32,242.88 333.68,242.63 334.04,242.41 334.40,242.21 334.76,242.04 335.12,241.89 335.48,241.78 335.84,241.69 336.20,241.64 336.56,241.61 336.92,241.61 337.28,241.64 337.64,241.70 338.00,241.78 338.36,241.88 338.72,242.00 339.08,242.14 339.44,242.30 339.80,242.47 340.16,242.65 340.52,242.84 340.88,243.04 341.24,243.25 341.60,243.46 341.96,243.68 342.33,243.90 342.69,244.12 343.05,244.33 343.41,244.55 343.77,244.76 344.13,244.97 344.49,245.18 344.85,245.37 345.21,245.56 345.57,245.73 345.93,245.88 346.29,246.02 346.65,246.14 347.01,246.23 347.37,246.30 347.73,246.35 348.09,246.37 348.45,246.36 348.81,246.33 349.17,246.27 349.53,246.19 349.89,246.09 350.25,245.97 350.61,245.83 350.97,245.67 351.33,245.50 351.69,245.32 352.05,245.13 352.41,244.93 352.77,244.73 353.13,244.52 353.49,244.32 353.85,244.12 354.21,243.93 354.57,243.75 354.93,243.59 355.29,243.45 355.65,243.33 356.01,243.24 356.37,243.18 356.73,243.14 357.09,243.14 357.45,243.16 357.81,243.22 358.17,243.30 358.53,243.41 358.89,243.54 359.25,243.70 359.61,243.88 359.97,244.09 360.33,244.32 360.69,244.56 361.05,244.82 361.41,245.10 361.77,245.39 362.14,245.69 362.50,246.00 362.86,246.32 363.22,246.64 363.58,246.97 363.94,247.30 364.30,247.64 364.66,247.97 365.02,248.31 365.38,248.64 365.74,248.98 366.10,249.31 366.46,249.64 366.82,249.96 367.18,250.28 367.54,250.59 367.90,250.90 368.26,251.19 368.62,251.47 368.98,251.73 369.34,251.98 369.70,252.21 370.06,252.41 370.42,252.60 370.78,252.77 371.14,252.92 371.50,253.05 371.86,253.16 372.22,253.26 372.58,253.34 372.94,253.41 373.30,253.46 373.66,253.51 374.02,253.55 374.38,253.59 374.74,253.63 375.10,253.67 375.46,253.71 375.82,253.76 376.18,253.83 376.54,253.92 376.90,254.03 377.26,254.16 377.62,254.32 377.98,254.51 378.34,254.73 378.70,254.99 379.06,255.27 379.42,255.59 379.78,255.93 380.14,256.31 380.50,256.71 380.86,257.15 381.22,257.61 381.58,258.09 381.94,258.60 382.31,259.13 382.67,259.68 383.03,260.25 383.39,260.84 383.75,261.43 384.11,262.04 384.47,262.66 384.83,263.29 385.19,263.92 385.55,264.56 385.91,265.20 386.27,265.84 386.63,266.49 386.99,267.13 387.35,267.77 387.71,268.41 388.07,269.04 388.43,269.67 388.79,270.29 389.15,270.90 389.51,271.51 389.87,272.11 390.23,272.69 390.59,273.26 390.95,273.81 391.31,274.34 391.67,274.85 392.03,275.33 392.39,275.79 392.75,276.23 393.11,276.64 393.47,277.03 393.83,277.39 394.19,277.74 394.55,278.06 394.91,278.36 395.27,278.64 395.63,278.91 395.99,279.16 396.35,279.41 396.71,279.64 397.07,279.87 397.43,280.09 397.79,280.31 398.15,280.54 398.51,280.78 398.87,281.04 399.23,281.31 399.59,281.60 399.95,281.91 400.31,282.24 400.67,282.60 401.03,282.98 401.39,283.38 401.75,283.81 402.12,284.26 402.48,284.73 402.84,285.22 403.20,285.73 403.56,286.25 403.92,286.79 404.28,287.35 404.64,287.91 405.00,288.49 405.36,289.07 405.72,289.66 406.08,290.25 406.44,290.85 406.80,291.45 407.16,292.04 407.52,292.63 407.88,293.22 408.24,293.81 408.60,294.38 408.96,294.95 409.32,295.51 409.68,296.07 410.04,296.61 410.40,297.14 410.76,297.66 411.12,298.17 411.48,298.66 411.84,299.13 412.20,299.59 412.56,300.02 412.92,300.43 413.28,300.82 413.64,301.18 414.00,301.51 414.36,301.81 414.72,302.08 415.08,302.33 415.44,302.55 415.80,302.74 416.16,302.91 416.52,303.05 416.88,303.17 417.24,303.28 417.60,303.36 417.96,303.43 418.32,303.50 418.68,303.55 419.04,303.60 419.40,303.64 419.76,303.69 420.12,303.75 420.48,303.82 420.84,303.91 421.20,304.02 421.56,304.14 421.92,304.30 422.29,304.47 422.65,304.68 423.01,304.91 423.37,305.16 423.73,305.45 424.09,305.75 424.45,306.08 424.81,306.44 425.17,306.81 425.53,307.21 425.89,307.63 426.25,308.06 426.61,308.50 426.97,308.96 427.33,309.44 427.69,309.92 428.05,310.41 428.41,310.91 428.77,311.41 429.13,311.92 429.49,312.43 429.85,312.93 430.21,313.44 430.57,313.95 430.93,314.46 431.29,314.96 431.65,315.45 432.01,315.94 432.37,316.43 432.73,316.91 433.09,317.38 433.45,317.84 433.81,318.30 434.17,318.74 434.53,319.17 434.89,319.57 435.25,319.96 435.61,320.33 435.97,320.67 436.33,320.99 436.69,321.29 437.05,321.56 437.41,321.81 437.77,322.03 438.13,322.24 438.49,322.42 438.85,322.58 439.21,322.72 439.57,322.85 439.93,322.97 440.29,323.08 440.65,323.18 441.01,323.27 441.37,323.37 441.73,323.47 442.10,323.59 442.46,323.71 442.82,323.86 443.18,324.02 443.54,324.20 443.90,324.41 444.26,324.64 444.62,324.89 444.98,325.17 445.34,325.47 445.70,325.79 446.06,326.14 446.42,326.50 446.78,326.88 447.14,327.29 447.50,327.70 447.86,328.14 448.22,328.59 448.58,329.04 448.94,329.51 449.30,329.99 449.66,330.47 450.02,330.96 450.38,331.44 450.74,331.94 451.10,332.43 451.46,332.92 451.82,333.40 452.18,333.89 452.54,334.37 452.90,334.84 453.26,335.31 453.62,335.77 453.98,336.22 454.34,336.67 454.70,337.11 455.06,337.54 455.42,337.95 455.78,338.36 456.14,338.76 456.50,339.14 456.86,339.51 457.22,339.87 457.58,340.20 457.94,340.52 458.30,340.81 458.66,341.08 459.02,341.32 459.38,341.54 459.74,341.74 460.10,341.91 460.46,342.06 460.82,342.18 461.18,342.28 461.54,342.37 461.90,342.44 462.27,342.49 462.63,342.53 462.99,342.57 463.35,342.60 463.71,342.63 464.07,342.67 464.43,342.71 464.79,342.77 465.15,342.84 465.51,342.92 465.87,343.01 466.23,343.12 466.59,343.24 466.95,343.38 467.31,343.53 467.67,343.70 468.03,343.88 468.39,344.07 468.75,344.28 469.11,344.49 469.47,344.72 469.83,344.96 470.19,345.21 470.55,345.46 470.91,345.72 471.27,345.98 471.63,346.25 471.99,346.52 472.35,346.79 472.71,347.07 473.07,347.34 473.43,347.61 473.79,347.88 474.15,348.15 474.51,348.42 474.87,348.68 475.23,348.93 475.59,349.18 475.95,349.43 476.31,349.66 476.67,349.90 477.03,350.12 477.39,350.34 477.75,350.55 478.11,350.76 478.47,350.96 478.83,351.14 479.19,351.31 479.55,351.47 479.91,351.61 480.27,351.73 480.63,351.83 480.99,351.91 481.35,351.97 481.71,352.01 482.08,352.03 482.44,352.03 482.80,352.01 483.16,351.97 483.52,351.92 483.88,351.86 484.24,351.79 484.60,351.71 484.96,351.63 485.32,351.55 485.68,351.48 486.04,351.41 486.40,351.35 486.76,351.31 487.12,351.28 487.48,351.26 487.84,351.26 488.20,351.28 488.56,351.31 488.92,351.36 489.28,351.42 489.64,351.50 490.00,351.60 490.36,351.70 490.72,351.83 491.08,351.96 491.44,352.11 491.80,352.27 492.16,352.43 492.52,352.61 492.88,352.79 493.24,352.98 493.60,353.17 493.96,353.36 494.32,353.56 494.68,353.76 495.04,353.96 495.40,354.16 495.76,354.36 496.12,354.55 496.48,354.74 496.84,354.93 497.20,355.12 497.56,355.30 497.92,355.47 498.28,355.64 498.64,355.80 499.00,355.96 499.36,356.11 499.72,356.26 500.08,356.40 500.44,356.53 500.80,356.65 501.16,356.77 501.52,356.86 501.88,356.95 502.25,357.01 502.61,357.06 502.97,357.08 503.33,357.09 503.69,357.08 504.05,357.04 504.41,356.99 504.77,356.92 505.13,356.83 505.49,356.73 505.85,356.62 506.21,356.49 506.57,356.37 506.93,356.24 507.29,356.11 507.65,355.99 508.01,355.88 508.37,355.78 508.73,355.69 509.09,355.61 509.45,355.55 509.81,355.51 510.17,355.48 510.53,355.47 510.89,355.48 511.25,355.50 511.61,355.53 511.97,355.58 512.33,355.65 512.69,355.73 513.05,355.81 513.41,355.91 513.77,356.02 514.13,356.14 514.49,356.26 514.85,356.38 515.21,356.51 515.57,356.65 515.93,356.78 516.29,356.92 516.65,357.05 517.01,357.19 517.37,357.32 517.73,357.45 518.09,357.57 518.45,357.69 518.81,357.80 519.17,357.90 519.53,358.00 519.89,358.09 520.25,358.17 520.61,358.25 520.97,358.31 521.33,358.37 521.69,358.42 522.06,358.45 522.42,358.48 522.78,358.49 523.14,358.50 523.50,358.48 523.86,358.45 524.22,358.40 524.58,358.32 524.94,358.23 525.30,358.11 525.66,357.97 526.02,357.80 526.38,357.62 526.74,357.41 527.10,357.18 527.46,356.93 527.82,356.67 528.18,356.40 528.54,356.12 528.90,355.83 529.26,355.55 529.62,355.26 529.98,354.98 530.34,354.71 530.70,354.44 531.06,354.19 531.42,353.95 531.78,353.71 532.14,353.49 532.50,353.28 532.86,353.08 533.22,352.89 533.58,352.71 533.94,352.54 534.30,352.38 534.66,352.22 535.02,352.07 535.38,351.93 535.74,351.78 536.10,351.64 536.46,351.50 536.82,351.36 537.18,351.21 537.54,351.06 537.90,350.90 538.26,350.74 538.62,350.57 538.98,350.38 539.34,350.19 539.70,349.99 540.06,349.77 540.42,349.55 540.78,349.30 541.14,349.05 541.50,348.77 541.86,348.49 542.23,348.18 542.59,347.86 542.95,347.53 543.31,347.17 543.67,346.80 544.03,346.42 544.39,346.01 544.75,345.59 545.11,345.15 545.47,344.70 545.83,344.22 546.19,343.71 546.55,343.19 546.91,342.63 547.27,342.05 547.63,341.45 547.99,340.82 548.35,340.16 548.71,339.48 549.07,338.77 549.43,338.05 549.79,337.30 550.15,336.55 550.51,335.79 550.87,335.02 551.23,334.24 551.59,333.47 551.95,332.69 552.31,331.92 552.67,331.15 553.03,330.39 553.39,329.63 553.75,328.87 554.11,328.12 554.47,327.38 554.83,326.64 555.19,325.90 555.55,325.17 555.91,324.45 556.27,323.73 556.63,323.01 556.99,322.29 557.35,321.58 557.71,320.87 558.07,320.15 558.43,319.44 558.79,318.73 559.15,318.01 559.51,317.29 559.87,316.56 560.23,315.84 560.59,315.10 560.95,314.36 561.31,313.62 561.67,312.87 562.04,312.11 562.40,311.34 562.76,310.57 563.12,309.78 563.48,308.99 563.84,308.20 564.20,307.39 564.56,306.57 564.92,305.75 565.28,304.92 565.64,304.08 566.00,303.23 566.36,302.38 566.72,301.51 567.08,300.64 567.44,299.75 567.80,298.85 568.16,297.94 568.52,297.01 568.88,296.07 569.24,295.11 569.60,294.13 569.96,293.14 570.32,292.14 570.68,291.11 571.04,290.08 571.40,289.03 571.76,287.98 572.12,286.92 572.48,285.86 572.84,284.81 573.20,283.76 573.56,282.72 573.92,281.70 574.28,280.69 574.64,279.70 575.00,278.73 575.36,277.78 575.72,276.85 576.08,275.94 576.44,275.05 576.80,274.19 577.16,273.34 577.52,272.52 577.88,271.72 578.24,270.93 578.60,270.17 578.96,269.43 579.32,268.70 579.68,267.99 580.04,267.30 580.40,266.62 580.76,265.95 581.12,265.30 581.48,264.66 581.84,264.03 582.21,263.40 582.57,262.79 582.93,262.18 583.29,261.58 583.65,260.98 584.01,260.39 584.37,259.80 584.73,259.22 585.09,258.63 585.45,258.05 585.81,257.46 586.17,256.88 586.53,256.29 586.89,255.70 587.25,255.11 587.61,254.51 587.97,253.91 588.33,253.31 588.69,252.70 589.05,252.08 589.41,251.46 589.77,250.81 590.13,250.16 590.49,249.49 590.85,248.79 591.21,248.08 591.57,247.35 591.93,246.60 592.29,245.83 592.65,245.04 593.01,244.23 593.37,243.40 593.73,242.56 594.09,241.71 594.45,240.85 594.81,239.98 595.17,239.11 595.53,238.24 595.89,237.38 596.25,236.52 596.61,235.67 596.97,234.82 597.33,233.98 597.69,233.16 598.05,232.34 598.41,231.53 598.77,230.74 599.13,229.95 599.49,229.17 599.85,228.40 600.21,227.64 600.57,226.89 600.93,226.15 601.29,225.41 601.65,224.68 602.02,223.96 602.38,223.24 602.74,222.52 603.10,221.80 603.46,221.09 603.82,220.38 604.18,219.67 604.54,218.96 604.90,218.25 605.26,217.54 605.62,216.82 605.98,216.11 606.34,215.39 606.70,214.68 607.06,213.95 607.42,213.23 607.78,212.51 608.14,211.78 608.50,211.05 608.86,210.31 609.22,209.58 609.58,208.85 609.94,208.11 610.30,207.37 610.66,206.63 611.02,205.88 611.38,205.13 611.74,204.37 612.10,203.59 612.46,202.81 612.82,202.01 613.18,201.21 613.54,200.39 613.90,199.56 614.26,198.72 614.62,197.88 614.98,197.02 615.34,196.16 615.70,195.30 616.06,194.44 616.42,193.59 616.78,192.74 617.14,191.90 617.50,191.08 617.86,190.28 618.22,189.50 618.58,188.74 618.94,188.00 619.30,187.29 619.66,186.60 620.02,185.93 620.38,185.29 620.74,184.67 621.10,184.08 621.46,183.51 621.82,182.96 622.19,182.43 622.55,181.93 622.91,181.45 623.27,180.99 623.63,180.55 623.99,180.12 624.35,179.71 624.71,179.32 625.07,178.95 625.43,178.59 625.79,178.24 626.15,177.91 626.51,177.59 626.87,177.28 627.23,176.99 627.59,176.70 627.95,176.43 628.31,176.17 628.67,175.92 629.03,175.68 629.39,175.44 629.75,175.22 630.11,175.02 630.47,174.82 630.83,174.63 631.19,174.45 631.55,174.29 631.91,174.13 632.27,173.99 632.63,173.86 632.99,173.75 633.35,173.64 633.71,173.54 634.07,173.46 634.43,173.38 634.79,173.31 635.15,173.24 635.51,173.18 635.87,173.13 636.23,173.08 636.59,173.04 636.95,173.00 637.31,172.98 637.67,172.97 638.03,172.97 638.39,172.99 638.75,173.03 639.11,173.09 639.47,173.18 639.83,173.29 640.19,173.43 640.55,173.60 640.91,173.80 641.27,174.02 641.63,174.28 641.99,174.56 642.36,174.87 642.72,175.21 643.08,175.57 643.44,175.96 643.80,176.38 644.16,176.81 644.52,177.27 644.88,177.75 645.24,178.25 645.60,178.77 645.96,179.30 646.32,179.85 646.68,180.41 647.04,180.98 647.40,181.56 647.76,182.15 648.12,182.74 648.48,183.34 648.84,183.94 649.20,184.54 649.56,185.14 649.92,185.73 650.28,186.33 650.64,186.92 651.00,187.51 651.36,188.09 651.72,188.66 652.08,189.23 652.44,189.78 652.80,190.33 653.16,190.87 653.52,191.39 653.88,191.90 654.24,192.39 654.60,192.87 654.96,193.33 655.32,193.76 655.68,194.17 656.04,194.55 656.40,194.91 656.76,195.24 657.12,195.54 657.48,195.81 657.84,196.05 658.20,196.27 658.56,196.46 658.92,196.63 659.28,196.77 659.64,196.90 660.00,197.01 660.36,197.11 660.72,197.19 661.08,197.27 661.44,197.35 661.80,197.43 662.17,197.52 662.53,197.61 662.89,197.71 663.25,197.82 663.61,197.95 663.97,198.08 664.33,198.23 664.69,198.39 665.05,198.57 665.41,198.76 665.77,198.96 666.13,199.17 666.49,199.40 666.85,199.64 667.21,199.89 667.57,200.15 667.93,200.41 668.29,200.69 668.65,200.97 669.01,201.26 669.37,201.56 669.73,201.86 670.09,202.16 670.45,202.47 670.81,202.78 671.17,203.08 671.53,203.39 671.89,203.70 672.25,204.01 672.61,204.32 672.97,204.62 673.33,204.92 673.69,205.22 674.05,205.51 674.41,205.80 674.77,206.09 675.13,206.37 675.49,206.64 675.85,206.90 676.21,207.16 676.57,207.41 676.93,207.65 677.29,207.88 677.65,208.10 678.01,208.30 678.37,208.49 678.73,208.66 679.09,208.82 679.45,208.95 679.81,209.06 680.17,209.15 680.53,209.22 680.89,209.28 681.25,209.31 681.61,209.33 681.97,209.33 682.34,209.32 682.70,209.30 683.06,209.28 683.42,209.24 683.78,209.20 684.14,209.15 684.50,209.10 684.86,209.03 685.22,208.96 685.58,208.89 685.94,208.81 686.30,208.71 686.66,208.61 687.02,208.51 687.38,208.39 687.74,208.26 688.10,208.12 688.46,207.97 688.82,207.80 689.18,207.63 689.54,207.44 689.90,207.23 690.26,207.01 690.62,206.78 690.98,206.52 691.34,206.26 691.70,205.97 692.06,205.67 692.42,205.35 692.78,205.01 693.14,204.66 693.50,204.28 693.86,203.89 694.22,203.48 694.58,203.05 694.94,202.60 695.30,202.14 695.66,201.65 696.02,201.16 696.38,200.64 696.74,200.11 697.10,199.57 697.46,199.01 697.82,198.43 698.18,197.84 698.54,197.24 698.90,196.62 699.26,195.99 699.62,195.34 699.98,194.67 700.34,193.98 700.70,193.27 701.06,192.55 701.42,191.80 701.78,191.03 702.15,190.25 702.51,189.45 702.87,188.64 703.23,187.82 703.59,186.98 703.95,186.14 704.31,185.30 704.67,184.46 705.03,183.63 705.39,182.80 705.75,181.99 706.11,181.19 706.47,180.41 706.83,179.65 707.19,178.91 707.55,178.20 707.91,177.50 708.27,176.83 708.63,176.18 708.99,175.55 709.35,174.95 709.71,174.37 710.07,173.81 710.43,173.27 710.79,172.76 711.15,172.26 711.51,171.79 711.87,171.33 712.23,170.90 712.59,170.48 712.95,170.07 713.31,169.69 713.67,169.32 714.03,168.96 714.39,168.62 714.75,168.29 715.11,167.97 715.47,167.67 715.83,167.37 716.19,167.09 716.55,166.81 716.91,166.55 717.27,166.29 717.63,166.04 717.99,165.80 718.35,165.56 718.71,165.33 719.07,165.11 719.43,164.90 719.79,164.68 720.15,164.47 720.51,164.26 720.87,164.05 721.23,163.83 721.59,163.61 721.95,163.38 722.32,163.13 722.68,162.88 723.04,162.62 723.40,162.35 723.76,162.06 724.12,161.77 724.48,161.47 724.84,161.16 725.20,160.84 725.56,160.52 725.92,160.20 726.28,159.88 726.64,159.56 727.00,159.25 727.36,158.95 727.72,158.67 728.08,158.40 728.44,158.15 728.80,157.92 729.16,157.70 729.52,157.51 729.88,157.34 730.24,157.18 730.60,157.05 730.96,156.93 731.32,156.84 731.68,156.76 732.04,156.69 732.40,156.64 732.76,156.61 733.12,156.59 733.48,156.58 733.84,156.58 734.20,156.58 734.56,156.60 734.92,156.62 735.28,156.64 735.64,156.67 736.00,156.70 736.36,156.73 736.72,156.76 737.08,156.78 737.44,156.81 737.80,156.83 738.16,156.85 738.52,156.87 738.88,156.88 739.24,156.88 739.60,156.88 739.96,156.88 740.32,156.86 740.68,156.84 741.04,156.81 741.40,156.78 741.76,156.73 742.13,156.68 742.49,156.61 742.85,156.52 743.21,156.42 743.57,156.31 743.93,156.17 744.29,156.01 744.65,155.84 745.01,155.64 745.37,155.43 745.73,155.20 746.09,154.95 746.45,154.68 746.81,154.40 747.17,154.10 747.53,153.80 747.89,153.49 748.25,153.17 748.61,152.86 748.97,152.55 749.33,152.25 749.69,151.95 750.05,151.67 750.41,151.40 750.77,151.15 751.13,150.92 751.49,150.70 751.85,150.50 752.21,150.31 752.57,150.14 752.93,149.99 753.29,149.86 753.65,149.74 754.01,149.64 754.37,149.55 754.73,149.47 755.09,149.41 755.45,149.35 755.81,149.31 756.17,149.28 756.53,149.25 756.89,149.23 757.25,149.21 757.61,149.20 757.97,149.19 758.33,149.18 758.69,149.17 759.05,149.16 759.41,149.16 759.77,149.15 760.13,149.13 760.49,149.12 760.85,149.10 761.21,149.08 761.57,149.05 761.93,149.02 762.30,148.99 762.66,148.95 763.02,148.90 763.38,148.85 763.74,148.80 764.10,148.74 764.46,148.67 764.82,148.60 765.18,148.51 765.54,148.42 765.90,148.30 766.26,148.18 766.62,148.04 766.98,147.88 767.34,147.70 767.70,147.51 768.06,147.31 768.42,147.08 768.78,146.85 769.14,146.60 769.50,146.34 769.86,146.08 770.22,145.82 770.58,145.55 770.94,145.30 771.30,145.04 771.66,144.80 772.02,144.57 772.38,144.35 772.74,144.14 773.10,143.95 773.46,143.78 773.82,143.62 774.18,143.48 774.54,143.35 774.90,143.24 775.26,143.14 775.62,143.05 775.98,142.98 776.34,142.93 776.70,142.88 777.06,142.84 777.42,142.82 777.78,142.80 778.14,142.79 778.50,142.79 778.86,142.80 779.22,142.81 779.58,142.82 779.94,142.84 780.30,142.86 780.66,142.88 781.02,142.90 781.38,142.93 781.74,142.95 782.11,142.97 782.47,142.99 782.83,143.01 783.19,143.03 783.55,143.04 783.91,143.05 784.27,143.06 784.63,143.06 784.99,143.06 785.35,143.05 785.71,143.04 786.07,143.02 786.43,143.00 786.79,142.97 787.15,142.92 787.51,142.86 787.87,142.79 788.23,142.70 788.59,142.60 788.95,142.48 789.31,142.34 789.67,142.19 790.03,142.02 790.39,141.84 790.75,141.65 791.11,141.44 791.47,141.23 791.83,141.01 792.19,140.80 792.55,140.58 792.91,140.37 793.27,140.17 793.63,139.98 793.99,139.81 794.35,139.65 794.71,139.50 795.07,139.37 795.43,139.25 795.79,139.16 796.15,139.07 796.51,139.01 796.87,138.96 797.23,138.92 797.59,138.90 797.95,138.89 798.31,138.90 798.67,138.91 799.03,138.94 799.39,138.98 799.75,139.03 800.11,139.08 800.47,139.14 800.83,139.20 801.19,139.27 801.55,139.34 801.91,139.41 802.28,139.49 802.64,139.57 803.00,139.64 803.36,139.72 803.72,139.79 804.08,139.87 804.44,139.94 804.80,140.00 805.16,140.07 805.52,140.13 805.88,140.18 806.24,140.23 806.60,140.28 806.96,140.32 807.32,140.36 807.68,140.39 808.04,140.41 808.40,140.43 808.76,140.44 809.12,140.44 809.48,140.42 809.84,140.39 810.20,140.35 810.56,140.29 810.92,140.22 811.28,140.12 811.64,140.02 812.00,139.90" fill="none" stroke="#c5221f" stroke-width="2"/>
<text x="662" y="56" font-family="Arial" font-size="12" fill="#c5221f">Experiment</text>
<polyline points="92.00,69.51 92.36,69.51 92.72,69.51 93.08,69.51 93.44,69.51 93.80,69.51 94.16,69.51 94.52,69.51 94.88,69.52 95.24,69.52 95.60,69.52 95.96,69.52 96.32,69.52 96.68,69.52 97.04,69.52 97.40,69.52 97.76,69.52 98.12,69.52 98.48,69.52 98.84,69.52 99.20,69.52 99.56,69.52 99.92,69.52 100.28,69.52 100.64,69.52 101.00,69.52 101.36,69.52 101.72,69.52 102.09,69.52 102.45,69.52 102.81,69.52 103.17,69.52 103.53,69.52 103.89,69.52 104.25,69.52 104.61,69.52 104.97,69.52 105.33,69.52 105.69,69.52 106.05,69.52 106.41,69.52 106.77,69.52 107.13,69.52 107.49,69.52 107.85,69.52 108.21,69.52 108.57,69.52 108.93,69.52 109.29,69.52 109.65,69.52 110.01,69.52 110.37,69.52 110.73,69.52 111.09,69.52 111.45,69.52 111.81,69.52 112.17,69.52 112.53,69.52 112.89,69.52 113.25,69.52 113.61,69.52 113.97,69.52 114.33,69.52 114.69,69.52 115.05,69.52 115.41,69.52 115.77,69.52 116.13,69.52 116.49,69.52 116.85,69.52 117.21,69.52 117.57,69.52 117.93,69.52 118.29,69.52 118.65,69.52 119.01,69.52 119.37,69.52 119.73,69.52 120.09,69.52 120.45,69.52 120.81,69.52 121.17,69.52 121.53,69.52 121.89,69.52 122.26,69.52 122.62,69.52 122.98,69.52 123.34,69.52 123.70,69.52 124.06,69.52 124.42,69.52 124.78,69.52 125.14,69.53 125.50,69.54 125.86,69.56 126.22,69.57 126.58,69.58 126.94,69.60 127.30,69.61 127.66,69.63 128.02,69.64 128.38,69.66 128.74,69.67 129.10,69.69 129.46,69.71 129.82,69.73 130.18,69.74 130.54,69.76 130.90,69.78 131.26,69.80 131.62,69.82 131.98,69.84 132.34,69.86 132.70,69.89 133.06,69.91 133.42,69.93 133.78,69.96 134.14,69.98 134.50,70.00 134.86,70.03 135.22,70.06 135.58,70.08 135.94,70.11 136.30,70.14 136.66,70.17 137.02,70.20 137.38,70.23 137.74,70.26 138.10,70.30 138.46,70.33 138.82,70.37 139.18,70.40 139.54,70.44 139.90,70.48 140.26,70.52 140.62,70.56 140.98,70.60 141.34,70.64 141.70,70.68 142.07,70.73 142.43,70.77 142.79,70.82 143.15,70.87 143.51,70.92 143.87,70.97 144.23,71.02 144.59,71.08 144.95,71.13 145.31,71.19 145.67,71.25 146.03,71.31 146.39,71.37 146.75,71.43 147.11,71.50 147.47,71.56 147.83,71.63 148.19,71.70 148.55,71.77 148.91,71.85 149.27,71.92 149.63,72.00 149.99,72.08 150.35,72.17 150.71,72.25 151.07,72.34 151.43,72.43 151.79,72.52 152.15,72.61 152.51,72.71 152.87,72.81 153.23,72.91 153.59,73.02 153.95,73.12 154.31,73.24 154.67,73.35 155.03,73.47 155.39,73.59 155.75,73.71 156.11,73.83 156.47,73.96 156.83,74.10 157.19,74.23 157.55,74.37 157.91,74.52 158.27,74.66 158.63,74.81 158.99,74.97 159.35,75.13 159.71,75.29 160.07,75.46 160.43,75.63 160.79,75.81 161.15,75.99 161.51,76.18 161.87,76.37 162.24,76.56 162.60,76.76 162.96,76.97 163.32,77.18 163.68,77.39 164.04,77.61 164.40,77.84 164.76,78.07 165.12,78.31 165.48,78.56 165.84,78.81 166.20,79.06 166.56,79.33 166.92,79.60 167.28,79.87 167.64,80.16 168.00,80.44 168.36,80.74 168.72,81.05 169.08,81.36 169.44,81.68 169.80,82.00 170.16,82.34 170.52,82.68 170.88,83.03 171.24,83.39 171.60,83.75 171.96,84.13 172.32,84.51 172.68,84.90 173.04,85.31 173.40,85.72 173.76,86.14 174.12,86.57 174.48,87.00 174.84,87.45 175.20,87.91 175.56,88.38 175.92,88.86 176.28,89.35 176.64,89.85 177.00,90.36 177.36,90.88 177.72,91.41 178.08,91.95 178.44,92.50 178.80,93.07 179.16,93.65 179.52,94.23 179.88,94.83 180.24,95.44 180.60,96.07 180.96,96.70 181.32,97.35 181.68,98.01 182.05,98.68 182.41,99.36 182.77,100.06 183.13,100.77 183.49,101.49 183.85,102.22 184.21,102.97 184.57,103.72 184.93,104.50 185.29,105.28 185.65,106.08 186.01,106.88 186.37,107.71 186.73,108.54 187.09,109.39 187.45,110.25 187.81,111.12 188.17,112.00 188.53,112.90 188.89,113.81 189.25,114.73 189.61,115.66 189.97,116.61 190.33,117.57 190.69,118.54 191.05,119.52 191.41,120.51 191.77,121.51 192.13,122.52 192.49,123.55 192.85,124.58 193.21,125.63 193.57,126.68 193.93,127.75 194.29,128.82 194.65,129.90 195.01,131.00 195.37,132.10 195.73,133.21 196.09,134.32 196.45,135.45 196.81,136.58 197.17,137.72 197.53,138.86 197.89,140.02 198.25,141.17 198.61,142.33 198.97,143.50 199.33,144.67 199.69,145.85 200.05,147.03 200.41,148.21 200.77,149.39 201.13,150.58 201.49,151.77 201.85,152.96 202.22,154.15 202.58,155.34 202.94,156.53 203.30,157.73 203.66,158.92 204.02,160.10 204.38,161.29 204.74,162.48 205.10,163.66 205.46,164.84 205.82,166.01 206.18,167.19 206.54,168.35 206.90,169.52 207.26,170.67 207.62,171.82 207.98,172.97 208.34,174.11 208.70,175.24 209.06,176.37 209.42,177.48 209.78,178.59 210.14,179.70 210.50,180.79 210.86,181.87 211.22,182.95 211.58,184.01 211.94,185.07 212.30,186.11 212.66,187.15 213.02,188.18 213.38,189.19 213.74,190.19 214.10,191.19 214.46,192.17 214.82,193.14 215.18,194.09 215.54,195.04 215.90,195.98 216.26,196.90 216.62,197.81 216.98,198.71 217.34,199.59 217.70,200.46 218.06,201.32 218.42,202.17 218.78,203.01 219.14,203.83 219.50,204.64 219.86,205.44 220.22,206.22 220.58,207.00 220.94,207.76 221.30,208.50 221.66,209.24 222.03,209.96 222.39,210.67 222.75,211.36 223.11,212.05 223.47,212.72 223.83,213.38 224.19,214.03 224.55,214.66 224.91,215.29 225.27,215.90 225.63,216.50 225.99,217.09 226.35,217.67 226.71,218.23 227.07,218.79 227.43,219.33 227.79,219.86 228.15,220.38 228.51,220.90 228.87,221.40 229.23,221.89 229.59,222.37 229.95,222.83 230.31,223.29 230.67,223.74 231.03,224.18 231.39,224.61 231.75,225.03 232.11,225.45 232.47,225.85 232.83,226.24 233.19,226.63 233.55,227.00 233.91,227.37 234.27,227.73 234.63,228.08 234.99,228.42 235.35,228.76 235.71,229.09 236.07,229.40 236.43,229.72 236.79,230.02 237.15,230.32 237.51,230.61 237.87,230.89 238.23,231.17 238.59,231.44 238.95,231.71 239.31,231.96 239.67,232.21 240.03,232.46 240.39,232.70 240.75,232.93 241.11,233.16 241.47,233.38 241.83,233.60 242.20,233.81 242.56,234.02 242.92,234.22 243.28,234.41 243.64,234.60 244.00,234.79 244.36,234.97 244.72,235.15 245.08,235.32 245.44,235.49 245.80,235.66 246.16,235.82 246.52,235.97 246.88,236.12 247.24,236.27 247.60,236.42 247.96,236.56 248.32,236.70 248.68,236.83 249.04,236.96 249.40,237.09 249.76,237.21 250.12,237.33 250.48,237.45 250.84,237.56 251.20,237.68 251.56,237.79 251.92,237.89 252.28,237.99 252.64,238.10 253.00,238.19 253.36,238.29 253.72,238.38 254.08,238.47 254.44,238.56 254.80,238.65 255.16,238.73 255.52,238.81 255.88,238.89 256.24,238.97 256.60,239.05 256.96,239.12 257.32,239.19 257.68,239.26 258.04,239.33 258.40,239.40 258.76,239.46 259.12,239.53 259.48,239.59 259.84,239.65 260.20,239.71 260.56,239.77 260.92,239.82 261.28,239.88 261.64,239.93 262.01,239.98 262.37,240.03 262.73,240.08 263.09,240.13 263.45,240.18 263.81,240.22 264.17,240.27 264.53,240.31 264.89,240.35 265.25,240.40 265.61,240.44 265.97,240.48 266.33,240.52 266.69,240.55 267.05,240.59 267.41,240.63 267.77,240.66 268.13,240.70 268.49,240.73 268.85,240.76 269.21,240.80 269.57,240.83 269.93,240.86 270.29,240.89 270.65,240.92 271.01,240.95 271.37,240.98 271.73,241.01 272.09,241.04 272.45,241.06 272.81,241.09 273.17,241.12 273.53,241.14 273.89,241.17 274.25,241.19 274.61,241.22 274.97,241.24 275.33,241.27 275.69,241.29 276.05,241.31 276.41,241.34 276.77,241.36 277.13,241.38 277.49,241.40 277.85,241.43 278.21,241.45 278.57,241.47 278.93,241.49 279.29,241.51 279.65,241.53 280.01,241.56 280.37,241.58 280.73,241.60 281.09,241.62 281.45,241.64 281.81,241.66 282.18,241.68 282.54,241.70 282.90,241.72 283.26,241.74 283.62,241.76 283.98,241.79 284.34,241.81 284.70,241.83 285.06,241.85 285.42,241.87 285.78,241.89 286.14,241.91 286.50,241.93 286.86,241.96 287.22,241.98 287.58,242.00 287.94,242.02 288.30,242.05 288.66,242.07 289.02,242.09 289.38,242.11 289.74,242.14 290.10,242.16 290.46,242.19 290.82,242.21 291.18,242.24 291.54,242.26 291.90,242.29 292.26,242.32 292.62,242.34 292.98,242.37 293.34,242.40 293.70,242.43 294.06,242.46 294.42,242.49 294.78,242.52 295.14,242.55 295.50,242.58 295.86,242.61 296.22,242.64 296.58,242.68 296.94,242.71 297.30,242.74 297.66,242.78 298.02,242.82 298.38,242.85 298.74,242.89 299.10,242.93 299.46,242.97 299.82,243.01 300.18,243.05 300.54,243.10 300.90,243.14 301.26,243.19 301.62,243.23 301.98,243.28 302.35,243.33 302.71,243.38 303.07,243.43 303.43,243.48 303.79,243.53 304.15,243.59 304.51,243.64 304.87,243.70 305.23,243.76 305.59,243.82 305.95,243.88 306.31,243.94 306.67,244.01 307.03,244.08 307.39,244.14 307.75,244.21 308.11,244.29 308.47,244.36 308.83,244.44 309.19,244.51 309.55,244.59 309.91,244.67 310.27,244.76 310.63,244.84 310.99,244.93 311.35,245.02 311.71,245.12 312.07,245.21 312.43,245.31 312.79,245.41 313.15,245.51 313.51,245.62 313.87,245.72 314.23,245.84 314.59,245.95 314.95,246.07 315.31,246.18 315.67,246.31 316.03,246.43 316.39,246.56 316.75,246.69 317.11,246.83 317.47,246.97 317.83,247.11 318.19,247.26 318.55,247.41 318.91,247.56 319.27,247.72 319.63,247.88 319.99,248.04 320.35,248.21 320.71,248.39 321.07,248.56 321.43,248.75 321.79,248.93 322.16,249.12 322.52,249.32 322.88,249.52 323.24,249.73 323.60,249.94 323.96,250.15 324.32,250.37 324.68,250.60 325.04,250.83 325.40,251.07 325.76,251.31 326.12,251.56 326.48,251.81 326.84,252.07 327.20,252.34 327.56,252.61 327.92,252.89 328.28,253.17 328.64,253.46 329.00,253.76 329.36,254.07 329.72,254.38 330.08,254.70 330.44,255.02 330.80,255.35 331.16,255.69 331.52,256.04 331.88,256.39 332.24,256.75 332.60,257.12 332.96,257.50 333.32,257.88 333.68,258.28 334.04,258.68 334.40,259.08 334.76,259.50 335.12,259.93 335.48,260.36 335.84,260.80 336.20,261.25 336.56,261.71 336.92,262.18 337.28,262.65 337.64,263.14 338.00,263.63 338.36,264.13 338.72,264.64 339.08,265.16 339.44,265.69 339.80,266.23 340.16,266.77 340.52,267.33 340.88,267.89 341.24,268.47 341.60,269.05 341.96,269.64 342.33,270.24 342.69,270.85 343.05,271.47 343.41,272.10 343.77,272.73 344.13,273.38 344.49,274.03 344.85,274.69 345.21,275.36 345.57,276.04 345.93,276.73 346.29,277.43 346.65,278.13 347.01,278.84 347.37,279.56 347.73,280.29 348.09,281.02 348.45,281.76 348.81,282.51 349.17,283.27 349.53,284.03 349.89,284.80 350.25,285.57 350.61,286.35 350.97,287.14 351.33,287.93 351.69,288.73 352.05,289.53 352.41,290.34 352.77,291.16 353.13,291.97 353.49,292.79 353.85,293.62 354.21,294.45 354.57,295.28 354.93,296.11 355.29,296.95 355.65,297.79 356.01,298.63 356.37,299.48 356.73,300.32 357.09,301.17 357.45,302.01 357.81,302.86 358.17,303.71 358.53,304.55 358.89,305.40 359.25,306.24 359.61,307.09 359.97,307.93 360.33,308.77 360.69,309.61 361.05,310.44 361.41,311.28 361.77,312.11 362.14,312.93 362.50,313.76 362.86,314.58 363.22,315.39 363.58,316.20 363.94,317.01 364.30,317.81 364.66,318.60 365.02,319.39 365.38,320.17 365.74,320.95 366.10,321.72 366.46,322.49 366.82,323.25 367.18,324.00 367.54,324.74 367.90,325.48 368.26,326.21 368.62,326.93 368.98,327.64 369.34,328.35 369.70,329.05 370.06,329.74 370.42,330.42 370.78,331.09 371.14,331.76 371.50,332.42 371.86,333.06 372.22,333.70 372.58,334.33 372.94,334.95 373.30,335.57 373.66,336.17 374.02,336.77 374.38,337.35 374.74,337.93 375.10,338.50 375.46,339.06 375.82,339.61 376.18,340.15 376.54,340.68 376.90,341.20 377.26,341.72 377.62,342.22 377.98,342.72 378.34,343.21 378.70,343.68 379.06,344.15 379.42,344.62 379.78,345.07 380.14,345.51 380.50,345.95 380.86,346.38 381.22,346.80 381.58,347.21 381.94,347.61 382.31,348.01 382.67,348.39 383.03,348.77 383.39,349.14 383.75,349.51 384.11,349.87 384.47,350.21 384.83,350.56 385.19,350.89 385.55,351.22 385.91,351.54 386.27,351.85 386.63,352.16 386.99,352.46 387.35,352.75 387.71,353.04 388.07,353.32 388.43,353.59 388.79,353.86 389.15,354.12 389.51,354.38 389.87,354.63 390.23,354.87 390.59,355.11 390.95,355.34 391.31,355.57 391.67,355.79 392.03,356.01 392.39,356.22 392.75,356.43 393.11,356.63 393.47,356.83 393.83,357.02 394.19,357.21 394.55,357.39 394.91,357.57 395.27,357.75 395.63,357.92 395.99,358.08 396.35,358.25 396.71,358.40 397.07,358.56 397.43,358.71 397.79,358.86 398.15,359.00 398.51,359.14 398.87,359.27 399.23,359.41 399.59,359.54 399.95,359.66 400.31,359.78 400.67,359.90 401.03,360.02 401.39,360.13 401.75,360.25 402.12,360.35 402.48,360.46 402.84,360.56 403.20,360.66 403.56,360.76 403.92,360.85 404.28,360.95 404.64,361.04 405.00,361.12 405.36,361.21 405.72,361.29 406.08,361.37 406.44,361.45 406.80,361.53 407.16,361.60 407.52,361.68 407.88,361.75 408.24,361.82 408.60,361.88 408.96,361.95 409.32,362.01 409.68,362.08 410.04,362.14 410.40,362.20 410.76,362.25 411.12,362.31 411.48,362.36 411.84,362.42 412.20,362.47 412.56,362.52 412.92,362.57 413.28,362.61 413.64,362.66 414.00,362.71 414.36,362.75 414.72,362.79 415.08,362.83 415.44,362.87 415.80,362.91 416.16,362.95 416.52,362.99 416.88,363.03 417.24,363.06 417.60,363.09 417.96,363.13 418.32,363.16 418.68,363.19 419.04,363.22 419.40,363.25 419.76,363.28 420.12,363.31 420.48,363.34 420.84,363.36 421.20,363.39 421.56,363.42 421.92,363.44 422.29,363.46 422.65,363.49 423.01,363.51 423.37,363.53 423.73,363.55 424.09,363.57 424.45,363.59 424.81,363.61 425.17,363.63 425.53,363.65 425.89,363.67 426.25,363.69 426.61,363.70 426.97,363.72 427.33,363.74 427.69,363.75 428.05,363.77 428.41,363.78 428.77,363.80 429.13,363.81 429.49,363.82 429.85,363.84 430.21,363.85 430.57,363.86 430.93,363.87 431.29,363.88 431.65,363.90 432.01,363.91 432.37,363.92 432.73,363.93 433.09,363.94 433.45,363.95 433.81,363.96 434.17,363.97 434.53,363.97 434.89,363.98 435.25,363.99 435.61,364.00 435.97,364.00 436.33,364.00 436.69,364.00 437.05,364.00 437.41,364.00 437.77,364.00 438.13,364.00 438.49,364.00 438.85,364.00 439.21,364.00 439.57,364.00 439.93,364.00 440.29,364.00 440.65,364.00 441.01,364.00 441.37,364.00 441.73,364.00 442.10,364.00 442.46,364.00 442.82,364.00 443.18,364.00 443.54,364.00 443.90,364.00 444.26,364.00 444.62,364.00 444.98,364.00 445.34,364.00 445.70,364.00 446.06,364.00 446.42,364.00 446.78,364.00 447.14,364.00 447.50,364.00 447.86,364.00 448.22,364.00 448.58,364.00 448.94,364.00 449.30,364.00 449.66,364.00 450.02,364.00 450.38,364.00 450.74,364.00 451.10,364.00 451.46,364.00 451.82,364.00 452.18,364.00 452.54,364.00 452.90,364.00 453.26,364.00 453.62,364.00 453.98,364.00 454.34,364.00 454.70,364.00 455.06,364.00 455.42,364.00 455.78,364.00 456.14,364.00 456.50,364.00 456.86,364.00 457.22,364.00 457.58,364.00 457.94,364.00 458.30,364.00 458.66,364.00 459.02,364.00 459.38,364.00 459.74,364.00 460.10,364.00 460.46,364.00 460.82,364.00 461.18,364.00 461.54,364.00 461.90,364.00 462.27,364.00 462.63,364.00 462.99,364.00 463.35,364.00 463.71,364.00 464.07,364.00 464.43,364.00 464.79,364.00 465.15,364.00 465.51,364.00 465.87,364.00 466.23,364.00 466.59,364.00 466.95,364.00 467.31,364.00 467.67,364.00 468.03,364.00 468.39,363.99 468.75,363.98 469.11,363.97 469.47,363.96 469.83,363.95 470.19,363.93 470.55,363.92 470.91,363.91 471.27,363.89 471.63,363.88 471.99,363.86 472.35,363.85 472.71,363.83 473.07,363.81 473.43,363.80 473.79,363.78 474.15,363.76 474.51,363.74 474.87,363.72 475.23,363.70 475.59,363.68 475.95,363.66 476.31,363.64 476.67,363.62 477.03,363.59 477.39,363.57 477.75,363.55 478.11,363.52 478.47,363.49 478.83,363.47 479.19,363.44 479.55,363.41 479.91,363.38 480.27,363.36 480.63,363.32 480.99,363.29 481.35,363.26 481.71,363.23 482.08,363.19 482.44,363.16 482.80,363.12 483.16,363.09 483.52,363.05 483.88,363.01 484.24,362.97 484.60,362.93 484.96,362.89 485.32,362.84 485.68,362.80 486.04,362.75 486.40,362.71 486.76,362.66 487.12,362.61 487.48,362.56 487.84,362.50 488.20,362.45 488.56,362.39 488.92,362.34 489.28,362.28 489.64,362.22 490.00,362.16 490.36,362.09 490.72,362.03 491.08,361.96 491.44,361.89 491.80,361.82 492.16,361.75 492.52,361.67 492.88,361.60 493.24,361.52 493.60,361.44 493.96,361.35 494.32,361.27 494.68,361.18 495.04,361.09 495.40,361.00 495.76,360.90 496.12,360.81 496.48,360.71 496.84,360.60 497.20,360.50 497.56,360.39 497.92,360.28 498.28,360.17 498.64,360.05 499.00,359.93 499.36,359.80 499.72,359.68 500.08,359.55 500.44,359.41 500.80,359.28 501.16,359.14 501.52,358.99 501.88,358.84 502.25,358.69 502.61,358.54 502.97,358.38 503.33,358.21 503.69,358.04 504.05,357.87 504.41,357.69 504.77,357.51 505.13,357.32 505.49,357.13 505.85,356.94 506.21,356.73 506.57,356.53 506.93,356.32 507.29,356.10 507.65,355.88 508.01,355.65 508.37,355.41 508.73,355.17 509.09,354.93 509.45,354.68 509.81,354.42 510.17,354.15 510.53,353.88 510.89,353.61 511.25,353.32 511.61,353.03 511.97,352.73 512.33,352.43 512.69,352.11 513.05,351.79 513.41,351.46 513.77,351.13 514.13,350.78 514.49,350.43 514.85,350.07 515.21,349.70 515.57,349.33 515.93,348.94 516.29,348.55 516.65,348.14 517.01,347.73 517.37,347.31 517.73,346.88 518.09,346.44 518.45,345.98 518.81,345.52 519.17,345.05 519.53,344.57 519.89,344.08 520.25,343.58 520.61,343.07 520.97,342.54 521.33,342.01 521.69,341.47 522.06,340.91 522.42,340.34 522.78,339.76 523.14,339.17 523.50,338.57 523.86,337.96 524.22,337.33 524.58,336.69 524.94,336.04 525.30,335.38 525.66,334.71 526.02,334.02 526.38,333.32 526.74,332.61 527.10,331.89 527.46,331.15 527.82,330.40 528.18,329.64 528.54,328.87 528.90,328.08 529.26,327.28 529.62,326.47 529.98,325.65 530.34,324.81 530.70,323.96 531.06,323.10 531.42,322.22 531.78,321.33 532.14,320.43 532.50,319.52 532.86,318.60 533.22,317.66 533.58,316.71 533.94,315.75 534.30,314.78 534.66,313.80 535.02,312.81 535.38,311.80 535.74,310.78 536.10,309.76 536.46,308.72 536.82,307.67 537.18,306.62 537.54,305.55 537.90,304.47 538.26,303.39 538.62,302.29 538.98,301.19 539.34,300.08 539.70,298.96 540.06,297.83 540.42,296.70 540.78,295.56 541.14,294.41 541.50,293.26 541.86,292.10 542.23,290.94 542.59,289.77 542.95,288.60 543.31,287.42 543.67,286.24 544.03,285.06 544.39,283.88 544.75,282.69 545.11,281.50 545.47,280.31 545.83,279.12 546.19,277.93 546.55,276.73 546.91,275.54 547.27,274.35 547.63,273.16 547.99,271.98 548.35,270.79 548.71,269.61 549.07,268.43 549.43,267.26 549.79,266.09 550.15,264.92 550.51,263.76 550.87,262.60 551.23,261.45 551.59,260.31 551.95,259.17 552.31,258.04 552.67,256.92 553.03,255.80 553.39,254.69 553.75,253.60 554.11,252.50 554.47,251.42 554.83,250.35 555.19,249.29 555.55,248.23 555.91,247.19 556.27,246.16 556.63,245.13 556.99,244.12 557.35,243.12 557.71,242.13 558.07,241.15 558.43,240.18 558.79,239.23 559.15,238.29 559.51,237.35 559.87,236.43 560.23,235.53 560.59,234.63 560.95,233.75 561.31,232.88 561.67,232.02 562.04,231.18 562.40,230.34 562.76,229.52 563.12,228.72 563.48,227.92 563.84,227.14 564.20,226.37 564.56,225.61 564.92,224.87 565.28,224.14 565.64,223.42 566.00,222.71 566.36,222.02 566.72,221.34 567.08,220.67 567.44,220.01 567.80,219.37 568.16,218.73 568.52,218.11 568.88,217.50 569.24,216.91 569.60,216.32 569.96,215.75 570.32,215.18 570.68,214.63 571.04,214.09 571.40,213.56 571.76,213.04 572.12,212.53 572.48,212.03 572.84,211.55 573.20,211.07 573.56,210.60 573.92,210.14 574.28,209.70 574.64,209.26 575.00,208.83 575.36,208.41 575.72,208.00 576.08,207.60 576.44,207.21 576.80,206.83 577.16,206.46 577.52,206.09 577.88,205.73 578.24,205.38 578.60,205.04 578.96,204.71 579.32,204.38 579.68,204.07 580.04,203.76 580.40,203.45 580.76,203.16 581.12,202.87 581.48,202.59 581.84,202.31 582.21,202.04 582.57,201.78 582.93,201.52 583.29,201.27 583.65,201.03 584.01,200.79 584.37,200.56 584.73,200.33 585.09,200.11 585.45,199.90 585.81,199.69 586.17,199.48 586.53,199.28 586.89,199.09 587.25,198.90 587.61,198.71 587.97,198.53 588.33,198.35 588.69,198.18 589.05,198.01 589.41,197.85 589.77,197.69 590.13,197.54 590.49,197.38 590.85,197.24 591.21,197.09 591.57,196.95 591.93,196.82 592.29,196.68 592.65,196.55 593.01,196.43 593.37,196.30 593.73,196.18 594.09,196.07 594.45,195.95 594.81,195.84 595.17,195.73 595.53,195.63 595.89,195.53 596.25,195.42 596.61,195.33 596.97,195.23 597.33,195.14 597.69,195.05 598.05,194.96 598.41,194.88 598.77,194.79 599.13,194.71 599.49,194.63 599.85,194.55 600.21,194.48 600.57,194.40 600.93,194.33 601.29,194.26 601.65,194.20 602.02,194.13 602.38,194.06 602.74,194.00 603.10,193.94 603.46,193.88 603.82,193.82 604.18,193.76 604.54,193.71 604.90,193.65 605.26,193.60 605.62,193.55 605.98,193.50 606.34,193.45 606.70,193.40 607.06,193.36 607.42,193.31 607.78,193.27 608.14,193.22 608.50,193.18 608.86,193.14 609.22,193.10 609.58,193.06 609.94,193.02 610.30,192.98 610.66,192.94 611.02,192.91 611.38,192.87 611.74,192.84 612.10,192.80 612.46,192.77 612.82,192.74 613.18,192.71 613.54,192.68 613.90,192.65 614.26,192.62 614.62,192.59 614.98,192.56 615.34,192.53 615.70,192.50 616.06,192.47 616.42,192.45 616.78,192.42 617.14,192.40 617.50,192.37 617.86,192.34 618.22,192.32 618.58,192.30 618.94,192.27 619.30,192.25 619.66,192.22 620.02,192.20 620.38,192.18 620.74,192.16 621.10,192.13 621.46,192.11 621.82,192.09 622.19,192.07 622.55,192.05 622.91,192.03 623.27,192.00 623.63,191.98 623.99,191.96 624.35,191.94 624.71,191.92 625.07,191.90 625.43,191.88 625.79,191.86 626.15,191.84 626.51,191.82 626.87,191.80 627.23,191.77 627.59,191.75 627.95,191.73 628.31,191.71 628.67,191.69 629.03,191.67 629.39,191.65 629.75,191.63 630.11,191.60 630.47,191.58 630.83,191.56 631.19,191.54 631.55,191.52 631.91,191.49 632.27,191.47 632.63,191.45 632.99,191.42 633.35,191.40 633.71,191.37 634.07,191.35 634.43,191.33 634.79,191.30 635.15,191.27 635.51,191.25 635.87,191.22 636.23,191.19 636.59,191.17 636.95,191.14 637.31,191.11 637.67,191.08 638.03,191.05 638.39,191.02 638.75,190.99 639.11,190.96 639.47,190.93 639.83,190.89 640.19,190.86 640.55,190.83 640.91,190.79 641.27,190.75 641.63,190.72 641.99,190.68 642.36,190.64 642.72,190.60 643.08,190.56 643.44,190.52 643.80,190.48 644.16,190.44 644.52,190.39 644.88,190.35 645.24,190.30 645.60,190.25 645.96,190.21 646.32,190.16 646.68,190.10 647.04,190.05 647.40,190.00 647.76,189.94 648.12,189.89 648.48,189.83 648.84,189.77 649.20,189.71 649.56,189.65 649.92,189.58 650.28,189.52 650.64,189.45 651.00,189.38 651.36,189.31 651.72,189.24 652.08,189.17 652.44,189.09 652.80,189.01 653.16,188.93 653.52,188.85 653.88,188.77 654.24,188.68 654.60,188.59 654.96,188.50 655.32,188.41 655.68,188.31 656.04,188.21 656.40,188.11 656.76,188.01 657.12,187.90 657.48,187.79 657.84,187.68 658.20,187.57 658.56,187.45 658.92,187.33 659.28,187.21 659.64,187.08 660.00,186.95 660.36,186.82 660.72,186.68 661.08,186.54 661.44,186.40 661.80,186.25 662.17,186.10 662.53,185.95 662.89,185.79 663.25,185.63 663.61,185.46 663.97,185.29 664.33,185.12 664.69,184.94 665.05,184.75 665.41,184.57 665.77,184.37 666.13,184.18 666.49,183.98 666.85,183.77 667.21,183.56 667.57,183.34 667.93,183.12 668.29,182.89 668.65,182.66 669.01,182.42 669.37,182.18 669.73,181.93 670.09,181.67 670.45,181.41 670.81,181.14 671.17,180.87 671.53,180.59 671.89,180.30 672.25,180.01 672.61,179.71 672.97,179.41 673.33,179.09 673.69,178.77 674.05,178.45 674.41,178.11 674.77,177.77 675.13,177.42 675.49,177.07 675.85,176.71 676.21,176.33 676.57,175.96 676.93,175.57 677.29,175.18 677.65,174.77 678.01,174.36 678.37,173.95 678.73,173.52 679.09,173.08 679.45,172.64 679.81,172.19 680.17,171.73 680.53,171.26 680.89,170.78 681.25,170.29 681.61,169.80 681.97,169.30 682.34,168.78 682.70,168.26 683.06,167.73 683.42,167.19 683.78,166.64 684.14,166.08 684.50,165.52 684.86,164.94 685.22,164.36 685.58,163.76 685.94,163.16 686.30,162.55 686.66,161.93 687.02,161.30 687.38,160.66 687.74,160.01 688.10,159.36 688.46,158.70 688.82,158.02 689.18,157.34 689.54,156.65 689.90,155.96 690.26,155.25 690.62,154.54 690.98,153.82 691.34,153.09 691.70,152.35 692.06,151.61 692.42,150.86 692.78,150.10 693.14,149.34 693.50,148.57 693.86,147.79 694.22,147.01 694.58,146.22 694.94,145.43 695.30,144.63 695.66,143.82 696.02,143.01 696.38,142.20 696.74,141.38 697.10,140.56 697.46,139.73 697.82,138.90 698.18,138.07 698.54,137.24 698.90,136.40 699.26,135.56 699.62,134.72 699.98,133.87 700.34,133.03 700.70,132.18 701.06,131.33 701.42,130.49 701.78,129.64 702.15,128.79 702.51,127.95 702.87,127.10 703.23,126.26 703.59,125.42 703.95,124.58 704.31,123.74 704.67,122.91 705.03,122.07 705.39,121.24 705.75,120.42 706.11,119.60 706.47,118.78 706.83,117.97 707.19,117.16 707.55,116.35 707.91,115.55 708.27,114.76 708.63,113.97 708.99,113.19 709.35,112.41 709.71,111.64 710.07,110.88 710.43,110.12 710.79,109.37 711.15,108.63 711.51,107.90 711.87,107.17 712.23,106.45 712.59,105.74 712.95,105.03 713.31,104.34 713.67,103.65 714.03,102.97 714.39,102.29 714.75,101.63 715.11,100.98 715.47,100.33 715.83,99.69 716.19,99.07 716.55,98.45 716.91,97.84 717.27,97.23 717.63,96.64 717.99,96.06 718.35,95.48 718.71,94.92 719.07,94.36 719.43,93.81 719.79,93.27 720.15,92.74 720.51,92.22 720.87,91.71 721.23,91.21 721.59,90.71 721.95,90.23 722.32,89.75 722.68,89.28 723.04,88.82 723.40,88.37 723.76,87.93 724.12,87.49 724.48,87.07 724.84,86.65 725.20,86.24 725.56,85.84 725.92,85.45 726.28,85.06 726.64,84.68 727.00,84.31 727.36,83.95 727.72,83.60 728.08,83.25 728.44,82.91 728.80,82.58 729.16,82.25 729.52,81.93 729.88,81.62 730.24,81.31 730.60,81.02 730.96,80.72 731.32,80.44 731.68,80.16 732.04,79.89 732.40,79.62 732.76,79.36 733.12,79.11 733.48,78.86 733.84,78.61 734.20,78.38 734.56,78.15 734.92,77.92 735.28,77.70 735.64,77.48 736.00,77.27 736.36,77.06 736.72,76.86 737.08,76.67 737.44,76.48 737.80,76.29 738.16,76.11 738.52,75.93 738.88,75.76 739.24,75.59 739.60,75.42 739.96,75.26 740.32,75.10 740.68,74.95 741.04,74.80 741.40,74.65 741.76,74.51 742.13,74.37 742.49,74.24 742.85,74.10 743.21,73.98 743.57,73.85 743.93,73.73 744.29,73.61 744.65,73.49 745.01,73.38 745.37,73.27 745.73,73.16 746.09,73.06 746.45,72.96 746.81,72.86 747.17,72.76 747.53,72.67 747.89,72.57 748.25,72.48 748.61,72.40 748.97,72.31 749.33,72.23 749.69,72.15 750.05,72.07 750.41,71.99 750.77,71.92 751.13,71.85 751.49,71.77 751.85,71.71 752.21,71.64 752.57,71.57 752.93,71.51 753.29,71.45 753.65,71.39 754.01,71.33 754.37,71.27 754.73,71.22 755.09,71.16 755.45,71.11 755.81,71.06 756.17,71.01 756.53,70.96 756.89,70.91 757.25,70.87 757.61,70.82 757.97,70.78 758.33,70.73 758.69,70.69 759.05,70.65 759.41,70.61 759.77,70.57 760.13,70.54 760.49,70.50 760.85,70.47 761.21,70.43 761.57,70.40 761.93,70.37 762.30,70.33 762.66,70.30 763.02,70.27 763.38,70.24 763.74,70.22 764.10,70.19 764.46,70.16 764.82,70.14 765.18,70.11 765.54,70.08 765.90,70.06 766.26,70.04 766.62,70.01 766.98,69.99 767.34,69.97 767.70,69.95 768.06,69.93 768.42,69.91 768.78,69.89 769.14,69.87 769.50,69.85 769.86,69.83 770.22,69.82 770.58,69.80 770.94,69.78 771.30,69.77 771.66,69.75 772.02,69.74 772.38,69.72 772.74,69.71 773.10,69.69 773.46,69.68 773.82,69.67 774.18,69.65 774.54,69.64 774.90,69.63 775.26,69.62 775.62,69.61 775.98,69.60 776.34,69.58 776.70,69.57 777.06,69.56 777.42,69.55 777.78,69.54 778.14,69.53 778.50,69.52 778.86,69.52 779.22,69.51 779.58,69.51 779.94,69.51 780.30,69.51 780.66,69.51 781.02,69.51 781.38,69.51 781.74,69.51 782.11,69.51 782.47,69.51 782.83,69.51 783.19,69.51 783.55,69.51 783.91,69.51 784.27,69.51 784.63,69.51 784.99,69.51 785.35,69.51 785.71,69.51 786.07,69.51 786.43,69.51 786.79,69.51 787.15,69.51 787.51,69.51 787.87,69.51 788.23,69.51 788.59,69.51 788.95,69.51 789.31,69.51 789.67,69.51 790.03,69.51 790.39,69.51 790.75,69.51 791.11,69.51 791.47,69.51 791.83,69.51 792.19,69.51 792.55,69.51 792.91,69.51 793.27,69.51 793.63,69.51 793.99,69.51 794.35,69.51 794.71,69.51 795.07,69.51 795.43,69.51 795.79,69.51 796.15,69.51 796.51,69.51 796.87,69.51 797.23,69.51 797.59,69.51 797.95,69.51 798.31,69.51 798.67,69.51 799.03,69.51 799.39,69.51 799.75,69.51 800.11,69.51 800.47,69.51 800.83,69.51 801.19,69.51 801.55,69.51 801.91,69.51 802.28,69.50 802.64,69.50 803.00,69.50 803.36,69.50 803.72,69.50 804.08,69.50 804.44,69.50 804.80,69.50 805.16,69.50 805.52,69.50 805.88,69.50 806.24,69.50 806.60,69.50 806.96,69.50 807.32,69.50 807.68,69.50 808.04,69.50 808.40,69.50 808.76,69.50 809.12,69.50 809.48,69.50 809.84,69.50 810.20,69.50 810.56,69.50 810.92,69.50 811.28,69.50 811.64,69.50 812.00,69.50" fill="none" stroke="#34a853" stroke-width="2"/>
<text x="662" y="74" font-family="Arial" font-size="12" fill="#34a853">Simulation scaled</text>
</svg>