<svg xmlns="http://www.w3.org/2000/svg" width="840" height="460" viewBox="0 0 840 460">
<rect width="100%" height="100%" fill="white"/>
<text x="420.0" y="23" text-anchor="middle" font-family="Arial" font-size="15">N=4 measured transferred charge cycle</text>
<line x1="92" y1="394" x2="812" y2="394" stroke="#333"/>
<line x1="92" y1="34" x2="92" y2="394" stroke="#333"/>
<text x="420.0" y="442" text-anchor="middle" font-family="Arial" font-size="12">Time (s)</text>
<text x="16" y="230.0" text-anchor="middle" transform="rotate(-90 16 230.0)" font-family="Arial" font-size="12">Transferred charge (nC)</text>
<line x1="92" y1="34.0" x2="812" y2="34.0" stroke="#e1e5ea"/>
<text x="84" y="38.0" text-anchor="end" font-family="Arial" font-size="10">71.4</text>
<line x1="92" y1="106.0" x2="812" y2="106.0" stroke="#e1e5ea"/>
<text x="84" y="110.0" text-anchor="end" font-family="Arial" font-size="10">-72.9</text>
<line x1="92" y1="178.0" x2="812" y2="178.0" stroke="#e1e5ea"/>
<text x="84" y="182.0" text-anchor="end" font-family="Arial" font-size="10">-217.3</text>
<line x1="92" y1="250.0" x2="812" y2="250.0" stroke="#e1e5ea"/>
<text x="84" y="254.0" text-anchor="end" font-family="Arial" font-size="10">-361.6</text>
<line x1="92" y1="322.0" x2="812" y2="322.0" stroke="#e1e5ea"/>
<text x="84" y="326.0" text-anchor="end" font-family="Arial" font-size="10">-505.9</text>
<line x1="92" y1="394.0" x2="812" y2="394.0" stroke="#e1e5ea"/>
<text x="84" y="398.0" text-anchor="end" font-family="Arial" font-size="10">-650.2</text>
<line x1="92.0" y1="394" x2="92.0" y2="399" stroke="#333"/>
<text x="92.0" y="414" text-anchor="middle" font-family="Arial" font-size="10">0.00</text>
<line x1="236.0" y1="394" x2="236.0" y2="399" stroke="#333"/>
<text x="236.0" y="414" text-anchor="middle" font-family="Arial" font-size="10">0.13</text>
<line x1="380.0" y1="394" x2="380.0" y2="399" stroke="#333"/>
<text x="380.0" y="414" text-anchor="middle" font-family="Arial" font-size="10">0.26</text>
<line x1="524.0" y1="394" x2="524.0" y2="399" stroke="#333"/>
<text x="524.0" y="414" text-anchor="middle" font-family="Arial" font-size="10">0.39</text>
<line x1="668.0" y1="394" x2="668.0" y2="399" stroke="#333"/>
<text x="668.0" y="414" text-anchor="middle" font-family="Arial" font-size="10">0.52</text>
<line x1="812.0" y1="394" x2="812.0" y2="399" stroke="#333"/>
<text x="812.0" y="414" text-anchor="middle" font-family="Arial" font-size="10">0.66</text>
<line x1="92" y1="69.6" x2="812" y2="69.6" stroke="#999" stroke-dasharray="4 4"/>
<polyline points="92.00,64.00 92.22,64.29 92.44,64.59 92.66,64.89 92.88,65.21 93.10,65.53 93.32,65.85 93.54,66.19 93.76,66.53 93.98,66.88 94.20,67.24 94.42,67.61 94.64,67.98 94.86,68.36 95.08,68.75 95.30,69.14 95.52,69.54 95.74,69.95 95.95,70.36 96.17,70.78 96.39,71.21 96.61,71.64 96.83,72.08 97.05,72.52 97.27,72.97 97.49,73.42 97.71,73.88 97.93,74.34 98.15,74.80 98.37,75.28 98.59,75.75 98.81,76.23 99.03,76.71 99.25,77.20 99.47,77.69 99.69,78.18 99.91,78.68 100.13,79.17 100.35,79.67 100.57,80.18 100.79,80.68 101.01,81.19 101.23,81.70 101.45,82.21 101.67,82.72 101.89,83.24 102.11,83.75 102.33,84.27 102.55,84.79 102.77,85.31 102.99,85.82 103.21,86.35 103.43,86.87 103.64,87.39 103.86,87.91 104.08,88.43 104.30,88.96 104.52,89.48 104.74,90.00 104.96,90.53 105.18,91.05 105.40,91.57 105.62,92.09 105.84,92.60 106.06,93.12 106.28,93.63 106.50,94.14 106.72,94.64 106.94,95.14 107.16,95.63 107.38,96.12 107.60,96.60 107.82,97.08 108.04,97.55 108.26,98.01 108.48,98.48 108.70,98.93 108.92,99.38 109.14,99.83 109.36,100.27 109.58,100.70 109.80,101.14 110.02,101.56 110.24,101.99 110.46,102.41 110.68,102.83 110.90,103.24 111.12,103.66 111.33,104.07 111.55,104.49 111.77,104.90 111.99,105.32 112.21,105.73 112.43,106.16 112.65,106.58 112.87,107.01 113.09,107.45 113.31,107.89 113.53,108.34 113.75,108.79 113.97,109.25 114.19,109.72 114.41,110.19 114.63,110.67 114.85,111.16 115.07,111.66 115.29,112.16 115.51,112.67 115.73,113.19 115.95,113.72 116.17,114.25 116.39,114.79 116.61,115.34 116.83,115.90 117.05,116.46 117.27,117.03 117.49,117.60 117.71,118.18 117.93,118.77 118.15,119.36 118.37,119.95 118.59,120.55 118.81,121.16 119.02,121.77 119.24,122.38 119.46,123.00 119.68,123.62 119.90,124.24 120.12,124.87 120.34,125.49 120.56,126.12 120.78,126.76 121.00,127.39 121.22,128.02 121.44,128.66 121.66,129.29 121.88,129.93 122.10,130.56 122.32,131.20 122.54,131.83 122.76,132.47 122.98,133.10 123.20,133.73 123.42,134.36 123.64,134.99 123.86,135.61 124.08,136.23 124.30,136.86 124.52,137.47 124.74,138.09 124.96,138.70 125.18,139.31 125.40,139.92 125.62,140.52 125.84,141.12 126.06,141.72 126.28,142.31 126.49,142.90 126.71,143.49 126.93,144.07 127.15,144.64 127.37,145.21 127.59,145.76 127.81,146.32 128.03,146.86 128.25,147.40 128.47,147.93 128.69,148.44 128.91,148.96 129.13,149.46 129.35,149.95 129.57,150.43 129.79,150.91 130.01,151.37 130.23,151.83 130.45,152.28 130.67,152.72 130.89,153.15 131.11,153.58 131.33,153.99 131.55,154.40 131.77,154.81 131.99,155.20 132.21,155.59 132.43,155.98 132.65,156.36 132.87,156.73 133.09,157.10 133.31,157.47 133.53,157.84 133.75,158.20 133.97,158.56 134.18,158.92 134.40,159.28 134.62,159.65 134.84,160.01 135.06,160.38 135.28,160.75 135.50,161.13 135.72,161.51 135.94,161.90 136.16,162.29 136.38,162.69 136.60,163.09 136.82,163.50 137.04,163.92 137.26,164.35 137.48,164.78 137.70,165.22 137.92,165.66 138.14,166.12 138.36,166.57 138.58,167.04 138.80,167.51 139.02,167.99 139.24,168.47 139.46,168.96 139.68,169.46 139.90,169.96 140.12,170.46 140.34,170.97 140.56,171.48 140.78,172.00 141.00,172.52 141.22,173.04 141.44,173.57 141.66,174.10 141.87,174.63 142.09,175.16 142.31,175.70 142.53,176.23 142.75,176.77 142.97,177.30 143.19,177.84 143.41,178.38 143.63,178.91 143.85,179.45 144.07,179.98 144.29,180.52 144.51,181.05 144.73,181.58 144.95,182.11 145.17,182.64 145.39,183.17 145.61,183.69 145.83,184.21 146.05,184.73 146.27,185.25 146.49,185.77 146.71,186.28 146.93,186.78 147.15,187.29 147.37,187.79 147.59,188.29 147.81,188.78 148.03,189.26 148.25,189.74 148.47,190.21 148.69,190.68 148.91,191.13 149.13,191.58 149.35,192.02 149.56,192.45 149.78,192.88 150.00,193.29 150.22,193.69 150.44,194.09 150.66,194.47 150.88,194.85 151.10,195.22 151.32,195.58 151.54,195.93 151.76,196.27 151.98,196.60 152.20,196.92 152.42,197.24 152.64,197.55 152.86,197.85 153.08,198.15 153.30,198.44 153.52,198.72 153.74,199.00 153.96,199.28 154.18,199.55 154.40,199.82 154.62,200.08 154.84,200.34 155.06,200.60 155.28,200.85 155.50,201.11 155.72,201.36 155.94,201.61 156.16,201.87 156.38,202.12 156.60,202.38 156.82,202.65 157.04,202.91 157.25,203.19 157.47,203.46 157.69,203.75 157.91,204.04 158.13,204.34 158.35,204.65 158.57,204.97 158.79,205.29 159.01,205.62 159.23,205.97 159.45,206.32 159.67,206.68 159.89,207.04 160.11,207.42 160.33,207.80 160.55,208.19 160.77,208.59 160.99,209.00 161.21,209.41 161.43,209.83 161.65,210.25 161.87,210.68 162.09,211.12 162.31,211.56 162.53,212.01 162.75,212.45 162.97,212.91 163.19,213.36 163.41,213.82 163.63,214.28 163.85,214.74 164.07,215.20 164.29,215.67 164.51,216.13 164.73,216.59 164.94,217.06 165.16,217.52 165.38,217.98 165.60,218.43 165.82,218.89 166.04,219.34 166.26,219.79 166.48,220.23 166.70,220.67 166.92,221.10 167.14,221.53 167.36,221.96 167.58,222.38 167.80,222.79 168.02,223.20 168.24,223.60 168.46,223.99 168.68,224.38 168.90,224.76 169.12,225.13 169.34,225.49 169.56,225.85 169.78,226.20 170.00,226.54 170.22,226.87 170.44,227.19 170.66,227.50 170.88,227.80 171.10,228.09 171.32,228.36 171.54,228.63 171.76,228.87 171.98,229.11 172.20,229.32 172.42,229.53 172.63,229.71 172.85,229.89 173.07,230.04 173.29,230.18 173.51,230.31 173.73,230.41 173.95,230.50 174.17,230.58 174.39,230.64 174.61,230.68 174.83,230.71 175.05,230.72 175.27,230.72 175.49,230.70 175.71,230.67 175.93,230.62 176.15,230.56 176.37,230.48 176.59,230.39 176.81,230.29 177.03,230.18 177.25,230.06 177.47,229.92 177.69,229.78 177.91,229.63 178.13,229.47 178.35,229.30 178.57,229.12 178.79,228.95 179.01,228.76 179.23,228.58 179.45,228.39 179.67,228.20 179.89,228.02 180.10,227.83 180.32,227.64 180.54,227.45 180.76,227.27 180.98,227.08 181.20,226.90 181.42,226.72 181.64,226.54 181.86,226.36 182.08,226.18 182.30,226.01 182.52,225.84 182.74,225.67 182.96,225.50 183.18,225.33 183.40,225.17 183.62,225.00 183.84,224.84 184.06,224.68 184.28,224.52 184.50,224.35 184.72,224.19 184.94,224.03 185.16,223.87 185.38,223.71 185.60,223.55 185.82,223.38 186.04,223.22 186.26,223.05 186.48,222.89 186.70,222.72 186.92,222.55 187.14,222.37 187.36,222.20 187.58,222.02 187.79,221.84 188.01,221.66 188.23,221.48 188.45,221.29 188.67,221.10 188.89,220.91 189.11,220.72 189.33,220.52 189.55,220.32 189.77,220.12 189.99,219.91 190.21,219.70 190.43,219.49 190.65,219.28 190.87,219.06 191.09,218.84 191.31,218.62 191.53,218.39 191.75,218.16 191.97,217.92 192.19,217.68 192.41,217.43 192.63,217.17 192.85,216.91 193.07,216.64 193.29,216.36 193.51,216.07 193.73,215.78 193.95,215.48 194.17,215.18 194.39,214.87 194.61,214.55 194.83,214.22 195.05,213.89 195.27,213.56 195.48,213.22 195.70,212.87 195.92,212.52 196.14,212.17 196.36,211.82 196.58,211.46 196.80,211.10 197.02,210.74 197.24,210.38 197.46,210.01 197.68,209.65 197.90,209.29 198.12,208.93 198.34,208.57 198.56,208.21 198.78,207.86 199.00,207.51 199.22,207.16 199.44,206.82 199.66,206.48 199.88,206.14 200.10,205.81 200.32,205.49 200.54,205.18 200.76,204.87 200.98,204.57 201.20,204.27 201.42,203.99 201.64,203.72 201.86,203.46 202.08,203.21 202.30,202.98 202.52,202.75 202.74,202.54 202.96,202.35 203.17,202.17 203.39,202.00 203.61,201.85 203.83,201.71 204.05,201.58 204.27,201.47 204.49,201.37 204.71,201.28 204.93,201.21 205.15,201.15 205.37,201.10 205.59,201.06 205.81,201.03 206.03,201.02 206.25,201.01 206.47,201.02 206.69,201.03 206.91,201.05 207.13,201.08 207.35,201.12 207.57,201.17 207.79,201.22 208.01,201.28 208.23,201.34 208.45,201.41 208.67,201.48 208.89,201.56 209.11,201.64 209.33,201.72 209.55,201.80 209.77,201.89 209.99,201.98 210.21,202.07 210.43,202.16 210.65,202.25 210.86,202.33 211.08,202.42 211.30,202.51 211.52,202.59 211.74,202.68 211.96,202.76 212.18,202.84 212.40,202.91 212.62,202.99 212.84,203.06 213.06,203.13 213.28,203.19 213.50,203.25 213.72,203.30 213.94,203.35 214.16,203.40 214.38,203.43 214.60,203.46 214.82,203.48 215.04,203.49 215.26,203.50 215.48,203.49 215.70,203.48 215.92,203.45 216.14,203.42 216.36,203.38 216.58,203.32 216.80,203.26 217.02,203.18 217.24,203.10 217.46,203.00 217.68,202.90 217.90,202.79 218.12,202.67 218.34,202.54 218.55,202.41 218.77,202.27 218.99,202.12 219.21,201.96 219.43,201.80 219.65,201.64 219.87,201.47 220.09,201.29 220.31,201.11 220.53,200.93 220.75,200.75 220.97,200.56 221.19,200.38 221.41,200.19 221.63,200.00 221.85,199.82 222.07,199.64 222.29,199.45 222.51,199.28 222.73,199.11 222.95,198.94 223.17,198.78 223.39,198.63 223.61,198.48 223.83,198.35 224.05,198.23 224.27,198.11 224.49,198.01 224.71,197.92 224.93,197.84 225.15,197.77 225.37,197.72 225.59,197.68 225.81,197.65 226.03,197.63 226.24,197.62 226.46,197.63 226.68,197.65 226.90,197.69 227.12,197.73 227.34,197.79 227.56,197.86 227.78,197.94 228.00,198.03 228.22,198.14 228.44,198.25 228.66,198.38 228.88,198.51 229.10,198.66 229.32,198.81 229.54,198.98 229.76,199.15 229.98,199.34 230.20,199.53 230.42,199.73 230.64,199.94 230.86,200.15 231.08,200.38 231.30,200.60 231.52,200.84 231.74,201.08 231.96,201.33 232.18,201.58 232.40,201.84 232.62,202.11 232.84,202.37 233.06,202.65 233.28,202.92 233.50,203.21 233.71,203.49 233.93,203.78 234.15,204.07 234.37,204.36 234.59,204.66 234.81,204.96 235.03,205.25 235.25,205.55 235.47,205.84 235.69,206.14 235.91,206.43 236.13,206.71 236.35,207.00 236.57,207.28 236.79,207.56 237.01,207.83 237.23,208.10 237.45,208.36 237.67,208.62 237.89,208.87 238.11,209.12 238.33,209.36 238.55,209.60 238.77,209.84 238.99,210.07 239.21,210.30 239.43,210.52 239.65,210.74 239.87,210.96 240.09,211.17 240.31,211.39 240.53,211.60 240.75,211.81 240.97,212.02 241.19,212.22 241.40,212.43 241.62,212.63 241.84,212.84 242.06,213.04 242.28,213.25 242.50,213.46 242.72,213.66 242.94,213.87 243.16,214.08 243.38,214.29 243.60,214.50 243.82,214.71 244.04,214.93 244.26,215.15 244.48,215.37 244.70,215.59 244.92,215.82 245.14,216.05 245.36,216.29 245.58,216.53 245.80,216.79 246.02,217.04 246.24,217.31 246.46,217.59 246.68,217.87 246.90,218.16 247.12,218.46 247.34,218.77 247.56,219.09 247.78,219.42 248.00,219.76 248.22,220.10 248.44,220.46 248.66,220.82 248.88,221.19 249.09,221.57 249.31,221.95 249.53,222.34 249.75,222.74 249.97,223.14 250.19,223.55 250.41,223.96 250.63,224.38 250.85,224.80 251.07,225.22 251.29,225.64 251.51,226.07 251.73,226.50 251.95,226.92 252.17,227.35 252.39,227.78 252.61,228.20 252.83,228.63 253.05,229.05 253.27,229.47 253.49,229.89 253.71,230.30 253.93,230.71 254.15,231.11 254.37,231.51 254.59,231.91 254.81,232.30 255.03,232.68 255.25,233.06 255.47,233.43 255.69,233.79 255.91,234.15 256.13,234.50 256.35,234.84 256.57,235.17 256.78,235.50 257.00,235.81 257.22,236.11 257.44,236.40 257.66,236.67 257.88,236.94 258.10,237.19 258.32,237.43 258.54,237.65 258.76,237.86 258.98,238.05 259.20,238.23 259.42,238.40 259.64,238.54 259.86,238.68 260.08,238.80 260.30,238.90 260.52,238.99 260.74,239.07 260.96,239.13 261.18,239.18 261.40,239.22 261.62,239.24 261.84,239.25 262.06,239.25 262.28,239.24 262.50,239.22 262.72,239.19 262.94,239.15 263.16,239.10 263.38,239.05 263.60,238.99 263.82,238.92 264.04,238.84 264.26,238.76 264.47,238.67 264.69,238.58 264.91,238.49 265.13,238.39 265.35,238.28 265.57,238.18 265.79,238.07 266.01,237.97 266.23,237.86 266.45,237.75 266.67,237.64 266.89,237.54 267.11,237.44 267.33,237.34 267.55,237.25 267.77,237.16 267.99,237.08 268.21,237.01 268.43,236.95 268.65,236.89 268.87,236.85 269.09,236.81 269.31,236.78 269.53,236.76 269.75,236.76 269.97,236.76 270.19,236.77 270.41,236.79 270.63,236.82 270.85,236.86 271.07,236.91 271.29,236.97 271.51,237.04 271.73,237.11 271.95,237.19 272.16,237.29 272.38,237.39 272.60,237.49 272.82,237.61 273.04,237.72 273.26,237.85 273.48,237.98 273.70,238.11 273.92,238.25 274.14,238.40 274.36,238.55 274.58,238.70 274.80,238.85 275.02,239.01 275.24,239.16 275.46,239.32 275.68,239.48 275.90,239.64 276.12,239.81 276.34,239.97 276.56,240.13 276.78,240.29 277.00,240.45 277.22,240.61 277.44,240.77 277.66,240.93 277.88,241.08 278.10,241.23 278.32,241.38 278.54,241.53 278.76,241.68 278.98,241.82 279.20,241.95 279.42,242.08 279.64,242.21 279.85,242.32 280.07,242.44 280.29,242.54 280.51,242.63 280.73,242.72 280.95,242.80 281.17,242.87 281.39,242.93 281.61,242.98 281.83,243.02 282.05,243.05 282.27,243.07 282.49,243.08 282.71,243.09 282.93,243.08 283.15,243.06 283.37,243.04 283.59,243.01 283.81,242.97 284.03,242.92 284.25,242.86 284.47,242.80 284.69,242.73 284.91,242.65 285.13,242.57 285.35,242.49 285.57,242.39 285.79,242.30 286.01,242.20 286.23,242.10 286.45,241.99 286.67,241.88 286.89,241.77 287.11,241.66 287.32,241.55 287.54,241.44 287.76,241.32 287.98,241.22 288.20,241.11 288.42,241.00 288.64,240.90 288.86,240.81 289.08,240.72 289.30,240.64 289.52,240.56 289.74,240.50 289.96,240.44 290.18,240.39 290.40,240.36 290.62,240.33 290.84,240.31 291.06,240.31 291.28,240.31 291.50,240.33 291.72,240.36 291.94,240.39 292.16,240.44 292.38,240.50 292.60,240.57 292.82,240.65 293.04,240.73 293.26,240.83 293.48,240.94 293.70,241.05 293.92,241.18 294.14,241.31 294.36,241.45 294.58,241.59 294.80,241.74 295.01,241.90 295.23,242.07 295.45,242.24 295.67,242.41 295.89,242.59 296.11,242.77 296.33,242.95 296.55,243.14 296.77,243.34 296.99,243.53 297.21,243.72 297.43,243.92 297.65,244.12 297.87,244.32 298.09,244.52 298.31,244.72 298.53,244.92 298.75,245.12 298.97,245.32 299.19,245.52 299.41,245.71 299.63,245.91 299.85,246.10 300.07,246.29 300.29,246.48 300.51,246.66 300.73,246.85 300.95,247.02 301.17,247.20 301.39,247.37 301.61,247.53 301.83,247.68 302.05,247.83 302.27,247.97 302.49,248.10 302.70,248.22 302.92,248.34 303.14,248.44 303.36,248.53 303.58,248.61 303.80,248.69 304.02,248.75 304.24,248.80 304.46,248.84 304.68,248.87 304.90,248.90 305.12,248.91 305.34,248.91 305.56,248.90 305.78,248.88 306.00,248.86 306.22,248.82 306.44,248.78 306.66,248.73 306.88,248.68 307.10,248.61 307.32,248.55 307.54,248.47 307.76,248.39 307.98,248.31 308.20,248.22 308.42,248.13 308.64,248.03 308.86,247.93 309.08,247.83 309.30,247.73 309.52,247.62 309.74,247.52 309.96,247.41 310.18,247.31 310.39,247.21 310.61,247.11 310.83,247.01 311.05,246.92 311.27,246.83 311.49,246.74 311.71,246.67 311.93,246.60 312.15,246.54 312.37,246.49 312.59,246.44 312.81,246.41 313.03,246.38 313.25,246.37 313.47,246.36 313.69,246.36 313.91,246.38 314.13,246.40 314.35,246.43 314.57,246.47 314.79,246.52 315.01,246.57 315.23,246.64 315.45,246.71 315.67,246.79 315.89,246.88 316.11,246.97 316.33,247.07 316.55,247.18 316.77,247.29 316.99,247.40 317.21,247.52 317.43,247.64 317.65,247.77 317.87,247.90 318.08,248.03 318.30,248.17 318.52,248.31 318.74,248.44 318.96,248.58 319.18,248.72 319.40,248.86 319.62,249.00 319.84,249.14 320.06,249.28 320.28,249.41 320.50,249.55 320.72,249.68 320.94,249.81 321.16,249.94 321.38,250.07 321.60,250.19 321.82,250.31 322.04,250.43 322.26,250.54 322.48,250.64 322.70,250.74 322.92,250.84 323.14,250.93 323.36,251.01 323.58,251.08 323.80,251.14 324.02,251.20 324.24,251.24 324.46,251.28 324.68,251.30 324.90,251.31 325.12,251.32 325.34,251.31 325.56,251.29 325.77,251.26 325.99,251.22 326.21,251.16 326.43,251.10 326.65,251.03 326.87,250.95 327.09,250.86 327.31,250.76 327.53,250.65 327.75,250.53 327.97,250.40 328.19,250.27 328.41,250.13 328.63,249.98 328.85,249.83 329.07,249.67 329.29,249.51 329.51,249.34 329.73,249.17 329.95,248.99 330.17,248.81 330.39,248.63 330.61,248.45 330.83,248.26 331.05,248.08 331.27,247.89 331.49,247.70 331.71,247.52 331.93,247.33 332.15,247.14 332.37,246.96 332.59,246.78 332.81,246.61 333.03,246.44 333.25,246.27 333.46,246.12 333.68,245.97 333.90,245.82 334.12,245.69 334.34,245.57 334.56,245.46 334.78,245.35 335.00,245.26 335.22,245.18 335.44,245.11 335.66,245.05 335.88,245.01 336.10,244.97 336.32,244.95 336.54,244.93 336.76,244.93 336.98,244.94 337.20,244.95 337.42,244.98 337.64,245.02 337.86,245.06 338.08,245.12 338.30,245.18 338.52,245.25 338.74,245.33 338.96,245.42 339.18,245.51 339.40,245.61 339.62,245.71 339.84,245.82 340.06,245.93 340.28,246.05 340.50,246.17 340.72,246.29 340.94,246.42 341.15,246.55 341.37,246.68 341.59,246.81 341.81,246.94 342.03,247.08 342.25,247.21 342.47,247.35 342.69,247.49 342.91,247.62 343.13,247.76 343.35,247.89 343.57,248.03 343.79,248.16 344.01,248.29 344.23,248.42 344.45,248.54 344.67,248.67 344.89,248.78 345.11,248.90 345.33,249.01 345.55,249.12 345.77,249.22 345.99,249.31 346.21,249.39 346.43,249.47 346.65,249.54 346.87,249.60 347.09,249.66 347.31,249.70 347.53,249.73 347.75,249.76 347.97,249.77 348.19,249.78 348.41,249.77 348.62,249.76 348.84,249.73 349.06,249.70 349.28,249.66 349.50,249.61 349.72,249.55 349.94,249.48 350.16,249.40 350.38,249.32 350.60,249.23 350.82,249.14 351.04,249.04 351.26,248.93 351.48,248.82 351.70,248.70 351.92,248.58 352.14,248.46 352.36,248.34 352.58,248.21 352.80,248.09 353.02,247.96 353.24,247.83 353.46,247.70 353.68,247.58 353.90,247.46 354.12,247.34 354.34,247.22 354.56,247.11 354.78,247.01 355.00,246.91 355.22,246.83 355.44,246.75 355.66,246.68 355.88,246.62 356.10,246.57 356.31,246.53 356.53,246.51 356.75,246.49 356.97,246.48 357.19,246.49 357.41,246.51 357.63,246.53 357.85,246.57 358.07,246.62 358.29,246.68 358.51,246.75 358.73,246.83 358.95,246.92 359.17,247.02 359.39,247.13 359.61,247.24 359.83,247.37 360.05,247.50 360.27,247.64 360.49,247.79 360.71,247.94 360.93,248.10 361.15,248.27 361.37,248.44 361.59,248.62 361.81,248.80 362.03,248.99 362.25,249.18 362.47,249.37 362.69,249.57 362.91,249.77 363.13,249.97 363.35,250.17 363.57,250.38 363.79,250.59 364.00,250.79 364.22,251.00 364.44,251.21 364.66,251.42 364.88,251.63 365.10,251.84 365.32,252.04 365.54,252.25 365.76,252.46 365.98,252.66 366.20,252.87 366.42,253.07 366.64,253.28 366.86,253.48 367.08,253.67 367.30,253.87 367.52,254.06 367.74,254.25 367.96,254.44 368.18,254.62 368.40,254.80 368.62,254.97 368.84,255.14 369.06,255.30 369.28,255.45 369.50,255.60 369.72,255.73 369.94,255.87 370.16,255.99 370.38,256.11 370.60,256.21 370.82,256.31 371.04,256.41 371.26,256.49 371.48,256.57 371.69,256.65 371.91,256.71 372.13,256.77 372.35,256.83 372.57,256.88 372.79,256.92 373.01,256.96 373.23,256.99 373.45,257.03 373.67,257.05 373.89,257.08 374.11,257.11 374.33,257.13 374.55,257.15 374.77,257.17 374.99,257.20 375.21,257.22 375.43,257.25 375.65,257.28 375.87,257.32 376.09,257.36 376.31,257.41 376.53,257.46 376.75,257.53 376.97,257.60 377.19,257.68 377.41,257.77 377.63,257.88 377.85,257.99 378.07,258.12 378.29,258.26 378.51,258.41 378.73,258.57 378.95,258.74 379.17,258.93 379.38,259.13 379.60,259.34 379.82,259.56 380.04,259.79 380.26,260.03 380.48,260.29 380.70,260.55 380.92,260.83 381.14,261.12 381.36,261.41 381.58,261.72 381.80,262.03 382.02,262.35 382.24,262.68 382.46,263.02 382.68,263.36 382.90,263.72 383.12,264.07 383.34,264.44 383.56,264.80 383.78,265.18 384.00,265.56 384.22,265.94 384.44,266.32 384.66,266.71 384.88,267.10 385.10,267.50 385.32,267.89 385.54,268.29 385.76,268.69 385.98,269.09 386.20,269.49 386.42,269.89 386.64,270.29 386.86,270.69 387.07,271.08 387.29,271.48 387.51,271.88 387.73,272.27 387.95,272.67 388.17,273.06 388.39,273.45 388.61,273.83 388.83,274.22 389.05,274.60 389.27,274.98 389.49,275.36 389.71,275.73 389.93,276.10 390.15,276.46 390.37,276.82 390.59,277.17 390.81,277.52 391.03,277.85 391.25,278.18 391.47,278.50 391.69,278.82 391.91,279.12 392.13,279.41 392.35,279.70 392.57,279.97 392.79,280.24 393.01,280.50 393.23,280.75 393.45,280.98 393.67,281.22 393.89,281.44 394.11,281.65 394.33,281.86 394.55,282.05 394.76,282.24 394.98,282.43 395.20,282.60 395.42,282.77 395.64,282.94 395.86,283.10 396.08,283.25 396.30,283.40 396.52,283.55 396.74,283.69 396.96,283.83 397.18,283.97 397.40,284.11 397.62,284.25 397.84,284.39 398.06,284.53 398.28,284.67 398.50,284.82 398.72,284.98 398.94,285.14 399.16,285.31 399.38,285.48 399.60,285.67 399.82,285.86 400.04,286.05 400.26,286.26 400.48,286.48 400.70,286.70 400.92,286.94 401.14,287.18 401.36,287.43 401.58,287.69 401.80,287.96 402.02,288.24 402.23,288.53 402.45,288.82 402.67,289.12 402.89,289.43 403.11,289.75 403.33,290.07 403.55,290.40 403.77,290.74 403.99,291.08 404.21,291.42 404.43,291.77 404.65,292.12 404.87,292.48 405.09,292.84 405.31,293.20 405.53,293.57 405.75,293.93 405.97,294.30 406.19,294.67 406.41,295.04 406.63,295.41 406.85,295.78 407.07,296.15 407.29,296.52 407.51,296.89 407.73,297.26 407.95,297.62 408.17,297.98 408.39,298.34 408.61,298.70 408.83,299.06 409.05,299.41 409.27,299.76 409.49,300.10 409.71,300.44 409.92,300.78 410.14,301.11 410.36,301.44 410.58,301.77 410.80,302.09 411.02,302.41 411.24,302.72 411.46,303.02 411.68,303.32 411.90,303.61 412.12,303.89 412.34,304.17 412.56,304.44 412.78,304.69 413.00,304.94 413.22,305.18 413.44,305.41 413.66,305.63 413.88,305.84 414.10,306.03 414.32,306.22 414.54,306.40 414.76,306.56 414.98,306.72 415.20,306.86 415.42,306.99 415.64,307.12 415.86,307.23 416.08,307.33 416.30,307.43 416.52,307.52 416.74,307.60 416.96,307.67 417.18,307.73 417.40,307.79 417.61,307.84 417.83,307.88 418.05,307.93 418.27,307.96 418.49,308.00 418.71,308.03 418.93,308.06 419.15,308.09 419.37,308.12 419.59,308.15 419.81,308.18 420.03,308.22 420.25,308.26 420.47,308.30 420.69,308.35 420.91,308.41 421.13,308.48 421.35,308.55 421.57,308.63 421.79,308.72 422.01,308.83 422.23,308.94 422.45,309.06 422.67,309.19 422.89,309.33 423.11,309.48 423.33,309.64 423.55,309.81 423.77,309.99 423.99,310.18 424.21,310.38 424.43,310.59 424.65,310.80 424.87,311.03 425.09,311.26 425.30,311.50 425.52,311.75 425.74,312.01 425.96,312.27 426.18,312.54 426.40,312.81 426.62,313.09 426.84,313.38 427.06,313.67 427.28,313.96 427.50,314.26 427.72,314.56 427.94,314.86 428.16,315.17 428.38,315.48 428.60,315.79 428.82,316.11 429.04,316.42 429.26,316.74 429.48,317.05 429.70,317.37 429.92,317.69 430.14,318.00 430.36,318.32 430.58,318.63 430.80,318.95 431.02,319.26 431.24,319.57 431.46,319.88 431.68,320.19 431.90,320.50 432.12,320.80 432.34,321.10 432.56,321.40 432.78,321.70 432.99,321.99 433.21,322.28 433.43,322.57 433.65,322.85 433.87,323.13 434.09,323.40 434.31,323.67 434.53,323.94 434.75,324.19 434.97,324.44 435.19,324.68 435.41,324.92 435.63,325.14 435.85,325.36 436.07,325.56 436.29,325.76 436.51,325.95 436.73,326.13 436.95,326.30 437.17,326.46 437.39,326.61 437.61,326.75 437.83,326.89 438.05,327.02 438.27,327.13 438.49,327.24 438.71,327.35 438.93,327.44 439.15,327.53 439.37,327.62 439.59,327.69 439.81,327.77 440.03,327.84 440.25,327.90 440.47,327.97 440.68,328.03 440.90,328.09 441.12,328.15 441.34,328.21 441.56,328.27 441.78,328.34 442.00,328.41 442.22,328.48 442.44,328.56 442.66,328.65 442.88,328.74 443.10,328.84 443.32,328.95 443.54,329.07 443.76,329.19 443.98,329.33 444.20,329.47 444.42,329.62 444.64,329.78 444.86,329.95 445.08,330.13 445.30,330.32 445.52,330.52 445.74,330.72 445.96,330.93 446.18,331.15 446.40,331.38 446.62,331.62 446.84,331.86 447.06,332.11 447.28,332.37 447.50,332.63 447.72,332.90 447.94,333.17 448.16,333.45 448.37,333.73 448.59,334.02 448.81,334.31 449.03,334.60 449.25,334.90 449.47,335.19 449.69,335.49 449.91,335.80 450.13,336.10 450.35,336.40 450.57,336.71 450.79,337.01 451.01,337.32 451.23,337.62 451.45,337.93 451.67,338.23 451.89,338.53 452.11,338.83 452.33,339.13 452.55,339.43 452.77,339.73 452.99,340.02 453.21,340.31 453.43,340.60 453.65,340.88 453.87,341.17 454.09,341.45 454.31,341.72 454.53,342.00 454.75,342.27 454.97,342.53 455.19,342.80 455.41,343.05 455.63,343.31 455.84,343.56 456.06,343.81 456.28,344.05 456.50,344.29 456.72,344.52 456.94,344.75 457.16,344.96 457.38,345.18 457.60,345.38 457.82,345.58 458.04,345.77 458.26,345.95 458.48,346.12 458.70,346.28 458.92,346.44 459.14,346.58 459.36,346.72 459.58,346.84 459.80,346.96 460.02,347.07 460.24,347.16 460.46,347.25 460.68,347.33 460.90,347.40 461.12,347.47 461.34,347.52 461.56,347.57 461.78,347.62 462.00,347.65 462.22,347.69 462.44,347.72 462.66,347.74 462.88,347.76 463.10,347.78 463.32,347.80 463.53,347.82 463.75,347.84 463.97,347.87 464.19,347.89 464.41,347.92 464.63,347.95 464.85,347.99 465.07,348.03 465.29,348.08 465.51,348.13 465.73,348.19 465.95,348.25 466.17,348.32 466.39,348.39 466.61,348.47 466.83,348.55 467.05,348.64 467.27,348.74 467.49,348.84 467.71,348.94 467.93,349.06 468.15,349.17 468.37,349.29 468.59,349.42 468.81,349.55 469.03,349.68 469.25,349.82 469.47,349.97 469.69,350.11 469.91,350.26 470.13,350.42 470.35,350.57 470.57,350.73 470.79,350.89 471.01,351.05 471.22,351.22 471.44,351.38 471.66,351.55 471.88,351.72 472.10,351.89 472.32,352.06 472.54,352.23 472.76,352.40 472.98,352.57 473.20,352.74 473.42,352.91 473.64,353.08 473.86,353.24 474.08,353.41 474.30,353.57 474.52,353.74 474.74,353.90 474.96,354.06 475.18,354.22 475.40,354.38 475.62,354.53 475.84,354.68 476.06,354.83 476.28,354.98 476.50,355.13 476.72,355.27 476.94,355.41 477.16,355.55 477.38,355.68 477.60,355.82 477.82,355.95 478.04,356.07 478.26,356.20 478.48,356.32 478.70,356.44 478.91,356.55 479.13,356.65 479.35,356.75 479.57,356.85 479.79,356.94 480.01,357.02 480.23,357.09 480.45,357.16 480.67,357.22 480.89,357.27 481.11,357.31 481.33,357.35 481.55,357.37 481.77,357.39 481.99,357.41 482.21,357.41 482.43,357.41 482.65,357.40 482.87,357.38 483.09,357.36 483.31,357.34 483.53,357.30 483.75,357.27 483.97,357.22 484.19,357.18 484.41,357.13 484.63,357.08 484.85,357.03 485.07,356.98 485.29,356.93 485.51,356.88 485.73,356.84 485.95,356.80 486.17,356.76 486.39,356.72 486.60,356.70 486.82,356.67 487.04,356.65 487.26,356.64 487.48,356.63 487.70,356.63 487.92,356.63 488.14,356.64 488.36,356.66 488.58,356.68 488.80,356.71 489.02,356.74 489.24,356.78 489.46,356.83 489.68,356.88 489.90,356.94 490.12,357.00 490.34,357.07 490.56,357.15 490.78,357.23 491.00,357.31 491.22,357.40 491.44,357.49 491.66,357.59 491.88,357.69 492.10,357.79 492.32,357.90 492.54,358.01 492.76,358.12 492.98,358.24 493.20,358.35 493.42,358.47 493.64,358.59 493.86,358.71 494.08,358.83 494.29,358.96 494.51,359.08 494.73,359.21 494.95,359.33 495.17,359.45 495.39,359.58 495.61,359.70 495.83,359.82 496.05,359.94 496.27,360.06 496.49,360.18 496.71,360.30 496.93,360.41 497.15,360.53 497.37,360.64 497.59,360.75 497.81,360.86 498.03,360.97 498.25,361.07 498.47,361.18 498.69,361.28 498.91,361.38 499.13,361.47 499.35,361.57 499.57,361.66 499.79,361.75 500.01,361.83 500.23,361.92 500.45,362.00 500.67,362.08 500.89,362.15 501.11,362.22 501.33,362.28 501.55,362.34 501.77,362.39 501.98,362.44 502.20,362.48 502.42,362.51 502.64,362.54 502.86,362.56 503.08,362.57 503.30,362.57 503.52,362.56 503.74,362.55 503.96,362.53 504.18,362.50 504.40,362.47 504.62,362.43 504.84,362.38 505.06,362.32 505.28,362.26 505.50,362.20 505.72,362.13 505.94,362.05 506.16,361.98 506.38,361.90 506.60,361.82 506.82,361.74 507.04,361.66 507.26,361.58 507.48,361.50 507.70,361.43 507.92,361.36 508.14,361.29 508.36,361.23 508.58,361.17 508.80,361.12 509.02,361.08 509.24,361.03 509.45,361.00 509.67,360.97 509.89,360.95 510.11,360.93 510.33,360.92 510.55,360.92 510.77,360.92 510.99,360.93 511.21,360.94 511.43,360.96 511.65,360.99 511.87,361.02 512.09,361.05 512.31,361.09 512.53,361.14 512.75,361.19 512.97,361.25 513.19,361.30 513.41,361.37 513.63,361.43 513.85,361.50 514.07,361.57 514.29,361.65 514.51,361.72 514.73,361.80 514.95,361.88 515.17,361.96 515.39,362.05 515.61,362.13 515.83,362.21 516.05,362.30 516.27,362.38 516.49,362.47 516.71,362.55 516.93,362.63 517.14,362.72 517.36,362.80 517.58,362.88 517.80,362.95 518.02,363.03 518.24,363.10 518.46,363.18 518.68,363.25 518.90,363.31 519.12,363.38 519.34,363.44 519.56,363.50 519.78,363.56 520.00,363.61 520.22,363.66 520.44,363.71 520.66,363.76 520.88,363.80 521.10,363.83 521.32,363.87 521.54,363.90 521.76,363.93 521.98,363.95 522.20,363.97 522.42,363.98 522.64,363.99 522.86,364.00 523.08,364.00 523.30,363.99 523.52,363.98 523.74,363.96 523.96,363.94 524.18,363.90 524.40,363.86 524.62,363.81 524.83,363.75 525.05,363.69 525.27,363.61 525.49,363.53 525.71,363.43 525.93,363.33 526.15,363.22 526.37,363.10 526.59,362.98 526.81,362.84 527.03,362.70 527.25,362.55 527.47,362.40 527.69,362.24 527.91,362.07 528.13,361.90 528.35,361.73 528.57,361.55 528.79,361.37 529.01,361.19 529.23,361.02 529.45,360.84 529.67,360.66 529.89,360.49 530.11,360.32 530.33,360.15 530.55,359.98 530.77,359.82 530.99,359.66 531.21,359.51 531.43,359.36 531.65,359.21 531.87,359.07 532.09,358.93 532.31,358.80 532.52,358.67 532.74,358.55 532.96,358.43 533.18,358.31 533.40,358.20 533.62,358.09 533.84,357.98 534.06,357.88 534.28,357.78 534.50,357.68 534.72,357.58 534.94,357.49 535.16,357.40 535.38,357.31 535.60,357.22 535.82,357.13 536.04,357.04 536.26,356.95 536.48,356.86 536.70,356.78 536.92,356.69 537.14,356.59 537.36,356.50 537.58,356.41 537.80,356.31 538.02,356.21 538.24,356.11 538.46,356.00 538.68,355.89 538.90,355.78 539.12,355.67 539.34,355.55 539.56,355.42 539.78,355.29 540.00,355.16 540.21,355.02 540.43,354.88 540.65,354.73 540.87,354.57 541.09,354.41 541.31,354.25 541.53,354.07 541.75,353.90 541.97,353.71 542.19,353.52 542.41,353.33 542.63,353.12 542.85,352.92 543.07,352.70 543.29,352.48 543.51,352.25 543.73,352.02 543.95,351.78 544.17,351.53 544.39,351.28 544.61,351.02 544.83,350.76 545.05,350.48 545.27,350.20 545.49,349.91 545.71,349.62 545.93,349.31 546.15,349.00 546.37,348.68 546.59,348.34 546.81,348.00 547.03,347.65 547.25,347.29 547.47,346.91 547.69,346.53 547.90,346.14 548.12,345.74 548.34,345.33 548.56,344.91 548.78,344.48 549.00,344.04 549.22,343.59 549.44,343.14 549.66,342.68 549.88,342.21 550.10,341.74 550.32,341.27 550.54,340.80 550.76,340.32 550.98,339.84 551.20,339.36 551.42,338.88 551.64,338.39 551.86,337.91 552.08,337.43 552.30,336.95 552.52,336.47 552.74,336.00 552.96,335.52 553.18,335.05 553.40,334.57 553.62,334.10 553.84,333.64 554.06,333.17 554.28,332.71 554.50,332.24 554.72,331.79 554.94,331.33 555.16,330.87 555.38,330.42 555.59,329.96 555.81,329.51 556.03,329.06 556.25,328.62 556.47,328.17 556.69,327.72 556.91,327.28 557.13,326.84 557.35,326.39 557.57,325.95 557.79,325.51 558.01,325.06 558.23,324.62 558.45,324.18 558.67,323.73 558.89,323.29 559.11,322.84 559.33,322.40 559.55,321.95 559.77,321.50 559.99,321.05 560.21,320.60 560.43,320.14 560.65,319.68 560.87,319.22 561.09,318.76 561.31,318.30 561.53,317.83 561.75,317.36 561.97,316.89 562.19,316.42 562.41,315.94 562.63,315.46 562.85,314.98 563.06,314.49 563.28,314.00 563.50,313.51 563.72,313.01 563.94,312.51 564.16,312.01 564.38,311.51 564.60,311.00 564.82,310.49 565.04,309.97 565.26,309.46 565.48,308.94 565.70,308.41 565.92,307.88 566.14,307.36 566.36,306.82 566.58,306.29 566.80,305.75 567.02,305.20 567.24,304.66 567.46,304.10 567.68,303.55 567.90,302.98 568.12,302.42 568.34,301.84 568.56,301.26 568.78,300.68 569.00,300.09 569.22,299.49 569.44,298.88 569.66,298.27 569.88,297.66 570.10,297.04 570.32,296.41 570.54,295.78 570.75,295.14 570.97,294.49 571.19,293.85 571.41,293.19 571.63,292.54 571.85,291.88 572.07,291.23 572.29,290.57 572.51,289.91 572.73,289.25 572.95,288.60 573.17,287.95 573.39,287.30 573.61,286.66 573.83,286.03 574.05,285.40 574.27,284.77 574.49,284.15 574.71,283.54 574.93,282.94 575.15,282.34 575.37,281.75 575.59,281.17 575.81,280.60 576.03,280.04 576.25,279.48 576.47,278.93 576.69,278.39 576.91,277.86 577.13,277.34 577.35,276.82 577.57,276.32 577.79,275.82 578.01,275.32 578.23,274.84 578.44,274.36 578.66,273.89 578.88,273.43 579.10,272.97 579.32,272.53 579.54,272.08 579.76,271.65 579.98,271.21 580.20,270.79 580.42,270.37 580.64,269.95 580.86,269.54 581.08,269.14 581.30,268.74 581.52,268.34 581.74,267.95 581.96,267.56 582.18,267.17 582.40,266.79 582.62,266.41 582.84,266.03 583.06,265.66 583.28,265.28 583.50,264.91 583.72,264.54 583.94,264.18 584.16,263.81 584.38,263.44 584.60,263.08 584.82,262.71 585.04,262.35 585.26,261.99 585.48,261.62 585.70,261.26 585.92,260.90 586.13,260.53 586.35,260.17 586.57,259.80 586.79,259.44 587.01,259.07 587.23,258.70 587.45,258.33 587.67,257.96 587.89,257.59 588.11,257.22 588.33,256.84 588.55,256.46 588.77,256.08 588.99,255.70 589.21,255.31 589.43,254.92 589.65,254.52 589.87,254.12 590.09,253.71 590.31,253.30 590.53,252.87 590.75,252.45 590.97,252.01 591.19,251.57 591.41,251.11 591.63,250.66 591.85,250.19 592.07,249.71 592.29,249.23 592.51,248.74 592.73,248.25 592.95,247.74 593.17,247.23 593.39,246.72 593.61,246.20 593.82,245.67 594.04,245.14 594.26,244.61 594.48,244.07 594.70,243.53 594.92,242.99 595.14,242.45 595.36,241.91 595.58,241.37 595.80,240.84 596.02,240.30 596.24,239.77 596.46,239.24 596.68,238.71 596.90,238.18 597.12,237.66 597.34,237.14 597.56,236.63 597.78,236.12 598.00,235.61 598.22,235.11 598.44,234.61 598.66,234.11 598.88,233.62 599.10,233.13 599.32,232.64 599.54,232.16 599.76,231.69 599.98,231.21 600.20,230.74 600.42,230.27 600.64,229.81 600.86,229.34 601.08,228.88 601.30,228.43 601.51,227.97 601.73,227.52 601.95,227.07 602.17,226.62 602.39,226.17 602.61,225.73 602.83,225.28 603.05,224.84 603.27,224.39 603.49,223.95 603.71,223.51 603.93,223.07 604.15,222.63 604.37,222.19 604.59,221.74 604.81,221.30 605.03,220.86 605.25,220.42 605.47,219.98 605.69,219.53 605.91,219.09 606.13,218.64 606.35,218.20 606.57,217.75 606.79,217.31 607.01,216.86 607.23,216.41 607.45,215.96 607.67,215.51 607.89,215.06 608.11,214.60 608.33,214.15 608.55,213.70 608.77,213.24 608.99,212.79 609.20,212.33 609.42,211.87 609.64,211.42 609.86,210.96 610.08,210.50 610.30,210.04 610.52,209.58 610.74,209.12 610.96,208.66 611.18,208.19 611.40,207.72 611.62,207.25 611.84,206.77 612.06,206.29 612.28,205.80 612.50,205.31 612.72,204.82 612.94,204.32 613.16,203.82 613.38,203.31 613.60,202.80 613.82,202.29 614.04,201.77 614.26,201.25 614.48,200.72 614.70,200.19 614.92,199.66 615.14,199.13 615.36,198.60 615.58,198.06 615.80,197.53 616.02,196.99 616.24,196.46 616.46,195.93 616.68,195.40 616.89,194.88 617.11,194.36 617.33,193.85 617.55,193.34 617.77,192.84 617.99,192.35 618.21,191.87 618.43,191.39 618.65,190.92 618.87,190.47 619.09,190.02 619.31,189.57 619.53,189.14 619.75,188.72 619.97,188.31 620.19,187.90 620.41,187.51 620.63,187.12 620.85,186.74 621.07,186.38 621.29,186.02 621.51,185.67 621.73,185.33 621.95,185.00 622.17,184.67 622.39,184.36 622.61,184.05 622.83,183.75 623.05,183.46 623.27,183.17 623.49,182.90 623.71,182.63 623.93,182.36 624.15,182.11 624.36,181.85 624.58,181.61 624.80,181.37 625.02,181.14 625.24,180.91 625.46,180.69 625.68,180.48 625.90,180.27 626.12,180.06 626.34,179.86 626.56,179.66 626.78,179.47 627.00,179.29 627.22,179.10 627.44,178.93 627.66,178.75 627.88,178.58 628.10,178.42 628.32,178.26 628.54,178.10 628.76,177.94 628.98,177.79 629.20,177.65 629.42,177.51 629.64,177.37 629.86,177.24 630.08,177.11 630.30,176.98 630.52,176.86 630.74,176.74 630.96,176.63 631.18,176.52 631.40,176.42 631.62,176.32 631.84,176.22 632.05,176.13 632.27,176.05 632.49,175.96 632.71,175.89 632.93,175.81 633.15,175.75 633.37,175.68 633.59,175.62 633.81,175.57 634.03,175.51 634.25,175.46 634.47,175.41 634.69,175.37 634.91,175.33 635.13,175.29 635.35,175.25 635.57,175.21 635.79,175.18 636.01,175.15 636.23,175.12 636.45,175.09 636.67,175.07 636.89,175.04 637.11,175.03 637.33,175.01 637.55,175.00 637.77,175.00 637.99,175.00 638.21,175.01 638.43,175.03 638.65,175.05 638.87,175.08 639.09,175.12 639.31,175.17 639.53,175.23 639.74,175.30 639.96,175.38 640.18,175.47 640.40,175.57 640.62,175.68 640.84,175.81 641.06,175.94 641.28,176.08 641.50,176.24 641.72,176.40 641.94,176.58 642.16,176.77 642.38,176.96 642.60,177.17 642.82,177.39 643.04,177.62 643.26,177.86 643.48,178.10 643.70,178.36 643.92,178.63 644.14,178.90 644.36,179.18 644.58,179.47 644.80,179.77 645.02,180.08 645.24,180.39 645.46,180.71 645.68,181.03 645.90,181.37 646.12,181.70 646.34,182.04 646.56,182.39 646.78,182.74 647.00,183.10 647.22,183.46 647.43,183.82 647.65,184.18 647.87,184.55 648.09,184.92 648.31,185.29 648.53,185.66 648.75,186.03 648.97,186.40 649.19,186.78 649.41,187.15 649.63,187.52 649.85,187.90 650.07,188.27 650.29,188.64 650.51,189.00 650.73,189.37 650.95,189.74 651.17,190.10 651.39,190.46 651.61,190.81 651.83,191.17 652.05,191.52 652.27,191.87 652.49,192.21 652.71,192.55 652.93,192.89 653.15,193.22 653.37,193.54 653.59,193.87 653.81,194.18 654.03,194.49 654.25,194.80 654.47,195.10 654.69,195.39 654.91,195.67 655.12,195.95 655.34,196.21 655.56,196.47 655.78,196.72 656.00,196.95 656.22,197.18 656.44,197.40 656.66,197.60 656.88,197.80 657.10,197.98 657.32,198.15 657.54,198.31 657.76,198.47 657.98,198.61 658.20,198.74 658.42,198.86 658.64,198.97 658.86,199.08 659.08,199.17 659.30,199.26 659.52,199.34 659.74,199.41 659.96,199.48 660.18,199.54 660.40,199.60 660.62,199.66 660.84,199.71 661.06,199.76 661.28,199.81 661.50,199.85 661.72,199.91 661.94,199.96 662.16,200.01 662.38,200.07 662.60,200.13 662.81,200.19 663.03,200.26 663.25,200.33 663.47,200.40 663.69,200.48 663.91,200.57 664.13,200.66 664.35,200.75 664.57,200.85 664.79,200.96 665.01,201.07 665.23,201.18 665.45,201.30 665.67,201.42 665.89,201.55 666.11,201.69 666.33,201.83 666.55,201.97 666.77,202.12 666.99,202.27 667.21,202.43 667.43,202.59 667.65,202.75 667.87,202.92 668.09,203.09 668.31,203.26 668.53,203.43 668.75,203.61 668.97,203.79 669.19,203.98 669.41,204.16 669.63,204.35 669.85,204.53 670.07,204.72 670.29,204.91 670.50,205.10 670.72,205.29 670.94,205.49 671.16,205.68 671.38,205.87 671.60,206.06 671.82,206.25 672.04,206.45 672.26,206.64 672.48,206.83 672.70,207.02 672.92,207.21 673.14,207.39 673.36,207.58 673.58,207.77 673.80,207.95 674.02,208.13 674.24,208.31 674.46,208.49 674.68,208.67 674.90,208.84 675.12,209.02 675.34,209.19 675.56,209.35 675.78,209.52 676.00,209.68 676.22,209.84 676.44,210.00 676.66,210.15 676.88,210.30 677.10,210.44 677.32,210.58 677.54,210.72 677.76,210.85 677.97,210.98 678.19,211.10 678.41,211.21 678.63,211.32 678.85,211.42 679.07,211.51 679.29,211.60 679.51,211.68 679.73,211.75 679.95,211.81 680.17,211.87 680.39,211.91 680.61,211.95 680.83,211.98 681.05,212.01 681.27,212.03 681.49,212.04 681.71,212.05 681.93,212.05 682.15,212.04 682.37,212.04 682.59,212.03 682.81,212.01 683.03,212.00 683.25,211.97 683.47,211.95 683.69,211.92 683.91,211.90 684.13,211.87 684.35,211.83 684.57,211.80 684.79,211.76 685.01,211.72 685.23,211.67 685.45,211.63 685.66,211.58 685.88,211.52 686.10,211.47 686.32,211.41 686.54,211.35 686.76,211.29 686.98,211.22 687.20,211.15 687.42,211.07 687.64,210.99 687.86,210.91 688.08,210.82 688.30,210.73 688.52,210.63 688.74,210.53 688.96,210.42 689.18,210.31 689.40,210.19 689.62,210.07 689.84,209.94 690.06,209.81 690.28,209.67 690.50,209.53 690.72,209.38 690.94,209.22 691.16,209.06 691.38,208.89 691.60,208.71 691.82,208.53 692.04,208.34 692.26,208.14 692.48,207.94 692.70,207.73 692.92,207.51 693.14,207.29 693.35,207.06 693.57,206.82 693.79,206.58 694.01,206.33 694.23,206.07 694.45,205.80 694.67,205.53 694.89,205.25 695.11,204.97 695.33,204.68 695.55,204.38 695.77,204.07 695.99,203.76 696.21,203.45 696.43,203.12 696.65,202.79 696.87,202.46 697.09,202.12 697.31,201.77 697.53,201.42 697.75,201.06 697.97,200.70 698.19,200.34 698.41,199.96 698.63,199.58 698.85,199.20 699.07,198.81 699.29,198.41 699.51,198.01 699.73,197.60 699.95,197.18 700.17,196.76 700.39,196.33 700.61,195.89 700.83,195.44 701.04,194.99 701.26,194.53 701.48,194.06 701.70,193.59 701.92,193.10 702.14,192.62 702.36,192.12 702.58,191.62 702.80,191.12 703.02,190.61 703.24,190.09 703.46,189.57 703.68,189.05 703.90,188.53 704.12,188.01 704.34,187.48 704.56,186.96 704.78,186.44 705.00,185.92 705.22,185.41 705.44,184.90 705.66,184.40 705.88,183.90 706.10,183.40 706.32,182.92 706.54,182.44 706.76,181.96 706.98,181.50 707.20,181.04 707.42,180.59 707.64,180.15 707.86,179.72 708.08,179.30 708.30,178.89 708.52,178.48 708.73,178.08 708.95,177.70 709.17,177.32 709.39,176.95 709.61,176.59 709.83,176.23 710.05,175.89 710.27,175.55 710.49,175.22 710.71,174.90 710.93,174.59 711.15,174.28 711.37,173.99 711.59,173.70 711.81,173.41 712.03,173.14 712.25,172.87 712.47,172.61 712.69,172.35 712.91,172.10 713.13,171.86 713.35,171.62 713.57,171.39 713.79,171.17 714.01,170.95 714.23,170.73 714.45,170.52 714.67,170.32 714.89,170.12 715.11,169.92 715.33,169.73 715.55,169.54 715.77,169.36 715.99,169.18 716.21,169.00 716.42,168.83 716.64,168.66 716.86,168.50 717.08,168.34 717.30,168.18 717.52,168.02 717.74,167.87 717.96,167.72 718.18,167.57 718.40,167.43 718.62,167.29 718.84,167.15 719.06,167.01 719.28,166.87 719.50,166.74 719.72,166.61 719.94,166.48 720.16,166.35 720.38,166.22 720.60,166.09 720.82,165.95 721.04,165.82 721.26,165.68 721.48,165.54 721.70,165.40 721.92,165.26 722.14,165.11 722.36,164.96 722.58,164.80 722.80,164.64 723.02,164.48 723.24,164.31 723.46,164.14 723.68,163.96 723.90,163.78 724.11,163.60 724.33,163.41 724.55,163.22 724.77,163.03 724.99,162.83 725.21,162.64 725.43,162.44 725.65,162.24 725.87,162.04 726.09,161.84 726.31,161.64 726.53,161.44 726.75,161.25 726.97,161.06 727.19,160.87 727.41,160.68 727.63,160.51 727.85,160.34 728.07,160.17 728.29,160.01 728.51,159.86 728.73,159.71 728.95,159.58 729.17,159.45 729.39,159.33 729.61,159.21 729.83,159.10 730.05,159.01 730.27,158.91 730.49,158.83 730.71,158.75 730.93,158.68 731.15,158.62 731.37,158.56 731.58,158.51 731.80,158.47 732.02,158.43 732.24,158.40 732.46,158.37 732.68,158.35 732.90,158.33 733.12,158.32 733.34,158.31 733.56,158.31 733.78,158.30 734.00,158.31 734.22,158.31 734.44,158.32 734.66,158.33 734.88,158.34 735.10,158.36 735.32,158.37 735.54,158.39 735.76,158.41 735.98,158.43 736.20,158.44 736.42,158.46 736.64,158.48 736.86,158.50 737.08,158.52 737.30,158.53 737.52,158.55 737.74,158.56 737.96,158.58 738.18,158.59 738.40,158.60 738.62,158.61 738.84,158.61 739.06,158.62 739.27,158.62 739.49,158.62 739.71,158.62 739.93,158.61 740.15,158.60 740.37,158.59 740.59,158.58 740.81,158.57 741.03,158.55 741.25,158.53 741.47,158.50 741.69,158.47 741.91,158.44 742.13,158.41 742.35,158.37 742.57,158.32 742.79,158.27 743.01,158.21 743.23,158.14 743.45,158.07 743.67,157.99 743.89,157.91 744.11,157.82 744.33,157.71 744.55,157.61 744.77,157.49 744.99,157.37 745.21,157.24 745.43,157.10 745.65,156.96 745.87,156.80 746.09,156.65 746.31,156.48 746.53,156.31 746.75,156.14 746.96,155.96 747.18,155.77 747.40,155.58 747.62,155.39 747.84,155.20 748.06,155.00 748.28,154.81 748.50,154.61 748.72,154.42 748.94,154.23 749.16,154.04 749.38,153.85 749.60,153.67 749.82,153.49 750.04,153.32 750.26,153.15 750.48,152.99 750.70,152.83 750.92,152.68 751.14,152.53 751.36,152.40 751.58,152.27 751.80,152.14 752.02,152.02 752.24,151.91 752.46,151.81 752.68,151.71 752.90,151.61 753.12,151.53 753.34,151.45 753.56,151.37 753.78,151.30 754.00,151.24 754.22,151.18 754.44,151.13 754.65,151.08 754.87,151.04 755.09,151.00 755.31,150.97 755.53,150.94 755.75,150.91 755.97,150.89 756.19,150.87 756.41,150.85 756.63,150.83 756.85,150.82 757.07,150.81 757.29,150.80 757.51,150.79 757.73,150.78 757.95,150.78 758.17,150.77 758.39,150.77 758.61,150.76 758.83,150.76 759.05,150.76 759.27,150.75 759.49,150.74 759.71,150.74 759.93,150.73 760.15,150.72 760.37,150.71 760.59,150.70 760.81,150.69 761.03,150.68 761.25,150.66 761.47,150.65 761.69,150.63 761.91,150.61 762.13,150.59 762.34,150.57 762.56,150.54 762.78,150.52 763.00,150.49 763.22,150.46 763.44,150.43 763.66,150.40 763.88,150.36 764.10,150.32 764.32,150.28 764.54,150.24 764.76,150.19 764.98,150.14 765.20,150.09 765.42,150.03 765.64,149.96 765.86,149.89 766.08,149.82 766.30,149.74 766.52,149.65 766.74,149.55 766.96,149.45 767.18,149.35 767.40,149.24 767.62,149.12 767.84,148.99 768.06,148.86 768.28,148.73 768.50,148.58 768.72,148.44 768.94,148.29 769.16,148.13 769.38,147.97 769.60,147.81 769.82,147.65 770.03,147.49 770.25,147.32 770.47,147.16 770.69,146.99 770.91,146.83 771.13,146.67 771.35,146.52 771.57,146.37 771.79,146.22 772.01,146.08 772.23,145.94 772.45,145.81 772.67,145.68 772.89,145.56 773.11,145.44 773.33,145.33 773.55,145.23 773.77,145.13 773.99,145.04 774.21,144.95 774.43,144.87 774.65,144.80 774.87,144.73 775.09,144.66 775.31,144.60 775.53,144.55 775.75,144.50 775.97,144.46 776.19,144.42 776.41,144.39 776.63,144.36 776.85,144.34 777.07,144.32 777.29,144.30 777.51,144.29 777.72,144.28 777.94,144.27 778.16,144.27 778.38,144.26 778.60,144.27 778.82,144.27 779.04,144.27 779.26,144.28 779.48,144.29 779.70,144.30 779.92,144.31 780.14,144.32 780.36,144.34 780.58,144.35 780.80,144.36 781.02,144.38 781.24,144.39 781.46,144.41 781.68,144.42 781.90,144.44 782.12,144.45 782.34,144.46 782.56,144.47 782.78,144.48 783.00,144.49 783.22,144.50 783.44,144.51 783.66,144.52 783.88,144.53 784.10,144.53 784.32,144.53 784.54,144.53 784.76,144.54 784.98,144.53 785.19,144.53 785.41,144.53 785.63,144.52 785.85,144.51 786.07,144.50 786.29,144.49 786.51,144.47 786.73,144.45 786.95,144.42 787.17,144.39 787.39,144.36 787.61,144.32 787.83,144.27 788.05,144.22 788.27,144.16 788.49,144.10 788.71,144.03 788.93,143.95 789.15,143.87 789.37,143.78 789.59,143.69 789.81,143.59 790.03,143.48 790.25,143.37 790.47,143.25 790.69,143.13 790.91,143.01 791.13,142.88 791.35,142.75 791.57,142.61 791.79,142.48 792.01,142.34 792.23,142.21 792.45,142.08 792.67,141.94 792.88,141.82 793.10,141.69 793.32,141.57 793.54,141.45 793.76,141.34 793.98,141.23 794.20,141.12 794.42,141.03 794.64,140.94 794.86,140.85 795.08,140.77 795.30,140.70 795.52,140.63 795.74,140.57 795.96,140.52 796.18,140.47 796.40,140.43 796.62,140.39 796.84,140.36 797.06,140.34 797.28,140.32 797.50,140.30 797.72,140.30 797.94,140.29 798.16,140.29 798.38,140.30 798.60,140.31 798.82,140.32 799.04,140.34 799.26,140.36 799.48,140.39 799.70,140.42 799.92,140.45 800.14,140.48 800.36,140.52 800.57,140.56 800.79,140.60 801.01,140.64 801.23,140.68 801.45,140.73 801.67,140.77 801.89,140.82 802.11,140.87 802.33,140.91 802.55,140.96 802.77,141.01 802.99,141.06 803.21,141.10 803.43,141.15 803.65,141.20 803.87,141.24 804.09,141.29 804.31,141.33 804.53,141.37 804.75,141.41 804.97,141.45 805.19,141.49 805.41,141.53 805.63,141.57 805.85,141.60 806.07,141.63 806.29,141.66 806.51,141.69 806.73,141.72 806.95,141.74 807.17,141.77 807.39,141.79 807.61,141.81 807.83,141.83 808.05,141.84 808.26,141.85 808.48,141.86 808.70,141.87 808.92,141.87 809.14,141.86 809.36,141.86 809.58,141.84 809.80,141.83 810.02,141.80 810.24,141.77 810.46,141.74 810.68,141.69 810.90,141.65 811.12,141.59 811.34,141.53 811.56,141.46 811.78,141.39 812.00,141.31" fill="none" stroke="#c5221f" stroke-width="2"/>
<text x="662" y="56" font-family="Arial" font-size="12" fill="#c5221f">Experiment</text>
</svg>