<svg xmlns="http://www.w3.org/2000/svg" width="840" height="460" viewBox="0 0 840 460">
<rect width="100%" height="100%" fill="white"/>
<text x="420.0" y="23" text-anchor="middle" font-family="Arial" font-size="15">N=4 transferred charge: experiment vs simulation</text>
<line x1="92" y1="394" x2="812" y2="394" stroke="#333"/>
<line x1="92" y1="34" x2="92" y2="394" stroke="#333"/>
<text x="420.0" y="442" text-anchor="middle" font-family="Arial" font-size="12">Normalized time</text>
<text x="16" y="230.0" text-anchor="middle" transform="rotate(-90 16 230.0)" font-family="Arial" font-size="12">Transferred charge (nC)</text>
<line x1="92" y1="34.0" x2="812" y2="34.0" stroke="#e1e5ea"/>
<text x="84" y="38.0" text-anchor="end" font-family="Arial" font-size="10">77.2</text>
<line x1="92" y1="106.0" x2="812" y2="106.0" stroke="#e1e5ea"/>
<text x="84" y="110.0" text-anchor="end" font-family="Arial" font-size="10">-81.1</text>
<line x1="92" y1="178.0" x2="812" y2="178.0" stroke="#e1e5ea"/>
<text x="84" y="182.0" text-anchor="end" font-family="Arial" font-size="10">-239.4</text>
<line x1="92" y1="250.0" x2="812" y2="250.0" stroke="#e1e5ea"/>
<text x="84" y="254.0" text-anchor="end" font-family="Arial" font-size="10">-397.7</text>
<line x1="92" y1="322.0" x2="812" y2="322.0" stroke="#e1e5ea"/>
<text x="84" y="326.0" text-anchor="end" font-family="Arial" font-size="10">-556.0</text>
<line x1="92" y1="394.0" x2="812" y2="394.0" stroke="#e1e5ea"/>
<text x="84" y="398.0" text-anchor="end" font-family="Arial" font-size="10">-714.4</text>
<line x1="92.0" y1="394" x2="92.0" y2="399" stroke="#333"/>
<text x="92.0" y="414" text-anchor="middle" font-family="Arial" font-size="10">0.00</text>
<line x1="236.0" y1="394" x2="236.0" y2="399" stroke="#333"/>
<text x="236.0" y="414" text-anchor="middle" font-family="Arial" font-size="10">0.20</text>
<line x1="380.0" y1="394" x2="380.0" y2="399" stroke="#333"/>
<text x="380.0" y="414" text-anchor="middle" font-family="Arial" font-size="10">0.40</text>
<line x1="524.0" y1="394" x2="524.0" y2="399" stroke="#333"/>
<text x="524.0" y="414" text-anchor="middle" font-family="Arial" font-size="10">0.60</text>
<line x1="668.0" y1="394" x2="668.0" y2="399" stroke="#333"/>
<text x="668.0" y="414" text-anchor="middle" font-family="Arial" font-size="10">0.80</text>
<line x1="812.0" y1="394" x2="812.0" y2="399" stroke="#333"/>
<text x="812.0" y="414" text-anchor="middle" font-family="Arial" font-size="10">1.00</text>
<line x1="92" y1="69.1" x2="812" y2="69.1" stroke="#999" stroke-dasharray="4 4"/>
<polyline points="92.00,64.00 92.36,64.44 92.72,64.89 93.08,65.37 93.44,65.86 93.80,66.37 94.16,66.90 94.52,67.45 94.88,68.02 95.24,68.60 95.60,69.20 95.96,69.81 96.32,70.44 96.68,71.09 97.04,71.74 97.40,72.42 97.76,73.10 98.12,73.79 98.48,74.50 98.84,75.21 99.20,75.94 99.56,76.67 99.92,77.41 100.28,78.15 100.64,78.91 101.00,79.66 101.36,80.42 101.72,81.19 102.09,81.96 102.45,82.73 102.81,83.51 103.17,84.28 103.53,85.06 103.89,85.84 104.25,86.62 104.61,87.41 104.97,88.19 105.33,88.97 105.69,89.74 106.05,90.51 106.41,91.28 106.77,92.03 107.13,92.77 107.49,93.50 107.85,94.21 108.21,94.91 108.57,95.60 108.93,96.27 109.29,96.94 109.65,97.59 110.01,98.23 110.37,98.86 110.73,99.49 111.09,100.11 111.45,100.73 111.81,101.35 112.17,101.97 112.53,102.60 112.89,103.24 113.25,103.90 113.61,104.57 113.97,105.25 114.33,105.95 114.69,106.67 115.05,107.41 115.41,108.17 115.77,108.94 116.13,109.73 116.49,110.54 116.85,111.37 117.21,112.21 117.57,113.07 117.93,113.94 118.29,114.83 118.65,115.73 119.01,116.63 119.37,117.55 119.73,118.48 120.09,119.41 120.45,120.35 120.81,121.29 121.17,122.24 121.53,123.19 121.89,124.14 122.26,125.09 122.62,126.04 122.98,126.98 123.34,127.92 123.70,128.86 124.06,129.79 124.42,130.72 124.78,131.64 125.14,132.55 125.50,133.46 125.86,134.36 126.22,135.25 126.58,136.13 126.94,137.00 127.30,137.85 127.66,138.69 128.02,139.50 128.38,140.30 128.74,141.08 129.10,141.84 129.46,142.57 129.82,143.28 130.18,143.97 130.54,144.64 130.90,145.29 131.26,145.92 131.62,146.53 131.98,147.13 132.34,147.71 132.70,148.28 133.06,148.83 133.42,149.38 133.78,149.93 134.14,150.47 134.50,151.01 134.86,151.55 135.22,152.11 135.58,152.67 135.94,153.24 136.30,153.83 136.66,154.44 137.02,155.06 137.38,155.70 137.74,156.35 138.10,157.02 138.46,157.71 138.82,158.41 139.18,159.13 139.54,159.86 139.90,160.61 140.26,161.36 140.62,162.13 140.98,162.90 141.34,163.69 141.70,164.48 142.07,165.27 142.43,166.07 142.79,166.87 143.15,167.67 143.51,168.47 143.87,169.28 144.23,170.08 144.59,170.87 144.95,171.66 145.31,172.45 145.67,173.24 146.03,174.01 146.39,174.79 146.75,175.55 147.11,176.31 147.47,177.06 147.83,177.79 148.19,178.51 148.55,179.22 148.91,179.90 149.27,180.57 149.63,181.21 149.99,181.84 150.35,182.44 150.71,183.01 151.07,183.57 151.43,184.10 151.79,184.61 152.15,185.11 152.51,185.58 152.87,186.03 153.23,186.47 153.59,186.90 153.95,187.31 154.31,187.72 154.67,188.11 155.03,188.50 155.39,188.88 155.75,189.26 156.11,189.64 156.47,190.02 156.83,190.41 157.19,190.81 157.55,191.23 157.91,191.66 158.27,192.12 158.63,192.59 158.99,193.08 159.35,193.60 159.71,194.13 160.07,194.69 160.43,195.26 160.79,195.85 161.15,196.46 161.51,197.09 161.87,197.73 162.24,198.39 162.60,199.05 162.96,199.72 163.32,200.41 163.68,201.09 164.04,201.78 164.40,202.47 164.76,203.17 165.12,203.86 165.48,204.54 165.84,205.22 166.20,205.89 166.56,206.56 166.92,207.21 167.28,207.85 167.64,208.48 168.00,209.09 168.36,209.68 168.72,210.26 169.08,210.82 169.44,211.37 169.80,211.89 170.16,212.39 170.52,212.87 170.88,213.33 171.24,213.75 171.60,214.14 171.96,214.50 172.32,214.82 172.68,215.10 173.04,215.35 173.40,215.55 173.76,215.72 174.12,215.84 174.48,215.93 174.84,215.98 175.20,215.98 175.56,215.96 175.92,215.89 176.28,215.79 176.64,215.66 177.00,215.50 177.36,215.32 177.72,215.10 178.08,214.87 178.44,214.62 178.80,214.36 179.16,214.08 179.52,213.80 179.88,213.52 180.24,213.24 180.60,212.96 180.96,212.68 181.32,212.41 181.68,212.14 182.05,211.88 182.41,211.62 182.77,211.36 183.13,211.11 183.49,210.86 183.85,210.62 184.21,210.38 184.57,210.14 184.93,209.90 185.29,209.66 185.65,209.41 186.01,209.17 186.37,208.92 186.73,208.67 187.09,208.41 187.45,208.15 187.81,207.88 188.17,207.61 188.53,207.33 188.89,207.05 189.25,206.75 189.61,206.46 189.97,206.15 190.33,205.84 190.69,205.52 191.05,205.20 191.41,204.86 191.77,204.51 192.13,204.15 192.49,203.78 192.85,203.39 193.21,202.98 193.57,202.56 193.93,202.12 194.29,201.66 194.65,201.18 195.01,200.69 195.37,200.19 195.73,199.68 196.09,199.15 196.45,198.62 196.81,198.08 197.17,197.54 197.53,197.00 197.89,196.46 198.25,195.92 198.61,195.39 198.97,194.86 199.33,194.35 199.69,193.84 200.05,193.34 200.41,192.86 200.77,192.40 201.13,191.95 201.49,191.53 201.85,191.14 202.22,190.77 202.58,190.44 202.94,190.14 203.30,189.87 203.66,189.64 204.02,189.44 204.38,189.27 204.74,189.14 205.10,189.04 205.46,188.97 205.82,188.92 206.18,188.90 206.54,188.91 206.90,188.94 207.26,188.99 207.62,189.05 207.98,189.14 208.34,189.23 208.70,189.34 209.06,189.46 209.42,189.58 209.78,189.71 210.14,189.84 210.50,189.97 210.86,190.11 211.22,190.24 211.58,190.36 211.94,190.49 212.30,190.60 212.66,190.72 213.02,190.82 213.38,190.91 213.74,191.00 214.10,191.07 214.46,191.12 214.82,191.15 215.18,191.17 215.54,191.16 215.90,191.13 216.26,191.07 216.62,191.00 216.98,190.89 217.34,190.76 217.70,190.61 218.06,190.44 218.42,190.25 218.78,190.04 219.14,189.81 219.50,189.57 219.86,189.32 220.22,189.06 220.58,188.79 220.94,188.51 221.30,188.24 221.66,187.96 222.03,187.68 222.39,187.41 222.75,187.15 223.11,186.91 223.47,186.68 223.83,186.48 224.19,186.30 224.55,186.14 224.91,186.02 225.27,185.92 225.63,185.86 225.99,185.82 226.35,185.82 226.71,185.84 227.07,185.90 227.43,185.99 227.79,186.10 228.15,186.25 228.51,186.42 228.87,186.62 229.23,186.84 229.59,187.09 229.95,187.35 230.31,187.64 230.67,187.95 231.03,188.28 231.39,188.62 231.75,188.98 232.11,189.35 232.47,189.74 232.83,190.14 233.19,190.55 233.55,190.97 233.91,191.40 234.27,191.83 234.63,192.27 234.99,192.72 235.35,193.16 235.71,193.60 236.07,194.03 236.43,194.45 236.79,194.87 237.15,195.27 237.51,195.67 237.87,196.05 238.23,196.42 238.59,196.78 238.95,197.12 239.31,197.46 239.67,197.80 240.03,198.12 240.39,198.44 240.75,198.75 241.11,199.06 241.47,199.37 241.83,199.68 242.20,199.98 242.56,200.29 242.92,200.60 243.28,200.91 243.64,201.23 244.00,201.55 244.36,201.87 244.72,202.21 245.08,202.55 245.44,202.91 245.80,203.28 246.16,203.67 246.52,204.08 246.88,204.51 247.24,204.96 247.60,205.44 247.96,205.94 248.32,206.46 248.68,206.99 249.04,207.55 249.40,208.13 249.76,208.72 250.12,209.32 250.48,209.94 250.84,210.56 251.20,211.19 251.56,211.83 251.92,212.47 252.28,213.11 252.64,213.74 253.00,214.38 253.36,215.00 253.72,215.62 254.08,216.23 254.44,216.83 254.80,217.41 255.16,217.98 255.52,218.54 255.88,219.08 256.24,219.60 256.60,220.09 256.96,220.57 257.32,221.02 257.68,221.43 258.04,221.82 258.40,222.17 258.76,222.49 259.12,222.77 259.48,223.02 259.84,223.23 260.20,223.40 260.56,223.54 260.92,223.64 261.28,223.71 261.64,223.75 262.01,223.76 262.37,223.75 262.73,223.71 263.09,223.64 263.45,223.56 263.81,223.46 264.17,223.34 264.53,223.22 264.89,223.08 265.25,222.93 265.61,222.77 265.97,222.61 266.33,222.45 266.69,222.29 267.05,222.14 267.41,221.99 267.77,221.86 268.13,221.75 268.49,221.65 268.85,221.57 269.21,221.52 269.57,221.49 269.93,221.49 270.29,221.51 270.65,221.55 271.01,221.62 271.37,221.70 271.73,221.81 272.09,221.94 272.45,222.09 272.81,222.26 273.17,222.44 273.53,222.63 273.89,222.84 274.25,223.05 274.61,223.28 274.97,223.51 275.33,223.74 275.69,223.98 276.05,224.22 276.41,224.46 276.77,224.71 277.13,224.95 277.49,225.18 277.85,225.41 278.21,225.64 278.57,225.86 278.93,226.08 279.29,226.28 279.65,226.46 280.01,226.64 280.37,226.79 280.73,226.93 281.09,227.04 281.45,227.13 281.81,227.20 282.18,227.24 282.54,227.26 282.90,227.25 283.26,227.23 283.62,227.18 283.98,227.12 284.34,227.03 284.70,226.93 285.06,226.81 285.42,226.68 285.78,226.54 286.14,226.39 286.50,226.24 286.86,226.07 287.22,225.91 287.58,225.74 287.94,225.57 288.30,225.41 288.66,225.26 289.02,225.12 289.38,225.00 289.74,224.90 290.10,224.82 290.46,224.76 290.82,224.73 291.18,224.73 291.54,224.75 291.90,224.80 292.26,224.87 292.62,224.97 292.98,225.09 293.34,225.24 293.70,225.41 294.06,225.60 294.42,225.80 294.78,226.03 295.14,226.26 295.50,226.52 295.86,226.78 296.22,227.05 296.58,227.33 296.94,227.62 297.30,227.91 297.66,228.21 298.02,228.51 298.38,228.81 298.74,229.11 299.10,229.40 299.46,229.70 299.82,229.99 300.18,230.27 300.54,230.55 300.90,230.82 301.26,231.07 301.62,231.32 301.98,231.55 302.35,231.75 302.71,231.94 303.07,232.10 303.43,232.24 303.79,232.36 304.15,232.45 304.51,232.51 304.87,232.55 305.23,232.56 305.59,232.56 305.95,232.53 306.31,232.47 306.67,232.41 307.03,232.32 307.39,232.21 307.75,232.10 308.11,231.97 308.47,231.83 308.83,231.69 309.19,231.53 309.55,231.38 309.91,231.22 310.27,231.07 310.63,230.92 310.99,230.77 311.35,230.64 311.71,230.52 312.07,230.43 312.43,230.35 312.79,230.29 313.15,230.26 313.51,230.24 313.87,230.26 314.23,230.29 314.59,230.35 314.95,230.42 315.31,230.52 315.67,230.64 316.03,230.77 316.39,230.92 316.75,231.08 317.11,231.25 317.47,231.44 317.83,231.63 318.19,231.83 318.55,232.03 318.91,232.24 319.27,232.45 319.63,232.66 319.99,232.86 320.35,233.07 320.71,233.27 321.07,233.46 321.43,233.65 321.79,233.83 322.16,234.00 322.52,234.16 322.88,234.31 323.24,234.44 323.60,234.55 323.96,234.64 324.32,234.70 324.68,234.75 325.04,234.76 325.40,234.75 325.76,234.71 326.12,234.64 326.48,234.55 326.84,234.44 327.20,234.30 327.56,234.14 327.92,233.95 328.28,233.75 328.64,233.54 329.00,233.31 329.36,233.06 329.72,232.81 330.08,232.54 330.44,232.27 330.80,232.00 331.16,231.72 331.52,231.44 331.88,231.16 332.24,230.89 332.60,230.62 332.96,230.36 333.32,230.11 333.68,229.89 334.04,229.68 334.40,229.49 334.76,229.33 335.12,229.20 335.48,229.09 335.84,229.02 336.20,228.96 336.56,228.94 336.92,228.94 337.28,228.97 337.64,229.02 338.00,229.09 338.36,229.19 338.72,229.30 339.08,229.43 339.44,229.57 339.80,229.73 340.16,229.90 340.52,230.08 340.88,230.27 341.24,230.46 341.60,230.66 341.96,230.86 342.33,231.06 342.69,231.27 343.05,231.47 343.41,231.67 343.77,231.87 344.13,232.06 344.49,232.25 344.85,232.43 345.21,232.60 345.57,232.76 345.93,232.91 346.29,233.03 346.65,233.14 347.01,233.23 347.37,233.30 347.73,233.34 348.09,233.35 348.45,233.35 348.81,233.32 349.17,233.27 349.53,233.20 349.89,233.10 350.25,232.99 350.61,232.86 350.97,232.71 351.33,232.55 351.69,232.38 352.05,232.20 352.41,232.02 352.77,231.83 353.13,231.64 353.49,231.45 353.85,231.27 354.21,231.09 354.57,230.92 354.93,230.77 355.29,230.64 355.65,230.54 356.01,230.45 356.37,230.39 356.73,230.36 357.09,230.36 357.45,230.38 357.81,230.43 358.17,230.51 358.53,230.61 358.89,230.73 359.25,230.88 359.61,231.05 359.97,231.24 360.33,231.45 360.69,231.68 361.05,231.92 361.41,232.18 361.77,232.45 362.14,232.73 362.50,233.01 362.86,233.31 363.22,233.61 363.58,233.92 363.94,234.22 364.30,234.54 364.66,234.85 365.02,235.16 365.38,235.47 365.74,235.78 366.10,236.09 366.46,236.39 366.82,236.69 367.18,236.99 367.54,237.28 367.90,237.56 368.26,237.83 368.62,238.09 368.98,238.34 369.34,238.57 369.70,238.78 370.06,238.97 370.42,239.15 370.78,239.30 371.14,239.44 371.50,239.56 371.86,239.66 372.22,239.75 372.58,239.83 372.94,239.89 373.30,239.95 373.66,239.99 374.02,240.03 374.38,240.06 374.74,240.10 375.10,240.13 375.46,240.17 375.82,240.22 376.18,240.29 376.54,240.37 376.90,240.47 377.26,240.59 377.62,240.74 377.98,240.92 378.34,241.13 378.70,241.36 379.06,241.62 379.42,241.92 379.78,242.24 380.14,242.59 380.50,242.96 380.86,243.37 381.22,243.80 381.58,244.25 381.94,244.72 382.31,245.21 382.67,245.72 383.03,246.25 383.39,246.79 383.75,247.35 384.11,247.91 384.47,248.49 384.83,249.07 385.19,249.66 385.55,250.25 385.91,250.85 386.27,251.44 386.63,252.04 386.99,252.64 387.35,253.23 387.71,253.82 388.07,254.41 388.43,254.99 388.79,255.57 389.15,256.14 389.51,256.71 389.87,257.26 390.23,257.80 390.59,258.33 390.95,258.84 391.31,259.33 391.67,259.81 392.03,260.25 392.39,260.68 392.75,261.09 393.11,261.47 393.47,261.83 393.83,262.17 394.19,262.49 394.55,262.79 394.91,263.07 395.27,263.33 395.63,263.58 395.99,263.81 396.35,264.04 396.71,264.25 397.07,264.46 397.43,264.67 397.79,264.88 398.15,265.09 398.51,265.32 398.87,265.55 399.23,265.80 399.59,266.07 399.95,266.36 400.31,266.67 400.67,267.00 401.03,267.35 401.39,267.73 401.75,268.12 402.12,268.54 402.48,268.98 402.84,269.43 403.20,269.91 403.56,270.39 403.92,270.90 404.28,271.41 404.64,271.94 405.00,272.47 405.36,273.01 405.72,273.56 406.08,274.11 406.44,274.67 406.80,275.22 407.16,275.77 407.52,276.32 407.88,276.87 408.24,277.41 408.60,277.95 408.96,278.47 409.32,279.00 409.68,279.51 410.04,280.01 410.40,280.51 410.76,280.99 411.12,281.46 411.48,281.92 411.84,282.36 412.20,282.78 412.56,283.18 412.92,283.57 413.28,283.92 413.64,284.26 414.00,284.56 414.36,284.84 414.72,285.10 415.08,285.33 415.44,285.53 415.80,285.71 416.16,285.86 416.52,286.00 416.88,286.11 417.24,286.21 417.60,286.29 417.96,286.35 418.32,286.41 418.68,286.46 419.04,286.50 419.40,286.55 419.76,286.59 420.12,286.65 420.48,286.71 420.84,286.79 421.20,286.89 421.56,287.01 421.92,287.15 422.29,287.32 422.65,287.51 423.01,287.72 423.37,287.96 423.73,288.22 424.09,288.50 424.45,288.81 424.81,289.14 425.17,289.49 425.53,289.86 425.89,290.24 426.25,290.64 426.61,291.06 426.97,291.49 427.33,291.93 427.69,292.37 428.05,292.83 428.41,293.29 428.77,293.76 429.13,294.23 429.49,294.70 429.85,295.17 430.21,295.65 430.57,296.12 430.93,296.59 431.29,297.05 431.65,297.51 432.01,297.97 432.37,298.42 432.73,298.87 433.09,299.30 433.45,299.73 433.81,300.15 434.17,300.56 434.53,300.96 434.89,301.34 435.25,301.70 435.61,302.04 435.97,302.36 436.33,302.66 436.69,302.93 437.05,303.18 437.41,303.42 437.77,303.62 438.13,303.81 438.49,303.98 438.85,304.13 439.21,304.26 439.57,304.38 439.93,304.49 440.29,304.59 440.65,304.68 441.01,304.77 441.37,304.86 441.73,304.96 442.10,305.07 442.46,305.18 442.82,305.32 443.18,305.47 443.54,305.64 443.90,305.83 444.26,306.04 444.62,306.28 444.98,306.54 445.34,306.81 445.70,307.11 446.06,307.43 446.42,307.77 446.78,308.13 447.14,308.50 447.50,308.89 447.86,309.29 448.22,309.71 448.58,310.13 448.94,310.57 449.30,311.01 449.66,311.46 450.02,311.91 450.38,312.36 450.74,312.82 451.10,313.27 451.46,313.73 451.82,314.18 452.18,314.63 452.54,315.08 452.90,315.52 453.26,315.95 453.62,316.38 453.98,316.80 454.34,317.22 454.70,317.62 455.06,318.02 455.42,318.41 455.78,318.79 456.14,319.16 456.50,319.51 456.86,319.86 457.22,320.18 457.58,320.50 457.94,320.79 458.30,321.06 458.66,321.31 459.02,321.54 459.38,321.74 459.74,321.92 460.10,322.08 460.46,322.22 460.82,322.33 461.18,322.43 461.54,322.51 461.90,322.57 462.27,322.62 462.63,322.66 462.99,322.69 463.35,322.72 463.71,322.75 464.07,322.79 464.43,322.83 464.79,322.88 465.15,322.94 465.51,323.02 465.87,323.10 466.23,323.20 466.59,323.32 466.95,323.45 467.31,323.59 467.67,323.74 468.03,323.91 468.39,324.09 468.75,324.28 469.11,324.48 469.47,324.69 469.83,324.91 470.19,325.14 470.55,325.38 470.91,325.62 471.27,325.86 471.63,326.11 471.99,326.36 472.35,326.62 472.71,326.87 473.07,327.13 473.43,327.38 473.79,327.63 474.15,327.88 474.51,328.12 474.87,328.37 475.23,328.60 475.59,328.83 475.95,329.06 476.31,329.28 476.67,329.50 477.03,329.71 477.39,329.91 477.75,330.11 478.11,330.30 478.47,330.48 478.83,330.65 479.19,330.81 479.55,330.96 479.91,331.09 480.27,331.20 480.63,331.29 480.99,331.37 481.35,331.42 481.71,331.46 482.08,331.48 482.44,331.48 482.80,331.46 483.16,331.43 483.52,331.38 483.88,331.32 484.24,331.26 484.60,331.19 484.96,331.11 485.32,331.04 485.68,330.97 486.04,330.90 486.40,330.85 486.76,330.81 487.12,330.78 487.48,330.77 487.84,330.77 488.20,330.78 488.56,330.81 488.92,330.85 489.28,330.91 489.64,330.99 490.00,331.08 490.36,331.18 490.72,331.29 491.08,331.42 491.44,331.55 491.80,331.70 492.16,331.85 492.52,332.02 492.88,332.18 493.24,332.36 493.60,332.54 493.96,332.72 494.32,332.90 494.68,333.09 495.04,333.27 495.40,333.46 495.76,333.64 496.12,333.82 496.48,334.00 496.84,334.17 497.20,334.34 497.56,334.51 497.92,334.67 498.28,334.83 498.64,334.98 499.00,335.13 499.36,335.27 499.72,335.41 500.08,335.54 500.44,335.66 500.80,335.77 501.16,335.88 501.52,335.97 501.88,336.04 502.25,336.10 502.61,336.15 502.97,336.17 503.33,336.18 503.69,336.17 504.05,336.14 504.41,336.09 504.77,336.02 505.13,335.94 505.49,335.85 505.85,335.74 506.21,335.63 506.57,335.51 506.93,335.39 507.29,335.27 507.65,335.16 508.01,335.05 508.37,334.96 508.73,334.88 509.09,334.81 509.45,334.75 509.81,334.71 510.17,334.69 510.53,334.67 510.89,334.68 511.25,334.70 511.61,334.73 511.97,334.78 512.33,334.84 512.69,334.91 513.05,334.99 513.41,335.09 513.77,335.19 514.13,335.29 514.49,335.40 514.85,335.52 515.21,335.64 515.57,335.77 515.93,335.89 516.29,336.02 516.65,336.15 517.01,336.27 517.37,336.39 517.73,336.51 518.09,336.62 518.45,336.73 518.81,336.84 519.17,336.93 519.53,337.02 519.89,337.11 520.25,337.19 520.61,337.25 520.97,337.32 521.33,337.37 521.69,337.41 522.06,337.44 522.42,337.47 522.78,337.48 523.14,337.48 523.50,337.47 523.86,337.44 524.22,337.39 524.58,337.32 524.94,337.23 525.30,337.12 525.66,336.99 526.02,336.84 526.38,336.67 526.74,336.47 527.10,336.26 527.46,336.03 527.82,335.79 528.18,335.54 528.54,335.28 528.90,335.01 529.26,334.74 529.62,334.48 529.98,334.22 530.34,333.97 530.70,333.72 531.06,333.49 531.42,333.26 531.78,333.04 532.14,332.84 532.50,332.64 532.86,332.46 533.22,332.28 533.58,332.11 533.94,331.96 534.30,331.80 534.66,331.66 535.02,331.52 535.38,331.38 535.74,331.25 536.10,331.12 536.46,330.99 536.82,330.85 537.18,330.72 537.54,330.58 537.90,330.43 538.26,330.28 538.62,330.12 538.98,329.95 539.34,329.77 539.70,329.59 540.06,329.39 540.42,329.17 540.78,328.95 541.14,328.71 541.50,328.46 541.86,328.19 542.23,327.91 542.59,327.61 542.95,327.30 543.31,326.97 543.67,326.63 544.03,326.27 544.39,325.89 544.75,325.50 545.11,325.10 545.47,324.67 545.83,324.22 546.19,323.76 546.55,323.27 546.91,322.75 547.27,322.22 547.63,321.65 547.99,321.07 548.35,320.46 548.71,319.82 549.07,319.17 549.43,318.49 549.79,317.80 550.15,317.10 550.51,316.40 550.87,315.68 551.23,314.96 551.59,314.24 551.95,313.52 552.31,312.81 552.67,312.09 553.03,311.38 553.39,310.67 553.75,309.97 554.11,309.28 554.47,308.58 554.83,307.90 555.19,307.22 555.55,306.54 555.91,305.87 556.27,305.20 556.63,304.53 556.99,303.86 557.35,303.20 557.71,302.54 558.07,301.88 558.43,301.22 558.79,300.55 559.15,299.89 559.51,299.22 559.87,298.55 560.23,297.87 560.59,297.19 560.95,296.50 561.31,295.81 561.67,295.11 562.04,294.41 562.40,293.69 562.76,292.98 563.12,292.25 563.48,291.51 563.84,290.77 564.20,290.02 564.56,289.27 564.92,288.50 565.28,287.73 565.64,286.95 566.00,286.16 566.36,285.37 566.72,284.57 567.08,283.75 567.44,282.93 567.80,282.10 568.16,281.25 568.52,280.39 568.88,279.51 569.24,278.62 569.60,277.71 569.96,276.79 570.32,275.86 570.68,274.91 571.04,273.95 571.40,272.98 571.76,272.00 572.12,271.01 572.48,270.03 572.84,269.05 573.20,268.08 573.56,267.12 573.92,266.17 574.28,265.23 574.64,264.31 575.00,263.41 575.36,262.53 575.72,261.66 576.08,260.82 576.44,259.99 576.80,259.19 577.16,258.41 577.52,257.64 577.88,256.90 578.24,256.17 578.60,255.46 578.96,254.77 579.32,254.10 579.68,253.44 580.04,252.79 580.40,252.16 580.76,251.54 581.12,250.94 581.48,250.34 581.84,249.76 582.21,249.18 582.57,248.61 582.93,248.04 583.29,247.48 583.65,246.93 584.01,246.38 584.37,245.83 584.73,245.29 585.09,244.74 585.45,244.20 585.81,243.66 586.17,243.11 586.53,242.57 586.89,242.02 587.25,241.47 587.61,240.92 587.97,240.36 588.33,239.80 588.69,239.24 589.05,238.66 589.41,238.08 589.77,237.49 590.13,236.88 590.49,236.25 590.85,235.61 591.21,234.95 591.57,234.27 591.93,233.57 592.29,232.85 592.65,232.12 593.01,231.37 593.37,230.60 593.73,229.82 594.09,229.03 594.45,228.23 594.81,227.42 595.17,226.62 595.53,225.81 595.89,225.01 596.25,224.21 596.61,223.42 596.97,222.63 597.33,221.86 597.69,221.09 598.05,220.33 598.41,219.58 598.77,218.84 599.13,218.11 599.49,217.39 599.85,216.67 600.21,215.97 600.57,215.27 600.93,214.58 601.29,213.90 601.65,213.22 602.02,212.54 602.38,211.87 602.74,211.21 603.10,210.54 603.46,209.88 603.82,209.22 604.18,208.56 604.54,207.90 604.90,207.24 605.26,206.58 605.62,205.92 605.98,205.26 606.34,204.59 606.70,203.92 607.06,203.26 607.42,202.58 607.78,201.91 608.14,201.23 608.50,200.56 608.86,199.88 609.22,199.19 609.58,198.51 609.94,197.83 610.30,197.14 610.66,196.45 611.02,195.76 611.38,195.06 611.74,194.35 612.10,193.63 612.46,192.91 612.82,192.17 613.18,191.42 613.54,190.66 613.90,189.89 614.26,189.11 614.62,188.32 614.98,187.53 615.34,186.73 615.70,185.93 616.06,185.14 616.42,184.34 616.78,183.55 617.14,182.78 617.50,182.02 617.86,181.27 618.22,180.55 618.58,179.84 618.94,179.16 619.30,178.49 619.66,177.85 620.02,177.23 620.38,176.63 620.74,176.06 621.10,175.51 621.46,174.98 621.82,174.47 622.19,173.98 622.55,173.52 622.91,173.07 623.27,172.64 623.63,172.23 623.99,171.84 624.35,171.46 624.71,171.10 625.07,170.75 625.43,170.41 625.79,170.09 626.15,169.78 626.51,169.49 626.87,169.20 627.23,168.93 627.59,168.66 627.95,168.41 628.31,168.17 628.67,167.93 629.03,167.71 629.39,167.49 629.75,167.29 630.11,167.09 630.47,166.91 630.83,166.74 631.19,166.57 631.55,166.42 631.91,166.28 632.27,166.15 632.63,166.03 632.99,165.92 633.35,165.82 633.71,165.73 634.07,165.65 634.43,165.58 634.79,165.51 635.15,165.45 635.51,165.39 635.87,165.34 636.23,165.30 636.59,165.26 636.95,165.23 637.31,165.20 637.67,165.19 638.03,165.19 638.39,165.21 638.75,165.25 639.11,165.31 639.47,165.39 639.83,165.49 640.19,165.62 640.55,165.78 640.91,165.96 641.27,166.17 641.63,166.41 641.99,166.67 642.36,166.96 642.72,167.27 643.08,167.61 643.44,167.97 643.80,168.36 644.16,168.76 644.52,169.19 644.88,169.64 645.24,170.10 645.60,170.58 645.96,171.08 646.32,171.58 646.68,172.10 647.04,172.63 647.40,173.17 647.76,173.72 648.12,174.27 648.48,174.82 648.84,175.38 649.20,175.94 649.56,176.49 649.92,177.05 650.28,177.60 650.64,178.15 651.00,178.70 651.36,179.24 651.72,179.77 652.08,180.29 652.44,180.81 652.80,181.32 653.16,181.81 653.52,182.30 653.88,182.77 654.24,183.23 654.60,183.68 654.96,184.10 655.32,184.50 655.68,184.88 656.04,185.24 656.40,185.57 656.76,185.87 657.12,186.15 657.48,186.40 657.84,186.63 658.20,186.83 658.56,187.01 658.92,187.16 659.28,187.30 659.64,187.42 660.00,187.52 660.36,187.61 660.72,187.69 661.08,187.76 661.44,187.84 661.80,187.91 662.17,187.99 662.53,188.08 662.89,188.17 663.25,188.28 663.61,188.39 663.97,188.52 664.33,188.65 664.69,188.81 665.05,188.97 665.41,189.14 665.77,189.33 666.13,189.53 666.49,189.74 666.85,189.96 667.21,190.19 667.57,190.43 667.93,190.68 668.29,190.94 668.65,191.20 669.01,191.47 669.37,191.74 669.73,192.02 670.09,192.30 670.45,192.59 670.81,192.87 671.17,193.16 671.53,193.45 671.89,193.74 672.25,194.02 672.61,194.31 672.97,194.59 673.33,194.87 673.69,195.14 674.05,195.42 674.41,195.69 674.77,195.95 675.13,196.21 675.49,196.46 675.85,196.71 676.21,196.95 676.57,197.18 676.93,197.40 677.29,197.62 677.65,197.82 678.01,198.01 678.37,198.18 678.73,198.34 679.09,198.48 679.45,198.61 679.81,198.71 680.17,198.80 680.53,198.86 680.89,198.91 681.25,198.94 681.61,198.96 681.97,198.96 682.34,198.95 682.70,198.94 683.06,198.91 683.42,198.88 683.78,198.84 684.14,198.80 684.50,198.74 684.86,198.69 685.22,198.62 685.58,198.55 685.94,198.47 686.30,198.39 686.66,198.30 687.02,198.20 687.38,198.09 687.74,197.97 688.10,197.84 688.46,197.70 688.82,197.54 689.18,197.38 689.54,197.20 689.90,197.01 690.26,196.81 690.62,196.59 690.98,196.36 691.34,196.11 691.70,195.84 692.06,195.56 692.42,195.27 692.78,194.95 693.14,194.62 693.50,194.27 693.86,193.91 694.22,193.53 694.58,193.13 694.94,192.71 695.30,192.28 695.66,191.83 696.02,191.37 696.38,190.89 696.74,190.40 697.10,189.89 697.46,189.37 697.82,188.84 698.18,188.29 698.54,187.73 698.90,187.16 699.26,186.57 699.62,185.97 699.98,185.35 700.34,184.71 700.70,184.05 701.06,183.37 701.42,182.68 701.78,181.97 702.15,181.24 702.51,180.50 702.87,179.75 703.23,178.98 703.59,178.21 703.95,177.43 704.31,176.65 704.67,175.87 705.03,175.09 705.39,174.33 705.75,173.57 706.11,172.83 706.47,172.11 706.83,171.40 707.19,170.72 707.55,170.05 707.91,169.40 708.27,168.78 708.63,168.18 708.99,167.59 709.35,167.03 709.71,166.50 710.07,165.98 710.43,165.48 710.79,165.00 711.15,164.54 711.51,164.10 711.87,163.68 712.23,163.27 712.59,162.88 712.95,162.51 713.31,162.15 713.67,161.80 714.03,161.47 714.39,161.15 714.75,160.85 715.11,160.55 715.47,160.27 715.83,160.00 716.19,159.73 716.55,159.48 716.91,159.23 717.27,158.99 717.63,158.76 717.99,158.54 718.35,158.32 718.71,158.10 719.07,157.90 719.43,157.70 719.79,157.50 720.15,157.31 720.51,157.11 720.87,156.91 721.23,156.71 721.59,156.50 721.95,156.29 722.32,156.06 722.68,155.83 723.04,155.58 723.40,155.33 723.76,155.07 724.12,154.79 724.48,154.51 724.84,154.23 725.20,153.93 725.56,153.64 725.92,153.34 726.28,153.04 726.64,152.74 727.00,152.46 727.36,152.18 727.72,151.92 728.08,151.66 728.44,151.43 728.80,151.22 729.16,151.02 729.52,150.84 729.88,150.68 730.24,150.54 730.60,150.41 730.96,150.30 731.32,150.21 731.68,150.14 732.04,150.08 732.40,150.03 732.76,150.00 733.12,149.98 733.48,149.97 733.84,149.97 734.20,149.98 734.56,149.99 734.92,150.01 735.28,150.03 735.64,150.06 736.00,150.08 736.36,150.11 736.72,150.14 737.08,150.16 737.44,150.19 737.80,150.21 738.16,150.23 738.52,150.24 738.88,150.25 739.24,150.26 739.60,150.26 739.96,150.25 740.32,150.24 740.68,150.22 741.04,150.19 741.40,150.16 741.76,150.11 742.13,150.06 742.49,150.00 742.85,149.92 743.21,149.83 743.57,149.72 743.93,149.59 744.29,149.45 744.65,149.29 745.01,149.11 745.37,148.91 745.73,148.69 746.09,148.46 746.45,148.21 746.81,147.95 747.17,147.67 747.53,147.39 747.89,147.10 748.25,146.81 748.61,146.52 748.97,146.23 749.33,145.95 749.69,145.68 750.05,145.42 750.41,145.17 750.77,144.94 751.13,144.72 751.49,144.51 751.85,144.33 752.21,144.15 752.57,144.00 752.93,143.86 753.29,143.73 753.65,143.62 754.01,143.53 754.37,143.44 754.73,143.37 755.09,143.31 755.45,143.26 755.81,143.22 756.17,143.19 756.53,143.17 756.89,143.15 757.25,143.13 757.61,143.12 757.97,143.11 758.33,143.10 758.69,143.09 759.05,143.09 759.41,143.08 759.77,143.07 760.13,143.06 760.49,143.04 760.85,143.03 761.21,143.01 761.57,142.98 761.93,142.95 762.30,142.92 762.66,142.89 763.02,142.84 763.38,142.80 763.74,142.75 764.10,142.69 764.46,142.63 764.82,142.56 765.18,142.48 765.54,142.39 765.90,142.29 766.26,142.17 766.62,142.04 766.98,141.89 767.34,141.73 767.70,141.55 768.06,141.36 768.42,141.15 768.78,140.94 769.14,140.71 769.50,140.47 769.86,140.23 770.22,139.98 770.58,139.74 770.94,139.49 771.30,139.26 771.66,139.03 772.02,138.82 772.38,138.62 772.74,138.43 773.10,138.25 773.46,138.09 773.82,137.94 774.18,137.81 774.54,137.69 774.90,137.58 775.26,137.49 775.62,137.41 775.98,137.35 776.34,137.29 776.70,137.25 777.06,137.22 777.42,137.19 777.78,137.18 778.14,137.17 778.50,137.17 778.86,137.18 779.22,137.18 779.58,137.20 779.94,137.21 780.30,137.23 780.66,137.25 781.02,137.28 781.38,137.30 781.74,137.32 782.11,137.34 782.47,137.36 782.83,137.37 783.19,137.39 783.55,137.40 783.91,137.41 784.27,137.41 784.63,137.42 784.99,137.42 785.35,137.41 785.71,137.40 786.07,137.39 786.43,137.36 786.79,137.33 787.15,137.29 787.51,137.24 787.87,137.17 788.23,137.09 788.59,136.99 788.95,136.88 789.31,136.75 789.67,136.61 790.03,136.45 790.39,136.29 790.75,136.11 791.11,135.92 791.47,135.72 791.83,135.52 792.19,135.32 792.55,135.12 792.91,134.92 793.27,134.74 793.63,134.56 793.99,134.40 794.35,134.25 794.71,134.11 795.07,133.99 795.43,133.88 795.79,133.79 796.15,133.72 796.51,133.66 796.87,133.61 797.23,133.58 797.59,133.56 797.95,133.55 798.31,133.55 798.67,133.57 799.03,133.60 799.39,133.63 799.75,133.67 800.11,133.72 800.47,133.78 800.83,133.83 801.19,133.90 801.55,133.96 801.91,134.03 802.28,134.10 802.64,134.17 803.00,134.25 803.36,134.32 803.72,134.39 804.08,134.45 804.44,134.52 804.80,134.58 805.16,134.64 805.52,134.69 805.88,134.75 806.24,134.79 806.60,134.84 806.96,134.87 807.32,134.91 807.68,134.94 808.04,134.96 808.40,134.98 808.76,134.98 809.12,134.98 809.48,134.97 809.84,134.94 810.20,134.90 810.56,134.85 810.92,134.78 811.28,134.69 811.64,134.59 812.00,134.48" fill="none" stroke="#c5221f" stroke-width="2"/>
<text x="662" y="56" font-family="Arial" font-size="12" fill="#c5221f">Experiment</text>
<polyline points="92.00,69.12 92.36,69.12 92.72,69.12 93.08,69.12 93.44,69.12 93.80,69.12 94.16,69.12 94.52,69.12 94.88,69.12 95.24,69.12 95.60,69.12 95.96,69.12 96.32,69.12 96.68,69.12 97.04,69.12 97.40,69.12 97.76,69.12 98.12,69.12 98.48,69.12 98.84,69.12 99.20,69.12 99.56,69.12 99.92,69.12 100.28,69.12 100.64,69.12 101.00,69.12 101.36,69.12 101.72,69.12 102.09,69.12 102.45,69.12 102.81,69.12 103.17,69.12 103.53,69.12 103.89,69.12 104.25,69.12 104.61,69.12 104.97,69.12 105.33,69.12 105.69,69.12 106.05,69.12 106.41,69.12 106.77,69.12 107.13,69.12 107.49,69.12 107.85,69.12 108.21,69.12 108.57,69.12 108.93,69.12 109.29,69.12 109.65,69.12 110.01,69.12 110.37,69.12 110.73,69.12 111.09,69.12 111.45,69.12 111.81,69.12 112.17,69.12 112.53,69.12 112.89,69.12 113.25,69.12 113.61,69.12 113.97,69.12 114.33,69.12 114.69,69.12 115.05,69.12 115.41,69.12 115.77,69.13 116.13,69.13 116.49,69.13 116.85,69.13 117.21,69.13 117.57,69.13 117.93,69.13 118.29,69.13 118.65,69.13 119.01,69.13 119.37,69.13 119.73,69.13 120.09,69.13 120.45,69.13 120.81,69.13 121.17,69.13 121.53,69.13 121.89,69.13 122.26,69.13 122.62,69.13 122.98,69.13 123.34,69.13 123.70,69.13 124.06,69.13 124.42,69.13 124.78,69.13 125.14,69.14 125.50,69.15 125.86,69.16 126.22,69.18 126.58,69.19 126.94,69.20 127.30,69.22 127.66,69.23 128.02,69.25 128.38,69.27 128.74,69.28 129.10,69.30 129.46,69.32 129.82,69.33 130.18,69.35 130.54,69.37 130.90,69.39 131.26,69.41 131.62,69.43 131.98,69.45 132.34,69.47 132.70,69.49 133.06,69.52 133.42,69.54 133.78,69.56 134.14,69.59 134.50,69.61 134.86,69.64 135.22,69.66 135.58,69.69 135.94,69.72 136.30,69.75 136.66,69.78 137.02,69.81 137.38,69.84 137.74,69.87 138.10,69.91 138.46,69.94 138.82,69.97 139.18,70.01 139.54,70.05 139.90,70.09 140.26,70.12 140.62,70.16 140.98,70.21 141.34,70.25 141.70,70.29 142.07,70.34 142.43,70.38 142.79,70.43 143.15,70.48 143.51,70.53 143.87,70.58 144.23,70.63 144.59,70.68 144.95,70.74 145.31,70.80 145.67,70.85 146.03,70.91 146.39,70.98 146.75,71.04 147.11,71.10 147.47,71.17 147.83,71.24 148.19,71.31 148.55,71.38 148.91,71.46 149.27,71.53 149.63,71.61 149.99,71.69 150.35,71.78 150.71,71.86 151.07,71.95 151.43,72.04 151.79,72.13 152.15,72.22 152.51,72.32 152.87,72.42 153.23,72.52 153.59,72.63 153.95,72.74 154.31,72.85 154.67,72.96 155.03,73.08 155.39,73.20 155.75,73.32 156.11,73.45 156.47,73.58 156.83,73.71 157.19,73.85 157.55,73.99 157.91,74.13 158.27,74.28 158.63,74.43 158.99,74.58 159.35,74.74 159.71,74.91 160.07,75.07 160.43,75.25 160.79,75.42 161.15,75.60 161.51,75.79 161.87,75.98 162.24,76.18 162.60,76.38 162.96,76.58 163.32,76.79 163.68,77.01 164.04,77.23 164.40,77.46 164.76,77.69 165.12,77.93 165.48,78.17 165.84,78.43 166.20,78.68 166.56,78.95 166.92,79.22 167.28,79.49 167.64,79.78 168.00,80.07 168.36,80.36 168.72,80.67 169.08,80.98 169.44,81.30 169.80,81.63 170.16,81.96 170.52,82.30 170.88,82.65 171.24,83.01 171.60,83.38 171.96,83.75 172.32,84.14 172.68,84.53 173.04,84.93 173.40,85.34 173.76,85.77 174.12,86.20 174.48,86.63 174.84,87.08 175.20,87.54 175.56,88.01 175.92,88.49 176.28,88.98 176.64,89.48 177.00,89.99 177.36,90.51 177.72,91.04 178.08,91.59 178.44,92.14 178.80,92.71 179.16,93.28 179.52,93.87 179.88,94.47 180.24,95.08 180.60,95.71 180.96,96.34 181.32,96.99 181.68,97.65 182.05,98.32 182.41,99.01 182.77,99.70 183.13,100.41 183.49,101.14 183.85,101.87 184.21,102.62 184.57,103.38 184.93,104.15 185.29,104.93 185.65,105.73 186.01,106.54 186.37,107.36 186.73,108.20 187.09,109.05 187.45,109.91 187.81,110.78 188.17,111.67 188.53,112.56 188.89,113.48 189.25,114.40 189.61,115.33 189.97,116.28 190.33,117.24 190.69,118.21 191.05,119.19 191.41,120.18 191.77,121.19 192.13,122.20 192.49,123.23 192.85,124.26 193.21,125.31 193.57,126.37 193.93,127.43 194.29,128.51 194.65,129.59 195.01,130.69 195.37,131.79 195.73,132.90 196.09,134.02 196.45,135.14 196.81,136.28 197.17,137.42 197.53,138.56 197.89,139.72 198.25,140.87 198.61,142.04 198.97,143.21 199.33,144.38 199.69,145.56 200.05,146.74 200.41,147.92 200.77,149.11 201.13,150.30 201.49,151.49 201.85,152.68 202.22,153.87 202.58,155.06 202.94,156.26 203.30,157.45 203.66,158.64 204.02,159.83 204.38,161.02 204.74,162.21 205.10,163.39 205.46,164.57 205.82,165.75 206.18,166.92 206.54,168.09 206.90,169.26 207.26,170.41 207.62,171.57 207.98,172.71 208.34,173.86 208.70,174.99 209.06,176.12 209.42,177.23 209.78,178.35 210.14,179.45 210.50,180.54 210.86,181.63 211.22,182.71 211.58,183.77 211.94,184.83 212.30,185.88 212.66,186.91 213.02,187.94 213.38,188.96 213.74,189.96 214.10,190.96 214.46,191.94 214.82,192.91 215.18,193.87 215.54,194.82 215.90,195.75 216.26,196.67 216.62,197.59 216.98,198.48 217.34,199.37 217.70,200.25 218.06,201.11 218.42,201.96 218.78,202.79 219.14,203.62 219.50,204.43 219.86,205.23 220.22,206.01 220.58,206.79 220.94,207.55 221.30,208.29 221.66,209.03 222.03,209.75 222.39,210.46 222.75,211.16 223.11,211.85 223.47,212.52 223.83,213.18 224.19,213.83 224.55,214.47 224.91,215.09 225.27,215.70 225.63,216.30 225.99,216.89 226.35,217.47 226.71,218.04 227.07,218.59 227.43,219.14 227.79,219.67 228.15,220.19 228.51,220.70 228.87,221.21 229.23,221.70 229.59,222.18 229.95,222.65 230.31,223.11 230.67,223.56 231.03,224.00 231.39,224.43 231.75,224.85 232.11,225.26 232.47,225.66 232.83,226.06 233.19,226.44 233.55,226.82 233.91,227.19 234.27,227.55 234.63,227.90 234.99,228.24 235.35,228.58 235.71,228.90 236.07,229.22 236.43,229.54 236.79,229.84 237.15,230.14 237.51,230.43 237.87,230.72 238.23,230.99 238.59,231.26 238.95,231.53 239.31,231.79 239.67,232.04 240.03,232.28 240.39,232.52 240.75,232.76 241.11,232.98 241.47,233.21 241.83,233.42 242.20,233.64 242.56,233.84 242.92,234.04 243.28,234.24 243.64,234.43 244.00,234.62 244.36,234.80 244.72,234.98 245.08,235.15 245.44,235.32 245.80,235.48 246.16,235.65 246.52,235.80 246.88,235.95 247.24,236.10 247.60,236.25 247.96,236.39 248.32,236.53 248.68,236.66 249.04,236.79 249.40,236.92 249.76,237.04 250.12,237.16 250.48,237.28 250.84,237.40 251.20,237.51 251.56,237.62 251.92,237.72 252.28,237.83 252.64,237.93 253.00,238.03 253.36,238.12 253.72,238.21 254.08,238.31 254.44,238.39 254.80,238.48 255.16,238.57 255.52,238.65 255.88,238.73 256.24,238.81 256.60,238.88 256.96,238.96 257.32,239.03 257.68,239.10 258.04,239.17 258.40,239.23 258.76,239.30 259.12,239.36 259.48,239.42 259.84,239.48 260.20,239.54 260.56,239.60 260.92,239.66 261.28,239.71 261.64,239.76 262.01,239.82 262.37,239.87 262.73,239.92 263.09,239.96 263.45,240.01 263.81,240.06 264.17,240.10 264.53,240.15 264.89,240.19 265.25,240.23 265.61,240.27 265.97,240.31 266.33,240.35 266.69,240.39 267.05,240.43 267.41,240.46 267.77,240.50 268.13,240.53 268.49,240.57 268.85,240.60 269.21,240.63 269.57,240.66 269.93,240.70 270.29,240.73 270.65,240.76 271.01,240.79 271.37,240.81 271.73,240.84 272.09,240.87 272.45,240.90 272.81,240.93 273.17,240.95 273.53,240.98 273.89,241.00 274.25,241.03 274.61,241.05 274.97,241.08 275.33,241.10 275.69,241.13 276.05,241.15 276.41,241.17 276.77,241.20 277.13,241.22 277.49,241.24 277.85,241.26 278.21,241.28 278.57,241.31 278.93,241.33 279.29,241.35 279.65,241.37 280.01,241.39 280.37,241.41 280.73,241.43 281.09,241.46 281.45,241.48 281.81,241.50 282.18,241.52 282.54,241.54 282.90,241.56 283.26,241.58 283.62,241.60 283.98,241.62 284.34,241.64 284.70,241.66 285.06,241.69 285.42,241.71 285.78,241.73 286.14,241.75 286.50,241.77 286.86,241.79 287.22,241.81 287.58,241.84 287.94,241.86 288.30,241.88 288.66,241.91 289.02,241.93 289.38,241.95 289.74,241.98 290.10,242.00 290.46,242.02 290.82,242.05 291.18,242.07 291.54,242.10 291.90,242.13 292.26,242.15 292.62,242.18 292.98,242.21 293.34,242.24 293.70,242.26 294.06,242.29 294.42,242.32 294.78,242.35 295.14,242.38 295.50,242.42 295.86,242.45 296.22,242.48 296.58,242.51 296.94,242.55 297.30,242.58 297.66,242.62 298.02,242.66 298.38,242.69 298.74,242.73 299.10,242.77 299.46,242.81 299.82,242.85 300.18,242.89 300.54,242.94 300.90,242.98 301.26,243.02 301.62,243.07 301.98,243.12 302.35,243.17 302.71,243.22 303.07,243.27 303.43,243.32 303.79,243.37 304.15,243.43 304.51,243.48 304.87,243.54 305.23,243.60 305.59,243.66 305.95,243.72 306.31,243.78 306.67,243.85 307.03,243.92 307.39,243.98 307.75,244.05 308.11,244.13 308.47,244.20 308.83,244.28 309.19,244.35 309.55,244.43 309.91,244.52 310.27,244.60 310.63,244.69 310.99,244.77 311.35,244.86 311.71,244.96 312.07,245.05 312.43,245.15 312.79,245.25 313.15,245.35 313.51,245.46 313.87,245.57 314.23,245.68 314.59,245.79 314.95,245.91 315.31,246.03 315.67,246.15 316.03,246.28 316.39,246.40 316.75,246.54 317.11,246.67 317.47,246.81 317.83,246.95 318.19,247.10 318.55,247.25 318.91,247.40 319.27,247.56 319.63,247.72 319.99,247.89 320.35,248.06 320.71,248.23 321.07,248.41 321.43,248.59 321.79,248.78 322.16,248.97 322.52,249.17 322.88,249.37 323.24,249.57 323.60,249.78 323.96,250.00 324.32,250.22 324.68,250.45 325.04,250.68 325.40,250.92 325.76,251.16 326.12,251.41 326.48,251.66 326.84,251.92 327.20,252.19 327.56,252.46 327.92,252.74 328.28,253.03 328.64,253.32 329.00,253.62 329.36,253.92 329.72,254.23 330.08,254.55 330.44,254.87 330.80,255.21 331.16,255.55 331.52,255.89 331.88,256.25 332.24,256.61 332.60,256.98 332.96,257.36 333.32,257.74 333.68,258.13 334.04,258.54 334.40,258.94 334.76,259.36 335.12,259.79 335.48,260.22 335.84,260.66 336.20,261.11 336.56,261.57 336.92,262.04 337.28,262.52 337.64,263.00 338.00,263.49 338.36,264.00 338.72,264.51 339.08,265.03 339.44,265.56 339.80,266.10 340.16,266.64 340.52,267.20 340.88,267.77 341.24,268.34 341.60,268.92 341.96,269.52 342.33,270.12 342.69,270.73 343.05,271.35 343.41,271.97 343.77,272.61 344.13,273.26 344.49,273.91 344.85,274.57 345.21,275.25 345.57,275.93 345.93,276.61 346.29,277.31 346.65,278.01 347.01,278.73 347.37,279.45 347.73,280.17 348.09,280.91 348.45,281.65 348.81,282.40 349.17,283.16 349.53,283.92 349.89,284.69 350.25,285.47 350.61,286.25 350.97,287.04 351.33,287.83 351.69,288.63 352.05,289.44 352.41,290.24 352.77,291.06 353.13,291.88 353.49,292.70 353.85,293.53 354.21,294.36 354.57,295.19 354.93,296.02 355.29,296.86 355.65,297.70 356.01,298.55 356.37,299.39 356.73,300.24 357.09,301.08 357.45,301.93 357.81,302.78 358.17,303.63 358.53,304.47 358.89,305.32 359.25,306.17 359.61,307.01 359.97,307.86 360.33,308.70 360.69,309.54 361.05,310.37 361.41,311.21 361.77,312.04 362.14,312.87 362.50,313.69 362.86,314.51 363.22,315.33 363.58,316.14 363.94,316.94 364.30,317.74 364.66,318.54 365.02,319.33 365.38,320.12 365.74,320.89 366.10,321.67 366.46,322.43 366.82,323.19 367.18,323.94 367.54,324.69 367.90,325.43 368.26,326.16 368.62,326.88 368.98,327.59 369.34,328.30 369.70,329.00 370.06,329.69 370.42,330.38 370.78,331.05 371.14,331.72 371.50,332.37 371.86,333.02 372.22,333.66 372.58,334.29 372.94,334.92 373.30,335.53 373.66,336.13 374.02,336.73 374.38,337.32 374.74,337.89 375.10,338.46 375.46,339.02 375.82,339.57 376.18,340.12 376.54,340.65 376.90,341.17 377.26,341.69 377.62,342.19 377.98,342.69 378.34,343.18 378.70,343.66 379.06,344.13 379.42,344.59 379.78,345.04 380.14,345.49 380.50,345.93 380.86,346.35 381.22,346.77 381.58,347.19 381.94,347.59 382.31,347.99 382.67,348.37 383.03,348.75 383.39,349.13 383.75,349.49 384.11,349.85 384.47,350.20 384.83,350.54 385.19,350.87 385.55,351.20 385.91,351.52 386.27,351.84 386.63,352.14 386.99,352.44 387.35,352.74 387.71,353.02 388.07,353.30 388.43,353.58 388.79,353.85 389.15,354.11 389.51,354.37 389.87,354.62 390.23,354.86 390.59,355.10 390.95,355.33 391.31,355.56 391.67,355.78 392.03,356.00 392.39,356.21 392.75,356.42 393.11,356.62 393.47,356.82 393.83,357.01 394.19,357.20 394.55,357.38 394.91,357.56 395.27,357.74 395.63,357.91 395.99,358.08 396.35,358.24 396.71,358.40 397.07,358.55 397.43,358.70 397.79,358.85 398.15,358.99 398.51,359.13 398.87,359.27 399.23,359.40 399.59,359.53 399.95,359.66 400.31,359.78 400.67,359.90 401.03,360.02 401.39,360.13 401.75,360.24 402.12,360.35 402.48,360.45 402.84,360.56 403.20,360.66 403.56,360.75 403.92,360.85 404.28,360.94 404.64,361.03 405.00,361.12 405.36,361.21 405.72,361.29 406.08,361.37 406.44,361.45 406.80,361.53 407.16,361.60 407.52,361.67 407.88,361.75 408.24,361.81 408.60,361.88 408.96,361.95 409.32,362.01 409.68,362.07 410.04,362.13 410.40,362.19 410.76,362.25 411.12,362.31 411.48,362.36 411.84,362.41 412.20,362.47 412.56,362.52 412.92,362.57 413.28,362.61 413.64,362.66 414.00,362.70 414.36,362.75 414.72,362.79 415.08,362.83 415.44,362.87 415.80,362.91 416.16,362.95 416.52,362.99 416.88,363.02 417.24,363.06 417.60,363.09 417.96,363.13 418.32,363.16 418.68,363.19 419.04,363.22 419.40,363.25 419.76,363.28 420.12,363.31 420.48,363.34 420.84,363.36 421.20,363.39 421.56,363.41 421.92,363.44 422.29,363.46 422.65,363.49 423.01,363.51 423.37,363.53 423.73,363.55 424.09,363.57 424.45,363.59 424.81,363.61 425.17,363.63 425.53,363.65 425.89,363.67 426.25,363.69 426.61,363.70 426.97,363.72 427.33,363.74 427.69,363.75 428.05,363.77 428.41,363.78 428.77,363.80 429.13,363.81 429.49,363.82 429.85,363.84 430.21,363.85 430.57,363.86 430.93,363.87 431.29,363.88 431.65,363.90 432.01,363.91 432.37,363.92 432.73,363.93 433.09,363.94 433.45,363.95 433.81,363.96 434.17,363.97 434.53,363.97 434.89,363.98 435.25,363.99 435.61,364.00 435.97,364.00 436.33,364.00 436.69,364.00 437.05,364.00 437.41,364.00 437.77,364.00 438.13,364.00 438.49,364.00 438.85,364.00 439.21,364.00 439.57,364.00 439.93,364.00 440.29,364.00 440.65,364.00 441.01,364.00 441.37,364.00 441.73,364.00 442.10,364.00 442.46,364.00 442.82,364.00 443.18,364.00 443.54,364.00 443.90,364.00 444.26,364.00 444.62,364.00 444.98,364.00 445.34,364.00 445.70,364.00 446.06,364.00 446.42,364.00 446.78,364.00 447.14,364.00 447.50,364.00 447.86,364.00 448.22,364.00 448.58,364.00 448.94,364.00 449.30,364.00 449.66,364.00 450.02,364.00 450.38,364.00 450.74,364.00 451.10,364.00 451.46,364.00 451.82,364.00 452.18,364.00 452.54,364.00 452.90,364.00 453.26,364.00 453.62,364.00 453.98,364.00 454.34,364.00 454.70,364.00 455.06,364.00 455.42,364.00 455.78,364.00 456.14,364.00 456.50,364.00 456.86,364.00 457.22,364.00 457.58,364.00 457.94,364.00 458.30,364.00 458.66,364.00 459.02,364.00 459.38,364.00 459.74,364.00 460.10,364.00 460.46,364.00 460.82,364.00 461.18,364.00 461.54,364.00 461.90,364.00 462.27,364.00 462.63,364.00 462.99,364.00 463.35,364.00 463.71,364.00 464.07,364.00 464.43,364.00 464.79,364.00 465.15,364.00 465.51,364.00 465.87,364.00 466.23,364.00 466.59,364.00 466.95,364.00 467.31,364.00 467.67,364.00 468.03,364.00 468.39,363.99 468.75,363.98 469.11,363.97 469.47,363.96 469.83,363.95 470.19,363.93 470.55,363.92 470.91,363.91 471.27,363.89 471.63,363.88 471.99,363.86 472.35,363.85 472.71,363.83 473.07,363.81 473.43,363.80 473.79,363.78 474.15,363.76 474.51,363.74 474.87,363.72 475.23,363.70 475.59,363.68 475.95,363.66 476.31,363.64 476.67,363.62 477.03,363.59 477.39,363.57 477.75,363.54 478.11,363.52 478.47,363.49 478.83,363.47 479.19,363.44 479.55,363.41 479.91,363.38 480.27,363.35 480.63,363.32 480.99,363.29 481.35,363.26 481.71,363.23 482.08,363.19 482.44,363.16 482.80,363.12 483.16,363.09 483.52,363.05 483.88,363.01 484.24,362.97 484.60,362.93 484.96,362.89 485.32,362.84 485.68,362.80 486.04,362.75 486.40,362.70 486.76,362.66 487.12,362.61 487.48,362.55 487.84,362.50 488.20,362.45 488.56,362.39 488.92,362.34 489.28,362.28 489.64,362.22 490.00,362.15 490.36,362.09 490.72,362.03 491.08,361.96 491.44,361.89 491.80,361.82 492.16,361.75 492.52,361.67 492.88,361.59 493.24,361.52 493.60,361.43 493.96,361.35 494.32,361.27 494.68,361.18 495.04,361.09 495.40,361.00 495.76,360.90 496.12,360.80 496.48,360.70 496.84,360.60 497.20,360.49 497.56,360.39 497.92,360.27 498.28,360.16 498.64,360.04 499.00,359.92 499.36,359.80 499.72,359.67 500.08,359.54 500.44,359.41 500.80,359.27 501.16,359.13 501.52,358.98 501.88,358.84 502.25,358.68 502.61,358.53 502.97,358.37 503.33,358.20 503.69,358.03 504.05,357.86 504.41,357.68 504.77,357.50 505.13,357.31 505.49,357.12 505.85,356.93 506.21,356.72 506.57,356.52 506.93,356.31 507.29,356.09 507.65,355.87 508.01,355.64 508.37,355.40 508.73,355.16 509.09,354.92 509.45,354.66 509.81,354.41 510.17,354.14 510.53,353.87 510.89,353.59 511.25,353.31 511.61,353.02 511.97,352.72 512.33,352.41 512.69,352.10 513.05,351.78 513.41,351.45 513.77,351.11 514.13,350.77 514.49,350.41 514.85,350.05 515.21,349.68 515.57,349.31 515.93,348.92 516.29,348.53 516.65,348.12 517.01,347.71 517.37,347.29 517.73,346.85 518.09,346.41 518.45,345.96 518.81,345.50 519.17,345.03 519.53,344.55 519.89,344.05 520.25,343.55 520.61,343.04 520.97,342.52 521.33,341.98 521.69,341.43 522.06,340.88 522.42,340.31 522.78,339.73 523.14,339.14 523.50,338.54 523.86,337.92 524.22,337.30 524.58,336.66 524.94,336.01 525.30,335.34 525.66,334.67 526.02,333.98 526.38,333.28 526.74,332.57 527.10,331.85 527.46,331.11 527.82,330.36 528.18,329.60 528.54,328.82 528.90,328.03 529.26,327.23 529.62,326.42 529.98,325.59 530.34,324.76 530.70,323.90 531.06,323.04 531.42,322.17 531.78,321.28 532.14,320.38 532.50,319.46 532.86,318.54 533.22,317.60 533.58,316.65 533.94,315.69 534.30,314.72 534.66,313.73 535.02,312.74 535.38,311.73 535.74,310.71 536.10,309.69 536.46,308.65 536.82,307.60 537.18,306.54 537.54,305.47 537.90,304.39 538.26,303.31 538.62,302.21 538.98,301.11 539.34,299.99 539.70,298.87 540.06,297.75 540.42,296.61 540.78,295.47 541.14,294.32 541.50,293.17 541.86,292.01 542.23,290.84 542.59,289.67 542.95,288.50 543.31,287.32 543.67,286.14 544.03,284.96 544.39,283.77 544.75,282.58 545.11,281.39 545.47,280.20 545.83,279.00 546.19,277.81 546.55,276.62 546.91,275.42 547.27,274.23 547.63,273.04 547.99,271.85 548.35,270.67 548.71,269.49 549.07,268.31 549.43,267.13 549.79,265.96 550.15,264.79 550.51,263.63 550.87,262.47 551.23,261.32 551.59,260.17 551.95,259.03 552.31,257.90 552.67,256.78 553.03,255.66 553.39,254.55 553.75,253.45 554.11,252.36 554.47,251.27 554.83,250.20 555.19,249.13 555.55,248.08 555.91,247.03 556.27,246.00 556.63,244.97 556.99,243.96 557.35,242.96 557.71,241.97 558.07,240.99 558.43,240.02 558.79,239.06 559.15,238.12 559.51,237.18 559.87,236.26 560.23,235.36 560.59,234.46 560.95,233.58 561.31,232.70 561.67,231.85 562.04,231.00 562.40,230.17 562.76,229.34 563.12,228.54 563.48,227.74 563.84,226.96 564.20,226.19 564.56,225.43 564.92,224.68 565.28,223.95 565.64,223.23 566.00,222.53 566.36,221.83 566.72,221.15 567.08,220.48 567.44,219.82 567.80,219.17 568.16,218.54 568.52,217.92 568.88,217.31 569.24,216.71 569.60,216.12 569.96,215.55 570.32,214.98 570.68,214.43 571.04,213.89 571.40,213.36 571.76,212.84 572.12,212.33 572.48,211.83 572.84,211.34 573.20,210.86 573.56,210.40 573.92,209.94 574.28,209.49 574.64,209.05 575.00,208.62 575.36,208.21 575.72,207.80 576.08,207.39 576.44,207.00 576.80,206.62 577.16,206.24 577.52,205.88 577.88,205.52 578.24,205.17 578.60,204.83 578.96,204.50 579.32,204.17 579.68,203.85 580.04,203.54 580.40,203.24 580.76,202.94 581.12,202.65 581.48,202.37 581.84,202.09 582.21,201.82 582.57,201.56 582.93,201.31 583.29,201.05 583.65,200.81 584.01,200.57 584.37,200.34 584.73,200.11 585.09,199.89 585.45,199.68 585.81,199.47 586.17,199.26 586.53,199.06 586.89,198.86 587.25,198.67 587.61,198.49 587.97,198.31 588.33,198.13 588.69,197.96 589.05,197.79 589.41,197.63 589.77,197.47 590.13,197.31 590.49,197.16 590.85,197.01 591.21,196.87 591.57,196.73 591.93,196.59 592.29,196.46 592.65,196.33 593.01,196.20 593.37,196.08 593.73,195.96 594.09,195.84 594.45,195.73 594.81,195.62 595.17,195.51 595.53,195.40 595.89,195.30 596.25,195.20 596.61,195.10 596.97,195.01 597.33,194.91 597.69,194.82 598.05,194.74 598.41,194.65 598.77,194.57 599.13,194.48 599.49,194.40 599.85,194.33 600.21,194.25 600.57,194.18 600.93,194.11 601.29,194.04 601.65,193.97 602.02,193.90 602.38,193.84 602.74,193.77 603.10,193.71 603.46,193.65 603.82,193.59 604.18,193.54 604.54,193.48 604.90,193.43 605.26,193.37 605.62,193.32 605.98,193.27 606.34,193.22 606.70,193.17 607.06,193.13 607.42,193.08 607.78,193.04 608.14,192.99 608.50,192.95 608.86,192.91 609.22,192.87 609.58,192.83 609.94,192.79 610.30,192.75 610.66,192.72 611.02,192.68 611.38,192.64 611.74,192.61 612.10,192.58 612.46,192.54 612.82,192.51 613.18,192.48 613.54,192.45 613.90,192.42 614.26,192.39 614.62,192.36 614.98,192.33 615.34,192.30 615.70,192.27 616.06,192.25 616.42,192.22 616.78,192.19 617.14,192.17 617.50,192.14 617.86,192.12 618.22,192.09 618.58,192.07 618.94,192.04 619.30,192.02 619.66,192.00 620.02,191.97 620.38,191.95 620.74,191.93 621.10,191.90 621.46,191.88 621.82,191.86 622.19,191.84 622.55,191.82 622.91,191.80 623.27,191.77 623.63,191.75 623.99,191.73 624.35,191.71 624.71,191.69 625.07,191.67 625.43,191.65 625.79,191.63 626.15,191.61 626.51,191.59 626.87,191.57 627.23,191.54 627.59,191.52 627.95,191.50 628.31,191.48 628.67,191.46 629.03,191.44 629.39,191.42 629.75,191.40 630.11,191.37 630.47,191.35 630.83,191.33 631.19,191.31 631.55,191.29 631.91,191.26 632.27,191.24 632.63,191.22 632.99,191.19 633.35,191.17 633.71,191.14 634.07,191.12 634.43,191.09 634.79,191.07 635.15,191.04 635.51,191.02 635.87,190.99 636.23,190.96 636.59,190.94 636.95,190.91 637.31,190.88 637.67,190.85 638.03,190.82 638.39,190.79 638.75,190.76 639.11,190.73 639.47,190.70 639.83,190.66 640.19,190.63 640.55,190.59 640.91,190.56 641.27,190.52 641.63,190.49 641.99,190.45 642.36,190.41 642.72,190.37 643.08,190.33 643.44,190.29 643.80,190.25 644.16,190.20 644.52,190.16 644.88,190.12 645.24,190.07 645.60,190.02 645.96,189.97 646.32,189.92 646.68,189.87 647.04,189.82 647.40,189.77 647.76,189.71 648.12,189.65 648.48,189.60 648.84,189.54 649.20,189.48 649.56,189.41 649.92,189.35 650.28,189.29 650.64,189.22 651.00,189.15 651.36,189.08 651.72,189.01 652.08,188.93 652.44,188.86 652.80,188.78 653.16,188.70 653.52,188.62 653.88,188.53 654.24,188.44 654.60,188.36 654.96,188.26 655.32,188.17 655.68,188.08 656.04,187.98 656.40,187.88 656.76,187.77 657.12,187.67 657.48,187.56 657.84,187.45 658.20,187.33 658.56,187.21 658.92,187.09 659.28,186.97 659.64,186.84 660.00,186.71 660.36,186.58 660.72,186.45 661.08,186.31 661.44,186.16 661.80,186.02 662.17,185.86 662.53,185.71 662.89,185.55 663.25,185.39 663.61,185.22 663.97,185.05 664.33,184.88 664.69,184.70 665.05,184.51 665.41,184.33 665.77,184.13 666.13,183.94 666.49,183.73 666.85,183.53 667.21,183.32 667.57,183.10 667.93,182.88 668.29,182.65 668.65,182.42 669.01,182.18 669.37,181.93 669.73,181.68 670.09,181.43 670.45,181.17 670.81,180.90 671.17,180.62 671.53,180.34 671.89,180.06 672.25,179.76 672.61,179.47 672.97,179.16 673.33,178.85 673.69,178.53 674.05,178.20 674.41,177.86 674.77,177.52 675.13,177.17 675.49,176.82 675.85,176.46 676.21,176.08 676.57,175.71 676.93,175.32 677.29,174.92 677.65,174.52 678.01,174.11 678.37,173.69 678.73,173.26 679.09,172.83 679.45,172.38 679.81,171.93 680.17,171.47 680.53,171.00 680.89,170.52 681.25,170.04 681.61,169.54 681.97,169.04 682.34,168.52 682.70,168.00 683.06,167.47 683.42,166.93 683.78,166.38 684.14,165.82 684.50,165.25 684.86,164.68 685.22,164.09 685.58,163.50 685.94,162.89 686.30,162.28 686.66,161.66 687.02,161.03 687.38,160.39 687.74,159.74 688.10,159.09 688.46,158.42 688.82,157.75 689.18,157.07 689.54,156.38 689.90,155.68 690.26,154.97 690.62,154.26 690.98,153.54 691.34,152.81 691.70,152.07 692.06,151.33 692.42,150.57 692.78,149.82 693.14,149.05 693.50,148.28 693.86,147.50 694.22,146.72 694.58,145.93 694.94,145.13 695.30,144.33 695.66,143.53 696.02,142.72 696.38,141.90 696.74,141.08 697.10,140.26 697.46,139.43 697.82,138.60 698.18,137.77 698.54,136.93 698.90,136.09 699.26,135.25 699.62,134.41 699.98,133.56 700.34,132.72 700.70,131.87 701.06,131.02 701.42,130.18 701.78,129.33 702.15,128.48 702.51,127.63 702.87,126.79 703.23,125.94 703.59,125.10 703.95,124.26 704.31,123.42 704.67,122.58 705.03,121.75 705.39,120.92 705.75,120.09 706.11,119.27 706.47,118.45 706.83,117.64 707.19,116.83 707.55,116.02 707.91,115.22 708.27,114.43 708.63,113.64 708.99,112.85 709.35,112.08 709.71,111.31 710.07,110.54 710.43,109.78 710.79,109.03 711.15,108.29 711.51,107.55 711.87,106.83 712.23,106.10 712.59,105.39 712.95,104.69 713.31,103.99 713.67,103.30 714.03,102.62 714.39,101.95 714.75,101.28 715.11,100.63 715.47,99.98 715.83,99.34 716.19,98.71 716.55,98.09 716.91,97.48 717.27,96.88 717.63,96.28 717.99,95.70 718.35,95.12 718.71,94.56 719.07,94.00 719.43,93.45 719.79,92.91 720.15,92.38 720.51,91.86 720.87,91.35 721.23,90.84 721.59,90.35 721.95,89.86 722.32,89.38 722.68,88.91 723.04,88.45 723.40,88.00 723.76,87.56 724.12,87.12 724.48,86.70 724.84,86.28 725.20,85.87 725.56,85.47 725.92,85.07 726.28,84.69 726.64,84.31 727.00,83.94 727.36,83.58 727.72,83.22 728.08,82.87 728.44,82.53 728.80,82.20 729.16,81.87 729.52,81.55 729.88,81.24 730.24,80.94 730.60,80.64 730.96,80.35 731.32,80.06 731.68,79.78 732.04,79.51 732.40,79.24 732.76,78.98 733.12,78.73 733.48,78.48 733.84,78.23 734.20,78.00 734.56,77.76 734.92,77.54 735.28,77.31 735.64,77.10 736.00,76.89 736.36,76.68 736.72,76.48 737.08,76.28 737.44,76.09 737.80,75.90 738.16,75.72 738.52,75.54 738.88,75.37 739.24,75.20 739.60,75.03 739.96,74.87 740.32,74.72 740.68,74.56 741.04,74.41 741.40,74.27 741.76,74.12 742.13,73.99 742.49,73.85 742.85,73.72 743.21,73.59 743.57,73.46 743.93,73.34 744.29,73.22 744.65,73.11 745.01,72.99 745.37,72.88 745.73,72.77 746.09,72.67 746.45,72.57 746.81,72.47 747.17,72.37 747.53,72.28 747.89,72.18 748.25,72.09 748.61,72.01 748.97,71.92 749.33,71.84 749.69,71.76 750.05,71.68 750.41,71.60 750.77,71.53 751.13,71.46 751.49,71.38 751.85,71.32 752.21,71.25 752.57,71.18 752.93,71.12 753.29,71.06 753.65,71.00 754.01,70.94 754.37,70.88 754.73,70.82 755.09,70.77 755.45,70.72 755.81,70.67 756.17,70.62 756.53,70.57 756.89,70.52 757.25,70.47 757.61,70.43 757.97,70.38 758.33,70.34 758.69,70.30 759.05,70.26 759.41,70.22 759.77,70.18 760.13,70.15 760.49,70.11 760.85,70.07 761.21,70.04 761.57,70.01 761.93,69.97 762.30,69.94 762.66,69.91 763.02,69.88 763.38,69.85 763.74,69.82 764.10,69.80 764.46,69.77 764.82,69.74 765.18,69.72 765.54,69.69 765.90,69.67 766.26,69.64 766.62,69.62 766.98,69.60 767.34,69.58 767.70,69.56 768.06,69.54 768.42,69.52 768.78,69.50 769.14,69.48 769.50,69.46 769.86,69.44 770.22,69.42 770.58,69.41 770.94,69.39 771.30,69.37 771.66,69.36 772.02,69.34 772.38,69.33 772.74,69.31 773.10,69.30 773.46,69.29 773.82,69.27 774.18,69.26 774.54,69.25 774.90,69.24 775.26,69.22 775.62,69.21 775.98,69.20 776.34,69.19 776.70,69.18 777.06,69.17 777.42,69.16 777.78,69.15 778.14,69.14 778.50,69.13 778.86,69.12 779.22,69.12 779.58,69.12 779.94,69.12 780.30,69.12 780.66,69.12 781.02,69.12 781.38,69.12 781.74,69.12 782.11,69.12 782.47,69.12 782.83,69.12 783.19,69.12 783.55,69.11 783.91,69.11 784.27,69.11 784.63,69.11 784.99,69.11 785.35,69.11 785.71,69.11 786.07,69.11 786.43,69.11 786.79,69.11 787.15,69.11 787.51,69.11 787.87,69.11 788.23,69.11 788.59,69.11 788.95,69.11 789.31,69.11 789.67,69.11 790.03,69.11 790.39,69.11 790.75,69.11 791.11,69.11 791.47,69.11 791.83,69.11 792.19,69.11 792.55,69.11 792.91,69.11 793.27,69.11 793.63,69.11 793.99,69.11 794.35,69.11 794.71,69.11 795.07,69.11 795.43,69.11 795.79,69.11 796.15,69.11 796.51,69.11 796.87,69.11 797.23,69.11 797.59,69.11 797.95,69.11 798.31,69.11 798.67,69.11 799.03,69.11 799.39,69.11 799.75,69.11 800.11,69.11 800.47,69.11 800.83,69.11 801.19,69.11 801.55,69.11 801.91,69.11 802.28,69.11 802.64,69.11 803.00,69.11 803.36,69.11 803.72,69.11 804.08,69.11 804.44,69.11 804.80,69.11 805.16,69.11 805.52,69.11 805.88,69.11 806.24,69.11 806.60,69.11 806.96,69.11 807.32,69.11 807.68,69.11 808.04,69.11 808.40,69.11 808.76,69.11 809.12,69.11 809.48,69.11 809.84,69.11 810.20,69.11 810.56,69.11 810.92,69.11 811.28,69.11 811.64,69.11 812.00,69.11" fill="none" stroke="#2f6f9f" stroke-width="2"/>
<text x="662" y="74" font-family="Arial" font-size="12" fill="#2f6f9f">Simulation</text>
</svg>