<svg xmlns="http://www.w3.org/2000/svg" width="780" height="430" viewBox="0 0 780 430">
<rect width="100%" height="100%" fill="white"/>
<text x="390.0" y="20" text-anchor="middle" font-family="Arial" font-size="14">Peak current vs load</text>
<line x1="82" y1="372" x2="756" y2="372" stroke="#333"/>
<line x1="82" y1="28" x2="82" y2="372" stroke="#333"/>
<text x="390.0" y="416" text-anchor="middle" font-family="Arial" font-size="12">log10(R / ohm)</text>
<text x="16" y="215.0" text-anchor="middle" transform="rotate(-90 16 215.0)" font-family="Arial" font-size="12">Peak current (uA)</text>
<line x1="82" y1="28.0" x2="756" y2="28.0" stroke="#ddd"/>
<text x="74" y="32.0" text-anchor="end" font-family="Arial" font-size="10">4.53e+00</text>
<line x1="82" y1="114.0" x2="756" y2="114.0" stroke="#ddd"/>
<text x="74" y="118.0" text-anchor="end" font-family="Arial" font-size="10">3.40e+00</text>
<line x1="82" y1="200.0" x2="756" y2="200.0" stroke="#ddd"/>
<text x="74" y="204.0" text-anchor="end" font-family="Arial" font-size="10">2.26e+00</text>
<line x1="82" y1="286.0" x2="756" y2="286.0" stroke="#ddd"/>
<text x="74" y="290.0" text-anchor="end" font-family="Arial" font-size="10">1.13e+00</text>
<line x1="82" y1="372.0" x2="756" y2="372.0" stroke="#ddd"/>
<text x="74" y="376.0" text-anchor="end" font-family="Arial" font-size="10">-3.74e-03</text>
<polyline points="82.00,51.72 115.82,51.72 160.52,51.72 194.33,51.72 228.15,51.73 272.85,51.76 306.67,51.83 340.48,52.00 385.18,52.54 419.00,53.49 452.82,55.54 497.52,62.55 531.33,75.90 565.15,103.62 609.85,168.61 643.67,228.34 677.48,281.09 722.18,328.21 756.00,348.28" fill="none" stroke="#2f6f9f" stroke-width="1.8"/>
<text x="636" y="48" font-family="Arial" font-size="12" fill="#2f6f9f">Peak current (uA)</text>
</svg>