<svg xmlns="http://www.w3.org/2000/svg" width="780" height="430" viewBox="0 0 780 430">
<rect width="100%" height="100%" fill="white"/>
<text x="390.0" y="20" text-anchor="middle" font-family="Arial" font-size="14">Mean power vs load</text>
<line x1="82" y1="372" x2="756" y2="372" stroke="#333"/>
<line x1="82" y1="28" x2="82" y2="372" stroke="#333"/>
<text x="390.0" y="416" text-anchor="middle" font-family="Arial" font-size="12">log10(R / ohm)</text>
<text x="16" y="215.0" text-anchor="middle" transform="rotate(-90 16 215.0)" font-family="Arial" font-size="12">Mean power (mW)</text>
<line x1="82" y1="28.0" x2="756" y2="28.0" stroke="#ddd"/>
<text x="74" y="32.0" text-anchor="end" font-family="Arial" font-size="10">1.31e+00</text>
<line x1="82" y1="114.0" x2="756" y2="114.0" stroke="#ddd"/>
<text x="74" y="118.0" text-anchor="end" font-family="Arial" font-size="10">9.61e-01</text>
<line x1="82" y1="200.0" x2="756" y2="200.0" stroke="#ddd"/>
<text x="74" y="204.0" text-anchor="end" font-family="Arial" font-size="10">6.08e-01</text>
<line x1="82" y1="286.0" x2="756" y2="286.0" stroke="#ddd"/>
<text x="74" y="290.0" text-anchor="end" font-family="Arial" font-size="10">2.56e-01</text>
<line x1="82" y1="372.0" x2="756" y2="372.0" stroke="#ddd"/>
<text x="74" y="376.0" text-anchor="end" font-family="Arial" font-size="10">-9.73e-02</text>
<polyline points="82.00,348.28 115.82,348.27 160.52,348.25 194.33,348.21 228.15,348.14 272.85,347.91 306.67,347.54 340.48,346.80 385.18,344.58 419.00,340.88 452.82,333.50 497.52,311.64 531.33,277.06 565.15,217.77 609.85,109.31 643.67,51.72 677.48,71.16 722.18,174.33 756.00,245.77" fill="none" stroke="#2f6f9f" stroke-width="1.8"/>
<text x="636" y="48" font-family="Arial" font-size="12" fill="#2f6f9f">Mean power (mW)</text>
</svg>