<svg xmlns="http://www.w3.org/2000/svg" width="760" height="400" viewBox="0 0 760 400">
<rect width="100%" height="100%" fill="white"/>
<text x="380.0" y="18" text-anchor="middle" font-family="Arial" font-size="14">Charge (C)</text>
<line x1="70" y1="345" x2="740" y2="345" stroke="#333"/>
<line x1="70" y1="20" x2="70" y2="345" stroke="#333"/>
<text x="380.0" y="388" text-anchor="middle" font-family="Arial" font-size="12">Time (s)</text>
<text x="16" y="200.0" text-anchor="middle" transform="rotate(-90 16 200.0)" font-family="Arial" font-size="12">Charge (C)</text>
<line x1="70" y1="20.0" x2="740" y2="20.0" stroke="#ddd"/>
<text x="62" y="24.0" text-anchor="end" font-family="Arial" font-size="10">9.43e-08</text>
<line x1="70" y1="101.2" x2="740" y2="101.2" stroke="#ddd"/>
<text x="62" y="105.2" text-anchor="end" font-family="Arial" font-size="10">4.71e-08</text>
<line x1="70" y1="182.5" x2="740" y2="182.5" stroke="#ddd"/>
<text x="62" y="186.5" text-anchor="end" font-family="Arial" font-size="10">-1.32e-23</text>
<line x1="70" y1="263.8" x2="740" y2="263.8" stroke="#ddd"/>
<text x="62" y="267.8" text-anchor="end" font-family="Arial" font-size="10">-4.71e-08</text>
<line x1="70" y1="345.0" x2="740" y2="345.0" stroke="#ddd"/>
<text x="62" y="349.0" text-anchor="end" font-family="Arial" font-size="10">-9.43e-08</text>
<line x1="70.0" y1="345" x2="70.0" y2="350" stroke="#333"/>
<text x="70.0" y="365" text-anchor="middle" font-family="Arial" font-size="10">0.00</text>
<line x1="237.5" y1="345" x2="237.5" y2="350" stroke="#333"/>
<text x="237.5" y="365" text-anchor="middle" font-family="Arial" font-size="10">0.38</text>
<line x1="405.0" y1="345" x2="405.0" y2="350" stroke="#333"/>
<text x="405.0" y="365" text-anchor="middle" font-family="Arial" font-size="10">0.77</text>
<line x1="572.5" y1="345" x2="572.5" y2="350" stroke="#333"/>
<text x="572.5" y="365" text-anchor="middle" font-family="Arial" font-size="10">1.15</text>
<line x1="740.0" y1="345" x2="740.0" y2="350" stroke="#333"/>
<text x="740.0" y="365" text-anchor="middle" font-family="Arial" font-size="10">1.53</text>
<polyline points="70.00,182.50 71.01,182.50 72.01,182.50 73.02,182.50 74.03,182.51 75.04,182.51 76.04,182.51 77.05,182.52 78.06,182.52 79.06,182.53 80.07,182.54 81.08,182.56 82.09,182.57 83.09,182.60 84.10,182.63 85.11,182.67 86.12,182.73 87.12,182.79 88.13,182.88 89.14,182.98 90.14,183.11 91.15,183.27 92.16,183.46 93.17,183.68 94.17,183.95 95.18,184.27 96.19,184.65 97.19,185.09 98.20,185.59 99.21,186.17 100.22,186.82 101.22,187.56 102.23,188.39 103.24,189.30 104.24,190.31 105.25,191.42 106.26,192.61 107.27,193.91 108.27,195.30 109.28,196.77 110.29,198.34 111.29,199.98 112.30,201.70 113.31,203.49 114.32,205.35 115.32,207.27 116.33,209.24 117.34,211.25 118.35,213.30 119.35,215.39 120.36,217.51 121.37,219.66 122.37,221.83 123.38,224.01 124.39,226.21 125.40,228.43 126.40,230.66 127.41,232.89 128.42,235.13 129.42,237.38 130.43,239.64 131.44,241.89 132.45,244.15 133.45,246.41 134.46,248.67 135.47,250.94 136.47,253.20 137.48,255.46 138.49,257.72 139.50,259.98 140.50,262.24 141.51,264.50 142.52,266.76 143.52,269.02 144.53,271.28 145.54,273.54 146.55,275.80 147.55,278.06 148.56,280.31 149.57,282.56 150.58,284.80 151.58,287.03 152.59,289.25 153.60,291.46 154.60,293.65 155.61,295.82 156.62,297.97 157.63,300.08 158.63,302.16 159.64,304.20 160.65,306.18 161.65,308.10 162.66,309.96 163.67,311.73 164.68,313.41 165.68,314.99 166.69,316.45 167.70,317.78 168.70,318.98 169.71,320.01 170.72,320.89 171.73,321.59 172.73,322.11 173.74,322.45 174.75,322.59 175.75,322.53 176.76,322.27 177.77,321.81 178.78,321.16 179.78,320.32 180.79,319.29 181.80,318.07 182.81,316.69 183.81,315.13 184.82,313.42 185.83,311.55 186.83,309.53 187.84,307.37 188.85,305.08 189.86,302.65 190.86,300.10 191.87,297.42 192.88,294.62 193.88,291.70 194.89,288.65 195.90,285.50 196.91,282.22 197.91,278.84 198.92,275.35 199.93,271.75 200.93,268.06 201.94,264.27 202.95,260.40 203.96,256.44 204.96,252.41 205.97,248.32 206.98,244.16 207.98,239.95 208.99,235.68 210.00,231.38 211.01,227.04 212.01,222.67 213.02,218.27 214.03,213.85 215.04,209.40 216.04,204.94 217.05,200.47 218.06,195.99 219.06,191.50 220.07,187.00 221.08,182.50 222.09,178.00 223.09,173.50 224.10,169.01 225.11,164.53 226.11,160.06 227.12,155.60 228.13,151.15 229.14,146.73 230.14,142.33 231.15,137.96 232.16,133.62 233.16,129.32 234.17,125.05 235.18,120.84 236.19,116.68 237.19,112.59 238.20,108.56 239.21,104.60 240.22,100.73 241.22,96.94 242.23,93.25 243.24,89.65 244.24,86.16 245.25,82.78 246.26,79.50 247.27,76.35 248.27,73.30 249.28,70.38 250.29,67.58 251.29,64.90 252.30,62.35 253.31,59.92 254.32,57.63 255.32,55.47 256.33,53.45 257.34,51.58 258.34,49.87 259.35,48.31 260.36,46.93 261.37,45.71 262.37,44.68 263.38,43.84 264.39,43.19 265.39,42.73 266.40,42.47 267.41,42.41 268.42,42.55 269.42,42.89 270.43,43.41 271.44,44.11 272.45,44.99 273.45,46.02 274.46,47.22 275.47,48.55 276.47,50.01 277.48,51.59 278.49,53.27 279.50,55.04 280.50,56.90 281.51,58.82 282.52,60.80 283.52,62.84 284.53,64.92 285.54,67.03 286.55,69.18 287.55,71.35 288.56,73.54 289.57,75.75 290.57,77.97 291.58,80.20 292.59,82.44 293.60,84.69 294.60,86.94 295.61,89.20 296.62,91.46 297.62,93.72 298.63,95.98 299.64,98.24 300.65,100.50 301.65,102.76 302.66,105.02 303.67,107.28 304.68,109.54 305.68,111.80 306.69,114.06 307.70,116.33 308.70,118.59 309.71,120.85 310.72,123.11 311.73,125.36 312.73,127.62 313.74,129.87 314.75,132.11 315.75,134.34 316.76,136.57 317.77,138.79 318.78,140.99 319.78,143.17 320.79,145.34 321.80,147.49 322.80,149.61 323.81,151.70 324.82,153.75 325.83,155.76 326.83,157.73 327.84,159.65 328.85,161.51 329.85,163.30 330.86,165.02 331.87,166.66 332.88,168.23 333.88,169.70 334.89,171.09 335.90,172.39 336.91,173.58 337.91,174.69 338.92,175.70 339.93,176.61 340.93,177.44 341.94,178.18 342.95,178.83 343.96,179.41 344.96,179.91 345.97,180.35 346.98,180.73 347.98,181.05 348.99,181.32 350.00,181.54 351.01,181.73 352.01,181.89 353.02,182.02 354.03,182.12 355.03,182.21 356.04,182.27 357.05,182.33 358.06,182.37 359.06,182.40 360.07,182.43 361.08,182.44 362.08,182.46 363.09,182.47 364.10,182.48 365.11,182.48 366.11,182.49 367.12,182.49 368.13,182.49 369.14,182.50 370.14,182.50 371.15,182.50 372.16,182.50" fill="none" stroke="#2f6f9f" stroke-width="1.8"/>
<text x="660" y="42" font-family="Arial" font-size="12" fill="#2f6f9f">N=2</text>
<polyline points="70.00,182.50 71.22,182.50 72.44,182.50 73.65,182.50 74.87,182.51 76.09,182.51 77.31,182.52 78.53,182.53 79.75,182.54 80.96,182.55 82.18,182.58 83.40,182.61 84.62,182.65 85.84,182.71 87.06,182.79 88.27,182.89 89.49,183.02 90.71,183.19 91.93,183.41 93.15,183.68 94.36,184.01 95.58,184.42 96.80,184.91 98.02,185.49 99.24,186.18 100.46,186.99 101.67,187.92 102.89,188.98 104.11,190.17 105.33,191.50 106.55,192.98 107.77,194.59 108.98,196.33 110.20,198.20 111.42,200.19 112.64,202.29 113.86,204.50 115.07,206.79 116.29,209.16 117.51,211.60 118.73,214.10 119.95,216.64 121.17,219.23 122.38,221.85 123.60,224.50 124.82,227.16 126.04,229.85 127.26,232.55 128.48,235.26 129.69,237.99 130.91,240.71 132.13,243.44 133.35,246.18 134.57,248.91 135.79,251.65 137.00,254.39 138.22,257.12 139.44,259.86 140.66,262.59 141.88,265.32 143.09,268.06 144.31,270.79 145.53,273.53 146.75,276.26 147.97,278.98 149.19,281.71 150.40,284.42 151.62,287.12 152.84,289.81 154.06,292.47 155.28,295.11 156.50,297.71 157.71,300.27 158.93,302.77 160.15,305.21 161.37,307.56 162.59,309.82 163.80,311.96 165.02,313.97 166.24,315.81 167.46,317.48 168.68,318.95 169.90,320.19 171.11,321.19 172.33,321.93 173.55,322.40 174.77,322.59 175.99,322.48 177.21,322.09 178.42,321.41 179.64,320.45 180.86,319.21 182.08,317.70 183.30,315.95 184.51,313.95 185.73,311.73 186.95,309.29 188.17,306.64 189.39,303.80 190.61,300.76 191.82,297.55 193.04,294.15 194.26,290.57 195.48,286.83 196.70,282.91 197.92,278.83 199.13,274.60 200.35,270.21 201.57,265.68 202.79,261.02 204.01,256.24 205.22,251.36 206.44,246.37 207.66,241.30 208.88,236.16 210.10,230.96 211.32,225.70 212.53,220.40 213.75,215.06 214.97,209.69 216.19,204.29 217.41,198.88 218.63,193.45 219.84,188.02 221.06,182.57 222.28,177.13 223.50,171.69 224.72,166.27 225.93,160.85 227.15,155.46 228.37,150.09 229.59,144.75 230.81,139.44 232.03,134.18 233.24,128.98 234.46,123.83 235.68,118.76 236.90,113.78 238.12,108.89 239.34,104.10 240.55,99.44 241.77,94.91 242.99,90.52 244.21,86.28 245.43,82.20 246.65,78.28 247.86,74.53 249.08,70.95 250.30,67.54 251.52,64.32 252.74,61.28 253.95,58.44 255.17,55.78 256.39,53.34 257.61,51.11 258.83,49.11 260.05,47.35 261.26,45.85 262.48,44.61 263.70,43.65 264.92,42.98 266.14,42.60 267.36,42.52 268.57,42.75 269.79,43.27 271.01,44.08 272.23,45.18 273.45,46.55 274.66,48.18 275.88,50.05 277.10,52.17 278.32,54.50 279.54,57.05 280.76,59.80 281.97,62.74 283.19,65.87 284.41,69.18 285.63,72.67 286.85,76.33 288.07,80.16 289.28,84.16 290.50,88.32 291.72,92.64 292.94,97.10 294.16,101.69 295.37,106.42 296.59,111.25 297.81,116.19 299.03,121.22 300.25,126.33 301.47,131.50 302.68,136.74 303.90,142.02 305.12,147.34 306.34,152.70 307.56,158.08 308.78,163.48 309.99,168.91 311.21,174.34 312.43,179.78 313.65,185.22 314.87,190.66 316.08,196.09 317.30,201.52 318.52,206.92 319.74,212.30 320.96,217.66 322.18,222.98 323.39,228.26 324.61,233.50 325.83,238.67 327.05,243.78 328.27,248.81 329.49,253.75 330.70,258.58 331.92,263.31 333.14,267.90 334.36,272.36 335.58,276.68 336.79,280.84 338.01,284.84 339.23,288.67 340.45,292.33 341.67,295.82 342.89,299.13 344.10,302.26 345.32,305.20 346.54,307.95 347.76,310.50 348.98,312.83 350.20,314.95 351.41,316.82 352.63,318.45 353.85,319.82 355.07,320.92 356.29,321.73 357.51,322.25 358.72,322.48 359.94,322.40 361.16,322.02 362.38,321.35 363.60,320.39 364.81,319.15 366.03,317.65 367.25,315.89 368.47,313.89 369.69,311.66 370.91,309.22 372.12,306.56 373.34,303.72 374.56,300.68 375.78,297.46 377.00,294.05 378.22,290.47 379.43,286.72 380.65,282.80 381.87,278.72 383.09,274.48 384.31,270.09 385.52,265.56 386.74,260.90 387.96,256.11 389.18,251.22 390.40,246.24 391.62,241.17 392.83,236.02 394.05,230.82 395.27,225.56 396.49,220.25 397.71,214.91 398.93,209.54 400.14,204.15 401.36,198.73 402.58,193.31 403.80,187.87 405.02,182.43 406.23,176.98 407.45,171.55 408.67,166.12 409.89,160.71 411.11,155.31 412.33,149.94 413.54,144.60 414.76,139.30 415.98,134.04 417.20,128.84 418.42,123.70 419.64,118.63 420.85,113.64 422.07,108.76 423.29,103.98 424.51,99.32 425.73,94.79 426.94,90.40 428.16,86.17 429.38,82.09 430.60,78.17 431.82,74.43 433.04,70.85 434.25,67.45 435.47,64.24 436.69,61.20 437.91,58.36 439.13,55.71 440.35,53.27 441.56,51.05 442.78,49.05 444.00,47.30 445.22,45.79 446.44,44.55 447.65,43.59 448.87,42.91 450.09,42.52 451.31,42.41 452.53,42.60 453.75,43.07 454.96,43.81 456.18,44.81 457.40,46.05 458.62,47.52 459.84,49.19 461.06,51.03 462.27,53.04 463.49,55.18 464.71,57.44 465.93,59.79 467.15,62.23 468.37,64.73 469.58,67.29 470.80,69.89 472.02,72.53 473.24,75.19 474.46,77.88 475.67,80.58 476.89,83.29 478.11,86.02 479.33,88.74 480.55,91.47 481.77,94.21 482.98,96.94 484.20,99.68 485.42,102.41 486.64,105.14 487.86,107.88 489.08,110.61 490.29,113.35 491.51,116.09 492.73,118.82 493.95,121.56 495.17,124.29 496.38,127.01 497.60,129.74 498.82,132.45 500.04,135.15 501.26,137.84 502.48,140.50 503.69,143.15 504.91,145.77 506.13,148.36 507.35,150.90 508.57,153.40 509.79,155.84 511.00,158.21 512.22,160.50 513.44,162.71 514.66,164.81 515.88,166.80 517.09,168.67 518.31,170.41 519.53,172.02 520.75,173.50 521.97,174.83 523.19,176.02 524.40,177.08 525.62,178.01 526.84,178.82 528.06,179.51 529.28,180.09 530.50,180.58 531.71,180.99 532.93,181.32 534.15,181.59 535.37,181.81 536.59,181.98 537.80,182.11 539.02,182.21 540.24,182.29 541.46,182.35 542.68,182.39 543.90,182.42 545.11,182.45 546.33,182.46 547.55,182.47 548.77,182.48 549.99,182.49 551.21,182.49 552.42,182.50 553.64,182.50 554.86,182.50 556.08,182.50" fill="none" stroke="#34a853" stroke-width="1.8"/>
<text x="660" y="60" font-family="Arial" font-size="12" fill="#34a853">N=4</text>
<polyline points="70.00,182.50 71.12,182.50 72.24,182.50 73.36,182.50 74.47,182.51 75.59,182.51 76.71,182.51 77.83,182.52 78.95,182.53 80.07,182.54 81.19,182.56 82.30,182.58 83.42,182.61 84.54,182.65 85.66,182.70 86.78,182.77 87.90,182.86 89.02,182.97 90.13,183.11 91.25,183.28 92.37,183.50 93.49,183.76 94.61,184.09 95.73,184.47 96.84,184.93 97.96,185.46 99.08,186.09 100.20,186.81 101.32,187.63 102.44,188.57 103.56,189.61 104.67,190.77 105.79,192.05 106.91,193.44 108.03,194.95 109.15,196.57 110.27,198.30 111.39,200.13 112.50,202.06 113.62,204.07 114.74,206.15 115.86,208.31 116.98,210.52 118.10,212.79 119.22,215.11 120.33,217.46 121.45,219.84 122.57,222.25 123.69,224.68 124.81,227.14 125.93,229.60 127.05,232.08 128.16,234.57 129.28,237.07 130.40,239.57 131.52,242.07 132.64,244.58 133.76,247.09 134.87,249.61 135.99,252.12 137.11,254.63 138.23,257.14 139.35,259.65 140.47,262.16 141.59,264.67 142.70,267.18 143.82,269.69 144.94,272.20 146.06,274.71 147.18,277.22 148.30,279.72 149.42,282.22 150.53,284.71 151.65,287.19 152.77,289.65 153.89,292.10 155.01,294.53 156.13,296.93 157.25,299.29 158.36,301.61 159.48,303.88 160.60,306.09 161.72,308.23 162.84,310.27 163.96,312.22 165.08,314.05 166.19,315.74 167.31,317.29 168.43,318.67 169.55,319.86 170.67,320.85 171.79,321.63 172.90,322.19 174.02,322.51 175.14,322.59 176.26,322.42 177.38,322.01 178.50,321.36 179.62,320.47 180.73,319.35 181.85,318.00 182.97,316.44 184.09,314.67 185.21,312.71 186.33,310.56 187.45,308.24 188.56,305.74 189.68,303.08 190.80,300.26 191.92,297.28 193.04,294.16 194.16,290.88 195.28,287.46 196.39,283.90 197.51,280.20 198.63,276.36 199.75,272.40 200.87,268.31 201.99,264.10 203.11,259.79 204.22,255.38 205.34,250.88 206.46,246.30 207.58,241.65 208.70,236.93 209.82,232.17 210.93,227.35 212.05,222.50 213.17,217.61 214.29,212.69 215.41,207.75 216.53,202.79 217.65,197.82 218.76,192.83 219.88,187.84 221.00,182.84 222.12,177.85 223.24,172.85 224.36,167.87 225.48,162.89 226.59,157.93 227.71,152.99 228.83,148.07 229.95,143.17 231.07,138.31 232.19,133.49 233.31,128.72 234.42,124.00 235.54,119.33 236.66,114.74 237.78,110.23 238.90,105.81 240.02,101.48 241.14,97.26 242.25,93.16 243.37,89.17 244.49,85.32 245.61,81.60 246.73,78.02 247.85,74.58 248.96,71.28 250.08,68.14 251.20,65.14 252.32,62.30 253.44,59.62 254.56,57.10 255.68,54.75 256.79,52.58 257.91,50.59 259.03,48.80 260.15,47.21 261.27,45.84 262.39,44.69 263.51,43.78 264.62,43.11 265.74,42.69 266.86,42.52 267.98,42.60 269.10,42.93 270.22,43.52 271.34,44.35 272.45,45.41 273.57,46.70 274.69,48.21 275.81,49.93 276.93,51.85 278.05,53.96 279.17,56.25 280.28,58.71 281.40,61.33 282.52,64.12 283.64,67.06 284.76,70.15 285.88,73.40 286.99,76.79 288.11,80.32 289.23,83.99 290.35,87.80 291.47,91.74 292.59,95.80 293.71,99.98 294.82,104.27 295.94,108.66 297.06,113.14 298.18,117.71 299.30,122.34 300.42,127.04 301.54,131.80 302.65,136.61 303.77,141.45 304.89,146.34 306.01,151.25 307.13,156.18 308.25,161.14 309.37,166.11 310.48,171.09 311.60,176.08 312.72,181.08 313.84,186.08 314.96,191.07 316.08,196.06 317.20,201.04 318.31,206.00 319.43,210.95 320.55,215.87 321.67,220.77 322.79,225.64 323.91,230.47 325.03,235.26 326.14,239.99 327.26,244.67 328.38,249.27 329.50,253.80 330.62,258.25 331.74,262.59 332.85,266.84 333.97,270.97 335.09,274.98 336.21,278.86 337.33,282.61 338.45,286.22 339.57,289.69 340.68,293.02 341.80,296.20 342.92,299.23 344.04,302.10 345.16,304.82 346.28,307.37 347.40,309.76 348.51,311.97 349.63,314.00 350.75,315.83 351.87,317.46 352.99,318.88 354.11,320.08 355.23,321.04 356.34,321.76 357.46,322.24 358.58,322.47 359.70,322.44 360.82,322.16 361.94,321.63 363.06,320.85 364.17,319.84 365.29,318.59 366.41,317.13 367.53,315.45 368.65,313.58 369.77,311.51 370.88,309.26 372.00,306.84 373.12,304.25 374.24,301.49 375.36,298.59 376.48,295.53 377.60,292.31 378.71,288.96 379.83,285.45 380.95,281.81 382.07,278.03 383.19,274.12 384.31,270.09 385.43,265.93 386.54,261.66 387.66,257.30 388.78,252.83 389.90,248.29 391.02,243.66 392.14,238.97 393.26,234.23 394.37,229.43 395.49,224.59 396.61,219.72 397.73,214.81 398.85,209.88 399.97,204.93 401.09,199.96 402.20,194.98 403.32,189.99 404.44,185.00 405.56,180.00 406.68,175.01 407.80,170.02 408.91,165.04 410.03,160.07 411.15,155.12 412.27,150.19 413.39,145.28 414.51,140.41 415.63,135.57 416.74,130.77 417.86,126.03 418.98,121.34 420.10,116.71 421.22,112.17 422.34,107.70 423.46,103.34 424.57,99.07 425.69,94.91 426.81,90.88 427.93,86.97 429.05,83.19 430.17,79.55 431.29,76.04 432.40,72.69 433.52,69.47 434.64,66.41 435.76,63.51 436.88,60.75 438.00,58.16 439.12,55.74 440.23,53.49 441.35,51.42 442.47,49.55 443.59,47.87 444.71,46.41 445.83,45.16 446.94,44.15 448.06,43.37 449.18,42.84 450.30,42.56 451.42,42.53 452.54,42.76 453.66,43.24 454.77,43.96 455.89,44.92 457.01,46.12 458.13,47.54 459.25,49.17 460.37,51.00 461.49,53.03 462.60,55.24 463.72,57.63 464.84,60.18 465.96,62.90 467.08,65.77 468.20,68.80 469.32,71.98 470.43,75.31 471.55,78.78 472.67,82.39 473.79,86.14 474.91,90.02 476.03,94.03 477.15,98.16 478.26,102.41 479.38,106.75 480.50,111.20 481.62,115.73 482.74,120.33 483.86,125.01 484.97,129.74 486.09,134.53 487.21,139.36 488.33,144.23 489.45,149.13 490.57,154.05 491.69,159.00 492.80,163.96 493.92,168.94 495.04,173.93 496.16,178.92 497.28,183.92 498.40,188.92 499.52,193.91 500.63,198.89 501.75,203.86 502.87,208.82 503.99,213.75 505.11,218.66 506.23,223.55 507.35,228.39 508.46,233.20 509.58,237.96 510.70,242.66 511.82,247.29 512.94,251.86 514.06,256.34 515.18,260.73 516.29,265.02 517.41,269.20 518.53,273.26 519.65,277.20 520.77,281.01 521.89,284.68 523.01,288.21 524.12,291.60 525.24,294.85 526.36,297.94 527.48,300.88 528.60,303.67 529.72,306.29 530.83,308.75 531.95,311.04 533.07,313.15 534.19,315.07 535.31,316.79 536.43,318.30 537.55,319.59 538.66,320.65 539.78,321.48 540.90,322.07 542.02,322.40 543.14,322.48 544.26,322.31 545.38,321.89 546.49,321.22 547.61,320.31 548.73,319.16 549.85,317.79 550.97,316.20 552.09,314.41 553.21,312.42 554.32,310.25 555.44,307.90 556.56,305.38 557.68,302.70 558.80,299.86 559.92,296.86 561.04,293.72 562.15,290.42 563.27,286.98 564.39,283.40 565.51,279.68 566.63,275.83 567.75,271.84 568.86,267.74 569.98,263.52 571.10,259.19 572.22,254.77 573.34,250.26 574.46,245.67 575.58,241.00 576.69,236.28 577.81,231.51 578.93,226.69 580.05,221.83 581.17,216.93 582.29,212.01 583.41,207.07 584.52,202.11 585.64,197.13 586.76,192.15 587.88,187.15 589.00,182.16 590.12,177.16 591.24,172.17 592.35,167.18 593.47,162.21 594.59,157.25 595.71,152.31 596.83,147.39 597.95,142.50 599.07,137.65 600.18,132.83 601.30,128.07 602.42,123.35 603.54,118.70 604.66,114.12 605.78,109.62 606.89,105.21 608.01,100.90 609.13,96.69 610.25,92.60 611.37,88.64 612.49,84.80 613.61,81.10 614.72,77.54 615.84,74.12 616.96,70.84 618.08,67.72 619.20,64.74 620.32,61.92 621.44,59.26 622.55,56.76 623.67,54.44 624.79,52.29 625.91,50.33 627.03,48.56 628.15,47.00 629.27,45.65 630.38,44.53 631.50,43.64 632.62,42.99 633.74,42.58 634.86,42.41 635.98,42.49 637.10,42.81 638.21,43.37 639.33,44.15 640.45,45.14 641.57,46.33 642.69,47.71 643.81,49.26 644.92,50.95 646.04,52.78 647.16,54.73 648.28,56.77 649.40,58.91 650.52,61.12 651.64,63.39 652.75,65.71 653.87,68.07 654.99,70.47 656.11,72.90 657.23,75.35 658.35,77.81 659.47,80.29 660.58,82.78 661.70,85.28 662.82,87.78 663.94,90.29 665.06,92.80 666.18,95.31 667.30,97.82 668.41,100.33 669.53,102.84 670.65,105.35 671.77,107.86 672.89,110.37 674.01,112.88 675.13,115.39 676.24,117.91 677.36,120.42 678.48,122.93 679.60,125.43 680.72,127.93 681.84,130.43 682.95,132.92 684.07,135.40 685.19,137.86 686.31,140.32 687.43,142.75 688.55,145.16 689.67,147.54 690.78,149.89 691.90,152.21 693.02,154.48 694.14,156.69 695.26,158.85 696.38,160.93 697.50,162.94 698.61,164.87 699.73,166.70 700.85,168.43 701.97,170.05 703.09,171.56 704.21,172.95 705.33,174.23 706.44,175.39 707.56,176.43 708.68,177.37 709.80,178.19 710.92,178.91 712.04,179.54 713.16,180.07 714.27,180.53 715.39,180.91 716.51,181.24 717.63,181.50 718.75,181.72 719.87,181.89 720.98,182.03 722.10,182.14 723.22,182.23 724.34,182.30 725.46,182.35 726.58,182.39 727.70,182.42 728.81,182.44 729.93,182.46 731.05,182.47 732.17,182.48 733.29,182.49 734.41,182.49 735.53,182.49 736.64,182.50 737.76,182.50 738.88,182.50 740.00,182.50" fill="none" stroke="#b26a00" stroke-width="1.8"/>
<text x="660" y="78" font-family="Arial" font-size="12" fill="#b26a00">N=6</text>
</svg>