<svg xmlns="http://www.w3.org/2000/svg" width="760" height="400" viewBox="0 0 760 400">
<rect width="100%" height="100%" fill="white"/>
<text x="380.0" y="18" text-anchor="middle" font-family="Arial" font-size="14">Current (A)</text>
<line x1="70" y1="345" x2="740" y2="345" stroke="#333"/>
<line x1="70" y1="20" x2="70" y2="345" stroke="#333"/>
<text x="380.0" y="388" text-anchor="middle" font-family="Arial" font-size="12">Time (s)</text>
<text x="16" y="200.0" text-anchor="middle" transform="rotate(-90 16 200.0)" font-family="Arial" font-size="12">Current (A)</text>
<line x1="70" y1="20.0" x2="740" y2="20.0" stroke="#ddd"/>
<text x="62" y="24.0" text-anchor="end" font-family="Arial" font-size="10">1.32e-06</text>
<line x1="70" y1="101.2" x2="740" y2="101.2" stroke="#ddd"/>
<text x="62" y="105.2" text-anchor="end" font-family="Arial" font-size="10">6.58e-07</text>
<line x1="70" y1="182.5" x2="740" y2="182.5" stroke="#ddd"/>
<text x="62" y="186.5" text-anchor="end" font-family="Arial" font-size="10">2.88e-11</text>
<line x1="70" y1="263.8" x2="740" y2="263.8" stroke="#ddd"/>
<text x="62" y="267.8" text-anchor="end" font-family="Arial" font-size="10">-6.58e-07</text>
<line x1="70" y1="345.0" x2="740" y2="345.0" stroke="#ddd"/>
<text x="62" y="349.0" text-anchor="end" font-family="Arial" font-size="10">-1.32e-06</text>
<line x1="70.0" y1="345" x2="70.0" y2="350" stroke="#333"/>
<text x="70.0" y="365" text-anchor="middle" font-family="Arial" font-size="10">0.00</text>
<line x1="237.5" y1="345" x2="237.5" y2="350" stroke="#333"/>
<text x="237.5" y="365" text-anchor="middle" font-family="Arial" font-size="10">0.38</text>
<line x1="405.0" y1="345" x2="405.0" y2="350" stroke="#333"/>
<text x="405.0" y="365" text-anchor="middle" font-family="Arial" font-size="10">0.77</text>
<line x1="572.5" y1="345" x2="572.5" y2="350" stroke="#333"/>
<text x="572.5" y="365" text-anchor="middle" font-family="Arial" font-size="10">1.15</text>
<line x1="740.0" y1="345" x2="740.0" y2="350" stroke="#333"/>
<text x="740.0" y="365" text-anchor="middle" font-family="Arial" font-size="10">1.53</text>
<polyline points="70.00,182.52 71.01,182.53 72.01,182.54 73.02,182.55 74.03,182.57 75.04,182.59 76.04,182.62 77.05,182.67 78.06,182.73 79.06,182.80 80.07,182.90 81.08,183.03 82.09,183.19 83.09,183.40 84.10,183.66 85.11,183.98 86.12,184.37 87.12,184.85 88.13,185.43 89.14,186.12 90.14,186.93 91.15,187.89 92.16,188.99 93.17,190.27 94.17,191.71 95.18,193.34 96.19,195.15 97.19,197.15 98.20,199.33 99.21,201.68 100.22,204.19 101.22,206.84 102.23,209.62 103.24,212.48 104.24,215.41 105.25,218.37 106.26,221.33 107.27,224.24 108.27,227.09 109.28,229.84 110.29,232.45 111.29,234.92 112.30,237.21 113.31,239.32 114.32,241.24 115.32,242.96 116.33,244.49 117.34,245.84 118.35,247.02 119.35,248.04 120.36,248.91 121.37,249.66 122.37,250.29 123.38,250.83 124.39,251.28 125.40,251.65 126.40,251.97 127.41,252.22 128.42,252.43 129.42,252.59 130.43,252.72 131.44,252.81 132.45,252.87 133.45,252.91 134.46,252.93 135.47,252.94 136.47,252.93 137.48,252.92 138.49,252.92 139.50,252.91 140.50,252.90 141.51,252.90 142.52,252.89 143.52,252.88 144.53,252.87 145.54,252.83 146.55,252.78 147.55,252.69 148.56,252.57 149.57,252.39 150.58,252.16 151.58,251.86 152.59,251.48 153.60,251.00 154.60,250.41 155.61,249.70 156.62,248.83 157.63,247.78 158.63,246.53 159.64,245.06 160.65,243.32 161.65,241.30 162.66,238.96 163.67,236.28 164.68,233.24 165.68,229.81 166.69,226.01 167.70,221.82 168.70,217.25 169.71,212.33 170.72,207.09 171.73,201.56 172.73,195.79 173.74,189.83 174.75,183.74 175.75,177.57 176.76,171.40 177.77,165.26 178.78,159.21 179.78,153.30 180.79,147.57 181.80,142.03 182.81,136.70 183.81,131.59 184.82,126.70 185.83,122.02 186.83,117.53 187.84,113.21 188.85,109.03 189.86,104.98 190.86,101.03 191.87,97.16 192.88,93.37 193.88,89.64 194.89,85.98 195.90,82.39 196.91,78.88 197.91,75.47 198.92,72.19 199.93,69.04 200.93,66.04 201.94,63.23 202.95,60.60 203.96,58.18 204.96,55.97 205.97,53.96 206.98,52.17 207.98,50.57 208.99,49.16 210.00,47.93 211.01,46.86 212.01,45.93 213.02,45.14 214.03,44.47 215.04,43.90 216.04,43.44 217.05,43.06 218.06,42.78 219.06,42.57 220.07,42.45 221.08,42.41 222.09,42.45 223.09,42.57 224.10,42.78 225.11,43.06 226.11,43.44 227.12,43.90 228.13,44.47 229.14,45.14 230.14,45.93 231.15,46.86 232.16,47.93 233.16,49.16 234.17,50.57 235.18,52.17 236.19,53.96 237.19,55.97 238.20,58.18 239.21,60.60 240.22,63.23 241.22,66.04 242.23,69.04 243.24,72.19 244.24,75.47 245.25,78.88 246.26,82.39 247.27,85.98 248.27,89.64 249.28,93.37 250.29,97.16 251.29,101.03 252.30,104.98 253.31,109.03 254.32,113.21 255.32,117.53 256.33,122.02 257.34,126.70 258.34,131.59 259.35,136.70 260.36,142.03 261.37,147.57 262.37,153.30 263.38,159.21 264.39,165.26 265.39,171.40 266.40,177.57 267.41,183.74 268.42,189.83 269.42,195.79 270.43,201.56 271.44,207.09 272.45,212.33 273.45,217.25 274.46,221.82 275.47,226.01 276.47,229.81 277.48,233.24 278.49,236.28 279.50,238.96 280.50,241.30 281.51,243.32 282.52,245.06 283.52,246.53 284.53,247.78 285.54,248.83 286.55,249.70 287.55,250.41 288.56,251.00 289.57,251.48 290.57,251.86 291.58,252.16 292.59,252.39 293.60,252.57 294.60,252.69 295.61,252.78 296.62,252.83 297.62,252.87 298.63,252.88 299.64,252.89 300.65,252.90 301.65,252.90 302.66,252.91 303.67,252.92 304.68,252.92 305.68,252.93 306.69,252.94 307.70,252.93 308.70,252.91 309.71,252.87 310.72,252.81 311.73,252.72 312.73,252.59 313.74,252.43 314.75,252.22 315.75,251.97 316.76,251.65 317.77,251.28 318.78,250.83 319.78,250.29 320.79,249.66 321.80,248.91 322.80,248.04 323.81,247.02 324.82,245.84 325.83,244.49 326.83,242.96 327.84,241.24 328.85,239.32 329.85,237.21 330.86,234.92 331.87,232.45 332.88,229.84 333.88,227.09 334.89,224.24 335.90,221.33 336.91,218.37 337.91,215.41 338.92,212.48 339.93,209.62 340.93,206.84 341.94,204.19 342.95,201.68 343.96,199.33 344.96,197.15 345.97,195.15 346.98,193.34 347.98,191.71 348.99,190.27 350.00,188.99 351.01,187.89 352.01,186.93 353.02,186.12 354.03,185.43 355.03,184.85 356.04,184.37 357.05,183.98 358.06,183.66 359.06,183.40 360.07,183.19 361.08,183.03 362.08,182.90 363.09,182.80 364.10,182.73 365.11,182.67 366.11,182.62 367.12,182.59 368.13,182.57 369.14,182.55 370.14,182.54 371.15,182.53 372.16,182.52" fill="none" stroke="#2f6f9f" stroke-width="1.8"/>
<text x="660" y="42" font-family="Arial" font-size="12" fill="#2f6f9f">N=2</text>
<polyline points="70.00,182.52 71.22,182.53 72.44,182.54 73.65,182.56 74.87,182.59 76.09,182.63 77.31,182.68 78.53,182.76 79.75,182.87 80.96,183.02 82.18,183.21 83.40,183.47 84.62,183.82 85.84,184.26 87.06,184.82 88.27,185.53 89.49,186.40 90.71,187.46 91.93,188.74 93.15,190.25 94.36,192.02 95.58,194.06 96.80,196.36 98.02,198.93 99.24,201.76 100.46,204.82 101.67,208.08 102.89,211.50 104.11,215.02 105.33,218.60 106.55,222.16 107.77,225.66 108.98,229.03 110.20,232.23 111.42,235.20 112.64,237.92 113.86,240.37 115.07,242.54 116.29,244.42 117.51,246.04 118.73,247.41 119.95,248.56 121.17,249.51 122.38,250.29 123.60,250.93 124.82,251.44 126.04,251.86 127.26,252.18 128.48,252.44 129.69,252.63 130.91,252.76 132.13,252.85 133.35,252.91 134.57,252.93 135.79,252.94 137.00,252.93 138.22,252.92 139.44,252.91 140.66,252.90 141.88,252.90 143.09,252.89 144.31,252.87 145.53,252.83 146.75,252.76 147.97,252.64 149.19,252.46 150.40,252.20 151.62,251.84 152.84,251.36 154.06,250.74 155.28,249.94 156.50,248.93 157.71,247.66 158.93,246.10 160.15,244.19 161.37,241.88 162.59,239.12 163.80,235.86 165.02,232.07 166.24,227.72 167.46,222.81 168.68,217.35 169.90,211.37 171.11,204.93 172.33,198.09 173.55,190.95 174.77,183.60 175.99,176.15 177.21,168.69 178.42,161.33 179.64,154.14 180.86,147.19 182.08,140.54 183.30,134.20 184.51,128.18 185.73,122.46 186.95,117.03 188.17,111.84 189.39,106.85 190.61,102.03 191.82,97.34 193.04,92.76 194.26,88.27 195.48,83.88 196.70,79.61 197.92,75.48 199.13,71.52 200.35,67.77 201.57,64.26 202.79,61.02 204.01,58.08 205.22,55.44 206.44,53.11 207.66,51.08 208.88,49.33 210.10,47.83 211.32,46.57 212.53,45.52 213.75,44.65 214.97,43.94 216.19,43.38 217.41,42.96 218.63,42.66 219.84,42.48 221.06,42.42 222.28,42.48 223.50,42.65 224.72,42.95 225.93,43.37 227.15,43.93 228.37,44.63 229.59,45.49 230.81,46.54 232.03,47.79 233.24,49.28 234.46,51.03 235.68,53.05 236.90,55.38 238.12,58.01 239.34,60.94 240.55,64.17 241.77,67.67 242.99,71.41 244.21,75.37 245.43,79.49 246.65,83.76 247.86,88.15 249.08,92.64 250.30,97.22 251.52,101.91 252.74,106.73 253.95,111.72 255.17,116.91 256.39,122.35 257.61,128.07 258.83,134.11 260.05,140.49 261.26,147.19 262.48,154.21 263.70,161.50 264.92,169.01 266.14,176.66 267.36,184.38 268.57,192.08 269.79,199.67 271.01,207.09 272.23,214.25 273.45,221.12 274.66,227.66 275.88,233.87 277.10,239.76 278.32,245.34 279.54,250.65 280.76,255.74 281.97,260.64 283.19,265.39 284.41,270.03 285.63,274.57 286.85,279.00 288.07,283.34 289.28,287.54 290.50,291.59 291.72,295.44 292.94,299.07 294.16,302.44 295.37,305.53 296.59,308.32 297.81,310.80 299.03,312.98 300.25,314.86 301.47,316.48 302.68,317.85 303.90,319.00 305.12,319.96 306.34,320.74 307.56,321.37 308.78,321.86 309.99,322.22 311.21,322.46 312.43,322.57 313.65,322.57 314.87,322.46 316.08,322.22 317.30,321.86 318.52,321.37 319.74,320.74 320.96,319.96 322.18,319.00 323.39,317.85 324.61,316.48 325.83,314.86 327.05,312.98 328.27,310.80 329.49,308.32 330.70,305.53 331.92,302.44 333.14,299.07 334.36,295.44 335.58,291.59 336.79,287.54 338.01,283.34 339.23,279.00 340.45,274.57 341.67,270.03 342.89,265.39 344.10,260.64 345.32,255.74 346.54,250.65 347.76,245.34 348.98,239.76 350.20,233.87 351.41,227.66 352.63,221.12 353.85,214.25 355.07,207.09 356.29,199.67 357.51,192.08 358.72,184.38 359.94,176.66 361.16,169.01 362.38,161.50 363.60,154.21 364.81,147.19 366.03,140.49 367.25,134.11 368.47,128.07 369.69,122.35 370.91,116.91 372.12,111.72 373.34,106.73 374.56,101.91 375.78,97.22 377.00,92.64 378.22,88.15 379.43,83.76 380.65,79.49 381.87,75.37 383.09,71.41 384.31,67.67 385.52,64.17 386.74,60.94 387.96,58.01 389.18,55.38 390.40,53.05 391.62,51.03 392.83,49.28 394.05,47.79 395.27,46.54 396.49,45.49 397.71,44.63 398.93,43.93 400.14,43.37 401.36,42.95 402.58,42.65 403.80,42.48 405.02,42.42 406.23,42.48 407.45,42.66 408.67,42.96 409.89,43.38 411.11,43.94 412.33,44.65 413.54,45.52 414.76,46.57 415.98,47.83 417.20,49.33 418.42,51.08 419.64,53.11 420.85,55.44 422.07,58.08 423.29,61.02 424.51,64.26 425.73,67.77 426.94,71.52 428.16,75.48 429.38,79.61 430.60,83.88 431.82,88.27 433.04,92.76 434.25,97.34 435.47,102.03 436.69,106.85 437.91,111.84 439.13,117.03 440.35,122.46 441.56,128.18 442.78,134.20 444.00,140.54 445.22,147.19 446.44,154.14 447.65,161.33 448.87,168.69 450.09,176.15 451.31,183.60 452.53,190.95 453.75,198.09 454.96,204.93 456.18,211.37 457.40,217.35 458.62,222.81 459.84,227.72 461.06,232.07 462.27,235.86 463.49,239.12 464.71,241.88 465.93,244.19 467.15,246.10 468.37,247.66 469.58,248.93 470.80,249.94 472.02,250.74 473.24,251.36 474.46,251.84 475.67,252.20 476.89,252.46 478.11,252.64 479.33,252.76 480.55,252.83 481.77,252.87 482.98,252.89 484.20,252.90 485.42,252.90 486.64,252.91 487.86,252.92 489.08,252.93 490.29,252.94 491.51,252.93 492.73,252.91 493.95,252.85 495.17,252.76 496.38,252.63 497.60,252.44 498.82,252.18 500.04,251.86 501.26,251.44 502.48,250.93 503.69,250.29 504.91,249.51 506.13,248.56 507.35,247.41 508.57,246.04 509.79,244.42 511.00,242.54 512.22,240.37 513.44,237.92 514.66,235.20 515.88,232.23 517.09,229.03 518.31,225.66 519.53,222.16 520.75,218.60 521.97,215.02 523.19,211.50 524.40,208.08 525.62,204.82 526.84,201.76 528.06,198.93 529.28,196.36 530.50,194.06 531.71,192.02 532.93,190.25 534.15,188.74 535.37,187.46 536.59,186.40 537.80,185.53 539.02,184.82 540.24,184.26 541.46,183.82 542.68,183.47 543.90,183.21 545.11,183.02 546.33,182.87 547.55,182.76 548.77,182.68 549.99,182.63 551.21,182.59 552.42,182.56 553.64,182.54 554.86,182.53 556.08,182.52" fill="none" stroke="#34a853" stroke-width="1.8"/>
<text x="660" y="60" font-family="Arial" font-size="12" fill="#34a853">N=4</text>
<polyline points="70.00,182.52 71.12,182.53 72.24,182.54 73.36,182.55 74.47,182.58 75.59,182.61 76.71,182.65 77.83,182.71 78.95,182.79 80.07,182.90 81.19,183.05 82.30,183.23 83.42,183.48 84.54,183.79 85.66,184.19 86.78,184.68 87.90,185.29 89.02,186.03 90.13,186.93 91.25,188.00 92.37,189.26 93.49,190.72 94.61,192.40 95.73,194.31 96.84,196.44 97.96,198.80 99.08,201.38 100.20,204.16 101.32,207.11 102.44,210.20 103.56,213.41 104.67,216.67 105.79,219.96 106.91,223.22 108.03,226.41 109.15,229.48 110.27,232.40 111.39,235.13 112.50,237.64 113.62,239.93 114.74,241.98 115.86,243.79 116.98,245.37 118.10,246.74 119.22,247.90 120.33,248.89 121.45,249.71 122.57,250.40 123.69,250.97 124.81,251.44 125.93,251.82 127.05,252.13 128.16,252.38 129.28,252.57 130.40,252.71 131.52,252.81 132.64,252.88 133.76,252.92 134.87,252.93 135.99,252.93 137.11,252.93 138.23,252.92 139.35,252.91 140.47,252.90 141.59,252.90 142.70,252.89 143.82,252.88 144.94,252.85 146.06,252.81 147.18,252.73 148.30,252.60 149.42,252.42 150.53,252.17 151.65,251.84 152.77,251.40 153.89,250.84 155.01,250.14 156.13,249.26 157.25,248.19 158.36,246.88 159.48,245.29 160.60,243.40 161.72,241.15 162.84,238.50 163.96,235.43 165.08,231.91 166.19,227.92 167.31,223.45 168.43,218.52 169.55,213.14 170.67,207.35 171.79,201.21 172.90,194.78 174.02,188.12 175.14,181.33 176.26,174.47 177.38,167.63 178.50,160.88 179.62,154.28 180.73,147.89 181.85,141.74 182.97,135.85 184.09,130.23 185.21,124.88 186.33,119.77 187.45,114.89 188.56,110.20 189.68,105.67 190.80,101.27 191.92,96.97 193.04,92.77 194.16,88.64 195.28,84.60 196.39,80.66 197.51,76.82 198.63,73.12 199.75,69.59 200.87,66.24 201.99,63.11 203.11,60.22 204.22,57.58 205.34,55.20 206.46,53.07 207.58,51.20 208.70,49.56 209.82,48.15 210.93,46.94 212.05,45.91 213.17,45.04 214.29,44.31 215.41,43.72 216.53,43.25 217.65,42.89 218.76,42.63 219.88,42.47 221.00,42.42 222.12,42.46 223.24,42.60 224.36,42.84 225.48,43.19 226.59,43.65 227.71,44.22 228.83,44.93 229.95,45.78 231.07,46.78 232.19,47.97 233.31,49.36 234.42,50.96 235.54,52.80 236.66,54.89 237.78,57.24 238.90,59.84 240.02,62.70 241.14,65.80 242.25,69.12 243.37,72.63 244.49,76.30 245.61,80.12 246.73,84.06 247.85,88.09 248.96,92.20 250.08,96.39 251.20,100.68 252.32,105.07 253.44,109.58 254.56,114.25 255.68,119.12 256.79,124.20 257.91,129.54 259.03,135.15 260.15,141.04 261.27,147.21 262.39,153.64 263.51,160.31 264.62,167.17 265.74,174.17 266.86,181.25 267.98,188.34 269.10,195.38 270.22,202.29 271.34,209.03 272.45,215.56 273.57,221.82 274.69,227.81 275.81,233.52 276.93,238.95 278.05,244.12 279.17,249.06 280.28,253.80 281.40,258.36 282.52,262.79 283.64,267.11 284.76,271.34 285.88,275.48 286.99,279.54 288.11,283.51 289.23,287.37 290.35,291.10 291.47,294.67 292.59,298.06 293.71,301.24 294.82,304.18 295.94,306.88 297.06,309.32 298.18,311.50 299.30,313.42 300.42,315.11 301.54,316.57 302.65,317.83 303.77,318.89 304.89,319.80 306.01,320.55 307.13,321.17 308.25,321.67 309.37,322.05 310.48,322.33 311.60,322.51 312.72,322.59 313.84,322.56 314.96,322.44 316.08,322.22 317.20,321.90 318.31,321.47 319.43,320.92 320.55,320.24 321.67,319.43 322.79,318.45 323.91,317.31 325.03,315.97 326.14,314.41 327.26,312.62 328.38,310.59 329.50,308.30 330.62,305.75 331.74,302.94 332.85,299.89 333.97,296.62 335.09,293.15 336.21,289.51 337.33,285.72 338.45,281.81 339.57,277.80 340.68,273.70 341.80,269.52 342.92,265.26 344.04,260.90 345.16,256.41 346.28,251.78 347.40,246.96 348.51,241.92 349.63,236.64 350.75,231.09 351.87,225.26 352.99,219.15 354.11,212.77 355.23,206.15 356.34,199.33 357.46,192.35 358.58,185.29 359.70,178.19 360.82,171.14 361.94,164.19 363.06,157.41 364.17,150.84 365.29,144.51 366.41,138.46 367.53,132.70 368.65,127.21 369.77,121.98 370.88,117.00 372.00,112.22 373.12,107.62 374.24,103.16 375.36,98.82 376.48,94.57 377.60,90.41 378.71,86.34 379.83,82.35 380.95,78.46 382.07,74.70 383.19,71.09 384.31,67.66 385.43,64.44 386.54,61.44 387.66,58.69 388.78,56.19 389.90,53.96 391.02,51.98 392.14,50.24 393.26,48.73 394.37,47.44 395.49,46.33 396.61,45.39 397.73,44.61 398.85,43.96 399.97,43.44 401.09,43.03 402.20,42.73 403.32,42.53 404.44,42.43 405.56,42.43 406.68,42.53 407.80,42.73 408.91,43.03 410.03,43.44 411.15,43.96 412.27,44.61 413.39,45.39 414.51,46.33 415.63,47.44 416.74,48.73 417.86,50.24 418.98,51.98 420.10,53.96 421.22,56.19 422.34,58.69 423.46,61.44 424.57,64.44 425.69,67.66 426.81,71.09 427.93,74.70 429.05,78.46 430.17,82.35 431.29,86.34 432.40,90.41 433.52,94.57 434.64,98.82 435.76,103.16 436.88,107.62 438.00,112.22 439.12,117.00 440.23,121.98 441.35,127.21 442.47,132.70 443.59,138.46 444.71,144.51 445.83,150.84 446.94,157.41 448.06,164.19 449.18,171.14 450.30,178.19 451.42,185.29 452.54,192.35 453.66,199.33 454.77,206.15 455.89,212.77 457.01,219.15 458.13,225.26 459.25,231.09 460.37,236.64 461.49,241.92 462.60,246.96 463.72,251.78 464.84,256.41 465.96,260.90 467.08,265.26 468.20,269.52 469.32,273.70 470.43,277.80 471.55,281.81 472.67,285.72 473.79,289.51 474.91,293.15 476.03,296.62 477.15,299.89 478.26,302.94 479.38,305.75 480.50,308.30 481.62,310.59 482.74,312.62 483.86,314.41 484.97,315.97 486.09,317.31 487.21,318.45 488.33,319.43 489.45,320.24 490.57,320.92 491.69,321.47 492.80,321.90 493.92,322.22 495.04,322.44 496.16,322.56 497.28,322.59 498.40,322.51 499.52,322.33 500.63,322.05 501.75,321.67 502.87,321.17 503.99,320.55 505.11,319.80 506.23,318.89 507.35,317.83 508.46,316.57 509.58,315.11 510.70,313.42 511.82,311.50 512.94,309.32 514.06,306.88 515.18,304.18 516.29,301.24 517.41,298.06 518.53,294.67 519.65,291.10 520.77,287.37 521.89,283.51 523.01,279.54 524.12,275.48 525.24,271.34 526.36,267.11 527.48,262.79 528.60,258.36 529.72,253.80 530.83,249.06 531.95,244.12 533.07,238.95 534.19,233.52 535.31,227.81 536.43,221.82 537.55,215.56 538.66,209.03 539.78,202.29 540.90,195.38 542.02,188.34 543.14,181.25 544.26,174.17 545.38,167.17 546.49,160.31 547.61,153.64 548.73,147.21 549.85,141.04 550.97,135.15 552.09,129.54 553.21,124.20 554.32,119.12 555.44,114.25 556.56,109.58 557.68,105.07 558.80,100.68 559.92,96.39 561.04,92.20 562.15,88.09 563.27,84.06 564.39,80.12 565.51,76.30 566.63,72.63 567.75,69.12 568.86,65.80 569.98,62.70 571.10,59.84 572.22,57.24 573.34,54.89 574.46,52.80 575.58,50.96 576.69,49.36 577.81,47.97 578.93,46.78 580.05,45.78 581.17,44.93 582.29,44.22 583.41,43.65 584.52,43.19 585.64,42.84 586.76,42.60 587.88,42.46 589.00,42.42 590.12,42.47 591.24,42.63 592.35,42.89 593.47,43.25 594.59,43.72 595.71,44.31 596.83,45.04 597.95,45.91 599.07,46.94 600.18,48.15 601.30,49.56 602.42,51.20 603.54,53.07 604.66,55.20 605.78,57.58 606.89,60.22 608.01,63.11 609.13,66.24 610.25,69.59 611.37,73.12 612.49,76.82 613.61,80.66 614.72,84.60 615.84,88.64 616.96,92.77 618.08,96.97 619.20,101.27 620.32,105.67 621.44,110.20 622.55,114.89 623.67,119.77 624.79,124.88 625.91,130.23 627.03,135.85 628.15,141.74 629.27,147.89 630.38,154.28 631.50,160.88 632.62,167.63 633.74,174.47 634.86,181.33 635.98,188.12 637.10,194.78 638.21,201.21 639.33,207.35 640.45,213.14 641.57,218.52 642.69,223.45 643.81,227.92 644.92,231.91 646.04,235.43 647.16,238.50 648.28,241.15 649.40,243.40 650.52,245.29 651.64,246.88 652.75,248.19 653.87,249.26 654.99,250.14 656.11,250.84 657.23,251.40 658.35,251.84 659.47,252.17 660.58,252.42 661.70,252.60 662.82,252.73 663.94,252.81 665.06,252.85 666.18,252.88 667.30,252.89 668.41,252.90 669.53,252.90 670.65,252.91 671.77,252.92 672.89,252.93 674.01,252.93 675.13,252.93 676.24,252.92 677.36,252.88 678.48,252.81 679.60,252.71 680.72,252.57 681.84,252.38 682.95,252.13 684.07,251.82 685.19,251.44 686.31,250.97 687.43,250.40 688.55,249.71 689.67,248.89 690.78,247.90 691.90,246.74 693.02,245.37 694.14,243.79 695.26,241.98 696.38,239.93 697.50,237.64 698.61,235.13 699.73,232.40 700.85,229.48 701.97,226.41 703.09,223.22 704.21,219.96 705.33,216.67 706.44,213.41 707.56,210.20 708.68,207.11 709.80,204.16 710.92,201.38 712.04,198.80 713.16,196.44 714.27,194.31 715.39,192.40 716.51,190.72 717.63,189.26 718.75,188.00 719.87,186.93 720.98,186.03 722.10,185.29 723.22,184.68 724.34,184.19 725.46,183.79 726.58,183.48 727.70,183.23 728.81,183.05 729.93,182.90 731.05,182.79 732.17,182.71 733.29,182.65 734.41,182.61 735.53,182.58 736.64,182.55 737.76,182.54 738.88,182.53 740.00,182.52" fill="none" stroke="#b26a00" stroke-width="1.8"/>
<text x="660" y="78" font-family="Arial" font-size="12" fill="#b26a00">N=6</text>
</svg>