<svg xmlns="http://www.w3.org/2000/svg" width="820" height="460" viewBox="0 0 820 460">
<rect width="100%" height="100%" fill="white"/>
<text x="410.0" y="20" text-anchor="middle" font-family="Arial" font-size="15">RC-load output energy vs load resistance</text>
<line x1="85" y1="400" x2="795" y2="400" stroke="#333"/>
<line x1="85" y1="30" x2="85" y2="400" stroke="#333"/>
<text x="410.0" y="445" text-anchor="middle" font-family="Arial" font-size="12">Load resistance (Ohm)</text>
<text x="18" y="230.0" text-anchor="middle" transform="rotate(-90 18 230.0)" font-family="Arial" font-size="12">Output energy per scan (J)</text>
<line x1="85.0" y1="30" x2="85.0" y2="400" stroke="#eee"/>
<text x="85.0" y="422" text-anchor="middle" font-family="Arial" font-size="10">1e3</text>
<line x1="149.5" y1="30" x2="149.5" y2="400" stroke="#eee"/>
<text x="149.5" y="422" text-anchor="middle" font-family="Arial" font-size="10">1e4</text>
<line x1="214.1" y1="30" x2="214.1" y2="400" stroke="#eee"/>
<text x="214.1" y="422" text-anchor="middle" font-family="Arial" font-size="10">1e5</text>
<line x1="278.6" y1="30" x2="278.6" y2="400" stroke="#eee"/>
<text x="278.6" y="422" text-anchor="middle" font-family="Arial" font-size="10">1e6</text>
<line x1="343.2" y1="30" x2="343.2" y2="400" stroke="#eee"/>
<text x="343.2" y="422" text-anchor="middle" font-family="Arial" font-size="10">1e7</text>
<line x1="407.7" y1="30" x2="407.7" y2="400" stroke="#eee"/>
<text x="407.7" y="422" text-anchor="middle" font-family="Arial" font-size="10">1e8</text>
<line x1="472.3" y1="30" x2="472.3" y2="400" stroke="#eee"/>
<text x="472.3" y="422" text-anchor="middle" font-family="Arial" font-size="10">1e9</text>
<line x1="536.8" y1="30" x2="536.8" y2="400" stroke="#eee"/>
<text x="536.8" y="422" text-anchor="middle" font-family="Arial" font-size="10">1e10</text>
<line x1="601.4" y1="30" x2="601.4" y2="400" stroke="#eee"/>
<text x="601.4" y="422" text-anchor="middle" font-family="Arial" font-size="10">1e11</text>
<line x1="665.9" y1="30" x2="665.9" y2="400" stroke="#eee"/>
<text x="665.9" y="422" text-anchor="middle" font-family="Arial" font-size="10">1e12</text>
<line x1="730.5" y1="30" x2="730.5" y2="400" stroke="#eee"/>
<text x="730.5" y="422" text-anchor="middle" font-family="Arial" font-size="10">1e13</text>
<line x1="795.0" y1="30" x2="795.0" y2="400" stroke="#eee"/>
<text x="795.0" y="422" text-anchor="middle" font-family="Arial" font-size="10">1e14</text>
<line x1="85" y1="400.0" x2="795" y2="400.0" stroke="#eee"/>
<text x="77" y="404.0" text-anchor="end" font-family="Arial" font-size="10">1e-10</text>
<line x1="85" y1="353.8" x2="795" y2="353.8" stroke="#eee"/>
<text x="77" y="357.8" text-anchor="end" font-family="Arial" font-size="10">1e-9</text>
<line x1="85" y1="307.5" x2="795" y2="307.5" stroke="#eee"/>
<text x="77" y="311.5" text-anchor="end" font-family="Arial" font-size="10">1e-8</text>
<line x1="85" y1="261.2" x2="795" y2="261.2" stroke="#eee"/>
<text x="77" y="265.2" text-anchor="end" font-family="Arial" font-size="10">1e-7</text>
<line x1="85" y1="215.0" x2="795" y2="215.0" stroke="#eee"/>
<text x="77" y="219.0" text-anchor="end" font-family="Arial" font-size="10">1e-6</text>
<line x1="85" y1="168.8" x2="795" y2="168.8" stroke="#eee"/>
<text x="77" y="172.8" text-anchor="end" font-family="Arial" font-size="10">1e-5</text>
<line x1="85" y1="122.5" x2="795" y2="122.5" stroke="#eee"/>
<text x="77" y="126.5" text-anchor="end" font-family="Arial" font-size="10">1e-4</text>
<line x1="85" y1="76.2" x2="795" y2="76.2" stroke="#eee"/>
<text x="77" y="80.2" text-anchor="end" font-family="Arial" font-size="10">1e-3</text>
<line x1="85" y1="30.0" x2="795" y2="30.0" stroke="#eee"/>
<text x="77" y="34.0" text-anchor="end" font-family="Arial" font-size="10">1e-2</text>
<polyline points="85.00,383.30 88.23,380.99 91.45,378.68 94.68,376.37 97.91,374.05 101.14,371.74 104.36,369.43 107.59,367.12 110.82,364.80 114.05,362.49 117.27,360.18 120.50,357.87 123.73,355.55 126.95,353.24 130.18,350.93 133.41,348.62 136.64,346.30 139.86,343.99 143.09,341.68 146.32,339.37 149.55,337.05 152.77,334.74 156.00,332.43 159.23,330.12 162.45,327.80 165.68,325.49 168.91,323.18 172.14,320.87 175.36,318.55 178.59,316.24 181.82,313.93 185.05,311.62 188.27,309.30 191.50,306.99 194.73,304.68 197.95,302.37 201.18,300.05 204.41,297.74 207.64,295.43 210.86,293.12 214.09,290.80 217.32,288.49 220.55,286.18 223.77,283.87 227.00,281.55 230.23,279.24 233.45,276.93 236.68,274.62 239.91,272.30 243.14,269.99 246.36,267.68 249.59,265.37 252.82,263.05 256.05,260.74 259.27,258.43 262.50,256.12 265.73,253.80 268.95,251.49 272.18,249.18 275.41,246.87 278.64,244.55 281.86,242.24 285.09,239.93 288.32,237.62 291.55,235.30 294.77,232.99 298.00,230.68 301.23,228.37 304.45,226.05 307.68,223.74 310.91,221.43 314.14,219.12 317.36,216.80 320.59,214.49 323.82,212.18 327.05,209.87 330.27,207.55 333.50,205.24 336.73,202.93 339.95,200.62 343.18,198.30 346.41,195.99 349.64,193.68 352.86,191.37 356.09,189.05 359.32,186.74 362.55,184.43 365.77,182.12 369.00,179.81 372.23,177.49 375.45,175.18 378.68,172.87 381.91,170.56 385.14,168.24 388.36,165.93 391.59,163.62 394.82,161.31 398.05,158.99 401.27,156.68 404.50,154.37 407.73,152.06 410.95,149.75 414.18,147.43 417.41,145.12 420.64,142.81 423.86,140.50 427.09,138.19 430.32,135.87 433.55,133.56 436.77,131.25 440.00,128.94 443.23,126.63 446.45,124.32 449.68,122.01 452.91,119.70 456.14,117.39 459.36,115.08 462.59,112.78 465.82,110.47 469.05,108.17 472.27,105.86 475.50,103.56 478.73,101.26 481.95,98.96 485.18,96.67 488.41,94.38 491.64,92.10 494.86,89.82 498.09,87.56 501.32,85.30 504.55,83.05 507.77,80.82 511.00,78.61 514.23,76.42 517.45,74.26 520.68,72.13 523.91,70.04 527.14,68.00 530.36,66.03 533.59,64.12 536.82,62.29 540.05,60.57 543.27,58.96 546.50,57.48 549.73,56.14 552.95,54.97 556.18,53.99 559.41,53.20 562.64,52.61 565.86,52.24 569.09,52.09 572.32,52.15 575.55,52.43 578.77,52.91 582.00,53.58 585.23,54.43 588.45,55.45 591.68,56.61 594.91,57.91 598.14,59.33 601.36,60.87 604.59,62.50 607.82,64.23 611.05,66.04 614.27,67.92 617.50,69.86 620.73,71.87 623.95,73.92 627.18,76.02 630.41,78.15 633.64,80.32 636.86,82.51 640.09,84.72 643.32,86.95 646.55,89.19 649.77,91.45 653.00,93.72 656.23,96.00 659.45,98.28 662.68,100.57 665.91,102.86 669.14,105.16 672.36,107.46 675.59,109.76 678.82,112.07 682.05,114.37 685.27,116.68 688.50,118.99 691.73,121.30 694.95,123.61 698.18,125.92 701.41,128.23 704.64,130.54 707.86,132.85 711.09,135.16 714.32,137.47 717.55,139.79 720.77,142.10 724.00,144.41 727.23,146.72 730.45,149.03 733.68,151.35 736.91,153.66 740.14,155.97 743.36,158.28 746.59,160.59 749.82,162.91 753.05,165.22 756.27,167.53 759.50,169.84 762.73,172.16 765.95,174.47 769.18,176.78 772.41,179.09 775.64,181.41 778.86,183.72 782.09,186.03 785.32,188.34 788.55,190.66 791.77,192.97 795.00,195.28" fill="none" stroke="#2f6f9f" stroke-width="2.2"/>
<text x="710" y="54" font-family="Arial" font-size="12" fill="#2f6f9f">N=2</text>
<polyline points="85.00,366.55 88.23,364.23 91.45,361.92 94.68,359.61 97.91,357.30 101.14,354.98 104.36,352.67 107.59,350.36 110.82,348.05 114.05,345.73 117.27,343.42 120.50,341.11 123.73,338.80 126.95,336.48 130.18,334.17 133.41,331.86 136.64,329.55 139.86,327.23 143.09,324.92 146.32,322.61 149.55,320.30 152.77,317.98 156.00,315.67 159.23,313.36 162.45,311.05 165.68,308.73 168.91,306.42 172.14,304.11 175.36,301.80 178.59,299.48 181.82,297.17 185.05,294.86 188.27,292.55 191.50,290.23 194.73,287.92 197.95,285.61 201.18,283.30 204.41,280.98 207.64,278.67 210.86,276.36 214.09,274.05 217.32,271.73 220.55,269.42 223.77,267.11 227.00,264.80 230.23,262.48 233.45,260.17 236.68,257.86 239.91,255.55 243.14,253.23 246.36,250.92 249.59,248.61 252.82,246.30 256.05,243.98 259.27,241.67 262.50,239.36 265.73,237.05 268.95,234.73 272.18,232.42 275.41,230.11 278.64,227.80 281.86,225.48 285.09,223.17 288.32,220.86 291.55,218.55 294.77,216.23 298.00,213.92 301.23,211.61 304.45,209.30 307.68,206.98 310.91,204.67 314.14,202.36 317.36,200.05 320.59,197.73 323.82,195.42 327.05,193.11 330.27,190.80 333.50,188.48 336.73,186.17 339.95,183.86 343.18,181.55 346.41,179.23 349.64,176.92 352.86,174.61 356.09,172.30 359.32,169.99 362.55,167.67 365.77,165.36 369.00,163.05 372.23,160.74 375.45,158.42 378.68,156.11 381.91,153.80 385.14,151.49 388.36,149.18 391.59,146.86 394.82,144.55 398.05,142.24 401.27,139.93 404.50,137.62 407.73,135.30 410.95,132.99 414.18,130.68 417.41,128.37 420.64,126.06 423.86,123.75 427.09,121.44 430.32,119.13 433.55,116.82 436.77,114.51 440.00,112.21 443.23,109.90 446.45,107.59 449.68,105.29 452.91,102.99 456.14,100.69 459.36,98.39 462.59,96.09 465.82,93.80 469.05,91.52 472.27,89.24 475.50,86.97 478.73,84.70 481.95,82.45 485.18,80.21 488.41,77.99 491.64,75.79 494.86,73.61 498.09,71.47 501.32,69.36 504.55,67.30 507.77,65.29 511.00,63.35 514.23,61.50 517.45,59.74 520.68,58.09 523.91,56.58 527.14,55.22 530.36,54.03 533.59,53.03 536.82,52.25 540.05,51.69 543.27,51.36 546.50,51.28 549.73,51.44 552.95,51.84 556.18,52.47 559.41,53.31 562.64,54.35 565.86,55.56 569.09,56.92 572.32,58.42 575.55,60.04 578.77,61.75 582.00,63.54 585.23,65.41 588.45,67.33 591.68,69.31 594.91,71.33 598.14,73.39 601.36,75.49 604.59,77.61 607.82,79.76 611.05,81.94 614.27,84.13 617.50,86.35 620.73,88.58 623.95,90.82 627.18,93.08 630.41,95.34 633.64,97.62 636.86,99.90 640.09,102.18 643.32,104.48 646.55,106.77 649.77,109.07 653.00,111.37 656.23,113.67 659.45,115.98 662.68,118.28 665.91,120.59 669.14,122.90 672.36,125.21 675.59,127.52 678.82,129.83 682.05,132.14 685.27,134.45 688.50,136.76 691.73,139.07 694.95,141.38 698.18,143.69 701.41,146.01 704.64,148.32 707.86,150.63 711.09,152.94 714.32,155.25 717.55,157.57 720.77,159.88 724.00,162.19 727.23,164.50 730.45,166.82 733.68,169.13 736.91,171.44 740.14,173.75 743.36,176.06 746.59,178.38 749.82,180.69 753.05,183.00 756.27,185.31 759.50,187.63 762.73,189.94 765.95,192.25 769.18,194.56 772.41,196.88 775.64,199.19 778.86,201.50 782.09,203.81 785.32,206.13 788.55,208.44 791.77,210.75 795.00,213.06" fill="none" stroke="#34a853" stroke-width="2.2"/>
<text x="710" y="74" font-family="Arial" font-size="12" fill="#34a853">N=4</text>
<polyline points="85.00,357.53 88.23,355.22 91.45,352.91 94.68,350.60 97.91,348.28 101.14,345.97 104.36,343.66 107.59,341.35 110.82,339.03 114.05,336.72 117.27,334.41 120.50,332.10 123.73,329.78 126.95,327.47 130.18,325.16 133.41,322.85 136.64,320.53 139.86,318.22 143.09,315.91 146.32,313.60 149.55,311.28 152.77,308.97 156.00,306.66 159.23,304.35 162.45,302.03 165.68,299.72 168.91,297.41 172.14,295.10 175.36,292.78 178.59,290.47 181.82,288.16 185.05,285.85 188.27,283.53 191.50,281.22 194.73,278.91 197.95,276.60 201.18,274.28 204.41,271.97 207.64,269.66 210.86,267.35 214.09,265.03 217.32,262.72 220.55,260.41 223.77,258.10 227.00,255.78 230.23,253.47 233.45,251.16 236.68,248.85 239.91,246.53 243.14,244.22 246.36,241.91 249.59,239.60 252.82,237.28 256.05,234.97 259.27,232.66 262.50,230.35 265.73,228.03 268.95,225.72 272.18,223.41 275.41,221.10 278.64,218.78 281.86,216.47 285.09,214.16 288.32,211.85 291.55,209.53 294.77,207.22 298.00,204.91 301.23,202.60 304.45,200.28 307.68,197.97 310.91,195.66 314.14,193.35 317.36,191.03 320.59,188.72 323.82,186.41 327.05,184.10 330.27,181.79 333.50,179.47 336.73,177.16 339.95,174.85 343.18,172.54 346.41,170.22 349.64,167.91 352.86,165.60 356.09,163.29 359.32,160.97 362.55,158.66 365.77,156.35 369.00,154.04 372.23,151.72 375.45,149.41 378.68,147.10 381.91,144.79 385.14,142.48 388.36,140.16 391.59,137.85 394.82,135.54 398.05,133.23 401.27,130.92 404.50,128.61 407.73,126.30 410.95,123.99 414.18,121.68 417.41,119.37 420.64,117.06 423.86,114.75 427.09,112.44 430.32,110.13 433.55,107.83 436.77,105.52 440.00,103.22 443.23,100.92 446.45,98.62 449.68,96.32 452.91,94.03 456.14,91.74 459.36,89.46 462.59,87.18 465.82,84.91 469.05,82.66 472.27,80.41 475.50,78.18 478.73,75.97 481.95,73.78 485.18,71.63 488.41,69.50 491.64,67.43 494.86,65.40 498.09,63.44 501.32,61.56 504.55,59.77 507.77,58.09 511.00,56.53 514.23,55.13 517.45,53.90 520.68,52.86 523.91,52.03 527.14,51.43 530.36,51.06 533.59,50.95 536.82,51.08 540.05,51.47 543.27,52.08 546.50,52.92 549.73,53.96 552.95,55.19 556.18,56.57 559.41,58.10 562.64,59.75 565.86,61.50 569.09,63.34 572.32,65.25 575.55,67.22 578.77,69.25 582.00,71.31 585.23,73.41 588.45,75.54 591.68,77.69 594.91,79.86 598.14,82.06 601.36,84.27 604.59,86.49 607.82,88.73 611.05,90.98 614.27,93.24 617.50,95.50 620.73,97.78 623.95,100.06 627.18,102.35 630.41,104.64 633.64,106.93 636.86,109.23 640.09,111.53 643.32,113.83 646.55,116.14 649.77,118.44 653.00,120.75 656.23,123.06 659.45,125.37 662.68,127.68 665.91,129.99 669.14,132.30 672.36,134.61 675.59,136.92 678.82,139.23 682.05,141.54 685.27,143.85 688.50,146.16 691.73,148.48 694.95,150.79 698.18,153.10 701.41,155.41 704.64,157.72 707.86,160.04 711.09,162.35 714.32,164.66 717.55,166.97 720.77,169.29 724.00,171.60 727.23,173.91 730.45,176.22 733.68,178.54 736.91,180.85 740.14,183.16 743.36,185.47 746.59,187.79 749.82,190.10 753.05,192.41 756.27,194.72 759.50,197.04 762.73,199.35 765.95,201.66 769.18,203.97 772.41,206.28 775.64,208.60 778.86,210.91 782.09,213.22 785.32,215.53 788.55,217.85 791.77,220.16 795.00,222.47" fill="none" stroke="#b26a00" stroke-width="2.2"/>
<text x="710" y="94" font-family="Arial" font-size="12" fill="#b26a00">N=6</text>
</svg>