<svg xmlns="http://www.w3.org/2000/svg" width="760" height="400" viewBox="0 0 760 400">
<rect width="100%" height="100%" fill="white"/>
<text x="380.0" y="18" text-anchor="middle" font-family="Arial" font-size="14">Energy (J)</text>
<line x1="70" y1="345" x2="740" y2="345" stroke="#333"/>
<line x1="70" y1="20" x2="70" y2="345" stroke="#333"/>
<text x="380.0" y="388" text-anchor="middle" font-family="Arial" font-size="12">Time (s)</text>
<text x="16" y="200.0" text-anchor="middle" transform="rotate(-90 16 200.0)" font-family="Arial" font-size="12">Energy (J)</text>
<line x1="70" y1="20.0" x2="740" y2="20.0" stroke="#ddd"/>
<text x="62" y="24.0" text-anchor="end" font-family="Arial" font-size="10">8.95e-05</text>
<line x1="70" y1="101.2" x2="740" y2="101.2" stroke="#ddd"/>
<text x="62" y="105.2" text-anchor="end" font-family="Arial" font-size="10">6.55e-05</text>
<line x1="70" y1="182.5" x2="740" y2="182.5" stroke="#ddd"/>
<text x="62" y="186.5" text-anchor="end" font-family="Arial" font-size="10">4.14e-05</text>
<line x1="70" y1="263.8" x2="740" y2="263.8" stroke="#ddd"/>
<text x="62" y="267.8" text-anchor="end" font-family="Arial" font-size="10">1.74e-05</text>
<line x1="70" y1="345.0" x2="740" y2="345.0" stroke="#ddd"/>
<text x="62" y="349.0" text-anchor="end" font-family="Arial" font-size="10">-6.63e-06</text>
<line x1="70.0" y1="345" x2="70.0" y2="350" stroke="#333"/>
<text x="70.0" y="365" text-anchor="middle" font-family="Arial" font-size="10">0.00</text>
<line x1="237.5" y1="345" x2="237.5" y2="350" stroke="#333"/>
<text x="237.5" y="365" text-anchor="middle" font-family="Arial" font-size="10">0.38</text>
<line x1="405.0" y1="345" x2="405.0" y2="350" stroke="#333"/>
<text x="405.0" y="365" text-anchor="middle" font-family="Arial" font-size="10">0.77</text>
<line x1="572.5" y1="345" x2="572.5" y2="350" stroke="#333"/>
<text x="572.5" y="365" text-anchor="middle" font-family="Arial" font-size="10">1.15</text>
<line x1="740.0" y1="345" x2="740.0" y2="350" stroke="#333"/>
<text x="740.0" y="365" text-anchor="middle" font-family="Arial" font-size="10">1.53</text>
<polyline points="70.00,322.59 71.01,322.59 72.01,322.59 73.02,322.59 74.03,322.59 75.04,322.59 76.04,322.59 77.05,322.59 78.06,322.59 79.06,322.59 80.07,322.59 81.08,322.59 82.09,322.59 83.09,322.59 84.10,322.59 85.11,322.59 86.12,322.59 87.12,322.59 88.13,322.59 89.14,322.58 90.14,322.58 91.15,322.58 92.16,322.58 93.17,322.58 94.17,322.57 95.18,322.57 96.19,322.56 97.19,322.55 98.20,322.54 99.21,322.52 100.22,322.50 101.22,322.47 102.23,322.44 103.24,322.40 104.24,322.35 105.25,322.29 106.26,322.22 107.27,322.13 108.27,322.04 109.28,321.93 110.29,321.81 111.29,321.68 112.30,321.53 113.31,321.37 114.32,321.20 115.32,321.02 116.33,320.83 117.34,320.63 118.35,320.42 119.35,320.20 120.36,319.98 121.37,319.75 122.37,319.52 123.38,319.28 124.39,319.04 125.40,318.80 126.40,318.56 127.41,318.31 128.42,318.06 129.42,317.81 130.43,317.56 131.44,317.31 132.45,317.05 133.45,316.80 134.46,316.55 135.47,316.30 136.47,316.04 137.48,315.79 138.49,315.54 139.50,315.28 140.50,315.03 141.51,314.78 142.52,314.52 143.52,314.27 144.53,314.02 145.54,313.77 146.55,313.51 147.55,313.26 148.56,313.01 149.57,312.76 150.58,312.51 151.58,312.27 152.59,312.02 153.60,311.78 154.60,311.54 155.61,311.31 156.62,311.08 157.63,310.86 158.63,310.65 159.64,310.44 160.65,310.25 161.65,310.07 162.66,309.90 163.67,309.74 164.68,309.60 165.68,309.48 166.69,309.37 167.70,309.29 168.70,309.22 169.71,309.16 170.72,309.12 171.73,309.10 172.73,309.09 173.74,309.08 174.75,309.08 175.75,309.08 176.76,309.07 177.77,309.06 178.78,309.04 179.78,309.01 180.79,308.95 181.80,308.88 182.81,308.78 183.81,308.66 184.82,308.52 185.83,308.35 186.83,308.15 187.84,307.91 188.85,307.65 189.86,307.36 190.86,307.04 191.87,306.69 192.88,306.30 193.88,305.87 194.89,305.42 195.90,304.92 196.91,304.39 197.91,303.83 198.92,303.22 199.93,302.58 200.93,301.91 201.94,301.20 202.95,300.46 203.96,299.68 204.96,298.88 205.97,298.05 206.98,297.19 207.98,296.32 208.99,295.42 210.00,294.50 211.01,293.57 212.01,292.62 213.02,291.67 214.03,290.70 215.04,289.72 216.04,288.74 217.05,287.75 218.06,286.75 219.06,285.76 220.07,284.76 221.08,283.75 222.09,282.75 223.09,281.75 224.10,280.75 225.11,279.76 226.11,278.77 227.12,277.79 228.13,276.81 229.14,275.84 230.14,274.88 231.15,273.94 232.16,273.01 233.16,272.09 234.17,271.19 235.18,270.31 236.19,269.46 237.19,268.63 238.20,267.83 239.21,267.05 240.22,266.31 241.22,265.60 242.23,264.93 243.24,264.29 244.24,263.68 245.25,263.12 246.26,262.59 247.27,262.09 248.27,261.64 249.28,261.21 250.29,260.82 251.29,260.47 252.30,260.15 253.31,259.85 254.32,259.59 255.32,259.36 256.33,259.16 257.34,258.99 258.34,258.84 259.35,258.72 260.36,258.63 261.37,258.56 262.37,258.50 263.38,258.47 264.39,258.45 265.39,258.44 266.40,258.43 267.41,258.43 268.42,258.43 269.42,258.42 270.43,258.41 271.44,258.39 272.45,258.35 273.45,258.29 274.46,258.22 275.47,258.14 276.47,258.03 277.48,257.91 278.49,257.77 279.50,257.61 280.50,257.44 281.51,257.26 282.52,257.07 283.52,256.86 284.53,256.65 285.54,256.43 286.55,256.20 287.55,255.97 288.56,255.73 289.57,255.49 290.57,255.24 291.58,255.00 292.59,254.75 293.60,254.50 294.60,254.25 295.61,254.00 296.62,253.74 297.62,253.49 298.63,253.24 299.64,252.99 300.65,252.73 301.65,252.48 302.66,252.23 303.67,251.97 304.68,251.72 305.68,251.47 306.69,251.21 307.70,250.96 308.70,250.71 309.71,250.45 310.72,250.20 311.73,249.95 312.73,249.70 313.74,249.45 314.75,249.20 315.75,248.95 316.76,248.71 317.77,248.46 318.78,248.22 319.78,247.99 320.79,247.76 321.80,247.53 322.80,247.31 323.81,247.09 324.82,246.88 325.83,246.68 326.83,246.49 327.84,246.31 328.85,246.14 329.85,245.98 330.86,245.83 331.87,245.70 332.88,245.58 333.88,245.47 334.89,245.37 335.90,245.29 336.91,245.22 337.91,245.16 338.92,245.11 339.93,245.07 340.93,245.03 341.94,245.01 342.95,244.99 343.96,244.97 344.96,244.96 345.97,244.95 346.98,244.94 347.98,244.93 348.99,244.93 350.00,244.93 351.01,244.93 352.01,244.92 353.02,244.92 354.03,244.92 355.03,244.92 356.04,244.92 357.05,244.92 358.06,244.92 359.06,244.92 360.07,244.92 361.08,244.92 362.08,244.92 363.09,244.92 364.10,244.92 365.11,244.92 366.11,244.92 367.12,244.92 368.13,244.92 369.14,244.92 370.14,244.92 371.15,244.92 372.16,244.92" fill="none" stroke="#2f6f9f" stroke-width="1.8"/>
<text x="660" y="42" font-family="Arial" font-size="12" fill="#2f6f9f">N=2</text>
<polyline points="70.00,322.59 71.22,322.59 72.44,322.59 73.65,322.59 74.87,322.59 76.09,322.59 77.31,322.59 78.53,322.59 79.75,322.59 80.96,322.59 82.18,322.59 83.40,322.59 84.62,322.59 85.84,322.59 87.06,322.59 88.27,322.59 89.49,322.58 90.71,322.58 91.93,322.58 93.15,322.58 94.36,322.57 95.58,322.57 96.80,322.56 98.02,322.54 99.24,322.52 100.46,322.50 101.67,322.46 102.89,322.41 104.11,322.36 105.33,322.28 106.55,322.19 107.77,322.09 108.98,321.96 110.20,321.82 111.42,321.66 112.64,321.48 113.86,321.28 115.07,321.06 116.29,320.84 117.51,320.59 118.73,320.34 119.95,320.07 121.17,319.80 122.38,319.52 123.60,319.23 124.82,318.94 126.04,318.65 127.26,318.35 128.48,318.05 129.69,317.74 130.91,317.44 132.13,317.13 133.35,316.83 134.57,316.52 135.79,316.22 137.00,315.91 138.22,315.60 139.44,315.30 140.66,314.99 141.88,314.69 143.09,314.38 144.31,314.07 145.53,313.77 146.75,313.46 147.97,313.16 149.19,312.86 150.40,312.56 151.62,312.26 152.84,311.96 154.06,311.67 155.28,311.39 156.50,311.11 157.71,310.84 158.93,310.59 160.15,310.35 161.37,310.12 162.59,309.91 163.80,309.72 165.02,309.56 166.24,309.42 167.46,309.31 168.68,309.22 169.90,309.16 171.11,309.12 172.33,309.09 173.55,309.08 174.77,309.08 175.99,309.08 177.21,309.07 178.42,309.05 179.64,309.01 180.86,308.95 182.08,308.86 183.30,308.73 184.51,308.57 185.73,308.37 186.95,308.12 188.17,307.84 189.39,307.51 190.61,307.13 191.82,306.71 193.04,306.23 194.26,305.71 195.48,305.14 196.70,304.51 197.92,303.83 199.13,303.09 200.35,302.31 201.57,301.47 202.79,300.58 204.01,299.65 205.22,298.67 206.44,297.66 207.66,296.61 208.88,295.53 210.10,294.42 211.32,293.29 212.53,292.14 213.75,290.97 214.97,289.79 216.19,288.60 217.41,287.40 218.63,286.20 219.84,284.99 221.06,283.78 222.28,282.57 223.50,281.36 224.72,280.15 225.93,278.95 227.15,277.76 228.37,276.58 229.59,275.42 230.81,274.27 232.03,273.14 233.24,272.03 234.46,270.95 235.68,269.90 236.90,268.88 238.12,267.90 239.34,266.97 240.55,266.08 241.77,265.24 242.99,264.45 244.21,263.72 245.43,263.03 246.65,262.41 247.86,261.83 249.08,261.31 250.30,260.83 251.52,260.41 252.74,260.03 253.95,259.70 255.17,259.41 256.39,259.17 257.61,258.96 258.83,258.80 260.05,258.67 261.26,258.58 262.48,258.52 263.70,258.48 264.92,258.46 266.14,258.45 267.36,258.45 268.57,258.45 269.79,258.44 271.01,258.41 272.23,258.36 273.45,258.28 274.66,258.17 275.88,258.03 277.10,257.84 278.32,257.62 279.54,257.36 280.76,257.05 281.97,256.69 283.19,256.29 284.41,255.84 285.63,255.35 286.85,254.80 288.07,254.20 289.28,253.54 290.50,252.83 291.72,252.07 292.94,251.26 294.16,250.39 295.37,249.48 296.59,248.53 297.81,247.53 299.03,246.50 300.25,245.43 301.47,244.34 302.68,243.22 303.90,242.08 305.12,240.92 306.34,239.74 307.56,238.56 308.78,237.36 309.99,236.16 311.21,234.95 312.43,233.74 313.65,232.53 314.87,231.32 316.08,230.11 317.30,228.91 318.52,227.72 319.74,226.53 320.96,225.36 322.18,224.20 323.39,223.06 324.61,221.94 325.83,220.85 327.05,219.78 328.27,218.75 329.49,217.75 330.70,216.79 331.92,215.88 333.14,215.02 334.36,214.20 335.58,213.44 336.79,212.74 338.01,212.08 339.23,211.48 340.45,210.93 341.67,210.43 342.89,209.98 344.10,209.58 345.32,209.23 346.54,208.92 347.76,208.65 348.98,208.43 350.20,208.25 351.41,208.10 352.63,208.00 353.85,207.92 355.07,207.87 356.29,207.84 357.51,207.83 358.72,207.83 359.94,207.82 361.16,207.82 362.38,207.80 363.60,207.76 364.81,207.70 366.03,207.60 367.25,207.48 368.47,207.31 369.69,207.11 370.91,206.87 372.12,206.58 373.34,206.25 374.56,205.87 375.78,205.44 377.00,204.97 378.22,204.45 379.43,203.87 380.65,203.24 381.87,202.56 383.09,201.82 384.31,201.04 385.52,200.20 386.74,199.31 387.96,198.37 389.18,197.40 390.40,196.38 391.62,195.33 392.83,194.25 394.05,193.14 395.27,192.01 396.49,190.86 397.71,189.69 398.93,188.51 400.14,187.32 401.36,186.12 402.58,184.92 403.80,183.71 405.02,182.50 406.23,181.29 407.45,180.08 408.67,178.87 409.89,177.67 411.11,176.48 412.33,175.30 413.54,174.14 414.76,172.99 415.98,171.86 417.20,170.75 418.42,169.67 419.64,168.62 420.85,167.60 422.07,166.63 423.29,165.69 424.51,164.81 425.73,163.97 426.94,163.18 428.16,162.45 429.38,161.77 430.60,161.14 431.82,160.57 433.04,160.04 434.25,159.57 435.47,159.15 436.69,158.77 437.91,158.44 439.13,158.15 440.35,157.91 441.56,157.71 442.78,157.54 444.00,157.42 445.22,157.32 446.44,157.26 447.65,157.22 448.87,157.20 450.09,157.20 451.31,157.19 452.53,157.19 453.75,157.18 454.96,157.16 456.18,157.12 457.40,157.06 458.62,156.97 459.84,156.85 461.06,156.72 462.27,156.55 463.49,156.36 464.71,156.16 465.93,155.93 467.15,155.69 468.37,155.43 469.58,155.16 470.80,154.89 472.02,154.60 473.24,154.31 474.46,154.02 475.67,153.72 476.89,153.42 478.11,153.12 479.33,152.81 480.55,152.51 481.77,152.20 482.98,151.90 484.20,151.59 485.42,151.28 486.64,150.98 487.86,150.67 489.08,150.37 490.29,150.06 491.51,149.75 492.73,149.45 493.95,149.14 495.17,148.84 496.38,148.53 497.60,148.23 498.82,147.93 500.04,147.63 501.26,147.33 502.48,147.04 503.69,146.76 504.91,146.48 506.13,146.20 507.35,145.94 508.57,145.68 509.79,145.44 511.00,145.21 512.22,145.00 513.44,144.80 514.66,144.62 515.88,144.46 517.09,144.31 518.31,144.19 519.53,144.08 520.75,143.99 521.97,143.92 523.19,143.86 524.40,143.82 525.62,143.78 526.84,143.75 528.06,143.73 529.28,143.72 530.50,143.71 531.71,143.70 532.93,143.70 534.15,143.69 535.37,143.69 536.59,143.69 537.80,143.69 539.02,143.69 540.24,143.69 541.46,143.69 542.68,143.69 543.90,143.69 545.11,143.69 546.33,143.69 547.55,143.69 548.77,143.69 549.99,143.69 551.21,143.69 552.42,143.69 553.64,143.69 554.86,143.69 556.08,143.69" fill="none" stroke="#34a853" stroke-width="1.8"/>
<text x="660" y="60" font-family="Arial" font-size="12" fill="#34a853">N=4</text>
<polyline points="70.00,322.59 71.12,322.59 72.24,322.59 73.36,322.59 74.47,322.59 75.59,322.59 76.71,322.59 77.83,322.59 78.95,322.59 80.07,322.59 81.19,322.59 82.30,322.59 83.42,322.59 84.54,322.59 85.66,322.59 86.78,322.59 87.90,322.59 89.02,322.58 90.13,322.58 91.25,322.58 92.37,322.58 93.49,322.58 94.61,322.57 95.73,322.57 96.84,322.56 97.96,322.54 99.08,322.53 100.20,322.50 101.32,322.47 102.44,322.43 103.56,322.38 104.67,322.32 105.79,322.25 106.91,322.16 108.03,322.06 109.15,321.95 110.27,321.81 111.39,321.66 112.50,321.50 113.62,321.32 114.74,321.13 115.86,320.92 116.98,320.70 118.10,320.47 119.22,320.23 120.33,319.99 121.45,319.73 122.57,319.48 123.69,319.21 124.81,318.94 125.93,318.67 127.05,318.40 128.16,318.12 129.28,317.85 130.40,317.57 131.52,317.29 132.64,317.01 133.76,316.73 134.87,316.44 135.99,316.16 137.11,315.88 138.23,315.60 139.35,315.32 140.47,315.04 141.59,314.76 142.70,314.48 143.82,314.20 144.94,313.92 146.06,313.64 147.18,313.36 148.30,313.08 149.42,312.80 150.53,312.52 151.65,312.25 152.77,311.98 153.89,311.71 155.01,311.45 156.13,311.19 157.25,310.94 158.36,310.70 159.48,310.48 160.60,310.26 161.72,310.06 162.84,309.87 163.96,309.70 165.08,309.55 166.19,309.42 167.31,309.32 168.43,309.23 169.55,309.17 170.67,309.13 171.79,309.10 172.90,309.09 174.02,309.08 175.14,309.08 176.26,309.08 177.38,309.07 178.50,309.05 179.62,309.01 180.73,308.96 181.85,308.88 182.97,308.77 184.09,308.63 185.21,308.46 186.33,308.25 187.45,308.01 188.56,307.73 189.68,307.42 190.80,307.06 191.92,306.67 193.04,306.23 194.16,305.75 195.28,305.23 196.39,304.67 197.51,304.06 198.63,303.40 199.75,302.70 200.87,301.96 201.99,301.17 203.11,300.34 204.22,299.47 205.34,298.57 206.46,297.64 207.58,296.68 208.70,295.69 209.82,294.67 210.93,293.64 212.05,292.59 213.17,291.53 214.29,290.45 215.41,289.36 216.53,288.27 217.65,287.16 218.76,286.06 219.88,284.95 221.00,283.83 222.12,282.72 223.24,281.61 224.36,280.50 225.48,279.40 226.59,278.30 227.71,277.22 228.83,276.14 229.95,275.07 231.07,274.02 232.19,272.98 233.31,271.97 234.42,270.98 235.54,270.01 236.66,269.07 237.78,268.16 238.90,267.29 240.02,266.46 241.14,265.67 242.25,264.92 243.37,264.21 244.49,263.55 245.61,262.93 246.73,262.36 247.85,261.83 248.96,261.35 250.08,260.91 251.20,260.51 252.32,260.15 253.44,259.83 254.56,259.54 255.68,259.30 256.79,259.09 257.91,258.91 259.03,258.77 260.15,258.66 261.27,258.57 262.39,258.51 263.51,258.48 264.62,258.45 265.74,258.45 266.86,258.44 267.98,258.44 269.10,258.44 270.22,258.42 271.34,258.39 272.45,258.34 273.57,258.26 274.69,258.16 275.81,258.03 276.93,257.87 278.05,257.67 279.17,257.44 280.28,257.17 281.40,256.86 282.52,256.51 283.64,256.13 284.76,255.70 285.88,255.23 286.99,254.72 288.11,254.16 289.23,253.56 290.35,252.92 291.47,252.23 292.59,251.49 293.71,250.71 294.82,249.89 295.94,249.04 297.06,248.14 298.18,247.21 299.30,246.26 300.42,245.27 301.54,244.26 302.65,243.24 303.77,242.19 304.89,241.13 306.01,240.05 307.13,238.97 308.25,237.87 309.37,236.77 310.48,235.67 311.60,234.56 312.72,233.45 313.84,232.33 314.96,231.22 316.08,230.11 317.20,229.01 318.31,227.91 319.43,226.82 320.55,225.74 321.67,224.67 322.79,223.62 323.91,222.58 325.03,221.56 326.14,220.56 327.26,219.59 328.38,218.64 329.50,217.73 330.62,216.85 331.74,216.01 332.85,215.20 333.97,214.44 335.09,213.73 336.21,213.06 337.33,212.43 338.45,211.85 339.57,211.31 340.68,210.82 341.80,210.37 342.92,209.96 344.04,209.59 345.16,209.26 346.28,208.97 347.40,208.72 348.51,208.50 349.63,208.32 350.75,208.17 351.87,208.05 352.99,207.96 354.11,207.89 355.23,207.85 356.34,207.83 357.46,207.82 358.58,207.81 359.70,207.81 360.82,207.81 361.94,207.80 363.06,207.77 364.17,207.72 365.29,207.65 366.41,207.56 367.53,207.43 368.65,207.28 369.77,207.09 370.88,206.86 372.00,206.60 373.12,206.30 374.24,205.96 375.36,205.58 376.48,205.17 377.60,204.71 378.71,204.21 379.83,203.66 380.95,203.07 382.07,202.43 383.19,201.75 384.31,201.02 385.43,200.26 386.54,199.44 387.66,198.59 388.78,197.71 389.90,196.79 391.02,195.84 392.14,194.86 393.26,193.85 394.37,192.83 395.49,191.79 396.61,190.73 397.73,189.66 398.85,188.57 399.97,187.48 401.09,186.38 402.20,185.28 403.32,184.17 404.44,183.06 405.56,181.94 406.68,180.83 407.80,179.72 408.91,178.62 410.03,177.52 411.15,176.43 412.27,175.34 413.39,174.27 414.51,173.21 415.63,172.17 416.74,171.15 417.86,170.14 418.98,169.16 420.10,168.21 421.22,167.29 422.34,166.41 423.46,165.56 424.57,164.74 425.69,163.98 426.81,163.25 427.93,162.57 429.05,161.93 430.17,161.34 431.29,160.79 432.40,160.29 433.52,159.83 434.64,159.42 435.76,159.04 436.88,158.70 438.00,158.40 439.12,158.14 440.23,157.91 441.35,157.72 442.47,157.57 443.59,157.44 444.71,157.35 445.83,157.28 446.94,157.23 448.06,157.20 449.18,157.19 450.30,157.19 451.42,157.19 452.54,157.18 453.66,157.17 454.77,157.15 455.89,157.11 457.01,157.04 458.13,156.95 459.25,156.83 460.37,156.68 461.49,156.50 462.60,156.28 463.72,156.03 464.84,155.74 465.96,155.41 467.08,155.04 468.20,154.63 469.32,154.18 470.43,153.69 471.55,153.15 472.67,152.57 473.79,151.94 474.91,151.27 476.03,150.56 477.15,149.80 478.26,148.99 479.38,148.15 480.50,147.27 481.62,146.36 482.74,145.41 483.86,144.44 484.97,143.44 486.09,142.42 487.21,141.38 488.33,140.33 489.45,139.26 490.57,138.18 491.69,137.09 492.80,135.99 493.92,134.89 495.04,133.78 496.16,132.67 497.28,131.55 498.40,130.44 499.52,129.33 500.63,128.23 501.75,127.13 502.87,126.03 503.99,124.95 505.11,123.87 506.23,122.81 507.35,121.76 508.46,120.74 509.58,119.73 510.70,118.74 511.82,117.79 512.94,116.86 514.06,115.96 515.18,115.11 516.29,114.29 517.41,113.51 518.53,112.77 519.65,112.08 520.77,111.44 521.89,110.84 523.01,110.28 524.12,109.77 525.24,109.30 526.36,108.87 527.48,108.49 528.60,108.14 529.72,107.83 530.83,107.56 531.95,107.33 533.07,107.13 534.19,106.97 535.31,106.84 536.43,106.74 537.55,106.66 538.66,106.61 539.78,106.58 540.90,106.56 542.02,106.56 543.14,106.56 544.26,106.55 545.38,106.55 546.49,106.52 547.61,106.49 548.73,106.43 549.85,106.34 550.97,106.23 552.09,106.09 553.21,105.91 554.32,105.70 555.44,105.46 556.56,105.17 557.68,104.85 558.80,104.49 559.92,104.09 561.04,103.65 562.15,103.17 563.27,102.64 564.39,102.07 565.51,101.45 566.63,100.79 567.75,100.08 568.86,99.33 569.98,98.54 571.10,97.71 572.22,96.84 573.34,95.93 574.46,94.99 575.58,94.02 576.69,93.03 577.81,92.02 578.93,90.98 580.05,89.93 581.17,88.86 582.29,87.78 583.41,86.70 584.52,85.60 585.64,84.50 586.76,83.39 587.88,82.28 589.00,81.17 590.12,80.05 591.24,78.94 592.35,77.84 593.47,76.73 594.59,75.64 595.71,74.55 596.83,73.47 597.95,72.41 599.07,71.36 600.18,70.33 601.30,69.31 602.42,68.32 603.54,67.36 604.66,66.43 605.78,65.53 606.89,64.66 608.01,63.83 609.13,63.04 610.25,62.30 611.37,61.60 612.49,60.94 613.61,60.33 614.72,59.77 615.84,59.25 616.96,58.77 618.08,58.33 619.20,57.94 620.32,57.58 621.44,57.27 622.55,56.99 623.67,56.75 624.79,56.54 625.91,56.37 627.03,56.23 628.15,56.12 629.27,56.04 630.38,55.99 631.50,55.95 632.62,55.93 633.74,55.92 634.86,55.92 635.98,55.92 637.10,55.91 638.21,55.90 639.33,55.87 640.45,55.83 641.57,55.77 642.69,55.68 643.81,55.58 644.92,55.45 646.04,55.30 647.16,55.13 648.28,54.94 649.40,54.74 650.52,54.52 651.64,54.30 652.75,54.06 653.87,53.81 654.99,53.55 656.11,53.29 657.23,53.02 658.35,52.75 659.47,52.48 660.58,52.20 661.70,51.92 662.82,51.64 663.94,51.36 665.06,51.08 666.18,50.80 667.30,50.52 668.41,50.24 669.53,49.96 670.65,49.68 671.77,49.40 672.89,49.12 674.01,48.84 675.13,48.56 676.24,48.27 677.36,47.99 678.48,47.71 679.60,47.43 680.72,47.15 681.84,46.88 682.95,46.60 684.07,46.33 685.19,46.06 686.31,45.79 687.43,45.52 688.55,45.27 689.67,45.01 690.78,44.77 691.90,44.53 693.02,44.30 694.14,44.08 695.26,43.87 696.38,43.68 697.50,43.50 698.61,43.34 699.73,43.19 700.85,43.05 701.97,42.94 703.09,42.84 704.21,42.75 705.33,42.68 706.44,42.62 707.56,42.57 708.68,42.53 709.80,42.50 710.92,42.47 712.04,42.46 713.16,42.44 714.27,42.43 715.39,42.43 716.51,42.42 717.63,42.42 718.75,42.42 719.87,42.42 720.98,42.42 722.10,42.41 723.22,42.41 724.34,42.41 725.46,42.41 726.58,42.41 727.70,42.41 728.81,42.41 729.93,42.41 731.05,42.41 732.17,42.41 733.29,42.41 734.41,42.41 735.53,42.41 736.64,42.41 737.76,42.41 738.88,42.41 740.00,42.41" fill="none" stroke="#b26a00" stroke-width="1.8"/>
<text x="660" y="78" font-family="Arial" font-size="12" fill="#b26a00">N=6</text>
</svg>