<svg xmlns="http://www.w3.org/2000/svg" width="760" height="400" viewBox="0 0 760 400">
<rect width="100%" height="100%" fill="white"/>
<text x="380.0" y="18" text-anchor="middle" font-family="Arial" font-size="14">Power (W)</text>
<line x1="70" y1="345" x2="740" y2="345" stroke="#333"/>
<line x1="70" y1="20" x2="70" y2="345" stroke="#333"/>
<text x="380.0" y="388" text-anchor="middle" font-family="Arial" font-size="12">Time (s)</text>
<text x="16" y="200.0" text-anchor="middle" transform="rotate(-90 16 200.0)" font-family="Arial" font-size="12">Power (W)</text>
<line x1="70" y1="20.0" x2="740" y2="20.0" stroke="#ddd"/>
<text x="62" y="24.0" text-anchor="end" font-family="Arial" font-size="10">1.39e-04</text>
<line x1="70" y1="101.2" x2="740" y2="101.2" stroke="#ddd"/>
<text x="62" y="105.2" text-anchor="end" font-family="Arial" font-size="10">1.02e-04</text>
<line x1="70" y1="182.5" x2="740" y2="182.5" stroke="#ddd"/>
<text x="62" y="186.5" text-anchor="end" font-family="Arial" font-size="10">6.44e-05</text>
<line x1="70" y1="263.8" x2="740" y2="263.8" stroke="#ddd"/>
<text x="62" y="267.8" text-anchor="end" font-family="Arial" font-size="10">2.71e-05</text>
<line x1="70" y1="345.0" x2="740" y2="345.0" stroke="#ddd"/>
<text x="62" y="349.0" text-anchor="end" font-family="Arial" font-size="10">-1.03e-05</text>
<line x1="70.0" y1="345" x2="70.0" y2="350" stroke="#333"/>
<text x="70.0" y="365" text-anchor="middle" font-family="Arial" font-size="10">0.00</text>
<line x1="237.5" y1="345" x2="237.5" y2="350" stroke="#333"/>
<text x="237.5" y="365" text-anchor="middle" font-family="Arial" font-size="10">0.38</text>
<line x1="405.0" y1="345" x2="405.0" y2="350" stroke="#333"/>
<text x="405.0" y="365" text-anchor="middle" font-family="Arial" font-size="10">0.77</text>
<line x1="572.5" y1="345" x2="572.5" y2="350" stroke="#333"/>
<text x="572.5" y="365" text-anchor="middle" font-family="Arial" font-size="10">1.15</text>
<line x1="740.0" y1="345" x2="740.0" y2="350" stroke="#333"/>
<text x="740.0" y="365" text-anchor="middle" font-family="Arial" font-size="10">1.53</text>
<polyline points="70.00,322.59 71.01,322.59 72.01,322.59 73.02,322.59 74.03,322.59 75.04,322.59 76.04,322.59 77.05,322.59 78.06,322.59 79.06,322.58 80.07,322.58 81.08,322.58 82.09,322.58 83.09,322.57 84.10,322.57 85.11,322.56 86.12,322.54 87.12,322.51 88.13,322.46 89.14,322.40 90.14,322.31 91.15,322.17 92.16,321.98 93.17,321.73 94.17,321.38 95.18,320.91 96.19,320.30 97.19,319.52 98.20,318.55 99.21,317.34 100.22,315.87 101.22,314.13 102.23,312.09 103.24,309.76 104.24,307.13 105.25,304.22 106.26,301.07 107.27,297.71 108.27,294.20 109.28,290.60 110.29,286.97 111.29,283.37 112.30,279.86 113.31,276.50 114.32,273.34 115.32,270.41 116.33,267.73 117.34,265.32 118.35,263.17 119.35,261.28 120.36,259.63 121.37,258.21 122.37,256.98 123.38,255.94 124.39,255.06 125.40,254.32 126.40,253.70 127.41,253.19 128.42,252.78 129.42,252.45 130.43,252.20 131.44,252.02 132.45,251.89 133.45,251.82 134.46,251.78 135.47,251.77 136.47,251.77 137.48,251.79 138.49,251.81 139.50,251.82 140.50,251.84 141.51,251.84 142.52,251.85 143.52,251.87 144.53,251.91 145.54,251.97 146.55,252.08 147.55,252.26 148.56,252.51 149.57,252.85 150.58,253.31 151.58,253.91 152.59,254.66 153.60,255.60 154.60,256.75 155.61,258.13 156.62,259.79 157.63,261.75 158.63,264.06 159.64,266.72 160.65,269.78 161.65,273.23 162.66,277.08 163.67,281.30 164.68,285.84 165.68,290.63 166.69,295.57 167.70,300.52 168.70,305.35 169.71,309.88 170.72,313.96 171.73,317.40 172.73,320.07 173.74,321.82 174.75,322.56 175.75,322.24 176.76,320.82 177.77,318.34 178.78,314.84 179.78,310.41 180.79,305.16 181.80,299.19 182.81,292.63 183.81,285.58 184.82,278.13 185.83,270.36 186.83,262.31 187.84,254.03 188.85,245.52 189.86,236.78 190.86,227.81 191.87,218.61 192.88,209.16 193.88,199.47 194.89,189.57 195.90,179.49 196.91,169.29 197.91,159.05 198.92,148.84 199.93,138.78 200.93,128.96 201.94,119.48 202.95,110.45 203.96,101.93 204.96,94.01 205.97,86.71 206.98,80.07 207.98,74.09 208.99,68.76 210.00,64.05 211.01,59.91 212.01,56.32 213.02,53.21 214.03,50.57 215.04,48.33 216.04,46.49 217.05,45.00 218.06,43.86 219.06,43.06 220.07,42.57 221.08,42.41 222.09,42.57 223.09,43.06 224.10,43.86 225.11,45.00 226.11,46.49 227.12,48.33 228.13,50.57 229.14,53.21 230.14,56.32 231.15,59.91 232.16,64.05 233.16,68.76 234.17,74.09 235.18,80.07 236.19,86.71 237.19,94.01 238.20,101.93 239.21,110.45 240.22,119.48 241.22,128.96 242.23,138.78 243.24,148.84 244.24,159.05 245.25,169.29 246.26,179.49 247.27,189.57 248.27,199.47 249.28,209.16 250.29,218.61 251.29,227.81 252.30,236.78 253.31,245.52 254.32,254.03 255.32,262.31 256.33,270.36 257.34,278.13 258.34,285.58 259.35,292.63 260.36,299.19 261.37,305.16 262.37,310.41 263.38,314.84 264.39,318.34 265.39,320.82 266.40,322.24 267.41,322.56 268.42,321.82 269.42,320.07 270.43,317.40 271.44,313.96 272.45,309.88 273.45,305.35 274.46,300.52 275.47,295.57 276.47,290.63 277.48,285.84 278.49,281.30 279.50,277.08 280.50,273.23 281.51,269.78 282.52,266.72 283.52,264.06 284.53,261.75 285.54,259.79 286.55,258.13 287.55,256.75 288.56,255.60 289.57,254.66 290.57,253.91 291.58,253.31 292.59,252.85 293.60,252.51 294.60,252.26 295.61,252.08 296.62,251.97 297.62,251.91 298.63,251.87 299.64,251.85 300.65,251.84 301.65,251.84 302.66,251.82 303.67,251.81 304.68,251.79 305.68,251.77 306.69,251.77 307.70,251.78 308.70,251.82 309.71,251.89 310.72,252.02 311.73,252.20 312.73,252.45 313.74,252.78 314.75,253.19 315.75,253.70 316.76,254.32 317.77,255.06 318.78,255.94 319.78,256.98 320.79,258.21 321.80,259.63 322.80,261.28 323.81,263.17 324.82,265.32 325.83,267.73 326.83,270.41 327.84,273.34 328.85,276.50 329.85,279.86 330.86,283.37 331.87,286.97 332.88,290.60 333.88,294.20 334.89,297.71 335.90,301.07 336.91,304.22 337.91,307.13 338.92,309.76 339.93,312.09 340.93,314.13 341.94,315.87 342.95,317.34 343.96,318.55 344.96,319.52 345.97,320.30 346.98,320.91 347.98,321.38 348.99,321.73 350.00,321.98 351.01,322.17 352.01,322.31 353.02,322.40 354.03,322.46 355.03,322.51 356.04,322.54 357.05,322.56 358.06,322.57 359.06,322.57 360.07,322.58 361.08,322.58 362.08,322.58 363.09,322.58 364.10,322.59 365.11,322.59 366.11,322.59 367.12,322.59 368.13,322.59 369.14,322.59 370.14,322.59 371.15,322.59 372.16,322.59" fill="none" stroke="#2f6f9f" stroke-width="1.8"/>
<text x="660" y="42" font-family="Arial" font-size="12" fill="#2f6f9f">N=2</text>
<polyline points="70.00,322.59 71.22,322.59 72.44,322.59 73.65,322.59 74.87,322.59 76.09,322.59 77.31,322.59 78.53,322.59 79.75,322.58 80.96,322.58 82.18,322.58 83.40,322.57 84.62,322.56 85.84,322.54 87.06,322.51 88.27,322.46 89.49,322.37 90.71,322.24 91.93,322.03 93.15,321.73 94.36,321.29 95.58,320.68 96.80,319.84 98.02,318.73 99.24,317.29 100.46,315.47 101.67,313.25 102.89,310.58 104.11,307.49 105.33,303.99 106.55,300.13 107.77,296.00 108.98,291.68 110.20,287.29 111.42,282.94 112.64,278.74 113.86,274.78 115.07,271.14 116.29,267.85 117.51,264.95 118.73,262.44 119.95,260.29 121.17,258.49 122.38,256.99 123.60,255.75 124.82,254.74 126.04,253.92 127.26,253.27 128.48,252.76 129.69,252.38 130.91,252.11 132.13,251.93 133.35,251.83 134.57,251.78 135.79,251.77 137.00,251.78 138.22,251.80 139.44,251.82 140.66,251.84 141.88,251.85 143.09,251.86 144.31,251.90 145.53,251.97 146.75,252.12 147.97,252.35 149.19,252.72 150.40,253.23 151.62,253.95 152.84,254.89 154.06,256.12 155.28,257.67 156.50,259.60 157.71,261.97 158.93,264.84 160.15,268.26 161.37,272.25 162.59,276.82 163.80,281.94 165.02,287.51 166.24,293.39 167.46,299.39 168.68,305.25 169.90,310.69 171.11,315.41 172.33,319.12 173.55,321.57 174.77,322.57 175.99,322.01 177.21,319.86 178.42,316.18 179.64,311.10 180.86,304.79 182.08,297.44 183.30,289.27 184.51,280.45 185.73,271.12 186.95,261.39 188.17,251.30 189.39,240.89 190.61,230.14 191.82,219.04 193.04,207.60 194.26,195.81 195.48,183.73 196.70,171.44 197.92,159.05 199.13,146.73 200.35,134.65 201.57,122.98 202.79,111.91 204.01,101.58 205.22,92.11 206.44,83.57 207.66,76.00 208.88,69.38 210.10,63.66 211.32,58.79 212.53,54.69 213.75,51.28 214.97,48.49 216.19,46.28 217.41,44.59 218.63,43.39 219.84,42.68 221.06,42.44 222.28,42.67 223.50,43.37 224.72,44.55 225.93,46.22 227.15,48.43 228.37,51.20 229.59,54.59 230.81,58.67 232.03,63.52 233.24,69.21 234.46,75.81 235.68,83.36 236.90,91.87 238.12,101.31 239.34,111.62 240.55,122.67 241.77,134.33 242.99,146.40 244.21,158.72 245.43,171.10 246.65,183.40 247.86,195.49 249.08,207.29 250.30,218.75 251.52,229.86 252.74,240.62 253.95,251.06 255.17,261.16 256.39,270.93 257.61,280.29 258.83,289.16 260.05,297.38 261.26,304.78 262.48,311.16 263.70,316.29 264.92,319.99 266.14,322.10 267.36,322.54 268.57,321.28 269.79,318.38 271.01,313.96 272.23,308.20 273.45,301.30 274.66,293.47 275.88,284.91 277.10,275.79 278.32,266.22 279.54,256.29 280.76,246.02 281.97,235.43 283.19,224.50 284.41,213.22 285.63,201.59 286.85,189.64 288.07,177.44 289.28,165.08 290.50,152.71 291.72,140.49 292.94,128.59 294.16,117.21 295.37,106.50 296.59,96.60 297.81,87.61 299.03,79.56 300.25,72.48 301.47,66.33 302.68,61.06 303.90,56.60 305.12,52.86 306.34,49.78 307.56,47.29 308.78,45.34 309.99,43.91 311.21,42.97 312.43,42.50 313.65,42.50 314.87,42.97 316.08,43.91 317.30,45.34 318.52,47.29 319.74,49.78 320.96,52.86 322.18,56.60 323.39,61.06 324.61,66.33 325.83,72.48 327.05,79.56 328.27,87.61 329.49,96.60 330.70,106.50 331.92,117.21 333.14,128.59 334.36,140.49 335.58,152.71 336.79,165.08 338.01,177.44 339.23,189.64 340.45,201.59 341.67,213.22 342.89,224.50 344.10,235.43 345.32,246.02 346.54,256.29 347.76,266.22 348.98,275.79 350.20,284.91 351.41,293.47 352.63,301.30 353.85,308.20 355.07,313.96 356.29,318.38 357.51,321.28 358.72,322.54 359.94,322.10 361.16,319.99 362.38,316.29 363.60,311.16 364.81,304.78 366.03,297.38 367.25,289.16 368.47,280.29 369.69,270.93 370.91,261.16 372.12,251.06 373.34,240.62 374.56,229.86 375.78,218.75 377.00,207.29 378.22,195.49 379.43,183.40 380.65,171.10 381.87,158.72 383.09,146.40 384.31,134.33 385.52,122.67 386.74,111.62 387.96,101.31 389.18,91.87 390.40,83.36 391.62,75.81 392.83,69.21 394.05,63.52 395.27,58.67 396.49,54.59 397.71,51.20 398.93,48.43 400.14,46.22 401.36,44.55 402.58,43.37 403.80,42.67 405.02,42.44 406.23,42.68 407.45,43.39 408.67,44.59 409.89,46.28 411.11,48.49 412.33,51.28 413.54,54.69 414.76,58.79 415.98,63.66 417.20,69.38 418.42,76.00 419.64,83.57 420.85,92.11 422.07,101.58 423.29,111.91 424.51,122.98 425.73,134.65 426.94,146.73 428.16,159.05 429.38,171.44 430.60,183.73 431.82,195.81 433.04,207.60 434.25,219.04 435.47,230.14 436.69,240.89 437.91,251.30 439.13,261.39 440.35,271.12 441.56,280.45 442.78,289.27 444.00,297.44 445.22,304.79 446.44,311.10 447.65,316.18 448.87,319.86 450.09,322.01 451.31,322.57 452.53,321.57 453.75,319.12 454.96,315.41 456.18,310.69 457.40,305.25 458.62,299.39 459.84,293.39 461.06,287.51 462.27,281.94 463.49,276.82 464.71,272.25 465.93,268.26 467.15,264.84 468.37,261.97 469.58,259.60 470.80,257.67 472.02,256.12 473.24,254.89 474.46,253.95 475.67,253.23 476.89,252.72 478.11,252.35 479.33,252.12 480.55,251.97 481.77,251.90 482.98,251.86 484.20,251.85 485.42,251.84 486.64,251.82 487.86,251.80 489.08,251.78 490.29,251.77 491.51,251.78 492.73,251.83 493.95,251.93 495.17,252.11 496.38,252.38 497.60,252.76 498.82,253.27 500.04,253.92 501.26,254.74 502.48,255.75 503.69,256.99 504.91,258.49 506.13,260.29 507.35,262.44 508.57,264.95 509.79,267.85 511.00,271.14 512.22,274.78 513.44,278.74 514.66,282.94 515.88,287.29 517.09,291.68 518.31,296.00 519.53,300.13 520.75,303.99 521.97,307.49 523.19,310.58 524.40,313.25 525.62,315.47 526.84,317.29 528.06,318.73 529.28,319.84 530.50,320.68 531.71,321.29 532.93,321.73 534.15,322.03 535.37,322.24 536.59,322.37 537.80,322.46 539.02,322.51 540.24,322.54 541.46,322.56 542.68,322.57 543.90,322.58 545.11,322.58 546.33,322.58 547.55,322.59 548.77,322.59 549.99,322.59 551.21,322.59 552.42,322.59 553.64,322.59 554.86,322.59 556.08,322.59" fill="none" stroke="#34a853" stroke-width="1.8"/>
<text x="660" y="60" font-family="Arial" font-size="12" fill="#34a853">N=4</text>
<polyline points="70.00,322.59 71.12,322.59 72.24,322.59 73.36,322.59 74.47,322.59 75.59,322.59 76.71,322.59 77.83,322.59 78.95,322.59 80.07,322.58 81.19,322.58 82.30,322.58 83.42,322.57 84.54,322.56 85.66,322.55 86.78,322.52 87.90,322.48 89.02,322.41 90.13,322.31 91.25,322.16 92.37,321.94 93.49,321.62 94.61,321.19 95.73,320.60 96.84,319.81 97.96,318.79 99.08,317.50 100.20,315.89 101.32,313.94 102.44,311.63 103.56,308.95 104.67,305.92 105.79,302.56 106.91,298.92 108.03,295.07 109.15,291.08 110.27,287.05 111.39,283.05 112.50,279.18 113.62,275.51 114.74,272.09 115.86,268.96 116.98,266.16 118.10,263.68 119.22,261.53 120.33,259.68 121.45,258.10 122.57,256.77 123.69,255.66 124.81,254.74 125.93,253.98 127.05,253.37 128.16,252.88 129.28,252.50 130.40,252.21 131.52,252.01 132.64,251.88 133.76,251.80 134.87,251.77 135.99,251.77 137.11,251.78 138.23,251.80 139.35,251.82 140.47,251.83 141.59,251.84 142.70,251.86 143.82,251.88 144.94,251.93 146.06,252.03 147.18,252.19 148.30,252.43 149.42,252.80 150.53,253.30 151.65,253.96 152.77,254.82 153.89,255.92 155.01,257.28 156.13,258.96 157.25,260.99 158.36,263.42 159.48,266.30 160.60,269.65 161.72,273.49 162.84,277.82 163.96,282.59 165.08,287.74 166.19,293.14 167.31,298.65 168.43,304.07 169.55,309.19 170.67,313.77 171.79,317.59 172.90,320.44 174.02,322.14 175.14,322.57 176.26,321.67 177.38,319.43 178.50,315.91 179.62,311.22 180.73,305.48 181.85,298.86 182.97,291.51 184.09,283.58 185.21,275.18 186.33,266.41 187.45,257.32 188.56,247.95 189.68,238.30 190.80,228.37 191.92,218.15 193.04,207.63 194.16,196.82 195.28,185.76 196.39,174.50 197.51,163.14 198.63,151.78 199.75,140.56 200.87,129.62 201.99,119.09 203.11,109.12 204.22,99.80 205.34,91.22 206.46,83.43 207.58,76.45 208.70,70.28 209.82,64.88 210.93,60.21 212.05,56.20 213.17,52.81 214.29,49.96 215.41,47.62 216.53,45.74 217.65,44.30 218.76,43.27 219.88,42.65 221.00,42.43 222.12,42.60 223.24,43.16 224.36,44.13 225.48,45.52 226.59,47.33 227.71,49.61 228.83,52.38 229.95,55.70 231.07,59.62 232.19,64.20 233.31,69.49 234.42,75.56 235.54,82.42 236.66,90.10 237.78,98.57 238.90,107.80 240.02,117.69 241.14,128.15 242.25,139.04 243.37,150.23 244.49,161.58 245.61,172.95 246.73,184.22 247.85,195.32 248.96,206.17 250.08,216.73 251.20,227.00 252.32,236.98 253.44,246.67 254.56,256.09 255.68,265.23 256.79,274.07 257.91,282.54 259.03,290.57 260.15,298.04 261.27,304.80 262.39,310.70 263.51,315.56 264.62,319.23 265.74,321.60 266.86,322.56 267.98,322.10 269.10,320.22 270.22,317.00 271.34,312.54 272.45,306.99 273.57,300.52 274.69,293.28 275.81,285.43 276.93,277.10 278.05,268.38 279.17,259.35 280.28,250.03 281.40,240.43 282.52,230.56 283.64,220.39 284.76,209.93 285.88,199.18 286.99,188.16 288.11,176.94 289.23,165.59 290.35,154.22 291.47,142.96 292.59,131.95 293.71,121.32 294.82,111.22 295.94,101.75 297.06,93.00 298.18,85.04 299.30,77.89 300.42,71.54 301.54,65.98 302.65,61.16 303.77,57.01 304.89,53.49 306.01,50.53 307.13,48.08 308.25,46.11 309.37,44.58 310.48,43.46 311.60,42.75 312.72,42.44 313.84,42.53 314.96,43.01 316.08,43.89 317.20,45.18 318.31,46.91 319.43,49.08 320.55,51.74 321.67,54.94 322.79,58.72 323.91,63.15 325.03,68.29 326.14,74.18 327.26,80.87 328.38,88.37 329.50,96.68 330.62,105.75 331.74,115.50 332.85,125.85 333.97,136.66 335.09,147.80 336.21,159.12 337.33,170.50 338.45,181.80 339.57,192.94 340.68,203.85 341.80,214.48 342.92,224.81 344.04,234.85 345.16,244.60 346.28,254.08 347.40,263.28 348.51,272.19 349.63,280.75 350.75,288.88 351.87,296.49 352.99,303.41 354.11,309.51 355.23,314.60 356.34,318.55 357.46,321.20 358.58,322.48 359.70,322.32 360.82,320.74 361.94,317.80 363.06,313.60 364.17,308.27 365.29,301.98 366.41,294.90 367.53,287.17 368.65,278.93 369.77,270.29 370.88,261.32 372.00,252.06 373.12,242.52 374.24,232.71 375.36,222.61 376.48,212.21 377.60,201.52 378.71,190.56 379.83,179.38 380.95,168.05 382.07,156.67 383.19,145.38 384.31,134.30 385.43,123.58 386.54,113.35 387.66,103.73 388.78,94.82 389.90,86.69 391.02,79.36 392.14,72.85 393.26,67.12 394.37,62.14 395.49,57.85 396.61,54.20 397.73,51.12 398.85,48.57 399.97,46.50 401.09,44.87 402.20,43.67 403.32,42.87 404.44,42.48 405.56,42.48 406.68,42.87 407.80,43.67 408.91,44.87 410.03,46.50 411.15,48.57 412.27,51.12 413.39,54.20 414.51,57.85 415.63,62.14 416.74,67.12 417.86,72.85 418.98,79.36 420.10,86.69 421.22,94.82 422.34,103.73 423.46,113.35 424.57,123.58 425.69,134.30 426.81,145.38 427.93,156.67 429.05,168.05 430.17,179.38 431.29,190.56 432.40,201.52 433.52,212.21 434.64,222.61 435.76,232.71 436.88,242.52 438.00,252.06 439.12,261.32 440.23,270.29 441.35,278.93 442.47,287.17 443.59,294.90 444.71,301.98 445.83,308.27 446.94,313.60 448.06,317.80 449.18,320.74 450.30,322.32 451.42,322.48 452.54,321.20 453.66,318.55 454.77,314.60 455.89,309.51 457.01,303.41 458.13,296.49 459.25,288.88 460.37,280.75 461.49,272.19 462.60,263.28 463.72,254.08 464.84,244.60 465.96,234.85 467.08,224.81 468.20,214.48 469.32,203.85 470.43,192.94 471.55,181.80 472.67,170.50 473.79,159.12 474.91,147.80 476.03,136.66 477.15,125.85 478.26,115.50 479.38,105.75 480.50,96.68 481.62,88.37 482.74,80.87 483.86,74.18 484.97,68.29 486.09,63.15 487.21,58.72 488.33,54.94 489.45,51.74 490.57,49.08 491.69,46.91 492.80,45.18 493.92,43.89 495.04,43.01 496.16,42.53 497.28,42.44 498.40,42.75 499.52,43.46 500.63,44.58 501.75,46.11 502.87,48.08 503.99,50.53 505.11,53.49 506.23,57.01 507.35,61.16 508.46,65.98 509.58,71.54 510.70,77.89 511.82,85.04 512.94,93.00 514.06,101.75 515.18,111.22 516.29,121.32 517.41,131.95 518.53,142.96 519.65,154.22 520.77,165.59 521.89,176.94 523.01,188.16 524.12,199.18 525.24,209.93 526.36,220.39 527.48,230.56 528.60,240.43 529.72,250.03 530.83,259.35 531.95,268.38 533.07,277.10 534.19,285.43 535.31,293.28 536.43,300.52 537.55,306.99 538.66,312.54 539.78,317.00 540.90,320.22 542.02,322.10 543.14,322.56 544.26,321.60 545.38,319.23 546.49,315.56 547.61,310.70 548.73,304.80 549.85,298.04 550.97,290.57 552.09,282.54 553.21,274.07 554.32,265.23 555.44,256.09 556.56,246.67 557.68,236.98 558.80,227.00 559.92,216.73 561.04,206.17 562.15,195.32 563.27,184.22 564.39,172.95 565.51,161.58 566.63,150.23 567.75,139.04 568.86,128.15 569.98,117.69 571.10,107.80 572.22,98.57 573.34,90.10 574.46,82.42 575.58,75.56 576.69,69.49 577.81,64.20 578.93,59.62 580.05,55.70 581.17,52.38 582.29,49.61 583.41,47.33 584.52,45.52 585.64,44.13 586.76,43.16 587.88,42.60 589.00,42.43 590.12,42.65 591.24,43.27 592.35,44.30 593.47,45.74 594.59,47.62 595.71,49.96 596.83,52.81 597.95,56.20 599.07,60.21 600.18,64.88 601.30,70.28 602.42,76.45 603.54,83.43 604.66,91.22 605.78,99.80 606.89,109.12 608.01,119.09 609.13,129.62 610.25,140.56 611.37,151.78 612.49,163.14 613.61,174.50 614.72,185.76 615.84,196.82 616.96,207.63 618.08,218.15 619.20,228.37 620.32,238.30 621.44,247.95 622.55,257.32 623.67,266.41 624.79,275.18 625.91,283.58 627.03,291.51 628.15,298.86 629.27,305.48 630.38,311.22 631.50,315.91 632.62,319.43 633.74,321.67 634.86,322.57 635.98,322.14 637.10,320.44 638.21,317.59 639.33,313.77 640.45,309.19 641.57,304.07 642.69,298.65 643.81,293.14 644.92,287.74 646.04,282.59 647.16,277.82 648.28,273.49 649.40,269.65 650.52,266.30 651.64,263.42 652.75,260.99 653.87,258.96 654.99,257.28 656.11,255.92 657.23,254.82 658.35,253.96 659.47,253.30 660.58,252.80 661.70,252.43 662.82,252.19 663.94,252.03 665.06,251.93 666.18,251.88 667.30,251.86 668.41,251.84 669.53,251.83 670.65,251.82 671.77,251.80 672.89,251.78 674.01,251.77 675.13,251.77 676.24,251.80 677.36,251.88 678.48,252.01 679.60,252.21 680.72,252.50 681.84,252.88 682.95,253.37 684.07,253.98 685.19,254.74 686.31,255.66 687.43,256.77 688.55,258.10 689.67,259.68 690.78,261.53 691.90,263.68 693.02,266.16 694.14,268.96 695.26,272.09 696.38,275.51 697.50,279.18 698.61,283.05 699.73,287.05 700.85,291.08 701.97,295.07 703.09,298.92 704.21,302.56 705.33,305.92 706.44,308.95 707.56,311.63 708.68,313.94 709.80,315.89 710.92,317.50 712.04,318.79 713.16,319.81 714.27,320.60 715.39,321.19 716.51,321.62 717.63,321.94 718.75,322.16 719.87,322.31 720.98,322.41 722.10,322.48 723.22,322.52 724.34,322.55 725.46,322.56 726.58,322.57 727.70,322.58 728.81,322.58 729.93,322.58 731.05,322.59 732.17,322.59 733.29,322.59 734.41,322.59 735.53,322.59 736.64,322.59 737.76,322.59 738.88,322.59 740.00,322.59" fill="none" stroke="#b26a00" stroke-width="1.8"/>
<text x="660" y="78" font-family="Arial" font-size="12" fill="#b26a00">N=6</text>
</svg>