<svg xmlns="http://www.w3.org/2000/svg" width="850" height="460" viewBox="0 0 850 460">
<rect width="100%" height="100%" fill="white"/>
<text x="425.0" y="23" text-anchor="middle" font-family="Arial" font-size="15">N=4 short-circuit current at 4 m/s^2: experiment vs simulation</text>
<line x1="96" y1="394" x2="822" y2="394" stroke="#333"/>
<line x1="96" y1="34" x2="96" y2="394" stroke="#333"/>
<text x="425.0" y="442" text-anchor="middle" font-family="Arial" font-size="12">Normalized time</text>
<text x="16" y="230.0" text-anchor="middle" transform="rotate(-90 16 230.0)" font-family="Arial" font-size="12">Short-circuit current (uA)</text>
<line x1="96" y1="34.0" x2="822" y2="34.0" stroke="#e1e5ea"/>
<text x="88" y="38.0" text-anchor="end" font-family="Arial" font-size="10">9.60</text>
<line x1="96" y1="106.0" x2="822" y2="106.0" stroke="#e1e5ea"/>
<text x="88" y="110.0" text-anchor="end" font-family="Arial" font-size="10">5.76</text>
<line x1="96" y1="178.0" x2="822" y2="178.0" stroke="#e1e5ea"/>
<text x="88" y="182.0" text-anchor="end" font-family="Arial" font-size="10">1.92</text>
<line x1="96" y1="250.0" x2="822" y2="250.0" stroke="#e1e5ea"/>
<text x="88" y="254.0" text-anchor="end" font-family="Arial" font-size="10">-1.92</text>
<line x1="96" y1="322.0" x2="822" y2="322.0" stroke="#e1e5ea"/>
<text x="88" y="326.0" text-anchor="end" font-family="Arial" font-size="10">-5.76</text>
<line x1="96" y1="394.0" x2="822" y2="394.0" stroke="#e1e5ea"/>
<text x="88" y="398.0" text-anchor="end" font-family="Arial" font-size="10">-9.60</text>
<line x1="96" y1="214.0" x2="822" y2="214.0" stroke="#999" stroke-dasharray="4 4"/>
<polyline points="96.00,209.98 96.33,210.38 96.66,210.77 96.99,211.16 97.32,211.55 97.65,211.94 97.98,212.33 98.31,212.72 98.64,213.11 98.97,213.49 99.30,213.87 99.63,214.25 99.96,214.61 100.29,214.97 100.62,215.33 100.95,215.67 101.28,216.00 101.61,216.32 101.94,216.63 102.27,216.94 102.60,217.23 102.93,217.51 103.26,217.79 103.59,218.05 103.92,218.31 104.25,218.57 104.58,218.81 104.91,219.05 105.24,219.28 105.57,219.51 105.90,219.73 106.23,219.95 106.56,220.17 106.89,220.38 107.23,220.59 107.56,220.79 107.89,221.00 108.22,221.20 108.55,221.41 108.88,221.62 109.21,221.83 109.54,222.04 109.87,222.26 110.20,222.49 110.53,222.73 110.86,222.97 111.19,223.22 111.52,223.48 111.85,223.75 112.18,224.03 112.51,224.32 112.84,224.62 113.17,224.92 113.50,225.24 113.83,225.56 114.16,225.88 114.49,226.21 114.82,226.54 115.15,226.87 115.48,227.21 115.81,227.54 116.14,227.87 116.47,228.21 116.80,228.54 117.13,228.87 117.46,229.19 117.79,229.52 118.12,229.84 118.45,230.17 118.78,230.49 119.11,230.81 119.44,231.13 119.77,231.45 120.10,231.77 120.43,232.09 120.76,232.41 121.09,232.74 121.42,233.06 121.75,233.39 122.08,233.72 122.41,234.06 122.74,234.40 123.07,234.75 123.40,235.10 123.73,235.47 124.06,235.83 124.39,236.21 124.72,236.59 125.05,236.99 125.38,237.39 125.71,237.81 126.04,238.24 126.37,238.68 126.70,239.13 127.03,239.60 127.36,240.08 127.69,240.58 128.02,241.09 128.35,241.62 128.68,242.17 129.02,242.73 129.35,243.32 129.68,243.91 130.01,244.53 130.34,245.16 130.67,245.81 131.00,246.47 131.33,247.14 131.66,247.83 131.99,248.53 132.32,249.24 132.65,249.96 132.98,250.69 133.31,251.42 133.64,252.16 133.97,252.90 134.30,253.65 134.63,254.39 134.96,255.13 135.29,255.87 135.62,256.61 135.95,257.35 136.28,258.09 136.61,258.82 136.94,259.55 137.27,260.29 137.60,261.02 137.93,261.76 138.26,262.50 138.59,263.25 138.92,264.00 139.25,264.75 139.58,265.51 139.91,266.28 140.24,267.05 140.57,267.84 140.90,268.63 141.23,269.43 141.56,270.25 141.89,271.07 142.22,271.91 142.55,272.76 142.88,273.63 143.21,274.51 143.54,275.40 143.87,276.31 144.20,277.23 144.53,278.17 144.86,279.12 145.19,280.09 145.52,281.08 145.85,282.08 146.18,283.10 146.51,284.14 146.84,285.19 147.17,286.25 147.50,287.34 147.83,288.43 148.16,289.55 148.49,290.67 148.82,291.80 149.15,292.95 149.48,294.10 149.81,295.26 150.14,296.42 150.47,297.59 150.80,298.75 151.14,299.91 151.47,301.06 151.80,302.21 152.13,303.34 152.46,304.46 152.79,305.56 153.12,306.64 153.45,307.70 153.78,308.74 154.11,309.75 154.44,310.73 154.77,311.68 155.10,312.60 155.43,313.49 155.76,314.35 156.09,315.18 156.42,315.98 156.75,316.74 157.08,317.48 157.41,318.19 157.74,318.87 158.07,319.52 158.40,320.14 158.73,320.74 159.06,321.31 159.39,321.86 159.72,322.38 160.05,322.89 160.38,323.37 160.71,323.84 161.04,324.29 161.37,324.72 161.70,325.14 162.03,325.54 162.36,325.93 162.69,326.31 163.02,326.68 163.35,327.04 163.68,327.39 164.01,327.73 164.34,328.06 164.67,328.39 165.00,328.72 165.33,329.03 165.66,329.35 165.99,329.66 166.32,329.96 166.65,330.25 166.98,330.54 167.31,330.82 167.64,331.10 167.97,331.36 168.30,331.62 168.63,331.86 168.96,332.10 169.29,332.33 169.62,332.55 169.95,332.76 170.28,332.95 170.61,333.14 170.94,333.31 171.27,333.46 171.60,333.61 171.93,333.73 172.26,333.85 172.59,333.94 172.92,334.01 173.26,334.07 173.59,334.11 173.92,334.12 174.25,334.11 174.58,334.09 174.91,334.03 175.24,333.96 175.57,333.87 175.90,333.75 176.23,333.61 176.56,333.45 176.89,333.26 177.22,333.06 177.55,332.84 177.88,332.60 178.21,332.35 178.54,332.08 178.87,331.80 179.20,331.51 179.53,331.22 179.86,330.91 180.19,330.60 180.52,330.29 180.85,329.97 181.18,329.66 181.51,329.34 181.84,329.02 182.17,328.70 182.50,328.38 182.83,328.05 183.16,327.73 183.49,327.41 183.82,327.08 184.15,326.76 184.48,326.43 184.81,326.10 185.14,325.76 185.47,325.42 185.80,325.08 186.13,324.74 186.46,324.38 186.79,324.03 187.12,323.67 187.45,323.30 187.78,322.93 188.11,322.56 188.44,322.19 188.77,321.81 189.10,321.43 189.43,321.04 189.76,320.66 190.09,320.27 190.42,319.88 190.75,319.49 191.08,319.10 191.41,318.71 191.74,318.32 192.07,317.92 192.40,317.52 192.73,317.12 193.06,316.72 193.39,316.31 193.72,315.90 194.05,315.49 194.38,315.07 194.71,314.66 195.05,314.25 195.38,313.83 195.71,313.42 196.04,313.01 196.37,312.61 196.70,312.21 197.03,311.82 197.36,311.43 197.69,311.05 198.02,310.68 198.35,310.32 198.68,309.97 199.01,309.63 199.34,309.30 199.67,308.99 200.00,308.70 200.33,308.42 200.66,308.17 200.99,307.92 201.32,307.70 201.65,307.50 201.98,307.31 202.31,307.13 202.64,306.97 202.97,306.83 203.30,306.69 203.63,306.57 203.96,306.46 204.29,306.35 204.62,306.25 204.95,306.16 205.28,306.06 205.61,305.97 205.94,305.87 206.27,305.77 206.60,305.67 206.93,305.55 207.26,305.43 207.59,305.30 207.92,305.15 208.25,305.00 208.58,304.82 208.91,304.63 209.24,304.42 209.57,304.19 209.90,303.94 210.23,303.67 210.56,303.36 210.89,303.03 211.22,302.68 211.55,302.28 211.88,301.86 212.21,301.39 212.54,300.89 212.87,300.34 213.20,299.75 213.53,299.11 213.86,298.43 214.19,297.70 214.52,296.92 214.85,296.10 215.18,295.22 215.51,294.29 215.84,293.31 216.17,292.27 216.50,291.18 216.83,290.05 217.17,288.85 217.50,287.60 217.83,286.30 218.16,284.95 218.49,283.54 218.82,282.08 219.15,280.56 219.48,278.99 219.81,277.37 220.14,275.69 220.47,273.97 220.80,272.18 221.13,270.35 221.46,268.47 221.79,266.53 222.12,264.54 222.45,262.50 222.78,260.41 223.11,258.28 223.44,256.10 223.77,253.88 224.10,251.62 224.43,249.33 224.76,246.99 225.09,244.63 225.42,242.24 225.75,239.82 226.08,237.39 226.41,234.93 226.74,232.47 227.07,229.99 227.40,227.51 227.73,225.04 228.06,222.57 228.39,220.11 228.72,217.67 229.05,215.25 229.38,212.86 229.71,210.50 230.04,208.18 230.37,205.91 230.70,203.68 231.03,201.50 231.36,199.38 231.69,197.32 232.02,195.33 232.35,193.41 232.68,191.56 233.01,189.80 233.34,188.10 233.67,186.50 234.00,184.98 234.33,183.55 234.66,182.21 234.99,180.97 235.32,179.82 235.65,178.78 235.98,177.83 236.31,176.98 236.64,176.23 236.97,175.59 237.30,175.04 237.63,174.60 237.96,174.26 238.29,174.02 238.62,173.87 238.95,173.82 239.29,173.88 239.62,174.02 239.95,174.26 240.28,174.59 240.61,175.01 240.94,175.51 241.27,176.09 241.60,176.75 241.93,177.49 242.26,178.30 242.59,179.16 242.92,180.10 243.25,181.08 243.58,182.12 243.91,183.20 244.24,184.33 244.57,185.49 244.90,186.68 245.23,187.90 245.56,189.14 245.89,190.39 246.22,191.66 246.55,192.93 246.88,194.21 247.21,195.48 247.54,196.75 247.87,198.00 248.20,199.25 248.53,200.47 248.86,201.67 249.19,202.85 249.52,204.00 249.85,205.11 250.18,206.20 250.51,207.24 250.84,208.25 251.17,209.22 251.50,210.15 251.83,211.02 252.16,211.85 252.49,212.64 252.82,213.37 253.15,214.05 253.48,214.68 253.81,215.27 254.14,215.80 254.47,216.29 254.80,216.73 255.13,217.13 255.46,217.48 255.79,217.79 256.12,218.07 256.45,218.30 256.78,218.50 257.11,218.67 257.44,218.80 257.77,218.91 258.10,218.99 258.43,219.05 258.76,219.09 259.09,219.11 259.42,219.12 259.75,219.11 260.08,219.10 260.41,219.08 260.74,219.07 261.08,219.05 261.41,219.05 261.74,219.05 262.07,219.07 262.40,219.10 262.73,219.14 263.06,219.21 263.39,219.29 263.72,219.40 264.05,219.53 264.38,219.69 264.71,219.87 265.04,220.08 265.37,220.32 265.70,220.59 266.03,220.89 266.36,221.22 266.69,221.58 267.02,221.98 267.35,222.41 267.68,222.88 268.01,223.39 268.34,223.94 268.67,224.52 269.00,225.15 269.33,225.82 269.66,226.52 269.99,227.28 270.32,228.07 270.65,228.90 270.98,229.77 271.31,230.68 271.64,231.63 271.97,232.61 272.30,233.63 272.63,234.68 272.96,235.75 273.29,236.86 273.62,237.98 273.95,239.14 274.28,240.31 274.61,241.51 274.94,242.73 275.27,243.97 275.60,245.22 275.93,246.49 276.26,247.77 276.59,249.07 276.92,250.37 277.25,251.69 277.58,253.01 277.91,254.34 278.24,255.67 278.57,257.00 278.90,258.33 279.23,259.65 279.56,260.96 279.89,262.26 280.22,263.55 280.55,264.82 280.88,266.07 281.21,267.31 281.54,268.51 281.87,269.70 282.20,270.85 282.53,271.97 282.86,273.05 283.20,274.09 283.53,275.09 283.86,276.05 284.19,276.96 284.52,277.81 284.85,278.61 285.18,279.36 285.51,280.04 285.84,280.67 286.17,281.23 286.50,281.72 286.83,282.15 287.16,282.51 287.49,282.81 287.82,283.03 288.15,283.19 288.48,283.28 288.81,283.30 289.14,283.26 289.47,283.15 289.80,282.98 290.13,282.74 290.46,282.45 290.79,282.11 291.12,281.70 291.45,281.24 291.78,280.72 292.11,280.15 292.44,279.53 292.77,278.85 293.10,278.13 293.43,277.36 293.76,276.54 294.09,275.69 294.42,274.79 294.75,273.84 295.08,272.87 295.41,271.86 295.74,270.81 296.07,269.74 296.40,268.64 296.73,267.51 297.06,266.36 297.39,265.19 297.72,264.01 298.05,262.81 298.38,261.60 298.71,260.38 299.04,259.16 299.37,257.93 299.70,256.71 300.03,255.49 300.36,254.28 300.69,253.09 301.02,251.91 301.35,250.75 301.68,249.61 302.01,248.50 302.34,247.42 302.67,246.36 303.00,245.35 303.33,244.36 303.66,243.41 303.99,242.50 304.32,241.63 304.65,240.80 304.98,240.01 305.32,239.25 305.65,238.54 305.98,237.87 306.31,237.23 306.64,236.64 306.97,236.08 307.30,235.56 307.63,235.07 307.96,234.63 308.29,234.21 308.62,233.83 308.95,233.48 309.28,233.17 309.61,232.88 309.94,232.63 310.27,232.40 310.60,232.20 310.93,232.02 311.26,231.87 311.59,231.74 311.92,231.63 312.25,231.54 312.58,231.47 312.91,231.40 313.24,231.36 313.57,231.32 313.90,231.30 314.23,231.29 314.56,231.29 314.89,231.30 315.22,231.32 315.55,231.35 315.88,231.40 316.21,231.45 316.54,231.52 316.87,231.59 317.20,231.68 317.53,231.79 317.86,231.90 318.19,232.02 318.52,232.16 318.85,232.31 319.18,232.48 319.51,232.65 319.84,232.84 320.17,233.05 320.50,233.27 320.83,233.50 321.16,233.76 321.49,234.03 321.82,234.32 322.15,234.62 322.48,234.94 322.81,235.28 323.14,235.64 323.47,236.01 323.80,236.39 324.13,236.78 324.46,237.18 324.79,237.59 325.12,238.01 325.45,238.43 325.78,238.85 326.11,239.28 326.44,239.70 326.77,240.12 327.11,240.53 327.44,240.94 327.77,241.34 328.10,241.73 328.43,242.12 328.76,242.49 329.09,242.85 329.42,243.19 329.75,243.52 330.08,243.84 330.41,244.15 330.74,244.43 331.07,244.71 331.40,244.96 331.73,245.20 332.06,245.42 332.39,245.62 332.72,245.80 333.05,245.97 333.38,246.10 333.71,246.22 334.04,246.32 334.37,246.40 334.70,246.45 335.03,246.49 335.36,246.51 335.69,246.51 336.02,246.49 336.35,246.45 336.68,246.40 337.01,246.34 337.34,246.26 337.67,246.17 338.00,246.07 338.33,245.95 338.66,245.83 338.99,245.69 339.32,245.55 339.65,245.40 339.98,245.24 340.31,245.08 340.64,244.91 340.97,244.74 341.30,244.58 341.63,244.41 341.96,244.25 342.29,244.08 342.62,243.92 342.95,243.76 343.28,243.61 343.61,243.46 343.94,243.31 344.27,243.16 344.60,243.01 344.93,242.87 345.26,242.73 345.59,242.59 345.92,242.45 346.25,242.31 346.58,242.17 346.91,242.04 347.24,241.90 347.57,241.77 347.90,241.63 348.23,241.50 348.56,241.37 348.89,241.24 349.23,241.11 349.56,240.97 349.89,240.84 350.22,240.71 350.55,240.58 350.88,240.45 351.21,240.32 351.54,240.19 351.87,240.06 352.20,239.92 352.53,239.78 352.86,239.64 353.19,239.49 353.52,239.33 353.85,239.17 354.18,239.01 354.51,238.84 354.84,238.66 355.17,238.49 355.50,238.31 355.83,238.12 356.16,237.94 356.49,237.76 356.82,237.57 357.15,237.39 357.48,237.21 357.81,237.03 358.14,236.85 358.47,236.67 358.80,236.49 359.13,236.32 359.46,236.15 359.79,235.98 360.12,235.82 360.45,235.66 360.78,235.51 361.11,235.37 361.44,235.23 361.77,235.11 362.10,234.99 362.43,234.88 362.76,234.78 363.09,234.69 363.42,234.61 363.75,234.53 364.08,234.47 364.41,234.41 364.74,234.37 365.07,234.33 365.40,234.29 365.73,234.27 366.06,234.25 366.39,234.23 366.72,234.23 367.05,234.22 367.38,234.23 367.71,234.23 368.04,234.24 368.37,234.25 368.70,234.27 369.03,234.29 369.36,234.31 369.69,234.33 370.02,234.36 370.35,234.38 370.68,234.41 371.02,234.44 371.35,234.47 371.68,234.49 372.01,234.51 372.34,234.53 372.67,234.55 373.00,234.55 373.33,234.55 373.66,234.55 373.99,234.53 374.32,234.52 374.65,234.49 374.98,234.46 375.31,234.42 375.64,234.37 375.97,234.32 376.30,234.27 376.63,234.21 376.96,234.14 377.29,234.08 377.62,234.01 377.95,233.93 378.28,233.86 378.61,233.78 378.94,233.71 379.27,233.63 379.60,233.55 379.93,233.47 380.26,233.40 380.59,233.32 380.92,233.26 381.25,233.20 381.58,233.14 381.91,233.10 382.24,233.06 382.57,233.03 382.90,233.01 383.23,233.01 383.56,233.01 383.89,233.02 384.22,233.04 384.55,233.07 384.88,233.12 385.21,233.17 385.54,233.23 385.87,233.31 386.20,233.39 386.53,233.48 386.86,233.58 387.19,233.69 387.52,233.81 387.85,233.93 388.18,234.07 388.51,234.21 388.84,234.36 389.17,234.52 389.50,234.68 389.83,234.86 390.16,235.04 390.49,235.23 390.82,235.43 391.15,235.64 391.48,235.86 391.81,236.08 392.14,236.32 392.47,236.55 392.80,236.79 393.14,237.04 393.47,237.29 393.80,237.54 394.13,237.79 394.46,238.04 394.79,238.29 395.12,238.54 395.45,238.80 395.78,239.05 396.11,239.31 396.44,239.57 396.77,239.83 397.10,240.09 397.43,240.36 397.76,240.63 398.09,240.91 398.42,241.19 398.75,241.48 399.08,241.77 399.41,242.08 399.74,242.39 400.07,242.71 400.40,243.04 400.73,243.39 401.06,243.75 401.39,244.13 401.72,244.53 402.05,244.94 402.38,245.38 402.71,245.83 403.04,246.30 403.37,246.80 403.70,247.31 404.03,247.84 404.36,248.39 404.69,248.96 405.02,249.54 405.35,250.15 405.68,250.76 406.01,251.40 406.34,252.05 406.67,252.71 407.00,253.39 407.33,254.08 407.66,254.78 407.99,255.48 408.32,256.20 408.65,256.92 408.98,257.65 409.31,258.39 409.64,259.13 409.97,259.88 410.30,260.62 410.63,261.37 410.96,262.12 411.29,262.87 411.62,263.62 411.95,264.36 412.28,265.09 412.61,265.81 412.94,266.53 413.27,267.23 413.60,267.92 413.93,268.59 414.26,269.24 414.59,269.87 414.92,270.48 415.26,271.06 415.59,271.62 415.92,272.16 416.25,272.67 416.58,273.15 416.91,273.61 417.24,274.04 417.57,274.44 417.90,274.82 418.23,275.17 418.56,275.50 418.89,275.80 419.22,276.07 419.55,276.32 419.88,276.55 420.21,276.76 420.54,276.95 420.87,277.13 421.20,277.28 421.53,277.43 421.86,277.56 422.19,277.68 422.52,277.79 422.85,277.89 423.18,277.97 423.51,278.05 423.84,278.12 424.17,278.17 424.50,278.22 424.83,278.25 425.16,278.27 425.49,278.28 425.82,278.28 426.15,278.26 426.48,278.23 426.81,278.19 427.14,278.14 427.47,278.07 427.80,277.98 428.13,277.88 428.46,277.77 428.79,277.64 429.12,277.50 429.45,277.34 429.78,277.17 430.11,276.98 430.44,276.78 430.77,276.57 431.10,276.34 431.43,276.10 431.76,275.84 432.09,275.57 432.42,275.29 432.75,275.00 433.08,274.69 433.41,274.37 433.74,274.04 434.07,273.70 434.40,273.34 434.73,272.98 435.06,272.60 435.39,272.22 435.72,271.83 436.05,271.44 436.38,271.04 436.71,270.63 437.05,270.22 437.38,269.80 437.71,269.38 438.04,268.96 438.37,268.54 438.70,268.11 439.03,267.69 439.36,267.27 439.69,266.85 440.02,266.44 440.35,266.03 440.68,265.64 441.01,265.25 441.34,264.88 441.67,264.53 442.00,264.19 442.33,263.87 442.66,263.58 442.99,263.30 443.32,263.05 443.65,262.81 443.98,262.61 444.31,262.42 444.64,262.26 444.97,262.12 445.30,262.01 445.63,261.92 445.96,261.86 446.29,261.81 446.62,261.80 446.95,261.81 447.28,261.84 447.61,261.91 447.94,262.00 448.27,262.11 448.60,262.25 448.93,262.42 449.26,262.61 449.59,262.84 449.92,263.09 450.25,263.37 450.58,263.68 450.91,264.02 451.24,264.38 451.57,264.77 451.90,265.18 452.23,265.62 452.56,266.07 452.89,266.54 453.22,267.02 453.55,267.51 453.88,268.02 454.21,268.52 454.54,269.03 454.87,269.54 455.20,270.05 455.53,270.55 455.86,271.04 456.19,271.52 456.52,271.99 456.85,272.44 457.18,272.87 457.51,273.28 457.84,273.68 458.17,274.06 458.50,274.42 458.83,274.77 459.17,275.09 459.50,275.39 459.83,275.67 460.16,275.94 460.49,276.18 460.82,276.42 461.15,276.63 461.48,276.83 461.81,277.02 462.14,277.18 462.47,277.34 462.80,277.48 463.13,277.60 463.46,277.71 463.79,277.80 464.12,277.88 464.45,277.95 464.78,278.00 465.11,278.04 465.44,278.07 465.77,278.09 466.10,278.09 466.43,278.08 466.76,278.06 467.09,278.02 467.42,277.97 467.75,277.90 468.08,277.82 468.41,277.72 468.74,277.61 469.07,277.48 469.40,277.33 469.73,277.18 470.06,277.01 470.39,276.83 470.72,276.63 471.05,276.43 471.38,276.23 471.71,276.01 472.04,275.78 472.37,275.55 472.70,275.31 473.03,275.06 473.36,274.80 473.69,274.54 474.02,274.27 474.35,273.99 474.68,273.70 475.01,273.40 475.34,273.08 475.67,272.76 476.00,272.42 476.33,272.08 476.66,271.72 476.99,271.35 477.32,270.97 477.65,270.58 477.98,270.19 478.31,269.78 478.64,269.37 478.97,268.95 479.30,268.52 479.63,268.08 479.96,267.64 480.29,267.19 480.62,266.75 480.95,266.30 481.29,265.84 481.62,265.39 481.95,264.94 482.28,264.48 482.61,264.03 482.94,263.57 483.27,263.11 483.60,262.65 483.93,262.18 484.26,261.72 484.59,261.26 484.92,260.80 485.25,260.34 485.58,259.88 485.91,259.43 486.24,258.97 486.57,258.52 486.90,258.08 487.23,257.63 487.56,257.20 487.89,256.77 488.22,256.35 488.55,255.93 488.88,255.52 489.21,255.12 489.54,254.72 489.87,254.34 490.20,253.96 490.53,253.59 490.86,253.23 491.19,252.88 491.52,252.54 491.85,252.21 492.18,251.89 492.51,251.58 492.84,251.27 493.17,250.98 493.50,250.70 493.83,250.42 494.16,250.16 494.49,249.91 494.82,249.67 495.15,249.43 495.48,249.21 495.81,248.99 496.14,248.78 496.47,248.57 496.80,248.37 497.13,248.17 497.46,247.98 497.79,247.79 498.12,247.61 498.45,247.43 498.78,247.25 499.11,247.07 499.44,246.90 499.77,246.73 500.10,246.56 500.43,246.40 500.76,246.23 501.09,246.06 501.42,245.88 501.75,245.71 502.08,245.53 502.41,245.34 502.74,245.14 503.08,244.93 503.41,244.72 503.74,244.49 504.07,244.25 504.40,244.00 504.73,243.74 505.06,243.47 505.39,243.19 505.72,242.90 506.05,242.60 506.38,242.29 506.71,241.98 507.04,241.66 507.37,241.34 507.70,241.01 508.03,240.69 508.36,240.36 508.69,240.03 509.02,239.71 509.35,239.38 509.68,239.07 510.01,238.76 510.34,238.45 510.67,238.16 511.00,237.87 511.33,237.59 511.66,237.32 511.99,237.07 512.32,236.82 512.65,236.59 512.98,236.37 513.31,236.16 513.64,235.96 513.97,235.77 514.30,235.59 514.63,235.42 514.96,235.26 515.29,235.11 515.62,234.97 515.95,234.83 516.28,234.69 516.61,234.57 516.94,234.44 517.27,234.33 517.60,234.21 517.93,234.10 518.26,234.00 518.59,233.90 518.92,233.81 519.25,233.73 519.58,233.65 519.91,233.57 520.24,233.51 520.57,233.45 520.90,233.41 521.23,233.37 521.56,233.34 521.89,233.31 522.22,233.30 522.55,233.29 522.88,233.29 523.21,233.30 523.54,233.31 523.87,233.33 524.20,233.36 524.53,233.39 524.86,233.43 525.20,233.48 525.53,233.52 525.86,233.57 526.19,233.63 526.52,233.69 526.85,233.74 527.18,233.80 527.51,233.86 527.84,233.92 528.17,233.98 528.50,234.04 528.83,234.09 529.16,234.14 529.49,234.18 529.82,234.21 530.15,234.24 530.48,234.25 530.81,234.26 531.14,234.26 531.47,234.25 531.80,234.23 532.13,234.19 532.46,234.15 532.79,234.09 533.12,234.01 533.45,233.93 533.78,233.82 534.11,233.71 534.44,233.58 534.77,233.43 535.10,233.26 535.43,233.08 535.76,232.88 536.09,232.66 536.42,232.42 536.75,232.16 537.08,231.87 537.41,231.58 537.74,231.26 538.07,230.92 538.40,230.57 538.73,230.20 539.06,229.82 539.39,229.43 539.72,229.03 540.05,228.61 540.38,228.19 540.71,227.77 541.04,227.34 541.37,226.90 541.70,226.46 542.03,226.02 542.36,225.58 542.69,225.14 543.02,224.70 543.35,224.26 543.68,223.82 544.01,223.38 544.34,222.94 544.67,222.50 545.00,222.06 545.33,221.62 545.66,221.19 545.99,220.75 546.32,220.30 546.65,219.86 546.98,219.41 547.32,218.96 547.65,218.50 547.98,218.04 548.31,217.57 548.64,217.10 548.97,216.61 549.30,216.11 549.63,215.60 549.96,215.07 550.29,214.53 550.62,213.97 550.95,213.38 551.28,212.78 551.61,212.16 551.94,211.51 552.27,210.83 552.60,210.13 552.93,209.39 553.26,208.62 553.59,207.82 553.92,206.98 554.25,206.11 554.58,205.20 554.91,204.26 555.24,203.28 555.57,202.26 555.90,201.20 556.23,200.11 556.56,198.98 556.89,197.81 557.22,196.61 557.55,195.37 557.88,194.10 558.21,192.80 558.54,191.47 558.87,190.12 559.20,188.75 559.53,187.36 559.86,185.96 560.19,184.53 560.52,183.10 560.85,181.67 561.18,180.22 561.51,178.78 561.84,177.33 562.17,175.89 562.50,174.45 562.83,173.02 563.16,171.61 563.49,170.22 563.82,168.84 564.15,167.48 564.48,166.15 564.81,164.85 565.14,163.58 565.47,162.34 565.80,161.14 566.13,159.97 566.46,158.84 566.79,157.75 567.12,156.69 567.45,155.67 567.78,154.69 568.11,153.74 568.44,152.82 568.77,151.93 569.11,151.07 569.44,150.24 569.77,149.43 570.10,148.64 570.43,147.88 570.76,147.13 571.09,146.40 571.42,145.69 571.75,144.99 572.08,144.30 572.41,143.61 572.74,142.94 573.07,142.27 573.40,141.61 573.73,140.96 574.06,140.31 574.39,139.66 574.72,139.01 575.05,138.37 575.38,137.72 575.71,137.08 576.04,136.43 576.37,135.78 576.70,135.12 577.03,134.46 577.36,133.79 577.69,133.13 578.02,132.45 578.35,131.78 578.68,131.11 579.01,130.44 579.34,129.77 579.67,129.11 580.00,128.46 580.33,127.82 580.66,127.20 580.99,126.60 581.32,126.01 581.65,125.46 581.98,124.93 582.31,124.43 582.64,123.96 582.97,123.53 583.30,123.14 583.63,122.79 583.96,122.48 584.29,122.22 584.62,122.00 584.95,121.83 585.28,121.71 585.61,121.64 585.94,121.61 586.27,121.65 586.60,121.72 586.93,121.86 587.26,122.04 587.59,122.27 587.92,122.56 588.25,122.89 588.58,123.27 588.91,123.70 589.24,124.18 589.57,124.70 589.90,125.27 590.23,125.87 590.56,126.52 590.89,127.20 591.23,127.92 591.56,128.67 591.89,129.45 592.22,130.25 592.55,131.08 592.88,131.92 593.21,132.78 593.54,133.65 593.87,134.52 594.20,135.40 594.53,136.28 594.86,137.15 595.19,138.01 595.52,138.87 595.85,139.70 596.18,140.52 596.51,141.32 596.84,142.09 597.17,142.84 597.50,143.55 597.83,144.23 598.16,144.88 598.49,145.49 598.82,146.07 599.15,146.60 599.48,147.10 599.81,147.55 600.14,147.97 600.47,148.34 600.80,148.67 601.13,148.96 601.46,149.20 601.79,149.41 602.12,149.56 602.45,149.68 602.78,149.74 603.11,149.76 603.44,149.74 603.77,149.68 604.10,149.57 604.43,149.42 604.76,149.22 605.09,148.99 605.42,148.72 605.75,148.42 606.08,148.08 606.41,147.70 606.74,147.30 607.07,146.86 607.40,146.40 607.73,145.91 608.06,145.39 608.39,144.86 608.72,144.30 609.05,143.73 609.38,143.14 609.71,142.54 610.04,141.93 610.37,141.31 610.70,140.68 611.03,140.05 611.36,139.42 611.69,138.79 612.02,138.17 612.35,137.55 612.68,136.95 613.02,136.35 613.35,135.78 613.68,135.22 614.01,134.68 614.34,134.17 614.67,133.68 615.00,133.22 615.33,132.79 615.66,132.39 615.99,132.03 616.32,131.70 616.65,131.40 616.98,131.14 617.31,130.92 617.64,130.74 617.97,130.60 618.30,130.49 618.63,130.42 618.96,130.40 619.29,130.42 619.62,130.48 619.95,130.58 620.28,130.72 620.61,130.91 620.94,131.14 621.27,131.40 621.60,131.71 621.93,132.06 622.26,132.44 622.59,132.86 622.92,133.32 623.25,133.80 623.58,134.32 623.91,134.88 624.24,135.46 624.57,136.07 624.90,136.71 625.23,137.37 625.56,138.06 625.89,138.77 626.22,139.50 626.55,140.25 626.88,141.03 627.21,141.82 627.54,142.62 627.87,143.45 628.20,144.29 628.53,145.14 628.86,146.01 629.19,146.89 629.52,147.79 629.85,148.69 630.18,149.61 630.51,150.55 630.84,151.50 631.17,152.47 631.50,153.45 631.83,154.45 632.16,155.47 632.49,156.51 632.82,157.57 633.15,158.65 633.48,159.75 633.81,160.87 634.14,162.02 634.47,163.20 634.80,164.41 635.14,165.65 635.47,166.92 635.80,168.22 636.13,169.56 636.46,170.94 636.79,172.35 637.12,173.81 637.45,175.30 637.78,176.83 638.11,178.41 638.44,180.03 638.77,181.71 639.10,183.43 639.43,185.20 639.76,187.02 640.09,188.89 640.42,190.81 640.75,192.79 641.08,194.82 641.41,196.90 641.74,199.03 642.07,201.21 642.40,203.44 642.73,205.71 643.06,208.03 643.39,210.39 643.72,212.79 644.05,215.22 644.38,217.68 644.71,220.16 645.04,222.67 645.37,225.20 645.70,227.74 646.03,230.30 646.36,232.85 646.69,235.40 647.02,237.95 647.35,240.49 647.68,243.01 648.01,245.51 648.34,247.98 648.67,250.42 649.00,252.83 649.33,255.19 649.66,257.50 649.99,259.76 650.32,261.97 650.65,264.11 650.98,266.19 651.31,268.19 651.64,270.12 651.97,271.97 652.30,273.75 652.63,275.43 652.96,277.02 653.29,278.53 653.62,279.93 653.95,281.24 654.28,282.45 654.61,283.56 654.94,284.57 655.27,285.46 655.60,286.25 655.93,286.94 656.26,287.51 656.59,287.98 656.92,288.34 657.26,288.59 657.59,288.74 657.92,288.79 658.25,288.73 658.58,288.58 658.91,288.34 659.24,288.00 659.57,287.59 659.90,287.09 660.23,286.52 660.56,285.88 660.89,285.17 661.22,284.41 661.55,283.60 661.88,282.75 662.21,281.85 662.54,280.92 662.87,279.97 663.20,278.99 663.53,278.00 663.86,276.99 664.19,275.98 664.52,274.96 664.85,273.95 665.18,272.94 665.51,271.95 665.84,270.97 666.17,270.00 666.50,269.06 666.83,268.14 667.16,267.25 667.49,266.39 667.82,265.56 668.15,264.77 668.48,264.02 668.81,263.30 669.14,262.63 669.47,262.00 669.80,261.41 670.13,260.87 670.46,260.38 670.79,259.93 671.12,259.53 671.45,259.17 671.78,258.86 672.11,258.60 672.44,258.38 672.77,258.20 673.10,258.07 673.43,257.98 673.76,257.93 674.09,257.91 674.42,257.93 674.75,257.99 675.08,258.07 675.41,258.18 675.74,258.31 676.07,258.46 676.40,258.62 676.73,258.80 677.06,258.98 677.39,259.17 677.72,259.35 678.05,259.53 678.38,259.70 678.71,259.85 679.05,259.99 679.38,260.11 679.71,260.21 680.04,260.28 680.37,260.32 680.70,260.32 681.03,260.29 681.36,260.23 681.69,260.12 682.02,259.96 682.35,259.76 682.68,259.50 683.01,259.19 683.34,258.82 683.67,258.39 684.00,257.89 684.33,257.32 684.66,256.68 684.99,255.96 685.32,255.17 685.65,254.29 685.98,253.33 686.31,252.29 686.64,251.16 686.97,249.94 687.30,248.64 687.63,247.24 687.96,245.76 688.29,244.18 688.62,242.51 688.95,240.76 689.28,238.91 689.61,236.98 689.94,234.97 690.27,232.87 690.60,230.70 690.93,228.45 691.26,226.13 691.59,223.74 691.92,221.30 692.25,218.79 692.58,216.23 692.91,213.64 693.24,211.00 693.57,208.33 693.90,205.63 694.23,202.91 694.56,200.18 694.89,197.45 695.22,194.72 695.55,191.99 695.88,189.28 696.21,186.59 696.54,183.92 696.87,181.30 697.20,178.71 697.53,176.16 697.86,173.67 698.19,171.24 698.52,168.87 698.85,166.56 699.18,164.33 699.51,162.18 699.84,160.11 700.17,158.13 700.50,156.24 700.83,154.45 701.17,152.75 701.50,151.16 701.83,149.67 702.16,148.29 702.49,147.03 702.82,145.87 703.15,144.83 703.48,143.90 703.81,143.08 704.14,142.38 704.47,141.79 704.80,141.31 705.13,140.95 705.46,140.69 705.79,140.54 706.12,140.51 706.45,140.58 706.78,140.75 707.11,141.02 707.44,141.39 707.77,141.86 708.10,142.42 708.43,143.06 708.76,143.79 709.09,144.60 709.42,145.48 709.75,146.44 710.08,147.47 710.41,148.56 710.74,149.71 711.07,150.92 711.40,152.18 711.73,153.48 712.06,154.83 712.39,156.21 712.72,157.63 713.05,159.08 713.38,160.56 713.71,162.06 714.04,163.58 714.37,165.11 714.70,166.66 715.03,168.21 715.36,169.77 715.69,171.33 716.02,172.88 716.35,174.44 716.68,175.98 717.01,177.51 717.34,179.03 717.67,180.53 718.00,182.01 718.33,183.47 718.66,184.91 718.99,186.33 719.32,187.72 719.65,189.09 719.98,190.43 720.31,191.74 720.64,193.03 720.97,194.29 721.30,195.53 721.63,196.75 721.96,197.94 722.29,199.10 722.62,200.24 722.95,201.36 723.29,202.46 723.62,203.53 723.95,204.57 724.28,205.59 724.61,206.58 724.94,207.55 725.27,208.50 725.60,209.41 725.93,210.30 726.26,211.16 726.59,212.00 726.92,212.80 727.25,213.58 727.58,214.32 727.91,215.04 728.24,215.72 728.57,216.38 728.90,217.00 729.23,217.59 729.56,218.15 729.89,218.67 730.22,219.17 730.55,219.63 730.88,220.06 731.21,220.45 731.54,220.81 731.87,221.14 732.20,221.44 732.53,221.71 732.86,221.94 733.19,222.14 733.52,222.31 733.85,222.45 734.18,222.56 734.51,222.63 734.84,222.68 735.17,222.70 735.50,222.69 735.83,222.66 736.16,222.59 736.49,222.50 736.82,222.38 737.15,222.24 737.48,222.06 737.81,221.87 738.14,221.65 738.47,221.40 738.80,221.14 739.13,220.86 739.46,220.55 739.79,220.24 740.12,219.90 740.45,219.56 740.78,219.20 741.11,218.84 741.44,218.47 741.77,218.09 742.10,217.72 742.43,217.34 742.76,216.97 743.09,216.60 743.42,216.23 743.75,215.87 744.08,215.51 744.41,215.16 744.74,214.82 745.08,214.48 745.41,214.15 745.74,213.84 746.07,213.53 746.40,213.23 746.73,212.94 747.06,212.65 747.39,212.38 747.72,212.12 748.05,211.86 748.38,211.62 748.71,211.39 749.04,211.16 749.37,210.95 749.70,210.74 750.03,210.55 750.36,210.36 750.69,210.19 751.02,210.02 751.35,209.87 751.68,209.72 752.01,209.59 752.34,209.46 752.67,209.35 753.00,209.25 753.33,209.15 753.66,209.07 753.99,209.00 754.32,208.93 754.65,208.88 754.98,208.84 755.31,208.80 755.64,208.78 755.97,208.76 756.30,208.75 756.63,208.75 756.96,208.75 757.29,208.76 757.62,208.77 757.95,208.79 758.28,208.82 758.61,208.85 758.94,208.88 759.27,208.92 759.60,208.96 759.93,209.02 760.26,209.07 760.59,209.14 760.92,209.22 761.25,209.30 761.58,209.40 761.91,209.50 762.24,209.63 762.57,209.76 762.90,209.91 763.23,210.07 763.56,210.25 763.89,210.45 764.22,210.66 764.55,210.88 764.88,211.12 765.21,211.37 765.54,211.63 765.87,211.90 766.20,212.19 766.53,212.48 766.86,212.79 767.20,213.10 767.53,213.42 767.86,213.75 768.19,214.08 768.52,214.41 768.85,214.75 769.18,215.10 769.51,215.44 769.84,215.79 770.17,216.14 770.50,216.48 770.83,216.83 771.16,217.18 771.49,217.52 771.82,217.87 772.15,218.21 772.48,218.55 772.81,218.89 773.14,219.22 773.47,219.56 773.80,219.89 774.13,220.22 774.46,220.55 774.79,220.88 775.12,221.20 775.45,221.52 775.78,221.84 776.11,222.16 776.44,222.47 776.77,222.77 777.10,223.07 777.43,223.37 777.76,223.66 778.09,223.94 778.42,224.22 778.75,224.49 779.08,224.75 779.41,225.01 779.74,225.26 780.07,225.51 780.40,225.76 780.73,226.00 781.06,226.24 781.39,226.48 781.72,226.72 782.05,226.97 782.38,227.21 782.71,227.46 783.04,227.71 783.37,227.96 783.70,228.22 784.03,228.47 784.36,228.74 784.69,229.00 785.02,229.27 785.35,229.54 785.68,229.81 786.01,230.08 786.34,230.35 786.67,230.62 787.00,230.88 787.33,231.15 787.66,231.40 787.99,231.66 788.32,231.91 788.65,232.16 788.98,232.39 789.32,232.62 789.65,232.85 789.98,233.06 790.31,233.27 790.64,233.46 790.97,233.65 791.30,233.83 791.63,234.00 791.96,234.16 792.29,234.31 792.62,234.44 792.95,234.57 793.28,234.69 793.61,234.80 793.94,234.90 794.27,234.99 794.60,235.07 794.93,235.15 795.26,235.21 795.59,235.27 795.92,235.31 796.25,235.35 796.58,235.38 796.91,235.41 797.24,235.42 797.57,235.42 797.90,235.41 798.23,235.40 798.56,235.37 798.89,235.33 799.22,235.28 799.55,235.22 799.88,235.15 800.21,235.07 800.54,234.99 800.87,234.89 801.20,234.79 801.53,234.68 801.86,234.57 802.19,234.45 802.52,234.32 802.85,234.19 803.18,234.05 803.51,233.91 803.84,233.77 804.17,233.62 804.50,233.46 804.83,233.30 805.16,233.13 805.49,232.95 805.82,232.77 806.15,232.58 806.48,232.39 806.81,232.19 807.14,231.99 807.47,231.77 807.80,231.56 808.13,231.33 808.46,231.10 808.79,230.87 809.12,230.63 809.45,230.38 809.78,230.13 810.11,229.87 810.44,229.61 810.77,229.34 811.11,229.07 811.44,228.80 811.77,228.53 812.10,228.25 812.43,227.97 812.76,227.69 813.09,227.41 813.42,227.13 813.75,226.86 814.08,226.58 814.41,226.30 814.74,226.02 815.07,225.74 815.40,225.47 815.73,225.20 816.06,224.92 816.39,224.65 816.72,224.38 817.05,224.11 817.38,223.84 817.71,223.57 818.04,223.29 818.37,223.01 818.70,222.73 819.03,222.45 819.36,222.16 819.69,221.87 820.02,221.57 820.35,221.27 820.68,220.97 821.01,220.67 821.34,220.37 821.67,220.08 822.00,219.78" fill="none" stroke="#c5221f" stroke-width="2"/>
<text x="662" y="56" font-family="Arial" font-size="12" fill="#c5221f">Experiment</text>
<polyline points="96.00,214.00 96.33,214.00 96.66,214.00 96.99,214.00 97.32,214.00 97.65,214.00 97.98,214.00 98.31,214.00 98.64,214.00 98.97,214.00 99.30,214.00 99.63,214.00 99.96,214.00 100.29,214.00 100.62,214.00 100.95,214.00 101.28,214.00 101.61,214.00 101.94,214.00 102.27,214.00 102.60,214.00 102.93,214.00 103.26,214.00 103.59,214.00 103.92,214.00 104.25,214.00 104.58,214.00 104.91,214.00 105.24,214.00 105.57,214.00 105.90,214.00 106.23,214.00 106.56,214.00 106.89,214.00 107.23,214.00 107.56,214.00 107.89,214.00 108.22,214.00 108.55,214.00 108.88,214.00 109.21,214.00 109.54,214.00 109.87,214.00 110.20,214.00 110.53,214.00 110.86,214.00 111.19,214.00 111.52,214.00 111.85,214.00 112.18,214.00 112.51,214.00 112.84,214.00 113.17,214.00 113.50,214.00 113.83,214.00 114.16,214.01 114.49,214.01 114.82,214.01 115.15,214.01 115.48,214.01 115.81,214.01 116.14,214.01 116.47,214.01 116.80,214.01 117.13,214.01 117.46,214.01 117.79,214.01 118.12,214.01 118.45,214.01 118.78,214.01 119.11,214.01 119.44,214.01 119.77,214.01 120.10,214.01 120.43,214.01 120.76,214.01 121.09,214.01 121.42,214.01 121.75,214.01 122.08,214.01 122.41,214.01 122.74,214.01 123.07,214.01 123.40,214.01 123.73,214.01 124.06,214.01 124.39,214.01 124.72,214.01 125.05,214.01 125.38,214.01 125.71,214.01 126.04,214.01 126.37,214.78 126.70,214.81 127.03,214.83 127.36,214.85 127.69,214.87 128.02,214.90 128.35,214.92 128.68,214.95 129.02,214.98 129.35,215.00 129.68,215.03 130.01,215.06 130.34,215.09 130.67,215.12 131.00,215.15 131.33,215.18 131.66,215.22 131.99,215.25 132.32,215.29 132.65,215.32 132.98,215.36 133.31,215.40 133.64,215.44 133.97,215.48 134.30,215.52 134.63,215.56 134.96,215.60 135.29,215.65 135.62,215.70 135.95,215.74 136.28,215.79 136.61,215.84 136.94,215.89 137.27,215.94 137.60,216.00 137.93,216.05 138.26,216.11 138.59,216.17 138.92,216.23 139.25,216.29 139.58,216.36 139.91,216.42 140.24,216.49 140.57,216.56 140.90,216.63 141.23,216.70 141.56,216.78 141.89,216.86 142.22,216.94 142.55,217.02 142.88,217.10 143.21,217.19 143.54,217.28 143.87,217.37 144.20,217.46 144.53,217.56 144.86,217.65 145.19,217.76 145.52,217.86 145.85,217.97 146.18,218.08 146.51,218.19 146.84,218.30 147.17,218.42 147.50,218.55 147.83,218.67 148.16,218.80 148.49,218.93 148.82,219.07 149.15,219.21 149.48,219.35 149.81,219.50 150.14,219.65 150.47,219.81 150.80,219.97 151.14,220.13 151.47,220.30 151.80,220.47 152.13,220.65 152.46,220.83 152.79,221.02 153.12,221.21 153.45,221.41 153.78,221.61 154.11,221.82 154.44,222.03 154.77,222.25 155.10,222.47 155.43,222.70 155.76,222.94 156.09,223.18 156.42,223.43 156.75,223.69 157.08,223.95 157.41,224.22 157.74,224.50 158.07,224.78 158.40,225.07 158.73,225.37 159.06,225.68 159.39,225.99 159.72,226.31 160.05,226.65 160.38,226.98 160.71,227.33 161.04,227.69 161.37,228.05 161.70,228.43 162.03,228.81 162.36,229.21 162.69,229.61 163.02,230.02 163.35,230.45 163.68,230.88 164.01,231.33 164.34,231.78 164.67,232.25 165.00,232.73 165.33,233.22 165.66,233.72 165.99,234.24 166.32,234.77 166.65,235.31 166.98,235.86 167.31,236.42 167.64,237.00 167.97,237.59 168.30,238.20 168.63,238.82 168.96,239.46 169.29,240.10 169.62,240.77 169.95,241.45 170.28,242.14 170.61,242.85 170.94,243.58 171.27,244.32 171.60,245.07 171.93,245.85 172.26,246.64 172.59,247.44 172.92,248.27 173.26,249.11 173.59,249.97 173.92,250.85 174.25,251.74 174.58,252.65 174.91,253.58 175.24,254.53 175.57,255.50 175.90,256.48 176.23,257.49 176.56,258.51 176.89,259.55 177.22,260.61 177.55,261.69 177.88,262.79 178.21,263.91 178.54,265.05 178.87,266.21 179.20,267.38 179.53,268.58 179.86,269.79 180.19,271.02 180.52,272.27 180.85,273.54 181.18,274.83 181.51,276.14 181.84,277.46 182.17,278.81 182.50,280.17 182.83,281.54 183.16,282.94 183.49,284.35 183.82,285.77 184.15,287.21 184.48,288.67 184.81,290.14 185.14,291.63 185.47,293.12 185.80,294.63 186.13,296.16 186.46,297.69 186.79,299.24 187.12,300.79 187.45,302.35 187.78,303.92 188.11,305.50 188.44,307.08 188.77,308.67 189.10,310.27 189.43,311.86 189.76,313.46 190.09,315.05 190.42,316.65 190.75,318.24 191.08,319.84 191.41,321.42 191.74,323.00 192.07,324.57 192.40,326.14 192.73,327.69 193.06,329.23 193.39,330.76 193.72,332.27 194.05,333.77 194.38,335.25 194.71,336.70 195.05,338.14 195.38,339.56 195.71,340.95 196.04,342.31 196.37,343.64 196.70,344.95 197.03,346.23 197.36,347.47 197.69,348.68 198.02,349.85 198.35,350.99 198.68,352.08 199.01,353.14 199.34,354.15 199.67,355.12 200.00,356.05 200.33,356.93 200.66,357.77 200.99,358.55 201.32,359.29 201.65,359.98 201.98,360.61 202.31,361.20 202.64,361.73 202.97,362.20 203.30,362.62 203.63,362.99 203.96,363.30 204.29,363.55 204.62,363.75 204.95,363.89 205.28,363.97 205.61,364.00 205.94,363.97 206.27,363.88 206.60,363.73 206.93,363.53 207.26,363.27 207.59,362.95 207.92,362.58 208.25,362.15 208.58,361.67 208.91,361.14 209.24,360.55 209.57,359.91 209.90,359.21 210.23,358.47 210.56,357.68 210.89,356.84 211.22,355.95 211.55,355.02 211.88,354.05 212.21,353.03 212.54,351.97 212.87,350.87 213.20,349.73 213.53,348.55 213.86,347.34 214.19,346.09 214.52,344.81 214.85,343.50 215.18,342.16 215.51,340.80 215.84,339.41 216.17,337.99 216.50,336.55 216.83,335.09 217.17,333.61 217.50,332.11 217.83,330.60 218.16,329.07 218.49,327.53 218.82,325.97 219.15,324.41 219.48,322.83 219.81,321.25 220.14,319.67 220.47,318.07 220.80,316.48 221.13,314.88 221.46,313.29 221.79,311.69 222.12,310.10 222.45,308.50 222.78,306.92 223.11,305.33 223.44,303.76 223.77,302.19 224.10,300.62 224.43,299.07 224.76,297.53 225.09,296.00 225.42,294.47 225.75,292.97 226.08,291.47 226.41,289.99 226.74,288.52 227.07,287.06 227.40,285.62 227.73,284.20 228.06,282.79 228.39,281.40 228.72,280.02 229.05,278.66 229.38,277.32 229.71,276.00 230.04,274.70 230.37,273.41 230.70,272.14 231.03,270.89 231.36,269.66 231.69,268.45 232.02,267.26 232.35,266.09 232.68,264.93 233.01,263.80 233.34,262.68 233.67,261.58 234.00,260.51 234.33,259.45 234.66,258.41 234.99,257.39 235.32,256.38 235.65,255.40 235.98,254.44 236.31,253.49 236.64,252.56 236.97,251.65 237.30,250.76 237.63,249.89 237.96,249.03 238.29,248.19 238.62,247.37 238.95,246.56 239.29,245.77 239.62,245.00 239.95,244.25 240.28,243.51 240.61,242.79 240.94,242.08 241.27,241.39 241.60,240.71 241.93,240.05 242.26,239.40 242.59,238.77 242.92,238.15 243.25,237.55 243.58,236.96 243.91,236.38 244.24,235.82 244.57,235.27 244.90,234.73 245.23,234.20 245.56,233.69 245.89,233.19 246.22,232.70 246.55,232.22 246.88,231.76 247.21,231.30 247.54,230.86 247.87,230.43 248.20,230.00 248.53,229.59 248.86,229.19 249.19,228.80 249.52,228.42 249.85,228.04 250.18,227.68 250.51,227.32 250.84,226.98 251.17,226.64 251.50,226.31 251.83,225.99 252.16,225.68 252.49,225.37 252.82,225.08 253.15,224.79 253.48,224.51 253.81,224.23 254.14,223.96 254.47,223.70 254.80,223.45 255.13,223.20 255.46,222.96 255.79,222.73 256.12,222.50 256.45,222.27 256.78,222.06 257.11,221.85 257.44,221.64 257.77,221.44 258.10,221.25 258.43,221.06 258.76,220.87 259.09,220.69 259.42,220.52 259.75,220.35 260.08,220.18 260.41,220.02 260.74,219.86 261.08,219.71 261.41,219.56 261.74,219.41 262.07,219.27 262.40,219.14 262.73,219.00 263.06,218.87 263.39,218.75 263.72,218.62 264.05,218.50 264.38,218.39 264.71,218.28 265.04,218.17 265.37,218.06 265.70,217.96 266.03,217.86 266.36,217.76 266.69,217.66 267.02,217.57 267.35,217.48 267.68,217.39 268.01,217.31 268.34,217.23 268.67,217.15 269.00,217.07 269.33,216.99 269.66,216.92 269.99,216.85 270.32,216.78 270.65,216.72 270.98,216.65 271.31,216.59 271.64,216.53 271.97,216.47 272.30,216.41 272.63,216.36 272.96,216.30 273.29,216.25 273.62,216.20 273.95,216.16 274.28,216.11 274.61,216.06 274.94,216.02 275.27,215.98 275.60,215.94 275.93,215.90 276.26,215.86 276.59,215.83 276.92,215.79 277.25,215.76 277.58,215.73 277.91,215.70 278.24,215.67 278.57,215.64 278.90,215.61 279.23,215.58 279.56,215.56 279.89,215.54 280.22,215.51 280.55,215.49 280.88,215.47 281.21,215.46 281.54,215.44 281.87,215.42 282.20,215.41 282.53,215.39 282.86,215.38 283.20,215.37 283.53,215.35 283.86,215.34 284.19,215.33 284.52,215.33 284.85,215.32 285.18,215.31 285.51,215.31 285.84,215.30 286.17,215.30 286.50,215.30 286.83,215.30 287.16,215.30 287.49,215.30 287.82,215.30 288.15,215.30 288.48,215.30 288.81,215.31 289.14,215.32 289.47,215.32 289.80,215.33 290.13,215.34 290.46,215.35 290.79,215.36 291.12,215.37 291.45,215.38 291.78,215.40 292.11,215.41 292.44,215.43 292.77,215.44 293.10,215.46 293.43,215.48 293.76,215.50 294.09,215.52 294.42,215.55 294.75,215.57 295.08,215.60 295.41,215.62 295.74,215.65 296.07,215.68 296.40,215.71 296.73,215.74 297.06,215.77 297.39,215.80 297.72,215.84 298.05,215.88 298.38,215.91 298.71,215.95 299.04,215.99 299.37,216.04 299.70,216.08 300.03,216.13 300.36,216.17 300.69,216.22 301.02,216.27 301.35,216.32 301.68,216.38 302.01,216.43 302.34,216.49 302.67,216.55 303.00,216.61 303.33,216.67 303.66,216.74 303.99,216.81 304.32,216.88 304.65,216.95 304.98,217.02 305.32,217.10 305.65,217.17 305.98,217.25 306.31,217.34 306.64,217.42 306.97,217.51 307.30,217.60 307.63,217.69 307.96,217.79 308.29,217.89 308.62,217.99 308.95,218.09 309.28,218.20 309.61,218.31 309.94,218.42 310.27,218.54 310.60,218.65 310.93,218.78 311.26,218.90 311.59,219.03 311.92,219.17 312.25,219.30 312.58,219.44 312.91,219.59 313.24,219.74 313.57,219.89 313.90,220.05 314.23,220.21 314.56,220.37 314.89,220.54 315.22,220.72 315.55,220.90 315.88,221.08 316.21,221.27 316.54,221.46 316.87,221.66 317.20,221.86 317.53,222.07 317.86,222.29 318.19,222.51 318.52,222.73 318.85,222.97 319.18,223.21 319.51,223.45 319.84,223.70 320.17,223.96 320.50,224.22 320.83,224.49 321.16,224.77 321.49,225.05 321.82,225.34 322.15,225.64 322.48,225.95 322.81,226.26 323.14,226.58 323.47,226.91 323.80,227.25 324.13,227.59 324.46,227.95 324.79,228.31 325.12,228.68 325.45,229.06 325.78,229.45 326.11,229.85 326.44,230.26 326.77,230.68 327.11,231.10 327.44,231.54 327.77,231.99 328.10,232.45 328.43,232.91 328.76,233.39 329.09,233.88 329.42,234.38 329.75,234.89 330.08,235.42 330.41,235.95 330.74,236.50 331.07,237.06 331.40,237.63 331.73,238.21 332.06,238.80 332.39,239.41 332.72,240.03 333.05,240.66 333.38,241.30 333.71,241.96 334.04,242.63 334.37,243.31 334.70,244.01 335.03,244.72 335.36,245.44 335.69,246.18 336.02,246.93 336.35,247.69 336.68,248.47 337.01,249.26 337.34,250.07 337.67,250.88 338.00,251.72 338.33,252.56 338.66,253.42 338.99,254.29 339.32,255.18 339.65,256.07 339.98,256.99 340.31,257.91 340.64,258.85 340.97,259.80 341.30,260.76 341.63,261.74 341.96,262.72 342.29,263.72 342.62,264.73 342.95,265.75 343.28,266.79 343.61,267.83 343.94,268.88 344.27,269.94 344.60,271.01 344.93,272.09 345.26,273.18 345.59,274.28 345.92,275.38 346.25,276.49 346.58,277.60 346.91,278.72 347.24,279.84 347.57,280.97 347.90,282.10 348.23,283.24 348.56,284.37 348.89,285.50 349.23,286.64 349.56,287.77 349.89,288.90 350.22,290.03 350.55,291.15 350.88,292.27 351.21,293.39 351.54,294.49 351.87,295.59 352.20,296.68 352.53,297.75 352.86,298.82 353.19,299.87 353.52,300.91 353.85,301.94 354.18,302.95 354.51,303.94 354.84,304.91 355.17,305.87 355.50,306.80 355.83,307.71 356.16,308.60 356.49,309.47 356.82,310.31 357.15,311.12 357.48,311.91 357.81,312.67 358.14,313.40 358.47,314.09 358.80,314.76 359.13,315.40 359.46,316.00 359.79,316.57 360.12,317.10 360.45,317.60 360.78,318.06 361.11,318.48 361.44,318.87 361.77,319.22 362.10,319.53 362.43,319.80 362.76,320.03 363.09,320.22 363.42,320.37 363.75,320.48 364.08,320.55 364.41,320.58 364.74,320.57 365.07,320.51 365.40,320.42 365.73,320.29 366.06,320.11 366.39,319.90 366.72,319.64 367.05,319.35 367.38,319.02 367.71,318.65 368.04,318.24 368.37,317.79 368.70,317.31 369.03,316.79 369.36,316.24 369.69,315.65 370.02,315.03 370.35,314.38 370.68,313.69 371.02,312.98 371.35,312.23 371.68,311.46 372.01,310.65 372.34,309.82 372.67,308.97 373.00,308.09 373.33,307.19 373.66,306.26 373.99,305.32 374.32,304.35 374.65,303.37 374.98,302.36 375.31,301.35 375.64,300.31 375.97,299.26 376.30,298.20 376.63,297.13 376.96,296.05 377.29,294.95 377.62,293.85 377.95,292.74 378.28,291.62 378.61,290.50 378.94,289.38 379.27,288.25 379.60,287.11 379.93,285.98 380.26,284.84 380.59,283.71 380.92,282.58 381.25,281.44 381.58,280.32 381.91,279.19 382.24,278.07 382.57,276.95 382.90,275.84 383.23,274.73 383.56,273.64 383.89,272.54 384.22,271.46 384.55,270.39 384.88,269.32 385.21,268.26 385.54,267.22 385.87,266.18 386.20,265.16 386.53,264.14 386.86,263.14 387.19,262.14 387.52,261.16 387.85,260.20 388.18,259.24 388.51,258.30 388.84,257.37 389.17,256.45 389.50,255.54 389.83,254.65 390.16,253.78 390.49,252.91 390.82,252.06 391.15,251.22 391.48,250.40 391.81,249.59 392.14,248.79 392.47,248.01 392.80,247.24 393.14,246.48 393.47,245.74 393.80,245.01 394.13,244.30 394.46,243.59 394.79,242.90 395.12,242.23 395.45,241.56 395.78,240.91 396.11,240.28 396.44,239.65 396.77,239.04 397.10,238.44 397.43,237.85 397.76,237.28 398.09,236.71 398.42,236.16 398.75,235.62 399.08,235.09 399.41,234.58 399.74,234.07 400.07,233.58 400.40,233.09 400.73,232.62 401.06,232.16 401.39,231.70 401.72,231.26 402.05,230.83 402.38,230.41 402.71,229.99 403.04,229.59 403.37,229.20 403.70,228.81 404.03,228.44 404.36,228.07 404.69,227.71 405.02,227.36 405.35,227.02 405.68,226.69 406.01,226.36 406.34,226.04 406.67,225.73 407.00,225.43 407.33,225.13 407.66,224.85 407.99,224.57 408.32,224.29 408.65,224.02 408.98,223.76 409.31,223.51 409.64,223.26 409.97,223.02 410.30,222.78 410.63,222.55 410.96,222.33 411.29,222.11 411.62,221.90 411.95,221.69 412.28,221.49 412.61,221.29 412.94,221.10 413.27,220.91 413.60,220.73 413.93,220.55 414.26,220.37 414.59,220.21 414.92,220.04 415.26,219.88 415.59,219.72 415.92,219.57 416.25,219.42 416.58,219.28 416.91,219.14 417.24,219.00 417.57,218.87 417.90,218.74 418.23,218.61 418.56,218.49 418.89,218.37 419.22,218.25 419.55,218.13 419.88,218.02 420.21,217.92 420.54,217.81 420.87,217.71 421.20,217.61 421.53,217.51 421.86,217.42 422.19,217.32 422.52,217.23 422.85,217.15 423.18,217.06 423.51,216.98 423.84,216.90 424.17,216.82 424.50,216.74 424.83,216.67 425.16,216.59 425.49,216.52 425.82,216.46 426.15,216.39 426.48,216.32 426.81,216.26 427.14,216.20 427.47,216.14 427.80,216.08 428.13,216.02 428.46,215.97 428.79,215.91 429.12,215.86 429.45,215.81 429.78,215.76 430.11,215.71 430.44,215.66 430.77,215.62 431.10,215.57 431.43,215.53 431.76,215.48 432.09,215.44 432.42,215.40 432.75,215.36 433.08,215.33 433.41,215.29 433.74,215.25 434.07,215.22 434.40,215.18 434.73,215.15 435.06,215.12 435.39,215.08 435.72,215.05 436.05,215.02 436.38,214.99 436.71,214.96 437.05,214.94 437.38,214.91 437.71,214.88 438.04,214.86 438.37,214.83 438.70,214.81 439.03,214.78 439.36,214.76 439.69,214.74 440.02,214.71 440.35,214.69 440.68,214.67 441.01,214.65 441.34,214.63 441.67,214.61 442.00,214.59 442.33,214.57 442.66,214.55 442.99,214.53 443.32,214.52 443.65,214.50 443.98,214.01 444.31,214.01 444.64,214.01 444.97,214.01 445.30,214.01 445.63,214.01 445.96,214.01 446.29,214.01 446.62,214.01 446.95,214.01 447.28,214.01 447.61,214.01 447.94,214.01 448.27,214.01 448.60,214.00 448.93,214.00 449.26,214.00 449.59,214.00 449.92,214.00 450.25,214.00 450.58,214.00 450.91,214.00 451.24,214.00 451.57,214.00 451.90,214.00 452.23,214.00 452.56,214.00 452.89,214.00 453.22,214.00 453.55,214.00 453.88,214.00 454.21,214.00 454.54,214.00 454.87,214.00 455.20,214.00 455.53,214.00 455.86,214.00 456.19,214.00 456.52,214.00 456.85,214.00 457.18,214.00 457.51,214.00 457.84,214.00 458.17,214.00 458.50,214.00 458.83,214.00 459.17,214.00 459.50,214.00 459.83,214.00 460.16,214.00 460.49,214.00 460.82,214.00 461.15,214.00 461.48,214.00 461.81,214.00 462.14,214.00 462.47,214.00 462.80,214.00 463.13,214.00 463.46,214.00 463.79,213.99 464.12,213.99 464.45,213.99 464.78,213.99 465.11,213.99 465.44,213.99 465.77,213.99 466.10,213.99 466.43,213.99 466.76,213.99 467.09,213.99 467.42,213.99 467.75,213.99 468.08,213.99 468.41,213.99 468.74,213.99 469.07,213.99 469.40,213.99 469.73,213.99 470.06,213.99 470.39,213.99 470.72,213.99 471.05,213.99 471.38,213.99 471.71,213.99 472.04,213.99 472.37,213.99 472.70,213.99 473.03,213.99 473.36,213.99 473.69,213.99 474.02,213.98 474.35,213.25 474.68,213.23 475.01,213.21 475.34,213.18 475.67,213.16 476.00,213.13 476.33,213.11 476.66,213.08 476.99,213.05 477.32,213.02 477.65,212.99 477.98,212.96 478.31,212.93 478.64,212.90 478.97,212.87 479.30,212.84 479.63,212.80 479.96,212.77 480.29,212.73 480.62,212.70 480.95,212.66 481.29,212.62 481.62,212.58 481.95,212.54 482.28,212.50 482.61,212.45 482.94,212.41 483.27,212.36 483.60,212.32 483.93,212.27 484.26,212.22 484.59,212.17 484.92,212.12 485.25,212.06 485.58,212.01 485.91,211.95 486.24,211.89 486.57,211.83 486.90,211.77 487.23,211.71 487.56,211.65 487.89,211.58 488.22,211.51 488.55,211.44 488.88,211.37 489.21,211.30 489.54,211.22 489.87,211.14 490.20,211.06 490.53,210.98 490.86,210.90 491.19,210.81 491.52,210.72 491.85,210.63 492.18,210.53 492.51,210.44 492.84,210.34 493.17,210.24 493.50,210.13 493.83,210.02 494.16,209.91 494.49,209.80 494.82,209.68 495.15,209.56 495.48,209.44 495.81,209.31 496.14,209.19 496.47,209.05 496.80,208.92 497.13,208.77 497.46,208.63 497.79,208.48 498.12,208.33 498.45,208.17 498.78,208.01 499.11,207.85 499.44,207.68 499.77,207.51 500.10,207.33 500.43,207.14 500.76,206.96 501.09,206.76 501.42,206.57 501.75,206.36 502.08,206.15 502.41,205.94 502.74,205.72 503.08,205.49 503.41,205.26 503.74,205.02 504.07,204.78 504.40,204.53 504.73,204.27 505.06,204.01 505.39,203.74 505.72,203.46 506.05,203.17 506.38,202.88 506.71,202.58 507.04,202.27 507.37,201.96 507.70,201.64 508.03,201.30 508.36,200.96 508.69,200.61 509.02,200.26 509.35,199.89 509.68,199.51 510.01,199.13 510.34,198.73 510.67,198.33 511.00,197.91 511.33,197.48 511.66,197.05 511.99,196.60 512.32,196.14 512.65,195.67 512.98,195.19 513.31,194.70 513.64,194.20 513.97,193.68 514.30,193.15 514.63,192.61 514.96,192.05 515.29,191.49 515.62,190.91 515.95,190.31 516.28,189.70 516.61,189.08 516.94,188.44 517.27,187.79 517.60,187.13 517.93,186.45 518.26,185.75 518.59,185.04 518.92,184.31 519.25,183.57 519.58,182.81 519.91,182.03 520.24,181.24 520.57,180.43 520.90,179.60 521.23,178.76 521.56,177.89 521.89,177.02 522.22,176.12 522.55,175.20 522.88,174.27 523.21,173.32 523.54,172.35 523.87,171.36 524.20,170.35 524.53,169.33 524.86,168.28 525.20,167.22 525.53,166.13 525.86,165.03 526.19,163.91 526.52,162.77 526.85,161.61 527.18,160.43 527.51,159.23 527.84,158.02 528.17,156.78 528.50,155.53 528.83,154.25 529.16,152.96 529.49,151.65 529.82,150.33 530.15,148.98 530.48,147.62 530.81,146.24 531.14,144.84 531.47,143.43 531.80,142.00 532.13,140.56 532.46,139.10 532.79,137.63 533.12,136.14 533.45,134.64 533.78,133.13 534.11,131.60 534.44,130.07 534.77,128.52 535.10,126.96 535.43,125.40 535.76,123.83 536.09,122.25 536.42,120.67 536.75,119.08 537.08,117.48 537.41,115.89 537.74,114.29 538.07,112.69 538.40,111.10 538.73,109.50 539.06,107.91 539.39,106.33 539.72,104.75 540.05,103.18 540.38,101.62 540.71,100.07 541.04,98.53 541.37,97.00 541.70,95.49 542.03,94.00 542.36,92.52 542.69,91.07 543.02,89.63 543.35,88.22 543.68,86.84 544.01,85.48 544.34,84.15 544.67,82.85 545.00,81.58 545.33,80.34 545.66,79.14 545.99,77.97 546.32,76.84 546.65,75.75 546.98,74.70 547.32,73.69 547.65,72.73 547.98,71.81 548.31,70.93 548.64,70.10 548.97,69.33 549.30,68.60 549.63,67.92 549.96,67.29 550.29,66.72 550.62,66.19 550.95,65.73 551.28,65.31 551.61,64.96 551.94,64.66 552.27,64.41 552.60,64.22 552.93,64.09 553.26,64.02 553.59,64.00 553.92,64.04 554.25,64.14 554.58,64.29 554.91,64.51 555.24,64.78 555.57,65.10 555.90,65.48 556.23,65.92 556.56,66.41 556.89,66.95 557.22,67.55 557.55,68.20 557.88,68.90 558.21,69.65 558.54,70.45 558.87,71.29 559.20,72.19 559.53,73.13 559.86,74.11 560.19,75.14 560.52,76.20 560.85,77.31 561.18,78.46 561.51,79.64 561.84,80.85 562.17,82.11 562.50,83.39 562.83,84.70 563.16,86.05 563.49,87.42 563.82,88.81 564.15,90.23 564.48,91.68 564.81,93.14 565.14,94.62 565.47,96.12 565.80,97.64 566.13,99.17 566.46,100.72 566.79,102.27 567.12,103.84 567.45,105.41 567.78,106.99 568.11,108.58 568.44,110.17 568.77,111.77 569.11,113.37 569.44,114.96 569.77,116.56 570.10,118.15 570.43,119.74 570.76,121.33 571.09,122.91 571.42,124.49 571.75,126.06 572.08,127.62 572.41,129.17 572.74,130.71 573.07,132.24 573.40,133.76 573.73,135.27 574.06,136.76 574.39,138.24 574.72,139.71 575.05,141.16 575.38,142.60 575.71,144.02 576.04,145.43 576.37,146.82 576.70,148.19 577.03,149.55 577.36,150.88 577.69,152.20 578.02,153.50 578.35,154.79 578.68,156.05 579.01,157.30 579.34,158.53 579.67,159.73 580.00,160.92 580.33,162.09 580.66,163.25 580.99,164.38 581.32,165.49 581.65,166.58 581.98,167.66 582.31,168.72 582.64,169.75 582.97,170.77 583.30,171.77 583.63,172.75 583.96,173.71 584.29,174.66 584.62,175.58 584.95,176.49 585.28,177.38 585.61,178.25 585.94,179.10 586.27,179.94 586.60,180.76 586.93,181.56 587.26,182.35 587.59,183.12 587.92,183.87 588.25,184.60 588.58,185.32 588.91,186.03 589.24,186.72 589.57,187.39 589.90,188.05 590.23,188.70 590.56,189.33 590.89,189.94 591.23,190.55 591.56,191.13 591.89,191.71 592.22,192.27 592.55,192.82 592.88,193.35 593.21,193.88 593.54,194.39 593.87,194.89 594.20,195.37 594.53,195.85 594.86,196.31 595.19,196.77 595.52,197.21 595.85,197.64 596.18,198.06 596.51,198.47 596.84,198.87 597.17,199.26 597.50,199.64 597.83,200.01 598.16,200.38 598.49,200.73 598.82,201.07 599.15,201.41 599.48,201.74 599.81,202.06 600.14,202.37 600.47,202.67 600.80,202.97 601.13,203.25 601.46,203.54 601.79,203.81 602.12,204.08 602.45,204.34 602.78,204.59 603.11,204.83 603.44,205.07 603.77,205.31 604.10,205.54 604.43,205.76 604.76,205.97 605.09,206.18 605.42,206.39 605.75,206.59 606.08,206.78 606.41,206.97 606.74,207.16 607.07,207.34 607.40,207.51 607.73,207.68 608.06,207.85 608.39,208.01 608.72,208.16 609.05,208.31 609.38,208.46 609.71,208.61 610.04,208.75 610.37,208.88 610.70,209.02 611.03,209.15 611.36,209.27 611.69,209.39 612.02,209.51 612.35,209.63 612.68,209.74 613.02,209.85 613.35,209.96 613.68,210.06 614.01,210.16 614.34,210.26 614.67,210.35 615.00,210.44 615.33,210.53 615.66,210.62 615.99,210.70 616.32,210.78 616.65,210.86 616.98,210.94 617.31,211.02 617.64,211.09 617.97,211.16 618.30,211.23 618.63,211.29 618.96,211.36 619.29,211.42 619.62,211.48 619.95,211.54 620.28,211.59 620.61,211.65 620.94,211.70 621.27,211.75 621.60,211.80 621.93,211.85 622.26,211.90 622.59,211.94 622.92,211.98 623.25,212.03 623.58,212.07 623.91,212.11 624.24,212.14 624.57,212.18 624.90,212.21 625.23,212.25 625.56,212.28 625.89,212.31 626.22,212.34 626.55,212.37 626.88,212.39 627.21,212.42 627.54,212.44 627.87,212.47 628.20,212.49 628.53,212.51 628.86,212.53 629.19,212.55 629.52,212.56 629.85,212.58 630.18,212.60 630.51,212.61 630.84,212.62 631.17,212.64 631.50,212.65 631.83,212.66 632.16,212.67 632.49,212.67 632.82,212.68 633.15,212.69 633.48,212.69 633.81,212.70 634.14,212.70 634.47,212.70 634.80,212.70 635.14,212.70 635.47,212.70 635.80,212.70 636.13,212.70 636.46,212.69 636.79,212.69 637.12,212.68 637.45,212.68 637.78,212.67 638.11,212.66 638.44,212.65 638.77,212.64 639.10,212.63 639.43,212.61 639.76,212.60 640.09,212.58 640.42,212.57 640.75,212.55 641.08,212.53 641.41,212.51 641.74,212.49 642.07,212.47 642.40,212.45 642.73,212.42 643.06,212.40 643.39,212.37 643.72,212.35 644.05,212.32 644.38,212.29 644.71,212.26 645.04,212.22 645.37,212.19 645.70,212.15 646.03,212.12 646.36,212.08 646.69,212.04 647.02,212.00 647.35,211.95 647.68,211.91 648.01,211.86 648.34,211.82 648.67,211.77 649.00,211.72 649.33,211.67 649.66,211.61 649.99,211.56 650.32,211.50 650.65,211.44 650.98,211.38 651.31,211.31 651.64,211.25 651.97,211.18 652.30,211.11 652.63,211.04 652.96,210.97 653.29,210.89 653.62,210.81 653.95,210.73 654.28,210.65 654.61,210.56 654.94,210.48 655.27,210.39 655.60,210.29 655.93,210.20 656.26,210.10 656.59,210.00 656.92,209.89 657.26,209.79 657.59,209.67 657.92,209.56 658.25,209.44 658.58,209.32 658.91,209.20 659.24,209.07 659.57,208.94 659.90,208.81 660.23,208.67 660.56,208.53 660.89,208.39 661.22,208.24 661.55,208.08 661.88,207.93 662.21,207.77 662.54,207.60 662.87,207.43 663.20,207.25 663.53,207.07 663.86,206.89 664.19,206.70 664.52,206.51 664.85,206.31 665.18,206.10 665.51,205.89 665.84,205.68 666.17,205.45 666.50,205.23 666.83,204.99 667.16,204.76 667.49,204.51 667.82,204.26 668.15,204.00 668.48,203.74 668.81,203.47 669.14,203.19 669.47,202.90 669.80,202.61 670.13,202.31 670.46,202.00 670.79,201.69 671.12,201.37 671.45,201.04 671.78,200.70 672.11,200.35 672.44,200.00 672.77,199.63 673.10,199.26 673.43,198.88 673.76,198.49 674.09,198.09 674.42,197.68 674.75,197.26 675.08,196.83 675.41,196.39 675.74,195.94 676.07,195.48 676.40,195.01 676.73,194.53 677.06,194.04 677.39,193.54 677.72,193.02 678.05,192.50 678.38,191.96 678.71,191.41 679.05,190.85 679.38,190.28 679.71,189.70 680.04,189.10 680.37,188.49 680.70,187.87 681.03,187.24 681.36,186.59 681.69,185.93 682.02,185.26 682.35,184.58 682.68,183.88 683.01,183.17 683.34,182.44 683.67,181.70 684.00,180.95 684.33,180.18 684.66,179.40 684.99,178.61 685.32,177.81 685.65,176.99 685.98,176.15 686.31,175.30 686.64,174.44 686.97,173.57 687.30,172.68 687.63,171.78 687.96,170.87 688.29,169.94 688.62,169.00 688.95,168.05 689.28,167.08 689.61,166.11 689.94,165.12 690.27,164.12 690.60,163.11 690.93,162.08 691.26,161.05 691.59,160.01 691.92,158.95 692.25,157.89 692.58,156.82 692.91,155.74 693.24,154.65 693.57,153.55 693.90,152.45 694.23,151.34 694.56,150.22 694.89,149.10 695.22,147.98 695.55,146.85 695.88,145.72 696.21,144.59 696.54,143.45 696.87,142.32 697.20,141.18 697.53,140.05 697.86,138.92 698.19,137.79 698.52,136.67 698.85,135.55 699.18,134.44 699.51,133.33 699.84,132.24 700.17,131.15 700.50,130.08 700.83,129.01 701.17,127.96 701.50,126.92 701.83,125.90 702.16,124.89 702.49,123.90 702.82,122.93 703.15,121.98 703.48,121.05 703.81,120.14 704.14,119.26 704.47,118.40 704.80,117.56 705.13,116.75 705.46,115.97 705.79,115.22 706.12,114.49 706.45,113.80 706.78,113.14 707.11,112.51 707.44,111.91 707.77,111.35 708.10,110.82 708.43,110.33 708.76,109.87 709.09,109.45 709.42,109.07 709.75,108.73 710.08,108.43 710.41,108.16 710.74,107.94 711.07,107.75 711.40,107.61 711.73,107.51 712.06,107.44 712.39,107.42 712.72,107.44 713.05,107.50 713.38,107.60 713.71,107.74 714.04,107.92 714.37,108.14 714.70,108.40 715.03,108.70 715.36,109.04 715.69,109.41 716.02,109.83 716.35,110.28 716.68,110.77 717.01,111.29 717.34,111.85 717.67,112.44 718.00,113.07 718.33,113.73 718.66,114.42 718.99,115.14 719.32,115.89 719.65,116.67 719.98,117.47 720.31,118.31 720.64,119.17 720.97,120.05 721.30,120.95 721.63,121.88 721.96,122.83 722.29,123.80 722.62,124.79 722.95,125.79 723.29,126.81 723.62,127.85 723.95,128.90 724.28,129.96 724.61,131.04 724.94,132.12 725.27,133.22 725.60,134.32 725.93,135.43 726.26,136.55 726.59,137.67 726.92,138.80 727.25,139.93 727.58,141.06 727.91,142.20 728.24,143.33 728.57,144.47 728.90,145.60 729.23,146.73 729.56,147.86 729.89,148.99 730.22,150.11 730.55,151.22 730.88,152.33 731.21,153.44 731.54,154.53 731.87,155.62 732.20,156.71 732.53,157.78 732.86,158.84 733.19,159.90 733.52,160.94 733.85,161.98 734.18,163.00 734.51,164.02 734.84,165.02 735.17,166.01 735.50,166.99 735.83,167.95 736.16,168.91 736.49,169.85 736.82,170.78 737.15,171.69 737.48,172.59 737.81,173.48 738.14,174.36 738.47,175.22 738.80,176.07 739.13,176.91 739.46,177.73 739.79,178.54 740.12,179.33 740.45,180.11 740.78,180.88 741.11,181.63 741.44,182.37 741.77,183.10 742.10,183.81 742.43,184.51 742.76,185.20 743.09,185.87 743.42,186.54 743.75,187.18 744.08,187.82 744.41,188.44 744.74,189.05 745.08,189.65 745.41,190.24 745.74,190.81 746.07,191.37 746.40,191.92 746.73,192.46 747.06,192.98 747.39,193.50 747.72,194.00 748.05,194.50 748.38,194.98 748.71,195.45 749.04,195.91 749.37,196.36 749.70,196.80 750.03,197.23 750.36,197.66 750.69,198.07 751.02,198.47 751.35,198.86 751.68,199.24 752.01,199.62 752.34,199.98 752.67,200.34 753.00,200.69 753.33,201.03 753.66,201.36 753.99,201.69 754.32,202.00 754.65,202.31 754.98,202.61 755.31,202.91 755.64,203.19 755.97,203.47 756.30,203.75 756.63,204.01 756.96,204.27 757.29,204.53 757.62,204.77 757.95,205.01 758.28,205.25 758.61,205.48 758.94,205.70 759.27,205.92 759.60,206.13 759.93,206.34 760.26,206.54 760.59,206.74 760.92,206.93 761.25,207.11 761.58,207.30 761.91,207.47 762.24,207.65 762.57,207.81 762.90,207.98 763.23,208.14 763.56,208.29 763.89,208.45 764.22,208.59 764.55,208.74 764.88,208.88 765.21,209.01 765.54,209.15 765.87,209.28 766.20,209.40 766.53,209.52 766.86,209.64 767.20,209.76 767.53,209.87 767.86,209.98 768.19,210.09 768.52,210.20 768.85,210.30 769.18,210.40 769.51,210.49 769.84,210.59 770.17,210.68 770.50,210.77 770.83,210.86 771.16,210.94 771.49,211.02 771.82,211.10 772.15,211.18 772.48,211.26 772.81,211.33 773.14,211.40 773.47,211.47 773.80,211.54 774.13,211.61 774.46,211.67 774.79,211.73 775.12,211.80 775.45,211.86 775.78,211.91 776.11,211.97 776.44,212.02 776.77,212.08 777.10,212.13 777.43,212.18 777.76,212.23 778.09,212.28 778.42,212.32 778.75,212.37 779.08,212.41 779.41,212.46 779.74,212.50 780.07,212.54 780.40,212.58 780.73,212.62 781.06,212.65 781.39,212.69 781.72,212.73 782.05,212.76 782.38,212.79 782.71,212.83 783.04,212.86 783.37,212.89 783.70,212.92 784.03,212.95 784.36,212.98 784.69,213.01 785.02,213.03 785.35,213.06 785.68,213.08 786.01,213.11 786.34,213.13 786.67,213.16 787.00,213.18 787.33,213.20 787.66,213.22 787.99,213.25 788.32,213.27 788.65,213.29 788.98,213.30 789.32,213.32 789.65,213.34 789.98,213.36 790.31,213.38 790.64,213.39 790.97,213.41 791.30,213.43 791.63,213.44 791.96,213.99 792.29,213.99 792.62,213.99 792.95,213.99 793.28,213.99 793.61,213.99 793.94,213.99 794.27,213.99 794.60,213.99 794.93,213.99 795.26,213.99 795.59,213.99 795.92,213.99 796.25,213.99 796.58,213.99 796.91,213.99 797.24,213.99 797.57,213.99 797.90,213.99 798.23,213.99 798.56,213.99 798.89,213.99 799.22,213.99 799.55,213.99 799.88,213.99 800.21,213.99 800.54,213.99 800.87,213.99 801.20,213.99 801.53,213.99 801.86,213.99 802.19,213.99 802.52,213.99 802.85,214.00 803.18,214.00 803.51,214.00 803.84,214.00 804.17,214.00 804.50,214.00 804.83,214.00 805.16,214.00 805.49,214.00 805.82,214.00 806.15,214.00 806.48,214.00 806.81,214.00 807.14,214.00 807.47,214.00 807.80,214.00 808.13,214.00 808.46,214.00 808.79,214.00 809.12,214.00 809.45,214.00 809.78,214.00 810.11,214.00 810.44,214.00 810.77,214.00 811.11,214.00 811.44,214.00 811.77,214.00 812.10,214.00 812.43,214.00 812.76,214.00 813.09,214.00 813.42,214.00 813.75,214.00 814.08,214.00 814.41,214.00 814.74,214.00 815.07,214.00 815.40,214.00 815.73,214.00 816.06,214.00 816.39,214.00 816.72,214.00 817.05,214.00 817.38,214.00 817.71,214.00 818.04,214.00 818.37,214.00 818.70,214.00 819.03,214.00 819.36,214.00 819.69,214.00 820.02,214.00 820.35,214.00 820.68,214.00 821.01,214.00 821.34,214.00 821.67,214.00 822.00,214.00" fill="none" stroke="#2f6f9f" stroke-width="2"/>
<text x="662" y="74" font-family="Arial" font-size="12" fill="#2f6f9f">Simulation</text>
</svg>