<svg xmlns="http://www.w3.org/2000/svg" width="850" height="460" viewBox="0 0 850 460">
<rect width="100%" height="100%" fill="white"/>
<text x="425.0" y="23" text-anchor="middle" font-family="Arial" font-size="15">N=4 measured short-circuit current selected cycle</text>
<line x1="96" y1="394" x2="822" y2="394" stroke="#333"/>
<line x1="96" y1="34" x2="96" y2="394" stroke="#333"/>
<text x="425.0" y="442" text-anchor="middle" font-family="Arial" font-size="12">Time (s)</text>
<text x="16" y="230.0" text-anchor="middle" transform="rotate(-90 16 230.0)" font-family="Arial" font-size="12">Short-circuit current (uA)</text>
<line x1="96" y1="34.0" x2="822" y2="34.0" stroke="#e1e5ea"/>
<text x="88" y="38.0" text-anchor="end" font-family="Arial" font-size="10">6.06</text>
<line x1="96" y1="106.0" x2="822" y2="106.0" stroke="#e1e5ea"/>
<text x="88" y="110.0" text-anchor="end" font-family="Arial" font-size="10">3.34</text>
<line x1="96" y1="178.0" x2="822" y2="178.0" stroke="#e1e5ea"/>
<text x="88" y="182.0" text-anchor="end" font-family="Arial" font-size="10">0.62</text>
<line x1="96" y1="250.0" x2="822" y2="250.0" stroke="#e1e5ea"/>
<text x="88" y="254.0" text-anchor="end" font-family="Arial" font-size="10">-2.10</text>
<line x1="96" y1="322.0" x2="822" y2="322.0" stroke="#e1e5ea"/>
<text x="88" y="326.0" text-anchor="end" font-family="Arial" font-size="10">-4.82</text>
<line x1="96" y1="394.0" x2="822" y2="394.0" stroke="#e1e5ea"/>
<text x="88" y="398.0" text-anchor="end" font-family="Arial" font-size="10">-7.54</text>
<line x1="96" y1="194.4" x2="822" y2="194.4" stroke="#999" stroke-dasharray="4 4"/>
<polyline points="96.00,188.75 96.20,189.09 96.40,189.43 96.60,189.76 96.80,190.10 97.01,190.44 97.21,190.78 97.41,191.11 97.61,191.45 97.81,191.78 98.01,192.12 98.21,192.45 98.41,192.79 98.61,193.12 98.81,193.45 99.02,193.78 99.22,194.11 99.42,194.43 99.62,194.75 99.82,195.07 100.02,195.38 100.22,195.69 100.42,196.00 100.62,196.30 100.83,196.59 101.03,196.88 101.23,197.17 101.43,197.45 101.63,197.72 101.83,197.99 102.03,198.26 102.23,198.52 102.43,198.77 102.63,199.02 102.84,199.26 103.04,199.50 103.24,199.74 103.44,199.97 103.64,200.20 103.84,200.42 104.04,200.64 104.24,200.86 104.44,201.07 104.65,201.28 104.85,201.48 105.05,201.69 105.25,201.89 105.45,202.08 105.65,202.28 105.85,202.47 106.05,202.66 106.25,202.84 106.45,203.03 106.66,203.21 106.86,203.39 107.06,203.57 107.26,203.75 107.46,203.93 107.66,204.11 107.86,204.28 108.06,204.46 108.26,204.63 108.47,204.81 108.67,204.99 108.87,205.17 109.07,205.35 109.27,205.53 109.47,205.72 109.67,205.90 109.87,206.10 110.07,206.29 110.27,206.49 110.48,206.69 110.68,206.90 110.88,207.11 111.08,207.32 111.28,207.54 111.48,207.77 111.68,208.00 111.88,208.23 112.08,208.47 112.29,208.72 112.49,208.97 112.69,209.22 112.89,209.48 113.09,209.74 113.29,210.01 113.49,210.28 113.69,210.55 113.89,210.83 114.09,211.11 114.30,211.39 114.50,211.67 114.70,211.96 114.90,212.24 115.10,212.53 115.30,212.81 115.50,213.10 115.70,213.39 115.90,213.67 116.11,213.96 116.31,214.25 116.51,214.53 116.71,214.82 116.91,215.10 117.11,215.38 117.31,215.66 117.51,215.95 117.71,216.23 117.91,216.51 118.12,216.78 118.32,217.06 118.52,217.34 118.72,217.61 118.92,217.89 119.12,218.16 119.32,218.44 119.52,218.71 119.72,218.99 119.93,219.26 120.13,219.54 120.33,219.82 120.53,220.09 120.73,220.37 120.93,220.65 121.13,220.93 121.33,221.21 121.53,221.49 121.73,221.77 121.94,222.06 122.14,222.35 122.34,222.64 122.54,222.93 122.74,223.22 122.94,223.52 123.14,223.82 123.34,224.13 123.54,224.43 123.75,224.75 123.95,225.06 124.15,225.38 124.35,225.70 124.55,226.03 124.75,226.36 124.95,226.70 125.15,227.05 125.35,227.40 125.55,227.75 125.76,228.11 125.96,228.48 126.16,228.85 126.36,229.23 126.56,229.62 126.76,230.01 126.96,230.41 127.16,230.82 127.36,231.24 127.57,231.67 127.77,232.10 127.97,232.54 128.17,232.99 128.37,233.45 128.57,233.92 128.77,234.40 128.97,234.88 129.17,235.38 129.37,235.88 129.58,236.39 129.78,236.92 129.98,237.45 130.18,237.99 130.38,238.53 130.58,239.09 130.78,239.65 130.98,240.22 131.18,240.80 131.39,241.38 131.59,241.97 131.79,242.57 131.99,243.18 132.19,243.78 132.39,244.40 132.59,245.02 132.79,245.64 132.99,246.27 133.19,246.90 133.40,247.53 133.60,248.17 133.80,248.80 134.00,249.44 134.20,250.08 134.40,250.72 134.60,251.36 134.80,252.00 135.00,252.64 135.21,253.28 135.41,253.91 135.61,254.55 135.81,255.18 136.01,255.81 136.21,256.45 136.41,257.08 136.61,257.71 136.81,258.34 137.01,258.97 137.22,259.60 137.42,260.23 137.62,260.87 137.82,261.50 138.02,262.14 138.22,262.77 138.42,263.41 138.62,264.05 138.82,264.70 139.03,265.34 139.23,265.99 139.43,266.64 139.63,267.30 139.83,267.96 140.03,268.62 140.23,269.29 140.43,269.96 140.63,270.64 140.83,271.32 141.04,272.01 141.24,272.70 141.44,273.40 141.64,274.10 141.84,274.81 142.04,275.53 142.24,276.25 142.44,276.99 142.64,277.72 142.85,278.47 143.05,279.22 143.25,279.98 143.45,280.74 143.65,281.52 143.85,282.30 144.05,283.09 144.25,283.89 144.45,284.69 144.65,285.51 144.86,286.33 145.06,287.16 145.26,288.00 145.46,288.85 145.66,289.70 145.86,290.57 146.06,291.44 146.26,292.33 146.46,293.22 146.67,294.11 146.87,295.02 147.07,295.94 147.27,296.86 147.47,297.79 147.67,298.73 147.87,299.68 148.07,300.64 148.27,301.60 148.47,302.56 148.68,303.54 148.88,304.52 149.08,305.50 149.28,306.49 149.48,307.48 149.68,308.48 149.88,309.48 150.08,310.47 150.28,311.47 150.49,312.48 150.69,313.48 150.89,314.47 151.09,315.47 151.29,316.46 151.49,317.45 151.69,318.44 151.89,319.42 152.09,320.39 152.29,321.36 152.50,322.32 152.70,323.27 152.90,324.20 153.10,325.13 153.30,326.05 153.50,326.95 153.70,327.84 153.90,328.72 154.10,329.58 154.31,330.43 154.51,331.26 154.71,332.08 154.91,332.88 155.11,333.67 155.31,334.44 155.51,335.19 155.71,335.93 155.91,336.65 156.11,337.35 156.32,338.04 156.52,338.72 156.72,339.37 156.92,340.01 157.12,340.64 157.32,341.25 157.52,341.84 157.72,342.42 157.92,342.99 158.13,343.54 158.33,344.07 158.53,344.60 158.73,345.11 158.93,345.60 159.13,346.08 159.33,346.56 159.53,347.01 159.73,347.46 159.93,347.90 160.14,348.32 160.34,348.74 160.54,349.14 160.74,349.54 160.94,349.93 161.14,350.31 161.34,350.68 161.54,351.04 161.74,351.40 161.95,351.74 162.15,352.08 162.35,352.42 162.55,352.75 162.75,353.07 162.95,353.38 163.15,353.70 163.35,354.00 163.55,354.30 163.75,354.60 163.96,354.90 164.16,355.19 164.36,355.47 164.56,355.76 164.76,356.04 164.96,356.31 165.16,356.59 165.36,356.86 165.56,357.13 165.77,357.40 165.97,357.66 166.17,357.92 166.37,358.18 166.57,358.44 166.77,358.69 166.97,358.93 167.17,359.18 167.37,359.42 167.57,359.65 167.78,359.88 167.98,360.11 168.18,360.33 168.38,360.55 168.58,360.76 168.78,360.97 168.98,361.17 169.18,361.37 169.38,361.56 169.59,361.75 169.79,361.93 169.99,362.10 170.19,362.27 170.39,362.43 170.59,362.59 170.79,362.74 170.99,362.88 171.19,363.02 171.39,363.15 171.60,363.27 171.80,363.38 172.00,363.49 172.20,363.58 172.40,363.67 172.60,363.75 172.80,363.81 173.00,363.87 173.20,363.92 173.41,363.95 173.61,363.98 173.81,364.00 174.01,364.00 174.21,363.99 174.41,363.97 174.61,363.94 174.81,363.90 175.01,363.85 175.21,363.78 175.42,363.71 175.62,363.62 175.82,363.52 176.02,363.40 176.22,363.28 176.42,363.15 176.62,363.00 176.82,362.84 177.02,362.68 177.23,362.50 177.43,362.31 177.63,362.12 177.83,361.91 178.03,361.70 178.23,361.48 178.43,361.25 178.63,361.01 178.83,360.77 179.03,360.52 179.24,360.27 179.44,360.02 179.64,359.76 179.84,359.50 180.04,359.23 180.24,358.96 180.44,358.69 180.64,358.42 180.84,358.15 181.05,357.88 181.25,357.60 181.45,357.33 181.65,357.06 181.85,356.78 182.05,356.51 182.25,356.23 182.45,355.95 182.65,355.68 182.85,355.40 183.06,355.12 183.26,354.85 183.46,354.57 183.66,354.29 183.86,354.01 184.06,353.73 184.26,353.45 184.46,353.16 184.66,352.88 184.87,352.59 185.07,352.31 185.27,352.02 185.47,351.73 185.67,351.43 185.87,351.14 186.07,350.84 186.27,350.54 186.47,350.24 186.67,349.93 186.88,349.62 187.08,349.31 187.28,349.00 187.48,348.69 187.68,348.37 187.88,348.05 188.08,347.73 188.28,347.41 188.48,347.08 188.69,346.76 188.89,346.43 189.09,346.10 189.29,345.77 189.49,345.44 189.69,345.11 189.89,344.78 190.09,344.45 190.29,344.11 190.49,343.78 190.70,343.44 190.90,343.11 191.10,342.77 191.30,342.44 191.50,342.10 191.70,341.76 191.90,341.42 192.10,341.08 192.30,340.74 192.51,340.40 192.71,340.05 192.91,339.70 193.11,339.36 193.31,339.01 193.51,338.65 193.71,338.30 193.91,337.95 194.11,337.59 194.31,337.24 194.52,336.88 194.72,336.52 194.92,336.17 195.12,335.81 195.32,335.46 195.52,335.10 195.72,334.75 195.92,334.40 196.12,334.05 196.33,333.70 196.53,333.36 196.73,333.01 196.93,332.68 197.13,332.34 197.33,332.01 197.53,331.68 197.73,331.36 197.93,331.04 198.13,330.72 198.34,330.41 198.54,330.11 198.74,329.81 198.94,329.52 199.14,329.24 199.34,328.96 199.54,328.69 199.74,328.43 199.94,328.18 200.15,327.94 200.35,327.70 200.55,327.48 200.75,327.26 200.95,327.06 201.15,326.86 201.35,326.67 201.55,326.49 201.75,326.32 201.95,326.16 202.16,326.01 202.36,325.86 202.56,325.73 202.76,325.60 202.96,325.47 203.16,325.36 203.36,325.25 203.56,325.14 203.76,325.04 203.97,324.94 204.17,324.85 204.37,324.76 204.57,324.68 204.77,324.60 204.97,324.51 205.17,324.43 205.37,324.35 205.57,324.27 205.77,324.19 205.98,324.11 206.18,324.02 206.38,323.93 206.58,323.84 206.78,323.75 206.98,323.65 207.18,323.54 207.38,323.43 207.58,323.32 207.79,323.19 207.99,323.06 208.19,322.93 208.39,322.78 208.59,322.63 208.79,322.47 208.99,322.30 209.19,322.12 209.39,321.93 209.59,321.73 209.80,321.51 210.00,321.29 210.20,321.05 210.40,320.80 210.60,320.53 210.80,320.25 211.00,319.95 211.20,319.64 211.40,319.31 211.61,318.96 211.81,318.60 212.01,318.21 212.21,317.80 212.41,317.38 212.61,316.93 212.81,316.46 213.01,315.97 213.21,315.45 213.41,314.91 213.62,314.35 213.82,313.76 214.02,313.15 214.22,312.51 214.42,311.84 214.62,311.15 214.82,310.44 215.02,309.70 215.22,308.93 215.43,308.13 215.63,307.31 215.83,306.46 216.03,305.58 216.23,304.67 216.43,303.74 216.63,302.78 216.83,301.79 217.03,300.78 217.23,299.73 217.44,298.66 217.64,297.56 217.84,296.43 218.04,295.27 218.24,294.08 218.44,292.87 218.64,291.63 218.84,290.36 219.04,289.06 219.25,287.73 219.45,286.38 219.65,285.00 219.85,283.59 220.05,282.15 220.25,280.69 220.45,279.19 220.65,277.67 220.85,276.13 221.05,274.55 221.26,272.95 221.46,271.32 221.66,269.66 221.86,267.97 222.06,266.26 222.26,264.53 222.46,262.77 222.66,260.98 222.86,259.17 223.07,257.33 223.27,255.47 223.47,253.59 223.67,251.68 223.87,249.76 224.07,247.81 224.27,245.84 224.47,243.86 224.67,241.85 224.87,239.83 225.08,237.80 225.28,235.75 225.48,233.68 225.68,231.60 225.88,229.52 226.08,227.42 226.28,225.31 226.48,223.20 226.68,221.08 226.89,218.95 227.09,216.82 227.29,214.69 227.49,212.56 227.69,210.44 227.89,208.31 228.09,206.19 228.29,204.08 228.49,201.97 228.69,199.87 228.90,197.79 229.10,195.72 229.30,193.66 229.50,191.62 229.70,189.60 229.90,187.59 230.10,185.61 230.30,183.65 230.50,181.72 230.71,179.81 230.91,177.93 231.11,176.08 231.31,174.26 231.51,172.47 231.71,170.72 231.91,169.00 232.11,167.31 232.31,165.67 232.51,164.06 232.72,162.49 232.92,160.96 233.12,159.47 233.32,158.03 233.52,156.63 233.72,155.27 233.92,153.96 234.12,152.70 234.32,151.49 234.53,150.32 234.73,149.20 234.93,148.13 235.13,147.11 235.33,146.14 235.53,145.23 235.73,144.36 235.93,143.55 236.13,142.79 236.33,142.08 236.54,141.43 236.74,140.83 236.94,140.28 237.14,139.79 237.34,139.35 237.54,138.96 237.74,138.62 237.94,138.34 238.14,138.11 238.35,137.93 238.55,137.81 238.75,137.73 238.95,137.71 239.15,137.73 239.35,137.81 239.55,137.93 239.75,138.10 239.95,138.33 240.15,138.60 240.36,138.91 240.56,139.27 240.76,139.68 240.96,140.13 241.16,140.63 241.36,141.16 241.56,141.74 241.76,142.35 241.96,143.00 242.17,143.69 242.37,144.41 242.57,145.17 242.77,145.95 242.97,146.77 243.17,147.62 243.37,148.49 243.57,149.39 243.77,150.32 243.97,151.26 244.18,152.23 244.38,153.22 244.58,154.22 244.78,155.24 244.98,156.28 245.18,157.33 245.38,158.39 245.58,159.46 245.78,160.53 245.99,161.62 246.19,162.71 246.39,163.80 246.59,164.90 246.79,166.00 246.99,167.09 247.19,168.19 247.39,169.28 247.59,170.36 247.79,171.44 248.00,172.52 248.20,173.58 248.40,174.64 248.60,175.68 248.80,176.71 249.00,177.73 249.20,178.74 249.40,179.73 249.60,180.71 249.81,181.67 250.01,182.61 250.21,183.53 250.41,184.44 250.61,185.32 250.81,186.19 251.01,187.03 251.21,187.85 251.41,188.65 251.61,189.42 251.82,190.17 252.02,190.89 252.22,191.59 252.42,192.26 252.62,192.91 252.82,193.53 253.02,194.13 253.22,194.70 253.42,195.24 253.63,195.76 253.83,196.25 254.03,196.72 254.23,197.16 254.43,197.57 254.63,197.97 254.83,198.33 255.03,198.68 255.23,199.00 255.43,199.30 255.64,199.58 255.84,199.83 256.04,200.07 256.24,200.29 256.44,200.48 256.64,200.66 256.84,200.82 257.04,200.97 257.24,201.09 257.45,201.21 257.65,201.30 257.85,201.39 258.05,201.46 258.25,201.51 258.45,201.56 258.65,201.60 258.85,201.62 259.05,201.64 259.25,201.64 259.46,201.65 259.66,201.64 259.86,201.63 260.06,201.62 260.26,201.61 260.46,201.59 260.66,201.58 260.86,201.57 261.06,201.56 261.27,201.55 261.47,201.55 261.67,201.55 261.87,201.56 262.07,201.58 262.27,201.60 262.47,201.63 262.67,201.67 262.87,201.72 263.07,201.78 263.28,201.85 263.48,201.93 263.68,202.03 263.88,202.13 264.08,202.25 264.28,202.38 264.48,202.53 264.68,202.69 264.88,202.86 265.09,203.05 265.29,203.26 265.49,203.47 265.69,203.71 265.89,203.96 266.09,204.23 266.29,204.51 266.49,204.82 266.69,205.13 266.89,205.47 267.10,205.83 267.30,206.20 267.50,206.59 267.70,207.00 267.90,207.44 268.10,207.89 268.30,208.36 268.50,208.85 268.70,209.37 268.91,209.90 269.11,210.46 269.31,211.04 269.51,211.64 269.71,212.26 269.91,212.90 270.11,213.57 270.31,214.26 270.51,214.96 270.71,215.69 270.92,216.44 271.12,217.21 271.32,218.00 271.52,218.81 271.72,219.64 271.92,220.49 272.12,221.35 272.32,222.23 272.52,223.13 272.73,224.04 272.93,224.97 273.13,225.91 273.33,226.87 273.53,227.84 273.73,228.82 273.93,229.81 274.13,230.82 274.33,231.84 274.53,232.87 274.74,233.91 274.94,234.96 275.14,236.01 275.34,237.08 275.54,238.16 275.74,239.25 275.94,240.34 276.14,241.44 276.34,242.55 276.55,243.66 276.75,244.78 276.95,245.91 277.15,247.04 277.35,248.18 277.55,249.32 277.75,250.46 277.95,251.60 278.15,252.74 278.35,253.89 278.56,255.03 278.76,256.17 278.96,257.31 279.16,258.44 279.36,259.58 279.56,260.70 279.76,261.82 279.96,262.94 280.16,264.04 280.36,265.14 280.57,266.23 280.77,267.31 280.97,268.38 281.17,269.44 281.37,270.49 281.57,271.52 281.77,272.54 281.97,273.54 282.17,274.53 282.38,275.50 282.58,276.45 282.78,277.39 282.98,278.30 283.18,279.19 283.38,280.06 283.58,280.91 283.78,281.73 283.98,282.53 284.18,283.30 284.39,284.04 284.59,284.76 284.79,285.45 284.99,286.11 285.19,286.74 285.39,287.33 285.59,287.90 285.79,288.43 285.99,288.93 286.20,289.40 286.40,289.83 286.60,290.23 286.80,290.59 287.00,290.92 287.20,291.21 287.40,291.47 287.60,291.69 287.80,291.87 288.00,292.02 288.21,292.13 288.41,292.21 288.61,292.25 288.81,292.26 289.01,292.23 289.21,292.17 289.41,292.08 289.61,291.95 289.81,291.79 290.02,291.60 290.22,291.37 290.42,291.12 290.62,290.83 290.82,290.52 291.02,290.17 291.22,289.80 291.42,289.40 291.62,288.97 291.82,288.51 292.03,288.02 292.23,287.50 292.43,286.96 292.63,286.39 292.83,285.80 293.03,285.18 293.23,284.53 293.43,283.86 293.63,283.16 293.84,282.45 294.04,281.71 294.24,280.95 294.44,280.16 294.64,279.36 294.84,278.54 295.04,277.69 295.24,276.83 295.44,275.95 295.64,275.06 295.85,274.15 296.05,273.22 296.25,272.28 296.45,271.32 296.65,270.36 296.85,269.38 297.05,268.38 297.25,267.38 297.45,266.37 297.66,265.36 297.86,264.33 298.06,263.30 298.26,262.26 298.46,261.22 298.66,260.17 298.86,259.12 299.06,258.07 299.26,257.01 299.46,255.96 299.67,254.91 299.87,253.86 300.07,252.81 300.27,251.77 300.47,250.74 300.67,249.71 300.87,248.69 301.07,247.68 301.27,246.68 301.48,245.70 301.68,244.72 301.88,243.76 302.08,242.82 302.28,241.89 302.48,240.97 302.68,240.08 302.88,239.19 303.08,238.33 303.28,237.49 303.49,236.66 303.69,235.86 303.89,235.07 304.09,234.30 304.29,233.56 304.49,232.83 304.69,232.12 304.89,231.44 305.09,230.78 305.30,230.13 305.50,229.51 305.70,228.91 305.90,228.33 306.10,227.77 306.30,227.23 306.50,226.71 306.70,226.21 306.90,225.73 307.10,225.27 307.31,224.83 307.51,224.41 307.71,224.01 307.91,223.63 308.11,223.26 308.31,222.91 308.51,222.58 308.71,222.27 308.91,221.97 309.12,221.69 309.32,221.43 309.52,221.18 309.72,220.95 309.92,220.74 310.12,220.53 310.32,220.35 310.52,220.17 310.72,220.01 310.92,219.87 311.13,219.73 311.33,219.61 311.53,219.50 311.73,219.40 311.93,219.31 312.13,219.23 312.33,219.16 312.53,219.09 312.73,219.04 312.94,218.99 313.14,218.94 313.34,218.91 313.54,218.88 313.74,218.86 313.94,218.84 314.14,218.83 314.34,218.83 314.54,218.83 314.74,218.84 314.95,218.85 315.15,218.87 315.35,218.89 315.55,218.92 315.75,218.96 315.95,219.00 316.15,219.04 316.35,219.10 316.55,219.16 316.76,219.22 316.96,219.29 317.16,219.37 317.36,219.45 317.56,219.54 317.76,219.64 317.96,219.74 318.16,219.85 318.36,219.97 318.56,220.09 318.77,220.22 318.97,220.35 319.17,220.50 319.37,220.64 319.57,220.80 319.77,220.96 319.97,221.13 320.17,221.31 320.37,221.50 320.58,221.69 320.78,221.90 320.98,222.11 321.18,222.33 321.38,222.56 321.58,222.80 321.78,223.05 321.98,223.31 322.18,223.57 322.38,223.85 322.59,224.13 322.79,224.43 322.99,224.73 323.19,225.04 323.39,225.35 323.59,225.68 323.79,226.01 323.99,226.34 324.19,226.69 324.40,227.03 324.60,227.38 324.80,227.74 325.00,228.09 325.20,228.45 325.40,228.81 325.60,229.18 325.80,229.54 326.00,229.91 326.20,230.27 326.41,230.63 326.61,230.99 326.81,231.35 327.01,231.71 327.21,232.07 327.41,232.42 327.61,232.76 327.81,233.10 328.01,233.44 328.22,233.77 328.42,234.10 328.62,234.42 328.82,234.74 329.02,235.05 329.22,235.35 329.42,235.64 329.62,235.93 329.82,236.21 330.02,236.48 330.23,236.75 330.43,237.01 330.63,237.26 330.83,237.50 331.03,237.73 331.23,237.96 331.43,238.17 331.63,238.38 331.83,238.58 332.04,238.76 332.24,238.94 332.44,239.11 332.64,239.26 332.84,239.41 333.04,239.54 333.24,239.67 333.44,239.78 333.64,239.88 333.84,239.97 334.05,240.05 334.25,240.12 334.45,240.18 334.65,240.23 334.85,240.26 335.05,240.29 335.25,240.31 335.45,240.32 335.65,240.31 335.86,240.30 336.06,240.28 336.26,240.25 336.46,240.22 336.66,240.17 336.86,240.12 337.06,240.06 337.26,239.99 337.46,239.92 337.66,239.84 337.87,239.75 338.07,239.66 338.27,239.56 338.47,239.46 338.67,239.35 338.87,239.23 339.07,239.11 339.27,238.99 339.47,238.86 339.68,238.73 339.88,238.59 340.08,238.46 340.28,238.32 340.48,238.17 340.68,238.03 340.88,237.89 341.08,237.75 341.28,237.60 341.48,237.46 341.69,237.32 341.89,237.18 342.09,237.04 342.29,236.90 342.49,236.76 342.69,236.62 342.89,236.48 343.09,236.35 343.29,236.21 343.50,236.08 343.70,235.95 343.90,235.82 344.10,235.69 344.30,235.57 344.50,235.44 344.70,235.32 344.90,235.19 345.10,235.07 345.30,234.95 345.51,234.83 345.71,234.71 345.91,234.59 346.11,234.47 346.31,234.35 346.51,234.24 346.71,234.12 346.91,234.00 347.11,233.89 347.32,233.77 347.52,233.66 347.72,233.54 347.92,233.43 348.12,233.31 348.32,233.20 348.52,233.08 348.72,232.97 348.92,232.86 349.12,232.74 349.33,232.63 349.53,232.52 349.73,232.41 349.93,232.29 350.13,232.18 350.33,232.07 350.53,231.96 350.73,231.85 350.93,231.74 351.14,231.62 351.34,231.51 351.54,231.40 351.74,231.28 351.94,231.17 352.14,231.05 352.34,230.93 352.54,230.81 352.74,230.69 352.94,230.56 353.15,230.43 353.35,230.30 353.55,230.16 353.75,230.03 353.95,229.89 354.15,229.74 354.35,229.60 354.55,229.45 354.75,229.30 354.96,229.15 355.16,229.00 355.36,228.84 355.56,228.69 355.76,228.53 355.96,228.37 356.16,228.22 356.36,228.06 356.56,227.90 356.76,227.74 356.97,227.58 357.17,227.43 357.37,227.27 357.57,227.11 357.77,226.96 357.97,226.80 358.17,226.65 358.37,226.50 358.57,226.35 358.78,226.20 358.98,226.05 359.18,225.90 359.38,225.75 359.58,225.61 359.78,225.47 359.98,225.32 360.18,225.19 360.38,225.05 360.58,224.92 360.79,224.79 360.99,224.66 361.19,224.54 361.39,224.43 361.59,224.31 361.79,224.21 361.99,224.10 362.19,224.01 362.39,223.91 362.60,223.82 362.80,223.74 363.00,223.66 363.20,223.59 363.40,223.52 363.60,223.46 363.80,223.40 364.00,223.34 364.20,223.29 364.40,223.24 364.61,223.20 364.81,223.16 365.01,223.13 365.21,223.10 365.41,223.07 365.61,223.05 365.81,223.03 366.01,223.01 366.21,223.00 366.42,222.99 366.62,222.98 366.82,222.98 367.02,222.97 367.22,222.97 367.42,222.98 367.62,222.98 367.82,222.99 368.02,223.00 368.22,223.01 368.43,223.02 368.63,223.03 368.83,223.05 369.03,223.06 369.23,223.08 369.43,223.10 369.63,223.12 369.83,223.14 370.03,223.16 370.24,223.19 370.44,223.21 370.64,223.23 370.84,223.26 371.04,223.28 371.24,223.30 371.44,223.33 371.64,223.35 371.84,223.37 372.04,223.39 372.25,223.40 372.45,223.42 372.65,223.43 372.85,223.43 373.05,223.44 373.25,223.44 373.45,223.44 373.65,223.43 373.85,223.42 374.06,223.41 374.26,223.39 374.46,223.37 374.66,223.35 374.86,223.32 375.06,223.29 375.26,223.26 375.46,223.22 375.66,223.18 375.86,223.14 376.07,223.09 376.27,223.04 376.47,222.99 376.67,222.94 376.87,222.88 377.07,222.83 377.27,222.77 377.47,222.71 377.67,222.65 377.88,222.59 378.08,222.52 378.28,222.46 378.48,222.39 378.68,222.33 378.88,222.26 379.08,222.19 379.28,222.13 379.48,222.06 379.68,221.99 379.89,221.93 380.09,221.86 380.29,221.80 380.49,221.73 380.69,221.67 380.89,221.62 381.09,221.56 381.29,221.51 381.49,221.47 381.70,221.42 381.90,221.38 382.10,221.35 382.30,221.32 382.50,221.30 382.70,221.28 382.90,221.26 383.10,221.26 383.30,221.25 383.50,221.25 383.71,221.26 383.91,221.27 384.11,221.29 384.31,221.32 384.51,221.34 384.71,221.38 384.91,221.42 385.11,221.46 385.31,221.51 385.52,221.57 385.72,221.63 385.92,221.69 386.12,221.76 386.32,221.84 386.52,221.92 386.72,222.00 386.92,222.09 387.12,222.19 387.32,222.29 387.53,222.39 387.73,222.49 387.93,222.61 388.13,222.72 388.33,222.84 388.53,222.96 388.73,223.09 388.93,223.22 389.13,223.36 389.34,223.50 389.54,223.64 389.74,223.79 389.94,223.95 390.14,224.11 390.34,224.27 390.54,224.44 390.74,224.61 390.94,224.78 391.14,224.97 391.35,225.15 391.55,225.34 391.75,225.53 391.95,225.73 392.15,225.93 392.35,226.13 392.55,226.34 392.75,226.55 392.95,226.76 393.16,226.97 393.36,227.18 393.56,227.39 393.76,227.61 393.96,227.82 394.16,228.04 394.36,228.26 394.56,228.47 394.76,228.69 394.96,228.91 395.17,229.12 395.37,229.34 395.57,229.56 395.77,229.78 395.97,230.00 396.17,230.22 396.37,230.45 396.57,230.67 396.77,230.89 396.98,231.12 397.18,231.35 397.38,231.58 397.58,231.81 397.78,232.04 397.98,232.28 398.18,232.52 398.38,232.77 398.58,233.01 398.78,233.26 398.99,233.51 399.19,233.77 399.39,234.03 399.59,234.30 399.79,234.57 399.99,234.85 400.19,235.13 400.39,235.42 400.59,235.71 400.80,236.02 401.00,236.33 401.20,236.65 401.40,236.98 401.60,237.32 401.80,237.66 402.00,238.02 402.20,238.39 402.40,238.77 402.60,239.15 402.81,239.55 403.01,239.96 403.21,240.38 403.41,240.80 403.61,241.24 403.81,241.69 404.01,242.15 404.21,242.62 404.41,243.10 404.62,243.59 404.82,244.08 405.02,244.59 405.22,245.11 405.42,245.63 405.62,246.16 405.82,246.70 406.02,247.25 406.22,247.81 406.42,248.37 406.63,248.94 406.83,249.52 407.03,250.11 407.23,250.70 407.43,251.29 407.63,251.89 407.83,252.50 408.03,253.11 408.23,253.73 408.44,254.34 408.64,254.97 408.84,255.59 409.04,256.22 409.24,256.86 409.44,257.49 409.64,258.13 409.84,258.77 410.04,259.41 410.24,260.06 410.45,260.70 410.65,261.34 410.85,261.99 411.05,262.63 411.25,263.28 411.45,263.92 411.65,264.56 411.85,265.19 412.05,265.83 412.26,266.46 412.46,267.08 412.66,267.71 412.86,268.32 413.06,268.93 413.26,269.53 413.46,270.12 413.66,270.71 413.86,271.28 414.06,271.85 414.27,272.41 414.47,272.95 414.67,273.49 414.87,274.01 415.07,274.52 415.27,275.02 415.47,275.50 415.67,275.97 415.87,276.43 416.08,276.88 416.28,277.31 416.48,277.73 416.68,278.13 416.88,278.52 417.08,278.90 417.28,279.26 417.48,279.61 417.68,279.95 417.88,280.27 418.09,280.57 418.29,280.87 418.49,281.15 418.69,281.41 418.89,281.67 419.09,281.91 419.29,282.13 419.49,282.35 419.69,282.55 419.90,282.75 420.10,282.93 420.30,283.10 420.50,283.26 420.70,283.42 420.90,283.56 421.10,283.70 421.30,283.83 421.50,283.95 421.70,284.07 421.91,284.18 422.11,284.28 422.31,284.38 422.51,284.47 422.71,284.56 422.91,284.64 423.11,284.71 423.31,284.78 423.51,284.85 423.72,284.90 423.92,284.96 424.12,285.01 424.32,285.05 424.52,285.08 424.72,285.11 424.92,285.14 425.12,285.15 425.32,285.17 425.52,285.17 425.73,285.17 425.93,285.16 426.13,285.15 426.33,285.12 426.53,285.10 426.73,285.06 426.93,285.02 427.13,284.97 427.33,284.91 427.54,284.85 427.74,284.77 427.94,284.69 428.14,284.61 428.34,284.51 428.54,284.41 428.74,284.29 428.94,284.17 429.14,284.05 429.34,283.91 429.55,283.77 429.75,283.62 429.95,283.47 430.15,283.30 430.35,283.13 430.55,282.95 430.75,282.77 430.95,282.58 431.15,282.38 431.36,282.17 431.56,281.96 431.76,281.73 431.96,281.51 432.16,281.27 432.36,281.03 432.56,280.78 432.76,280.52 432.96,280.26 433.16,279.99 433.37,279.72 433.57,279.44 433.77,279.15 433.97,278.86 434.17,278.56 434.37,278.25 434.57,277.94 434.77,277.62 434.97,277.30 435.18,276.98 435.38,276.65 435.58,276.31 435.78,275.98 435.98,275.64 436.18,275.29 436.38,274.95 436.58,274.60 436.78,274.25 436.98,273.90 437.19,273.54 437.39,273.18 437.59,272.82 437.79,272.46 437.99,272.10 438.19,271.73 438.39,271.37 438.59,271.00 438.79,270.64 439.00,270.27 439.20,269.91 439.40,269.55 439.60,269.19 439.80,268.83 440.00,268.48 440.20,268.13 440.40,267.78 440.60,267.44 440.80,267.10 441.01,266.78 441.21,266.46 441.41,266.14 441.61,265.84 441.81,265.55 442.01,265.26 442.21,264.98 442.41,264.72 442.61,264.46 442.82,264.22 443.02,263.99 443.22,263.77 443.42,263.56 443.62,263.36 443.82,263.18 444.02,263.00 444.22,262.84 444.42,262.70 444.62,262.56 444.83,262.44 445.03,262.33 445.23,262.23 445.43,262.14 445.63,262.07 445.83,262.01 446.03,261.96 446.23,261.93 446.43,261.91 446.64,261.90 446.84,261.91 447.04,261.92 447.24,261.96 447.44,262.00 447.64,262.06 447.84,262.14 448.04,262.22 448.24,262.32 448.44,262.44 448.65,262.57 448.85,262.71 449.05,262.87 449.25,263.04 449.45,263.23 449.65,263.43 449.85,263.65 450.05,263.88 450.25,264.13 450.46,264.39 450.66,264.67 450.86,264.96 451.06,265.26 451.26,265.58 451.46,265.91 451.66,266.25 451.86,266.61 452.06,266.98 452.26,267.35 452.47,267.74 452.67,268.14 452.87,268.54 453.07,268.95 453.27,269.37 453.47,269.80 453.67,270.22 453.87,270.66 454.07,271.09 454.28,271.53 454.48,271.97 454.68,272.41 454.88,272.85 455.08,273.28 455.28,273.72 455.48,274.15 455.68,274.57 455.88,274.99 456.08,275.41 456.29,275.81 456.49,276.21 456.69,276.60 456.89,276.98 457.09,277.36 457.29,277.72 457.49,278.08 457.69,278.42 457.89,278.76 458.10,279.09 458.30,279.41 458.50,279.71 458.70,280.01 458.90,280.30 459.10,280.57 459.30,280.84 459.50,281.10 459.70,281.34 459.90,281.58 460.11,281.80 460.31,282.02 460.51,282.23 460.71,282.43 460.91,282.63 461.11,282.81 461.31,282.99 461.51,283.15 461.71,283.31 461.92,283.46 462.12,283.61 462.32,283.74 462.52,283.87 462.72,283.99 462.92,284.10 463.12,284.20 463.32,284.30 463.52,284.39 463.72,284.47 463.93,284.54 464.13,284.61 464.33,284.67 464.53,284.72 464.73,284.77 464.93,284.81 465.13,284.84 465.33,284.86 465.53,284.88 465.74,284.90 465.94,284.90 466.14,284.90 466.34,284.90 466.54,284.88 466.74,284.86 466.94,284.83 467.14,284.79 467.34,284.75 467.54,284.70 467.75,284.63 467.95,284.57 468.15,284.49 468.35,284.40 468.55,284.31 468.75,284.21 468.95,284.10 469.15,283.98 469.35,283.86 469.56,283.73 469.76,283.59 469.96,283.45 470.16,283.30 470.36,283.14 470.56,282.98 470.76,282.81 470.96,282.64 471.16,282.46 471.36,282.28 471.57,282.10 471.77,281.91 471.97,281.71 472.17,281.52 472.37,281.31 472.57,281.11 472.77,280.90 472.97,280.69 473.17,280.47 473.38,280.25 473.58,280.02 473.78,279.79 473.98,279.56 474.18,279.32 474.38,279.08 474.58,278.83 474.78,278.57 474.98,278.31 475.18,278.05 475.39,277.77 475.59,277.49 475.79,277.21 475.99,276.92 476.19,276.62 476.39,276.32 476.59,276.01 476.79,275.70 476.99,275.38 477.20,275.06 477.40,274.73 477.60,274.40 477.80,274.06 478.00,273.72 478.20,273.37 478.40,273.02 478.60,272.66 478.80,272.30 479.00,271.94 479.21,271.57 479.41,271.19 479.61,270.82 479.81,270.44 480.01,270.06 480.21,269.68 480.41,269.29 480.61,268.91 480.81,268.52 481.02,268.13 481.22,267.75 481.42,267.36 481.62,266.97 481.82,266.58 482.02,266.19 482.22,265.80 482.42,265.40 482.62,265.01 482.82,264.62 483.03,264.22 483.23,263.82 483.43,263.43 483.63,263.03 483.83,262.64 484.03,262.24 484.23,261.84 484.43,261.44 484.63,261.05 484.84,260.65 485.04,260.26 485.24,259.86 485.44,259.47 485.64,259.07 485.84,258.68 486.04,258.29 486.24,257.90 486.44,257.51 486.64,257.13 486.85,256.74 487.05,256.36 487.25,255.99 487.45,255.61 487.65,255.24 487.85,254.87 488.05,254.50 488.25,254.14 488.45,253.78 488.66,253.43 488.86,253.07 489.06,252.73 489.26,252.38 489.46,252.04 489.66,251.71 489.86,251.38 490.06,251.05 490.26,250.73 490.46,250.42 490.67,250.11 490.87,249.80 491.07,249.50 491.27,249.20 491.47,248.91 491.67,248.62 491.87,248.34 492.07,248.06 492.27,247.79 492.48,247.52 492.68,247.25 492.88,246.99 493.08,246.74 493.28,246.49 493.48,246.25 493.68,246.01 493.88,245.78 494.08,245.56 494.28,245.33 494.49,245.12 494.69,244.91 494.89,244.70 495.09,244.50 495.29,244.31 495.49,244.12 495.69,243.93 495.89,243.74 496.09,243.56 496.30,243.38 496.50,243.21 496.70,243.03 496.90,242.86 497.10,242.69 497.30,242.53 497.50,242.36 497.70,242.20 497.90,242.04 498.10,241.88 498.31,241.72 498.51,241.57 498.71,241.42 498.91,241.27 499.11,241.12 499.31,240.97 499.51,240.82 499.71,240.68 499.91,240.53 500.12,240.39 500.32,240.24 500.52,240.10 500.72,239.95 500.92,239.81 501.12,239.66 501.32,239.51 501.52,239.36 501.72,239.21 501.92,239.05 502.13,238.89 502.33,238.73 502.53,238.57 502.73,238.40 502.93,238.22 503.13,238.04 503.33,237.86 503.53,237.67 503.73,237.47 503.94,237.27 504.14,237.06 504.34,236.84 504.54,236.62 504.74,236.40 504.94,236.16 505.14,235.93 505.34,235.68 505.54,235.43 505.74,235.18 505.95,234.92 506.15,234.66 506.35,234.40 506.55,234.13 506.75,233.86 506.95,233.58 507.15,233.31 507.35,233.03 507.55,232.75 507.76,232.47 507.96,232.19 508.16,231.91 508.36,231.63 508.56,231.35 508.76,231.07 508.96,230.79 509.16,230.51 509.36,230.24 509.56,229.96 509.77,229.69 509.97,229.42 510.17,229.16 510.37,228.90 510.57,228.65 510.77,228.40 510.97,228.15 511.17,227.91 511.37,227.67 511.58,227.44 511.78,227.22 511.98,227.00 512.18,226.79 512.38,226.58 512.58,226.38 512.78,226.18 512.98,225.99 513.18,225.81 513.38,225.64 513.59,225.46 513.79,225.30 513.99,225.14 514.19,224.99 514.39,224.84 514.59,224.69 514.79,224.56 514.99,224.42 515.19,224.29 515.40,224.16 515.60,224.04 515.80,223.92 516.00,223.80 516.20,223.68 516.40,223.57 516.60,223.46 516.80,223.35 517.00,223.25 517.20,223.15 517.41,223.05 517.61,222.95 517.81,222.86 518.01,222.77 518.21,222.68 518.41,222.59 518.61,222.51 518.81,222.43 519.01,222.36 519.22,222.28 519.42,222.21 519.62,222.15 519.82,222.08 520.02,222.03 520.22,221.97 520.42,221.92 520.62,221.87 520.82,221.83 521.02,221.80 521.23,221.76 521.43,221.74 521.63,221.71 521.83,221.69 522.03,221.68 522.23,221.66 522.43,221.66 522.63,221.65 522.83,221.65 523.04,221.66 523.24,221.67 523.44,221.68 523.64,221.69 523.84,221.71 524.04,221.73 524.24,221.76 524.44,221.79 524.64,221.82 524.84,221.85 525.05,221.89 525.25,221.93 525.45,221.97 525.65,222.01 525.85,222.06 526.05,222.10 526.25,222.15 526.45,222.20 526.65,222.25 526.86,222.30 527.06,222.35 527.26,222.40 527.46,222.45 527.66,222.51 527.86,222.56 528.06,222.61 528.26,222.66 528.46,222.71 528.66,222.75 528.87,222.79 529.07,222.83 529.27,222.87 529.47,222.90 529.67,222.94 529.87,222.96 530.07,222.98 530.27,223.00 530.47,223.02 530.68,223.03 530.88,223.03 531.08,223.03 531.28,223.02 531.48,223.01 531.68,222.99 531.88,222.97 532.08,222.94 532.28,222.90 532.48,222.86 532.69,222.81 532.89,222.75 533.09,222.69 533.29,222.62 533.49,222.54 533.69,222.45 533.89,222.36 534.09,222.25 534.29,222.14 534.50,222.02 534.70,221.90 534.90,221.76 535.10,221.62 535.30,221.46 535.50,221.30 535.70,221.13 535.90,220.94 536.10,220.75 536.30,220.54 536.51,220.33 536.71,220.10 536.91,219.87 537.11,219.62 537.31,219.37 537.51,219.10 537.71,218.83 537.91,218.54 538.11,218.25 538.32,217.95 538.52,217.64 538.72,217.32 538.92,216.99 539.12,216.66 539.32,216.32 539.52,215.98 539.72,215.63 539.92,215.28 540.12,214.92 540.33,214.56 540.53,214.20 540.73,213.83 540.93,213.46 541.13,213.09 541.33,212.71 541.53,212.34 541.73,211.96 541.93,211.58 542.14,211.21 542.34,210.83 542.54,210.45 542.74,210.07 542.94,209.69 543.14,209.31 543.34,208.93 543.54,208.55 543.74,208.17 543.94,207.79 544.15,207.41 544.35,207.04 544.55,206.66 544.75,206.28 544.95,205.91 545.15,205.53 545.35,205.15 545.55,204.78 545.75,204.40 545.96,204.02 546.16,203.64 546.36,203.26 546.56,202.88 546.76,202.49 546.96,202.11 547.16,201.72 547.36,201.33 547.56,200.94 547.76,200.55 547.97,200.15 548.17,199.75 548.37,199.34 548.57,198.93 548.77,198.52 548.97,198.10 549.17,197.67 549.37,197.23 549.57,196.79 549.78,196.34 549.98,195.89 550.18,195.42 550.38,194.95 550.58,194.46 550.78,193.97 550.98,193.47 551.18,192.95 551.38,192.43 551.58,191.89 551.79,191.33 551.99,190.77 552.19,190.19 552.39,189.59 552.59,188.98 552.79,188.35 552.99,187.71 553.19,187.05 553.39,186.37 553.60,185.68 553.80,184.96 554.00,184.23 554.20,183.48 554.40,182.71 554.60,181.92 554.80,181.11 555.00,180.29 555.20,179.44 555.40,178.57 555.61,177.68 555.81,176.78 556.01,175.85 556.21,174.91 556.41,173.94 556.61,172.96 556.81,171.96 557.01,170.94 557.21,169.90 557.42,168.84 557.62,167.77 557.82,166.67 558.02,165.57 558.22,164.44 558.42,163.31 558.62,162.16 558.82,161.00 559.02,159.82 559.22,158.64 559.43,157.44 559.63,156.24 559.83,155.03 560.03,153.81 560.23,152.59 560.43,151.36 560.63,150.13 560.83,148.89 561.03,147.65 561.24,146.41 561.44,145.16 561.64,143.92 561.84,142.68 562.04,141.43 562.24,140.20 562.44,138.96 562.64,137.73 562.84,136.51 563.04,135.29 563.25,134.08 563.45,132.88 563.65,131.69 563.85,130.51 564.05,129.35 564.25,128.19 564.45,127.05 564.65,125.93 564.85,124.82 565.06,123.72 565.26,122.64 565.46,121.58 565.66,120.54 565.86,119.52 566.06,118.51 566.26,117.53 566.46,116.56 566.66,115.61 566.86,114.69 567.07,113.78 567.27,112.89 567.47,112.02 567.67,111.17 567.87,110.34 568.07,109.52 568.27,108.72 568.47,107.94 568.67,107.18 568.88,106.42 569.08,105.69 569.28,104.97 569.48,104.26 569.68,103.56 569.88,102.88 570.08,102.20 570.28,101.54 570.48,100.89 570.68,100.25 570.89,99.62 571.09,98.99 571.29,98.38 571.49,97.77 571.69,97.16 571.89,96.57 572.09,95.97 572.29,95.39 572.49,94.80 572.70,94.22 572.90,93.65 573.10,93.08 573.30,92.51 573.50,91.94 573.70,91.38 573.90,90.82 574.10,90.26 574.30,89.71 574.50,89.15 574.71,88.60 574.91,88.04 575.11,87.49 575.31,86.93 575.51,86.38 575.71,85.82 575.91,85.26 576.11,84.71 576.31,84.14 576.52,83.58 576.72,83.02 576.92,82.45 577.12,81.88 577.32,81.31 577.52,80.73 577.72,80.16 577.92,79.58 578.12,79.00 578.32,78.42 578.53,77.84 578.73,77.27 578.93,76.69 579.13,76.11 579.33,75.54 579.53,74.97 579.73,74.41 579.93,73.85 580.13,73.30 580.34,72.75 580.54,72.21 580.74,71.68 580.94,71.16 581.14,70.66 581.34,70.16 581.54,69.68 581.74,69.21 581.94,68.76 582.14,68.32 582.35,67.90 582.55,67.50 582.75,67.11 582.95,66.74 583.15,66.40 583.35,66.07 583.55,65.77 583.75,65.49 583.95,65.23 584.16,65.00 584.36,64.79 584.56,64.60 584.76,64.44 584.96,64.30 585.16,64.19 585.36,64.10 585.56,64.04 585.76,64.01 585.96,64.00 586.17,64.02 586.37,64.07 586.57,64.14 586.77,64.24 586.97,64.36 587.17,64.52 587.37,64.70 587.57,64.90 587.77,65.14 587.98,65.40 588.18,65.68 588.38,65.99 588.58,66.33 588.78,66.69 588.98,67.08 589.18,67.49 589.38,67.92 589.58,68.38 589.78,68.86 589.99,69.36 590.19,69.88 590.39,70.43 590.59,70.99 590.79,71.57 590.99,72.18 591.19,72.80 591.39,73.43 591.59,74.09 591.80,74.75 592.00,75.44 592.20,76.13 592.40,76.84 592.60,77.55 592.80,78.28 593.00,79.01 593.20,79.75 593.40,80.49 593.60,81.24 593.81,81.99 594.01,82.75 594.21,83.50 594.41,84.26 594.61,85.01 594.81,85.76 595.01,86.51 595.21,87.25 595.41,87.98 595.62,88.71 595.82,89.43 596.02,90.14 596.22,90.83 596.42,91.52 596.62,92.19 596.82,92.86 597.02,93.50 597.22,94.13 597.42,94.75 597.63,95.35 597.83,95.93 598.03,96.49 598.23,97.04 598.43,97.56 598.63,98.07 598.83,98.55 599.03,99.02 599.23,99.46 599.44,99.89 599.64,100.29 599.84,100.67 600.04,101.03 600.24,101.37 600.44,101.69 600.64,101.98 600.84,102.25 601.04,102.50 601.24,102.73 601.45,102.94 601.65,103.12 601.85,103.28 602.05,103.41 602.25,103.53 602.45,103.62 602.65,103.68 602.85,103.72 603.05,103.74 603.26,103.74 603.46,103.71 603.66,103.66 603.86,103.58 604.06,103.49 604.26,103.37 604.46,103.23 604.66,103.07 604.86,102.88 605.06,102.68 605.27,102.46 605.47,102.22 605.67,101.96 605.87,101.68 606.07,101.38 606.27,101.06 606.47,100.73 606.67,100.38 606.87,100.02 607.08,99.64 607.28,99.24 607.48,98.83 607.68,98.41 607.88,97.98 608.08,97.53 608.28,97.07 608.48,96.61 608.68,96.13 608.88,95.64 609.09,95.14 609.29,94.64 609.49,94.13 609.69,93.61 609.89,93.08 610.09,92.55 610.29,92.02 610.49,91.48 610.69,90.94 610.90,90.40 611.10,89.86 611.30,89.32 611.50,88.78 611.70,88.24 611.90,87.70 612.10,87.17 612.30,86.64 612.50,86.11 612.70,85.59 612.91,85.08 613.11,84.58 613.31,84.08 613.51,83.60 613.71,83.12 613.91,82.66 614.11,82.21 614.31,81.77 614.51,81.34 614.72,80.93 614.92,80.53 615.12,80.15 615.32,79.79 615.52,79.44 615.72,79.11 615.92,78.80 616.12,78.50 616.32,78.22 616.52,77.96 616.73,77.73 616.93,77.50 617.13,77.30 617.33,77.12 617.53,76.96 617.73,76.82 617.93,76.70 618.13,76.60 618.33,76.51 618.54,76.46 618.74,76.42 618.94,76.40 619.14,76.41 619.34,76.43 619.54,76.48 619.74,76.55 619.94,76.65 620.14,76.77 620.34,76.90 620.55,77.06 620.75,77.25 620.95,77.45 621.15,77.67 621.35,77.92 621.55,78.19 621.75,78.47 621.95,78.78 622.15,79.10 622.36,79.45 622.56,79.81 622.76,80.19 622.96,80.60 623.16,81.01 623.36,81.45 623.56,81.90 623.76,82.37 623.96,82.85 624.16,83.35 624.37,83.87 624.57,84.40 624.77,84.94 624.97,85.50 625.17,86.07 625.37,86.65 625.57,87.25 625.77,87.86 625.97,88.48 626.18,89.11 626.38,89.75 626.58,90.40 626.78,91.06 626.98,91.73 627.18,92.41 627.38,93.10 627.58,93.80 627.78,94.51 627.98,95.23 628.19,95.95 628.39,96.68 628.59,97.42 628.79,98.17 628.99,98.92 629.19,99.68 629.39,100.44 629.59,101.22 629.79,102.00 630.00,102.79 630.20,103.58 630.40,104.38 630.60,105.20 630.80,106.01 631.00,106.84 631.20,107.68 631.40,108.52 631.60,109.37 631.80,110.23 632.01,111.11 632.21,111.99 632.41,112.88 632.61,113.78 632.81,114.69 633.01,115.61 633.21,116.55 633.41,117.49 633.61,118.45 633.82,119.42 634.02,120.41 634.22,121.41 634.42,122.42 634.62,123.45 634.82,124.50 635.02,125.56 635.22,126.63 635.42,127.73 635.62,128.84 635.83,129.97 636.03,131.12 636.23,132.29 636.43,133.47 636.63,134.68 636.83,135.90 637.03,137.15 637.23,138.42 637.43,139.70 637.64,141.02 637.84,142.35 638.04,143.71 638.24,145.09 638.44,146.49 638.64,147.92 638.84,149.38 639.04,150.85 639.24,152.36 639.44,153.89 639.65,155.45 639.85,157.04 640.05,158.65 640.25,160.29 640.45,161.95 640.65,163.65 640.85,165.37 641.05,167.12 641.25,168.90 641.45,170.70 641.66,172.53 641.86,174.39 642.06,176.27 642.26,178.17 642.46,180.11 642.66,182.06 642.86,184.04 643.06,186.04 643.26,188.06 643.47,190.11 643.67,192.17 643.87,194.25 644.07,196.34 644.27,198.46 644.47,200.58 644.67,202.72 644.87,204.88 645.07,207.04 645.27,209.21 645.48,211.39 645.68,213.58 645.88,215.77 646.08,217.96 646.28,220.16 646.48,222.36 646.68,224.55 646.88,226.75 647.08,228.93 647.29,231.11 647.49,233.29 647.69,235.45 647.89,237.60 648.09,239.74 648.29,241.87 648.49,243.98 648.69,246.07 648.89,248.14 649.09,250.19 649.30,252.22 649.50,254.22 649.70,256.19 649.90,258.14 650.10,260.06 650.30,261.95 650.50,263.81 650.70,265.63 650.90,267.42 651.11,269.17 651.31,270.88 651.51,272.55 651.71,274.19 651.91,275.78 652.11,277.33 652.31,278.84 652.51,280.30 652.71,281.71 652.91,283.08 653.12,284.40 653.32,285.67 653.52,286.89 653.72,288.06 653.92,289.17 654.12,290.24 654.32,291.25 654.52,292.21 654.72,293.12 654.93,293.97 655.13,294.77 655.33,295.51 655.53,296.19 655.73,296.82 655.93,297.39 656.13,297.90 656.33,298.36 656.53,298.76 656.73,299.10 656.94,299.39 657.14,299.62 657.34,299.80 657.54,299.92 657.74,299.99 657.94,300.00 658.14,299.97 658.34,299.88 658.54,299.74 658.75,299.55 658.95,299.32 659.15,299.04 659.35,298.71 659.55,298.34 659.75,297.93 659.95,297.48 660.15,296.99 660.35,296.46 660.55,295.90 660.76,295.31 660.96,294.68 661.16,294.03 661.36,293.35 661.56,292.64 661.76,291.91 661.96,291.16 662.16,290.38 662.36,289.59 662.57,288.79 662.77,287.97 662.97,287.14 663.17,286.30 663.37,285.45 663.57,284.59 663.77,283.72 663.97,282.85 664.17,281.98 664.37,281.11 664.58,280.24 664.78,279.37 664.98,278.50 665.18,277.63 665.38,276.77 665.58,275.92 665.78,275.08 665.98,274.24 666.18,273.42 666.39,272.60 666.59,271.80 666.79,271.02 666.99,270.24 667.19,269.48 667.39,268.74 667.59,268.01 667.79,267.31 667.99,266.62 668.19,265.95 668.40,265.30 668.60,264.67 668.80,264.06 669.00,263.47 669.20,262.91 669.40,262.37 669.60,261.85 669.80,261.35 670.00,260.88 670.21,260.43 670.41,260.00 670.61,259.60 670.81,259.23 671.01,258.88 671.21,258.55 671.41,258.25 671.61,257.97 671.81,257.71 672.01,257.48 672.22,257.28 672.42,257.09 672.62,256.93 672.82,256.79 673.02,256.68 673.22,256.58 673.42,256.51 673.62,256.46 673.82,256.42 674.03,256.41 674.23,256.42 674.43,256.44 674.63,256.48 674.83,256.54 675.03,256.61 675.23,256.70 675.43,256.80 675.63,256.91 675.83,257.03 676.04,257.16 676.24,257.30 676.44,257.44 676.64,257.60 676.84,257.75 677.04,257.91 677.24,258.07 677.44,258.23 677.64,258.38 677.85,258.54 678.05,258.69 678.25,258.84 678.45,258.98 678.65,259.12 678.85,259.24 679.05,259.36 679.25,259.46 679.45,259.56 679.65,259.64 679.86,259.71 680.06,259.76 680.26,259.80 680.46,259.82 680.66,259.82 680.86,259.80 681.06,259.77 681.26,259.72 681.46,259.64 681.67,259.54 681.87,259.42 682.07,259.27 682.27,259.10 682.47,258.90 682.67,258.67 682.87,258.41 683.07,258.12 683.27,257.80 683.47,257.45 683.68,257.07 683.88,256.65 684.08,256.19 684.28,255.70 684.48,255.17 684.68,254.60 684.88,254.00 685.08,253.35 685.28,252.66 685.49,251.93 685.69,251.15 685.89,250.34 686.09,249.48 686.29,248.57 686.49,247.62 686.69,246.62 686.89,245.58 687.09,244.49 687.29,243.35 687.50,242.17 687.70,240.93 687.90,239.66 688.10,238.33 688.30,236.96 688.50,235.54 688.70,234.07 688.90,232.55 689.10,231.00 689.31,229.39 689.51,227.74 689.71,226.04 689.91,224.30 690.11,222.52 690.31,220.70 690.51,218.83 690.71,216.93 690.91,214.98 691.11,213.00 691.32,210.99 691.52,208.94 691.72,206.86 691.92,204.74 692.12,202.60 692.32,200.43 692.52,198.23 692.72,196.01 692.92,193.76 693.13,191.50 693.33,189.22 693.53,186.92 693.73,184.61 693.93,182.28 694.13,179.95 694.33,177.61 694.53,175.26 694.73,172.91 694.93,170.56 695.14,168.21 695.34,165.86 695.54,163.52 695.74,161.18 695.94,158.86 696.14,156.54 696.34,154.24 696.54,151.96 696.74,149.69 696.95,147.45 697.15,145.22 697.35,143.02 697.55,140.84 697.75,138.70 697.95,136.58 698.15,134.49 698.35,132.43 698.55,130.41 698.75,128.42 698.96,126.47 699.16,124.56 699.36,122.69 699.56,120.86 699.76,119.07 699.96,117.34 700.16,115.64 700.36,114.00 700.56,112.41 700.77,110.86 700.97,109.37 701.17,107.93 701.37,106.55 701.57,105.22 701.77,103.94 701.97,102.73 702.17,101.56 702.37,100.46 702.57,99.42 702.78,98.43 702.98,97.50 703.18,96.63 703.38,95.82 703.58,95.07 703.78,94.38 703.98,93.75 704.18,93.18 704.38,92.67 704.59,92.21 704.79,91.82 704.99,91.48 705.19,91.20 705.39,90.99 705.59,90.82 705.79,90.72 705.99,90.67 706.19,90.68 706.39,90.74 706.60,90.86 706.80,91.03 707.00,91.25 707.20,91.53 707.40,91.85 707.60,92.23 707.80,92.65 708.00,93.12 708.20,93.64 708.41,94.20 708.61,94.81 708.81,95.46 709.01,96.16 709.21,96.89 709.41,97.66 709.61,98.47 709.81,99.32 710.01,100.20 710.21,101.12 710.42,102.07 710.62,103.05 710.82,104.06 711.02,105.10 711.22,106.17 711.42,107.26 711.62,108.38 711.82,109.52 712.02,110.68 712.23,111.86 712.43,113.06 712.63,114.28 712.83,115.52 713.03,116.77 713.23,118.03 713.43,119.31 713.63,120.59 713.83,121.89 714.03,123.20 714.24,124.52 714.44,125.84 714.64,127.17 714.84,128.50 715.04,129.84 715.24,131.18 715.44,132.52 715.64,133.86 715.84,135.20 716.05,136.54 716.25,137.87 716.45,139.20 716.65,140.53 716.85,141.85 717.05,143.16 717.25,144.47 717.45,145.77 717.65,147.05 717.85,148.33 718.06,149.60 718.26,150.86 718.46,152.10 718.66,153.34 718.86,154.56 719.06,155.77 719.26,156.96 719.46,158.14 719.66,159.31 719.87,160.47 720.07,161.61 720.27,162.74 720.47,163.86 720.67,164.96 720.87,166.05 721.07,167.12 721.27,168.19 721.47,169.24 721.67,170.27 721.88,171.30 722.08,172.31 722.28,173.31 722.48,174.30 722.68,175.27 722.88,176.23 723.08,177.18 723.28,178.12 723.48,179.04 723.69,179.95 723.89,180.85 724.09,181.74 724.29,182.61 724.49,183.47 724.69,184.31 724.89,185.14 725.09,185.96 725.29,186.76 725.49,187.55 725.70,188.33 725.90,189.09 726.10,189.84 726.30,190.57 726.50,191.29 726.70,191.99 726.90,192.68 727.10,193.35 727.30,194.01 727.51,194.65 727.71,195.28 727.91,195.89 728.11,196.48 728.31,197.06 728.51,197.62 728.71,198.17 728.91,198.70 729.11,199.21 729.31,199.70 729.52,200.18 729.72,200.64 729.92,201.09 730.12,201.51 730.32,201.92 730.52,202.32 730.72,202.69 730.92,203.05 731.12,203.39 731.33,203.72 731.53,204.02 731.73,204.31 731.93,204.59 732.13,204.84 732.33,205.08 732.53,205.30 732.73,205.51 732.93,205.70 733.13,205.87 733.34,206.03 733.54,206.16 733.74,206.29 733.94,206.39 734.14,206.49 734.34,206.56 734.54,206.62 734.74,206.66 734.94,206.69 735.15,206.71 735.35,206.71 735.55,206.69 735.75,206.66 735.95,206.62 736.15,206.56 736.35,206.48 736.55,206.40 736.75,206.29 736.95,206.18 737.16,206.05 737.36,205.90 737.56,205.74 737.76,205.57 737.96,205.39 738.16,205.20 738.36,204.99 738.56,204.77 738.76,204.55 738.97,204.31 739.17,204.06 739.37,203.80 739.57,203.53 739.77,203.26 739.97,202.98 740.17,202.69 740.37,202.39 740.57,202.09 740.77,201.78 740.98,201.47 741.18,201.15 741.38,200.84 741.58,200.51 741.78,200.19 741.98,199.87 742.18,199.55 742.38,199.22 742.58,198.90 742.79,198.58 742.99,198.26 743.19,197.94 743.39,197.62 743.59,197.31 743.79,197.00 743.99,196.69 744.19,196.39 744.39,196.09 744.59,195.79 744.80,195.50 745.00,195.21 745.20,194.93 745.40,194.65 745.60,194.37 745.80,194.10 746.00,193.84 746.20,193.58 746.40,193.32 746.61,193.07 746.81,192.82 747.01,192.58 747.21,192.34 747.41,192.11 747.61,191.88 747.81,191.66 748.01,191.44 748.21,191.23 748.41,191.02 748.62,190.82 748.82,190.62 749.02,190.43 749.22,190.25 749.42,190.06 749.62,189.89 749.82,189.72 750.02,189.55 750.22,189.39 750.43,189.23 750.63,189.08 750.83,188.94 751.03,188.80 751.23,188.66 751.43,188.53 751.63,188.41 751.83,188.29 752.03,188.18 752.23,188.07 752.44,187.97 752.64,187.87 752.84,187.78 753.04,187.70 753.24,187.62 753.44,187.54 753.64,187.47 753.84,187.40 754.04,187.34 754.25,187.29 754.45,187.24 754.65,187.20 754.85,187.16 755.05,187.12 755.25,187.09 755.45,187.07 755.65,187.05 755.85,187.03 756.05,187.02 756.26,187.01 756.46,187.01 756.66,187.01 756.86,187.01 757.06,187.01 757.26,187.02 757.46,187.03 757.66,187.05 757.86,187.06 758.07,187.08 758.27,187.10 758.47,187.13 758.67,187.15 758.87,187.18 759.07,187.22 759.27,187.25 759.47,187.29 759.67,187.33 759.87,187.37 760.08,187.42 760.28,187.47 760.48,187.53 760.68,187.59 760.88,187.66 761.08,187.73 761.28,187.80 761.48,187.88 761.68,187.97 761.89,188.06 762.09,188.16 762.29,188.27 762.49,188.39 762.69,188.51 762.89,188.64 763.09,188.78 763.29,188.92 763.49,189.08 763.69,189.24 763.90,189.41 764.10,189.59 764.30,189.77 764.50,189.96 764.70,190.16 764.90,190.37 765.10,190.58 765.30,190.80 765.50,191.03 765.71,191.26 765.91,191.50 766.11,191.75 766.31,192.00 766.51,192.25 766.71,192.51 766.91,192.77 767.11,193.04 767.31,193.31 767.51,193.59 767.72,193.87 767.92,194.15 768.12,194.43 768.32,194.72 768.52,195.01 768.72,195.30 768.92,195.60 769.12,195.89 769.32,196.19 769.53,196.49 769.73,196.79 769.93,197.08 770.13,197.38 770.33,197.68 770.53,197.98 770.73,198.28 770.93,198.57 771.13,198.87 771.33,199.17 771.54,199.47 771.74,199.76 771.94,200.06 772.14,200.35 772.34,200.64 772.54,200.94 772.74,201.23 772.94,201.52 773.14,201.81 773.35,202.09 773.55,202.38 773.75,202.67 773.95,202.95 774.15,203.24 774.35,203.52 774.55,203.80 774.75,204.08 774.95,204.36 775.15,204.64 775.36,204.91 775.56,205.19 775.76,205.46 775.96,205.73 776.16,206.00 776.36,206.27 776.56,206.54 776.76,206.80 776.96,207.06 777.17,207.31 777.37,207.57 777.57,207.82 777.77,208.07 777.97,208.31 778.17,208.55 778.37,208.79 778.57,209.02 778.77,209.25 778.97,209.48 779.18,209.71 779.38,209.93 779.58,210.15 779.78,210.37 779.98,210.58 780.18,210.79 780.38,211.00 780.58,211.21 780.78,211.42 780.99,211.63 781.19,211.84 781.39,212.04 781.59,212.25 781.79,212.46 781.99,212.66 782.19,212.87 782.39,213.08 782.59,213.29 782.79,213.51 783.00,213.72 783.20,213.94 783.40,214.16 783.60,214.38 783.80,214.60 784.00,214.82 784.20,215.05 784.40,215.27 784.60,215.50 784.81,215.73 785.01,215.96 785.21,216.19 785.41,216.42 785.61,216.65 785.81,216.88 786.01,217.12 786.21,217.35 786.41,217.58 786.61,217.81 786.82,218.04 787.02,218.27 787.22,218.50 787.42,218.72 787.62,218.94 787.82,219.17 788.02,219.38 788.22,219.60 788.42,219.81 788.63,220.02 788.83,220.23 789.03,220.43 789.23,220.63 789.43,220.83 789.63,221.02 789.83,221.20 790.03,221.39 790.23,221.56 790.43,221.73 790.64,221.90 790.84,222.06 791.04,222.22 791.24,222.37 791.44,222.52 791.64,222.67 791.84,222.80 792.04,222.94 792.24,223.06 792.45,223.19 792.65,223.30 792.85,223.41 793.05,223.52 793.25,223.62 793.45,223.72 793.65,223.81 793.85,223.90 794.05,223.98 794.25,224.06 794.46,224.13 794.66,224.19 794.86,224.26 795.06,224.31 795.26,224.37 795.46,224.42 795.66,224.46 795.86,224.50 796.06,224.54 796.27,224.57 796.47,224.60 796.67,224.62 796.87,224.64 797.07,224.65 797.27,224.66 797.47,224.66 797.67,224.66 797.87,224.66 798.07,224.64 798.28,224.62 798.48,224.60 798.68,224.57 798.88,224.54 799.08,224.50 799.28,224.45 799.48,224.40 799.68,224.34 799.88,224.28 800.09,224.22 800.29,224.15 800.49,224.07 800.69,223.99 800.89,223.91 801.09,223.82 801.29,223.73 801.49,223.64 801.69,223.54 801.89,223.44 802.10,223.34 802.30,223.23 802.50,223.12 802.70,223.01 802.90,222.90 803.10,222.78 803.30,222.66 803.50,222.54 803.70,222.42 803.91,222.29 804.11,222.16 804.31,222.02 804.51,221.89 804.71,221.75 804.91,221.61 805.11,221.46 805.31,221.31 805.51,221.16 805.71,221.01 805.92,220.85 806.12,220.69 806.32,220.52 806.52,220.36 806.72,220.18 806.92,220.01 807.12,219.83 807.32,219.65 807.52,219.47 807.73,219.28 807.93,219.09 808.13,218.90 808.33,218.70 808.53,218.50 808.73,218.30 808.93,218.09 809.13,217.89 809.33,217.67 809.53,217.46 809.74,217.24 809.94,217.03 810.14,216.80 810.34,216.58 810.54,216.35 810.74,216.12 810.94,215.89 811.14,215.66 811.34,215.43 811.55,215.19 811.75,214.95 811.95,214.72 812.15,214.48 812.35,214.24 812.55,214.00 812.75,213.76 812.95,213.52 813.15,213.28 813.35,213.04 813.56,212.80 813.76,212.56 813.96,212.32 814.16,212.08 814.36,211.84 814.56,211.60 814.76,211.36 814.96,211.13 815.16,210.89 815.37,210.65 815.57,210.42 815.77,210.18 815.97,209.95 816.17,209.71 816.37,209.48 816.57,209.25 816.77,209.02 816.97,208.78 817.17,208.55 817.38,208.32 817.58,208.08 817.78,207.85 817.98,207.61 818.18,207.37 818.38,207.13 818.58,206.89 818.78,206.65 818.98,206.40 819.19,206.15 819.39,205.91 819.59,205.65 819.79,205.40 819.99,205.15 820.19,204.89 820.39,204.64 820.59,204.38 820.79,204.12 820.99,203.86 821.20,203.61 821.40,203.35 821.60,203.09 821.80,202.83 822.00,202.58" fill="none" stroke="#c5221f" stroke-width="2"/>
<text x="662" y="56" font-family="Arial" font-size="12" fill="#c5221f">Experiment</text>
</svg>