<svg xmlns="http://www.w3.org/2000/svg" width="850" height="460" viewBox="0 0 850 460">
<rect width="100%" height="100%" fill="white"/>
<text x="425.0" y="23" text-anchor="middle" font-family="Arial" font-size="15">N=4 transferred charge at 4 m/s^2: experiment vs simulation</text>
<line x1="96" y1="394" x2="822" y2="394" stroke="#333"/>
<line x1="96" y1="34" x2="96" y2="394" stroke="#333"/>
<text x="425.0" y="442" text-anchor="middle" font-family="Arial" font-size="12">Normalized time</text>
<text x="16" y="230.0" text-anchor="middle" transform="rotate(-90 16 230.0)" font-family="Arial" font-size="12">Transferred charge (nC)</text>
<line x1="96" y1="34.0" x2="822" y2="34.0" stroke="#e1e5ea"/>
<text x="88" y="38.0" text-anchor="end" font-family="Arial" font-size="10">70.55</text>
<line x1="96" y1="106.0" x2="822" y2="106.0" stroke="#e1e5ea"/>
<text x="88" y="110.0" text-anchor="end" font-family="Arial" font-size="10">-86.49</text>
<line x1="96" y1="178.0" x2="822" y2="178.0" stroke="#e1e5ea"/>
<text x="88" y="182.0" text-anchor="end" font-family="Arial" font-size="10">-243.52</text>
<line x1="96" y1="250.0" x2="822" y2="250.0" stroke="#e1e5ea"/>
<text x="88" y="254.0" text-anchor="end" font-family="Arial" font-size="10">-400.56</text>
<line x1="96" y1="322.0" x2="822" y2="322.0" stroke="#e1e5ea"/>
<text x="88" y="326.0" text-anchor="end" font-family="Arial" font-size="10">-557.60</text>
<line x1="96" y1="394.0" x2="822" y2="394.0" stroke="#e1e5ea"/>
<text x="88" y="398.0" text-anchor="end" font-family="Arial" font-size="10">-714.64</text>
<line x1="96" y1="66.3" x2="822" y2="66.3" stroke="#999" stroke-dasharray="4 4"/>
<polyline points="96.00,64.00 96.33,64.18 96.66,64.37 96.99,64.56 97.32,64.77 97.65,64.98 97.98,65.19 98.31,65.42 98.64,65.64 98.97,65.88 99.30,66.11 99.63,66.35 99.96,66.60 100.29,66.84 100.62,67.09 100.95,67.35 101.28,67.60 101.61,67.86 101.94,68.12 102.27,68.38 102.60,68.65 102.93,68.91 103.26,69.18 103.59,69.44 103.92,69.71 104.25,69.97 104.58,70.22 104.91,70.47 105.24,70.71 105.57,70.95 105.90,71.18 106.23,71.40 106.56,71.61 106.89,71.82 107.23,72.02 107.56,72.22 107.89,72.41 108.22,72.61 108.55,72.82 108.88,73.03 109.21,73.25 109.54,73.49 109.87,73.74 110.20,74.00 110.53,74.29 110.86,74.58 111.19,74.90 111.52,75.23 111.85,75.58 112.18,75.96 112.51,76.34 112.84,76.75 113.17,77.18 113.50,77.62 113.83,78.08 114.16,78.55 114.49,79.05 114.82,79.56 115.15,80.08 115.48,80.62 115.81,81.17 116.14,81.73 116.47,82.31 116.80,82.90 117.13,83.50 117.46,84.11 117.79,84.73 118.12,85.35 118.45,85.99 118.78,86.64 119.11,87.29 119.44,87.95 119.77,88.61 120.10,89.29 120.43,89.97 120.76,90.65 121.09,91.34 121.42,92.04 121.75,92.74 122.08,93.45 122.41,94.16 122.74,94.87 123.07,95.58 123.40,96.30 123.73,97.01 124.06,97.72 124.39,98.43 124.72,99.13 125.05,99.82 125.38,100.50 125.71,101.17 126.04,101.83 126.37,102.48 126.70,103.12 127.03,103.75 127.36,104.38 127.69,105.00 128.02,105.61 128.35,106.22 128.68,106.82 129.02,107.44 129.35,108.05 129.68,108.68 130.01,109.31 130.34,109.96 130.67,110.62 131.00,111.30 131.33,112.00 131.66,112.71 131.99,113.44 132.32,114.18 132.65,114.94 132.98,115.72 133.31,116.52 133.64,117.33 133.97,118.15 134.30,118.99 134.63,119.84 134.96,120.70 135.29,121.57 135.62,122.46 135.95,123.35 136.28,124.25 136.61,125.15 136.94,126.06 137.27,126.98 137.60,127.90 137.93,128.82 138.26,129.74 138.59,130.67 138.92,131.59 139.25,132.51 139.58,133.43 139.91,134.35 140.24,135.26 140.57,136.17 140.90,137.08 141.23,137.98 141.56,138.88 141.89,139.77 142.22,140.65 142.55,141.53 142.88,142.40 143.21,143.26 143.54,144.10 143.87,144.93 144.20,145.74 144.53,146.54 144.86,147.31 145.19,148.07 145.52,148.81 145.85,149.52 146.18,150.22 146.51,150.90 146.84,151.57 147.17,152.21 147.50,152.85 147.83,153.46 148.16,154.07 148.49,154.67 148.82,155.26 149.15,155.84 149.48,156.43 149.81,157.02 150.14,157.61 150.47,158.22 150.80,158.83 151.14,159.46 151.47,160.10 151.80,160.76 152.13,161.44 152.46,162.13 152.79,162.84 153.12,163.57 153.45,164.31 153.78,165.07 154.11,165.85 154.44,166.64 154.77,167.43 155.10,168.24 155.43,169.07 155.76,169.89 156.09,170.73 156.42,171.57 156.75,172.42 157.08,173.27 157.41,174.13 157.74,174.98 158.07,175.84 158.40,176.69 158.73,177.54 159.06,178.39 159.39,179.23 159.72,180.07 160.05,180.90 160.38,181.72 160.71,182.54 161.04,183.35 161.37,184.15 161.70,184.95 162.03,185.73 162.36,186.49 162.69,187.24 163.02,187.97 163.35,188.68 163.68,189.37 164.01,190.03 164.34,190.67 164.67,191.29 165.00,191.88 165.33,192.45 165.66,192.99 165.99,193.52 166.32,194.03 166.65,194.52 166.98,194.99 167.31,195.45 167.64,195.89 167.97,196.33 168.30,196.75 168.63,197.17 168.96,197.59 169.29,198.00 169.62,198.41 169.95,198.82 170.28,199.24 170.61,199.67 170.94,200.12 171.27,200.58 171.60,201.06 171.93,201.57 172.26,202.09 172.59,202.63 172.92,203.20 173.26,203.79 173.59,204.39 173.92,205.02 174.25,205.67 174.58,206.34 174.91,207.02 175.24,207.71 175.57,208.42 175.90,209.14 176.23,209.87 176.56,210.61 176.89,211.35 177.22,212.10 177.55,212.85 177.88,213.60 178.21,214.34 178.54,215.09 178.87,215.83 179.20,216.56 179.53,217.29 179.86,218.01 180.19,218.72 180.52,219.42 180.85,220.10 181.18,220.77 181.51,221.43 181.84,222.08 182.17,222.71 182.50,223.32 182.83,223.91 183.16,224.48 183.49,225.02 183.82,225.53 184.15,226.02 184.48,226.47 184.81,226.89 185.14,227.28 185.47,227.63 185.80,227.95 186.13,228.24 186.46,228.49 186.79,228.71 187.12,228.91 187.45,229.07 187.78,229.20 188.11,229.31 188.44,229.40 188.77,229.46 189.10,229.51 189.43,229.53 189.76,229.54 190.09,229.55 190.42,229.54 190.75,229.53 191.08,229.52 191.41,229.51 191.74,229.51 192.07,229.50 192.40,229.51 192.73,229.52 193.06,229.53 193.39,229.55 193.72,229.57 194.05,229.60 194.38,229.63 194.71,229.66 195.05,229.69 195.38,229.71 195.71,229.74 196.04,229.76 196.37,229.78 196.70,229.79 197.03,229.79 197.36,229.78 197.69,229.77 198.02,229.74 198.35,229.70 198.68,229.64 199.01,229.57 199.34,229.49 199.67,229.39 200.00,229.28 200.33,229.15 200.66,229.00 200.99,228.84 201.32,228.65 201.65,228.45 201.98,228.24 202.31,227.99 202.64,227.73 202.97,227.44 203.30,227.12 203.63,226.77 203.96,226.40 204.29,225.99 204.62,225.57 204.95,225.11 205.28,224.63 205.61,224.13 205.94,223.61 206.27,223.06 206.60,222.50 206.93,221.93 207.26,221.35 207.59,220.75 207.92,220.15 208.25,219.54 208.58,218.94 208.91,218.33 209.24,217.72 209.57,217.12 209.90,216.52 210.23,215.94 210.56,215.37 210.89,214.81 211.22,214.27 211.55,213.76 211.88,213.27 212.21,212.81 212.54,212.38 212.87,211.98 213.20,211.62 213.53,211.29 213.86,210.99 214.19,210.73 214.52,210.49 214.85,210.29 215.18,210.12 215.51,209.97 215.84,209.85 216.17,209.76 216.50,209.69 216.83,209.63 217.17,209.60 217.50,209.58 217.83,209.58 218.16,209.59 218.49,209.61 218.82,209.63 219.15,209.66 219.48,209.70 219.81,209.74 220.14,209.77 220.47,209.81 220.80,209.85 221.13,209.88 221.46,209.90 221.79,209.91 222.12,209.91 222.45,209.90 222.78,209.86 223.11,209.81 223.44,209.73 223.77,209.63 224.10,209.50 224.43,209.35 224.76,209.17 225.09,208.97 225.42,208.74 225.75,208.49 226.08,208.22 226.41,207.92 226.74,207.60 227.07,207.27 227.40,206.92 227.73,206.55 228.06,206.18 228.39,205.79 228.72,205.39 229.05,204.99 229.38,204.59 229.71,204.19 230.04,203.79 230.37,203.40 230.70,203.02 231.03,202.65 231.36,202.31 231.69,201.98 232.02,201.68 232.35,201.41 232.68,201.17 233.01,200.95 233.34,200.77 233.67,200.61 234.00,200.48 234.33,200.39 234.66,200.32 234.99,200.28 235.32,200.26 235.65,200.28 235.98,200.32 236.31,200.38 236.64,200.46 236.97,200.56 237.30,200.69 237.63,200.83 237.96,200.99 238.29,201.16 238.62,201.35 238.95,201.56 239.29,201.78 239.62,202.00 239.95,202.24 240.28,202.49 240.61,202.75 240.94,203.02 241.27,203.29 241.60,203.57 241.93,203.85 242.26,204.12 242.59,204.39 242.92,204.65 243.25,204.90 243.58,205.14 243.91,205.38 244.24,205.60 244.57,205.81 244.90,206.01 245.23,206.21 245.56,206.40 245.89,206.58 246.22,206.76 246.55,206.94 246.88,207.11 247.21,207.28 247.54,207.46 247.87,207.64 248.20,207.82 248.53,208.01 248.86,208.20 249.19,208.40 249.52,208.61 249.85,208.83 250.18,209.07 250.51,209.31 250.84,209.57 251.17,209.85 251.50,210.16 251.83,210.48 252.16,210.83 252.49,211.21 252.82,211.61 253.15,212.05 253.48,212.51 253.81,213.01 254.14,213.53 254.47,214.07 254.80,214.64 255.13,215.24 255.46,215.86 255.79,216.49 256.12,217.14 256.45,217.81 256.78,218.49 257.11,219.18 257.44,219.88 257.77,220.58 258.10,221.29 258.43,222.00 258.76,222.71 259.09,223.41 259.42,224.11 259.75,224.81 260.08,225.49 260.41,226.17 260.74,226.84 261.08,227.49 261.41,228.13 261.74,228.75 262.07,229.35 262.40,229.92 262.73,230.47 263.06,230.99 263.39,231.48 263.72,231.93 264.05,232.35 264.38,232.73 264.71,233.08 265.04,233.40 265.37,233.68 265.70,233.93 266.03,234.15 266.36,234.34 266.69,234.50 267.02,234.64 267.35,234.75 267.68,234.85 268.01,234.92 268.34,234.98 268.67,235.02 269.00,235.04 269.33,235.06 269.66,235.06 269.99,235.06 270.32,235.05 270.65,235.04 270.98,235.03 271.31,235.02 271.64,235.02 271.97,235.04 272.30,235.06 272.63,235.11 272.96,235.17 273.29,235.25 273.62,235.36 273.95,235.48 274.28,235.62 274.61,235.78 274.94,235.96 275.27,236.16 275.60,236.37 275.93,236.60 276.26,236.84 276.59,237.10 276.92,237.36 277.25,237.63 277.58,237.91 277.91,238.20 278.24,238.49 278.57,238.78 278.90,239.08 279.23,239.37 279.56,239.66 279.89,239.95 280.22,240.23 280.55,240.51 280.88,240.78 281.21,241.04 281.54,241.30 281.87,241.55 282.20,241.78 282.53,242.00 282.86,242.20 283.20,242.38 283.53,242.54 283.86,242.67 284.19,242.78 284.52,242.87 284.85,242.93 285.18,242.96 285.51,242.98 285.84,242.97 286.17,242.93 286.50,242.88 286.83,242.81 287.16,242.72 287.49,242.62 287.82,242.51 288.15,242.38 288.48,242.25 288.81,242.11 289.14,241.96 289.47,241.82 289.80,241.67 290.13,241.53 290.46,241.38 290.79,241.25 291.12,241.13 291.45,241.02 291.78,240.94 292.11,240.87 292.44,240.83 292.77,240.81 293.10,240.83 293.43,240.86 293.76,240.93 294.09,241.02 294.42,241.14 294.75,241.29 295.08,241.46 295.41,241.65 295.74,241.87 296.07,242.11 296.40,242.36 296.73,242.63 297.06,242.92 297.39,243.22 297.72,243.53 298.05,243.85 298.38,244.17 298.71,244.51 299.04,244.85 299.37,245.19 299.70,245.53 300.03,245.87 300.36,246.21 300.69,246.55 301.02,246.88 301.35,247.21 301.68,247.53 302.01,247.84 302.34,248.14 302.67,248.43 303.00,248.70 303.33,248.95 303.66,249.18 303.99,249.39 304.32,249.57 304.65,249.72 304.98,249.86 305.32,249.96 305.65,250.04 305.98,250.10 306.31,250.14 306.64,250.15 306.97,250.14 307.30,250.12 307.63,250.08 307.96,250.02 308.29,249.96 308.62,249.88 308.95,249.79 309.28,249.70 309.61,249.60 309.94,249.50 310.27,249.40 310.60,249.30 310.93,249.21 311.26,249.13 311.59,249.06 311.92,249.01 312.25,248.97 312.58,248.96 312.91,248.97 313.24,249.01 313.57,249.07 313.90,249.16 314.23,249.27 314.56,249.40 314.89,249.56 315.22,249.73 315.55,249.93 315.88,250.14 316.21,250.37 316.54,250.61 316.87,250.87 317.20,251.14 317.53,251.42 317.86,251.70 318.19,251.99 318.52,252.28 318.85,252.58 319.18,252.87 319.51,253.16 319.84,253.45 320.17,253.74 320.50,254.02 320.83,254.29 321.16,254.55 321.49,254.81 321.82,255.05 322.15,255.28 322.48,255.50 322.81,255.69 323.14,255.86 323.47,256.01 323.80,256.14 324.13,256.24 324.46,256.30 324.79,256.35 325.12,256.36 325.45,256.34 325.78,256.30 326.11,256.23 326.44,256.14 326.77,256.02 327.11,255.88 327.44,255.73 327.77,255.55 328.10,255.36 328.43,255.15 328.76,254.94 329.09,254.71 329.42,254.48 329.75,254.24 330.08,254.00 330.41,253.76 330.74,253.52 331.07,253.29 331.40,253.06 331.73,252.86 332.06,252.66 332.39,252.49 332.72,252.34 333.05,252.22 333.38,252.12 333.71,252.05 334.04,252.00 334.37,251.98 334.70,251.98 335.03,252.00 335.36,252.05 335.69,252.12 336.02,252.21 336.35,252.32 336.68,252.44 337.01,252.58 337.34,252.73 337.67,252.89 338.00,253.06 338.33,253.23 338.66,253.41 338.99,253.60 339.32,253.78 339.65,253.97 339.98,254.16 340.31,254.34 340.64,254.52 340.97,254.70 341.30,254.87 341.63,255.03 341.96,255.19 342.29,255.33 342.62,255.46 342.95,255.57 343.28,255.67 343.61,255.74 343.94,255.79 344.27,255.81 344.60,255.81 344.93,255.79 345.26,255.74 345.59,255.66 345.92,255.57 346.25,255.45 346.58,255.31 346.91,255.15 347.24,254.97 347.57,254.78 347.90,254.57 348.23,254.36 348.56,254.13 348.89,253.90 349.23,253.66 349.56,253.42 349.89,253.17 350.22,252.93 350.55,252.69 350.88,252.46 351.21,252.24 351.54,252.03 351.87,251.84 352.20,251.67 352.53,251.52 352.86,251.40 353.19,251.30 353.52,251.24 353.85,251.20 354.18,251.19 354.51,251.22 354.84,251.27 355.17,251.34 355.50,251.45 355.83,251.57 356.16,251.72 356.49,251.89 356.82,252.08 357.15,252.29 357.48,252.52 357.81,252.75 358.14,253.00 358.47,253.26 358.80,253.53 359.13,253.80 359.46,254.08 359.79,254.36 360.12,254.65 360.45,254.93 360.78,255.22 361.11,255.50 361.44,255.78 361.77,256.06 362.10,256.33 362.43,256.60 362.76,256.86 363.09,257.11 363.42,257.35 363.75,257.56 364.08,257.77 364.41,257.95 364.74,258.11 365.07,258.26 365.40,258.38 365.73,258.48 366.06,258.55 366.39,258.61 366.72,258.65 367.05,258.67 367.38,258.68 367.71,258.67 368.04,258.65 368.37,258.61 368.70,258.57 369.03,258.52 369.36,258.47 369.69,258.42 370.02,258.37 370.35,258.32 370.68,258.28 371.02,258.25 371.35,258.23 371.68,258.24 372.01,258.27 372.34,258.32 372.67,258.40 373.00,258.51 373.33,258.64 373.66,258.81 373.99,259.00 374.32,259.23 374.65,259.48 374.98,259.76 375.31,260.07 375.64,260.40 375.97,260.76 376.30,261.14 376.63,261.54 376.96,261.96 377.29,262.40 377.62,262.85 377.95,263.32 378.28,263.80 378.61,264.29 378.94,264.78 379.27,265.29 379.60,265.80 379.93,266.31 380.26,266.83 380.59,267.34 380.92,267.86 381.25,268.38 381.58,268.89 381.91,269.40 382.24,269.91 382.57,270.41 382.90,270.91 383.23,271.39 383.56,271.87 383.89,272.33 384.22,272.77 384.55,273.19 384.88,273.59 385.21,273.97 385.54,274.33 385.87,274.66 386.20,274.97 386.53,275.26 386.86,275.52 387.19,275.76 387.52,275.99 387.85,276.19 388.18,276.38 388.51,276.56 388.84,276.72 389.17,276.87 389.50,277.01 389.83,277.15 390.16,277.28 390.49,277.41 390.82,277.54 391.15,277.68 391.48,277.83 391.81,278.00 392.14,278.18 392.47,278.38 392.80,278.60 393.14,278.84 393.47,279.11 393.80,279.40 394.13,279.72 394.46,280.05 394.79,280.41 395.12,280.79 395.45,281.19 395.78,281.60 396.11,282.04 396.44,282.48 396.77,282.94 397.10,283.42 397.43,283.90 397.76,284.39 398.09,284.88 398.42,285.38 398.75,285.89 399.08,286.39 399.41,286.90 399.74,287.40 400.07,287.90 400.40,288.40 400.73,288.89 401.06,289.38 401.39,289.86 401.72,290.33 402.05,290.79 402.38,291.25 402.71,291.69 403.04,292.12 403.37,292.54 403.70,292.94 404.03,293.32 404.36,293.68 404.69,294.01 405.02,294.33 405.35,294.61 405.68,294.87 406.01,295.11 406.34,295.32 406.67,295.50 407.00,295.67 407.33,295.81 407.66,295.92 407.99,296.02 408.32,296.10 408.65,296.17 408.98,296.23 409.31,296.27 409.64,296.31 409.97,296.34 410.30,296.37 410.63,296.41 410.96,296.45 411.29,296.50 411.62,296.56 411.95,296.64 412.28,296.74 412.61,296.87 412.94,297.02 413.27,297.19 413.60,297.39 413.93,297.62 414.26,297.86 414.59,298.14 414.92,298.44 415.26,298.76 415.59,299.11 415.92,299.47 416.25,299.85 416.58,300.26 416.91,300.67 417.24,301.10 417.57,301.54 417.90,302.00 418.23,302.46 418.56,302.93 418.89,303.40 419.22,303.88 419.55,304.36 419.88,304.85 420.21,305.33 420.54,305.81 420.87,306.30 421.20,306.77 421.53,307.25 421.86,307.72 422.19,308.18 422.52,308.64 422.85,309.10 423.18,309.54 423.51,309.98 423.84,310.41 424.17,310.82 424.50,311.22 424.83,311.61 425.16,311.97 425.49,312.32 425.82,312.64 426.15,312.94 426.48,313.22 426.81,313.47 427.14,313.71 427.47,313.92 427.80,314.12 428.13,314.30 428.46,314.46 428.79,314.61 429.12,314.75 429.45,314.88 429.78,315.01 430.11,315.13 430.44,315.25 430.77,315.37 431.10,315.51 431.43,315.65 431.76,315.81 432.09,315.99 432.42,316.18 432.75,316.40 433.08,316.64 433.41,316.90 433.74,317.19 434.07,317.50 434.40,317.84 434.73,318.19 435.06,318.57 435.39,318.97 435.72,319.39 436.05,319.82 436.38,320.28 436.71,320.74 437.05,321.22 437.38,321.71 437.71,322.21 438.04,322.72 438.37,323.23 438.70,323.75 439.03,324.27 439.36,324.79 439.69,325.31 440.02,325.83 440.35,326.34 440.68,326.85 441.01,327.36 441.34,327.86 441.67,328.35 442.00,328.83 442.33,329.31 442.66,329.77 442.99,330.23 443.32,330.68 443.65,331.11 443.98,331.54 444.31,331.95 444.64,332.34 444.97,332.72 445.30,333.07 445.63,333.40 445.96,333.71 446.29,334.00 446.62,334.25 446.95,334.49 447.28,334.70 447.61,334.88 447.94,335.04 448.27,335.18 448.60,335.30 448.93,335.41 449.26,335.49 449.59,335.56 449.92,335.62 450.25,335.68 450.58,335.73 450.91,335.79 451.24,335.85 451.57,335.92 451.90,336.00 452.23,336.09 452.56,336.20 452.89,336.33 453.22,336.47 453.55,336.64 453.88,336.81 454.21,337.01 454.54,337.22 454.87,337.45 455.20,337.69 455.53,337.95 455.86,338.22 456.19,338.50 456.52,338.79 456.85,339.09 457.18,339.40 457.51,339.72 457.84,340.05 458.17,340.38 458.50,340.71 458.83,341.05 459.17,341.38 459.50,341.72 459.83,342.06 460.16,342.39 460.49,342.73 460.82,343.06 461.15,343.38 461.48,343.70 461.81,344.02 462.14,344.33 462.47,344.63 462.80,344.92 463.13,345.21 463.46,345.48 463.79,345.75 464.12,346.02 464.45,346.27 464.78,346.51 465.11,346.74 465.44,346.95 465.77,347.15 466.10,347.33 466.43,347.49 466.76,347.63 467.09,347.75 467.42,347.85 467.75,347.92 468.08,347.98 468.41,348.02 468.74,348.04 469.07,348.04 469.40,348.03 469.73,348.02 470.06,348.00 470.39,347.97 470.72,347.95 471.05,347.93 471.38,347.91 471.71,347.91 472.04,347.92 472.37,347.93 472.70,347.96 473.03,348.00 473.36,348.05 473.69,348.12 474.02,348.20 474.35,348.29 474.68,348.39 475.01,348.51 475.34,348.63 475.67,348.77 476.00,348.91 476.33,349.07 476.66,349.23 476.99,349.40 477.32,349.57 477.65,349.75 477.98,349.93 478.31,350.12 478.64,350.31 478.97,350.50 479.30,350.69 479.63,350.88 479.96,351.07 480.29,351.26 480.62,351.44 480.95,351.62 481.29,351.80 481.62,351.98 481.95,352.15 482.28,352.32 482.61,352.48 482.94,352.63 483.27,352.79 483.60,352.93 483.93,353.07 484.26,353.21 484.59,353.33 484.92,353.45 485.25,353.56 485.58,353.66 485.91,353.74 486.24,353.81 486.57,353.86 486.90,353.89 487.23,353.91 487.56,353.90 487.89,353.88 488.22,353.84 488.55,353.79 488.88,353.71 489.21,353.63 489.54,353.53 489.87,353.42 490.20,353.31 490.53,353.19 490.86,353.08 491.19,352.97 491.52,352.86 491.85,352.77 492.18,352.69 492.51,352.62 492.84,352.56 493.17,352.52 493.50,352.50 493.83,352.49 494.16,352.49 494.49,352.51 494.82,352.54 495.15,352.59 495.48,352.65 495.81,352.72 496.14,352.80 496.47,352.89 496.80,352.99 497.13,353.10 497.46,353.21 497.79,353.33 498.12,353.46 498.45,353.58 498.78,353.71 499.11,353.84 499.44,353.97 499.77,354.10 500.10,354.23 500.43,354.36 500.76,354.48 501.09,354.60 501.42,354.71 501.75,354.82 502.08,354.93 502.41,355.02 502.74,355.11 503.08,355.20 503.41,355.28 503.74,355.34 504.07,355.41 504.40,355.46 504.73,355.50 505.06,355.54 505.39,355.56 505.72,355.56 506.05,355.55 506.38,355.52 506.71,355.47 507.04,355.41 507.37,355.32 507.70,355.20 508.03,355.07 508.36,354.92 508.69,354.75 509.02,354.56 509.35,354.35 509.68,354.13 510.01,353.90 510.34,353.67 510.67,353.43 511.00,353.19 511.33,352.96 511.66,352.73 511.99,352.51 512.32,352.30 512.65,352.11 512.98,351.92 513.31,351.75 513.64,351.59 513.97,351.44 514.30,351.31 514.63,351.19 514.96,351.07 515.29,350.97 515.62,350.88 515.95,350.80 516.28,350.73 516.61,350.67 516.94,350.61 517.27,350.55 517.60,350.50 517.93,350.45 518.26,350.40 518.59,350.36 518.92,350.31 519.25,350.25 519.58,350.20 519.91,350.14 520.24,350.07 520.57,349.99 520.90,349.91 521.23,349.81 521.56,349.71 521.89,349.59 522.22,349.46 522.55,349.32 522.88,349.17 523.21,349.00 523.54,348.82 523.87,348.63 524.20,348.42 524.53,348.19 524.86,347.95 525.20,347.69 525.53,347.41 525.86,347.11 526.19,346.78 526.52,346.43 526.85,346.05 527.18,345.64 527.51,345.21 527.84,344.75 528.17,344.26 528.50,343.74 528.83,343.19 529.16,342.63 529.49,342.04 529.82,341.43 530.15,340.80 530.48,340.16 530.81,339.52 531.14,338.87 531.47,338.22 531.80,337.56 532.13,336.91 532.46,336.26 532.79,335.61 533.12,334.97 533.45,334.34 533.78,333.71 534.11,333.08 534.44,332.46 534.77,331.85 535.10,331.25 535.43,330.64 535.76,330.05 536.09,329.45 536.42,328.86 536.75,328.28 537.08,327.70 537.41,327.11 537.74,326.53 538.07,325.95 538.40,325.37 538.73,324.79 539.06,324.20 539.39,323.61 539.72,323.02 540.05,322.43 540.38,321.82 540.71,321.22 541.04,320.60 541.37,319.98 541.70,319.36 542.03,318.72 542.36,318.08 542.69,317.43 543.02,316.76 543.35,316.10 543.68,315.42 544.01,314.73 544.34,314.04 544.67,313.33 545.00,312.61 545.33,311.89 545.66,311.15 545.99,310.41 546.32,309.64 546.65,308.86 546.98,308.07 547.32,307.25 547.65,306.42 547.98,305.56 548.31,304.69 548.64,303.80 548.97,302.89 549.30,301.96 549.63,301.02 549.96,300.06 550.29,299.10 550.62,298.13 550.95,297.16 551.28,296.19 551.61,295.23 551.94,294.27 552.27,293.31 552.60,292.37 552.93,291.43 553.26,290.51 553.59,289.59 553.92,288.69 554.25,287.80 554.58,286.93 554.91,286.07 555.24,285.22 555.57,284.38 555.90,283.55 556.23,282.74 556.56,281.94 556.89,281.16 557.22,280.38 557.55,279.62 557.88,278.87 558.21,278.13 558.54,277.40 558.87,276.68 559.20,275.96 559.53,275.26 559.86,274.57 560.19,273.88 560.52,273.20 560.85,272.53 561.18,271.87 561.51,271.21 561.84,270.56 562.17,269.91 562.50,269.27 562.83,268.63 563.16,268.00 563.49,267.37 563.82,266.74 564.15,266.12 564.48,265.50 564.81,264.88 565.14,264.26 565.47,263.64 565.80,263.02 566.13,262.40 566.46,261.76 566.79,261.12 567.12,260.46 567.45,259.80 567.78,259.12 568.11,258.43 568.44,257.72 568.77,257.00 569.11,256.27 569.44,255.53 569.77,254.78 570.10,254.01 570.43,253.25 570.76,252.48 571.09,251.71 571.42,250.95 571.75,250.19 572.08,249.43 572.41,248.69 572.74,247.96 573.07,247.23 573.40,246.52 573.73,245.81 574.06,245.12 574.39,244.44 574.72,243.77 575.05,243.11 575.38,242.45 575.71,241.81 576.04,241.17 576.37,240.54 576.70,239.91 577.03,239.29 577.36,238.67 577.69,238.05 578.02,237.44 578.35,236.82 578.68,236.21 579.01,235.59 579.34,234.97 579.67,234.35 580.00,233.72 580.33,233.09 580.66,232.46 580.99,231.82 581.32,231.17 581.65,230.52 581.98,229.87 582.31,229.20 582.64,228.53 582.97,227.86 583.30,227.18 583.63,226.49 583.96,225.79 584.29,225.09 584.62,224.38 584.95,223.66 585.28,222.94 585.61,222.20 585.94,221.46 586.27,220.70 586.60,219.93 586.93,219.14 587.26,218.34 587.59,217.52 587.92,216.69 588.25,215.84 588.58,214.98 588.91,214.12 589.24,213.24 589.57,212.35 589.90,211.46 590.23,210.57 590.56,209.67 590.89,208.78 591.23,207.90 591.56,207.02 591.89,206.16 592.22,205.32 592.55,204.50 592.88,203.69 593.21,202.91 593.54,202.15 593.87,201.41 594.20,200.70 594.53,200.01 594.86,199.34 595.19,198.70 595.52,198.08 595.85,197.48 596.18,196.91 596.51,196.35 596.84,195.82 597.17,195.30 597.50,194.80 597.83,194.32 598.16,193.85 598.49,193.40 598.82,192.96 599.15,192.54 599.48,192.13 599.81,191.72 600.14,191.33 600.47,190.95 600.80,190.57 601.13,190.20 601.46,189.84 601.79,189.49 602.12,189.15 602.45,188.80 602.78,188.47 603.11,188.14 603.44,187.82 603.77,187.50 604.10,187.19 604.43,186.88 604.76,186.58 605.09,186.28 605.42,185.99 605.75,185.70 606.08,185.41 606.41,185.13 606.74,184.84 607.07,184.56 607.40,184.27 607.73,183.98 608.06,183.69 608.39,183.40 608.72,183.11 609.05,182.82 609.38,182.53 609.71,182.25 610.04,181.98 610.37,181.72 610.70,181.47 611.03,181.25 611.36,181.04 611.69,180.86 612.02,180.70 612.35,180.57 612.68,180.46 613.02,180.39 613.35,180.34 613.68,180.32 614.01,180.33 614.34,180.37 614.67,180.44 615.00,180.54 615.33,180.67 615.66,180.83 615.99,181.01 616.32,181.22 616.65,181.46 616.98,181.72 617.31,182.00 617.64,182.31 617.97,182.63 618.30,182.98 618.63,183.35 618.96,183.74 619.29,184.14 619.62,184.56 619.95,184.99 620.28,185.44 620.61,185.89 620.94,186.36 621.27,186.84 621.60,187.32 621.93,187.81 622.26,188.31 622.59,188.81 622.92,189.31 623.25,189.82 623.58,190.33 623.91,190.84 624.24,191.35 624.57,191.85 624.90,192.36 625.23,192.86 625.56,193.35 625.89,193.83 626.22,194.30 626.55,194.76 626.88,195.19 627.21,195.61 627.54,196.01 627.87,196.38 628.20,196.74 628.53,197.07 628.86,197.38 629.19,197.66 629.52,197.93 629.85,198.18 630.18,198.41 630.51,198.62 630.84,198.82 631.17,199.01 631.50,199.19 631.83,199.37 632.16,199.54 632.49,199.72 632.82,199.90 633.15,200.09 633.48,200.28 633.81,200.48 634.14,200.69 634.47,200.91 634.80,201.14 635.14,201.38 635.47,201.63 635.80,201.89 636.13,202.16 636.46,202.43 636.79,202.71 637.12,203.00 637.45,203.30 637.78,203.60 638.11,203.91 638.44,204.22 638.77,204.53 639.10,204.85 639.43,205.17 639.76,205.48 640.09,205.80 640.42,206.12 640.75,206.43 641.08,206.75 641.41,207.06 641.74,207.37 642.07,207.67 642.40,207.97 642.73,208.27 643.06,208.56 643.39,208.85 643.72,209.13 644.05,209.41 644.38,209.68 644.71,209.94 645.04,210.20 645.37,210.45 645.70,210.69 646.03,210.93 646.36,211.15 646.69,211.36 647.02,211.56 647.35,211.75 647.68,211.92 648.01,212.07 648.34,212.20 648.67,212.31 649.00,212.41 649.33,212.49 649.66,212.56 649.99,212.61 650.32,212.65 650.65,212.67 650.98,212.70 651.31,212.71 651.64,212.72 651.97,212.73 652.30,212.74 652.63,212.75 652.96,212.76 653.29,212.77 653.62,212.77 653.95,212.78 654.28,212.79 654.61,212.79 654.94,212.79 655.27,212.79 655.60,212.79 655.93,212.78 656.26,212.77 656.59,212.75 656.92,212.73 657.26,212.70 657.59,212.66 657.92,212.60 658.25,212.54 658.58,212.47 658.91,212.39 659.24,212.29 659.57,212.18 659.90,212.06 660.23,211.92 660.56,211.76 660.89,211.59 661.22,211.41 661.55,211.21 661.88,210.99 662.21,210.76 662.54,210.51 662.87,210.24 663.20,209.95 663.53,209.65 663.86,209.33 664.19,208.99 664.52,208.64 664.85,208.27 665.18,207.88 665.51,207.48 665.84,207.06 666.17,206.62 666.50,206.17 666.83,205.70 667.16,205.21 667.49,204.70 667.82,204.18 668.15,203.63 668.48,203.05 668.81,202.46 669.14,201.85 669.47,201.22 669.80,200.58 670.13,199.92 670.46,199.24 670.79,198.56 671.12,197.88 671.45,197.19 671.78,196.50 672.11,195.82 672.44,195.14 672.77,194.46 673.10,193.79 673.43,193.13 673.76,192.48 674.09,191.84 674.42,191.21 674.75,190.59 675.08,189.98 675.41,189.38 675.74,188.80 676.07,188.22 676.40,187.65 676.73,187.10 677.06,186.56 677.39,186.02 677.72,185.50 678.05,184.99 678.38,184.48 678.71,183.99 679.05,183.51 679.38,183.03 679.71,182.56 680.04,182.10 680.37,181.65 680.70,181.21 681.03,180.77 681.36,180.34 681.69,179.92 682.02,179.50 682.35,179.10 682.68,178.70 683.01,178.30 683.34,177.92 683.67,177.54 684.00,177.17 684.33,176.80 684.66,176.45 684.99,176.10 685.32,175.75 685.65,175.41 685.98,175.08 686.31,174.74 686.64,174.40 686.97,174.07 687.30,173.73 687.63,173.38 687.96,173.03 688.29,172.68 688.62,172.32 688.95,171.96 689.28,171.59 689.61,171.22 689.94,170.84 690.27,170.47 690.60,170.09 690.93,169.72 691.26,169.35 691.59,169.00 691.92,168.65 692.25,168.32 692.58,168.00 692.91,167.71 693.24,167.43 693.57,167.17 693.90,166.94 694.23,166.72 694.56,166.53 694.89,166.35 695.22,166.20 695.55,166.07 695.88,165.95 696.21,165.85 696.54,165.77 696.87,165.70 697.20,165.65 697.53,165.61 697.86,165.59 698.19,165.57 698.52,165.56 698.85,165.57 699.18,165.58 699.51,165.59 699.84,165.61 700.17,165.64 700.50,165.66 700.83,165.69 701.17,165.72 701.50,165.75 701.83,165.78 702.16,165.80 702.49,165.83 702.82,165.85 703.15,165.87 703.48,165.88 703.81,165.89 704.14,165.90 704.47,165.90 704.80,165.90 705.13,165.89 705.46,165.87 705.79,165.85 706.12,165.82 706.45,165.77 706.78,165.71 707.11,165.63 707.44,165.54 707.77,165.42 708.10,165.29 708.43,165.14 708.76,164.98 709.09,164.79 709.42,164.59 709.75,164.37 710.08,164.14 710.41,163.89 710.74,163.63 711.07,163.37 711.40,163.10 711.73,162.83 712.06,162.56 712.39,162.30 712.72,162.05 713.05,161.80 713.38,161.57 713.71,161.35 714.04,161.15 714.37,160.95 714.70,160.78 715.03,160.61 715.36,160.46 715.69,160.32 716.02,160.20 716.35,160.09 716.68,159.99 717.01,159.90 717.34,159.82 717.67,159.75 718.00,159.68 718.33,159.63 718.66,159.58 718.99,159.53 719.32,159.49 719.65,159.45 719.98,159.41 720.31,159.38 720.64,159.34 720.97,159.31 721.30,159.27 721.63,159.23 721.96,159.19 722.29,159.15 722.62,159.10 722.95,159.04 723.29,158.98 723.62,158.92 723.95,158.85 724.28,158.77 724.61,158.69 724.94,158.61 725.27,158.52 725.60,158.42 725.93,158.32 726.26,158.21 726.59,158.08 726.92,157.95 727.25,157.80 727.58,157.64 727.91,157.46 728.24,157.27 728.57,157.06 728.90,156.84 729.23,156.60 729.56,156.35 729.89,156.09 730.22,155.81 730.55,155.53 730.88,155.24 731.21,154.95 731.54,154.65 731.87,154.37 732.20,154.09 732.53,153.81 732.86,153.55 733.19,153.31 733.52,153.07 733.85,152.86 734.18,152.66 734.51,152.48 734.84,152.32 735.17,152.17 735.50,152.04 735.83,151.93 736.16,151.83 736.49,151.75 736.82,151.69 737.15,151.63 737.48,151.60 737.81,151.57 738.14,151.55 738.47,151.55 738.80,151.55 739.13,151.57 739.46,151.59 739.79,151.62 740.12,151.65 740.45,151.69 740.78,151.73 741.11,151.78 741.44,151.83 741.77,151.88 742.10,151.93 742.43,151.98 742.76,152.03 743.09,152.09 743.42,152.14 743.75,152.19 744.08,152.24 744.41,152.29 744.74,152.34 745.08,152.38 745.41,152.43 745.74,152.47 746.07,152.50 746.40,152.53 746.73,152.55 747.06,152.56 747.39,152.56 747.72,152.54 748.05,152.51 748.38,152.47 748.71,152.41 749.04,152.33 749.37,152.24 749.70,152.14 750.03,152.02 750.36,151.89 750.69,151.75 751.02,151.60 751.35,151.45 751.68,151.30 752.01,151.14 752.34,151.00 752.67,150.86 753.00,150.73 753.33,150.61 753.66,150.50 753.99,150.41 754.32,150.33 754.65,150.26 754.98,150.21 755.31,150.17 755.64,150.14 755.97,150.13 756.30,150.13 756.63,150.14 756.96,150.16 757.29,150.20 757.62,150.24 757.95,150.29 758.28,150.35 758.61,150.41 758.94,150.48 759.27,150.55 759.60,150.63 759.93,150.71 760.26,150.79 760.59,150.87 760.92,150.95 761.25,151.03 761.58,151.11 761.91,151.19 762.24,151.27 762.57,151.34 762.90,151.41 763.23,151.48 763.56,151.54 763.89,151.60 764.22,151.65 764.55,151.70 764.88,151.74 765.21,151.77 765.54,151.80 765.87,151.83 766.20,151.84 766.53,151.85 766.86,151.84 767.20,151.82 767.53,151.78 767.86,151.73 768.19,151.66 768.52,151.58 768.85,151.48 769.18,151.36 769.51,151.23 769.84,151.08 770.17,150.92 770.50,150.74 770.83,150.56 771.16,150.37 771.49,150.18 771.82,149.99 772.15,149.80 772.48,149.61 772.81,149.44 773.14,149.27 773.47,149.12 773.80,148.98 774.13,148.86 774.46,148.75 774.79,148.65 775.12,148.57 775.45,148.50 775.78,148.45 776.11,148.41 776.44,148.39 776.77,148.38 777.10,148.38 777.43,148.40 777.76,148.42 778.09,148.46 778.42,148.51 778.75,148.56 779.08,148.62 779.41,148.69 779.74,148.77 780.07,148.85 780.40,148.93 780.73,149.02 781.06,149.10 781.39,149.20 781.72,149.29 782.05,149.38 782.38,149.47 782.71,149.56 783.04,149.64 783.37,149.73 783.70,149.81 784.03,149.89 784.36,149.97 784.69,150.04 785.02,150.11 785.35,150.18 785.68,150.24 786.01,150.29 786.34,150.35 786.67,150.39 787.00,150.42 787.33,150.44 787.66,150.45 787.99,150.44 788.32,150.42 788.65,150.38 788.98,150.32 789.32,150.25 789.65,150.16 789.98,150.06 790.31,149.94 790.64,149.82 790.97,149.68 791.30,149.53 791.63,149.38 791.96,149.23 792.29,149.08 792.62,148.94 792.95,148.80 793.28,148.66 793.61,148.54 793.94,148.43 794.27,148.32 794.60,148.22 794.93,148.14 795.26,148.06 795.59,148.00 795.92,147.94 796.25,147.89 796.58,147.85 796.91,147.82 797.24,147.80 797.57,147.78 797.90,147.76 798.23,147.76 798.56,147.75 798.89,147.74 799.22,147.74 799.55,147.74 799.88,147.73 800.21,147.73 800.54,147.72 800.87,147.71 801.20,147.70 801.53,147.68 801.86,147.66 802.19,147.63 802.52,147.59 802.85,147.55 803.18,147.50 803.51,147.45 803.84,147.38 804.17,147.31 804.50,147.23 804.83,147.15 805.16,147.05 805.49,146.95 805.82,146.84 806.15,146.72 806.48,146.59 806.81,146.46 807.14,146.31 807.47,146.15 807.80,145.97 808.13,145.78 808.46,145.58 808.79,145.35 809.12,145.12 809.45,144.86 809.78,144.59 810.11,144.30 810.44,143.99 810.77,143.68 811.11,143.35 811.44,143.02 811.77,142.68 812.10,142.34 812.43,142.01 812.76,141.67 813.09,141.35 813.42,141.02 813.75,140.71 814.08,140.40 814.41,140.10 814.74,139.81 815.07,139.53 815.40,139.25 815.73,138.99 816.06,138.73 816.39,138.48 816.72,138.24 817.05,138.00 817.38,137.77 817.71,137.55 818.04,137.33 818.37,137.12 818.70,136.90 819.03,136.69 819.36,136.49 819.69,136.28 820.02,136.07 820.35,135.86 820.68,135.64 821.01,135.43 821.34,135.21 821.67,134.99 822.00,134.76" fill="none" stroke="#c5221f" stroke-width="2"/>
<text x="662" y="56" font-family="Arial" font-size="12" fill="#c5221f">Experiment</text>
<polyline points="96.00,66.35 96.33,66.35 96.66,66.35 96.99,66.35 97.32,66.35 97.65,66.35 97.98,66.35 98.31,66.35 98.64,66.35 98.97,66.35 99.30,66.35 99.63,66.35 99.96,66.35 100.29,66.35 100.62,66.35 100.95,66.35 101.28,66.35 101.61,66.35 101.94,66.35 102.27,66.35 102.60,66.35 102.93,66.35 103.26,66.35 103.59,66.35 103.92,66.35 104.25,66.35 104.58,66.35 104.91,66.35 105.24,66.35 105.57,66.35 105.90,66.35 106.23,66.35 106.56,66.35 106.89,66.35 107.23,66.35 107.56,66.35 107.89,66.35 108.22,66.35 108.55,66.35 108.88,66.35 109.21,66.35 109.54,66.35 109.87,66.35 110.20,66.35 110.53,66.35 110.86,66.35 111.19,66.35 111.52,66.35 111.85,66.35 112.18,66.35 112.51,66.35 112.84,66.35 113.17,66.35 113.50,66.35 113.83,66.35 114.16,66.35 114.49,66.35 114.82,66.35 115.15,66.35 115.48,66.35 115.81,66.35 116.14,66.35 116.47,66.35 116.80,66.35 117.13,66.35 117.46,66.35 117.79,66.35 118.12,66.35 118.45,66.35 118.78,66.35 119.11,66.35 119.44,66.35 119.77,66.35 120.10,66.35 120.43,66.35 120.76,66.35 121.09,66.35 121.42,66.35 121.75,66.35 122.08,66.35 122.41,66.35 122.74,66.35 123.07,66.35 123.40,66.35 123.73,66.35 124.06,66.35 124.39,66.35 124.72,66.35 125.05,66.35 125.38,66.35 125.71,66.35 126.04,66.35 126.37,66.36 126.70,66.36 127.03,66.37 127.36,66.38 127.69,66.38 128.02,66.39 128.35,66.40 128.68,66.40 129.02,66.41 129.35,66.42 129.68,66.43 130.01,66.44 130.34,66.45 130.67,66.45 131.00,66.46 131.33,66.47 131.66,66.48 131.99,66.49 132.32,66.50 132.65,66.51 132.98,66.52 133.31,66.53 133.64,66.55 133.97,66.56 134.30,66.57 134.63,66.58 134.96,66.59 135.29,66.61 135.62,66.62 135.95,66.64 136.28,66.65 136.61,66.66 136.94,66.68 137.27,66.69 137.60,66.71 137.93,66.73 138.26,66.74 138.59,66.76 138.92,66.78 139.25,66.80 139.58,66.82 139.91,66.83 140.24,66.85 140.57,66.87 140.90,66.90 141.23,66.92 141.56,66.94 141.89,66.96 142.22,66.98 142.55,67.01 142.88,67.03 143.21,67.06 143.54,67.08 143.87,67.11 144.20,67.14 144.53,67.17 144.86,67.20 145.19,67.23 145.52,67.26 145.85,67.29 146.18,67.32 146.51,67.35 146.84,67.39 147.17,67.42 147.50,67.46 147.83,67.50 148.16,67.53 148.49,67.57 148.82,67.61 149.15,67.65 149.48,67.70 149.81,67.74 150.14,67.78 150.47,67.83 150.80,67.88 151.14,67.93 151.47,67.98 151.80,68.03 152.13,68.08 152.46,68.13 152.79,68.19 153.12,68.25 153.45,68.31 153.78,68.37 154.11,68.43 154.44,68.49 154.77,68.56 155.10,68.62 155.43,68.69 155.76,68.76 156.09,68.84 156.42,68.91 156.75,68.99 157.08,69.07 157.41,69.15 157.74,69.23 158.07,69.32 158.40,69.41 158.73,69.50 159.06,69.59 159.39,69.68 159.72,69.78 160.05,69.88 160.38,69.98 160.71,70.09 161.04,70.20 161.37,70.31 161.70,70.42 162.03,70.54 162.36,70.66 162.69,70.79 163.02,70.91 163.35,71.04 163.68,71.18 164.01,71.31 164.34,71.46 164.67,71.60 165.00,71.75 165.33,71.90 165.66,72.06 165.99,72.22 166.32,72.38 166.65,72.55 166.98,72.73 167.31,72.90 167.64,73.09 167.97,73.27 168.30,73.46 168.63,73.66 168.96,73.86 169.29,74.07 169.62,74.28 169.95,74.50 170.28,74.72 170.61,74.95 170.94,75.19 171.27,75.43 171.60,75.67 171.93,75.93 172.26,76.19 172.59,76.45 172.92,76.72 173.26,77.00 173.59,77.29 173.92,77.58 174.25,77.88 174.58,78.19 174.91,78.50 175.24,78.82 175.57,79.15 175.90,79.49 176.23,79.84 176.56,80.19 176.89,80.55 177.22,80.92 177.55,81.30 177.88,81.69 178.21,82.08 178.54,82.49 178.87,82.90 179.20,83.33 179.53,83.76 179.86,84.21 180.19,84.66 180.52,85.12 180.85,85.59 181.18,86.08 181.51,86.57 181.84,87.08 182.17,87.59 182.50,88.12 182.83,88.65 183.16,89.20 183.49,89.76 183.82,90.33 184.15,90.92 184.48,91.51 184.81,92.12 185.14,92.73 185.47,93.36 185.80,94.00 186.13,94.66 186.46,95.32 186.79,96.00 187.12,96.69 187.45,97.40 187.78,98.11 188.11,98.84 188.44,99.58 188.77,100.34 189.10,101.11 189.43,101.88 189.76,102.68 190.09,103.48 190.42,104.30 190.75,105.13 191.08,105.98 191.41,106.83 191.74,107.70 192.07,108.58 192.40,109.48 192.73,110.39 193.06,111.31 193.39,112.24 193.72,113.18 194.05,114.14 194.38,115.11 194.71,116.09 195.05,117.08 195.38,118.08 195.71,119.09 196.04,120.12 196.37,121.16 196.70,122.20 197.03,123.26 197.36,124.33 197.69,125.40 198.02,126.49 198.35,127.59 198.68,128.69 199.01,129.81 199.34,130.93 199.67,132.06 200.00,133.19 200.33,134.34 200.66,135.49 200.99,136.65 201.32,137.81 201.65,138.98 201.98,140.16 202.31,141.34 202.64,142.52 202.97,143.71 203.30,144.90 203.63,146.10 203.96,147.30 204.29,148.50 204.62,149.70 204.95,150.91 205.28,152.11 205.61,153.31 205.94,154.52 206.27,155.72 206.60,156.93 206.93,158.13 207.26,159.33 207.59,160.53 207.92,161.72 208.25,162.92 208.58,164.10 208.91,165.29 209.24,166.47 209.57,167.64 209.90,168.81 210.23,169.98 210.56,171.13 210.89,172.28 211.22,173.43 211.55,174.56 211.88,175.69 212.21,176.81 212.54,177.93 212.87,179.03 213.20,180.13 213.53,181.21 213.86,182.29 214.19,183.35 214.52,184.41 214.85,185.46 215.18,186.49 215.51,187.51 215.84,188.53 216.17,189.53 216.50,190.52 216.83,191.50 217.17,192.47 217.50,193.42 217.83,194.36 218.16,195.29 218.49,196.21 218.82,197.12 219.15,198.01 219.48,198.89 219.81,199.76 220.14,200.61 220.47,201.46 220.80,202.29 221.13,203.10 221.46,203.91 221.79,204.70 222.12,205.48 222.45,206.24 222.78,207.00 223.11,207.74 223.44,208.46 223.77,209.18 224.10,209.88 224.43,210.57 224.76,211.25 225.09,211.91 225.42,212.57 225.75,213.21 226.08,213.83 226.41,214.45 226.74,215.05 227.07,215.65 227.40,216.23 227.73,216.80 228.06,217.36 228.39,217.90 228.72,218.44 229.05,218.96 229.38,219.48 229.71,219.98 230.04,220.47 230.37,220.96 230.70,221.43 231.03,221.89 231.36,222.34 231.69,222.79 232.02,223.22 232.35,223.64 232.68,224.06 233.01,224.46 233.34,224.86 233.67,225.24 234.00,225.62 234.33,225.99 234.66,226.35 234.99,226.70 235.32,227.05 235.65,227.38 235.98,227.71 236.31,228.03 236.64,228.35 236.97,228.65 237.30,228.95 237.63,229.24 237.96,229.53 238.29,229.81 238.62,230.08 238.95,230.34 239.29,230.60 239.62,230.85 239.95,231.10 240.28,231.34 240.61,231.57 240.94,231.80 241.27,232.03 241.60,232.24 241.93,232.45 242.26,232.66 242.59,232.86 242.92,233.06 243.25,233.25 243.58,233.44 243.91,233.62 244.24,233.80 244.57,233.97 244.90,234.14 245.23,234.30 245.56,234.46 245.89,234.62 246.22,234.77 246.55,234.92 246.88,235.06 247.21,235.21 247.54,235.34 247.87,235.48 248.20,235.61 248.53,235.73 248.86,235.86 249.19,235.98 249.52,236.10 249.85,236.21 250.18,236.32 250.51,236.43 250.84,236.54 251.17,236.64 251.50,236.74 251.83,236.84 252.16,236.93 252.49,237.02 252.82,237.11 253.15,237.20 253.48,237.29 253.81,237.37 254.14,237.45 254.47,237.53 254.80,237.61 255.13,237.68 255.46,237.76 255.79,237.83 256.12,237.90 256.45,237.96 256.78,238.03 257.11,238.09 257.44,238.15 257.77,238.22 258.10,238.27 258.43,238.33 258.76,238.39 259.09,238.44 259.42,238.50 259.75,238.55 260.08,238.60 260.41,238.65 260.74,238.69 261.08,238.74 261.41,238.79 261.74,238.83 262.07,238.87 262.40,238.91 262.73,238.96 263.06,238.99 263.39,239.03 263.72,239.07 264.05,239.11 264.38,239.14 264.71,239.18 265.04,239.21 265.37,239.25 265.70,239.28 266.03,239.31 266.36,239.34 266.69,239.37 267.02,239.40 267.35,239.43 267.68,239.45 268.01,239.48 268.34,239.51 268.67,239.53 269.00,239.56 269.33,239.58 269.66,239.61 269.99,239.63 270.32,239.65 270.65,239.67 270.98,239.70 271.31,239.72 271.64,239.74 271.97,239.76 272.30,239.78 272.63,239.80 272.96,239.81 273.29,239.83 273.62,239.85 273.95,239.87 274.28,239.89 274.61,239.90 274.94,239.92 275.27,239.93 275.60,239.95 275.93,239.97 276.26,239.98 276.59,240.00 276.92,240.01 277.25,240.02 277.58,240.04 277.91,240.05 278.24,240.07 278.57,240.08 278.90,240.09 279.23,240.11 279.56,240.12 279.89,240.13 280.22,240.14 280.55,240.15 280.88,240.17 281.21,240.18 281.54,240.19 281.87,240.20 282.20,240.21 282.53,240.22 282.86,240.24 283.20,240.25 283.53,240.26 283.86,240.27 284.19,240.28 284.52,240.29 284.85,240.30 285.18,240.31 285.51,240.32 285.84,240.33 286.17,240.34 286.50,240.35 286.83,240.36 287.16,240.37 287.49,240.38 287.82,240.39 288.15,240.40 288.48,240.42 288.81,240.43 289.14,240.44 289.47,240.45 289.80,240.46 290.13,240.47 290.46,240.48 290.79,240.49 291.12,240.50 291.45,240.51 291.78,240.52 292.11,240.53 292.44,240.55 292.77,240.56 293.10,240.57 293.43,240.58 293.76,240.59 294.09,240.60 294.42,240.62 294.75,240.63 295.08,240.64 295.41,240.66 295.74,240.67 296.07,240.68 296.40,240.70 296.73,240.71 297.06,240.72 297.39,240.74 297.72,240.75 298.05,240.77 298.38,240.78 298.71,240.80 299.04,240.81 299.37,240.83 299.70,240.85 300.03,240.86 300.36,240.88 300.69,240.90 301.02,240.92 301.35,240.94 301.68,240.95 302.01,240.97 302.34,240.99 302.67,241.01 303.00,241.03 303.33,241.06 303.66,241.08 303.99,241.10 304.32,241.12 304.65,241.15 304.98,241.17 305.32,241.19 305.65,241.22 305.98,241.25 306.31,241.27 306.64,241.30 306.97,241.33 307.30,241.36 307.63,241.38 307.96,241.41 308.29,241.45 308.62,241.48 308.95,241.51 309.28,241.54 309.61,241.58 309.94,241.61 310.27,241.65 310.60,241.68 310.93,241.72 311.26,241.76 311.59,241.80 311.92,241.84 312.25,241.88 312.58,241.93 312.91,241.97 313.24,242.02 313.57,242.06 313.90,242.11 314.23,242.16 314.56,242.21 314.89,242.26 315.22,242.32 315.55,242.37 315.88,242.43 316.21,242.49 316.54,242.54 316.87,242.61 317.20,242.67 317.53,242.73 317.86,242.80 318.19,242.87 318.52,242.93 318.85,243.01 319.18,243.08 319.51,243.15 319.84,243.23 320.17,243.31 320.50,243.39 320.83,243.47 321.16,243.56 321.49,243.65 321.82,243.74 322.15,243.83 322.48,243.92 322.81,244.02 323.14,244.12 323.47,244.22 323.80,244.33 324.13,244.44 324.46,244.55 324.79,244.66 325.12,244.78 325.45,244.90 325.78,245.02 326.11,245.14 326.44,245.27 326.77,245.41 327.11,245.54 327.44,245.68 327.77,245.82 328.10,245.97 328.43,246.12 328.76,246.27 329.09,246.43 329.42,246.59 329.75,246.76 330.08,246.93 330.41,247.10 330.74,247.28 331.07,247.46 331.40,247.65 331.73,247.84 332.06,248.04 332.39,248.24 332.72,248.45 333.05,248.66 333.38,248.88 333.71,249.10 334.04,249.33 334.37,249.56 334.70,249.80 335.03,250.04 335.36,250.29 335.69,250.55 336.02,250.81 336.35,251.08 336.68,251.35 337.01,251.63 337.34,251.92 337.67,252.21 338.00,252.51 338.33,252.82 338.66,253.13 338.99,253.45 339.32,253.78 339.65,254.11 339.98,254.45 340.31,254.80 340.64,255.16 340.97,255.52 341.30,255.89 341.63,256.27 341.96,256.66 342.29,257.06 342.62,257.46 342.95,257.87 343.28,258.29 343.61,258.72 343.94,259.16 344.27,259.60 344.60,260.06 344.93,260.52 345.26,260.99 345.59,261.47 345.92,261.96 346.25,262.45 346.58,262.96 346.91,263.48 347.24,264.00 347.57,264.53 347.90,265.08 348.23,265.63 348.56,266.19 348.89,266.76 349.23,267.34 349.56,267.93 349.89,268.52 350.22,269.13 350.55,269.75 350.88,270.37 351.21,271.00 351.54,271.65 351.87,272.30 352.20,272.96 352.53,273.62 352.86,274.30 353.19,274.99 353.52,275.68 353.85,276.38 354.18,277.09 354.51,277.81 354.84,278.54 355.17,279.27 355.50,280.02 355.83,280.76 356.16,281.52 356.49,282.28 356.82,283.05 357.15,283.83 357.48,284.62 357.81,285.40 358.14,286.20 358.47,287.00 358.80,287.81 359.13,288.62 359.46,289.44 359.79,290.26 360.12,291.09 360.45,291.92 360.78,292.75 361.11,293.59 361.44,294.43 361.77,295.27 362.10,296.12 362.43,296.97 362.76,297.82 363.09,298.67 363.42,299.53 363.75,300.38 364.08,301.24 364.41,302.09 364.74,302.95 365.07,303.80 365.40,304.66 365.73,305.51 366.06,306.37 366.39,307.22 366.72,308.07 367.05,308.92 367.38,309.76 367.71,310.60 368.04,311.44 368.37,312.28 368.70,313.11 369.03,313.94 369.36,314.76 369.69,315.58 370.02,316.40 370.35,317.20 370.68,318.01 371.02,318.81 371.35,319.60 371.68,320.38 372.01,321.16 372.34,321.94 372.67,322.70 373.00,323.46 373.33,324.22 373.66,324.96 373.99,325.70 374.32,326.43 374.65,327.15 374.98,327.86 375.31,328.57 375.64,329.27 375.97,329.96 376.30,330.64 376.63,331.31 376.96,331.97 377.29,332.63 377.62,333.27 377.95,333.91 378.28,334.54 378.61,335.16 378.94,335.77 379.27,336.37 379.60,336.96 379.93,337.54 380.26,338.12 380.59,338.68 380.92,339.24 381.25,339.78 381.58,340.32 381.91,340.85 382.24,341.37 382.57,341.88 382.90,342.38 383.23,342.87 383.56,343.35 383.89,343.83 384.22,344.30 384.55,344.75 384.88,345.20 385.21,345.64 385.54,346.07 385.87,346.50 386.20,346.91 386.53,347.32 386.86,347.72 387.19,348.11 387.52,348.49 387.85,348.87 388.18,349.23 388.51,349.59 388.84,349.95 389.17,350.29 389.50,350.63 389.83,350.96 390.16,351.28 390.49,351.60 390.82,351.91 391.15,352.21 391.48,352.50 391.81,352.79 392.14,353.08 392.47,353.35 392.80,353.62 393.14,353.89 393.47,354.14 393.80,354.40 394.13,354.64 394.46,354.88 394.79,355.12 395.12,355.35 395.45,355.57 395.78,355.79 396.11,356.00 396.44,356.21 396.77,356.42 397.10,356.62 397.43,356.81 397.76,357.00 398.09,357.18 398.42,357.36 398.75,357.54 399.08,357.71 399.41,357.88 399.74,358.04 400.07,358.20 400.40,358.36 400.73,358.51 401.06,358.66 401.39,358.80 401.72,358.94 402.05,359.08 402.38,359.21 402.71,359.34 403.04,359.47 403.37,359.59 403.70,359.71 404.03,359.83 404.36,359.94 404.69,360.06 405.02,360.16 405.35,360.27 405.68,360.37 406.01,360.47 406.34,360.57 406.67,360.67 407.00,360.76 407.33,360.85 407.66,360.94 407.99,361.03 408.32,361.11 408.65,361.19 408.98,361.27 409.31,361.35 409.64,361.42 409.97,361.50 410.30,361.57 410.63,361.64 410.96,361.71 411.29,361.77 411.62,361.84 411.95,361.90 412.28,361.96 412.61,362.02 412.94,362.08 413.27,362.13 413.60,362.19 413.93,362.24 414.26,362.29 414.59,362.34 414.92,362.39 415.26,362.44 415.59,362.49 415.92,362.53 416.25,362.58 416.58,362.62 416.91,362.66 417.24,362.70 417.57,362.74 417.90,362.78 418.23,362.82 418.56,362.85 418.89,362.89 419.22,362.92 419.55,362.96 419.88,362.99 420.21,363.02 420.54,363.05 420.87,363.08 421.20,363.11 421.53,363.14 421.86,363.17 422.19,363.20 422.52,363.22 422.85,363.25 423.18,363.27 423.51,363.30 423.84,363.32 424.17,363.34 424.50,363.37 424.83,363.39 425.16,363.41 425.49,363.43 425.82,363.45 426.15,363.47 426.48,363.49 426.81,363.51 427.14,363.52 427.47,363.54 427.80,363.56 428.13,363.58 428.46,363.59 428.79,363.61 429.12,363.62 429.45,363.64 429.78,363.65 430.11,363.67 430.44,363.68 430.77,363.69 431.10,363.70 431.43,363.72 431.76,363.73 432.09,363.74 432.42,363.75 432.75,363.76 433.08,363.77 433.41,363.79 433.74,363.80 434.07,363.81 434.40,363.81 434.73,363.82 435.06,363.83 435.39,363.84 435.72,363.85 436.05,363.86 436.38,363.87 436.71,363.88 437.05,363.88 437.38,363.89 437.71,363.90 438.04,363.90 438.37,363.91 438.70,363.92 439.03,363.92 439.36,363.93 439.69,363.94 440.02,363.94 440.35,363.95 440.68,363.95 441.01,363.96 441.34,363.96 441.67,363.97 442.00,363.97 442.33,363.98 442.66,363.98 442.99,363.99 443.32,363.99 443.65,364.00 443.98,364.00 444.31,364.00 444.64,364.00 444.97,364.00 445.30,364.00 445.63,364.00 445.96,364.00 446.29,364.00 446.62,364.00 446.95,364.00 447.28,364.00 447.61,364.00 447.94,364.00 448.27,364.00 448.60,364.00 448.93,364.00 449.26,364.00 449.59,364.00 449.92,364.00 450.25,364.00 450.58,364.00 450.91,364.00 451.24,364.00 451.57,364.00 451.90,364.00 452.23,364.00 452.56,364.00 452.89,364.00 453.22,364.00 453.55,364.00 453.88,364.00 454.21,364.00 454.54,364.00 454.87,364.00 455.20,364.00 455.53,364.00 455.86,364.00 456.19,364.00 456.52,364.00 456.85,364.00 457.18,364.00 457.51,364.00 457.84,364.00 458.17,364.00 458.50,364.00 458.83,364.00 459.17,364.00 459.50,364.00 459.83,364.00 460.16,364.00 460.49,364.00 460.82,364.00 461.15,364.00 461.48,364.00 461.81,364.00 462.14,364.00 462.47,364.00 462.80,364.00 463.13,364.00 463.46,364.00 463.79,364.00 464.12,364.00 464.45,364.00 464.78,364.00 465.11,364.00 465.44,364.00 465.77,364.00 466.10,364.00 466.43,364.00 466.76,364.00 467.09,364.00 467.42,364.00 467.75,364.00 468.08,364.00 468.41,364.00 468.74,364.00 469.07,364.00 469.40,364.00 469.73,364.00 470.06,364.00 470.39,364.00 470.72,364.00 471.05,364.00 471.38,364.00 471.71,364.00 472.04,364.00 472.37,364.00 472.70,364.00 473.03,364.00 473.36,364.00 473.69,364.00 474.02,364.00 474.35,363.99 474.68,363.99 475.01,363.98 475.34,363.97 475.67,363.97 476.00,363.96 476.33,363.95 476.66,363.95 476.99,363.94 477.32,363.93 477.65,363.92 477.98,363.91 478.31,363.91 478.64,363.90 478.97,363.89 479.30,363.88 479.63,363.87 479.96,363.86 480.29,363.85 480.62,363.84 480.95,363.83 481.29,363.82 481.62,363.81 481.95,363.80 482.28,363.78 482.61,363.77 482.94,363.76 483.27,363.75 483.60,363.73 483.93,363.72 484.26,363.70 484.59,363.69 484.92,363.67 485.25,363.66 485.58,363.64 485.91,363.63 486.24,363.61 486.57,363.59 486.90,363.58 487.23,363.56 487.56,363.54 487.89,363.52 488.22,363.50 488.55,363.48 488.88,363.46 489.21,363.44 489.54,363.42 489.87,363.39 490.20,363.37 490.53,363.35 490.86,363.32 491.19,363.30 491.52,363.27 491.85,363.24 492.18,363.22 492.51,363.19 492.84,363.16 493.17,363.13 493.50,363.10 493.83,363.07 494.16,363.03 494.49,363.00 494.82,362.97 495.15,362.93 495.48,362.90 495.81,362.86 496.14,362.82 496.47,362.78 496.80,362.74 497.13,362.70 497.46,362.66 497.79,362.61 498.12,362.57 498.45,362.52 498.78,362.47 499.11,362.43 499.44,362.38 499.77,362.32 500.10,362.27 500.43,362.22 500.76,362.16 501.09,362.10 501.42,362.04 501.75,361.98 502.08,361.92 502.41,361.86 502.74,361.79 503.08,361.73 503.41,361.66 503.74,361.58 504.07,361.51 504.40,361.44 504.73,361.36 505.06,361.28 505.39,361.20 505.72,361.12 506.05,361.03 506.38,360.94 506.71,360.85 507.04,360.76 507.37,360.66 507.70,360.56 508.03,360.46 508.36,360.36 508.69,360.25 509.02,360.15 509.35,360.03 509.68,359.92 510.01,359.80 510.34,359.68 510.67,359.56 511.00,359.43 511.33,359.30 511.66,359.16 511.99,359.02 512.32,358.88 512.65,358.74 512.98,358.59 513.31,358.44 513.64,358.28 513.97,358.12 514.30,357.95 514.63,357.78 514.96,357.61 515.29,357.43 515.62,357.25 515.95,357.06 516.28,356.87 516.61,356.67 516.94,356.47 517.27,356.26 517.60,356.04 517.93,355.83 518.26,355.60 518.59,355.37 518.92,355.14 519.25,354.89 519.58,354.65 519.91,354.39 520.24,354.13 520.57,353.87 520.90,353.59 521.23,353.31 521.56,353.03 521.89,352.73 522.22,352.43 522.55,352.13 522.88,351.81 523.21,351.49 523.54,351.16 523.87,350.82 524.20,350.47 524.53,350.12 524.86,349.75 525.20,349.38 525.53,349.00 525.86,348.61 526.19,348.21 526.52,347.81 526.85,347.39 527.18,346.97 527.51,346.53 527.84,346.09 528.17,345.63 528.50,345.17 528.83,344.69 529.16,344.21 529.49,343.71 529.82,343.20 530.15,342.69 530.48,342.16 530.81,341.62 531.14,341.07 531.47,340.51 531.80,339.94 532.13,339.35 532.46,338.76 532.79,338.15 533.12,337.53 533.45,336.90 533.78,336.25 534.11,335.60 534.44,334.93 534.77,334.25 535.10,333.56 535.43,332.85 535.76,332.13 536.09,331.40 536.42,330.66 536.75,329.90 537.08,329.13 537.41,328.35 537.74,327.56 538.07,326.75 538.40,325.93 538.73,325.10 539.06,324.25 539.39,323.39 539.72,322.52 540.05,321.64 540.38,320.74 540.71,319.83 541.04,318.91 541.37,317.98 541.70,317.03 542.03,316.07 542.36,315.10 542.69,314.12 543.02,313.13 543.35,312.12 543.68,311.11 544.01,310.08 544.34,309.04 544.67,307.99 545.00,306.93 545.33,305.87 545.66,304.79 545.99,303.70 546.32,302.60 546.65,301.50 546.98,300.38 547.32,299.26 547.65,298.13 547.98,296.99 548.31,295.84 548.64,294.69 548.97,293.53 549.30,292.36 549.63,291.19 549.96,290.02 550.29,288.84 550.62,287.65 550.95,286.46 551.28,285.27 551.61,284.07 551.94,282.87 552.27,281.67 552.60,280.47 552.93,279.27 553.26,278.06 553.59,276.86 553.92,275.65 554.25,274.45 554.58,273.25 554.91,272.04 555.24,270.84 555.57,269.65 555.90,268.45 556.23,267.26 556.56,266.07 556.89,264.89 557.22,263.71 557.55,262.54 557.88,261.37 558.21,260.20 558.54,259.05 558.87,257.90 559.20,256.76 559.53,255.62 559.86,254.49 560.19,253.37 560.52,252.26 560.85,251.16 561.18,250.06 561.51,248.98 561.84,247.91 562.17,246.84 562.50,245.79 562.83,244.74 563.16,243.71 563.49,242.69 563.82,241.68 564.15,240.68 564.48,239.69 564.81,238.71 565.14,237.75 565.47,236.79 565.80,235.85 566.13,234.92 566.46,234.01 566.79,233.10 567.12,232.21 567.45,231.33 567.78,230.47 568.11,229.61 568.44,228.77 568.77,227.95 569.11,227.13 569.44,226.33 569.77,225.54 570.10,224.76 570.43,224.00 570.76,223.25 571.09,222.51 571.42,221.78 571.75,221.07 572.08,220.37 572.41,219.68 572.74,219.01 573.07,218.35 573.40,217.70 573.73,217.06 574.06,216.43 574.39,215.82 574.72,215.21 575.05,214.62 575.38,214.04 575.71,213.47 576.04,212.92 576.37,212.37 576.70,211.84 577.03,211.32 577.36,210.80 577.69,210.30 578.02,209.81 578.35,209.33 578.68,208.86 579.01,208.40 579.34,207.95 579.67,207.51 580.00,207.08 580.33,206.65 580.66,206.24 580.99,205.84 581.32,205.44 581.65,205.06 581.98,204.68 582.31,204.31 582.64,203.95 582.97,203.60 583.30,203.26 583.63,202.92 583.96,202.60 584.29,202.28 584.62,201.97 584.95,201.66 585.28,201.36 585.61,201.07 585.94,200.79 586.27,200.51 586.60,200.24 586.93,199.98 587.26,199.72 587.59,199.47 587.92,199.22 588.25,198.98 588.58,198.75 588.91,198.52 589.24,198.30 589.57,198.08 589.90,197.87 590.23,197.67 590.56,197.47 590.89,197.27 591.23,197.08 591.56,196.89 591.89,196.71 592.22,196.54 592.55,196.36 592.88,196.20 593.21,196.03 593.54,195.87 593.87,195.72 594.20,195.57 594.53,195.42 594.86,195.27 595.19,195.13 595.52,195.00 595.85,194.86 596.18,194.73 596.51,194.61 596.84,194.48 597.17,194.36 597.50,194.25 597.83,194.13 598.16,194.02 598.49,193.92 598.82,193.81 599.15,193.71 599.48,193.61 599.81,193.51 600.14,193.42 600.47,193.32 600.80,193.23 601.13,193.15 601.46,193.06 601.79,192.98 602.12,192.90 602.45,192.82 602.78,192.74 603.11,192.67 603.44,192.59 603.77,192.52 604.10,192.46 604.43,192.39 604.76,192.32 605.09,192.26 605.42,192.20 605.75,192.14 606.08,192.08 606.41,192.02 606.74,191.97 607.07,191.91 607.40,191.86 607.73,191.81 608.06,191.76 608.39,191.71 608.72,191.66 609.05,191.61 609.38,191.57 609.71,191.52 610.04,191.48 610.37,191.44 610.70,191.40 611.03,191.36 611.36,191.32 611.69,191.28 612.02,191.25 612.35,191.21 612.68,191.18 613.02,191.14 613.35,191.11 613.68,191.08 614.01,191.05 614.34,191.02 614.67,190.99 615.00,190.96 615.33,190.93 615.66,190.90 615.99,190.88 616.32,190.85 616.65,190.82 616.98,190.80 617.31,190.78 617.64,190.75 617.97,190.73 618.30,190.71 618.63,190.68 618.96,190.66 619.29,190.64 619.62,190.62 619.95,190.60 620.28,190.58 620.61,190.56 620.94,190.54 621.27,190.53 621.60,190.51 621.93,190.49 622.26,190.47 622.59,190.46 622.92,190.44 623.25,190.42 623.58,190.41 623.91,190.39 624.24,190.38 624.57,190.36 624.90,190.35 625.23,190.33 625.56,190.32 625.89,190.31 626.22,190.29 626.55,190.28 626.88,190.27 627.21,190.25 627.54,190.24 627.87,190.23 628.20,190.22 628.53,190.20 628.86,190.19 629.19,190.18 629.52,190.17 629.85,190.16 630.18,190.15 630.51,190.14 630.84,190.12 631.17,190.11 631.50,190.10 631.83,190.09 632.16,190.08 632.49,190.07 632.82,190.06 633.15,190.05 633.48,190.04 633.81,190.03 634.14,190.02 634.47,190.01 634.80,190.00 635.14,189.99 635.47,189.98 635.80,189.97 636.13,189.96 636.46,189.94 636.79,189.93 637.12,189.92 637.45,189.91 637.78,189.90 638.11,189.89 638.44,189.88 638.77,189.87 639.10,189.86 639.43,189.85 639.76,189.84 640.09,189.83 640.42,189.81 640.75,189.80 641.08,189.79 641.41,189.78 641.74,189.77 642.07,189.75 642.40,189.74 642.73,189.73 643.06,189.72 643.39,189.70 643.72,189.69 644.05,189.68 644.38,189.66 644.71,189.65 645.04,189.64 645.37,189.62 645.70,189.61 646.03,189.59 646.36,189.58 646.69,189.56 647.02,189.54 647.35,189.53 647.68,189.51 648.01,189.49 648.34,189.48 648.67,189.46 649.00,189.44 649.33,189.42 649.66,189.40 649.99,189.38 650.32,189.36 650.65,189.34 650.98,189.32 651.31,189.30 651.64,189.28 651.97,189.26 652.30,189.24 652.63,189.21 652.96,189.19 653.29,189.16 653.62,189.14 653.95,189.11 654.28,189.09 654.61,189.06 654.94,189.03 655.27,189.00 655.60,188.97 655.93,188.94 656.26,188.91 656.59,188.88 656.92,188.85 657.26,188.81 657.59,188.78 657.92,188.74 658.25,188.71 658.58,188.67 658.91,188.63 659.24,188.59 659.57,188.55 659.90,188.51 660.23,188.47 660.56,188.43 660.89,188.38 661.22,188.34 661.55,188.29 661.88,188.24 662.21,188.19 662.54,188.14 662.87,188.09 663.20,188.04 663.53,187.98 663.86,187.92 664.19,187.87 664.52,187.81 664.85,187.75 665.18,187.68 665.51,187.62 665.84,187.55 666.17,187.49 666.50,187.42 666.83,187.34 667.16,187.27 667.49,187.20 667.82,187.12 668.15,187.04 668.48,186.96 668.81,186.87 669.14,186.79 669.47,186.70 669.80,186.61 670.13,186.52 670.46,186.42 670.79,186.33 671.12,186.22 671.45,186.12 671.78,186.02 672.11,185.91 672.44,185.80 672.77,185.68 673.10,185.57 673.43,185.45 673.76,185.32 674.09,185.20 674.42,185.07 674.75,184.93 675.08,184.80 675.41,184.66 675.74,184.52 676.07,184.37 676.40,184.22 676.73,184.06 677.06,183.91 677.39,183.74 677.72,183.58 678.05,183.41 678.38,183.23 678.71,183.05 679.05,182.87 679.38,182.68 679.71,182.49 680.04,182.29 680.37,182.09 680.70,181.88 681.03,181.67 681.36,181.45 681.69,181.23 682.02,181.00 682.35,180.76 682.68,180.53 683.01,180.28 683.34,180.03 683.67,179.77 684.00,179.51 684.33,179.24 684.66,178.97 684.99,178.69 685.32,178.40 685.65,178.11 685.98,177.80 686.31,177.50 686.64,177.18 686.97,176.86 687.30,176.53 687.63,176.20 687.96,175.85 688.29,175.50 688.62,175.15 688.95,174.78 689.28,174.41 689.61,174.03 689.94,173.64 690.27,173.24 690.60,172.84 690.93,172.42 691.26,172.00 691.59,171.57 691.92,171.14 692.25,170.69 692.58,170.23 692.91,169.77 693.24,169.30 693.57,168.82 693.90,168.33 694.23,167.83 694.56,167.32 694.89,166.80 695.22,166.28 695.55,165.74 695.88,165.20 696.21,164.65 696.54,164.08 696.87,163.51 697.20,162.93 697.53,162.34 697.86,161.74 698.19,161.14 698.52,160.52 698.85,159.89 699.18,159.26 699.51,158.61 699.84,157.96 700.17,157.30 700.50,156.63 700.83,155.95 701.17,155.27 701.50,154.57 701.83,153.87 702.16,153.15 702.49,152.44 702.82,151.71 703.15,150.97 703.48,150.23 703.81,149.48 704.14,148.72 704.47,147.96 704.80,147.19 705.13,146.41 705.46,145.62 705.79,144.83 706.12,144.04 706.45,143.23 706.78,142.43 707.11,141.61 707.44,140.80 707.77,139.97 708.10,139.15 708.43,138.31 708.76,137.48 709.09,136.64 709.42,135.80 709.75,134.96 710.08,134.11 710.41,133.26 710.74,132.41 711.07,131.56 711.40,130.70 711.73,129.85 712.06,128.99 712.39,128.13 712.72,127.28 713.05,126.42 713.38,125.57 713.71,124.71 714.04,123.86 714.37,123.01 714.70,122.16 715.03,121.31 715.36,120.47 715.69,119.63 716.02,118.79 716.35,117.95 716.68,117.12 717.01,116.29 717.34,115.47 717.67,114.65 718.00,113.84 718.33,113.03 718.66,112.23 718.99,111.43 719.32,110.64 719.65,109.85 719.98,109.08 720.31,108.30 720.64,107.54 720.97,106.78 721.30,106.03 721.63,105.29 721.96,104.55 722.29,103.82 722.62,103.10 722.95,102.39 723.29,101.68 723.62,100.99 723.95,100.30 724.28,99.62 724.61,98.95 724.94,98.29 725.27,97.63 725.60,96.99 725.93,96.35 726.26,95.73 726.59,95.11 726.92,94.50 727.25,93.90 727.58,93.31 727.91,92.73 728.24,92.16 728.57,91.59 728.90,91.04 729.23,90.49 729.56,89.96 729.89,89.43 730.22,88.91 730.55,88.40 730.88,87.90 731.21,87.41 731.54,86.93 731.87,86.46 732.20,85.99 732.53,85.54 732.86,85.09 733.19,84.65 733.52,84.22 733.85,83.80 734.18,83.38 734.51,82.98 734.84,82.58 735.17,82.19 735.50,81.81 735.83,81.44 736.16,81.07 736.49,80.71 736.82,80.36 737.15,80.02 737.48,79.68 737.81,79.35 738.14,79.03 738.47,78.72 738.80,78.41 739.13,78.11 739.46,77.81 739.79,77.52 740.12,77.24 740.45,76.97 740.78,76.70 741.11,76.43 741.44,76.18 741.77,75.93 742.10,75.68 742.43,75.44 742.76,75.21 743.09,74.98 743.42,74.75 743.75,74.54 744.08,74.32 744.41,74.12 744.74,73.91 745.08,73.72 745.41,73.52 745.74,73.33 746.07,73.15 746.40,72.97 746.73,72.79 747.06,72.62 747.39,72.46 747.72,72.29 748.05,72.14 748.38,71.98 748.71,71.83 749.04,71.68 749.37,71.54 749.70,71.40 750.03,71.26 750.36,71.13 750.69,71.00 751.02,70.87 751.35,70.75 751.68,70.63 752.01,70.51 752.34,70.40 752.67,70.29 753.00,70.18 753.33,70.07 753.66,69.97 753.99,69.87 754.32,69.77 754.65,69.68 754.98,69.59 755.31,69.50 755.64,69.41 755.97,69.32 756.30,69.24 756.63,69.16 756.96,69.08 757.29,69.00 757.62,68.93 757.95,68.85 758.28,68.78 758.61,68.71 758.94,68.64 759.27,68.58 759.60,68.51 759.93,68.45 760.26,68.39 760.59,68.33 760.92,68.27 761.25,68.22 761.58,68.16 761.91,68.11 762.24,68.06 762.57,68.01 762.90,67.96 763.23,67.91 763.56,67.87 763.89,67.82 764.22,67.78 764.55,67.73 764.88,67.69 765.21,67.65 765.54,67.61 765.87,67.57 766.20,67.54 766.53,67.50 766.86,67.46 767.20,67.43 767.53,67.40 767.86,67.36 768.19,67.33 768.52,67.30 768.85,67.27 769.18,67.24 769.51,67.21 769.84,67.18 770.17,67.16 770.50,67.13 770.83,67.11 771.16,67.08 771.49,67.06 771.82,67.03 772.15,67.01 772.48,66.99 772.81,66.97 773.14,66.94 773.47,66.92 773.80,66.90 774.13,66.88 774.46,66.87 774.79,66.85 775.12,66.83 775.45,66.81 775.78,66.79 776.11,66.78 776.44,66.76 776.77,66.75 777.10,66.73 777.43,66.72 777.76,66.70 778.09,66.69 778.42,66.67 778.75,66.66 779.08,66.65 779.41,66.64 779.74,66.62 780.07,66.61 780.40,66.60 780.73,66.59 781.06,66.58 781.39,66.57 781.72,66.56 782.05,66.55 782.38,66.54 782.71,66.53 783.04,66.52 783.37,66.51 783.70,66.50 784.03,66.49 784.36,66.48 784.69,66.48 785.02,66.47 785.35,66.46 785.68,66.45 786.01,66.45 786.34,66.44 786.67,66.43 787.00,66.42 787.33,66.42 787.66,66.41 787.99,66.41 788.32,66.40 788.65,66.39 788.98,66.39 789.32,66.38 789.65,66.38 789.98,66.37 790.31,66.37 790.64,66.36 790.97,66.36 791.30,66.35 791.63,66.35 791.96,66.35 792.29,66.34 792.62,66.34 792.95,66.34 793.28,66.34 793.61,66.34 793.94,66.34 794.27,66.34 794.60,66.34 794.93,66.34 795.26,66.34 795.59,66.34 795.92,66.34 796.25,66.34 796.58,66.34 796.91,66.34 797.24,66.34 797.57,66.34 797.90,66.34 798.23,66.34 798.56,66.34 798.89,66.34 799.22,66.34 799.55,66.34 799.88,66.34 800.21,66.34 800.54,66.34 800.87,66.34 801.20,66.34 801.53,66.34 801.86,66.34 802.19,66.34 802.52,66.34 802.85,66.34 803.18,66.34 803.51,66.34 803.84,66.34 804.17,66.34 804.50,66.34 804.83,66.34 805.16,66.34 805.49,66.34 805.82,66.34 806.15,66.34 806.48,66.34 806.81,66.34 807.14,66.34 807.47,66.34 807.80,66.34 808.13,66.34 808.46,66.34 808.79,66.34 809.12,66.34 809.45,66.34 809.78,66.34 810.11,66.34 810.44,66.34 810.77,66.34 811.11,66.34 811.44,66.34 811.77,66.34 812.10,66.34 812.43,66.34 812.76,66.34 813.09,66.34 813.42,66.34 813.75,66.34 814.08,66.34 814.41,66.34 814.74,66.34 815.07,66.34 815.40,66.34 815.73,66.34 816.06,66.34 816.39,66.34 816.72,66.34 817.05,66.34 817.38,66.34 817.71,66.34 818.04,66.34 818.37,66.34 818.70,66.34 819.03,66.34 819.36,66.34 819.69,66.34 820.02,66.34 820.35,66.34 820.68,66.34 821.01,66.34 821.34,66.34 821.67,66.34 822.00,66.34" fill="none" stroke="#2f6f9f" stroke-width="2"/>
<text x="662" y="74" font-family="Arial" font-size="12" fill="#2f6f9f">Simulation</text>
</svg>