<svg xmlns="http://www.w3.org/2000/svg" width="850" height="460" viewBox="0 0 850 460">
<rect width="100%" height="100%" fill="white"/>
<text x="425.0" y="23" text-anchor="middle" font-family="Arial" font-size="15">N=4 measured transferred charge selected cycle</text>
<line x1="96" y1="394" x2="822" y2="394" stroke="#333"/>
<line x1="96" y1="34" x2="96" y2="394" stroke="#333"/>
<text x="425.0" y="442" text-anchor="middle" font-family="Arial" font-size="12">Time (s)</text>
<text x="16" y="230.0" text-anchor="middle" transform="rotate(-90 16 230.0)" font-family="Arial" font-size="12">Transferred charge (nC)</text>
<line x1="96" y1="34.0" x2="822" y2="34.0" stroke="#e1e5ea"/>
<text x="88" y="38.0" text-anchor="end" font-family="Arial" font-size="10">68.71</text>
<line x1="96" y1="106.0" x2="822" y2="106.0" stroke="#e1e5ea"/>
<text x="88" y="110.0" text-anchor="end" font-family="Arial" font-size="10">-83.91</text>
<line x1="96" y1="178.0" x2="822" y2="178.0" stroke="#e1e5ea"/>
<text x="88" y="182.0" text-anchor="end" font-family="Arial" font-size="10">-236.53</text>
<line x1="96" y1="250.0" x2="822" y2="250.0" stroke="#e1e5ea"/>
<text x="88" y="254.0" text-anchor="end" font-family="Arial" font-size="10">-389.15</text>
<line x1="96" y1="322.0" x2="822" y2="322.0" stroke="#e1e5ea"/>
<text x="88" y="326.0" text-anchor="end" font-family="Arial" font-size="10">-541.78</text>
<line x1="96" y1="394.0" x2="822" y2="394.0" stroke="#e1e5ea"/>
<text x="88" y="398.0" text-anchor="end" font-family="Arial" font-size="10">-694.40</text>
<line x1="96" y1="66.4" x2="822" y2="66.4" stroke="#999" stroke-dasharray="4 4"/>
<polyline points="96.00,64.00 96.20,64.11 96.40,64.23 96.60,64.34 96.80,64.46 97.01,64.59 97.21,64.71 97.41,64.84 97.61,64.98 97.81,65.11 98.01,65.25 98.21,65.39 98.41,65.53 98.61,65.67 98.81,65.82 99.02,65.96 99.22,66.11 99.42,66.26 99.62,66.41 99.82,66.56 100.02,66.72 100.22,66.87 100.42,67.03 100.62,67.18 100.83,67.34 101.03,67.50 101.23,67.66 101.43,67.82 101.63,67.99 101.83,68.15 102.03,68.31 102.23,68.48 102.43,68.64 102.63,68.81 102.84,68.97 103.04,69.14 103.24,69.31 103.44,69.47 103.64,69.64 103.84,69.80 104.04,69.97 104.24,70.13 104.44,70.29 104.65,70.45 104.85,70.61 105.05,70.76 105.25,70.91 105.45,71.06 105.65,71.21 105.85,71.35 106.05,71.49 106.25,71.63 106.45,71.76 106.66,71.89 106.86,72.02 107.06,72.15 107.26,72.27 107.46,72.40 107.66,72.52 107.86,72.64 108.06,72.77 108.26,72.89 108.47,73.02 108.67,73.15 108.87,73.29 109.07,73.42 109.27,73.57 109.47,73.71 109.67,73.87 109.87,74.02 110.07,74.19 110.27,74.36 110.48,74.54 110.68,74.72 110.88,74.91 111.08,75.11 111.28,75.31 111.48,75.52 111.68,75.74 111.88,75.96 112.08,76.19 112.29,76.43 112.49,76.67 112.69,76.93 112.89,77.18 113.09,77.45 113.29,77.72 113.49,78.00 113.69,78.29 113.89,78.58 114.09,78.88 114.30,79.18 114.50,79.49 114.70,79.81 114.90,80.13 115.10,80.46 115.30,80.80 115.50,81.14 115.70,81.48 115.90,81.83 116.11,82.18 116.31,82.54 116.51,82.91 116.71,83.28 116.91,83.65 117.11,84.02 117.31,84.40 117.51,84.79 117.71,85.18 117.91,85.57 118.12,85.96 118.32,86.36 118.52,86.76 118.72,87.17 118.92,87.57 119.12,87.98 119.32,88.40 119.52,88.81 119.72,89.23 119.93,89.65 120.13,90.07 120.33,90.50 120.53,90.93 120.73,91.36 120.93,91.79 121.13,92.22 121.33,92.66 121.53,93.10 121.73,93.53 121.94,93.98 122.14,94.42 122.34,94.86 122.54,95.31 122.74,95.76 122.94,96.20 123.14,96.65 123.34,97.10 123.54,97.55 123.75,98.00 123.95,98.44 124.15,98.89 124.35,99.33 124.55,99.77 124.75,100.20 124.95,100.64 125.15,101.07 125.35,101.49 125.55,101.91 125.76,102.33 125.96,102.75 126.16,103.16 126.36,103.56 126.56,103.97 126.76,104.37 126.96,104.76 127.16,105.16 127.36,105.55 127.57,105.93 127.77,106.32 127.97,106.70 128.17,107.08 128.37,107.47 128.57,107.85 128.77,108.23 128.97,108.61 129.17,109.00 129.37,109.38 129.58,109.77 129.78,110.17 129.98,110.57 130.18,110.97 130.38,111.38 130.58,111.80 130.78,112.22 130.98,112.64 131.18,113.08 131.39,113.51 131.59,113.96 131.79,114.41 131.99,114.87 132.19,115.34 132.39,115.81 132.59,116.29 132.79,116.77 132.99,117.26 133.19,117.76 133.40,118.26 133.60,118.77 133.80,119.28 134.00,119.80 134.20,120.32 134.40,120.85 134.60,121.39 134.80,121.92 135.00,122.47 135.21,123.01 135.41,123.56 135.61,124.12 135.81,124.68 136.01,125.24 136.21,125.80 136.41,126.37 136.61,126.93 136.81,127.50 137.01,128.08 137.22,128.65 137.42,129.22 137.62,129.80 137.82,130.38 138.02,130.96 138.22,131.53 138.42,132.11 138.62,132.69 138.82,133.27 139.03,133.85 139.23,134.43 139.43,135.00 139.63,135.58 139.83,136.16 140.03,136.73 140.23,137.30 140.43,137.87 140.63,138.44 140.83,139.01 141.04,139.57 141.24,140.14 141.44,140.70 141.64,141.26 141.84,141.82 142.04,142.37 142.24,142.93 142.44,143.48 142.64,144.03 142.85,144.57 143.05,145.11 143.25,145.64 143.45,146.17 143.65,146.70 143.85,147.22 144.05,147.73 144.25,148.23 144.45,148.73 144.65,149.22 144.86,149.71 145.06,150.18 145.26,150.65 145.46,151.11 145.66,151.57 145.86,152.02 146.06,152.46 146.26,152.89 146.46,153.32 146.67,153.74 146.87,154.15 147.07,154.55 147.27,154.96 147.47,155.35 147.67,155.74 147.87,156.13 148.07,156.51 148.27,156.88 148.47,157.26 148.68,157.63 148.88,158.00 149.08,158.36 149.28,158.73 149.48,159.10 149.68,159.46 149.88,159.83 150.08,160.21 150.28,160.58 150.49,160.96 150.69,161.35 150.89,161.73 151.09,162.13 151.29,162.53 151.49,162.93 151.69,163.35 151.89,163.76 152.09,164.19 152.29,164.62 152.50,165.06 152.70,165.50 152.90,165.95 153.10,166.41 153.30,166.88 153.50,167.34 153.70,167.82 153.90,168.30 154.10,168.79 154.31,169.28 154.51,169.78 154.71,170.28 154.91,170.78 155.11,171.29 155.31,171.81 155.51,172.32 155.71,172.84 155.91,173.36 156.11,173.89 156.32,174.42 156.52,174.95 156.72,175.48 156.92,176.01 157.12,176.55 157.32,177.08 157.52,177.62 157.72,178.15 157.92,178.69 158.13,179.22 158.33,179.76 158.53,180.29 158.73,180.82 158.93,181.36 159.13,181.88 159.33,182.41 159.53,182.94 159.73,183.46 159.93,183.98 160.14,184.50 160.34,185.02 160.54,185.53 160.74,186.04 160.94,186.55 161.14,187.06 161.34,187.56 161.54,188.06 161.74,188.55 161.95,189.04 162.15,189.53 162.35,190.01 162.55,190.48 162.75,190.94 162.95,191.40 163.15,191.85 163.35,192.29 163.55,192.72 163.75,193.15 163.96,193.56 164.16,193.97 164.36,194.37 164.56,194.76 164.76,195.14 164.96,195.51 165.16,195.87 165.36,196.22 165.56,196.56 165.77,196.90 165.97,197.23 166.17,197.55 166.37,197.86 166.57,198.17 166.77,198.47 166.97,198.76 167.17,199.05 167.37,199.34 167.57,199.62 167.78,199.89 167.98,200.16 168.18,200.43 168.38,200.69 168.58,200.96 168.78,201.22 168.98,201.47 169.18,201.73 169.38,201.99 169.59,202.25 169.79,202.51 169.99,202.77 170.19,203.03 170.39,203.30 170.59,203.57 170.79,203.84 170.99,204.13 171.19,204.42 171.39,204.71 171.60,205.02 171.80,205.33 172.00,205.65 172.20,205.97 172.40,206.31 172.60,206.65 172.80,207.01 173.00,207.37 173.20,207.74 173.41,208.11 173.61,208.50 173.81,208.89 174.01,209.29 174.21,209.69 174.41,210.11 174.61,210.53 174.81,210.95 175.01,211.39 175.21,211.82 175.42,212.27 175.62,212.71 175.82,213.16 176.02,213.62 176.22,214.08 176.42,214.54 176.62,215.00 176.82,215.47 177.02,215.93 177.23,216.40 177.43,216.87 177.63,217.34 177.83,217.81 178.03,218.28 178.23,218.75 178.43,219.21 178.63,219.68 178.83,220.14 179.03,220.60 179.24,221.06 179.44,221.52 179.64,221.97 179.84,222.42 180.04,222.87 180.24,223.31 180.44,223.75 180.64,224.18 180.84,224.61 181.05,225.03 181.25,225.45 181.45,225.86 181.65,226.27 181.85,226.67 182.05,227.07 182.25,227.46 182.45,227.84 182.65,228.22 182.85,228.58 183.06,228.94 183.26,229.29 183.46,229.63 183.66,229.95 183.86,230.27 184.06,230.57 184.26,230.87 184.46,231.15 184.66,231.42 184.87,231.67 185.07,231.92 185.27,232.15 185.47,232.36 185.67,232.57 185.87,232.76 186.07,232.94 186.27,233.11 186.47,233.26 186.67,233.40 186.88,233.53 187.08,233.65 187.28,233.76 187.48,233.86 187.68,233.95 187.88,234.02 188.08,234.09 188.28,234.15 188.48,234.19 188.69,234.24 188.89,234.27 189.09,234.29 189.29,234.31 189.49,234.33 189.69,234.33 189.89,234.34 190.09,234.33 190.29,234.33 190.49,234.33 190.70,234.32 190.90,234.31 191.10,234.31 191.30,234.30 191.50,234.30 191.70,234.29 191.90,234.29 192.10,234.29 192.30,234.29 192.51,234.30 192.71,234.30 192.91,234.31 193.11,234.32 193.31,234.33 193.51,234.35 193.71,234.36 193.91,234.38 194.11,234.39 194.31,234.41 194.52,234.43 194.72,234.45 194.92,234.47 195.12,234.49 195.32,234.50 195.52,234.52 195.72,234.54 195.92,234.55 196.12,234.56 196.33,234.57 196.53,234.58 196.73,234.59 196.93,234.59 197.13,234.59 197.33,234.58 197.53,234.57 197.73,234.56 197.93,234.54 198.13,234.52 198.34,234.49 198.54,234.46 198.74,234.42 198.94,234.38 199.14,234.33 199.34,234.28 199.54,234.22 199.74,234.15 199.94,234.08 200.15,234.00 200.35,233.92 200.55,233.83 200.75,233.73 200.95,233.62 201.15,233.52 201.35,233.40 201.55,233.28 201.75,233.14 201.95,233.00 202.16,232.86 202.36,232.70 202.56,232.54 202.76,232.36 202.96,232.17 203.16,231.98 203.36,231.77 203.56,231.55 203.76,231.33 203.97,231.09 204.17,230.84 204.37,230.58 204.57,230.31 204.77,230.03 204.97,229.74 205.17,229.44 205.37,229.14 205.57,228.82 205.77,228.50 205.98,228.16 206.18,227.83 206.38,227.48 206.58,227.13 206.78,226.77 206.98,226.41 207.18,226.04 207.38,225.67 207.58,225.30 207.79,224.92 207.99,224.55 208.19,224.17 208.39,223.78 208.59,223.40 208.79,223.02 208.99,222.64 209.19,222.26 209.39,221.88 209.59,221.51 209.80,221.13 210.00,220.76 210.20,220.40 210.40,220.03 210.60,219.68 210.80,219.33 211.00,218.98 211.20,218.65 211.40,218.32 211.61,218.01 211.81,217.70 212.01,217.40 212.21,217.12 212.41,216.84 212.61,216.58 212.81,216.34 213.01,216.10 213.21,215.88 213.41,215.67 213.62,215.47 213.82,215.28 214.02,215.11 214.22,214.95 214.42,214.80 214.62,214.67 214.82,214.54 215.02,214.43 215.22,214.32 215.43,214.23 215.63,214.15 215.83,214.08 216.03,214.02 216.23,213.96 216.43,213.92 216.63,213.88 216.83,213.85 217.03,213.82 217.23,213.81 217.44,213.79 217.64,213.79 217.84,213.79 218.04,213.79 218.24,213.80 218.44,213.81 218.64,213.83 218.84,213.85 219.04,213.87 219.25,213.89 219.45,213.91 219.65,213.93 219.85,213.96 220.05,213.98 220.25,214.01 220.45,214.03 220.65,214.05 220.85,214.07 221.05,214.09 221.26,214.11 221.46,214.12 221.66,214.13 221.86,214.14 222.06,214.14 222.26,214.13 222.46,214.12 222.66,214.10 222.86,214.07 223.07,214.04 223.27,213.99 223.47,213.94 223.67,213.88 223.87,213.81 224.07,213.73 224.27,213.64 224.47,213.54 224.67,213.42 224.87,213.30 225.08,213.17 225.28,213.04 225.48,212.89 225.68,212.73 225.88,212.56 226.08,212.39 226.28,212.21 226.48,212.01 226.68,211.82 226.89,211.61 227.09,211.40 227.29,211.18 227.49,210.96 227.69,210.73 227.89,210.49 228.09,210.25 228.29,210.01 228.49,209.77 228.69,209.52 228.90,209.27 229.10,209.02 229.30,208.76 229.50,208.51 229.70,208.26 229.90,208.01 230.10,207.76 230.30,207.51 230.50,207.27 230.71,207.03 230.91,206.80 231.11,206.58 231.31,206.36 231.51,206.15 231.71,205.95 231.91,205.77 232.11,205.59 232.31,205.42 232.51,205.26 232.72,205.11 232.92,204.97 233.12,204.85 233.32,204.73 233.52,204.63 233.72,204.54 233.92,204.46 234.12,204.39 234.32,204.33 234.53,204.29 234.73,204.25 234.93,204.23 235.13,204.21 235.33,204.21 235.53,204.21 235.73,204.23 235.93,204.25 236.13,204.28 236.33,204.33 236.54,204.38 236.74,204.43 236.94,204.50 237.14,204.57 237.34,204.66 237.54,204.74 237.74,204.84 237.94,204.94 238.14,205.05 238.35,205.16 238.55,205.28 238.75,205.40 238.95,205.53 239.15,205.67 239.35,205.81 239.55,205.95 239.75,206.10 239.95,206.25 240.15,206.40 240.36,206.56 240.56,206.73 240.76,206.89 240.96,207.06 241.16,207.23 241.36,207.41 241.56,207.58 241.76,207.75 241.96,207.92 242.17,208.10 242.37,208.27 242.57,208.43 242.77,208.60 242.97,208.76 243.17,208.92 243.37,209.07 243.57,209.22 243.77,209.37 243.97,209.51 244.18,209.65 244.38,209.79 244.58,209.92 244.78,210.05 244.98,210.17 245.18,210.30 245.38,210.42 245.58,210.53 245.78,210.65 245.99,210.76 246.19,210.87 246.39,210.98 246.59,211.09 246.79,211.20 246.99,211.31 247.19,211.42 247.39,211.53 247.59,211.64 247.79,211.75 248.00,211.86 248.20,211.98 248.40,212.09 248.60,212.21 248.80,212.34 249.00,212.46 249.20,212.59 249.40,212.72 249.60,212.85 249.81,212.99 250.01,213.14 250.21,213.28 250.41,213.44 250.61,213.60 250.81,213.76 251.01,213.93 251.21,214.11 251.41,214.30 251.61,214.49 251.82,214.70 252.02,214.92 252.22,215.14 252.42,215.38 252.62,215.63 252.82,215.88 253.02,216.15 253.22,216.43 253.42,216.72 253.63,217.03 253.83,217.34 254.03,217.66 254.23,218.00 254.43,218.34 254.63,218.69 254.83,219.06 255.03,219.43 255.23,219.81 255.43,220.19 255.64,220.59 255.84,220.99 256.04,221.40 256.24,221.81 256.44,222.23 256.64,222.66 256.84,223.09 257.04,223.52 257.24,223.95 257.45,224.39 257.65,224.83 257.85,225.28 258.05,225.72 258.25,226.16 258.45,226.61 258.65,227.05 258.85,227.49 259.05,227.94 259.25,228.38 259.46,228.81 259.66,229.25 259.86,229.68 260.06,230.11 260.26,230.54 260.46,230.96 260.66,231.38 260.86,231.79 261.06,232.20 261.27,232.60 261.47,233.00 261.67,233.39 261.87,233.77 262.07,234.14 262.27,234.50 262.47,234.86 262.67,235.20 262.87,235.53 263.07,235.85 263.28,236.16 263.48,236.45 263.68,236.74 263.88,237.01 264.08,237.26 264.28,237.50 264.48,237.73 264.68,237.95 264.88,238.15 265.09,238.34 265.29,238.52 265.49,238.69 265.69,238.84 265.89,238.98 266.09,239.11 266.29,239.23 266.49,239.34 266.69,239.44 266.89,239.53 267.10,239.61 267.30,239.68 267.50,239.74 267.70,239.79 267.90,239.84 268.10,239.88 268.30,239.92 268.50,239.94 268.70,239.97 268.91,239.98 269.11,240.00 269.31,240.00 269.51,240.01 269.71,240.01 269.91,240.01 270.11,240.00 270.31,240.00 270.51,239.99 270.71,239.98 270.92,239.98 271.12,239.97 271.32,239.97 271.52,239.97 271.72,239.97 271.92,239.98 272.12,240.00 272.32,240.02 272.52,240.04 272.73,240.08 272.93,240.12 273.13,240.16 273.33,240.22 273.53,240.28 273.73,240.35 273.93,240.43 274.13,240.52 274.33,240.61 274.53,240.71 274.74,240.82 274.94,240.93 275.14,241.05 275.34,241.18 275.54,241.31 275.74,241.45 275.94,241.60 276.14,241.75 276.34,241.91 276.55,242.06 276.75,242.23 276.95,242.40 277.15,242.57 277.35,242.74 277.55,242.92 277.75,243.10 277.95,243.28 278.15,243.46 278.35,243.64 278.56,243.82 278.76,244.01 278.96,244.19 279.16,244.37 279.36,244.56 279.56,244.74 279.76,244.92 279.96,245.10 280.16,245.28 280.36,245.45 280.57,245.62 280.77,245.80 280.97,245.96 281.17,246.13 281.37,246.29 281.57,246.45 281.77,246.61 281.97,246.76 282.17,246.90 282.38,247.04 282.58,247.18 282.78,247.30 282.98,247.42 283.18,247.53 283.38,247.63 283.58,247.73 283.78,247.81 283.98,247.89 284.18,247.95 284.39,248.01 284.59,248.06 284.79,248.10 284.99,248.12 285.19,248.14 285.39,248.15 285.59,248.15 285.79,248.15 285.99,248.13 286.20,248.11 286.40,248.07 286.60,248.04 286.80,247.99 287.00,247.94 287.20,247.88 287.40,247.82 287.60,247.75 287.80,247.68 288.00,247.60 288.21,247.52 288.41,247.44 288.61,247.35 288.81,247.26 289.01,247.17 289.21,247.08 289.41,246.99 289.61,246.90 289.81,246.80 290.02,246.71 290.22,246.62 290.42,246.53 290.62,246.45 290.82,246.37 291.02,246.29 291.22,246.22 291.42,246.15 291.62,246.09 291.82,246.04 292.03,246.00 292.23,245.97 292.43,245.95 292.63,245.93 292.83,245.93 293.03,245.94 293.23,245.95 293.43,245.98 293.63,246.02 293.84,246.07 294.04,246.13 294.24,246.20 294.44,246.28 294.64,246.37 294.84,246.46 295.04,246.57 295.24,246.69 295.44,246.82 295.64,246.95 295.85,247.09 296.05,247.24 296.25,247.40 296.45,247.56 296.65,247.73 296.85,247.90 297.05,248.08 297.25,248.27 297.45,248.46 297.66,248.66 297.86,248.85 298.06,249.06 298.26,249.26 298.46,249.47 298.66,249.68 298.86,249.89 299.06,250.10 299.26,250.31 299.46,250.53 299.67,250.74 299.87,250.96 300.07,251.17 300.27,251.38 300.47,251.60 300.67,251.81 300.87,252.02 301.07,252.22 301.27,252.43 301.48,252.63 301.68,252.83 301.88,253.03 302.08,253.23 302.28,253.41 302.48,253.60 302.68,253.78 302.88,253.95 303.08,254.11 303.28,254.27 303.49,254.42 303.69,254.55 303.89,254.69 304.09,254.81 304.29,254.92 304.49,255.02 304.69,255.12 304.89,255.20 305.09,255.27 305.30,255.34 305.50,255.39 305.70,255.44 305.90,255.47 306.10,255.50 306.30,255.52 306.50,255.53 306.70,255.54 306.90,255.53 307.10,255.52 307.31,255.50 307.51,255.48 307.71,255.45 307.91,255.42 308.11,255.38 308.31,255.33 308.51,255.28 308.71,255.23 308.91,255.18 309.12,255.12 309.32,255.06 309.52,255.00 309.72,254.94 309.92,254.87 310.12,254.81 310.32,254.75 310.52,254.69 310.72,254.63 310.92,254.57 311.13,254.52 311.33,254.47 311.53,254.42 311.73,254.39 311.93,254.36 312.13,254.33 312.33,254.32 312.53,254.31 312.73,254.32 312.94,254.33 313.14,254.35 313.34,254.38 313.54,254.42 313.74,254.47 313.94,254.53 314.14,254.59 314.34,254.67 314.54,254.76 314.74,254.85 314.95,254.95 315.15,255.06 315.35,255.18 315.55,255.30 315.75,255.44 315.95,255.57 316.15,255.72 316.35,255.87 316.55,256.02 316.76,256.18 316.96,256.35 317.16,256.52 317.36,256.69 317.56,256.86 317.76,257.04 317.96,257.22 318.16,257.40 318.36,257.59 318.56,257.77 318.77,257.95 318.97,258.14 319.17,258.32 319.37,258.51 319.57,258.69 319.77,258.87 319.97,259.05 320.17,259.23 320.37,259.40 320.58,259.58 320.78,259.75 320.98,259.91 321.18,260.08 321.38,260.24 321.58,260.40 321.78,260.55 321.98,260.70 322.18,260.84 322.38,260.97 322.59,261.10 322.79,261.22 322.99,261.34 323.19,261.44 323.39,261.53 323.59,261.62 323.79,261.69 323.99,261.76 324.19,261.81 324.40,261.86 324.60,261.89 324.80,261.91 325.00,261.92 325.20,261.92 325.40,261.91 325.60,261.89 325.80,261.86 326.00,261.82 326.20,261.77 326.41,261.71 326.61,261.64 326.81,261.57 327.01,261.48 327.21,261.39 327.41,261.29 327.61,261.18 327.81,261.06 328.01,260.94 328.22,260.82 328.42,260.69 328.62,260.56 328.82,260.42 329.02,260.28 329.22,260.13 329.42,259.99 329.62,259.84 329.82,259.69 330.02,259.54 330.23,259.38 330.43,259.23 330.63,259.08 330.83,258.94 331.03,258.79 331.23,258.65 331.43,258.51 331.63,258.38 331.83,258.25 332.04,258.13 332.24,258.02 332.44,257.92 332.64,257.83 332.84,257.74 333.04,257.67 333.24,257.60 333.44,257.54 333.64,257.50 333.84,257.46 334.05,257.44 334.25,257.42 334.45,257.41 334.65,257.41 334.85,257.42 335.05,257.44 335.25,257.47 335.45,257.51 335.65,257.55 335.86,257.61 336.06,257.67 336.26,257.73 336.46,257.81 336.66,257.88 336.86,257.97 337.06,258.06 337.26,258.15 337.46,258.25 337.66,258.35 337.87,258.46 338.07,258.56 338.27,258.67 338.47,258.79 338.67,258.90 338.87,259.01 339.07,259.13 339.27,259.25 339.47,259.36 339.68,259.48 339.88,259.60 340.08,259.71 340.28,259.83 340.48,259.94 340.68,260.06 340.88,260.17 341.08,260.27 341.28,260.38 341.48,260.49 341.69,260.59 341.89,260.68 342.09,260.78 342.29,260.87 342.49,260.95 342.69,261.03 342.89,261.10 343.09,261.16 343.29,261.22 343.50,261.26 343.70,261.30 343.90,261.33 344.10,261.35 344.30,261.36 344.50,261.37 344.70,261.36 344.90,261.34 345.10,261.32 345.30,261.28 345.51,261.23 345.71,261.18 345.91,261.12 346.11,261.04 346.31,260.96 346.51,260.88 346.71,260.78 346.91,260.68 347.11,260.57 347.32,260.45 347.52,260.33 347.72,260.21 347.92,260.08 348.12,259.94 348.32,259.80 348.52,259.66 348.72,259.52 348.92,259.37 349.12,259.22 349.33,259.07 349.53,258.92 349.73,258.76 349.93,258.61 350.13,258.46 350.33,258.31 350.53,258.16 350.73,258.02 350.93,257.87 351.14,257.73 351.34,257.60 351.54,257.47 351.74,257.35 351.94,257.23 352.14,257.12 352.34,257.03 352.54,256.94 352.74,256.86 352.94,256.79 353.15,256.73 353.35,256.69 353.55,256.65 353.75,256.63 353.95,256.61 354.15,256.61 354.35,256.62 354.55,256.64 354.75,256.67 354.96,256.71 355.16,256.76 355.36,256.82 355.56,256.89 355.76,256.97 355.96,257.06 356.16,257.15 356.36,257.26 356.56,257.37 356.76,257.49 356.97,257.62 357.17,257.75 357.37,257.89 357.57,258.03 357.77,258.18 357.97,258.34 358.17,258.50 358.37,258.66 358.57,258.82 358.78,258.99 358.98,259.16 359.18,259.34 359.38,259.51 359.58,259.69 359.78,259.86 359.98,260.04 360.18,260.22 360.38,260.40 360.58,260.58 360.79,260.76 360.99,260.93 361.19,261.11 361.39,261.29 361.59,261.46 361.79,261.64 361.99,261.81 362.19,261.98 362.39,262.15 362.60,262.31 362.80,262.47 363.00,262.63 363.20,262.78 363.40,262.92 363.60,263.06 363.80,263.20 364.00,263.33 364.20,263.45 364.40,263.56 364.61,263.66 364.81,263.76 365.01,263.85 365.21,263.93 365.41,264.00 365.61,264.07 365.81,264.12 366.01,264.17 366.21,264.21 366.42,264.25 366.62,264.27 366.82,264.29 367.02,264.31 367.22,264.31 367.42,264.31 367.62,264.31 367.82,264.29 368.02,264.28 368.22,264.26 368.43,264.24 368.63,264.21 368.83,264.18 369.03,264.15 369.23,264.12 369.43,264.09 369.63,264.05 369.83,264.02 370.03,263.99 370.24,263.96 370.44,263.93 370.64,263.90 370.84,263.88 371.04,263.87 371.24,263.86 371.44,263.85 371.64,263.86 371.84,263.87 372.04,263.89 372.25,263.92 372.45,263.96 372.65,264.02 372.85,264.08 373.05,264.15 373.25,264.24 373.45,264.33 373.65,264.44 373.85,264.56 374.06,264.69 374.26,264.83 374.46,264.98 374.66,265.15 374.86,265.32 375.06,265.50 375.26,265.70 375.46,265.90 375.66,266.11 375.86,266.34 376.07,266.57 376.27,266.81 376.47,267.06 376.67,267.31 376.87,267.57 377.07,267.84 377.27,268.12 377.47,268.40 377.67,268.69 377.88,268.98 378.08,269.27 378.28,269.58 378.48,269.88 378.68,270.19 378.88,270.50 379.08,270.82 379.28,271.13 379.48,271.45 379.68,271.77 379.89,272.09 380.09,272.42 380.29,272.74 380.49,273.07 380.69,273.39 380.89,273.71 381.09,274.04 381.29,274.36 381.49,274.68 381.70,275.00 381.90,275.32 382.10,275.64 382.30,275.96 382.50,276.27 382.70,276.59 382.90,276.90 383.10,277.20 383.30,277.50 383.50,277.80 383.71,278.09 383.91,278.38 384.11,278.66 384.31,278.93 384.51,279.19 384.71,279.45 384.91,279.70 385.11,279.94 385.31,280.17 385.52,280.39 385.72,280.60 385.92,280.80 386.12,281.00 386.32,281.18 386.52,281.36 386.72,281.53 386.92,281.69 387.12,281.84 387.32,281.99 387.53,282.12 387.73,282.25 387.93,282.38 388.13,282.50 388.33,282.61 388.53,282.72 388.73,282.82 388.93,282.92 389.13,283.01 389.34,283.10 389.54,283.19 389.74,283.27 389.94,283.36 390.14,283.44 390.34,283.52 390.54,283.60 390.74,283.69 390.94,283.77 391.14,283.86 391.35,283.95 391.55,284.05 391.75,284.15 391.95,284.26 392.15,284.38 392.35,284.50 392.55,284.63 392.75,284.77 392.95,284.92 393.16,285.08 393.36,285.24 393.56,285.42 393.76,285.60 393.96,285.79 394.16,285.99 394.36,286.20 394.56,286.42 394.76,286.65 394.96,286.88 395.17,287.12 395.37,287.37 395.57,287.63 395.77,287.89 395.97,288.16 396.17,288.43 396.37,288.71 396.57,289.00 396.77,289.29 396.98,289.58 397.18,289.88 397.38,290.19 397.58,290.49 397.78,290.80 397.98,291.11 398.18,291.42 398.38,291.74 398.58,292.05 398.78,292.37 398.99,292.68 399.19,293.00 399.39,293.32 399.59,293.63 399.79,293.95 399.99,294.26 400.19,294.57 400.39,294.89 400.59,295.19 400.80,295.50 401.00,295.81 401.20,296.11 401.40,296.41 401.60,296.71 401.80,297.00 402.00,297.29 402.20,297.57 402.40,297.86 402.60,298.14 402.81,298.41 403.01,298.68 403.21,298.94 403.41,299.20 403.61,299.45 403.81,299.70 404.01,299.93 404.21,300.16 404.41,300.38 404.62,300.59 404.82,300.80 405.02,300.99 405.22,301.17 405.42,301.34 405.62,301.51 405.82,301.66 406.02,301.80 406.22,301.94 406.42,302.06 406.63,302.18 406.83,302.28 407.03,302.38 407.23,302.47 407.43,302.55 407.63,302.62 407.83,302.69 408.03,302.75 408.23,302.80 408.44,302.85 408.64,302.89 408.84,302.92 409.04,302.95 409.24,302.98 409.44,303.01 409.64,303.03 409.84,303.05 410.04,303.07 410.24,303.09 410.45,303.11 410.65,303.13 410.85,303.16 411.05,303.18 411.25,303.21 411.45,303.25 411.65,303.29 411.85,303.34 412.05,303.40 412.26,303.47 412.46,303.54 412.66,303.62 412.86,303.72 413.06,303.82 413.26,303.93 413.46,304.05 413.66,304.18 413.86,304.32 414.06,304.47 414.27,304.63 414.47,304.80 414.67,304.98 414.87,305.17 415.07,305.36 415.27,305.57 415.47,305.78 415.67,306.00 415.87,306.23 416.08,306.47 416.28,306.71 416.48,306.96 416.68,307.22 416.88,307.48 417.08,307.75 417.28,308.02 417.48,308.30 417.68,308.58 417.88,308.87 418.09,309.15 418.29,309.45 418.49,309.74 418.69,310.04 418.89,310.33 419.09,310.63 419.29,310.93 419.49,311.24 419.69,311.54 419.90,311.84 420.10,312.15 420.30,312.45 420.50,312.75 420.70,313.05 420.90,313.35 421.10,313.65 421.30,313.95 421.50,314.25 421.70,314.54 421.91,314.84 422.11,315.13 422.31,315.42 422.51,315.71 422.71,315.99 422.91,316.27 423.11,316.55 423.31,316.83 423.51,317.10 423.72,317.37 423.92,317.64 424.12,317.90 424.32,318.15 424.52,318.40 424.72,318.64 424.92,318.88 425.12,319.11 425.32,319.32 425.52,319.54 425.73,319.74 425.93,319.93 426.13,320.12 426.33,320.30 426.53,320.47 426.73,320.63 426.93,320.78 427.13,320.93 427.33,321.06 427.54,321.19 427.74,321.32 427.94,321.43 428.14,321.54 428.34,321.65 428.54,321.75 428.74,321.84 428.94,321.93 429.14,322.02 429.34,322.10 429.55,322.18 429.75,322.26 429.95,322.33 430.15,322.41 430.35,322.48 430.55,322.56 430.75,322.64 430.95,322.72 431.15,322.80 431.36,322.89 431.56,322.99 431.76,323.09 431.96,323.20 432.16,323.31 432.36,323.44 432.56,323.57 432.76,323.71 432.96,323.86 433.16,324.01 433.37,324.18 433.57,324.35 433.77,324.54 433.97,324.73 434.17,324.93 434.37,325.14 434.57,325.36 434.77,325.59 434.97,325.83 435.18,326.07 435.38,326.32 435.58,326.58 435.78,326.85 435.98,327.12 436.18,327.40 436.38,327.69 436.58,327.98 436.78,328.27 436.98,328.57 437.19,328.88 437.39,329.18 437.59,329.50 437.79,329.81 437.99,330.13 438.19,330.45 438.39,330.77 438.59,331.10 438.79,331.42 439.00,331.75 439.20,332.07 439.40,332.40 439.60,332.73 439.80,333.05 440.00,333.38 440.20,333.70 440.40,334.02 440.60,334.34 440.80,334.66 441.01,334.97 441.21,335.29 441.41,335.60 441.61,335.91 441.81,336.21 442.01,336.51 442.21,336.81 442.41,337.11 442.61,337.40 442.82,337.69 443.02,337.97 443.22,338.25 443.42,338.53 443.62,338.80 443.82,339.07 444.02,339.33 444.22,339.59 444.42,339.84 444.62,340.09 444.83,340.33 445.03,340.56 445.23,340.78 445.43,340.99 445.63,341.20 445.83,341.40 446.03,341.58 446.23,341.76 446.43,341.93 446.64,342.09 446.84,342.24 447.04,342.37 447.24,342.50 447.44,342.63 447.64,342.74 447.84,342.84 448.04,342.93 448.24,343.02 448.44,343.10 448.65,343.17 448.85,343.23 449.05,343.29 449.25,343.34 449.45,343.39 449.65,343.43 449.85,343.47 450.05,343.51 450.25,343.54 450.46,343.57 450.66,343.61 450.86,343.64 451.06,343.68 451.26,343.72 451.46,343.76 451.66,343.81 451.86,343.86 452.06,343.91 452.26,343.98 452.47,344.04 452.67,344.12 452.87,344.20 453.07,344.29 453.27,344.38 453.47,344.48 453.67,344.59 453.87,344.70 454.07,344.82 454.28,344.95 454.48,345.08 454.68,345.22 454.88,345.36 455.08,345.51 455.28,345.67 455.48,345.83 455.68,345.99 455.88,346.17 456.08,346.34 456.29,346.52 456.49,346.71 456.69,346.89 456.89,347.08 457.09,347.28 457.29,347.48 457.49,347.68 457.69,347.88 457.89,348.08 458.10,348.29 458.30,348.50 458.50,348.71 458.70,348.92 458.90,349.13 459.10,349.34 459.30,349.55 459.50,349.76 459.70,349.98 459.90,350.19 460.11,350.40 460.31,350.61 460.51,350.82 460.71,351.02 460.91,351.23 461.11,351.43 461.31,351.63 461.51,351.83 461.71,352.03 461.92,352.23 462.12,352.42 462.32,352.61 462.52,352.79 462.72,352.98 462.92,353.16 463.12,353.34 463.32,353.51 463.52,353.69 463.72,353.85 463.93,354.02 464.13,354.18 464.33,354.34 464.53,354.50 464.73,354.65 464.93,354.80 465.13,354.94 465.33,355.07 465.53,355.20 465.74,355.33 465.94,355.44 466.14,355.55 466.34,355.65 466.54,355.75 466.74,355.83 466.94,355.91 467.14,355.98 467.34,356.04 467.54,356.09 467.75,356.14 467.95,356.18 468.15,356.21 468.35,356.23 468.55,356.24 468.75,356.25 468.95,356.26 469.15,356.26 469.35,356.25 469.56,356.25 469.76,356.23 469.96,356.22 470.16,356.20 470.36,356.19 470.56,356.17 470.76,356.16 470.96,356.15 471.16,356.14 471.36,356.13 471.57,356.12 471.77,356.12 471.97,356.13 472.17,356.13 472.37,356.15 472.57,356.16 472.77,356.18 472.97,356.21 473.17,356.24 473.38,356.27 473.58,356.31 473.78,356.36 473.98,356.41 474.18,356.46 474.38,356.52 474.58,356.59 474.78,356.66 474.98,356.73 475.18,356.80 475.39,356.89 475.59,356.97 475.79,357.06 475.99,357.15 476.19,357.25 476.39,357.34 476.59,357.44 476.79,357.55 476.99,357.65 477.20,357.76 477.40,357.87 477.60,357.99 477.80,358.10 478.00,358.22 478.20,358.33 478.40,358.45 478.60,358.57 478.80,358.69 479.00,358.81 479.21,358.92 479.41,359.04 479.61,359.16 479.81,359.28 480.01,359.40 480.21,359.52 480.41,359.64 480.61,359.75 480.81,359.87 481.02,359.98 481.22,360.09 481.42,360.20 481.62,360.31 481.82,360.42 482.02,360.53 482.22,360.63 482.42,360.73 482.62,360.83 482.82,360.93 483.03,361.03 483.23,361.12 483.43,361.22 483.63,361.31 483.83,361.39 484.03,361.48 484.23,361.56 484.43,361.65 484.63,361.72 484.84,361.80 485.04,361.87 485.24,361.94 485.44,362.00 485.64,362.06 485.84,362.11 486.04,362.15 486.24,362.19 486.44,362.23 486.64,362.25 486.85,362.27 487.05,362.29 487.25,362.29 487.45,362.29 487.65,362.29 487.85,362.27 488.05,362.25 488.25,362.22 488.45,362.19 488.66,362.15 488.86,362.10 489.06,362.05 489.26,361.99 489.46,361.93 489.66,361.87 489.86,361.80 490.06,361.73 490.26,361.65 490.46,361.58 490.67,361.51 490.87,361.44 491.07,361.37 491.27,361.30 491.47,361.24 491.67,361.18 491.87,361.12 492.07,361.07 492.27,361.02 492.48,360.98 492.68,360.94 492.88,360.91 493.08,360.88 493.28,360.86 493.48,360.85 493.68,360.84 493.88,360.83 494.08,360.84 494.28,360.84 494.49,360.86 494.69,360.88 494.89,360.90 495.09,360.93 495.29,360.96 495.49,361.00 495.69,361.05 495.89,361.09 496.09,361.14 496.30,361.20 496.50,361.26 496.70,361.32 496.90,361.38 497.10,361.45 497.30,361.52 497.50,361.59 497.70,361.67 497.90,361.75 498.10,361.82 498.31,361.90 498.51,361.98 498.71,362.06 498.91,362.14 499.11,362.23 499.31,362.31 499.51,362.39 499.71,362.47 499.91,362.55 500.12,362.63 500.32,362.71 500.52,362.79 500.72,362.87 500.92,362.94 501.12,363.02 501.32,363.09 501.52,363.16 501.72,363.23 501.92,363.29 502.13,363.36 502.33,363.42 502.53,363.48 502.73,363.53 502.93,363.59 503.13,363.64 503.33,363.69 503.53,363.73 503.73,363.77 503.94,363.81 504.14,363.85 504.34,363.88 504.54,363.91 504.74,363.94 504.94,363.96 505.14,363.98 505.34,363.99 505.54,364.00 505.74,364.00 505.95,363.99 506.15,363.98 506.35,363.96 506.55,363.93 506.75,363.90 506.95,363.86 507.15,363.81 507.35,363.75 507.55,363.68 507.76,363.61 507.96,363.52 508.16,363.43 508.36,363.34 508.56,363.23 508.76,363.12 508.96,363.00 509.16,362.87 509.36,362.74 509.56,362.60 509.77,362.46 509.97,362.32 510.17,362.17 510.37,362.03 510.57,361.88 510.77,361.73 510.97,361.58 511.17,361.43 511.37,361.29 511.58,361.14 511.78,361.00 511.98,360.87 512.18,360.74 512.38,360.61 512.58,360.48 512.78,360.37 512.98,360.25 513.18,360.14 513.38,360.04 513.59,359.94 513.79,359.84 513.99,359.75 514.19,359.67 514.39,359.58 514.59,359.51 514.79,359.44 514.99,359.37 515.19,359.30 515.40,359.25 515.60,359.19 515.80,359.14 516.00,359.09 516.20,359.04 516.40,359.00 516.60,358.96 516.80,358.92 517.00,358.89 517.20,358.85 517.41,358.82 517.61,358.79 517.81,358.76 518.01,358.73 518.21,358.70 518.41,358.67 518.61,358.64 518.81,358.61 519.01,358.58 519.22,358.54 519.42,358.51 519.62,358.47 519.82,358.43 520.02,358.39 520.22,358.35 520.42,358.30 520.62,358.25 520.82,358.20 521.02,358.14 521.23,358.08 521.43,358.02 521.63,357.95 521.83,357.88 522.03,357.80 522.23,357.72 522.43,357.63 522.63,357.54 522.83,357.45 523.04,357.34 523.24,357.24 523.44,357.13 523.64,357.01 523.84,356.88 524.04,356.76 524.24,356.62 524.44,356.48 524.64,356.33 524.84,356.18 525.05,356.02 525.25,355.85 525.45,355.68 525.65,355.50 525.85,355.30 526.05,355.10 526.25,354.89 526.45,354.67 526.65,354.44 526.86,354.20 527.06,353.95 527.26,353.69 527.46,353.41 527.66,353.13 527.86,352.84 528.06,352.53 528.26,352.21 528.46,351.89 528.66,351.55 528.87,351.20 529.07,350.85 529.27,350.49 529.47,350.11 529.67,349.73 529.87,349.35 530.07,348.96 530.27,348.56 530.47,348.16 530.68,347.76 530.88,347.35 531.08,346.94 531.28,346.53 531.48,346.13 531.68,345.72 531.88,345.31 532.08,344.90 532.28,344.49 532.48,344.08 532.69,343.68 532.89,343.28 533.09,342.87 533.29,342.48 533.49,342.08 533.69,341.68 533.89,341.29 534.09,340.90 534.29,340.51 534.50,340.12 534.70,339.74 534.90,339.36 535.10,338.98 535.30,338.60 535.50,338.23 535.70,337.85 535.90,337.48 536.10,337.11 536.30,336.74 536.51,336.37 536.71,336.00 536.91,335.64 537.11,335.27 537.31,334.91 537.51,334.54 537.71,334.18 537.91,333.82 538.11,333.45 538.32,333.09 538.52,332.72 538.72,332.36 538.92,331.99 539.12,331.62 539.32,331.26 539.52,330.89 539.72,330.51 539.92,330.14 540.12,329.77 540.33,329.39 540.53,329.01 540.73,328.63 540.93,328.25 541.13,327.86 541.33,327.47 541.53,327.08 541.73,326.68 541.93,326.29 542.14,325.89 542.34,325.48 542.54,325.07 542.74,324.66 542.94,324.25 543.14,323.83 543.34,323.41 543.54,322.99 543.74,322.56 543.94,322.13 544.15,321.70 544.35,321.26 544.55,320.82 544.75,320.38 544.95,319.93 545.15,319.48 545.35,319.02 545.55,318.56 545.75,318.10 545.96,317.63 546.16,317.15 546.36,316.67 546.56,316.18 546.76,315.69 546.96,315.19 547.16,314.68 547.36,314.17 547.56,313.65 547.76,313.12 547.97,312.58 548.17,312.04 548.37,311.48 548.57,310.92 548.77,310.36 548.97,309.78 549.17,309.20 549.37,308.62 549.57,308.03 549.78,307.43 549.98,306.83 550.18,306.23 550.38,305.63 550.58,305.02 550.78,304.41 550.98,303.80 551.18,303.20 551.38,302.59 551.58,301.99 551.79,301.38 551.99,300.78 552.19,300.18 552.39,299.59 552.59,299.00 552.79,298.41 552.99,297.83 553.19,297.25 553.39,296.67 553.60,296.10 553.80,295.53 554.00,294.97 554.20,294.42 554.40,293.87 554.60,293.32 554.80,292.78 555.00,292.24 555.20,291.71 555.40,291.18 555.61,290.66 555.81,290.14 556.01,289.63 556.21,289.12 556.41,288.62 556.61,288.12 556.81,287.63 557.01,287.14 557.21,286.66 557.42,286.18 557.62,285.70 557.82,285.23 558.02,284.76 558.22,284.30 558.42,283.84 558.62,283.39 558.82,282.94 559.02,282.49 559.22,282.04 559.43,281.60 559.63,281.17 559.83,280.73 560.03,280.30 560.23,279.87 560.43,279.45 560.63,279.02 560.83,278.60 561.03,278.19 561.24,277.77 561.44,277.36 561.64,276.95 561.84,276.54 562.04,276.14 562.24,275.73 562.44,275.33 562.64,274.93 562.84,274.53 563.04,274.13 563.25,273.74 563.45,273.34 563.65,272.95 563.85,272.56 564.05,272.17 564.25,271.78 564.45,271.39 564.65,271.00 564.85,270.61 565.06,270.23 565.26,269.84 565.46,269.45 565.66,269.06 565.86,268.67 566.06,268.28 566.26,267.88 566.46,267.49 566.66,267.08 566.86,266.68 567.07,266.27 567.27,265.85 567.47,265.43 567.67,265.01 567.87,264.58 568.07,264.15 568.27,263.71 568.47,263.26 568.67,262.81 568.88,262.36 569.08,261.90 569.28,261.44 569.48,260.97 569.68,260.50 569.88,260.02 570.08,259.55 570.28,259.07 570.48,258.58 570.68,258.10 570.89,257.62 571.09,257.14 571.29,256.66 571.49,256.18 571.69,255.71 571.89,255.23 572.09,254.76 572.29,254.30 572.49,253.83 572.70,253.37 572.90,252.92 573.10,252.46 573.30,252.02 573.50,251.57 573.70,251.13 573.90,250.70 574.10,250.27 574.30,249.84 574.50,249.41 574.71,248.99 574.91,248.58 575.11,248.17 575.31,247.76 575.51,247.35 575.71,246.95 575.91,246.55 576.11,246.15 576.31,245.75 576.52,245.36 576.72,244.96 576.92,244.57 577.12,244.19 577.32,243.80 577.52,243.41 577.72,243.02 577.92,242.64 578.12,242.25 578.32,241.87 578.53,241.48 578.73,241.10 578.93,240.71 579.13,240.32 579.33,239.93 579.53,239.55 579.73,239.15 579.93,238.76 580.13,238.37 580.34,237.97 580.54,237.58 580.74,237.18 580.94,236.78 581.14,236.38 581.34,235.97 581.54,235.56 581.74,235.15 581.94,234.74 582.14,234.33 582.35,233.91 582.55,233.49 582.75,233.07 582.95,232.65 583.15,232.22 583.35,231.79 583.55,231.36 583.75,230.92 583.95,230.49 584.16,230.05 584.36,229.61 584.56,229.16 584.76,228.72 584.96,228.27 585.16,227.81 585.36,227.36 585.56,226.90 585.76,226.43 585.96,225.96 586.17,225.49 586.37,225.01 586.57,224.52 586.77,224.03 586.97,223.54 587.17,223.03 587.37,222.53 587.57,222.01 587.77,221.49 587.98,220.97 588.18,220.44 588.38,219.91 588.58,219.37 588.78,218.83 588.98,218.28 589.18,217.73 589.38,217.18 589.58,216.62 589.78,216.06 589.99,215.50 590.19,214.94 590.39,214.38 590.59,213.82 590.79,213.26 590.99,212.70 591.19,212.15 591.39,211.60 591.59,211.06 591.80,210.52 592.00,209.98 592.20,209.46 592.40,208.94 592.60,208.42 592.80,207.92 593.00,207.42 593.20,206.94 593.40,206.46 593.60,205.99 593.81,205.53 594.01,205.07 594.21,204.63 594.41,204.20 594.61,203.77 594.81,203.35 595.01,202.95 595.21,202.55 595.41,202.16 595.62,201.77 595.82,201.40 596.02,201.04 596.22,200.68 596.42,200.33 596.62,199.99 596.82,199.66 597.02,199.33 597.22,199.01 597.42,198.70 597.63,198.39 597.83,198.09 598.03,197.80 598.23,197.51 598.43,197.23 598.63,196.95 598.83,196.68 599.03,196.41 599.23,196.15 599.44,195.89 599.64,195.63 599.84,195.38 600.04,195.14 600.24,194.89 600.44,194.65 600.64,194.42 600.84,194.18 601.04,193.95 601.24,193.73 601.45,193.50 601.65,193.28 601.85,193.06 602.05,192.84 602.25,192.63 602.45,192.41 602.65,192.20 602.85,192.00 603.05,191.79 603.26,191.59 603.46,191.38 603.66,191.18 603.86,190.99 604.06,190.79 604.26,190.60 604.46,190.41 604.66,190.22 604.86,190.03 605.06,189.84 605.27,189.66 605.47,189.48 605.67,189.30 605.87,189.12 606.07,188.94 606.27,188.76 606.47,188.58 606.67,188.40 606.87,188.22 607.08,188.04 607.28,187.86 607.48,187.68 607.68,187.50 607.88,187.32 608.08,187.14 608.28,186.95 608.48,186.77 608.68,186.59 608.88,186.41 609.09,186.23 609.29,186.05 609.49,185.87 609.69,185.69 609.89,185.52 610.09,185.35 610.29,185.19 610.49,185.03 610.69,184.88 610.90,184.73 611.10,184.60 611.30,184.47 611.50,184.34 611.70,184.23 611.90,184.13 612.10,184.04 612.30,183.96 612.50,183.89 612.70,183.82 612.91,183.77 613.11,183.73 613.31,183.71 613.51,183.69 613.71,183.68 613.91,183.69 614.11,183.71 614.31,183.73 614.51,183.77 614.72,183.82 614.92,183.88 615.12,183.96 615.32,184.04 615.52,184.13 615.72,184.24 615.92,184.35 616.12,184.48 616.32,184.61 616.52,184.76 616.73,184.91 616.93,185.08 617.13,185.25 617.33,185.43 617.53,185.62 617.73,185.82 617.93,186.03 618.13,186.24 618.33,186.47 618.54,186.70 618.74,186.93 618.94,187.18 619.14,187.43 619.34,187.68 619.54,187.94 619.74,188.21 619.94,188.48 620.14,188.76 620.34,189.04 620.55,189.33 620.75,189.62 620.95,189.92 621.15,190.21 621.35,190.51 621.55,190.82 621.75,191.12 621.95,191.43 622.15,191.74 622.36,192.05 622.56,192.37 622.76,192.68 622.96,193.00 623.16,193.32 623.36,193.64 623.56,193.95 623.76,194.27 623.96,194.59 624.16,194.91 624.37,195.23 624.57,195.55 624.77,195.86 624.97,196.18 625.17,196.49 625.37,196.80 625.57,197.11 625.77,197.41 625.97,197.71 626.18,198.01 626.38,198.29 626.58,198.58 626.78,198.85 626.98,199.12 627.18,199.38 627.38,199.63 627.58,199.87 627.78,200.11 627.98,200.34 628.19,200.56 628.39,200.77 628.59,200.97 628.79,201.17 628.99,201.35 629.19,201.53 629.39,201.70 629.59,201.86 629.79,202.02 630.00,202.17 630.20,202.31 630.40,202.44 630.60,202.57 630.80,202.70 631.00,202.82 631.20,202.94 631.40,203.05 631.60,203.16 631.80,203.27 632.01,203.38 632.21,203.49 632.41,203.60 632.61,203.71 632.81,203.82 633.01,203.94 633.21,204.06 633.41,204.18 633.61,204.30 633.82,204.43 634.02,204.56 634.22,204.70 634.42,204.83 634.62,204.98 634.82,205.12 635.02,205.27 635.22,205.42 635.42,205.58 635.62,205.74 635.83,205.90 636.03,206.07 636.23,206.24 636.43,206.41 636.63,206.59 636.83,206.77 637.03,206.95 637.23,207.13 637.43,207.32 637.64,207.51 637.84,207.70 638.04,207.89 638.24,208.08 638.44,208.28 638.64,208.48 638.84,208.67 639.04,208.87 639.24,209.07 639.44,209.27 639.65,209.47 639.85,209.67 640.05,209.86 640.25,210.06 640.45,210.26 640.65,210.46 640.85,210.66 641.05,210.85 641.25,211.05 641.45,211.24 641.66,211.44 641.86,211.63 642.06,211.82 642.26,212.01 642.46,212.19 642.66,212.38 642.86,212.56 643.06,212.75 643.26,212.93 643.47,213.11 643.67,213.28 643.87,213.46 644.07,213.63 644.27,213.80 644.47,213.97 644.67,214.13 644.87,214.29 645.07,214.46 645.27,214.61 645.48,214.77 645.68,214.92 645.88,215.07 646.08,215.21 646.28,215.35 646.48,215.49 646.68,215.62 646.88,215.75 647.08,215.87 647.29,215.99 647.49,216.10 647.69,216.20 647.89,216.29 648.09,216.38 648.29,216.47 648.49,216.54 648.69,216.61 648.89,216.68 649.09,216.73 649.30,216.78 649.50,216.82 649.70,216.86 649.90,216.89 650.10,216.92 650.30,216.94 650.50,216.96 650.70,216.98 650.90,216.99 651.11,217.00 651.31,217.01 651.51,217.02 651.71,217.03 651.91,217.04 652.11,217.04 652.31,217.05 652.51,217.05 652.71,217.06 652.91,217.06 653.12,217.07 653.32,217.07 653.52,217.08 653.72,217.08 653.92,217.08 654.12,217.09 654.32,217.09 654.52,217.09 654.72,217.10 654.93,217.10 655.13,217.10 655.33,217.10 655.53,217.10 655.73,217.09 655.93,217.09 656.13,217.08 656.33,217.07 656.53,217.06 656.73,217.05 656.94,217.03 657.14,217.01 657.34,216.99 657.54,216.96 657.74,216.93 657.94,216.90 658.14,216.86 658.34,216.82 658.54,216.77 658.75,216.72 658.95,216.67 659.15,216.61 659.35,216.54 659.55,216.47 659.75,216.40 659.95,216.32 660.15,216.23 660.35,216.14 660.55,216.04 660.76,215.94 660.96,215.83 661.16,215.71 661.36,215.59 661.56,215.46 661.76,215.33 661.96,215.18 662.16,215.04 662.36,214.88 662.57,214.72 662.77,214.56 662.97,214.38 663.17,214.20 663.37,214.02 663.57,213.82 663.77,213.62 663.97,213.42 664.17,213.20 664.37,212.98 664.58,212.76 664.78,212.53 664.98,212.29 665.18,212.04 665.38,211.79 665.58,211.54 665.78,211.27 665.98,211.01 666.18,210.73 666.39,210.45 666.59,210.16 666.79,209.87 666.99,209.56 667.19,209.25 667.39,208.94 667.59,208.61 667.79,208.28 667.99,207.94 668.19,207.59 668.40,207.23 668.60,206.86 668.80,206.49 669.00,206.11 669.20,205.72 669.40,205.33 669.60,204.93 669.80,204.52 670.00,204.11 670.21,203.69 670.41,203.27 670.61,202.85 670.81,202.42 671.01,201.99 671.21,201.56 671.41,201.13 671.61,200.70 671.81,200.27 672.01,199.84 672.22,199.41 672.42,198.98 672.62,198.56 672.82,198.14 673.02,197.72 673.22,197.30 673.42,196.89 673.62,196.48 673.82,196.08 674.03,195.67 674.23,195.28 674.43,194.88 674.63,194.49 674.83,194.11 675.03,193.72 675.23,193.35 675.43,192.97 675.63,192.60 675.83,192.24 676.04,191.88 676.24,191.52 676.44,191.17 676.64,190.82 676.84,190.48 677.04,190.14 677.24,189.80 677.44,189.47 677.64,189.14 677.85,188.82 678.05,188.50 678.25,188.18 678.45,187.87 678.65,187.56 678.85,187.26 679.05,186.95 679.25,186.65 679.45,186.36 679.65,186.06 679.86,185.77 680.06,185.49 680.26,185.20 680.46,184.92 680.66,184.64 680.86,184.37 681.06,184.10 681.26,183.83 681.46,183.56 681.67,183.30 681.87,183.04 682.07,182.78 682.27,182.52 682.47,182.27 682.67,182.02 682.87,181.78 683.07,181.53 683.27,181.29 683.47,181.05 683.68,180.82 683.88,180.58 684.08,180.35 684.28,180.12 684.48,179.90 684.68,179.67 684.88,179.45 685.08,179.24 685.28,179.02 685.49,178.81 685.69,178.59 685.89,178.38 686.09,178.17 686.29,177.96 686.49,177.75 686.69,177.54 686.89,177.33 687.09,177.12 687.29,176.91 687.50,176.69 687.70,176.47 687.90,176.26 688.10,176.03 688.30,175.81 688.50,175.59 688.70,175.36 688.90,175.13 689.10,174.90 689.31,174.67 689.51,174.44 689.71,174.20 689.91,173.97 690.11,173.73 690.31,173.50 690.51,173.26 690.71,173.03 690.91,172.80 691.11,172.57 691.32,172.34 691.52,172.11 691.72,171.89 691.92,171.68 692.12,171.47 692.32,171.27 692.52,171.07 692.72,170.88 692.92,170.70 693.13,170.52 693.33,170.35 693.53,170.19 693.73,170.04 693.93,169.90 694.13,169.76 694.33,169.63 694.53,169.51 694.73,169.40 694.93,169.29 695.14,169.20 695.34,169.11 695.54,169.02 695.74,168.95 695.94,168.88 696.14,168.82 696.34,168.76 696.54,168.71 696.74,168.67 696.95,168.63 697.15,168.60 697.35,168.57 697.55,168.55 697.75,168.53 697.95,168.52 698.15,168.51 698.35,168.51 698.55,168.50 698.75,168.50 698.96,168.51 699.16,168.51 699.36,168.52 699.56,168.53 699.76,168.55 699.96,168.56 700.16,168.58 700.36,168.59 700.56,168.61 700.77,168.63 700.97,168.64 701.17,168.66 701.37,168.68 701.57,168.70 701.77,168.72 701.97,168.73 702.17,168.75 702.37,168.77 702.57,168.78 702.78,168.79 702.98,168.81 703.18,168.82 703.38,168.83 703.58,168.84 703.78,168.84 703.98,168.85 704.18,168.85 704.38,168.85 704.59,168.85 704.79,168.85 704.99,168.84 705.19,168.84 705.39,168.83 705.59,168.81 705.79,168.80 705.99,168.78 706.19,168.75 706.39,168.72 706.60,168.69 706.80,168.65 707.00,168.60 707.20,168.55 707.40,168.49 707.60,168.42 707.80,168.35 708.00,168.27 708.20,168.18 708.41,168.08 708.61,167.98 708.81,167.87 709.01,167.76 709.21,167.63 709.41,167.50 709.61,167.37 709.81,167.23 710.01,167.08 710.21,166.93 710.42,166.77 710.62,166.61 710.82,166.45 711.02,166.28 711.22,166.11 711.42,165.95 711.62,165.78 711.82,165.61 712.02,165.44 712.23,165.28 712.43,165.11 712.63,164.95 712.83,164.80 713.03,164.65 713.23,164.50 713.43,164.36 713.63,164.22 713.83,164.09 714.03,163.96 714.24,163.84 714.44,163.72 714.64,163.61 714.84,163.50 715.04,163.40 715.24,163.30 715.44,163.21 715.64,163.13 715.84,163.05 716.05,162.97 716.25,162.90 716.45,162.84 716.65,162.77 716.85,162.72 717.05,162.66 717.25,162.61 717.45,162.56 717.65,162.52 717.85,162.48 718.06,162.44 718.26,162.41 718.46,162.37 718.66,162.34 718.86,162.31 719.06,162.28 719.26,162.26 719.46,162.23 719.66,162.21 719.87,162.19 720.07,162.16 720.27,162.14 720.47,162.12 720.67,162.10 720.87,162.08 721.07,162.05 721.27,162.03 721.47,162.01 721.67,161.98 721.88,161.96 722.08,161.93 722.28,161.90 722.48,161.87 722.68,161.84 722.88,161.80 723.08,161.77 723.28,161.73 723.48,161.69 723.69,161.65 723.89,161.61 724.09,161.56 724.29,161.51 724.49,161.46 724.69,161.41 724.89,161.36 725.09,161.30 725.29,161.24 725.49,161.18 725.70,161.12 725.90,161.06 726.10,160.99 726.30,160.92 726.50,160.84 726.70,160.76 726.90,160.67 727.10,160.58 727.30,160.49 727.51,160.39 727.71,160.28 727.91,160.17 728.11,160.05 728.31,159.92 728.51,159.79 728.71,159.66 728.91,159.51 729.11,159.37 729.31,159.21 729.52,159.06 729.72,158.89 729.92,158.73 730.12,158.55 730.32,158.38 730.52,158.20 730.72,158.02 730.92,157.84 731.12,157.65 731.33,157.47 731.53,157.29 731.73,157.11 731.93,156.93 732.13,156.75 732.33,156.58 732.53,156.41 732.73,156.24 732.93,156.08 733.13,155.93 733.34,155.78 733.54,155.64 733.74,155.50 733.94,155.37 734.14,155.25 734.34,155.13 734.54,155.02 734.74,154.92 734.94,154.82 735.15,154.73 735.35,154.65 735.55,154.57 735.75,154.50 735.95,154.43 736.15,154.38 736.35,154.32 736.55,154.28 736.75,154.23 736.95,154.20 737.16,154.17 737.36,154.14 737.56,154.12 737.76,154.11 737.96,154.09 738.16,154.09 738.36,154.08 738.56,154.08 738.76,154.09 738.97,154.09 739.17,154.10 739.37,154.12 739.57,154.13 739.77,154.15 739.97,154.17 740.17,154.19 740.37,154.22 740.57,154.24 740.77,154.27 740.98,154.30 741.18,154.33 741.38,154.36 741.58,154.39 741.78,154.42 741.98,154.45 742.18,154.48 742.38,154.52 742.58,154.55 742.79,154.58 742.99,154.62 743.19,154.65 743.39,154.68 743.59,154.71 743.79,154.75 743.99,154.78 744.19,154.81 744.39,154.84 744.59,154.87 744.80,154.90 745.00,154.93 745.20,154.96 745.40,154.98 745.60,155.01 745.80,155.03 746.00,155.06 746.20,155.08 746.40,155.09 746.61,155.11 746.81,155.12 747.01,155.12 747.21,155.12 747.41,155.12 747.61,155.11 747.81,155.10 748.01,155.08 748.21,155.05 748.41,155.02 748.62,154.98 748.82,154.94 749.02,154.89 749.22,154.84 749.42,154.78 749.62,154.71 749.82,154.64 750.02,154.57 750.22,154.49 750.43,154.40 750.63,154.32 750.83,154.23 751.03,154.13 751.23,154.04 751.43,153.94 751.63,153.84 751.83,153.75 752.03,153.65 752.23,153.56 752.44,153.47 752.64,153.38 752.84,153.30 753.04,153.22 753.24,153.14 753.44,153.07 753.64,153.01 753.84,152.95 754.04,152.89 754.25,152.84 754.45,152.79 754.65,152.75 754.85,152.72 755.05,152.69 755.25,152.66 755.45,152.65 755.65,152.63 755.85,152.62 756.05,152.62 756.26,152.62 756.46,152.63 756.66,152.63 756.86,152.65 757.06,152.67 757.26,152.69 757.46,152.71 757.66,152.74 757.86,152.77 758.07,152.81 758.27,152.84 758.47,152.88 758.67,152.92 758.87,152.97 759.07,153.01 759.27,153.06 759.47,153.10 759.67,153.15 759.87,153.20 760.08,153.25 760.28,153.30 760.48,153.36 760.68,153.41 760.88,153.46 761.08,153.51 761.28,153.56 761.48,153.61 761.68,153.66 761.89,153.71 762.09,153.76 762.29,153.80 762.49,153.85 762.69,153.89 762.89,153.94 763.09,153.98 763.29,154.02 763.49,154.06 763.69,154.10 763.90,154.13 764.10,154.17 764.30,154.20 764.50,154.23 764.70,154.25 764.90,154.28 765.10,154.30 765.30,154.32 765.50,154.34 765.71,154.36 765.91,154.37 766.11,154.38 766.31,154.39 766.51,154.39 766.71,154.38 766.91,154.38 767.11,154.36 767.31,154.35 767.51,154.32 767.72,154.29 767.92,154.26 768.12,154.22 768.32,154.17 768.52,154.11 768.72,154.05 768.92,153.98 769.12,153.91 769.32,153.83 769.53,153.74 769.73,153.65 769.93,153.55 770.13,153.45 770.33,153.35 770.53,153.24 770.73,153.12 770.93,153.00 771.13,152.89 771.33,152.76 771.54,152.64 771.74,152.52 771.94,152.40 772.14,152.28 772.34,152.17 772.54,152.06 772.74,151.95 772.94,151.84 773.14,151.74 773.35,151.64 773.55,151.55 773.75,151.46 773.95,151.38 774.15,151.30 774.35,151.23 774.55,151.17 774.75,151.11 774.95,151.05 775.15,151.01 775.36,150.96 775.56,150.93 775.76,150.90 775.96,150.87 776.16,150.85 776.36,150.83 776.56,150.82 776.76,150.82 776.96,150.82 777.17,150.82 777.37,150.83 777.57,150.85 777.77,150.87 777.97,150.89 778.17,150.91 778.37,150.94 778.57,150.97 778.77,151.01 778.97,151.05 779.18,151.09 779.38,151.13 779.58,151.18 779.78,151.23 779.98,151.28 780.18,151.33 780.38,151.38 780.58,151.44 780.78,151.49 780.99,151.55 781.19,151.60 781.39,151.66 781.59,151.72 781.79,151.77 781.99,151.83 782.19,151.89 782.39,151.94 782.59,152.00 782.79,152.05 783.00,152.11 783.20,152.16 783.40,152.22 783.60,152.27 783.80,152.32 784.00,152.37 784.20,152.42 784.40,152.47 784.60,152.51 784.81,152.56 785.01,152.60 785.21,152.64 785.41,152.68 785.61,152.72 785.81,152.76 786.01,152.79 786.21,152.82 786.41,152.85 786.61,152.88 786.82,152.90 787.02,152.92 787.22,152.94 787.42,152.95 787.62,152.95 787.82,152.95 788.02,152.94 788.22,152.93 788.42,152.91 788.63,152.88 788.83,152.85 789.03,152.81 789.23,152.77 789.43,152.72 789.63,152.66 789.83,152.60 790.03,152.53 790.23,152.46 790.43,152.38 790.64,152.30 790.84,152.21 791.04,152.12 791.24,152.03 791.44,151.94 791.64,151.84 791.84,151.75 792.04,151.66 792.24,151.56 792.45,151.47 792.65,151.38 792.85,151.29 793.05,151.21 793.25,151.12 793.45,151.04 793.65,150.97 793.85,150.90 794.05,150.83 794.25,150.76 794.46,150.70 794.66,150.64 794.86,150.59 795.06,150.54 795.26,150.49 795.46,150.45 795.66,150.41 795.86,150.38 796.06,150.35 796.27,150.32 796.47,150.29 796.67,150.27 796.87,150.25 797.07,150.23 797.27,150.22 797.47,150.21 797.67,150.20 797.87,150.19 798.07,150.18 798.28,150.18 798.48,150.17 798.68,150.17 798.88,150.17 799.08,150.16 799.28,150.16 799.48,150.16 799.68,150.16 799.88,150.16 800.09,150.15 800.29,150.15 800.49,150.14 800.69,150.14 800.89,150.13 801.09,150.12 801.29,150.11 801.49,150.10 801.69,150.09 801.89,150.07 802.10,150.06 802.30,150.04 802.50,150.01 802.70,149.99 802.90,149.96 803.10,149.93 803.30,149.90 803.50,149.86 803.70,149.82 803.91,149.78 804.11,149.74 804.31,149.69 804.51,149.64 804.71,149.59 804.91,149.53 805.11,149.47 805.31,149.41 805.51,149.34 805.71,149.27 805.92,149.20 806.12,149.13 806.32,149.05 806.52,148.97 806.72,148.88 806.92,148.79 807.12,148.70 807.32,148.60 807.52,148.50 807.73,148.39 807.93,148.27 808.13,148.15 808.33,148.03 808.53,147.89 808.73,147.75 808.93,147.61 809.13,147.46 809.33,147.30 809.53,147.13 809.74,146.96 809.94,146.78 810.14,146.60 810.34,146.41 810.54,146.21 810.74,146.02 810.94,145.81 811.14,145.61 811.34,145.40 811.55,145.19 811.75,144.98 811.95,144.77 812.15,144.55 812.35,144.34 812.55,144.13 812.75,143.93 812.95,143.72 813.15,143.52 813.35,143.31 813.56,143.11 813.76,142.92 813.96,142.72 814.16,142.53 814.36,142.34 814.56,142.16 814.76,141.98 814.96,141.80 815.16,141.63 815.37,141.45 815.57,141.29 815.77,141.12 815.97,140.96 816.17,140.80 816.37,140.65 816.57,140.49 816.77,140.34 816.97,140.20 817.17,140.05 817.38,139.91 817.58,139.77 817.78,139.63 817.98,139.49 818.18,139.36 818.38,139.22 818.58,139.09 818.78,138.96 818.98,138.83 819.19,138.70 819.39,138.56 819.59,138.43 819.79,138.30 819.99,138.17 820.19,138.04 820.39,137.91 820.59,137.77 820.79,137.64 820.99,137.50 821.20,137.37 821.40,137.23 821.60,137.09 821.80,136.95 822.00,136.81" fill="none" stroke="#c5221f" stroke-width="2"/>
<text x="662" y="56" font-family="Arial" font-size="12" fill="#c5221f">Experiment</text>
</svg>